<?xml version="1.0" encoding="utf-8"?>
<!-- Generator: Adobe Illustrator 24.2.3, SVG Export Plug-In . SVG Version: 6.00 Build 0)  -->
<svg version="1.1" id="Camada_1" xmlns="http://www.w3.org/2000/svg" xmlns:xlink="http://www.w3.org/1999/xlink" x="0px" y="0px"
	 viewBox="0 0 120 37.5" style="enable-background:new 0 0 120 37.5;" xml:space="preserve">
<style type="text/css">
	.st0{fill:#100F10;}
	.st1{fill:#531867;}
</style>
<g>
	<path class="st0" d="M52.9,23.7l9.4-12.9h-3l-8,10.9l-8-10.9H40l9.5,13l-8.6,11.6l-5-7.1c3.9-1.3,6.1-4.2,6.1-8.4
		c0-5.7-4.1-9.1-10.9-9.1H0v2.4h9.4v24.2h2.8V13.2h8.9v24.2h2.8V29h7.2c0.7,0,1.4,0,2.1-0.1l6.1,8.6h3.3l8.6-11.7l8.6,11.7h3.3
		L52.9,23.7z M31,26.6h-7.1V13.2H31c5.3,0,8.1,2.4,8.1,6.7C39.2,24.1,36.3,26.6,31,26.6L31,26.6z"/>
	<path class="st1" d="M120,24.1L87.1,9.7l-1.2-0.8c-1.7-3.6-3.1-6.2-3.7-7c-0.3-0.4-0.6-0.7-1-1c-0.3-0.3-0.7-0.5-1-0.6
		C79.6,0,79.1,0,78.7,0l-2.1,0.4l-7.4,1.6c-1.7,0.7-2.7,2.4-2.5,4.1c0.1,0.8,0.4,1.5,0.9,2.1c0.5,0.6,1.2,1,1.9,1.2h7l2.1,3.3v2.9
		c-1.4,0.5-2.6,1.5-3.3,2.9v1.6c0.1,0.5,0.5,0.8,0.8,0.8c0.4,0,0.9-0.5,0.8-1.2c0-0.2,0-0.5,0.1-0.7c0.1-0.2,0.2-0.4,0.4-0.6
		c0.2-0.2,0.4-0.3,0.6-0.4c0.2-0.1,0.4-0.1,0.7-0.1c0,0.4,0,3.9,2.9,6.2c2.2,1.8,4.7,1.7,5.3,1.6C86.5,25,86.4,24,86.4,23
		c0.1-1,0.4-2,0.9-2.8c0,0.2-0.6,3.8,2.1,6.2c2.2,2,4.9,1.7,5.3,1.6l3.3,3.3v2.9c-0.7-0.1-1.5,0.1-2.1,0.5c-1.5,0.9-1.6,2.6-1.6,2.8
		h6.2l2.9-7.8l-2.5-5.4L120,24.1z M77.4,3.6c-0.2,0-0.5-0.1-0.7-0.2c-0.2-0.1-0.3-0.3-0.4-0.5c-0.1-0.2-0.1-0.5-0.1-0.7
		c0-0.2,0.2-0.4,0.3-0.6c0.2-0.2,0.4-0.3,0.6-0.3c0.2,0,0.5,0,0.7,0.1c0.2,0.1,0.4,0.2,0.5,0.4c0.1,0.2,0.2,0.4,0.2,0.7
		c0,0.2,0,0.3-0.1,0.5c-0.1,0.1-0.1,0.3-0.3,0.4c-0.1,0.1-0.2,0.2-0.4,0.3C77.7,3.6,77.6,3.6,77.4,3.6z"/>
	<path class="st1" d="M93.1,37.4l3.1-6.8L94.5,29c-1.2,0.1-2.3,0-3.4-0.5c-1.1-0.4-2-1.1-2.8-2h-2.5l4.9,4.5v3.7
		c-0.4-0.1-0.7-0.1-1.1,0c-0.4,0.1-0.7,0.2-1,0.4c-1.1,0.8-1,2.2-1,2.3L93.1,37.4z"/>
</g>
</svg>
