<?xml version="1.0" encoding="utf-8"?>
<!-- Generator: Adobe Illustrator 24.3.0, SVG Export Plug-In . SVG Version: 6.00 Build 0)  -->
<svg version="1.1" id="Layer_1" xmlns="http://www.w3.org/2000/svg" xmlns:xlink="http://www.w3.org/1999/xlink" x="0px" y="0px"
	 viewBox="0 0 149.89 71.38" style="enable-background:new 0 0 149.89 71.38;" xml:space="preserve">
<style type="text/css">
	.st0{fill:#C89034;}
	.st1{fill:#2D522D;}
</style>
<g>
	<g>
		<path class="st0" d="M20.91,61.15c0.13,0.44,0.23,0.92,0.25,1.46c0.17,0.51,0.3,1.07,0.3,1.73c0,4.28-4.28,6.53-10.14,6.53
			c-2.6,0-6.45-0.67-9.18-1.55l0,0.11c2.71,1.05,7.27,1.91,10.23,1.91c5.85,0,10.14-2.25,10.14-6.53
			C22.51,63.15,21.88,61.99,20.91,61.15z"/>
		<path class="st0" d="M13.68,61.95c-2.14-0.55-5.55-0.68-8.21-1.73c2.4,1.32,5.84,1.55,8.3,2c0-0.01,0.01-0.03,0.01-0.04
			C13.78,62.1,13.75,62.02,13.68,61.95z"/>
		<path class="st0" d="M11.79,53.99c-2.08,0-3.66,0.38-4.22,1.19c0.27,0.15,0.67,0.28,1.1,0.39c0.62-0.76,2.16-1.11,4.17-1.11
			c1.79,0,3.57,0.33,5.09,0.81c-0.2-0.12-0.41-0.23-0.64-0.35C15.69,54.37,13.74,53.99,11.79,53.99z"/>
		<path class="st0" d="M20.78,56.59V50.4c-0.3-0.13-0.66-0.25-1.04-0.37V56C20.12,56.19,20.48,56.39,20.78,56.59z"/>
		<path class="st0" d="M41.32,57.95C41.32,57.95,41.32,57.94,41.32,57.95l-0.66-1.59c0-0.01-0.01-0.03-0.01-0.04
			c-0.1,0.36-0.22,0.73-0.37,1.15l-1,2.41h1.24L41.32,57.95z"/>
		<path class="st0" d="M37.41,65.35l-0.4,0.96c-0.55,1.66-0.92,3.14-0.99,4.13h-5.53c-0.08,0.17-0.16,0.33-0.23,0.48h6.81
			c0.06-0.99,0.43-2.46,0.99-4.13l0.4-0.96h5.69c-0.05-0.16-0.09-0.31-0.15-0.48H37.41z"/>
		<path class="st0" d="M48.59,55.82c-0.71-2.1-1.05-4.78-1.14-6.47h-1c0.06,0.76,0.15,1.64,0.3,2.58c0.14,0.61,0.29,1.21,0.47,1.75
			l3.46,8.66c0.98,2.78,1.91,5.1,2.57,6.36l0.72,1.74l-6.17,0c0.02,0.16,0.05,0.33,0.06,0.48h6.81c-0.8-1.54-1.82-4.19-2.62-6.47
			L48.59,55.82z"/>
		<path class="st0" d="M69.9,61.18h5.61c0.15,0,0.29,0.02,0.44,0.03c-0.08-0.14-0.18-0.27-0.31-0.38c-0.37-0.08-0.75-0.13-1.17-0.13
			h-5.61v2.81h1.04V61.18z"/>
		<path class="st0" d="M69.9,53.91h4.99c0.09,0,0.18,0.01,0.26,0.01c-0.05-0.14-0.13-0.28-0.25-0.39c-0.33-0.06-0.68-0.1-1.06-0.1
			h-4.99v2.13h1.04V53.91z"/>
		<path class="st0" d="M83.18,61.64c0.15,0.47,0.24,0.98,0.26,1.51c0.18,0.52,0.3,1.07,0.3,1.68c0,3.61-3.33,5.61-7.55,5.61H63.77
			c-0.03,0.15-0.06,0.34-0.09,0.48h13.56c4.22,0,7.55-2,7.55-5.61C84.79,63.78,84.18,62.55,83.18,61.64z"/>
		<path class="st0" d="M82.79,54.05c0,1.82-1.04,3.25-2.65,4.1c0.33,0.17,0.63,0.36,0.91,0.56c1.69-0.85,2.79-2.31,2.79-4.18
			c0-1.42-0.6-2.55-1.57-3.4c0.12,0.43,0.21,0.87,0.22,1.35C82.66,52.96,82.79,53.47,82.79,54.05z"/>
		<path class="st0" d="M115.84,56.3c0.27,1.03,0.42,2.14,0.42,3.35c0,7.24-5.05,11.22-11.4,11.22c-1.8,0-3.47-0.35-4.98-0.98
			c1.74,0.95,3.8,1.45,6.02,1.45c6.35,0,11.4-3.98,11.4-11.22c0-3.17-0.98-5.72-2.61-7.58C115.25,53.69,115.66,54.93,115.84,56.3z"
			/>
		<path class="st0" d="M100.36,60.13c0-4.22,2.4-6.75,5.55-6.75c0.24,0,0.47,0.04,0.71,0.07c-0.14-0.12-0.26-0.27-0.42-0.38
			c-0.43-0.11-0.87-0.18-1.33-0.18c-3.14,0-5.55,2.53-5.55,6.75c0,0.39,0.04,0.74,0.08,1.1c0.3,0.97,0.8,1.76,1.45,2.35
			C100.54,62.24,100.36,61.25,100.36,60.13z"/>
		<path class="st0" d="M133.96,54.71h5.08c0.05,0,0.1,0.01,0.15,0.01c-0.06-0.14-0.16-0.28-0.29-0.4c-0.29-0.05-0.58-0.09-0.91-0.09
			h-5.08v2.35h1.04V54.71z"/>
		<path class="st0" d="M134.96,61.47c-0.46,0-1.76,0.03-2.03,0.19v2.31c0,1.84,0.11,3.73,0.33,5.23l0.17,0.71h-0.04
			c0.03,0.17,0.06,0.38,0.1,0.53h-5.62c-0.03,0.15-0.05,0.34-0.08,0.48h6.75c-0.37-1.57-0.56-4.07-0.56-6.47v-2.31
			c0.28-0.15,1.57-0.19,2.03-0.19c0.2,0,0.36,0.03,0.54,0.05c-0.14-0.15-0.27-0.3-0.42-0.41C135.77,61.51,135.38,61.47,134.96,61.47
			z"/>
		<path class="st0" d="M149.68,62.32c-0.24,0.6-0.56,1.14-0.98,1.58l0.15,5.28c-0.58,0.99-1.97,1.73-3.39,1.73
			c-0.67,0-1.24-0.09-1.74-0.25c0.7,0.45,1.59,0.73,2.78,0.73c1.42,0,2.8-0.74,3.39-1.73L149.68,62.32z"/>
		<path class="st0" d="M146.94,54.39c0,2.81-2.19,4.77-5.31,5.45c0.19,0.2,0.35,0.39,0.52,0.59c3.41-0.56,5.84-2.59,5.84-5.56
			c0-1.46-0.61-2.63-1.62-3.53c0.15,0.46,0.25,0.93,0.27,1.44C146.82,53.28,146.94,53.8,146.94,54.39z"/>
	</g>
	<g>
		<g>
			<g>
				<path class="st1" d="M0,67.6l0.25-6.47c2.59,2.06,6.56,3.02,9.8,3.02c2.53,0,4.56-0.55,4.56-1.97c0-3.51-14.05-0.18-14.05-8.41
					c0-4.16,4.25-6.69,9.95-6.69c3.14,0,6.35,0.74,8.14,1.48v6.19c-1.66-1.14-4.81-2.13-7.95-2.13c-2.62,0-4.47,0.58-4.47,1.91
					c0,3.91,14.14,0.4,14.14,8.44c0,4.28-4.28,6.53-10.14,6.53C7.27,69.51,2.71,68.65,0,67.6z"/>
			</g>
			<g>
				<path class="st1" d="M30.74,62.61l3.42-8.63c0.77-2.28,1.11-4.93,1.2-6.47h9.95c0.09,1.69,0.43,4.37,1.14,6.47l3.45,8.63
					c0.8,2.28,1.82,4.93,2.62,6.47h-6.81c-0.06-1.02-0.43-2.46-0.99-4.13L44.36,64h-8.04l-0.4,0.96c-0.55,1.66-0.92,3.14-0.99,4.13
					h-6.81C28.89,67.54,29.94,64.95,30.74,62.61z M43.37,60.7l-1.94-4.62c-0.43-1.2-0.65-2.28-0.96-3.54h-0.31
					c-0.34,1.36-0.52,2.28-0.99,3.57l-1.91,4.59H43.37z"/>
			</g>
			<g>
				<path class="st1" d="M62.12,62.61v-8.63c0-2.4-0.22-4.93-0.59-6.47h12.88c4.1,0,7.27,1.82,7.27,5.18c0,3.02-2.83,4.99-6.47,4.99
					h-0.06v0.31h0.37c4.13,0,7.12,2,7.12,5.48c0,3.61-3.33,5.61-7.55,5.61H61.54C61.91,67.54,62.12,65.01,62.12,62.61z M72.75,56.39
					c1.88,0,3.3-0.77,3.3-2.16c0-1.36-1.42-2.16-3.3-2.16h-4.99v4.31H72.75z M73.37,64.34c2.13,0,3.61-0.92,3.61-2.46
					c0-1.54-1.54-2.53-3.61-2.53h-5.61v4.99H73.37z"/>
			</g>
			<g>
				<path class="st1" d="M92.4,58.3c0-7.21,5.05-11.21,11.37-11.21c6.35,0,11.4,4.01,11.4,11.21c0,7.24-5.05,11.22-11.4,11.22
					C97.45,69.51,92.4,65.54,92.4,58.3z M109.35,58.3c0-4.22-2.4-6.75-5.58-6.75c-3.14,0-5.55,2.53-5.55,6.75
					c0,4.22,2.4,6.75,5.55,6.75C106.94,65.04,109.35,62.52,109.35,58.3z"/>
			</g>
			<g>
				<path class="st1" d="M133.86,60.12c-0.46,0-1.76,0.03-2.03,0.19v2.31c0,2.4,0.19,4.9,0.56,6.47h-6.75
					c0.34-1.57,0.52-4.07,0.52-6.47v-8.63c0-2.4-0.18-4.93-0.52-6.47h12.26c4.47,0,7.95,1.97,7.95,5.51c0,3.51-3.39,5.73-7.8,5.73
					h-0.4v0.18h0.06c3.97,0,4.1,4.04,6.56,4.04c1.82,0,2.71-1.14,3.27-2.5l0.22,7.33c-0.58,0.99-1.97,1.73-3.39,1.73
					C137.28,69.54,140.51,60.12,133.86,60.12z M136.66,57.4c2.06,0,3.45-0.86,3.45-2.28c0-1.29-1.32-2.25-3.21-2.25h-5.08v4.53
					H136.66z"/>
			</g>
		</g>
	</g>
	<g>
		<g>
			<path class="st0" d="M31.25,41.17c-0.36-1.13-0.73-2.26-1.09-3.39c-0.31-0.94-0.72-1.91-1.06-2.46c0.81-0.26,1.61-0.52,2.42-0.76
				c0.77,0.9,1.53,1.8,2.27,2.7c0.38,0.46,0.66,0.85,1,1.4c0.04-0.01,0.08-0.02,0.12-0.03c-0.03-0.63,0.02-1.1,0.08-1.72
				c0.15-1.17,0.31-2.34,0.48-3.5c0.81-0.22,1.61-0.44,2.42-0.64c0,0.66,0.17,1.69,0.41,2.65c0.3,1.15,0.59,2.3,0.89,3.45
				c0.25,0.96,0.6,1.93,0.91,2.52c-0.72,0.19-1.44,0.38-2.16,0.57c-0.03-0.66-0.2-1.69-0.46-2.64c-0.29-1.06-0.58-2.11-0.86-3.17
				c-0.03,0.01-0.07,0.02-0.1,0.03c-0.23,1.72-0.44,3.44-0.63,5.16c-0.17,0.05-0.34,0.1-0.52,0.15c-1.08-1.35-2.17-2.69-3.29-4.02
				c-0.03,0.01-0.06,0.02-0.09,0.03c0.32,1.05,0.65,2.09,0.97,3.14c0.29,0.95,0.69,1.91,1.01,2.48c-0.71,0.22-1.42,0.44-2.13,0.67
				C31.79,43.13,31.56,42.12,31.25,41.17z"/>
			<path class="st0" d="M46.4,37.2c-0.24-1.16-0.47-2.33-0.71-3.49c-0.2-0.97-0.51-1.97-0.79-2.56c1.86-0.38,3.72-0.73,5.59-1.03
				c0.2,0.61,0.4,1.22,0.59,1.84c-0.29-0.11-0.72-0.1-1.61,0.05c-0.73,0.13-1.46,0.26-2.18,0.4c0.13,0.66,0.25,1.32,0.38,1.98
				c0.59-0.11,1.18-0.22,1.77-0.33c0.62-0.11,1.02-0.2,1.33-0.29c0.08,0.45,0.15,0.9,0.23,1.36c-0.32,0-0.72,0.06-1.33,0.16
				c-0.59,0.1-1.17,0.21-1.76,0.32c0.14,0.74,0.28,1.48,0.42,2.22c0.69-0.13,1.38-0.26,2.08-0.38c1.11-0.19,1.49-0.37,1.74-0.56
				c0,0.66,0,1.32,0.01,1.98c-1.82,0.3-3.64,0.63-5.45,1C46.7,39.2,46.59,38.17,46.4,37.2z"/>
			<path class="st0" d="M60.99,33.8c-0.19,0.02-0.51,0.06-0.61,0.12c0.04,0.42,0.08,0.84,0.12,1.25c0.08,0.8,0.22,1.85,0.45,2.54
				c-0.71,0.07-1.41,0.14-2.12,0.22c0.05-0.74-0.01-1.66-0.12-2.71c-0.13-1.15-0.26-2.31-0.39-3.46c-0.14-1.23-0.31-2.14-0.49-2.67
				c1.18-0.13,2.35-0.25,3.53-0.36c1.84-0.16,3.21,0.52,3.3,2c0.09,1.39-0.99,2.25-2.59,2.39c-0.04,0-0.07,0.01-0.11,0.01
				c0,0.03,0.01,0.06,0.01,0.09c0.03,0,0.05,0,0.08-0.01c2.03-0.17,1.64,2.42,2.65,2.35c0.47-0.03,0.7-0.34,0.85-0.71
				c0.07,0.71,0.13,1.42,0.2,2.13c-0.18,0.32-0.57,0.56-1.04,0.59C62.17,37.77,63.27,33.6,60.99,33.8z M61.42,32.65
				c0.92-0.08,1.47-0.53,1.41-1.3c-0.06-0.71-0.7-1.04-1.55-0.97c-0.41,0.04-0.83,0.08-1.24,0.12c0.07,0.75,0.15,1.5,0.22,2.25
				C60.65,32.72,61.04,32.69,61.42,32.65z"/>
			<path class="st0" d="M71.57,32.65c-0.07-3.09,1.87-4.66,4.06-4.64c0.87,0.01,1.63,0.19,2.14,0.46c-0.02,0.64-0.05,1.28-0.07,1.92
				c-0.44-0.36-1.11-0.61-1.8-0.62c-1.43-0.02-2.47,0.92-2.46,2.86c0.01,1.95,1.09,2.82,2.43,2.83c0.82,0.01,1.54-0.23,2.08-0.66
				c-0.02,0.66-0.03,1.31-0.05,1.97c-0.67,0.29-1.4,0.46-2.38,0.45C73.48,37.21,71.64,35.75,71.57,32.65z"/>
			<path class="st0" d="M84.63,34.78c0.45-1.16,0.91-2.31,1.38-3.47c0.35-0.94,0.56-2,0.63-2.63c1.07,0.09,2.15,0.19,3.22,0.31
				c-0.06,0.7-0.04,1.8,0.1,2.7c0.24,1.22,0.47,2.44,0.7,3.66c0.15,0.99,0.38,2.08,0.6,2.76c-0.73-0.09-1.46-0.18-2.19-0.26
				c0.04-0.47,0.02-1.15-0.08-1.94c-0.03-0.16-0.06-0.32-0.09-0.48c-0.84-0.09-1.69-0.17-2.54-0.24c-0.06,0.16-0.12,0.31-0.17,0.47
				c-0.25,0.75-0.41,1.41-0.45,1.88c-0.74-0.06-1.48-0.12-2.21-0.17C83.86,36.75,84.3,35.74,84.63,34.78z M88.71,34.22
				c-0.14-0.63-0.28-1.27-0.43-1.9c-0.09-0.57-0.12-1.01-0.17-1.58c-0.04,0-0.07-0.01-0.11-0.01c-0.16,0.56-0.25,0.96-0.47,1.51
				c-0.26,0.59-0.52,1.19-0.78,1.78C87.41,34.09,88.06,34.16,88.71,34.22z"/>
			<path class="st0" d="M97.89,36.4c0.2-1.17,0.4-2.34,0.6-3.51c0.17-0.98,0.24-2.02,0.19-2.68c1,0.17,2,0.35,3,0.54
				c2.41,0.46,3.69,2.38,3.06,5.16c-0.63,2.79-2.49,4.02-4.73,3.59c-0.94-0.18-1.88-0.35-2.82-0.51
				C97.45,38.38,97.73,37.38,97.89,36.4z M100.42,37.88c1.07,0.2,2.12-0.55,2.5-2.36c0.37-1.79-0.35-2.9-1.45-3.12
				c-0.33-0.06-0.67-0.13-1-0.19c-0.34,1.83-0.67,3.65-1.01,5.48C99.78,37.76,100.1,37.82,100.42,37.88z"/>
			<path class="st0" d="M111.03,37.46c0.76-2.89,2.79-4.05,4.85-3.44c2.07,0.61,3.13,2.69,2.2,5.53c-0.93,2.83-2.9,3.92-4.83,3.35
				C111.33,42.34,110.27,40.34,111.03,37.46z M116.28,38.98c0.63-2,0.19-3.26-0.81-3.56c-1.01-0.3-2.05,0.52-2.62,2.54
				c-0.56,2.01-0.14,3.25,0.82,3.53C114.62,41.78,115.65,40.97,116.28,38.98z"/>
		</g>
		<g>
			<circle class="st0" cx="26.01" cy="41.12" r="0.88"/>
			<circle class="st0" cx="121.5" cy="41.12" r="0.88"/>
		</g>
	</g>
	<g>
		<path class="st0" d="M87.23,20.26c-0.37-0.04-0.74-0.08-1.11-0.12V17.2v-3.35c0-0.32-0.26-0.57-0.57-0.57h-2.38
			c-0.07-0.24-0.29-0.42-0.55-0.42h-3.35c-0.26,0-0.48,0.18-0.55,0.42h-7.34c-0.07-0.24-0.29-0.42-0.55-0.42h-3.35
			c-0.26,0-0.48,0.18-0.55,0.42h-2.38c-0.32,0-0.57,0.26-0.57,0.57v3.35v3.01c-0.11,0.01-0.21,0.02-0.32,0.04
			c-0.31,0.04-0.54,0.32-0.5,0.63c0.04,0.31,0.32,0.54,0.63,0.5c0.8-0.1,1.61-0.18,2.44-0.26h0.68v0.51c0,0.32,0.26,0.57,0.57,0.57
			h3.35c0.32,0,0.57-0.26,0.57-0.57v-0.51h7.3v0.51c0,0.32,0.26,0.57,0.57,0.57h3.35c0.32,0,0.57-0.26,0.57-0.57v-0.51h1.26
			c0.24,0.02,0.48,0.04,0.71,0.06c0.64,0.07,1.29,0.13,1.93,0.21c0.02,0,0.05,0,0.07,0c0.28,0,0.53-0.21,0.57-0.5
			C87.77,20.58,87.54,20.3,87.23,20.26z M66.89,19.92v0.06h-0.73H65.1v-2.21h1.79V19.92z M66.89,16.63H65.1v-2.21h1.79V16.63z
			 M70.24,14.41v2.21v0.57v0.57v1.92v0.3v0.57v0.28v0.23h-2.21v-0.09v-0.42v-0.57v-0.15v-2.06V17.2v-0.57v-2.21v-0.42h2.21V14.41z
			 M78.69,19.61v0.37h-7.3v-0.35v-1.87h7.3V19.61z M78.69,16.63h-7.3v-2.21h7.3V16.63z M82.04,14.41v2.21v0.57v0.57v2.01v0.2v0.57
			v0.38v0.13h-2.21V20.8v-0.25v-0.57v-0.32v-1.89V17.2v-0.57v-2.21v-0.42h2.21V14.41z M84.97,19.98H84.5h-1.31v-0.12v-2.1h1.79
			V19.98z M84.97,16.63h-1.79v-2.21h1.79V16.63z"/>
		<path class="st0" d="M65.71,7.71c0.95,0,1.8-0.45,2.33-1.17c0.54,0.71,1.38,1.17,2.33,1.17c0.95,0,1.8-0.45,2.33-1.17
			c0.54,0.71,1.38,1.17,2.33,1.17c0.95,0,1.8-0.45,2.33-1.17c0.54,0.71,1.38,1.17,2.33,1.17c0.95,0,1.8-0.45,2.33-1.17
			c0.54,0.71,1.38,1.17,2.33,1.17c1.49,0,2.73-1.11,2.9-2.59c0-0.01,0-0.01,0-0.02c0-0.02,0-0.03,0-0.05c0-0.03,0-0.06-0.01-0.08
			c0-0.02-0.01-0.03-0.01-0.05c-0.01-0.03-0.02-0.06-0.03-0.09c0-0.01-0.01-0.02-0.01-0.03l-2.26-4.49C84.86,0.12,84.66,0,84.44,0
			h-3.76h-3.76h-3.76h-3.76h-3.76c-0.22,0-0.41,0.12-0.51,0.31L62.86,4.8c0,0.01-0.01,0.02-0.01,0.03
			c-0.01,0.03-0.02,0.06-0.03,0.09c0,0.02-0.01,0.03-0.01,0.05c0,0.03-0.01,0.06-0.01,0.09c0,0.02,0,0.03,0,0.05
			c0,0.01,0,0.01,0,0.02C62.97,6.6,64.22,7.71,65.71,7.71z M84.37,6.57c-0.67,0-1.27-0.38-1.57-0.94h3.14
			C85.64,6.19,85.04,6.57,84.37,6.57z M84.09,1.14l1.68,3.34h-3.31l-1.01-3.34H84.09z M79.7,6.57c-0.67,0-1.27-0.38-1.57-0.94h3.14
			C80.97,6.19,80.38,6.57,79.7,6.57z M80.26,1.14l1.01,3.34h-3.38l-0.34-3.34H80.26z M75.04,6.57c-0.67,0-1.27-0.38-1.57-0.94h3.14
			C76.31,6.19,75.71,6.57,75.04,6.57z M73.56,2.3l0.12-1.16h2.73l0.34,3.34h-3.4L73.56,2.3z M69.82,1.14h2.71L72.3,3.33l-0.12,1.16
			h-3.38L69.82,1.14z M71.94,5.63c-0.3,0.56-0.89,0.94-1.57,0.94S69.1,6.19,68.8,5.63H71.94z M65.98,1.14h2.64l-1.01,3.34H64.3
			L65.98,1.14z M67.27,5.63c-0.3,0.56-0.89,0.94-1.57,0.94c-0.67,0-1.27-0.38-1.57-0.94H67.27z"/>
		<path class="st0" d="M65.06,9.11v2.92c0,0.32,0.26,0.57,0.57,0.57c0.32,0,0.57-0.26,0.57-0.57V9.11c0-0.32-0.26-0.57-0.57-0.57
			C65.31,8.54,65.06,8.79,65.06,9.11z"/>
		<path class="st0" d="M83.8,9.11v2.92c0,0.32,0.26,0.57,0.57,0.57s0.57-0.26,0.57-0.57V9.11c0-0.32-0.26-0.57-0.57-0.57
			S83.8,8.79,83.8,9.11z"/>
	</g>
</g>
</svg>
