<?xml version="1.0" standalone="no"?>
<!DOCTYPE svg PUBLIC "-//W3C//DTD SVG 1.1//EN" "http://www.w3.org/Graphics/SVG/1.1/DTD/svg11.dtd" >
<svg xmlns="http://www.w3.org/2000/svg" xmlns:xlink="http://www.w3.org/1999/xlink" version="1.1">
<metadata>
Created by FontForge 20170812 at Wed Jul  1 18:31:50 2015
 By www-data
Copyright (c) 2004-2013, Phil's Fonts Inc &#38; Joshua Darden. All rights reserved. Published by Garagefonts USA 301-879-9222 www.garagefonts.com
</metadata>
<defs>
<font id="FreightNeoW03-Bold" horiz-adv-x="500" >
  <font-face 
    font-family="FreightNeoW03-Bold"
    font-weight="700"
    font-stretch="normal"
    units-per-em="1000"
    panose-1="2 0 5 3 0 0 0 2 0 4"
    ascent="800"
    descent="-200"
    x-height="458"
    cap-height="625"
    bbox="-196 -299 1349 1006"
    underline-thickness="50"
    underline-position="-125"
    unicode-range="U+0020-FB04"
  />
<missing-glyph 
d="M72 0v624h356v-624h-356zM229 312l-121 225v-449zM380 589h-261l131 -239zM250 275l-131 -239h261zM392 537l-122 -225l122 -224v449z" />
    <glyph glyph-name="uniFB00" unicode="ff" horiz-adv-x="738" 
d="M406 0v391h-188v-391h-131v391h-71v67h71q0 63 15.5 108.5t44 74.5t68 42.5t88.5 13.5q46 0 84.5 -11t74.5 -34q23 23 56.5 34t75.5 11q37 0 70 -10.5t68 -30.5l-41 -84q-36 60 -87 60q-66 0 -66 -100v-74h130v-67h-130v-391h-132zM406 476q0 26 2.5 51t10.5 44
q-19 29 -46.5 45t-58.5 16q-41 0 -68.5 -29t-27.5 -95v-50h188v18z" />
    <glyph glyph-name="uniFB01" unicode="fi" horiz-adv-x="591" 
d="M398 0v391h-180v-391h-131v391h-71v67h71q0 65 15.5 110.5t43.5 74t68 41.5t88 13q39 0 80 -10.5t75 -30.5l-40 -84q-20 31 -46 45.5t-58 14.5q-39 0 -67 -29t-28 -95v-50h244l67 13v-471h-131z" />
    <glyph glyph-name="uniFB02" unicode="fl" horiz-adv-x="591" 
d="M398 0v585q-33 47 -86 47q-38 0 -66 -29t-28 -95v-50h123v-67h-123v-391h-131v391h-71v67h71q0 63 16.5 108.5t46 74.5t71.5 42.5t93 13.5q27 0 56.5 -5t57.5 -15l101 20v-697h-131z" />
    <glyph glyph-name="uniFB03" unicode="ffi" horiz-adv-x="911" 
d="M717 0v391h-179v-391h-132v391h-188v-391h-131v391h-71v67h71q0 63 15.5 108.5t43.5 74.5t67.5 42.5t88.5 13.5q99 0 168 -51q29 26 67 38.5t84 12.5q39 0 80 -10.5t75 -30.5l-40 -84q-19 30 -45.5 45t-58.5 15q-39 0 -66.5 -29t-27.5 -95v-50h243l68 13v-471h-132z
M406 458q0 37 3.5 59t10.5 44q-19 34 -46.5 52.5t-59.5 18.5q-41 0 -68.5 -29t-27.5 -95v-50h188z" />
    <glyph glyph-name="uniFB04" unicode="ffl" horiz-adv-x="911" 
d="M406 458q0 37 3.5 59t10.5 44q-19 34 -46.5 52.5t-59.5 18.5q-41 0 -68.5 -29t-27.5 -95v-50h188zM717 0v585q-31 47 -85 47q-38 0 -66 -29t-28 -95v-50h126v-67h-126v-391h-132v391h-188v-391h-131v391h-71v67h71q0 63 15.5 108.5t43.5 74.5t67.5 42.5t88.5 13.5
t93 -12.5t79 -38.5q29 26 70.5 38.5t87.5 12.5q28 0 58 -5t58 -15l101 20v-697h-132z" />
    <glyph glyph-name=".notdef" 
d="M72 0v624h356v-624h-356zM229 312l-121 225v-449zM380 589h-261l131 -239zM250 275l-131 -239h261zM392 537l-122 -225l122 -224v449z" />
    <glyph glyph-name=".null" horiz-adv-x="0" 
 />
    <glyph glyph-name="nonmarkingreturn" horiz-adv-x="333" 
 />
    <glyph glyph-name="space" unicode=" " horiz-adv-x="232" 
 />
    <glyph glyph-name="exclam" unicode="!" horiz-adv-x="300" 
d="M150 -16q-32 0 -55 23t-23 55t23 55.5t55 23.5q16 0 30 -6.5t24.5 -17.5t16.5 -25t6 -30t-6 -30t-16.5 -24.5t-24.5 -17t-30 -6.5zM121 202l-46 380q-4 28 17 42.5t58 14.5t58 -14.5t17 -42.5l-46 -380h-58z" />
    <glyph glyph-name="quotedbl" unicode="&#x22;" horiz-adv-x="420" 
d="M26 403l114 242l96 -33l-162 -209h-48zM206 403l115 242l95 -33l-162 -209h-48z" />
    <glyph glyph-name="numbersign" unicode="#" horiz-adv-x="594" 
d="M275 -6l51 185h-133l-50 -185h-66l51 185h-115v61h131l42 155h-117v61h133l47 175h66l-47 -175h132l47 175h66l-47 -175h115v-61h-131l-42 -155h114v-61h-130l-51 -185h-66zM384 395h-132l-42 -155h132z" />
    <glyph glyph-name="dollar" unicode="$" horiz-adv-x="515" 
d="M120 -96l29 118q-29 5 -56 11.5t-47 15.5l32 87q24 -22 44 -33t43 -17l43 178q-40 13 -71 27.5t-52 34t-31.5 44.5t-10.5 58q0 35 14 67t41.5 56.5t68.5 39t94 14.5h14t15 -1l22 93h56l-24 -99q29 -5 56.5 -11.5t49.5 -15.5l-31 -84q-24 18 -46 28.5t-45 18.5l-38 -160
q91 -29 134 -67.5t43 -106.5q0 -38 -15.5 -71t-45 -58.5t-73 -40t-99.5 -14.5h-31l-27 -112h-56zM275 545h-13q-54 0 -82 -21t-28 -51q0 -31 20.5 -49t65.5 -34zM218 75q4 0 7.5 -0.5t8.5 -0.5q31 0 54 7t37 19t21 27t7 31q0 33 -22 52.5t-72 37.5z" />
    <glyph glyph-name="percent" unicode="%" horiz-adv-x="742" 
d="M94 0l484 625h69l-485 -625h-68zM182 330q-38 0 -68 13t-50 35t-30.5 51t-10.5 61t10.5 61t30.5 51t50 35t68 13q37 0 66.5 -13t49.5 -35t30.5 -51t10.5 -61t-10.5 -61t-30.5 -51t-49.5 -35t-66.5 -13zM182 382q22 0 39.5 24.5t17.5 83.5t-17.5 83.5t-39.5 24.5
q-23 0 -40.5 -24.5t-17.5 -83.5t17.5 -83.5t40.5 -24.5zM719 134q0 -32 -10.5 -61t-31 -50.5t-50 -34t-67.5 -12.5t-67.5 12.5t-49.5 34t-30.5 50.5t-10.5 61t10.5 61t30.5 51t49.5 35t67.5 13t67.5 -13t50 -35t31 -51t10.5 -61zM560 26q23 0 40.5 24.5t17.5 83.5t-18 84
t-40 25t-40 -25t-18 -84t18 -83.5t40 -24.5z" />
    <glyph glyph-name="ampersand" unicode="&#x26;" horiz-adv-x="641" 
d="M474 0l-60 72q-38 -46 -82 -66.5t-109 -20.5q-47 0 -82.5 14.5t-59.5 38.5t-36 55t-12 65q0 27 10 55.5t29 54t47 47t64 35.5q-16 16 -30 35t-24 38.5t-15.5 38t-5.5 33.5q0 31 11 57.5t33.5 46t57 30.5t82.5 11q43 0 75 -11.5t53 -30t31 -42.5t10 -49q0 -45 -28.5 -84
t-86.5 -59l-16 -7l107 -127l80 129h81l-116 -184l146 -175h-154zM293 402q52 42 52 101q0 32 -15 53.5t-42 21.5q-23 0 -39.5 -16.5t-16.5 -44.5q0 -40 34 -81zM222 303q-24 -19 -43 -46.5t-19 -65.5q0 -55 32 -85.5t80 -30.5q30 0 54.5 14.5t41.5 38.5z" />
    <glyph glyph-name="quotesingle" unicode="'" horiz-adv-x="240" 
d="M26 403l115 242l95 -33l-162 -209h-48z" />
    <glyph glyph-name="parenleft" unicode="(" horiz-adv-x="390" 
d="M320 -210q-47 25 -95 68.5t-86.5 102.5t-63 133t-24.5 160q0 85 24.5 159t63 133.5t86.5 103t95 68.5l33 -55q-42 -24 -82.5 -63.5t-72.5 -92.5t-52 -117t-20 -136t20 -136.5t52 -117t72.5 -92.5t82.5 -63z" />
    <glyph glyph-name="parenright" unicode=")" horiz-adv-x="390" 
d="M41 -155q42 23 82.5 63t72.5 92.5t52 117t20 136.5t-20 136t-52 117t-72.5 92.5t-82.5 63.5l33 55q47 -25 95 -68.5t86.5 -103t63 -133.5t24.5 -159q0 -86 -24.5 -160t-63 -133t-86.5 -102.5t-95 -68.5z" />
    <glyph glyph-name="asterisk" unicode="*" horiz-adv-x="357" 
d="M227 305l-53 30l6 116l-15 4l-54 -99l-62 1l-14 17l11 61l110 30v20l-110 30l-12 60l15 18l62 1l54 -99l16 5l-6 114l52 31l22 -8l21 -55l-77 -87l10 -13l106 43l46 -40v-22l-46 -40l-106 44l-10 -13l76 -87l-21 -55z" />
    <glyph glyph-name="plus" unicode="+" 
d="M219 24v180h-175v63h175v180h62v-180h175v-63h-175v-180h-62z" />
    <glyph glyph-name="comma" unicode="," horiz-adv-x="231" 
d="M23 -156q45 31 66 61t21 69q0 32 -23 53.5t-65 36.5q0 15 5.5 29t16 25t26 17.5t34.5 6.5q23 0 42.5 -9t34 -25t22.5 -37.5t8 -45.5q0 -63 -44.5 -117.5t-116.5 -100.5z" />
    <glyph glyph-name="hyphen" unicode="-" horiz-adv-x="328" 
d="M48 224v67h232v-67h-232z" />
    <glyph glyph-name="period" unicode="." horiz-adv-x="231" 
d="M196 65q0 -33 -23.5 -56.5t-57.5 -23.5t-57.5 23t-23.5 57t23.5 58t57.5 24t57.5 -24t23.5 -58z" />
    <glyph glyph-name="slash" unicode="/" horiz-adv-x="285" 
d="M5 -177l217 877h57l-217 -877h-57z" />
    <glyph glyph-name="zero" unicode="0" horiz-adv-x="563" 
d="M272 -15q-56 0 -99 19.5t-72.5 53.5t-44.5 80t-15 98q0 55 18 102.5t51 82.5t79 55.5t102 20.5t99 -20t72.5 -54t44.5 -80t15 -98q0 -55 -17.5 -102.5t-50.5 -82.5t-79 -55t-103 -20zM283 50q45 0 71.5 47t26.5 129q0 106 -25 156t-76 50q-45 0 -71.5 -46.5t-26.5 -129.5
q0 -106 25.5 -156t75.5 -50z" />
    <glyph glyph-name="one" unicode="1" horiz-adv-x="336" 
d="M134 0v380h-104v55l235 67v-502h-131z" />
    <glyph glyph-name="two" unicode="2" horiz-adv-x="474" 
d="M49 0l-5 78q108 69 172 130.5t64 111.5q0 39 -23.5 61.5t-65.5 22.5q-31 0 -63 -18.5t-51 -39.5l-39 46q44 53 98.5 79t123.5 26q74 0 116.5 -38.5t42.5 -98.5q0 -36 -12.5 -67t-39 -60.5t-69 -59.5t-102.5 -63v-4h237v-106h-384z" />
    <glyph glyph-name="three" unicode="3" horiz-adv-x="471" 
d="M68 -64q19 -32 48 -51.5t66 -19.5q25 0 47 9t38 25.5t25.5 41t9.5 55.5q0 55 -32 85.5t-87 30.5q-16 0 -36.5 -4.5t-41.5 -12.5q-5 14 -9 27t-8 27q93 43 135 81.5t42 88.5q0 37 -26 62.5t-65 25.5q-35 0 -64.5 -18t-51.5 -43l-39 46q45 53 100.5 79t117.5 26
q38 0 68.5 -10.5t52 -28.5t33 -41.5t11.5 -49.5q0 -109 -131 -174l1 -7q39 -2 70 -15.5t53 -36t34 -51.5t12 -61q0 -48 -19 -89t-52 -70.5t-78 -46t-97 -16.5q-60 0 -100 14t-75 37z" />
    <glyph glyph-name="four" unicode="4" horiz-adv-x="551" 
d="M304 -184v184h-275l-6 59l310 430h94v-383h106v-106h-106v-184h-123zM304 336h-6l-166 -230h172v230z" />
    <glyph glyph-name="five" unicode="5" horiz-adv-x="454" 
d="M50 -64q20 -33 52.5 -52t71.5 -19q57 0 86.5 32.5t29.5 86.5q0 61 -61 107.5t-194 75.5l77 315h303v-113h-259l-21 -91q73 -18 125.5 -45.5t86.5 -61t50.5 -71.5t16.5 -78q0 -50 -18 -91t-50 -70t-76 -45t-96 -16q-57 0 -97.5 14t-74.5 37z" />
    <glyph glyph-name="six" unicode="6" horiz-adv-x="557" 
d="M183 364q36 28 75.5 42.5t76.5 14.5q39 0 72 -14.5t57 -41t37.5 -64t13.5 -82.5q0 -50 -19 -92.5t-52 -74t-76.5 -49.5t-91.5 -18q-53 0 -96 20.5t-74 57t-48 86t-17 106.5q0 97 38.5 174.5t101.5 132.5t142.5 85.5t160.5 34.5l10 -60q-126 -18 -203.5 -78.5
t-111.5 -175.5zM185 292q-6 -18 -6 -58q0 -36 7 -69t21 -58.5t35 -41t48 -15.5q42 0 63 35t21 95q0 74 -32 107t-82 33q-23 0 -43 -8.5t-32 -19.5z" />
    <glyph glyph-name="seven" unicode="7" horiz-adv-x="501" 
d="M71 -184l292 553h-331v113h435l7 -53l-311 -613h-92z" />
    <glyph glyph-name="eight" unicode="8" horiz-adv-x="540" 
d="M373 336q24 -13 46.5 -28.5t40 -35.5t28.5 -45t11 -58q0 -36 -16 -69t-46 -58.5t-74 -41t-101 -15.5q-45 0 -85.5 10.5t-70.5 31.5t-47.5 51.5t-17.5 70.5q0 23 7.5 45.5t22.5 42.5t36.5 36.5t49.5 26.5v5q-21 12 -40.5 26t-33.5 31.5t-22.5 40.5t-8.5 54q0 33 13 65.5
t40 58.5t68.5 42.5t98.5 16.5q46 0 85 -11.5t66.5 -32.5t43 -51t15.5 -67q0 -46 -29 -82t-80 -55v-5zM222 273q-24 -18 -40 -45.5t-16 -61.5q0 -52 30.5 -84.5t85.5 -32.5q47 0 74 23t27 56q0 43 -37.5 75t-123.5 70zM309 366q21 15 34.5 40t13.5 57q0 47 -26 80t-75 33
q-43 0 -66 -24t-23 -55q0 -20 7.5 -36t24 -31.5t43.5 -30.5t67 -33z" />
    <glyph glyph-name="nine" unicode="9" horiz-adv-x="556" 
d="M62 -140q126 18 203.5 78.5t111.5 175.5l-4 4q-36 -28 -75.5 -42.5t-76.5 -14.5q-39 0 -72 14.5t-57 41t-37.5 64t-13.5 82.5q0 50 19 92.5t52 74t76.5 49.5t91.5 18q52 0 95.5 -20.5t74.5 -57t48 -86t17 -106.5q0 -97 -38.5 -174.5t-101.5 -132.5t-142.5 -85.5
t-160.5 -34.5zM371 190q6 18 6 58q0 36 -7 69t-21 58.5t-35 41t-48 15.5q-42 0 -63 -35t-21 -95q0 -74 32 -107t82 -33q23 0 43 8.5t32 19.5z" />
    <glyph glyph-name="colon" unicode=":" horiz-adv-x="241" 
d="M201 377q0 -33 -23.5 -57t-57.5 -24t-57.5 23.5t-23.5 57.5q0 35 23.5 59t57.5 24t57.5 -24.5t23.5 -58.5zM201 66q0 -33 -23.5 -57t-57.5 -24t-57.5 23.5t-23.5 57.5t23.5 58t57.5 24t57.5 -24.5t23.5 -57.5z" />
    <glyph glyph-name="semicolon" unicode=";" horiz-adv-x="254" 
d="M201 377q0 -33 -23.5 -57t-57.5 -24t-57.5 23.5t-23.5 57.5q0 35 23.5 59t57.5 24t57.5 -24.5t23.5 -58.5zM33 -156q45 31 66 61.5t21 68.5q0 32 -23 53.5t-65 36.5q0 15 5.5 29t16 25t26 17.5t34.5 6.5q23 0 42.5 -9t34 -25t22.5 -37.5t8 -45.5q0 -63 -44.5 -117.5
t-116.5 -99.5z" />
    <glyph glyph-name="less" unicode="&#x3c;" 
d="M40 213v44l402 180v-67l-304 -133v-4l304 -133v-67z" />
    <glyph glyph-name="equal" unicode="=" 
d="M52 287v63h396v-63h-396zM52 119v63h396v-63h-396z" />
    <glyph glyph-name="greater" unicode="&#x3e;" 
d="M58 33v67l303 133v4l-303 133v67l402 -180v-44z" />
    <glyph glyph-name="question" unicode="?" horiz-adv-x="409" 
d="M155 196q-29 19 -43 44t-14 53q0 26 9 44t26.5 31t41.5 23t54 19q35 11 56 22t21 30q0 13 -11.5 23.5t-30 17.5t-43 10.5t-51.5 3.5q-23 0 -45 -3t-39 -6q-11 8 -18 25t-7 31q0 33 21 54t78 21q43 0 82.5 -14.5t69.5 -40t48 -59.5t18 -73q0 -34 -8 -57.5t-23 -40.5
t-37.5 -28.5t-51.5 -21.5q-23 -8 -37.5 -14.5t-22.5 -12.5t-10.5 -12t-2.5 -14q0 -11 7 -24.5t18 -30.5h-55zM185 -16q-32 0 -55 23t-23 55t23 55.5t55 23.5q16 0 30.5 -6.5t25 -17.5t16.5 -25t6 -30t-6 -30t-16.5 -24.5t-25 -17t-30.5 -6.5z" />
    <glyph glyph-name="at" unicode="@" horiz-adv-x="920" 
d="M603 -137q-38 -13 -73.5 -19.5t-76.5 -6.5q-86 0 -161 31t-130.5 85t-87 127.5t-31.5 158.5q0 89 33 168.5t91 139t137.5 94t173.5 34.5q85 0 158 -24t126.5 -69.5t84 -111.5t30.5 -150q0 -57 -18.5 -109.5t-51.5 -93t-79.5 -65t-101.5 -24.5q-62 0 -94 25t-32 74
q0 35 18 82h-6q-44 -85 -82.5 -121.5t-89.5 -36.5q-49 0 -81.5 33.5t-32.5 97.5q0 57 18.5 112t50.5 98.5t76.5 70t97.5 26.5q39 0 63.5 -20.5t35.5 -58.5h5l24 63h109l-102 -288q-9 -26 -9 -44q0 -23 15 -33.5t42 -10.5q37 0 67.5 17.5t52 47.5t33.5 69.5t12 84.5
q0 70 -24 126t-68.5 95.5t-108.5 60.5t-143 21q-77 0 -144.5 -29.5t-117.5 -80.5t-79.5 -119.5t-29.5 -145.5q0 -78 26 -142.5t73.5 -111t113 -72.5t143.5 -26q61 0 128 22zM543 341q-9 32 -27.5 48.5t-39.5 16.5q-24 0 -48 -17t-42.5 -45t-30 -62.5t-11.5 -68.5
q0 -35 9.5 -52.5t32.5 -17.5q12 0 28 10t35.5 33t43 61t50.5 94z" />
    <glyph glyph-name="A" unicode="A" horiz-adv-x="613" 
d="M440 0l-60 176h-226l-61 -176h-77l201 564v42l156 35l224 -641h-157zM275 499h-10l-88 -258h181z" />
    <glyph glyph-name="B" unicode="B" horiz-adv-x="611" 
d="M72 1v623l222 4q70 1 119 -8.5t79.5 -29t44 -47t13.5 -62.5q0 -59 -41 -97.5t-102 -53.5v-6q77 -14 120.5 -53t43.5 -102q0 -39 -16 -71.5t-51 -55.5t-90 -35t-134 -10zM273 351q55 1 88.5 28.5t33.5 72.5q0 47 -33.5 76.5t-99.5 29.5h-43v-207h54zM275 67q65 0 101.5 30
t36.5 79q0 52 -43.5 81.5t-110.5 29.5h-40v-220h56z" />
    <glyph glyph-name="C" unicode="C" horiz-adv-x="660" 
d="M609 51q-47 -34 -103.5 -50t-118.5 -16q-79 0 -143.5 21.5t-110.5 62t-71.5 100t-25.5 136.5q0 73 26 134.5t72.5 106t110.5 69.5t141 25q74 0 132.5 -16.5t109.5 -46.5l-46 -92q-37 38 -82.5 63t-105.5 25q-43 0 -79.5 -16.5t-63.5 -48.5t-42 -79.5t-15 -108.5
q0 -132 58.5 -199.5t154.5 -67.5q43 0 86 13t81 45z" />
    <glyph glyph-name="D" unicode="D" horiz-adv-x="689" 
d="M72 1v623l205 4q88 2 157.5 -20.5t118 -63.5t74.5 -98.5t26 -126.5q0 -73 -25 -133t-73 -102.5t-118 -65.5t-161 -21zM266 66q58 0 101.5 17.5t71.5 49t42 76.5t14 100q0 58 -14.5 104t-44.5 78.5t-75.5 50t-107.5 17.5h-34v-493h47z" />
    <glyph glyph-name="E" unicode="E" horiz-adv-x="552" 
d="M72 0v625h432v-101q-18 7 -37 13t-42.5 9.5t-53.5 5.5t-70 2h-82v-205h201v-67h-201v-211h82q40 0 70 2t53.5 5.5t42.5 9t37 13.5v-101h-432z" />
    <glyph glyph-name="F" unicode="F" horiz-adv-x="536" 
d="M72 0v625h429v-101q-18 7 -37 13t-42.5 9.5t-53.5 5.5t-70 2h-79v-206h200v-68h-200v-280h-147z" />
    <glyph glyph-name="G" unicode="G" horiz-adv-x="670" 
d="M465 282h144v-234q-51 -32 -103.5 -47.5t-118.5 -15.5q-78 0 -143 21.5t-111 62t-71.5 100t-25.5 136.5q0 73 26 134.5t72.5 106t110.5 69.5t141 25q66 0 128.5 -16t113.5 -46l-46 -92q-37 38 -82 63t-108 25q-43 0 -79 -17t-62.5 -49.5t-41.5 -80.5t-15 -109
q0 -66 15 -116t42.5 -84t66 -51t84.5 -17q17 0 32.5 1t30.5 4v227z" />
    <glyph glyph-name="H" unicode="H" horiz-adv-x="684" 
d="M465 0v283h-246v-283h-147v625h147v-271h246v271h147v-625h-147z" />
    <glyph glyph-name="I" unicode="I" horiz-adv-x="291" 
d="M72 0v625h147v-625h-147z" />
    <glyph glyph-name="J" unicode="J" horiz-adv-x="480" 
d="M263 625h147v-390q0 -69 -15.5 -117t-43.5 -77.5t-68 -42.5t-88 -13q-63 0 -109 23t-76 64l68 80l19 -37q18 -34 40 -48t50 -14q32 0 54 23.5t22 73.5v475z" />
    <glyph glyph-name="K" unicode="K" horiz-adv-x="641" 
d="M446 0l-169 282l-58 -57v-225h-147v625h147v-305l302 305h101l-241 -239l244 -386h-179z" />
    <glyph glyph-name="L" unicode="L" horiz-adv-x="526" 
d="M72 0v625h147v-554h78q40 0 70 2t53.5 5.5t42.5 9t37 13.5v-101h-428z" />
    <glyph glyph-name="M" unicode="M" horiz-adv-x="826" 
d="M613 0l-14 532h-7l-167 -511h-105l-155 511h-7l-15 -532h-75l19 625h197l123 -414h7l131 414h197l18 -625h-147z" />
    <glyph glyph-name="N" unicode="N" horiz-adv-x="665" 
d="M463 -6l-316 469h-6v-463h-73v617l143 13l304 -451h6v446h72v-618z" />
    <glyph glyph-name="O" unicode="O" horiz-adv-x="749" 
d="M713 317q0 -74 -27.5 -135.5t-74 -105t-108.5 -67.5t-132 -24q-77 0 -139 23t-105.5 65.5t-67 101.5t-23.5 131q0 74 27 135.5t73.5 105.5t108.5 68.5t132 24.5q77 0 139.5 -23.5t106 -66t67 -102t23.5 -131.5zM378 51q37 0 69.5 15.5t56.5 47t37.5 79t13.5 112.5
q0 67 -14.5 117t-39 83.5t-58 50.5t-72.5 17q-38 0 -70 -15.5t-56 -47t-37.5 -79.5t-13.5 -113q0 -67 14.5 -117t39.5 -83.5t58.5 -50t71.5 -16.5z" />
    <glyph glyph-name="P" unicode="P" horiz-adv-x="591" 
d="M72 0v624l224 4q64 1 113 -12.5t82 -38t49.5 -59.5t16.5 -76q0 -51 -22.5 -91t-60.5 -67.5t-87.5 -41.5t-102.5 -14q-14 0 -32.5 1t-32.5 3v-232h-147zM219 559v-260q13 -2 29.5 -3.5t31.5 -1.5q54 0 86.5 35.5t32.5 94.5q0 62 -33.5 98.5t-97.5 36.5h-49z" />
    <glyph glyph-name="Q" unicode="Q" horiz-adv-x="749" 
d="M420 -11q-12 -2 -24 -3t-24 -1q-77 0 -139.5 23t-106 65.5t-67 102t-23.5 131.5q0 74 27.5 135t74 105t108.5 68.5t132 24.5q77 0 139 -23.5t105.5 -66t67 -102t23.5 -131.5q0 -56 -15.5 -104t-43.5 -87.5t-66.5 -69t-84.5 -47.5l198 -148l-43 -58zM379 52
q37 0 69.5 15.5t56.5 46.5t37.5 78.5t13.5 112.5q0 67 -14.5 117.5t-39.5 84t-58.5 50t-71.5 16.5t-70.5 -15.5t-56.5 -47t-37.5 -79.5t-13.5 -112q0 -67 14.5 -117t39.5 -83.5t58.5 -50t72.5 -16.5z" />
    <glyph glyph-name="R" unicode="R" horiz-adv-x="613" 
d="M425 0l-144 258l-62 3v-261h-147v624l241 4q126 2 186 -43.5t60 -121.5q0 -58 -35.5 -105t-98.5 -67l172 -291h-172zM219 559v-229q11 -2 28.5 -3t31.5 -1q55 0 88.5 31t33.5 84q0 56 -33 87t-101 31h-48z" />
    <glyph glyph-name="S" unicode="S" horiz-adv-x="568" 
d="M86 129q49 -44 90.5 -61.5t88.5 -17.5q67 0 98 28.5t31 64.5q0 21 -8.5 37t-26.5 29t-46.5 24.5t-67.5 23.5q-47 14 -84 31t-62 39t-38 51t-13 68t15.5 74t46 62t75.5 42.5t104 15.5q58 0 111.5 -11.5t94.5 -28.5l-33 -98l-24 19q-32 25 -70.5 40t-86.5 15
q-53 0 -82.5 -24t-29.5 -58q0 -40 33.5 -61.5t102.5 -42.5q55 -17 96 -35.5t67 -42t39 -53.5t13 -70q0 -41 -17 -78t-50 -65t-82 -44.5t-113 -16.5q-54 0 -108.5 13.5t-97.5 33.5z" />
    <glyph glyph-name="T" unicode="T" horiz-adv-x="599" 
d="M227 0v555q-39 -1 -68 -3.5t-52 -6t-42.5 -9.5t-38.5 -13v102h547v-102q-19 7 -38 13t-42.5 9.5t-52 6t-66.5 3.5v-555h-147z" />
    <glyph glyph-name="U" unicode="U" horiz-adv-x="658" 
d="M516 625h72v-400q0 -58 -19 -103t-53.5 -75.5t-82 -46t-104.5 -15.5t-104.5 15.5t-82 46t-53.5 76t-19 105.5v397h147v-372q0 -89 38 -136t112 -47q75 0 112 48t37 129v378z" />
    <glyph glyph-name="V" unicode="V" horiz-adv-x="620" 
d="M236 -3l-220 628h157l168 -497h9l178 497h76l-231 -628h-137z" />
    <glyph glyph-name="W" unicode="W" horiz-adv-x="916" 
d="M580 -3l-119 355h-6l-120 -355h-117l-202 628h156l140 -476h7l104 318l-52 158h153l146 -476h6l149 476h75l-202 -628h-118z" />
    <glyph glyph-name="X" unicode="X" horiz-adv-x="641" 
d="M450 0l-153 240l-184 -240h-91l230 293l-224 332h169l147 -229l177 229h90l-222 -283l230 -342h-169z" />
    <glyph glyph-name="Y" unicode="Y" horiz-adv-x="597" 
d="M226 0v262l-210 363h161l157 -279h9l159 279h79l-208 -362v-263h-147z" />
    <glyph glyph-name="Z" unicode="Z" horiz-adv-x="581" 
d="M26 0v54l346 497v4h-127q-64 0 -109.5 -6.5t-87.5 -25.5v102h507v-56l-346 -495v-5h130q63 0 108.5 6.5t87.5 25.5v-101h-509z" />
    <glyph glyph-name="bracketleft" unicode="[" horiz-adv-x="368" 
d="M93 -182v908h255v-60h-181v-788h181v-60h-255z" />
    <glyph glyph-name="backslash" unicode="\" horiz-adv-x="285" 
d="M222 -177l-217 877h57l217 -877h-57z" />
    <glyph glyph-name="bracketright" unicode="]" horiz-adv-x="368" 
d="M20 -182v60h180v788h-180v60h255v-908h-255z" />
    <glyph glyph-name="asciicircum" unicode="^" 
d="M361 520l-109 110h-4l-109 -110h-57l130 204h76l129 -204h-56z" />
    <glyph glyph-name="underscore" unicode="_" horiz-adv-x="464" 
d="M-9 -165v61h482v-61h-482z" />
    <glyph glyph-name="grave" unicode="`" horiz-adv-x="435" 
d="M238 534l-175 177h138l99 -177h-62z" />
    <glyph glyph-name="a" unicode="a" horiz-adv-x="495" 
d="M306 0v61h-4q-27 -40 -63 -58t-82 -18q-25 0 -47.5 8.5t-40 24.5t-27.5 38.5t-10 50.5q0 37 16.5 65t47.5 49.5t75 37.5t100 29l35 8q0 54 -19 82.5t-63 28.5q-64 0 -122 -79l-50 73q25 20 48.5 34t48.5 22.5t51.5 12t57.5 3.5q91 0 135 -48.5t44 -154.5v-270h-131z
M306 238l-23 -7q-64 -20 -91.5 -44.5t-27.5 -53.5q0 -28 15 -42t41 -14q24 0 46.5 14.5t39.5 39.5v107z" />
    <glyph glyph-name="b" unicode="b" horiz-adv-x="559" 
d="M62 -11v682l131 26v-296h4q26 32 64 52t80 20q43 0 76.5 -17t57 -46.5t36 -70t12.5 -87.5q0 -53 -17 -100t-49 -82.5t-80 -56.5t-109 -21q-30 0 -61.5 7t-60.5 20zM193 84q17 -14 37 -20.5t37 -6.5q25 0 46 11.5t36.5 32.5t24 50t8.5 64q0 71 -30.5 113t-80.5 42
q-19 0 -40.5 -11.5t-37.5 -28.5v-246z" />
    <glyph glyph-name="c" unicode="c" horiz-adv-x="491" 
d="M441 40q-32 -26 -70 -40.5t-95 -14.5q-54 0 -98.5 17t-76 48.5t-48.5 75.5t-17 97q0 54 17.5 99.5t50 79t77 52.5t98.5 19q58 0 101.5 -14t78.5 -40l-51 -81q-23 31 -49.5 50.5t-66.5 19.5q-29 0 -50.5 -14t-35.5 -38t-21.5 -57.5t-7.5 -72.5q0 -38 8.5 -69.5t25 -55
t41.5 -36.5t58 -13q27 0 53.5 11t47.5 30z" />
    <glyph glyph-name="d" unicode="d" horiz-adv-x="559" 
d="M366 0v57h-4q-26 -32 -64 -52t-81 -20q-42 0 -76 17t-57 46.5t-35.5 69.5t-12.5 87q0 53 17 100.5t49 83t79.5 56.5t108.5 21q38 0 76 -11v216l131 26v-697h-131zM366 374q-17 13 -37.5 20t-36.5 7q-25 0 -46 -12t-36.5 -33t-24 -50t-8.5 -63q0 -71 30 -113t81 -42
q18 0 40 11t38 28v247z" />
    <glyph glyph-name="e" unicode="e" horiz-adv-x="514" 
d="M448 39q-31 -26 -71 -40t-100 -14q-54 0 -98.5 16.5t-76 47.5t-49 75t-17.5 99t17.5 101t49 79t75.5 51.5t96 18.5q100 0 152 -54t52 -148q0 -12 -1 -24.5t-3 -26.5h-297q1 -35 11 -66t27.5 -54t42.5 -36.5t57 -13.5t57 11.5t46 29.5zM346 279q0 60 -17.5 94.5
t-59.5 34.5q-34 0 -58 -34.5t-32 -94.5h167z" />
    <glyph glyph-name="f" unicode="f" horiz-adv-x="419" 
d="M88 0v391h-72v67h72v18q0 115 47.5 168t140.5 53q37 0 70 -10.5t67 -30.5l-40 -84q-17 28 -39 43.5t-48 15.5q-67 0 -67 -99v-74h130v-67h-130v-391h-131z" />
    <glyph glyph-name="g" unicode="g" horiz-adv-x="540" 
d="M110 -39q-30 12 -47.5 35.5t-17.5 53.5q0 32 22 60.5t62 42.5v5q-35 17 -60.5 50t-25.5 90q0 34 12 65.5t37 56t63 39t90 14.5q34 0 55.5 -5t38.5 -10h195v-67l-114 3v-7q11 -17 16.5 -34.5t5.5 -33.5q0 -86 -55 -134.5t-153 -48.5q-13 0 -25.5 2t-23.5 4
q-11 -5 -18.5 -15t-7.5 -21q0 -22 15 -32.5t48 -10.5t63 1.5t61 1.5q33 0 60.5 -10t48 -29t32 -45.5t11.5 -59.5q0 -42 -19 -77.5t-55 -61t-88.5 -40t-119.5 -14.5q-93 0 -146.5 31.5t-53.5 87.5q0 42 24.5 67.5t69.5 40.5v5zM176 -52q-19 -10 -32 -26t-13 -44
q0 -38 32.5 -60.5t93.5 -22.5q57 0 94.5 23.5t37.5 62.5q0 20 -7.5 32.5t-22.5 21.5q-9 5 -22.5 7.5t-35 4t-52 1.5h-73.5zM242 199q33 0 50.5 24t17.5 78q0 20 -3 39.5t-11 35t-21 25t-32 9.5q-32 0 -50 -24t-18 -78q0 -20 3 -39.5t11 -35t20.5 -25t32.5 -9.5z" />
    <glyph glyph-name="h" unicode="h" horiz-adv-x="546" 
d="M357 0v273q0 45 -15 67.5t-56 22.5q-14 0 -27.5 -5.5t-25.5 -14t-22.5 -19t-17.5 -20.5v-304h-131v671l131 26v-301h5q40 37 78.5 57t86.5 20q65 0 95 -43.5t30 -109.5v-320h-131z" />
    <glyph glyph-name="i" unicode="i" horiz-adv-x="257" 
d="M63 0v445l131 25v-470h-131zM128 537q-32 0 -55 23.5t-23 56.5t23 56.5t55 23.5q33 0 56 -23.5t23 -56.5t-23 -56.5t-56 -23.5z" />
    <glyph glyph-name="j" unicode="j" horiz-adv-x="257" 
d="M128 537q-32 0 -55 23.5t-23 56.5t23 56.5t55 23.5q33 0 56 -23.5t23 -56.5t-23 -56.5t-56 -23.5zM63 445l131 25v-456q0 -65 -10.5 -116t-34.5 -86t-62 -54t-93 -19q-8 0 -19 1t-23 3.5t-23 5.5t-18 7l20 92q16 -20 33 -31.5t37 -11.5q29 0 45.5 18t16.5 63v559z" />
    <glyph glyph-name="k" unicode="k" horiz-adv-x="529" 
d="M358 0l-119 220l-46 -39v-181h-131v671l131 26v-438l230 199h90l-174 -152l169 -306h-150z" />
    <glyph glyph-name="l" unicode="l" horiz-adv-x="255" 
d="M62 0v671l131 26v-697h-131z" />
    <glyph glyph-name="m" unicode="m" horiz-adv-x="831" 
d="M642 0v272q0 42 -13 66.5t-53 24.5q-28 0 -52.5 -17.5t-40.5 -40.5v-305h-131v272q0 42 -13 66.5t-53 24.5q-28 0 -52.5 -18t-40.5 -40v-305h-131v445l131 26v-75h5q40 37 77 57t83 20q48 0 77 -24.5t40 -66.5q38 42 80.5 66.5t92.5 24.5q33 0 56.5 -12t38.5 -32.5
t22.5 -48.5t7.5 -61v-319h-131z" />
    <glyph glyph-name="n" unicode="n" horiz-adv-x="546" 
d="M357 0v273q0 45 -15 67.5t-56 22.5q-29 0 -53.5 -19t-39.5 -39v-305h-131v445l131 25v-74h5q39 36 78.5 56.5t86.5 20.5q33 0 56.5 -12t39 -32.5t22.5 -49t7 -61.5v-318h-131z" />
    <glyph glyph-name="o" unicode="o" horiz-adv-x="561" 
d="M525 236q0 -53 -19 -99t-52.5 -79.5t-80.5 -53t-104 -19.5q-56 0 -99.5 18.5t-73 50.5t-45 75t-15.5 93q0 53 19 99t52.5 79.5t80.5 53t104 19.5q56 0 99.5 -18.5t73 -50.5t45 -75.5t15.5 -92.5zM284 51q45 0 72.5 42.5t27.5 117.5q0 103 -28.5 149.5t-78.5 46.5
q-45 0 -72.5 -42.5t-27.5 -117.5q0 -103 28.5 -149.5t78.5 -46.5z" />
    <glyph glyph-name="p" unicode="p" horiz-adv-x="559" 
d="M62 -246v691l131 26v-70h4q26 32 64 52t80 20q43 0 76.5 -17t57 -46.5t36 -70t12.5 -87.5q0 -53 -17 -100t-49 -82.5t-80 -56.5t-109 -21q-17 0 -36.5 2.5t-38.5 8.5v-249h-131zM193 84q17 -14 37 -20.5t37 -6.5q25 0 46 11.5t36.5 32.5t24 50t8.5 64q0 70 -30.5 112.5
t-80.5 42.5q-19 0 -40.5 -11.5t-37.5 -28.5v-246z" />
    <glyph glyph-name="q" unicode="q" horiz-adv-x="559" 
d="M366 -246v303h-4q-26 -32 -64 -52t-80 -20q-43 0 -76.5 17t-57 46.5t-36 69.5t-12.5 87q0 53 17 100.5t49.5 83t80 56.5t108.5 21q25 0 59 -6t58 -20l89 30v-716h-131zM366 374q-17 13 -37.5 20t-37.5 7q-25 0 -46 -12t-36 -33t-23.5 -50t-8.5 -63q0 -71 30.5 -113
t81.5 -42q18 0 39.5 10.5t37.5 28.5v247z" />
    <glyph glyph-name="r" unicode="r" horiz-adv-x="398" 
d="M62 0v445l131 26v-89h4q20 48 51 69.5t69 21.5q35 0 65 -16l-22 -110q-14 16 -29 23.5t-37 7.5q-35 0 -62.5 -36.5t-38.5 -107.5v-234h-131z" />
    <glyph glyph-name="s" unicode="s" horiz-adv-x="446" 
d="M69 114q25 -29 57.5 -46.5t75.5 -17.5q89 0 89 51q0 21 -16.5 36t-65.5 32q-39 13 -71 27t-54.5 32.5t-35 43t-12.5 57.5q0 63 49 103.5t140 40.5q48 0 91.5 -10t82.5 -29l-36 -86q-25 26 -59 43t-68 17q-40 0 -60 -12.5t-20 -33.5q0 -20 15 -33.5t63 -29.5
q88 -29 132 -63.5t44 -96.5q0 -32 -13 -60t-38.5 -49t-65 -33t-91.5 -12q-51 0 -90.5 11t-77.5 31z" />
    <glyph glyph-name="t" unicode="t" horiz-adv-x="380" 
d="M370 41q-27 -29 -62.5 -42.5t-76.5 -13.5q-63 0 -103 37.5t-40 109.5v259h-72v67h72v131l131 26v-157h136v-67h-136v-266q0 -31 14 -47.5t36 -16.5q36 0 70 38z" />
    <glyph glyph-name="u" unicode="u" horiz-adv-x="546" 
d="M353 0v62h-5q-39 -36 -78.5 -56.5t-86.5 -20.5q-33 0 -56.5 12t-39 32.5t-22.5 49t-7 61.5v318h131v-273q0 -45 15 -67.5t56 -22.5q29 0 53.5 19t39.5 39v305h131v-458h-131z" />
    <glyph glyph-name="v" unicode="v" horiz-adv-x="490" 
d="M198 -3l-180 461h141l122 -327l124 327h67l-181 -461h-93z" />
    <glyph glyph-name="w" unicode="w" horiz-adv-x="758" 
d="M480 -3l-102 287l-103 -287h-91l-166 461h143l107 -315l80 223l-32 92h137l109 -316l110 316h68l-169 -461h-91z" />
    <glyph glyph-name="x" unicode="x" horiz-adv-x="509" 
d="M341 0l-114 171l-132 -171h-77l169 215l-162 243h150l108 -163l127 163h75l-162 -206l168 -252h-150z" />
    <glyph glyph-name="y" unicode="y" horiz-adv-x="492" 
d="M226 -30l-208 488h143l127 -324l118 324h68l-224 -594q-47 -125 -142 -125q-17 0 -38.5 4t-34.5 12l25 107q15 -20 29 -31t34 -11q23 0 40.5 14t30.5 47z" />
    <glyph glyph-name="z" unicode="z" horiz-adv-x="481" 
d="M30 0v47l256 352h-65q-48 0 -92 -9t-79 -26v94h401v-47l-256 -352h74q48 0 91.5 9t78.5 26v-94h-409z" />
    <glyph glyph-name="braceleft" unicode="{" horiz-adv-x="350" 
d="M317 -186q-115 5 -168.5 47t-53.5 108q0 26 8 51t18 48.5t18 45.5t8 42q0 38 -27 55.5t-95 25.5v64q63 9 92.5 26t29.5 56q0 20 -8 42t-18 45.5t-18 48.5t-8 51q0 65 53.5 107.5t168.5 47.5v-45q-59 -5 -80.5 -27t-21.5 -56q0 -23 8 -46t17.5 -46.5t17.5 -49t8 -53.5
q0 -48 -42.5 -82.5t-121.5 -44.5v-11q79 -10 121.5 -45.5t42.5 -82.5q0 -29 -8 -54t-17.5 -48.5t-17.5 -46t-8 -45.5q0 -17 5 -31.5t17 -25t31.5 -17.5t48.5 -10v-44z" />
    <glyph glyph-name="bar" unicode="|" horiz-adv-x="250" 
d="M97 -157v877h55v-877h-55z" />
    <glyph glyph-name="braceright" unicode="}" horiz-adv-x="350" 
d="M33 -142q58 5 80 27t22 57q0 23 -8 45.5t-17.5 46t-17.5 48.5t-8 54q0 47 42.5 82.5t121.5 45.5v11q-79 10 -121.5 44.5t-42.5 82.5q0 28 8 53.5t17.5 49t17.5 46.5t8 46q0 34 -22 56t-80 27v45q115 -5 168.5 -47.5t53.5 -107.5q0 -26 -8 -51t-18 -48.5t-18 -45.5t-8 -42
q0 -39 29.5 -56t92.5 -26v-64q-68 -8 -95 -25.5t-27 -55.5q0 -20 8 -42t18 -45.5t18 -48.5t8 -51q0 -66 -53.5 -108t-168.5 -47v44z" />
    <glyph glyph-name="asciitilde" unicode="~" 
d="M431 322q-6 -78 -33 -110t-78 -32q-22 0 -43 11t-40.5 24t-36.5 24t-31 11q-19 0 -28 -14.5t-14 -46.5h-58q8 77 35 109.5t75 32.5q22 0 43 -11t40.5 -24l36 -24t30.5 -11q20 0 31 14t18 47h53z" />
    <glyph glyph-name="uni00A0" unicode="&#xa0;" horiz-adv-x="232" 
 />
    <glyph glyph-name="exclamdown" unicode="&#xa1;" horiz-adv-x="300" 
d="M179 421q13 -96 23.5 -190t22.5 -190v-8q0 -24 -20.5 -36t-54.5 -12q-35 0 -55.5 13.5t-20.5 35.5q0 2 0.5 3.5t0.5 3.5q11 96 22.5 190t23.5 190h58zM150 482q-16 0 -30 6.5t-24.5 17.5t-16.5 25t-6 30t6 30t16.5 24.5t24.5 17t30 6.5q32 0 55 -23t23 -55t-23 -55.5
t-55 -23.5z" />
    <glyph glyph-name="cent" unicode="&#xa2;" horiz-adv-x="494" 
d="M163 -119l40 161q-73 20 -114 77.5t-41 139.5q0 51 16.5 94.5t47 75.5t74 50t96.5 18h16.5t16.5 -1l38 153h54l-40 -161q28 -7 51.5 -17t43.5 -25l-48 -75q-31 37 -63 51l-79 -319q10 -3 21 -5t24 -2q28 0 53 11t45 29l29 -53q-30 -24 -68 -37.5t-95 -13.5h-26l-38 -151
h-54zM301 434q-29 0 -52.5 -13t-39.5 -36.5t-24.5 -55t-8.5 -68.5q0 -41 14 -74.5t35 -54.5z" />
    <glyph glyph-name="sterling" unicode="&#xa3;" horiz-adv-x="521" 
d="M51 0v116q46 18 66.5 51.5t20.5 76.5q0 20 -5 40h-90v54h79q-8 23 -14.5 51t-6.5 54q0 88 48 142t141 54q57 0 98 -14t73 -38l-50 -81q-18 32 -41.5 50.5t-59.5 18.5q-35 0 -56.5 -24t-21.5 -69q0 -29 3.5 -48.5t8 -35t9 -29t6.5 -31.5h122v-54h-119q-2 -27 -7.5 -51.5
t-17.5 -46t-32 -40.5t-53 -36h297v-110h-398z" />
    <glyph glyph-name="currency" unicode="&#xa4;" horiz-adv-x="499" 
d="M420 110l-75 75q-44 -28 -96 -28q-54 0 -96 28l-76 -75l-51 51l75 75q-14 21 -21.5 45.5t-7.5 51.5q0 26 7.5 50.5t21.5 45.5l-75 76l51 51l76 -76q41 29 96 29q53 0 96 -29l75 76l52 -51l-76 -76q14 -21 21.5 -45.5t7.5 -50.5q0 -27 -7.5 -51.5t-21.5 -45.5l76 -75z
M249 224q21 0 40 8.5t33 23.5t22 34.5t8 42.5q0 22 -8 42t-22 34.5t-33 23t-40 8.5t-40 -8.5t-33.5 -23t-22.5 -34.5t-8 -42q0 -23 8 -42.5t22.5 -34.5t33.5 -23.5t40 -8.5z" />
    <glyph glyph-name="yen" unicode="&#xa5;" horiz-adv-x="536" 
d="M335 126v-126h-135v126h-149v54h149v73h-149v53h126l-149 319h142l128 -287h6l127 287h77l-150 -319h126v-53h-149v-73h149v-54h-149z" />
    <glyph glyph-name="brokenbar" unicode="&#xa6;" horiz-adv-x="250" 
d="M97 306v335h55v-335h-55zM97 -138v335h55v-335h-55z" />
    <glyph glyph-name="section" unicode="&#xa7;" horiz-adv-x="480" 
d="M101 12q29 -36 60 -50.5t69 -14.5t57.5 15t19.5 40q0 13 -5.5 24t-19 22.5t-35 24t-54.5 29.5q-46 23 -76.5 43t-48.5 39.5t-25.5 40t-7.5 45.5q0 42 20.5 75t57.5 57q-38 38 -38 89q0 30 11.5 57t34.5 47.5t58 32.5t82 12q40 0 81 -10t79 -33l-42 -85q-24 32 -57.5 48
t-71.5 16t-57.5 -15.5t-19.5 -40.5q0 -13 5.5 -24t19 -22.5t35.5 -24.5t54 -29q46 -24 76.5 -43.5t48.5 -38.5t25.5 -39.5t7.5 -45.5q0 -42 -20.5 -75t-57.5 -57q39 -39 39 -89q0 -30 -11.5 -57t-35 -47.5t-58.5 -32.5t-82 -12q-40 0 -81 10t-79 33zM329 153q13 10 20.5 23
t7.5 31q0 36 -27.5 60.5t-92.5 54.5q-51 24 -86 48q-13 -10 -20.5 -23t-7.5 -30q0 -18 6.5 -33t21 -28t37.5 -26.5t56 -28.5q25 -12 46.5 -23.5t38.5 -24.5z" />
    <glyph glyph-name="dieresis" unicode="&#xa8;" horiz-adv-x="435" 
d="M108 547q-28 0 -47.5 21t-19.5 50t19.5 50t47.5 21t47.5 -21t19.5 -50t-19.5 -50t-47.5 -21zM327 547q-29 0 -48.5 21t-19.5 50t19.5 50t48.5 21q28 0 47.5 -21t19.5 -50t-19.5 -50t-47.5 -21z" />
    <glyph glyph-name="copyright" unicode="&#xa9;" horiz-adv-x="801" 
d="M401 -54q-76 0 -143 28.5t-116.5 78t-78 116t-28.5 142.5t28.5 143t78 116.5t116.5 78.5t143 29t142.5 -29t116 -78.5t78 -116.5t28.5 -143t-28.5 -142.5t-78 -116t-116 -78t-142.5 -28.5zM401 -5q65 0 122 25t99.5 68t67 100.5t24.5 122.5t-24.5 122.5t-67 101t-99.5 69
t-122 25.5t-122.5 -25.5t-100 -69t-67 -101t-24.5 -122.5t24.5 -122.5t67 -100.5t100 -68t122.5 -25zM550 151q-27 -20 -59.5 -31t-79.5 -11q-49 0 -88 14.5t-66.5 40.5t-42.5 62t-15 80q0 43 16 81t43.5 65.5t65.5 43.5t83 16q50 0 89 -11.5t70 -31.5l-44 -71
q-17 30 -44.5 47.5t-62.5 17.5q-54 0 -82.5 -43.5t-28.5 -111.5q0 -67 33 -108.5t96 -41.5q26 0 50.5 9.5t42.5 24.5z" />
    <glyph glyph-name="ordfeminine" unicode="&#xaa;" horiz-adv-x="384" 
d="M230 294v47h-5q-17 -28 -43 -43t-59 -15q-36 0 -64 24t-28 66q0 27 12 47.5t34.5 36t54.5 27.5t73 22l25 6q0 38 -12 56.5t-44 18.5q-23 0 -48 -12t-49 -43l-36 55q37 29 69.5 41t77.5 12q71 0 106 -34.5t35 -113.5v-198h-99zM230 466l-15 -4q-52 -14 -69.5 -31.5
t-17.5 -37.5t11 -30t30 -10t34.5 11.5t26.5 25.5v76z" />
    <glyph glyph-name="guillemotleft" unicode="&#xab;" horiz-adv-x="563" 
d="M28 220v65l241 171l24 -32l-155 -171l155 -171l-24 -32zM264 220v65l241 171l24 -32l-155 -171l155 -171l-24 -32z" />
    <glyph glyph-name="logicalnot" unicode="&#xac;" 
d="M379 105v154h-337v63h400v-217h-63z" />
    <glyph glyph-name="uni00AD" unicode="&#xad;" horiz-adv-x="328" 
d="M48 224v67h232v-67h-232z" />
    <glyph glyph-name="registered" unicode="&#xae;" horiz-adv-x="593" 
d="M297 125q-53 0 -100 20t-81.5 55t-54.5 81.5t-20 100.5q0 53 20 100t54.5 82t81.5 55t100 20t100 -20t81.5 -55t54.5 -82t20 -100q0 -54 -20 -100.5t-54.5 -81.5t-81.5 -55t-100 -20zM297 161q46 0 86 17.5t69.5 47.5t46.5 70t17 86q0 45 -17 85.5t-46.5 71t-69.5 48
t-86 17.5t-86 -17.5t-70 -48t-47 -71t-17 -85.5q0 -46 17 -86t47 -70t70 -47.5t86 -17.5zM344 250l-59 109l-23 1v-110h-66v267l106 1q54 1 79 -18.5t25 -52.5q0 -25 -14.5 -44.5t-40.5 -28.5l71 -124h-78zM262 483v-88q5 -1 11.5 -1.5t13.5 -0.5q22 0 34.5 12t12.5 32
t-13.5 33t-43.5 13h-15z" />
    <glyph glyph-name="macron" unicode="&#xaf;" horiz-adv-x="435" 
d="M65 580v66h305v-66h-305z" />
    <glyph glyph-name="degree" unicode="&#xb0;" horiz-adv-x="407" 
d="M364 483q0 -32 -11 -61t-32 -51t-51 -35t-67 -13t-67 13t-51 35t-32 51t-11 61q0 33 11 63t32 52t51 35t67 13t67 -13t51 -35t32 -52t11 -63zM203 380q24 0 42.5 8.5t31 22.5t19.5 33t7 39q0 44 -26 75t-74 31q-47 0 -73.5 -31t-26.5 -75q0 -20 7 -39t20 -33t31.5 -22.5
t41.5 -8.5z" />
    <glyph glyph-name="plusminus" unicode="&#xb1;" 
d="M281 239v-139h-62v139h-175v62h175v157h62v-157h175v-62h-175zM44 0v63h412v-63h-412z" />
    <glyph glyph-name="uni00B2" unicode="&#xb2;" horiz-adv-x="350" 
d="M45 273l-4 40q33 33 65 60t56.5 53t39.5 52.5t15 57.5q0 26 -17 41.5t-50 15.5q-28 0 -51 -12t-45 -31l-26 35q31 33 71.5 54.5t90.5 21.5q61 0 96.5 -29.5t35.5 -84.5q0 -44 -41 -86t-126 -103v-5h165v-80h-275z" />
    <glyph glyph-name="uni00B3" unicode="&#xb3;" horiz-adv-x="350" 
d="M221 481q42 0 72.5 -22t30.5 -64q0 -27 -13 -51t-35 -42t-51.5 -29t-62.5 -11q-43 0 -75 12t-55 29q7 11 13 22q5 9 11 19t11 18q17 -26 38 -39t50 -13q30 0 47.5 18t17.5 50q0 34 -19 47t-43 13q-19 0 -43 -9l-15 38q44 18 74 38.5t30 44.5q0 22 -16.5 33t-40.5 11
q-27 0 -51.5 -12.5t-44.5 -33.5l-27 37q34 34 75.5 55t101.5 21q49 0 78.5 -23t29.5 -57q0 -33 -25 -56t-63 -40v-4z" />
    <glyph glyph-name="acute" unicode="&#xb4;" horiz-adv-x="435" 
d="M136 534l98 177h138l-175 -177h-61z" />
    <glyph glyph-name="uni00B5" unicode="&#xb5;" horiz-adv-x="571" 
d="M368 0v49h-4q-14 -16 -26 -28t-25 -20.5t-28.5 -12.5t-34.5 -4q-32 0 -55 18t-36 44v-292h-87v704h131v-248q0 -34 5 -56t15 -35t25 -18t35 -5q24 0 47.5 16t37.5 33v313h131v-458h-131z" />
    <glyph glyph-name="paragraph" unicode="&#xb6;" horiz-adv-x="480" 
d="M337 -32v284q-42 -6 -83 -6q-50 0 -91.5 15t-71 40.5t-46 60t-16.5 73.5q0 42 15.5 77t43.5 60t66.5 39t84.5 14h175v-657h-77z" />
    <glyph glyph-name="periodcentered" unicode="&#xb7;" horiz-adv-x="231" 
d="M196 253q0 -33 -23.5 -57t-57.5 -24t-57.5 23.5t-23.5 57.5t23.5 58t57.5 24t57.5 -24t23.5 -58z" />
    <glyph glyph-name="cedilla" unicode="&#xb8;" horiz-adv-x="435" 
d="M104 -228q76 0 110.5 16.5t34.5 43.5q0 19 -20 30t-60 11q-19 0 -36 -1t-36 -5v37l112 115h64l-75 -76q66 0 105 -25.5t39 -69.5q0 -57 -63 -92t-175 -35v51z" />
    <glyph glyph-name="uni00B9" unicode="&#xb9;" horiz-adv-x="350" 
d="M144 273v297h-81v40l183 54v-391h-102z" />
    <glyph glyph-name="ordmasculine" unicode="&#xba;" horiz-adv-x="420" 
d="M387 465q0 -38 -14 -71t-38.5 -57.5t-58.5 -39t-74 -14.5q-41 0 -72.5 14t-53 38t-32.5 56t-11 67q0 37 14 70.5t38.5 58t58.5 39t74 14.5q41 0 72.5 -14t53 -38t32.5 -56t11 -67zM211 336q32 0 50 31t18 83q0 69 -15.5 103t-54.5 34q-32 0 -50 -31t-18 -83
q0 -69 15.5 -103t54.5 -34z" />
    <glyph glyph-name="guillemotright" unicode="&#xbb;" horiz-adv-x="563" 
d="M295 50l-24 32l155 171l-155 171l24 32l240 -171v-65zM59 50l-25 32l155 171l-155 171l25 32l240 -171v-65z" />
    <glyph glyph-name="onequarter" unicode="&#xbc;" horiz-adv-x="735" 
d="M131 273v297h-81v40l183 54v-391h-102zM89 -116l535 741h64l-535 -741h-64zM572 -143v82h-163l-9 51l191 248h75v-236h53v-63h-53v-82h-94zM572 146l-110 -144h110v144z" />
    <glyph glyph-name="onehalf" unicode="&#xbd;" horiz-adv-x="735" 
d="M131 273v297h-81v40l183 54v-391h-102zM65 -116l535 741h64l-535 -741h-64zM420 -143l-4 40q33 33 65 60t56.5 53t39.5 52.5t15 57.5q0 26 -17 41.5t-50 15.5q-28 0 -51 -12t-45 -31l-26 35q31 33 71.5 54.5t90.5 21.5q61 0 96.5 -29.5t35.5 -84.5q0 -44 -41 -86
t-126 -103v-5h165v-80h-275z" />
    <glyph glyph-name="threequarters" unicode="&#xbe;" horiz-adv-x="735" 
d="M222 481q42 0 72.5 -22t30.5 -64q0 -27 -13 -51t-35 -42t-51.5 -29t-62.5 -11q-43 0 -76 12t-56 29l42 65q14 -26 34 -42t49 -16q30 0 48 19.5t18 51.5q0 25 -18 41t-44 16q-11 0 -20 -1.5t-20 -6.5l-19 37q47 20 74.5 40t27.5 45q0 21 -15.5 31.5t-39.5 10.5
q-27 0 -51.5 -12.5t-44.5 -33.5l-26 37q31 34 70.5 55t105.5 21q49 0 78.5 -24t29.5 -56q0 -33 -25 -56t-63 -40v-4zM93 -116l535 741h65l-535 -741h-65zM572 -143v82h-163l-9 51l191 248h75v-236h53v-63h-53v-82h-94zM572 146l-110 -144h110v144z" />
    <glyph glyph-name="questiondown" unicode="&#xbf;" horiz-adv-x="409" 
d="M252 427q58 -38 58 -97q0 -26 -9.5 -44t-26.5 -31t-41.5 -23t-54.5 -19q-35 -11 -56 -22t-21 -30q0 -14 11.5 -24.5t30.5 -17.5t43.5 -11t51.5 -4q23 0 45 3t39 6q10 -7 17 -21t7 -27q0 -19 -4 -33.5t-14.5 -25t-30 -16t-49.5 -5.5q-42 0 -81.5 14.5t-69.5 39.5t-48.5 59
t-18.5 73q0 34 8 57.5t23.5 39.5t38 27.5t51.5 21.5q23 8 37 14.5t22 12.5t11 12.5t3 14.5q0 11 -7.5 25t-18.5 31h54zM223 482q-32 0 -55 23t-23 55t23 55.5t55 23.5t55 -23.5t23 -55.5q0 -16 -6 -30t-16.5 -24.5t-25 -17t-30.5 -6.5z" />
    <glyph glyph-name="Agrave" unicode="&#xc0;" horiz-adv-x="613" 
d="M440 0l-60 176h-226l-61 -176h-77l201 564v42l156 35l224 -641h-157zM275 499h-10l-88 -258h181zM286 699l-175 177h138l99 -177h-62z" />
    <glyph glyph-name="Aacute" unicode="&#xc1;" horiz-adv-x="613" 
d="M440 0l-60 176h-226l-61 -176h-77l201 564v42l156 35l224 -641h-157zM275 499h-10l-88 -258h181zM256 699l98 177h138l-175 -177h-61z" />
    <glyph glyph-name="Acircumflex" unicode="&#xc2;" horiz-adv-x="613" 
d="M440 0l-60 176h-226l-61 -176h-77l201 564v42l156 35l224 -641h-157zM275 499h-10l-88 -258h181zM417 699l-108 110h-5l-108 -110h-57l130 204h75l129 -204h-56z" />
    <glyph glyph-name="Atilde" unicode="&#xc3;" horiz-adv-x="613" 
d="M440 0l-60 176h-226l-61 -176h-77l201 564v42l156 35l224 -641h-157zM275 499h-10l-88 -258h181zM487 851q-6 -77 -32.5 -109t-77.5 -32q-22 0 -43 11t-40.5 24t-36.5 24t-31 11q-19 0 -28 -14.5t-15 -46.5h-58q9 77 36 109t74 32q22 0 43 -11t40.5 -23.5t36.5 -23.5
t31 -11q19 0 30.5 14t17.5 46h53z" />
    <glyph glyph-name="Adieresis" unicode="&#xc4;" horiz-adv-x="613" 
d="M440 0l-60 176h-226l-61 -176h-77l201 564v42l156 35l224 -641h-157zM275 499h-10l-88 -258h181zM197 712q-28 0 -47.5 21t-19.5 50t19.5 50t47.5 21t47.5 -21t19.5 -50t-19.5 -50t-47.5 -21zM416 712q-29 0 -48.5 21t-19.5 50t19.5 50t48.5 21q28 0 47.5 -21t19.5 -50
t-19.5 -50t-47.5 -21z" />
    <glyph glyph-name="Aring" unicode="&#xc5;" horiz-adv-x="613" 
d="M440 0l-60 176h-226l-61 -176h-77l216 603q-38 33 -38 87q0 46 30 79.5t83 33.5t82.5 -33.5t29.5 -79.5q0 -51 -34 -83l212 -607h-157zM275 499h-10l-88 -258h181zM307 625q29 0 45.5 20t16.5 45q0 24 -16.5 44t-45.5 20t-45.5 -20t-16.5 -44q0 -25 16.5 -45t45.5 -20z
" />
    <glyph glyph-name="AE" unicode="&#xc6;" horiz-adv-x="892" 
d="M411 0v198h-210l-112 -198h-83l351 625h487v-101q-18 7 -37 13t-42.5 9.5t-53.5 5.5t-70 2h-83v-205h201v-67h-201v-211h83q40 0 70 2t53.5 5.5t42.5 9t37 13.5v-101h-433zM411 560h-8l-167 -297h175v297z" />
    <glyph glyph-name="Ccedilla" unicode="&#xc7;" horiz-adv-x="660" 
d="M259 -228q76 0 110.5 16.5t34.5 43.5q0 19 -20 30t-60 11q-19 0 -36 -1t-36 -5v37l81 84q-68 7 -122.5 31t-93.5 64.5t-60 96t-21 125.5q0 73 26 134.5t72.5 106t110.5 69.5t141 25t134 -16.5t108 -46.5l-46 -92q-37 38 -82.5 63t-105.5 25q-43 0 -79.5 -17t-63.5 -49
t-42 -80t-15 -109q0 -132 58.5 -198.5t154.5 -66.5q45 0 87 13t80 45l35 -60q-45 -33 -100 -49t-115 -17l-41 -42q66 0 105 -25.5t39 -69.5q0 -57 -63 -92t-175 -35v51z" />
    <glyph glyph-name="Egrave" unicode="&#xc8;" horiz-adv-x="552" 
d="M72 0v625h432v-101q-18 7 -37 13t-42.5 9.5t-53.5 5.5t-70 2h-82v-205h201v-67h-201v-211h82q40 0 70 2t53.5 5.5t42.5 9t37 13.5v-101h-432zM292 699l-175 177h138l99 -177h-62z" />
    <glyph glyph-name="Eacute" unicode="&#xc9;" horiz-adv-x="552" 
d="M72 0v625h432v-101q-18 7 -37 13t-42.5 9.5t-53.5 5.5t-70 2h-82v-205h201v-67h-201v-211h82q40 0 70 2t53.5 5.5t42.5 9t37 13.5v-101h-432zM235 699l98 177h138l-175 -177h-61z" />
    <glyph glyph-name="Ecircumflex" unicode="&#xca;" horiz-adv-x="552" 
d="M72 0v625h432v-101q-18 7 -37 13t-42.5 9.5t-53.5 5.5t-70 2h-82v-205h201v-67h-201v-211h82q40 0 70 2t53.5 5.5t42.5 9t37 13.5v-101h-432zM406 699l-108 110h-5l-108 -110h-57l130 204h75l129 -204h-56z" />
    <glyph glyph-name="Edieresis" unicode="&#xcb;" horiz-adv-x="552" 
d="M72 0v625h432v-101q-18 7 -37 13t-42.5 9.5t-53.5 5.5t-70 2h-82v-205h201v-67h-201v-211h82q40 0 70 2t53.5 5.5t42.5 9t37 13.5v-101h-432zM187 712q-28 0 -47.5 21t-19.5 50t19.5 50t47.5 21t47.5 -21t19.5 -50t-19.5 -50t-47.5 -21zM406 712q-29 0 -48.5 21t-19.5 50
t19.5 50t48.5 21q28 0 47.5 -21t19.5 -50t-19.5 -50t-47.5 -21z" />
    <glyph glyph-name="Igrave" unicode="&#xcc;" horiz-adv-x="291" 
d="M72 0v625h147v-625h-147zM125 699l-175 177h138l99 -177h-62z" />
    <glyph glyph-name="Iacute" unicode="&#xcd;" horiz-adv-x="291" 
d="M72 0v625h147v-625h-147zM103 699l98 177h138l-175 -177h-61z" />
    <glyph glyph-name="Icircumflex" unicode="&#xce;" horiz-adv-x="291" 
d="M72 0v625h147v-625h-147zM256 699l-108 110h-5l-108 -110h-57l130 204h75l129 -204h-56z" />
    <glyph glyph-name="Idieresis" unicode="&#xcf;" horiz-adv-x="291" 
d="M72 0v625h147v-625h-147zM36 712q-28 0 -47.5 21t-19.5 50t19.5 50t47.5 21t47.5 -21t19.5 -50t-19.5 -50t-47.5 -21zM255 712q-29 0 -48.5 21t-19.5 50t19.5 50t48.5 21q28 0 47.5 -21t19.5 -50t-19.5 -50t-47.5 -21z" />
    <glyph glyph-name="Eth" unicode="&#xd0;" horiz-adv-x="689" 
d="M72 1v287h-66v51h66v285l205 4q88 1 157.5 -21t118 -63.5t74.5 -98.5t26 -126q0 -73 -25 -133t-73 -102.5t-118 -65.5t-161 -21zM265 66q58 0 101.5 17.5t72 49t42.5 76.5t14 100q0 58 -14.5 104t-44.5 78.5t-76 50t-108 17.5h-33v-220h120v-51h-120v-222h46z" />
    <glyph glyph-name="Ntilde" unicode="&#xd1;" horiz-adv-x="669" 
d="M467 -6l-316 469h-6v-463h-73v617l143 13l304 -451h6v446h72v-618zM526 851q-6 -77 -32.5 -109t-77.5 -32q-22 0 -43 11t-40.5 24t-36.5 24t-31 11q-19 0 -28 -14.5t-15 -46.5h-58q9 77 36 109t74 32q22 0 43 -11t40.5 -23.5t36.5 -23.5t31 -11q19 0 30.5 14t17.5 46h53z
" />
    <glyph glyph-name="Ograve" unicode="&#xd2;" horiz-adv-x="749" 
d="M713 317q0 -74 -27.5 -135.5t-74 -105t-108.5 -67.5t-132 -24q-77 0 -139 23t-105.5 65.5t-67 101.5t-23.5 131q0 74 27 135.5t73.5 105.5t108.5 68.5t132 24.5q77 0 139.5 -23.5t106 -66t67 -102t23.5 -131.5zM378 51q37 0 69.5 15.5t56.5 47t37.5 79t13.5 112.5
q0 67 -14.5 117t-39 83.5t-58 50.5t-72.5 17q-38 0 -70 -15.5t-56 -47t-37.5 -79.5t-13.5 -113q0 -67 14.5 -117t39.5 -83.5t58.5 -50t71.5 -16.5zM375 699l-175 177h138l99 -177h-62z" />
    <glyph glyph-name="Oacute" unicode="&#xd3;" horiz-adv-x="749" 
d="M713 317q0 -74 -27.5 -135.5t-74 -105t-108.5 -67.5t-132 -24q-77 0 -139 23t-105.5 65.5t-67 101.5t-23.5 131q0 74 27 135.5t73.5 105.5t108.5 68.5t132 24.5q77 0 139.5 -23.5t106 -66t67 -102t23.5 -131.5zM378 51q37 0 69.5 15.5t56.5 47t37.5 79t13.5 112.5
q0 67 -14.5 117t-39 83.5t-58 50.5t-72.5 17q-38 0 -70 -15.5t-56 -47t-37.5 -79.5t-13.5 -113q0 -67 14.5 -117t39.5 -83.5t58.5 -50t71.5 -16.5zM327 699l98 177h138l-175 -177h-61z" />
    <glyph glyph-name="Ocircumflex" unicode="&#xd4;" horiz-adv-x="749" 
d="M713 317q0 -74 -27.5 -135.5t-74 -105t-108.5 -67.5t-132 -24q-77 0 -139 23t-105.5 65.5t-67 101.5t-23.5 131q0 74 27 135.5t73.5 105.5t108.5 68.5t132 24.5q77 0 139.5 -23.5t106 -66t67 -102t23.5 -131.5zM378 51q37 0 69.5 15.5t56.5 47t37.5 79t13.5 112.5
q0 67 -14.5 117t-39 83.5t-58 50.5t-72.5 17q-38 0 -70 -15.5t-56 -47t-37.5 -79.5t-13.5 -113q0 -67 14.5 -117t39.5 -83.5t58.5 -50t71.5 -16.5zM485 699l-108 110h-5l-108 -110h-57l130 204h75l129 -204h-56z" />
    <glyph glyph-name="Otilde" unicode="&#xd5;" horiz-adv-x="749" 
d="M713 317q0 -74 -27.5 -135.5t-74 -105t-108.5 -67.5t-132 -24q-77 0 -139 23t-105.5 65.5t-67 101.5t-23.5 131q0 74 27 135.5t73.5 105.5t108.5 68.5t132 24.5q77 0 139.5 -23.5t106 -66t67 -102t23.5 -131.5zM378 51q37 0 69.5 15.5t56.5 47t37.5 79t13.5 112.5
q0 67 -14.5 117t-39 83.5t-58 50.5t-72.5 17q-38 0 -70 -15.5t-56 -47t-37.5 -79.5t-13.5 -113q0 -67 14.5 -117t39.5 -83.5t58.5 -50t71.5 -16.5zM555 851q-6 -77 -32.5 -109t-77.5 -32q-22 0 -43 11t-40.5 24t-36.5 24t-31 11q-19 0 -28 -14.5t-15 -46.5h-58q9 77 36 109
t74 32q22 0 43 -11t40.5 -23.5t36.5 -23.5t31 -11q19 0 30.5 14t17.5 46h53z" />
    <glyph glyph-name="Odieresis" unicode="&#xd6;" horiz-adv-x="749" 
d="M713 317q0 -74 -27.5 -135.5t-74 -105t-108.5 -67.5t-132 -24q-77 0 -139 23t-105.5 65.5t-67 101.5t-23.5 131q0 74 27 135.5t73.5 105.5t108.5 68.5t132 24.5q77 0 139.5 -23.5t106 -66t67 -102t23.5 -131.5zM378 51q37 0 69.5 15.5t56.5 47t37.5 79t13.5 112.5
q0 67 -14.5 117t-39 83.5t-58 50.5t-72.5 17q-38 0 -70 -15.5t-56 -47t-37.5 -79.5t-13.5 -113q0 -67 14.5 -117t39.5 -83.5t58.5 -50t71.5 -16.5zM265 712q-28 0 -47.5 21t-19.5 50t19.5 50t47.5 21t47.5 -21t19.5 -50t-19.5 -50t-47.5 -21zM484 712q-29 0 -48.5 21
t-19.5 50t19.5 50t48.5 21q28 0 47.5 -21t19.5 -50t-19.5 -50t-47.5 -21z" />
    <glyph glyph-name="multiply" unicode="&#xd7;" 
d="M250 197l-157 -159l-44 45l158 157l-158 157l44 44l157 -158l157 158l45 -44l-160 -157l160 -157l-45 -45z" />
    <glyph glyph-name="Oslash" unicode="&#xd8;" horiz-adv-x="749" 
d="M123 -69l59 101q-70 41 -108 111t-38 163q0 74 27 135.5t73.5 105.5t108.5 68.5t132 24.5q40 0 75.5 -6.5t67.5 -18.5l45 78h60l-58 -100q69 -42 107.5 -112t38.5 -164q0 -74 -27.5 -135.5t-74 -105t-108.5 -67.5t-132 -24q-81 0 -142 24l-46 -78h-60zM474 535
q-44 38 -103 38q-38 0 -70 -15.5t-56 -47t-37.5 -79.5t-13.5 -113q0 -61 12 -108t33 -80zM274 89q44 -38 104 -38q37 0 69.5 15.5t56.5 47t37.5 79t13.5 112.5q0 62 -12 109t-34 81z" />
    <glyph glyph-name="Ugrave" unicode="&#xd9;" horiz-adv-x="658" 
d="M516 625h72v-400q0 -58 -19 -103t-53.5 -75.5t-82 -46t-104.5 -15.5t-104.5 15.5t-82 46t-53.5 76t-19 105.5v397h147v-372q0 -89 38 -136t112 -47q75 0 112 48t37 129v378zM342 699l-175 177h138l99 -177h-62z" />
    <glyph glyph-name="Uacute" unicode="&#xda;" horiz-adv-x="658" 
d="M516 625h72v-400q0 -58 -19 -103t-53.5 -75.5t-82 -46t-104.5 -15.5t-104.5 15.5t-82 46t-53.5 76t-19 105.5v397h147v-372q0 -89 38 -136t112 -47q75 0 112 48t37 129v378zM308 699l98 177h138l-175 -177h-61z" />
    <glyph glyph-name="Ucircumflex" unicode="&#xdb;" horiz-adv-x="658" 
d="M516 625h72v-400q0 -58 -19 -103t-53.5 -75.5t-82 -46t-104.5 -15.5t-104.5 15.5t-82 46t-53.5 76t-19 105.5v397h147v-372q0 -89 38 -136t112 -47q75 0 112 48t37 129v378zM463 699l-108 110h-5l-108 -110h-57l130 204h75l129 -204h-56z" />
    <glyph glyph-name="Udieresis" unicode="&#xdc;" horiz-adv-x="658" 
d="M516 625h72v-400q0 -58 -19 -103t-53.5 -75.5t-82 -46t-104.5 -15.5t-104.5 15.5t-82 46t-53.5 76t-19 105.5v397h147v-372q0 -89 38 -136t112 -47q75 0 112 48t37 129v378zM237 712q-28 0 -47.5 21t-19.5 50t19.5 50t47.5 21t47.5 -21t19.5 -50t-19.5 -50t-47.5 -21z
M456 712q-29 0 -48.5 21t-19.5 50t19.5 50t48.5 21q28 0 47.5 -21t19.5 -50t-19.5 -50t-47.5 -21z" />
    <glyph glyph-name="Yacute" unicode="&#xdd;" horiz-adv-x="597" 
d="M226 0v262l-210 363h161l157 -279h9l159 279h79l-208 -362v-263h-147zM274 699l98 177h138l-175 -177h-61z" />
    <glyph glyph-name="Thorn" unicode="&#xde;" horiz-adv-x="586" 
d="M72 0v625h147v-123l74 2q65 2 114 -11t81.5 -37t49 -58.5t16.5 -75.5q0 -51 -22.5 -90t-60.5 -65.5t-87.5 -40t-102.5 -13.5q-14 0 -31 1t-31 2v-116h-147zM219 436v-252q28 -5 58 -5q54 0 86.5 33.5t32.5 92.5q0 62 -33.5 96.5t-97.5 34.5h-46z" />
    <glyph glyph-name="germandbls" unicode="&#xdf;" horiz-adv-x="620" 
d="M301 111q18 -27 43.5 -44.5t55.5 -17.5q37 0 57.5 22t20.5 57q0 24 -8.5 49t-30.5 50t-58.5 51t-93.5 52v87q64 14 88.5 46.5t24.5 75.5q0 44 -21.5 69t-62.5 25q-96 0 -96 -137v-496h-130v391h-74v67h74v13q0 54 16.5 96t46.5 71t72.5 44t95.5 15q95 0 148.5 -42
t53.5 -109q0 -101 -112 -140v-6q88 -40 131.5 -98t43.5 -126q0 -42 -13 -77t-37.5 -60.5t-61 -39.5t-84.5 -14q-39 0 -72.5 8t-57.5 21z" />
    <glyph glyph-name="agrave" unicode="&#xe0;" horiz-adv-x="495" 
d="M247 534l-175 177h138l99 -177h-62zM306 0v61h-4q-27 -40 -63 -58t-82 -18q-25 0 -47.5 8.5t-40 24.5t-27.5 38.5t-10 50.5q0 37 16.5 65t47.5 49.5t75 37.5t100 29l35 8q0 54 -19 82.5t-63 28.5q-64 0 -122 -79l-50 73q25 20 48.5 34t48.5 22.5t51.5 12t57.5 3.5
q91 0 135 -48.5t44 -154.5v-270h-131zM306 238l-23 -7q-64 -20 -91.5 -44.5t-27.5 -53.5q0 -28 15 -42t41 -14q24 0 46.5 14.5t39.5 39.5v107z" />
    <glyph glyph-name="aacute" unicode="&#xe1;" horiz-adv-x="495" 
d="M193 534l99 177h138l-175 -177h-62zM306 0v61h-4q-27 -40 -63 -58t-82 -18q-25 0 -47.5 8.5t-40 24.5t-27.5 38.5t-10 50.5q0 37 16.5 65t47.5 49.5t75 37.5t100 29l35 8q0 54 -19 82.5t-63 28.5q-64 0 -122 -79l-50 73q25 20 48.5 34t48.5 22.5t51.5 12t57.5 3.5
q91 0 135 -48.5t44 -154.5v-270h-131zM306 238l-23 -7q-64 -20 -91.5 -44.5t-27.5 -53.5q0 -28 15 -42t41 -14q24 0 46.5 14.5t39.5 39.5v107z" />
    <glyph glyph-name="acircumflex" unicode="&#xe2;" horiz-adv-x="495" 
d="M306 0v61h-4q-27 -40 -63 -58t-82 -18q-25 0 -47.5 8.5t-40 24.5t-27.5 38.5t-10 50.5q0 37 16.5 65t47.5 49.5t75 37.5t100 29l35 8q0 54 -19 82.5t-63 28.5q-64 0 -122 -79l-50 73q25 20 48.5 34t48.5 22.5t51.5 12t57.5 3.5q91 0 135 -48.5t44 -154.5v-270h-131z
M306 238l-23 -7q-64 -20 -91.5 -44.5t-27.5 -53.5q0 -28 15 -42t41 -14q24 0 46.5 14.5t39.5 39.5v107zM356 534l-108 110h-5l-108 -110h-57l130 204h75l129 -204h-56z" />
    <glyph glyph-name="atilde" unicode="&#xe3;" horiz-adv-x="495" 
d="M306 0v61h-4q-27 -40 -63 -58t-82 -18q-25 0 -47.5 8.5t-40 24.5t-27.5 38.5t-10 50.5q0 37 16.5 65t47.5 49.5t75 37.5t100 29l35 8q0 54 -19 82.5t-63 28.5q-64 0 -122 -79l-50 73q25 20 48.5 34t48.5 22.5t51.5 12t57.5 3.5q91 0 135 -48.5t44 -154.5v-270h-131z
M306 238l-23 -7q-64 -20 -91.5 -44.5t-27.5 -53.5q0 -28 15 -42t41 -14q24 0 46.5 14.5t39.5 39.5v107zM421 686q-7 -76 -31 -108.5t-75 -32.5q-22 0 -43.5 11t-42 24t-38 24t-31.5 11q-19 0 -28 -14.5t-15 -46.5h-58q9 77 36 109t74 32q22 0 43 -11t40.5 -23.5t36.5 -23.5
t31 -11q19 0 30.5 14t17.5 46h53z" />
    <glyph glyph-name="adieresis" unicode="&#xe4;" horiz-adv-x="495" 
d="M306 0v61h-4q-27 -40 -63 -58t-82 -18q-25 0 -47.5 8.5t-40 24.5t-27.5 38.5t-10 50.5q0 37 16.5 65t47.5 49.5t75 37.5t100 29l35 8q0 54 -19 82.5t-63 28.5q-64 0 -122 -79l-50 73q25 20 48.5 34t48.5 22.5t51.5 12t57.5 3.5q91 0 135 -48.5t44 -154.5v-270h-131z
M306 238l-23 -7q-64 -20 -91.5 -44.5t-27.5 -53.5q0 -28 15 -42t41 -14q24 0 46.5 14.5t39.5 39.5v107zM127 547q-28 0 -47.5 21t-19.5 50t19.5 50t47.5 21t47.5 -21t19.5 -50t-19.5 -50t-47.5 -21zM346 547q-29 0 -48.5 21t-19.5 50t19.5 50t48.5 21q28 0 47.5 -21
t19.5 -50t-19.5 -50t-47.5 -21z" />
    <glyph glyph-name="aring" unicode="&#xe5;" horiz-adv-x="495" 
d="M306 0v61h-4q-27 -40 -63 -58t-82 -18q-25 0 -47.5 8.5t-40 24.5t-27.5 38.5t-10 50.5q0 37 16.5 65t47.5 49.5t75 37.5t100 29l35 8q0 54 -19 82.5t-63 28.5q-64 0 -122 -79l-50 73q25 20 48.5 34t48.5 22.5t51.5 12t57.5 3.5q91 0 135 -48.5t44 -154.5v-270h-131z
M306 238l-23 -7q-64 -20 -91.5 -44.5t-27.5 -53.5q0 -28 15 -42t41 -14q24 0 46.5 14.5t39.5 39.5v107zM240 522q-26 0 -46.5 9t-35 24.5t-22.5 36.5t-8 44t8 43.5t22.5 36t35 24.5t46.5 9q53 0 83 -33.5t30 -79.5q0 -23 -8 -44t-22.5 -36.5t-35.5 -24.5t-47 -9zM240 571
q29 0 45.5 20t16.5 45q0 24 -16.5 44t-45.5 20t-45.5 -20t-16.5 -44q0 -25 16.5 -45t45.5 -20z" />
    <glyph glyph-name="ae" unicode="&#xe6;" horiz-adv-x="772" 
d="M294 235l-30 -10q-100 -34 -100 -92q0 -28 15.5 -42t39.5 -14q28 0 50 14.5t39 39.5q-6 17 -9 36t-5 40v28zM604 279q0 59 -17.5 94t-60.5 35q-34 0 -57.5 -34.5t-31.5 -94.5h167zM706 39q-32 -26 -71 -40t-99 -14q-69 0 -119 24.5t-81 70.5q-31 -46 -74.5 -70.5
t-102.5 -24.5q-26 0 -49.5 8.5t-40.5 24t-27 38t-10 51.5q0 36 16.5 64t47 50t74.5 38t100 29l35 8q2 54 -15 82.5t-61 28.5q-32 0 -66.5 -20.5t-60.5 -58.5l-18 26q-8 11 -16.5 23.5t-15.5 23.5q27 20 52 33.5t50 22t51.5 12.5t56.5 4q85 0 127 -46q29 22 64.5 34t77.5 12
q100 0 152.5 -54.5t52.5 -148.5q0 -12 -1 -24t-3 -26h-297q1 -35 11 -66t27.5 -54t42.5 -36.5t58 -13.5q31 0 56 11.5t46 30.5z" />
    <glyph glyph-name="ccedilla" unicode="&#xe7;" horiz-adv-x="491" 
d="M161 -228q76 0 110.5 16.5t34.5 43.5q0 19 -20 30t-60 11q-19 0 -36 -1t-36 -5v37l81 84q-46 6 -82.5 25.5t-62.5 50t-40 71t-14 88.5q0 54 17.5 99.5t50 79t77 52.5t98.5 19q58 0 101.5 -14t78.5 -40l-51 -81q-23 31 -49.5 50.5t-66.5 19.5q-29 0 -50.5 -14t-35.5 -38
t-21.5 -57.5t-7.5 -72.5q0 -38 8.5 -69.5t25 -55t41.5 -36.5t58 -13q27 0 53.5 11t47.5 30l30 -53q-29 -23 -62.5 -37.5t-81.5 -16.5l-42 -43q66 0 105 -25.5t39 -69.5q0 -57 -63 -92t-175 -35v51z" />
    <glyph glyph-name="egrave" unicode="&#xe8;" horiz-adv-x="514" 
d="M259 534l-174 177h138l99 -177h-63zM448 39q-31 -26 -71 -40t-100 -14q-54 0 -98.5 16.5t-76 47.5t-49 75t-17.5 99t17.5 101t49 79t75.5 51.5t96 18.5q100 0 152 -54t52 -148q0 -12 -1 -24.5t-3 -26.5h-297q1 -35 11 -66t27.5 -54t42.5 -36.5t57 -13.5t57 11.5t46 29.5z
M346 280q0 60 -17.5 94t-59.5 34q-34 0 -58 -34t-32 -94h167z" />
    <glyph glyph-name="eacute" unicode="&#xe9;" horiz-adv-x="514" 
d="M205 534l99 177h137l-174 -177h-62zM448 39q-31 -26 -71 -40t-100 -14q-54 0 -98.5 16.5t-76 47.5t-49 75t-17.5 99t17.5 101t49 79t75.5 51.5t96 18.5q100 0 152 -54t52 -148q0 -12 -1 -24.5t-3 -26.5h-297q1 -35 11 -66t27.5 -54t42.5 -36.5t57 -13.5t57 11.5t46 29.5z
M346 279q0 60 -17.5 94.5t-59.5 34.5q-34 0 -58 -34.5t-32 -94.5h167z" />
    <glyph glyph-name="ecircumflex" unicode="&#xea;" horiz-adv-x="514" 
d="M448 39q-31 -26 -71 -40t-100 -14q-54 0 -98.5 16.5t-76 47.5t-49 75t-17.5 99t17.5 101t49 79t75.5 51.5t96 18.5q100 0 152 -54t52 -148q0 -12 -1 -24.5t-3 -26.5h-297q1 -35 11 -66t27.5 -54t42.5 -36.5t57 -13.5t57 11.5t46 29.5zM346 279q0 60 -17.5 94.5
t-59.5 34.5q-34 0 -58 -34.5t-32 -94.5h167zM379 534l-108 110h-5l-108 -110h-57l130 204h75l129 -204h-56z" />
    <glyph glyph-name="edieresis" unicode="&#xeb;" horiz-adv-x="514" 
d="M448 39q-31 -26 -71 -40t-100 -14q-54 0 -98.5 16.5t-76 47.5t-49 75t-17.5 99t17.5 101t49 79t75.5 51.5t96 18.5q100 0 152 -54t52 -148q0 -12 -1 -24.5t-3 -26.5h-297q1 -35 11 -66t27.5 -54t42.5 -36.5t57 -13.5t57 11.5t46 29.5zM346 279q0 60 -17.5 94.5
t-59.5 34.5q-34 0 -58 -34.5t-32 -94.5h167zM160 547q-28 0 -47.5 21t-19.5 50t19.5 50t47.5 21t47.5 -21t19.5 -50t-19.5 -50t-47.5 -21zM379 547q-29 0 -48.5 21t-19.5 50t19.5 50t48.5 21q28 0 47.5 -21t19.5 -50t-19.5 -50t-47.5 -21z" />
    <glyph glyph-name="igrave" unicode="&#xec;" horiz-adv-x="257" 
d="M117 534l-175 177h138l99 -177h-62zM63 0v445l131 25v-470h-131z" />
    <glyph glyph-name="iacute" unicode="&#xed;" horiz-adv-x="257" 
d="M74 534l98 177h138l-175 -177h-61zM63 0v445l131 25v-470h-131z" />
    <glyph glyph-name="icircumflex" unicode="&#xee;" horiz-adv-x="257" 
d="M63 0v445l131 25v-470h-131zM240 534l-108 110h-5l-108 -110h-57l130 204h75l129 -204h-56z" />
    <glyph glyph-name="idieresis" unicode="&#xef;" horiz-adv-x="257" 
d="M63 0v445l131 25v-470h-131zM20 547q-28 0 -47.5 21t-19.5 50t19.5 50t47.5 21t47.5 -21t19.5 -50t-19.5 -50t-47.5 -21zM239 547q-29 0 -48.5 21t-19.5 50t19.5 50t48.5 21q28 0 47.5 -21t19.5 -50t-19.5 -50t-47.5 -21z" />
    <glyph glyph-name="eth" unicode="&#xf0;" horiz-adv-x="553" 
d="M355 585q82 -59 119 -142t37 -181q0 -63 -19 -114.5t-51.5 -87.5t-76 -55.5t-91.5 -19.5q-56 0 -100 18.5t-74.5 51t-46.5 76.5t-16 94q0 52 16.5 96.5t45 77.5t67.5 52t84 19q61 0 100 -40q-13 37 -34 69t-51 56l-143 -48v52l88 30q-21 11 -45.5 20t-52.5 15l18 57
q49 -11 92 -27t79 -35l124 40v-52zM282 49q45 0 68.5 45.5t23.5 118.5q0 101 -30 148.5t-75 47.5q-44 0 -67.5 -46t-23.5 -118q0 -91 26.5 -143.5t77.5 -52.5z" />
    <glyph glyph-name="ntilde" unicode="&#xf1;" horiz-adv-x="546" 
d="M357 0v273q0 45 -15 67.5t-56 22.5q-29 0 -53.5 -19t-39.5 -39v-305h-131v445l131 25v-74h5q39 36 78.5 56.5t86.5 20.5q33 0 56.5 -12t39 -32.5t22.5 -49t7 -61.5v-318h-131zM458 686q-7 -76 -31 -108.5t-75 -32.5q-22 0 -43.5 11t-42 24t-38 24t-31.5 11
q-19 0 -28 -14.5t-15 -46.5h-58q9 77 36 109t74 32q22 0 43 -11t40.5 -23.5t36.5 -23.5t31 -11q19 0 30.5 14t17.5 46h53z" />
    <glyph glyph-name="ograve" unicode="&#xf2;" horiz-adv-x="561" 
d="M271 534l-175 177h139l98 -177h-62zM525 236q0 -53 -19 -99t-52.5 -79.5t-80.5 -53t-104 -19.5q-56 0 -99.5 18.5t-73 50.5t-45 75t-15.5 93q0 53 19 99t52.5 79.5t80.5 53t104 19.5q56 0 99.5 -18.5t73 -50.5t45 -75.5t15.5 -92.5zM284 51q45 0 72.5 42.5t27.5 117.5
q0 103 -28.5 149.5t-78.5 46.5q-45 0 -72.5 -42.5t-27.5 -117.5q0 -103 28.5 -149.5t78.5 -46.5z" />
    <glyph glyph-name="oacute" unicode="&#xf3;" horiz-adv-x="561" 
d="M242 534l98 177h138l-175 -177h-61zM525 236q0 -53 -19 -99t-52.5 -79.5t-80.5 -53t-104 -19.5q-56 0 -99.5 18.5t-73 50.5t-45 75t-15.5 93q0 53 19 99t52.5 79.5t80.5 53t104 19.5q56 0 99.5 -18.5t73 -50.5t45 -75.5t15.5 -92.5zM284 51q45 0 72.5 42.5t27.5 117.5
q0 103 -28.5 149.5t-78.5 46.5q-45 0 -72.5 -42.5t-27.5 -117.5q0 -103 28.5 -149.5t78.5 -46.5z" />
    <glyph glyph-name="ocircumflex" unicode="&#xf4;" horiz-adv-x="561" 
d="M525 236q0 -53 -19 -99t-52.5 -79.5t-80.5 -53t-104 -19.5q-56 0 -99.5 18.5t-73 50.5t-45 75t-15.5 93q0 53 19 99t52.5 79.5t80.5 53t104 19.5q56 0 99.5 -18.5t73 -50.5t45 -75.5t15.5 -92.5zM284 51q45 0 72.5 42.5t27.5 117.5q0 103 -28.5 149.5t-78.5 46.5
q-45 0 -72.5 -42.5t-27.5 -117.5q0 -103 28.5 -149.5t78.5 -46.5zM392 534l-108 110h-5l-108 -110h-57l130 204h75l129 -204h-56z" />
    <glyph glyph-name="otilde" unicode="&#xf5;" horiz-adv-x="561" 
d="M525 236q0 -53 -19 -99t-52.5 -79.5t-80.5 -53t-104 -19.5q-56 0 -99.5 18.5t-73 50.5t-45 75t-15.5 93q0 53 19 99t52.5 79.5t80.5 53t104 19.5q56 0 99.5 -18.5t73 -50.5t45 -75.5t15.5 -92.5zM284 51q45 0 72.5 42.5t27.5 117.5q0 103 -28.5 149.5t-78.5 46.5
q-45 0 -72.5 -42.5t-27.5 -117.5q0 -103 28.5 -149.5t78.5 -46.5zM462 686q-7 -76 -31 -108.5t-75 -32.5q-22 0 -43.5 11t-42 24t-38 24t-31.5 11q-19 0 -28 -14.5t-15 -46.5h-58q9 77 36 109t74 32q22 0 43 -11t40.5 -23.5t36.5 -23.5t31 -11q19 0 30.5 14t17.5 46h53z" />
    <glyph glyph-name="odieresis" unicode="&#xf6;" horiz-adv-x="561" 
d="M525 236q0 -53 -19 -99t-52.5 -79.5t-80.5 -53t-104 -19.5q-56 0 -99.5 18.5t-73 50.5t-45 75t-15.5 93q0 53 19 99t52.5 79.5t80.5 53t104 19.5q56 0 99.5 -18.5t73 -50.5t45 -75.5t15.5 -92.5zM284 51q45 0 72.5 42.5t27.5 117.5q0 103 -28.5 149.5t-78.5 46.5
q-45 0 -72.5 -42.5t-27.5 -117.5q0 -103 28.5 -149.5t78.5 -46.5zM170 547q-28 0 -47.5 21t-19.5 50t19.5 50t47.5 21t47.5 -21t19.5 -50t-19.5 -50t-47.5 -21zM389 547q-29 0 -48.5 21t-19.5 50t19.5 50t48.5 21q28 0 47.5 -21t19.5 -50t-19.5 -50t-47.5 -21z" />
    <glyph glyph-name="divide" unicode="&#xf7;" 
d="M303 378q0 -23 -15.5 -38t-37.5 -15q-23 0 -38 15t-15 38q0 22 15 37.5t38 15.5q22 0 37.5 -15.5t15.5 -37.5zM303 92q0 -22 -15.5 -37t-37.5 -15q-23 0 -38 15t-15 37t15 37.5t38 15.5q22 0 37.5 -15.5t15.5 -37.5zM52 204v63h396v-63h-396z" />
    <glyph glyph-name="oslash" unicode="&#xf8;" horiz-adv-x="563" 
d="M58 -111l77 133q-49 32 -74 84t-25 116q0 53 19 99t53 79.5t81 53t104 19.5q50 0 93 -16l78 134l40 -22l-77 -133q49 -32 74.5 -84t25.5 -116q0 -53 -19 -99t-53 -79.5t-81 -53t-104 -19.5q-51 0 -94 16l-78 -134zM342 380q-26 27 -64 27q-45 0 -73 -42.5t-28 -117.5
q0 -77 17 -123zM220 79q25 -28 65 -28q45 0 73 42.5t28 117.5q0 39 -5 70t-13 54z" />
    <glyph glyph-name="ugrave" unicode="&#xf9;" horiz-adv-x="546" 
d="M250 534l-175 177h139l98 -177h-62zM353 0v62h-5q-39 -36 -78.5 -56.5t-86.5 -20.5q-33 0 -56.5 12t-39 32.5t-22.5 49t-7 61.5v318h131v-273q0 -45 15 -67.5t56 -22.5q29 0 53.5 19t39.5 39v305h131v-458h-131z" />
    <glyph glyph-name="uacute" unicode="&#xfa;" horiz-adv-x="546" 
d="M225 534l99 177h137l-174 -177h-62zM353 0v62h-5q-39 -36 -78.5 -56.5t-86.5 -20.5q-33 0 -56.5 12t-39 32.5t-22.5 49t-7 61.5v318h131v-273q0 -45 15 -67.5t56 -22.5q29 0 53.5 19t39.5 39v305h131v-458h-131z" />
    <glyph glyph-name="ucircumflex" unicode="&#xfb;" horiz-adv-x="546" 
d="M353 0v62h-5q-39 -36 -78.5 -56.5t-86.5 -20.5q-33 0 -56.5 12t-39 32.5t-22.5 49t-7 61.5v318h131v-273q0 -45 15 -67.5t56 -22.5q29 0 53.5 19t39.5 39v305h131v-458h-131zM387 534l-108 110h-5l-108 -110h-57l130 204h75l129 -204h-56z" />
    <glyph glyph-name="udieresis" unicode="&#xfc;" horiz-adv-x="546" 
d="M353 0v62h-5q-39 -36 -78.5 -56.5t-86.5 -20.5q-33 0 -56.5 12t-39 32.5t-22.5 49t-7 61.5v318h131v-273q0 -45 15 -67.5t56 -22.5q29 0 53.5 19t39.5 39v305h131v-458h-131zM165 547q-28 0 -47.5 21t-19.5 50t19.5 50t47.5 21t47.5 -21t19.5 -50t-19.5 -50t-47.5 -21z
M384 547q-29 0 -48.5 21t-19.5 50t19.5 50t48.5 21q28 0 47.5 -21t19.5 -50t-19.5 -50t-47.5 -21z" />
    <glyph glyph-name="yacute" unicode="&#xfd;" horiz-adv-x="492" 
d="M231 534l98 177h138l-175 -177h-61zM226 -30l-208 488h143l127 -324l118 324h68l-224 -594q-47 -125 -142 -125q-17 0 -38.5 4t-34.5 12l25 107q15 -20 29 -31t34 -11q23 0 40.5 14t30.5 47z" />
    <glyph glyph-name="thorn" unicode="&#xfe;" horiz-adv-x="559" 
d="M62 -246v917l131 26v-296h3q26 32 64.5 52t80.5 20q43 0 76.5 -17t57 -46.5t36 -70t12.5 -87.5q0 -53 -17 -100t-49 -82.5t-80 -56.5t-109 -21q-17 0 -36.5 2.5t-38.5 8.5v-249h-131zM193 84q17 -14 37 -20.5t37 -6.5q25 0 46 11.5t36.5 32.5t24 50t8.5 64
q0 70 -30.5 112.5t-80.5 42.5q-19 0 -40.5 -11.5t-37.5 -28.5v-246z" />
    <glyph glyph-name="ydieresis" unicode="&#xff;" horiz-adv-x="492" 
d="M226 -30l-208 488h143l127 -324l118 324h68l-224 -594q-47 -125 -142 -125q-17 0 -38.5 4t-34.5 12l25 107q15 -20 29 -31t34 -11q23 0 40.5 14t30.5 47zM156 547q-28 0 -47.5 21t-19.5 50t19.5 50t47.5 21t47.5 -21t19.5 -50t-19.5 -50t-47.5 -21zM375 547
q-29 0 -48.5 21t-19.5 50t19.5 50t48.5 21q28 0 47.5 -21t19.5 -50t-19.5 -50t-47.5 -21z" />
    <glyph glyph-name="Amacron" unicode="&#x100;" horiz-adv-x="613" 
d="M440 0l-60 176h-226l-61 -176h-77l201 564v42l156 35l224 -641h-157zM275 499h-10l-88 -258h181zM154 745v66h305v-66h-305z" />
    <glyph glyph-name="amacron" unicode="&#x101;" horiz-adv-x="495" 
d="M306 0v61h-4q-27 -40 -63 -58t-82 -18q-25 0 -47.5 8.5t-40 24.5t-27.5 38.5t-10 50.5q0 37 16.5 65t47.5 49.5t75 37.5t100 29l35 8q0 54 -19 82.5t-63 28.5q-64 0 -122 -79l-50 73q25 20 48.5 34t48.5 22.5t51.5 12t57.5 3.5q91 0 135 -48.5t44 -154.5v-270h-131z
M306 238l-23 -7q-64 -20 -91.5 -44.5t-27.5 -53.5q0 -28 15 -42t41 -14q24 0 46.5 14.5t39.5 39.5v107zM88 580v66h305v-66h-305z" />
    <glyph glyph-name="Abreve" unicode="&#x102;" horiz-adv-x="613" 
d="M440 0l-60 176h-226l-61 -176h-77l201 564v42l156 35l224 -641h-157zM275 499h-10l-88 -258h181zM468 876q-3 -46 -16.5 -78.5t-35 -53.5t-50 -31t-60.5 -10t-60 10t-49.5 31t-35 53.5t-16.5 78.5h64q8 -52 31.5 -74t65.5 -22q43 0 66 22t32 74h64z" />
    <glyph glyph-name="abreve" unicode="&#x103;" horiz-adv-x="495" 
d="M306 0v61h-4q-27 -40 -63 -58t-82 -18q-25 0 -47.5 8.5t-40 24.5t-27.5 38.5t-10 50.5q0 37 16.5 65t47.5 49.5t75 37.5t100 29l35 8q0 54 -19 82.5t-63 28.5q-64 0 -122 -79l-50 73q25 20 48.5 34t48.5 22.5t51.5 12t57.5 3.5q91 0 135 -48.5t44 -154.5v-270h-131z
M306 238l-23 -7q-64 -20 -91.5 -44.5t-27.5 -53.5q0 -28 15 -42t41 -14q24 0 46.5 14.5t39.5 39.5v107zM406 711q-3 -46 -16.5 -78.5t-35 -53.5t-50 -31t-60.5 -10t-60 10t-49.5 31t-35 53.5t-16.5 78.5h64q8 -52 31.5 -74t65.5 -22q43 0 66 22t32 74h64z" />
    <glyph glyph-name="Aogonek" unicode="&#x104;" horiz-adv-x="613" 
d="M664 -185q-17 -26 -47.5 -43t-78.5 -17q-51 0 -81 27t-30 75q0 38 26 75.5t72 67.5h-85l-60 176h-226l-61 -176h-77l201 564v42l156 35l224 -641q-12 -9 -24.5 -21.5t-23 -27t-17 -30.5t-6.5 -34q0 -26 15 -44t41 -18q20 0 35 8.5t27 21.5zM275 499h-10l-88 -258h181z
" />
    <glyph glyph-name="aogonek" unicode="&#x105;" horiz-adv-x="495" 
d="M505 -186q-17 -26 -47.5 -43t-77.5 -17q-51 0 -81.5 27t-30.5 75q0 38 26 76t74 68h-62v61h-4q-27 -40 -63 -58t-82 -18q-25 0 -47.5 8.5t-40 24.5t-27.5 38.5t-10 50.5q0 37 16.5 65t47.5 49.5t75 37.5t100 29l35 8q0 54 -19 82.5t-63 28.5q-64 0 -122 -79l-50 73
q49 40 96.5 56t109.5 16q91 0 135 -48.5t44 -154.5v-270q-33 -29 -51 -58.5t-18 -57.5q0 -26 15 -43t41 -17q20 0 35 8.5t27 21.5zM306 238l-23 -7q-64 -20 -91.5 -44.5t-27.5 -53.5q0 -28 15 -42t41 -14q24 0 46.5 14.5t39.5 39.5v107z" />
    <glyph glyph-name="Cacute" unicode="&#x106;" horiz-adv-x="660" 
d="M609 51q-47 -34 -103.5 -50t-118.5 -16q-79 0 -143.5 21.5t-110.5 62t-71.5 100t-25.5 136.5q0 73 26 134.5t72.5 106t110.5 69.5t141 25q74 0 132.5 -16.5t109.5 -46.5l-46 -92q-37 38 -82.5 63t-105.5 25q-43 0 -79.5 -16.5t-63.5 -48.5t-42 -79.5t-15 -108.5
q0 -132 58.5 -199.5t154.5 -67.5q43 0 86 13t81 45zM331 699l98 177h138l-175 -177h-61z" />
    <glyph glyph-name="cacute" unicode="&#x107;" horiz-adv-x="491" 
d="M224 534l98 177h138l-175 -177h-61zM441 40q-32 -26 -70 -40.5t-95 -14.5q-54 0 -98.5 17t-76 48.5t-48.5 75.5t-17 97q0 54 17.5 99.5t50 79t77 52.5t98.5 19q58 0 101.5 -14t78.5 -40l-51 -81q-23 31 -49.5 50.5t-66.5 19.5q-29 0 -50.5 -14t-35.5 -38t-21.5 -57.5
t-7.5 -72.5q0 -38 8.5 -69.5t25 -55t41.5 -36.5t58 -13q27 0 53.5 11t47.5 30z" />
    <glyph glyph-name="Ccircumflex" unicode="&#x108;" horiz-adv-x="660" 
d="M609 51q-47 -34 -103.5 -50t-118.5 -16q-79 0 -143.5 21.5t-110.5 62t-71.5 100t-25.5 136.5q0 73 26 134.5t72.5 106t110.5 69.5t141 25q74 0 132.5 -16.5t109.5 -46.5l-46 -92q-37 38 -82.5 63t-105.5 25q-43 0 -79.5 -16.5t-63.5 -48.5t-42 -79.5t-15 -108.5
q0 -132 58.5 -199.5t154.5 -67.5q43 0 86 13t81 45zM494 699l-108 110h-5l-108 -110h-57l130 204h75l129 -204h-56z" />
    <glyph glyph-name="ccircumflex" unicode="&#x109;" horiz-adv-x="491" 
d="M441 40q-32 -26 -70 -40.5t-95 -14.5q-54 0 -98.5 17t-76 48.5t-48.5 75.5t-17 97q0 54 17.5 99.5t50 79t77 52.5t98.5 19q58 0 101.5 -14t78.5 -40l-51 -81q-23 31 -49.5 50.5t-66.5 19.5q-29 0 -50.5 -14t-35.5 -38t-21.5 -57.5t-7.5 -72.5q0 -38 8.5 -69.5t25 -55
t41.5 -36.5t58 -13q27 0 53.5 11t47.5 30zM385 534l-108 110h-5l-108 -110h-57l130 204h75l129 -204h-56z" />
    <glyph glyph-name="Cdotaccent" unicode="&#x10a;" horiz-adv-x="660" 
d="M609 51q-47 -34 -103.5 -50t-118.5 -16q-79 0 -143.5 21.5t-110.5 62t-71.5 100t-25.5 136.5q0 73 26 134.5t72.5 106t110.5 69.5t141 25q74 0 132.5 -16.5t109.5 -46.5l-46 -92q-37 38 -82.5 63t-105.5 25q-43 0 -79.5 -16.5t-63.5 -48.5t-42 -79.5t-15 -108.5
q0 -132 58.5 -199.5t154.5 -67.5q43 0 86 13t81 45zM381 712q-29 0 -48.5 21t-19.5 50t19.5 50t48.5 21q28 0 47.5 -21t19.5 -50t-19.5 -50t-47.5 -21z" />
    <glyph glyph-name="cdotaccent" unicode="&#x10b;" horiz-adv-x="491" 
d="M441 40q-32 -26 -70 -40.5t-95 -14.5q-54 0 -98.5 17t-76 48.5t-48.5 75.5t-17 97q0 54 17.5 99.5t50 79t77 52.5t98.5 19q58 0 101.5 -14t78.5 -40l-51 -81q-23 31 -49.5 50.5t-66.5 19.5q-29 0 -50.5 -14t-35.5 -38t-21.5 -57.5t-7.5 -72.5q0 -38 8.5 -69.5t25 -55
t41.5 -36.5t58 -13q27 0 53.5 11t47.5 30zM279 547q-29 0 -48.5 21t-19.5 50t19.5 50t48.5 21q28 0 47.5 -21t19.5 -50t-19.5 -50t-47.5 -21z" />
    <glyph glyph-name="Ccaron" unicode="&#x10c;" horiz-adv-x="660" 
d="M609 51q-47 -34 -103.5 -50t-118.5 -16q-79 0 -143.5 21.5t-110.5 62t-71.5 100t-25.5 136.5q0 73 26 134.5t72.5 106t110.5 69.5t141 25q74 0 132.5 -16.5t109.5 -46.5l-46 -92q-37 38 -82.5 63t-105.5 25q-43 0 -79.5 -16.5t-63.5 -48.5t-42 -79.5t-15 -108.5
q0 -132 58.5 -199.5t154.5 -67.5q43 0 86 13t81 45zM344 699l-129 204h56l108 -110h5l109 110h56l-130 -204h-75z" />
    <glyph glyph-name="ccaron" unicode="&#x10d;" horiz-adv-x="491" 
d="M441 40q-32 -26 -70 -40.5t-95 -14.5q-54 0 -98.5 17t-76 48.5t-48.5 75.5t-17 97q0 54 17.5 99.5t50 79t77 52.5t98.5 19q58 0 101.5 -14t78.5 -40l-51 -81q-23 31 -49.5 50.5t-66.5 19.5q-29 0 -50.5 -14t-35.5 -38t-21.5 -57.5t-7.5 -72.5q0 -38 8.5 -69.5t25 -55
t41.5 -36.5t58 -13q27 0 53.5 11t47.5 30zM245 534l-129 204h56l108 -110h5l109 110h56l-130 -204h-75z" />
    <glyph glyph-name="Dcaron" unicode="&#x10e;" horiz-adv-x="689" 
d="M72 1v623l205 4q88 2 157.5 -20.5t118 -63.5t74.5 -98.5t26 -126.5q0 -73 -25 -133t-73 -102.5t-118 -65.5t-161 -21zM266 66q58 0 101.5 17.5t71.5 49t42 76.5t14 100q0 58 -14.5 104t-44.5 78.5t-75.5 50t-107.5 17.5h-34v-493h47zM284 699l-129 204h56l108 -110h5
l109 110h56l-130 -204h-75z" />
    <glyph glyph-name="dcaron" unicode="&#x10f;" horiz-adv-x="781" 
d="M571 399q45 30 66 60.5t21 68.5q0 32 -23 54t-65 37q0 15 5.5 29t16 25t26 17.5t34.5 6.5q23 0 42.5 -9t34 -25t22.5 -37.5t8 -45.5q0 -63 -44.5 -117.5t-116.5 -100.5zM366 0v57h-3q-26 -32 -64.5 -52t-81.5 -20q-42 0 -76 17t-57 46.5t-35.5 69.5t-12.5 87
q0 53 17 100.5t49 83t79.5 56.5t108.5 21q38 0 76 -11v216l131 26v-697h-131zM366 374q-17 13 -37.5 20t-36.5 7q-25 0 -46 -12t-36.5 -33t-24 -50t-8.5 -63q0 -71 30 -113t81 -42q18 0 40 11t38 28v247z" />
    <glyph glyph-name="Dcroat" unicode="&#x110;" horiz-adv-x="689" 
d="M72 1v287h-66v51h66v285l205 4q88 1 157.5 -21t118 -63.5t74.5 -98.5t26 -126q0 -73 -25 -133t-73 -102.5t-118 -65.5t-161 -21zM265 66q58 0 101.5 17.5t72 49t42.5 76.5t14 100q0 58 -14.5 104t-44.5 78.5t-76 50t-108 17.5h-33v-220h120v-51h-120v-222h46z" />
    <glyph glyph-name="dcroat" unicode="&#x111;" horiz-adv-x="574" 
d="M366 0v57h-3q-26 -32 -64.5 -52t-81.5 -20q-42 0 -76 17t-57 46.5t-35.5 69.5t-12.5 87q0 53 17 100.5t49 83t79.5 56.5t108.5 21q38 0 76 -11v63h-133v54h133v99l131 26v-125h67v-54h-67v-518h-131zM366 374q-17 13 -37.5 20t-36.5 7q-25 0 -46 -12t-36.5 -33t-24 -50
t-8.5 -63q0 -71 30 -113t81 -42q18 0 40 11t38 28v247z" />
    <glyph glyph-name="Emacron" unicode="&#x112;" horiz-adv-x="552" 
d="M72 0v625h432v-101q-18 7 -37 13t-42.5 9.5t-53.5 5.5t-70 2h-82v-205h201v-67h-201v-211h82q40 0 70 2t53.5 5.5t42.5 9t37 13.5v-101h-432zM140 745v66h305v-66h-305z" />
    <glyph glyph-name="emacron" unicode="&#x113;" horiz-adv-x="514" 
d="M448 39q-31 -26 -71 -40t-100 -14q-54 0 -98.5 16.5t-76 47.5t-49 75t-17.5 99t17.5 101t49 79t75.5 51.5t96 18.5q100 0 152 -54t52 -148q0 -12 -1 -24.5t-3 -26.5h-297q1 -35 11 -66t27.5 -54t42.5 -36.5t57 -13.5t57 11.5t46 29.5zM346 279q0 60 -17.5 94.5
t-59.5 34.5q-34 0 -58 -34.5t-32 -94.5h167zM113 580v66h305v-66h-305z" />
    <glyph glyph-name="Ebreve" unicode="&#x114;" horiz-adv-x="552" 
d="M72 0v625h432v-101q-18 7 -37 13t-42.5 9.5t-53.5 5.5t-70 2h-82v-205h201v-67h-201v-211h82q40 0 70 2t53.5 5.5t42.5 9t37 13.5v-101h-432zM461 876q-3 -46 -16.5 -78.5t-35 -53.5t-50 -31t-60.5 -10t-60 10t-49.5 31t-35 53.5t-16.5 78.5h64q8 -52 31.5 -74t65.5 -22
q43 0 66 22t32 74h64z" />
    <glyph glyph-name="ebreve" unicode="&#x115;" horiz-adv-x="514" 
d="M448 39q-31 -26 -71 -40t-100 -14q-54 0 -98.5 16.5t-76 47.5t-49 75t-17.5 99t17.5 101t49 79t75.5 51.5t96 18.5q100 0 152 -54t52 -148q0 -12 -1 -24.5t-3 -26.5h-297q1 -35 11 -66t27.5 -54t42.5 -36.5t57 -13.5t57 11.5t46 29.5zM346 279q0 60 -17.5 94.5
t-59.5 34.5q-34 0 -58 -34.5t-32 -94.5h167zM432 711q-3 -46 -16.5 -78.5t-35 -53.5t-50 -31t-60.5 -10t-60 10t-49.5 31t-35 53.5t-16.5 78.5h64q8 -52 31.5 -74t65.5 -22q43 0 66 22t32 74h64z" />
    <glyph glyph-name="Edotaccent" unicode="&#x116;" horiz-adv-x="552" 
d="M72 0v625h432v-101q-18 7 -37 13t-42.5 9.5t-53.5 5.5t-70 2h-82v-205h201v-67h-201v-211h82q40 0 70 2t53.5 5.5t42.5 9t37 13.5v-101h-432zM305 712q-29 0 -48.5 21t-19.5 50t19.5 50t48.5 21q28 0 47.5 -21t19.5 -50t-19.5 -50t-47.5 -21z" />
    <glyph glyph-name="edotaccent" unicode="&#x117;" horiz-adv-x="514" 
d="M448 39q-31 -26 -71 -40t-100 -14q-54 0 -98.5 16.5t-76 47.5t-49 75t-17.5 99t17.5 101t49 79t75.5 51.5t96 18.5q100 0 152 -54t52 -148q0 -12 -1 -24.5t-3 -26.5h-297q1 -35 11 -66t27.5 -54t42.5 -36.5t57 -13.5t57 11.5t46 29.5zM346 279q0 60 -17.5 94.5
t-59.5 34.5q-34 0 -58 -34.5t-32 -94.5h167zM268 547q-29 0 -48.5 21t-19.5 50t19.5 50t48.5 21q28 0 47.5 -21t19.5 -50t-19.5 -50t-47.5 -21z" />
    <glyph glyph-name="Eogonek" unicode="&#x118;" horiz-adv-x="552" 
d="M517 -185q-17 -26 -47 -43t-78 -17q-51 0 -81.5 27t-30.5 75q0 38 26 75.5t72 67.5h-306v625h432v-101q-18 7 -37 13t-42.5 9.5t-53.5 5.5t-70 2h-83v-205h202v-67h-202v-211h83q40 0 70 2t53.5 5.5t42.5 9t37 13.5v-101h-54q-34 -27 -52 -57t-18 -58q0 -26 15 -43
t41 -17q20 0 35 8.5t27 21.5z" />
    <glyph glyph-name="eogonek" unicode="&#x119;" horiz-adv-x="514" 
d="M460 -186q-17 -26 -47.5 -43t-77.5 -17q-51 0 -81.5 27t-30.5 75q0 34 22 67.5t60 62.5q-6 -1 -13.5 -1h-14.5q-54 0 -98.5 16.5t-76 47.5t-49 75t-17.5 99t17.5 101t49 79t75.5 51.5t96 18.5q100 0 152 -54t52 -148q0 -12 -1 -24.5t-3 -26.5h-297q1 -35 11 -66t27.5 -54
t42.5 -36.5t57 -13.5t57 11.5t46 29.5l30 -52q-23 -14 -45.5 -31t-40 -36.5t-28.5 -41.5t-11 -46q0 -26 15 -43t41 -17q20 0 35 8.5t27 21.5zM346 279q0 60 -17.5 94.5t-59.5 34.5q-34 0 -58 -34.5t-32 -94.5h167z" />
    <glyph glyph-name="Ecaron" unicode="&#x11a;" horiz-adv-x="552" 
d="M72 0v625h432v-101q-18 7 -37 13t-42.5 9.5t-53.5 5.5t-70 2h-82v-205h201v-67h-201v-211h82q40 0 70 2t53.5 5.5t42.5 9t37 13.5v-101h-432zM255 699l-129 204h56l108 -110h5l109 110h56l-130 -204h-75z" />
    <glyph glyph-name="ecaron" unicode="&#x11b;" horiz-adv-x="514" 
d="M448 39q-31 -26 -71 -40t-100 -14q-54 0 -98.5 16.5t-76 47.5t-49 75t-17.5 99t17.5 101t49 79t75.5 51.5t96 18.5q100 0 152 -54t52 -148q0 -12 -1 -24.5t-3 -26.5h-297q1 -35 11 -66t27.5 -54t42.5 -36.5t57 -13.5t57 11.5t46 29.5zM346 279q0 60 -17.5 94.5
t-59.5 34.5q-34 0 -58 -34.5t-32 -94.5h167zM228 534l-129 204h56l108 -110h5l109 110h56l-130 -204h-75z" />
    <glyph glyph-name="Gcircumflex" unicode="&#x11c;" horiz-adv-x="670" 
d="M465 282h144v-234q-51 -32 -103.5 -47.5t-118.5 -15.5q-78 0 -143 21.5t-111 62t-71.5 100t-25.5 136.5q0 73 26 134.5t72.5 106t110.5 69.5t141 25q66 0 128.5 -16t113.5 -46l-46 -92q-37 38 -82 63t-108 25q-43 0 -79 -17t-62.5 -49.5t-41.5 -80.5t-15 -109
q0 -66 15 -116t42.5 -84t66 -51t84.5 -17q17 0 32.5 1t30.5 4v227zM489 699l-108 110h-5l-108 -110h-57l130 204h75l129 -204h-56z" />
    <glyph glyph-name="gcircumflex" unicode="&#x11d;" horiz-adv-x="540" 
d="M110 -39q-30 12 -47.5 35.5t-17.5 53.5q0 32 22 60.5t62 42.5v5q-35 17 -60.5 50t-25.5 90q0 34 12 65.5t37 56t63 39t90 14.5q34 0 55.5 -5t38.5 -10h195v-67l-114 3v-7q11 -17 16.5 -34.5t5.5 -33.5q0 -86 -55 -134.5t-153 -48.5q-13 0 -25.5 2t-23.5 4
q-11 -5 -18.5 -15t-7.5 -21q0 -22 15 -32.5t48 -10.5t63 1.5t61 1.5q33 0 60.5 -10t48 -29t32 -45.5t11.5 -59.5q0 -42 -19 -77.5t-55 -61t-88.5 -40t-119.5 -14.5q-93 0 -146.5 31.5t-53.5 87.5q0 42 24.5 67.5t69.5 40.5v5zM176 -52q-19 -10 -32 -26t-13 -44
q0 -38 32.5 -60.5t93.5 -22.5q57 0 94.5 23.5t37.5 62.5q0 20 -7.5 32.5t-22.5 21.5q-9 5 -22.5 7.5t-35 4t-52 1.5h-73.5zM242 199q33 0 50.5 24t17.5 78q0 20 -3 39.5t-11 35t-21 25t-32 9.5q-32 0 -50 -24t-18 -78q0 -20 3 -39.5t11 -35t20.5 -25t32.5 -9.5zM362 534
l-108 110h-5l-108 -110h-57l130 204h75l129 -204h-56z" />
    <glyph glyph-name="Gbreve" unicode="&#x11e;" horiz-adv-x="670" 
d="M465 282h144v-234q-51 -32 -103.5 -47.5t-118.5 -15.5q-78 0 -143 21.5t-111 62t-71.5 100t-25.5 136.5q0 73 26 134.5t72.5 106t110.5 69.5t141 25q66 0 128.5 -16t113.5 -46l-46 -92q-37 38 -82 63t-108 25q-43 0 -79 -17t-62.5 -49.5t-41.5 -80.5t-15 -109
q0 -66 15 -116t42.5 -84t66 -51t84.5 -17q17 0 32.5 1t30.5 4v227zM553 876q-3 -46 -16.5 -78.5t-35 -53.5t-50 -31t-60.5 -10t-60 10t-49.5 31t-35 53.5t-16.5 78.5h64q8 -52 31.5 -74t65.5 -22q43 0 66 22t32 74h64z" />
    <glyph glyph-name="gbreve" unicode="&#x11f;" horiz-adv-x="540" 
d="M110 -39q-30 12 -47.5 35.5t-17.5 53.5q0 32 22 60.5t62 42.5v5q-35 17 -60.5 50t-25.5 90q0 34 12 65.5t37 56t63 39t90 14.5q34 0 55.5 -5t38.5 -10h195v-67l-114 3v-7q11 -17 16.5 -34.5t5.5 -33.5q0 -86 -55 -134.5t-153 -48.5q-13 0 -25.5 2t-23.5 4
q-11 -5 -18.5 -15t-7.5 -21q0 -22 15 -32.5t48 -10.5t63 1.5t61 1.5q33 0 60.5 -10t48 -29t32 -45.5t11.5 -59.5q0 -42 -19 -77.5t-55 -61t-88.5 -40t-119.5 -14.5q-93 0 -146.5 31.5t-53.5 87.5q0 42 24.5 67.5t69.5 40.5v5zM176 -52q-19 -10 -32 -26t-13 -44
q0 -38 32.5 -60.5t93.5 -22.5q57 0 94.5 23.5t37.5 62.5q0 20 -7.5 32.5t-22.5 21.5q-9 5 -22.5 7.5t-35 4t-52 1.5h-73.5zM242 199q33 0 50.5 24t17.5 78q0 20 -3 39.5t-11 35t-21 25t-32 9.5q-32 0 -50 -24t-18 -78q0 -20 3 -39.5t11 -35t20.5 -25t32.5 -9.5zM412 711
q-3 -46 -16.5 -78.5t-35 -53.5t-50 -31t-60.5 -10t-60 10t-49.5 31t-35 53.5t-16.5 78.5h64q8 -52 31.5 -74t65.5 -22q43 0 66 22t32 74h64z" />
    <glyph glyph-name="Gdotaccent" unicode="&#x120;" horiz-adv-x="670" 
d="M465 282h144v-234q-51 -32 -103.5 -47.5t-118.5 -15.5q-78 0 -143 21.5t-111 62t-71.5 100t-25.5 136.5q0 73 26 134.5t72.5 106t110.5 69.5t141 25q66 0 128.5 -16t113.5 -46l-46 -92q-37 38 -82 63t-108 25q-43 0 -79 -17t-62.5 -49.5t-41.5 -80.5t-15 -109
q0 -66 15 -116t42.5 -84t66 -51t84.5 -17q17 0 32.5 1t30.5 4v227zM382 712q-29 0 -48.5 21t-19.5 50t19.5 50t48.5 21q28 0 47.5 -21t19.5 -50t-19.5 -50t-47.5 -21z" />
    <glyph glyph-name="gdotaccent" unicode="&#x121;" horiz-adv-x="540" 
d="M110 -39q-30 12 -47.5 35.5t-17.5 53.5q0 32 22 60.5t62 42.5v5q-35 17 -60.5 50t-25.5 90q0 34 12 65.5t37 56t63 39t90 14.5q34 0 55.5 -5t38.5 -10h195v-67l-114 3v-7q11 -17 16.5 -34.5t5.5 -33.5q0 -86 -55 -134.5t-153 -48.5q-13 0 -25.5 2t-23.5 4
q-11 -5 -18.5 -15t-7.5 -21q0 -22 15 -32.5t48 -10.5t63 1.5t61 1.5q33 0 60.5 -10t48 -29t32 -45.5t11.5 -59.5q0 -42 -19 -77.5t-55 -61t-88.5 -40t-119.5 -14.5q-93 0 -146.5 31.5t-53.5 87.5q0 42 24.5 67.5t69.5 40.5v5zM176 -52q-19 -10 -32 -26t-13 -44
q0 -38 32.5 -60.5t93.5 -22.5q57 0 94.5 23.5t37.5 62.5q0 20 -7.5 32.5t-22.5 21.5q-9 5 -22.5 7.5t-35 4t-52 1.5h-73.5zM242 199q33 0 50.5 24t17.5 78q0 20 -3 39.5t-11 35t-21 25t-32 9.5q-32 0 -50 -24t-18 -78q0 -20 3 -39.5t11 -35t20.5 -25t32.5 -9.5zM246 547
q-29 0 -48.5 21t-19.5 50t19.5 50t48.5 21q28 0 47.5 -21t19.5 -50t-19.5 -50t-47.5 -21z" />
    <glyph glyph-name="Gcommaaccent" unicode="&#x122;" horiz-adv-x="670" 
d="M324 -263q30 13 49 32.5t19 48.5q0 26 -20.5 43t-55.5 25q0 25 19.5 44.5t51.5 19.5q39 0 64 -28t25 -67q0 -51 -37.5 -89t-98.5 -64zM465 282h144v-234q-51 -32 -103.5 -47.5t-118.5 -15.5q-78 0 -143 21.5t-111 62t-71.5 100t-25.5 136.5q0 73 26 134.5t72.5 106
t110.5 69.5t141 25q66 0 128.5 -16t113.5 -46l-46 -92q-37 38 -82 63t-108 25q-43 0 -79 -17t-62.5 -49.5t-41.5 -80.5t-15 -109q0 -66 15 -116t42.5 -84t66 -51t84.5 -17q17 0 32.5 1t30.5 4v227z" />
    <glyph glyph-name="gcommaaccent" unicode="&#x123;" horiz-adv-x="540" 
d="M317 740q-30 -13 -49.5 -32.5t-19.5 -48.5q0 -26 20.5 -43t55.5 -25q0 -25 -19 -44.5t-51 -19.5q-39 0 -64 28t-25 67q0 51 37 89t98 64zM110 -39q-30 12 -47.5 35.5t-17.5 53.5q0 32 22 60.5t62 42.5v5q-35 17 -60.5 50t-25.5 90q0 34 12 65.5t37 56t63 39t90 14.5
q34 0 55.5 -5t38.5 -10h195v-67l-114 3v-7q11 -17 16.5 -34.5t5.5 -33.5q0 -86 -55 -134.5t-153 -48.5q-13 0 -25.5 2t-23.5 4q-11 -5 -18.5 -15t-7.5 -21q0 -22 15 -32.5t48 -10.5t63 1.5t61 1.5q33 0 60.5 -10t48 -29t32 -45.5t11.5 -59.5q0 -42 -19 -77.5t-55 -61
t-88.5 -40t-119.5 -14.5q-93 0 -146.5 31.5t-53.5 87.5q0 42 24.5 67.5t69.5 40.5v5zM176 -52q-19 -10 -32 -26t-13 -44q0 -38 32.5 -60.5t93.5 -22.5q57 0 94.5 23.5t37.5 62.5q0 20 -7.5 32.5t-22.5 21.5q-9 5 -22.5 7.5t-35 4t-52 1.5h-73.5zM242 199q33 0 50.5 24
t17.5 78q0 20 -3 39.5t-11 35t-21 25t-32 9.5q-32 0 -50 -24t-18 -78q0 -20 3 -39.5t11 -35t20.5 -25t32.5 -9.5z" />
    <glyph glyph-name="Hcircumflex" unicode="&#x124;" horiz-adv-x="684" 
d="M465 0v283h-246v-283h-147v625h147v-271h246v271h147v-625h-147zM453 699l-108 110h-5l-108 -110h-57l130 204h75l129 -204h-56z" />
    <glyph glyph-name="hcircumflex" unicode="&#x125;" horiz-adv-x="546" 
d="M253 738l-109 109h-4l-109 -109h-55l128 204h76l129 -204h-56zM357 0v273q0 45 -15 67.5t-56 22.5q-14 0 -27.5 -5.5t-25.5 -14t-22.5 -19t-17.5 -20.5v-304h-131v671l131 26v-301h5q40 37 78.5 57t86.5 20q65 0 95 -43.5t30 -109.5v-320h-131z" />
    <glyph glyph-name="Hbar" unicode="&#x126;" horiz-adv-x="714" 
d="M480 0v283h-246v-283h-147v438h-85v56h85v131h147v-131h246v131h147v-131h85v-56h-85v-438h-147zM480 438h-246v-84h246v84z" />
    <glyph glyph-name="hbar" unicode="&#x127;" horiz-adv-x="560" 
d="M371 0v273q0 45 -15 67.5t-56 22.5q-14 0 -27.5 -5.5t-25.5 -14t-22.5 -19t-17.5 -20.5v-304h-131v518h-66v54h66v99l131 26v-125h133v-54h-133v-122h5q40 37 78.5 57t86.5 20q65 0 95 -43.5t30 -109.5v-320h-131z" />
    <glyph glyph-name="Imacron" unicode="&#x12a;" horiz-adv-x="291" 
d="M72 0v625h147v-625h-147zM-7 745v66h305v-66h-305z" />
    <glyph glyph-name="imacron" unicode="&#x12b;" horiz-adv-x="257" 
d="M63 0v445l131 25v-470h-131zM-23 580v66h305v-66h-305z" />
    <glyph glyph-name="Ibreve" unicode="&#x12c;" horiz-adv-x="291" 
d="M72 0v625h147v-625h-147zM307 876q-3 -46 -16.5 -78.5t-35 -53.5t-50 -31t-60.5 -10t-60 10t-49.5 31t-35 53.5t-16.5 78.5h64q8 -52 31.5 -74t65.5 -22q43 0 66 22t32 74h64z" />
    <glyph glyph-name="ibreve" unicode="&#x12d;" horiz-adv-x="257" 
d="M63 0v445l131 25v-470h-131zM291 711q-3 -46 -16.5 -78.5t-35 -53.5t-50 -31t-60.5 -10t-60 10t-49.5 31t-35 53.5t-16.5 78.5h64q8 -52 31.5 -74t65.5 -22q43 0 66 22t32 74h64z" />
    <glyph glyph-name="Iogonek" unicode="&#x12e;" horiz-adv-x="291" 
d="M286 -186q-17 -26 -47.5 -43t-77.5 -17q-51 0 -81.5 27t-30.5 75q0 38 27.5 76t75.5 68h-80v625h147v-625q-41 -33 -55.5 -65t-14.5 -51q0 -26 15 -43t41 -17q20 0 35 8.5t27 21.5z" />
    <glyph glyph-name="iogonek" unicode="&#x12f;" horiz-adv-x="257" 
d="M261 -186q-17 -26 -47.5 -43t-77.5 -17q-51 0 -81.5 27t-30.5 75q0 38 26.5 76t74.5 68h-62v445l131 25v-470q-23 -18 -36.5 -35.5t-21 -32.5t-10 -27.5t-2.5 -20.5q0 -26 15 -43t41 -17q20 0 35 8.5t27 21.5zM128 537q-32 0 -55 23.5t-23 56.5t23 56.5t55 23.5
q33 0 56 -23.5t23 -56.5t-23 -56.5t-56 -23.5z" />
    <glyph glyph-name="Idotaccent" unicode="&#x130;" horiz-adv-x="291" 
d="M72 0v625h147v-625h-147zM146 712q-29 0 -48.5 21t-19.5 50t19.5 50t48.5 21q28 0 47.5 -21t19.5 -50t-19.5 -50t-47.5 -21z" />
    <glyph glyph-name="dotlessi" unicode="&#x131;" horiz-adv-x="257" 
d="M63 0v445l131 25v-470h-131z" />
    <glyph glyph-name="Jcircumflex" unicode="&#x134;" horiz-adv-x="480" 
d="M263 625h147v-390q0 -69 -15.5 -117t-43.5 -77.5t-68 -42.5t-88 -13q-63 0 -109 23t-76 64l68 80l19 -37q18 -34 40 -48.5t50 -14.5q32 0 54 23.5t22 73.5v476zM441 699l-108 110h-5l-108 -110h-57l130 204h75l129 -204h-56z" />
    <glyph glyph-name="jcircumflex" unicode="&#x135;" horiz-adv-x="257" 
d="M63 445l131 25v-456q0 -65 -10.5 -116t-34.5 -86t-62 -54t-93 -19q-8 0 -19 1t-23 3.5t-23 5.5t-18 7l20 92q16 -20 33 -31.5t37 -11.5q29 0 45.5 18t16.5 63v559zM242 534l-108 110h-5l-108 -110h-57l130 204h75l129 -204h-56z" />
    <glyph glyph-name="Kcommaaccent" unicode="&#x136;" horiz-adv-x="641" 
d="M254 -264q30 14 49.5 33.5t19.5 48.5q0 26 -20.5 42.5t-55.5 24.5q0 26 19.5 45.5t51.5 19.5q39 0 63.5 -28t24.5 -67q0 -52 -37 -90t-98 -64zM446 0l-169 282l-58 -57v-225h-147v625h147v-305l302 305h101l-241 -239l244 -386h-179z" />
    <glyph glyph-name="kcommaaccent" unicode="&#x137;" horiz-adv-x="529" 
d="M201 -264q31 14 50 33.5t19 48.5q0 26 -20.5 42.5t-55.5 24.5q0 26 19.5 45.5t51.5 19.5q39 0 63.5 -28t24.5 -67q0 -52 -37 -90t-98 -64zM358 0l-119 220l-46 -39v-181h-131v671l131 26v-438l230 199h90l-174 -152l169 -306h-150z" />
    <glyph glyph-name="Lacute" unicode="&#x139;" horiz-adv-x="526" 
d="M72 0v625h147v-554h78q40 0 70 2t53.5 5.5t42.5 9t37 13.5v-101h-428zM103 699l98 177h138l-175 -177h-61z" />
    <glyph glyph-name="lacute" unicode="&#x13a;" horiz-adv-x="255" 
d="M82 746l98 177h138l-175 -177h-61zM62 0v671l131 26v-697h-131z" />
    <glyph glyph-name="Lcommaaccent" unicode="&#x13b;" horiz-adv-x="526" 
d="M232 -264q31 14 50 33.5t19 48.5q0 26 -20.5 42.5t-55.5 24.5q0 26 19.5 45.5t51.5 19.5q39 0 63.5 -28t24.5 -67q0 -52 -37 -90t-98 -64zM72 0v625h147v-554h78q40 0 70 2t53.5 5.5t42.5 9t37 13.5v-101h-428z" />
    <glyph glyph-name="lcommaaccent" unicode="&#x13c;" horiz-adv-x="255" 
d="M60 -264q30 14 49.5 33.5t19.5 48.5q0 26 -20.5 42.5t-55.5 24.5q0 26 19 45.5t51 19.5q39 0 64 -28t25 -67q0 -52 -37 -90t-98 -64zM62 0v671l131 26v-697h-131z" />
    <glyph glyph-name="Lcaron" unicode="&#x13d;" horiz-adv-x="666" 
d="M452 361q45 30 66 60.5t21 68.5q0 32 -23 54t-65 37q0 15 5.5 29t16 25t26 17.5t34.5 6.5q23 0 42.5 -9t34 -25t22.5 -37.5t8 -45.5q0 -63 -44.5 -117.5t-116.5 -100.5zM72 0v625h147v-554h78q40 0 70 2t53.5 5.5t42.5 9t37 13.5v-101h-428z" />
    <glyph glyph-name="lcaron" unicode="&#x13e;" horiz-adv-x="485" 
d="M274 399q45 30 66.5 60.5t21.5 68.5q0 32 -23.5 54t-65.5 37q0 15 5.5 29t16 25t26 17.5t34.5 6.5q23 0 42.5 -9t34 -25t22.5 -37.5t8 -45.5q0 -63 -44.5 -117.5t-116.5 -100.5zM62 0v671l131 26v-697h-131z" />
    <glyph glyph-name="Ldot" unicode="&#x13f;" horiz-adv-x="649" 
d="M624 298q0 -33 -23.5 -57t-57.5 -24t-57.5 23.5t-23.5 57.5t23.5 58t57.5 24t57.5 -24t23.5 -58zM72 0v625h147v-554h78q40 0 70 2t53.5 5.5t42.5 9t37 13.5v-101h-428z" />
    <glyph glyph-name="ldot" unicode="&#x140;" horiz-adv-x="455" 
d="M431 312q0 -33 -23.5 -57t-57.5 -24t-57.5 23.5t-23.5 57.5t23.5 58t57.5 24t57.5 -24t23.5 -58zM62 0v671l131 26v-697h-131z" />
    <glyph glyph-name="Lslash" unicode="&#x141;" horiz-adv-x="539" 
d="M85 0v200l-72 -19v52l72 19v373h147v-333l91 25v-52l-91 -25v-169h78q40 0 70 2t53.5 5.5t42.5 9t37 13.5v-101h-428z" />
    <glyph glyph-name="lslash" unicode="&#x142;" horiz-adv-x="306" 
d="M87 0v202l-79 -21v52l79 21v417l131 26v-407l80 22v-52l-80 -22v-238h-131z" />
    <glyph glyph-name="Nacute" unicode="&#x143;" horiz-adv-x="669" 
d="M467 -6l-316 469h-6v-463h-73v617l143 13l304 -451h6v446h72v-618zM319 699l98 177h138l-175 -177h-61z" />
    <glyph glyph-name="nacute" unicode="&#x144;" horiz-adv-x="546" 
d="M236 534l98 177h138l-175 -177h-61zM357 0v273q0 45 -15 67.5t-56 22.5q-29 0 -53.5 -19t-39.5 -39v-305h-131v445l131 25v-74h5q39 36 78.5 56.5t86.5 20.5q33 0 56.5 -12t39 -32.5t22.5 -49t7 -61.5v-318h-131z" />
    <glyph glyph-name="Ncommaaccent" unicode="&#x145;" horiz-adv-x="669" 
d="M249 -264q30 14 49.5 33.5t19.5 48.5q0 26 -20.5 42.5t-55.5 24.5q0 26 19 45.5t51 19.5q39 0 64 -28t25 -67q0 -52 -37.5 -90t-98.5 -64zM467 -6l-316 469h-6v-463h-73v617l143 13l304 -451h6v446h72v-618z" />
    <glyph glyph-name="ncommaaccent" unicode="&#x146;" horiz-adv-x="546" 
d="M212 -263q31 13 50 32.5t19 48.5q0 26 -20.5 43t-55.5 25q0 25 19.5 44.5t51.5 19.5q39 0 63.5 -28t24.5 -67q0 -51 -37 -89t-98 -64zM357 0v273q0 45 -15 67.5t-56 22.5q-29 0 -53.5 -19t-39.5 -39v-305h-131v445l131 25v-74h5q39 36 78.5 56.5t86.5 20.5q33 0 56.5 -12
t39 -32.5t22.5 -49t7 -61.5v-318h-131z" />
    <glyph glyph-name="Ncaron" unicode="&#x147;" horiz-adv-x="669" 
d="M467 -6l-316 469h-6v-463h-73v617l143 13l304 -451h6v446h72v-618zM324 699l-129 204h56l108 -110h5l109 110h56l-130 -204h-75z" />
    <glyph glyph-name="ncaron" unicode="&#x148;" horiz-adv-x="546" 
d="M357 0v273q0 45 -15 67.5t-56 22.5q-29 0 -53.5 -19t-39.5 -39v-305h-131v445l131 25v-74h5q39 36 78.5 56.5t86.5 20.5q33 0 56.5 -12t39 -32.5t22.5 -49t7 -61.5v-318h-131zM242 534l-129 204h56l108 -110h5l109 110h56l-130 -204h-75z" />
    <glyph glyph-name="Omacron" unicode="&#x14c;" horiz-adv-x="749" 
d="M713 317q0 -74 -27.5 -135.5t-74 -105t-108.5 -67.5t-132 -24q-77 0 -139 23t-105.5 65.5t-67 101.5t-23.5 131q0 74 27 135.5t73.5 105.5t108.5 68.5t132 24.5q77 0 139.5 -23.5t106 -66t67 -102t23.5 -131.5zM378 51q37 0 69.5 15.5t56.5 47t37.5 79t13.5 112.5
q0 67 -14.5 117t-39 83.5t-58 50.5t-72.5 17q-38 0 -70 -15.5t-56 -47t-37.5 -79.5t-13.5 -113q0 -67 14.5 -117t39.5 -83.5t58.5 -50t71.5 -16.5zM222 745v66h305v-66h-305z" />
    <glyph glyph-name="omacron" unicode="&#x14d;" horiz-adv-x="561" 
d="M525 236q0 -53 -19 -99t-52.5 -79.5t-80.5 -53t-104 -19.5q-56 0 -99.5 18.5t-73 50.5t-45 75t-15.5 93q0 53 19 99t52.5 79.5t80.5 53t104 19.5q56 0 99.5 -18.5t73 -50.5t45 -75.5t15.5 -92.5zM284 51q45 0 72.5 42.5t27.5 117.5q0 103 -28.5 149.5t-78.5 46.5
q-45 0 -72.5 -42.5t-27.5 -117.5q0 -103 28.5 -149.5t78.5 -46.5zM130 580v66h305v-66h-305z" />
    <glyph glyph-name="Obreve" unicode="&#x14e;" horiz-adv-x="749" 
d="M713 317q0 -74 -27.5 -135.5t-74 -105t-108.5 -67.5t-132 -24q-77 0 -139 23t-105.5 65.5t-67 101.5t-23.5 131q0 74 27 135.5t73.5 105.5t108.5 68.5t132 24.5q77 0 139.5 -23.5t106 -66t67 -102t23.5 -131.5zM378 51q37 0 69.5 15.5t56.5 47t37.5 79t13.5 112.5
q0 67 -14.5 117t-39 83.5t-58 50.5t-72.5 17q-38 0 -70 -15.5t-56 -47t-37.5 -79.5t-13.5 -113q0 -67 14.5 -117t39.5 -83.5t58.5 -50t71.5 -16.5zM536 876q-3 -46 -16.5 -78.5t-35 -53.5t-50 -31t-60.5 -10t-60 10t-49.5 31t-35 53.5t-16.5 78.5h64q8 -52 31.5 -74
t65.5 -22q43 0 66 22t32 74h64z" />
    <glyph glyph-name="obreve" unicode="&#x14f;" horiz-adv-x="561" 
d="M525 236q0 -53 -19 -99t-52.5 -79.5t-80.5 -53t-104 -19.5q-56 0 -99.5 18.5t-73 50.5t-45 75t-15.5 93q0 53 19 99t52.5 79.5t80.5 53t104 19.5q56 0 99.5 -18.5t73 -50.5t45 -75.5t15.5 -92.5zM284 51q45 0 72.5 42.5t27.5 117.5q0 103 -28.5 149.5t-78.5 46.5
q-45 0 -72.5 -42.5t-27.5 -117.5q0 -103 28.5 -149.5t78.5 -46.5zM444 711q-3 -46 -16.5 -78.5t-35 -53.5t-50 -31t-60.5 -10t-60 10t-49.5 31t-35 53.5t-16.5 78.5h64q8 -52 31.5 -74t65.5 -22q43 0 66 22t32 74h64z" />
    <glyph glyph-name="Ohungarumlaut" unicode="&#x150;" horiz-adv-x="749" 
d="M444 699l96 177h133l-172 -177h-57zM258 699l96 177h133l-173 -177h-56zM713 317q0 -74 -27.5 -135.5t-74 -105t-108.5 -67.5t-132 -24q-77 0 -139 23t-105.5 65.5t-67 101.5t-23.5 131q0 74 27 135.5t73.5 105.5t108.5 68.5t132 24.5q77 0 139.5 -23.5t106 -66t67 -102
t23.5 -131.5zM378 51q37 0 69.5 15.5t56.5 47t37.5 79t13.5 112.5q0 67 -14.5 117t-39 83.5t-58 50.5t-72.5 17q-38 0 -70 -15.5t-56 -47t-37.5 -79.5t-13.5 -113q0 -67 14.5 -117t39.5 -83.5t58.5 -50t71.5 -16.5z" />
    <glyph glyph-name="ohungarumlaut" unicode="&#x151;" horiz-adv-x="561" 
d="M343 534l97 177h132l-172 -177h-57zM157 534l96 177h133l-172 -177h-57zM525 236q0 -53 -19 -99t-52.5 -79.5t-80.5 -53t-104 -19.5q-56 0 -99.5 18.5t-73 50.5t-45 75t-15.5 93q0 53 19 99t52.5 79.5t80.5 53t104 19.5q56 0 99.5 -18.5t73 -50.5t45 -75.5t15.5 -92.5z
M284 51q45 0 72.5 42.5t27.5 117.5q0 103 -28.5 149.5t-78.5 46.5q-45 0 -72.5 -42.5t-27.5 -117.5q0 -103 28.5 -149.5t78.5 -46.5z" />
    <glyph glyph-name="OE" unicode="&#x152;" horiz-adv-x="950" 
d="M470 559h-63q-49 0 -88.5 -17.5t-67 -49.5t-42.5 -77.5t-15 -101.5q0 -57 15.5 -102.5t45 -77.5t71 -49.5t93.5 -17.5h51v493zM379 0q-66 0 -128 19.5t-110 58t-76.5 96t-28.5 133.5q0 77 26.5 136.5t74.5 100t115.5 61t150.5 20.5h499v-102q-18 8 -37 14t-42.5 9.5
t-53.5 5.5t-70 2h-82v-205h201v-68h-201v-211h82q40 0 70 2t53.5 5.5t42.5 9.5t37 14v-101h-523z" />
    <glyph glyph-name="oe" unicode="&#x153;" horiz-adv-x="860" 
d="M794 39q-31 -26 -71 -40t-100 -14q-56 0 -100 17.5t-76 49.5q-33 -32 -78 -49.5t-100 -17.5q-56 0 -99.5 18.5t-73 50.5t-45 75t-15.5 93q0 53 19 99t52.5 79.5t80.5 53t104 19.5q54 0 95 -17t70 -46q31 30 72 46.5t91 16.5q100 0 152 -54t52 -148q0 -12 -1 -24.5
t-3 -26.5h-297q1 -35 11 -66t27.5 -54t42.5 -36.5t57 -13.5t57 11.5t46 29.5zM284 51q45 0 72.5 42.5t27.5 117.5q0 103 -28.5 149.5t-78.5 46.5q-45 0 -72.5 -42.5t-27.5 -117.5q0 -103 28.5 -149.5t78.5 -46.5zM692 279q0 60 -17.5 94.5t-59.5 34.5q-34 0 -58 -34.5
t-32 -94.5h167z" />
    <glyph glyph-name="Racute" unicode="&#x154;" horiz-adv-x="613" 
d="M425 0l-144 258l-62 3v-261h-147v624l241 4q126 2 186 -43.5t60 -121.5q0 -58 -35.5 -105t-98.5 -67l172 -291h-172zM219 559v-229q11 -2 28.5 -3t31.5 -1q55 0 88.5 31t33.5 84q0 56 -33 87t-101 31h-48zM246 699l98 177h138l-175 -177h-61z" />
    <glyph glyph-name="racute" unicode="&#x155;" horiz-adv-x="398" 
d="M180 534l99 177h138l-175 -177h-62zM62 0v445l131 26v-89h4q20 48 51 69.5t69 21.5q35 0 65 -16l-22 -110q-14 16 -29 23.5t-37 7.5q-35 0 -62.5 -36.5t-38.5 -107.5v-234h-131z" />
    <glyph glyph-name="Rcommaaccent" unicode="&#x156;" horiz-adv-x="613" 
d="M243 -264q31 14 50 33.5t19 48.5q0 26 -20.5 42.5t-55.5 24.5q0 26 19.5 45.5t51.5 19.5q39 0 63.5 -28t24.5 -67q0 -52 -37 -90t-98 -64zM425 0l-144 258l-62 3v-261h-147v624l241 4q126 2 186 -43.5t60 -121.5q0 -58 -35.5 -105t-98.5 -67l172 -291h-172zM219 559v-229
q11 -2 28.5 -3t31.5 -1q55 0 88.5 31t33.5 84q0 56 -33 87t-101 31h-48z" />
    <glyph glyph-name="rcommaaccent" unicode="&#x157;" horiz-adv-x="398" 
d="M65 -264q30 14 49 33.5t19 48.5q0 26 -20.5 42.5t-55.5 24.5q0 26 19.5 45.5t51.5 19.5q39 0 64 -28t25 -67q0 -52 -37.5 -90t-98.5 -64zM62 0v445l131 26v-89h4q20 48 51 69.5t69 21.5q35 0 65 -16l-22 -110q-14 16 -29 23.5t-37 7.5q-35 0 -62.5 -36.5t-38.5 -107.5
v-234h-131z" />
    <glyph glyph-name="Rcaron" unicode="&#x158;" horiz-adv-x="613" 
d="M425 0l-144 258l-62 3v-261h-147v624l241 4q126 2 186 -43.5t60 -121.5q0 -58 -35.5 -105t-98.5 -67l172 -291h-172zM219 559v-229q11 -2 28.5 -3t31.5 -1q55 0 88.5 31t33.5 84q0 56 -33 87t-101 31h-48zM254 699l-129 204h56l108 -110h5l109 110h56l-130 -204h-75z" />
    <glyph glyph-name="rcaron" unicode="&#x159;" horiz-adv-x="398" 
d="M62 0v445l131 26v-89h4q20 48 51 69.5t69 21.5q35 0 65 -16l-22 -110q-14 16 -29 23.5t-37 7.5q-35 0 -62.5 -36.5t-38.5 -107.5v-234h-131zM179 534l-129 204h56l108 -110h5l109 110h56l-130 -204h-75z" />
    <glyph glyph-name="Sacute" unicode="&#x15a;" horiz-adv-x="568" 
d="M86 129q49 -44 90.5 -61.5t88.5 -17.5q67 0 98 28.5t31 64.5q0 21 -8.5 37t-26.5 29t-46.5 24.5t-67.5 23.5q-47 14 -84 31t-62 39t-38 51t-13 68t15.5 74t46 62t75.5 42.5t104 15.5q58 0 111.5 -11.5t94.5 -28.5l-33 -98l-24 19q-32 25 -70.5 40t-86.5 15
q-53 0 -82.5 -24t-29.5 -58q0 -40 33.5 -61.5t102.5 -42.5q55 -17 96 -35.5t67 -42t39 -53.5t13 -70q0 -41 -17 -78t-50 -65t-82 -44.5t-113 -16.5q-54 0 -108.5 13.5t-97.5 33.5zM234 699l98 177h138l-175 -177h-61z" />
    <glyph glyph-name="sacute" unicode="&#x15b;" horiz-adv-x="446" 
d="M173 534l99 177h138l-175 -177h-62zM69 114q25 -29 57.5 -46.5t75.5 -17.5q89 0 89 51q0 21 -16.5 36t-65.5 32q-39 13 -71 27t-54.5 32.5t-35 43t-12.5 57.5q0 63 49 103.5t140 40.5q48 0 91.5 -10t82.5 -29l-36 -86q-25 26 -59 43t-68 17q-40 0 -60 -12.5t-20 -33.5
q0 -20 15 -33.5t63 -29.5q88 -29 132 -63.5t44 -96.5q0 -32 -13 -60t-38.5 -49t-65 -33t-91.5 -12q-51 0 -90.5 11t-77.5 31z" />
    <glyph glyph-name="Scircumflex" unicode="&#x15c;" horiz-adv-x="568" 
d="M86 129q49 -44 90.5 -61.5t88.5 -17.5q67 0 98 28.5t31 64.5q0 21 -8.5 37t-26.5 29t-46.5 24.5t-67.5 23.5q-47 14 -84 31t-62 39t-38 51t-13 68t15.5 74t46 62t75.5 42.5t104 15.5q58 0 111.5 -11.5t94.5 -28.5l-33 -98l-24 19q-32 25 -70.5 40t-86.5 15
q-53 0 -82.5 -24t-29.5 -58q0 -40 33.5 -61.5t102.5 -42.5q55 -17 96 -35.5t67 -42t39 -53.5t13 -70q0 -41 -17 -78t-50 -65t-82 -44.5t-113 -16.5q-54 0 -108.5 13.5t-97.5 33.5zM395 699l-108 110h-5l-108 -110h-57l130 204h75l129 -204h-56z" />
    <glyph glyph-name="scircumflex" unicode="&#x15d;" horiz-adv-x="446" 
d="M69 114q25 -29 57.5 -46.5t75.5 -17.5q89 0 89 51q0 21 -16.5 36t-65.5 32q-39 13 -71 27t-54.5 32.5t-35 43t-12.5 57.5q0 63 49 103.5t140 40.5q48 0 91.5 -10t82.5 -29l-36 -86q-25 26 -59 43t-68 17q-40 0 -60 -12.5t-20 -33.5q0 -20 15 -33.5t63 -29.5
q88 -29 132 -63.5t44 -96.5q0 -32 -13 -60t-38.5 -49t-65 -33t-91.5 -12q-51 0 -90.5 11t-77.5 31zM334 534l-108 110h-5l-108 -110h-57l130 204h75l129 -204h-56z" />
    <glyph glyph-name="Scedilla" unicode="&#x15e;" horiz-adv-x="568" 
d="M176 -228q76 0 110.5 16.5t34.5 43.5q0 19 -20 30t-60 11q-19 0 -36 -1t-36 -5v37l79 81q-52 2 -103.5 15t-92.5 32l34 97q49 -44 90.5 -61.5t88.5 -17.5q67 0 98 28.5t31 64.5q0 21 -8.5 37t-26.5 29t-46.5 24.5t-67.5 23.5q-47 14 -84 31t-62 39t-38 51t-13 68t15.5 74
t46 62t75.5 42.5t104 15.5q58 0 111.5 -11.5t94.5 -28.5l-33 -98l-24 19q-32 25 -70.5 40t-86.5 15q-53 0 -82.5 -24t-29.5 -58q0 -40 33.5 -61.5t102.5 -42.5q55 -17 96 -35.5t67 -42t39 -53.5t13 -70q0 -36 -13 -69.5t-39 -60t-64.5 -45t-88.5 -25.5l-45 -46
q66 0 105 -25.5t39 -69.5q0 -57 -63 -92t-175 -35v51z" />
    <glyph glyph-name="scedilla" unicode="&#x15f;" horiz-adv-x="446" 
d="M109 -228q76 0 110.5 16.5t34.5 43.5q0 19 -20 30t-60 11q-19 0 -36 -1t-36 -5v37l79 82q-44 2 -79 12.5t-68 28.5l35 87q25 -29 57.5 -46.5t75.5 -17.5q89 0 89 51q0 21 -16.5 36t-65.5 32q-39 13 -71 27t-54.5 32.5t-35 43t-12.5 57.5q0 63 49 103.5t140 40.5
q48 0 91.5 -10t82.5 -29l-36 -86q-25 26 -59 43t-68 17q-40 0 -60 -12.5t-20 -33.5q0 -20 15 -33.5t63 -29.5q88 -29 132 -63.5t44 -96.5q0 -57 -40.5 -99.5t-122.5 -51.5l-44 -45q66 0 105 -25.5t39 -69.5q0 -57 -63 -92t-175 -35v51z" />
    <glyph glyph-name="Scaron" unicode="&#x160;" horiz-adv-x="568" 
d="M86 129q49 -44 90.5 -61.5t88.5 -17.5q67 0 98 28.5t31 64.5q0 21 -8.5 37t-26.5 29t-46.5 24.5t-67.5 23.5q-47 14 -84 31t-62 39t-38 51t-13 68t15.5 74t46 62t75.5 42.5t104 15.5q58 0 111.5 -11.5t94.5 -28.5l-33 -98l-24 19q-32 25 -70.5 40t-86.5 15
q-53 0 -82.5 -24t-29.5 -58q0 -40 33.5 -61.5t102.5 -42.5q55 -17 96 -35.5t67 -42t39 -53.5t13 -70q0 -41 -17 -78t-50 -65t-82 -44.5t-113 -16.5q-54 0 -108.5 13.5t-97.5 33.5zM252 699l-129 204h56l108 -110h5l109 110h56l-130 -204h-75z" />
    <glyph glyph-name="scaron" unicode="&#x161;" horiz-adv-x="446" 
d="M69 114q25 -29 57.5 -46.5t75.5 -17.5q89 0 89 51q0 21 -16.5 36t-65.5 32q-39 13 -71 27t-54.5 32.5t-35 43t-12.5 57.5q0 63 49 103.5t140 40.5q48 0 91.5 -10t82.5 -29l-36 -86q-25 26 -59 43t-68 17q-40 0 -60 -12.5t-20 -33.5q0 -20 15 -33.5t63 -29.5
q88 -29 132 -63.5t44 -96.5q0 -32 -13 -60t-38.5 -49t-65 -33t-91.5 -12q-51 0 -90.5 11t-77.5 31zM186 534l-129 204h56l108 -110h5l109 110h56l-130 -204h-75z" />
    <glyph glyph-name="Tcommaaccent" unicode="&#x162;" horiz-adv-x="599" 
d="M234 -263q30 13 49 32.5t19 48.5q0 26 -20 43t-55 25q0 25 19 44.5t51 19.5q39 0 64 -28t25 -67q0 -51 -37.5 -89t-98.5 -64zM227 0v555q-39 -1 -68 -3.5t-52 -6t-42.5 -9.5t-38.5 -13v102h547v-102q-19 7 -38 13t-42.5 9.5t-52 6t-66.5 3.5v-555h-147z" />
    <glyph glyph-name="tcommaaccent" unicode="&#x163;" horiz-adv-x="380" 
d="M148 -264q30 14 49.5 33.5t19.5 48.5q0 26 -20.5 42.5t-55.5 24.5q0 26 19 45.5t51 19.5q39 0 64 -28t25 -67q0 -52 -37 -90t-98 -64zM370 41q-27 -29 -62.5 -42.5t-76.5 -13.5q-63 0 -103 37.5t-40 109.5v259h-72v67h72v131l131 26v-157h136v-67h-136v-266
q0 -31 14 -47.5t36 -16.5q36 0 70 38z" />
    <glyph glyph-name="Tcaron" unicode="&#x164;" horiz-adv-x="599" 
d="M227 0v555q-39 -1 -68 -3.5t-52 -6t-42.5 -9.5t-38.5 -13v102h547v-102q-19 7 -38 13t-42.5 9.5t-52 6t-66.5 3.5v-555h-147zM261 699l-129 204h56l108 -110h5l109 110h56l-130 -204h-75z" />
    <glyph glyph-name="tcaron" unicode="&#x165;" horiz-adv-x="456" 
d="M309 524q35 22 53.5 42t18.5 53q0 27 -18 44.5t-53 29.5q0 24 18.5 44t50.5 20q19 0 35 -7.5t28 -20.5t18.5 -30.5t6.5 -36.5q0 -52 -36.5 -96t-97.5 -76zM370 41q-27 -29 -62.5 -42.5t-76.5 -13.5q-63 0 -103 37.5t-40 109.5v259h-72v67h72v131l131 26v-157h136v-67
h-136v-266q0 -31 14 -47.5t36 -16.5q36 0 70 38z" />
    <glyph glyph-name="Umacron" unicode="&#x16a;" horiz-adv-x="658" 
d="M516 625h72v-400q0 -58 -19 -103t-53.5 -75.5t-82 -46t-104.5 -15.5t-104.5 15.5t-82 46t-53.5 76t-19 105.5v397h147v-372q0 -89 38 -136t112 -47q75 0 112 48t37 129v378zM198 745v66h305v-66h-305z" />
    <glyph glyph-name="umacron" unicode="&#x16b;" horiz-adv-x="546" 
d="M353 0v62h-5q-39 -36 -78.5 -56.5t-86.5 -20.5q-33 0 -56.5 12t-39 32.5t-22.5 49t-7 61.5v318h131v-273q0 -45 15 -67.5t56 -22.5q29 0 53.5 19t39.5 39v305h131v-458h-131zM122 580v66h305v-66h-305z" />
    <glyph glyph-name="Ubreve" unicode="&#x16c;" horiz-adv-x="658" 
d="M516 625h72v-400q0 -58 -19 -103t-53.5 -75.5t-82 -46t-104.5 -15.5t-104.5 15.5t-82 46t-53.5 76t-19 105.5v397h147v-372q0 -89 38 -136t112 -47q75 0 112 48t37 129v378zM508 876q-3 -46 -16.5 -78.5t-35 -53.5t-50 -31t-60.5 -10t-60 10t-49.5 31t-35 53.5
t-16.5 78.5h64q8 -52 31.5 -74t65.5 -22q43 0 66 22t32 74h64z" />
    <glyph glyph-name="ubreve" unicode="&#x16d;" horiz-adv-x="546" 
d="M353 0v62h-5q-39 -36 -78.5 -56.5t-86.5 -20.5q-33 0 -56.5 12t-39 32.5t-22.5 49t-7 61.5v318h131v-273q0 -45 15 -67.5t56 -22.5q29 0 53.5 19t39.5 39v305h131v-458h-131zM436 711q-3 -46 -16.5 -78.5t-35 -53.5t-50 -31t-60.5 -10t-60 10t-49.5 31t-35 53.5
t-16.5 78.5h64q8 -52 31.5 -74t65.5 -22q43 0 66 22t32 74h64z" />
    <glyph glyph-name="Uring" unicode="&#x16e;" horiz-adv-x="658" 
d="M516 625h72v-400q0 -58 -19 -103t-53.5 -75.5t-82 -46t-104.5 -15.5t-104.5 15.5t-82 46t-53.5 76t-19 105.5v397h147v-372q0 -89 38 -136t112 -47q75 0 112 48t37 129v378zM358 687q-26 0 -46.5 9t-35 24.5t-22.5 36.5t-8 44t8 43.5t22.5 36t35 24.5t46.5 9
q53 0 83 -33.5t30 -79.5q0 -23 -8 -44t-22.5 -36.5t-35.5 -24.5t-47 -9zM358 736q29 0 45.5 20t16.5 45q0 24 -16.5 44t-45.5 20t-45.5 -20t-16.5 -44q0 -25 16.5 -45t45.5 -20z" />
    <glyph glyph-name="uring" unicode="&#x16f;" horiz-adv-x="546" 
d="M353 0v62h-5q-39 -36 -78.5 -56.5t-86.5 -20.5q-33 0 -56.5 12t-39 32.5t-22.5 49t-7 61.5v318h131v-273q0 -45 15 -67.5t56 -22.5q29 0 53.5 19t39.5 39v305h131v-458h-131zM271 522q-26 0 -46.5 9t-35 24.5t-22.5 36.5t-8 44t8 43.5t22.5 36t35 24.5t46.5 9
q53 0 83 -33.5t30 -79.5q0 -23 -8 -44t-22.5 -36.5t-35.5 -24.5t-47 -9zM271 571q29 0 45.5 20t16.5 45q0 24 -16.5 44t-45.5 20t-45.5 -20t-16.5 -44q0 -25 16.5 -45t45.5 -20z" />
    <glyph glyph-name="Uhungarumlaut" unicode="&#x170;" horiz-adv-x="658" 
d="M516 625h72v-400q0 -58 -19 -103t-53.5 -75.5t-82 -46t-104.5 -15.5t-104.5 15.5t-82 46t-53.5 76t-19 105.5v397h147v-372q0 -89 38 -136t112 -47q75 0 112 48t37 129v378zM400 699l96 177h133l-172 -177h-57zM214 699l96 177h133l-173 -177h-56z" />
    <glyph glyph-name="uhungarumlaut" unicode="&#x171;" horiz-adv-x="546" 
d="M327 534l96 177h133l-173 -177h-56zM141 534l96 177h133l-173 -177h-56zM353 0v62h-5q-39 -36 -78.5 -56.5t-86.5 -20.5q-33 0 -56.5 12t-39 32.5t-22.5 49t-7 61.5v318h131v-273q0 -45 15 -67.5t56 -22.5q29 0 53.5 19t39.5 39v305h131v-458h-131z" />
    <glyph glyph-name="Uogonek" unicode="&#x172;" horiz-adv-x="658" 
d="M517 -186q-17 -26 -47.5 -43t-77.5 -17q-51 0 -81.5 27t-30.5 75q0 34 22 68t61 63q-8 -1 -17 -1.5t-17 -0.5q-57 0 -104.5 15.5t-82 46t-53.5 76t-19 105.5v397h147v-372q0 -89 38 -136t112 -47q75 0 112 48t37 129v378h72v-400q0 -74 -30 -125.5t-82 -80.5
q-46 -29 -71 -66t-25 -69q0 -26 15 -43t41 -17q20 0 35 8.5t27 21.5z" />
    <glyph glyph-name="uogonek" unicode="&#x173;" horiz-adv-x="546" 
d="M552 -186q-17 -26 -47.5 -43t-77.5 -17q-51 0 -81.5 27t-30.5 75q0 38 26 76t74 68h-62v62h-5q-39 -36 -78.5 -56.5t-86.5 -20.5q-33 0 -56.5 12t-39 32.5t-22.5 49t-7 61.5v318h131v-273q0 -45 15 -67.5t56 -22.5q29 0 53.5 19t39.5 39v305h131v-458q-35 -30 -52 -60
t-17 -56t15 -43t41 -17q20 0 35 8.5t27 21.5z" />
    <glyph glyph-name="Wcircumflex" unicode="&#x174;" horiz-adv-x="916" 
d="M580 -3l-119 355h-6l-120 -355h-117l-202 628h156l140 -476h7l104 318l-52 158h153l146 -476h6l149 476h75l-202 -628h-118zM569 699l-108 110h-5l-108 -110h-57l130 204h75l129 -204h-56z" />
    <glyph glyph-name="wcircumflex" unicode="&#x175;" horiz-adv-x="758" 
d="M480 -3l-102 287l-103 -287h-91l-166 461h143l107 -315l80 223l-32 92h137l109 -316l110 316h68l-169 -461h-91zM513 534l-108 110h-5l-108 -110h-57l130 204h75l129 -204h-56z" />
    <glyph glyph-name="Ycircumflex" unicode="&#x176;" horiz-adv-x="597" 
d="M226 0v262l-210 363h161l157 -279h9l159 279h79l-208 -362v-263h-147zM433 699l-108 110h-5l-108 -110h-57l130 204h75l129 -204h-56z" />
    <glyph glyph-name="ycircumflex" unicode="&#x177;" horiz-adv-x="492" 
d="M226 -30l-208 488h143l127 -324l118 324h68l-224 -594q-47 -125 -142 -125q-17 0 -38.5 4t-34.5 12l25 107q15 -20 29 -31t34 -11q23 0 40.5 14t30.5 47zM370 534l-108 110h-5l-108 -110h-57l130 204h75l129 -204h-56z" />
    <glyph glyph-name="Ydieresis" unicode="&#x178;" horiz-adv-x="597" 
d="M226 0v262l-210 363h161l157 -279h9l159 279h79l-208 -362v-263h-147zM213 712q-28 0 -47.5 21t-19.5 50t19.5 50t47.5 21t47.5 -21t19.5 -50t-19.5 -50t-47.5 -21zM432 712q-29 0 -48.5 21t-19.5 50t19.5 50t48.5 21q28 0 47.5 -21t19.5 -50t-19.5 -50t-47.5 -21z" />
    <glyph glyph-name="Zacute" unicode="&#x179;" horiz-adv-x="581" 
d="M26 0v54l346 497v4h-127q-64 0 -109.5 -6.5t-87.5 -25.5v102h507v-56l-346 -495v-5h130q63 0 108.5 6.5t87.5 25.5v-101h-509zM237 699l98 177h138l-175 -177h-61z" />
    <glyph glyph-name="zacute" unicode="&#x17a;" horiz-adv-x="481" 
d="M193 534l99 177h137l-174 -177h-62zM30 0v47l256 352h-65q-48 0 -92 -9t-79 -26v94h401v-47l-256 -352h74q48 0 91.5 9t78.5 26v-94h-409z" />
    <glyph glyph-name="Zdotaccent" unicode="&#x17b;" horiz-adv-x="581" 
d="M26 0v54l346 497v4h-127q-64 0 -109.5 -6.5t-87.5 -25.5v102h507v-56l-346 -495v-5h130q63 0 108.5 6.5t87.5 25.5v-101h-509zM281 712q-29 0 -48.5 21t-19.5 50t19.5 50t48.5 21q28 0 47.5 -21t19.5 -50t-19.5 -50t-47.5 -21z" />
    <glyph glyph-name="zdotaccent" unicode="&#x17c;" horiz-adv-x="481" 
d="M30 0v47l256 352h-65q-48 0 -92 -9t-79 -26v94h401v-47l-256 -352h74q48 0 91.5 9t78.5 26v-94h-409zM241 547q-29 0 -48.5 21t-19.5 50t19.5 50t48.5 21q28 0 47.5 -21t19.5 -50t-19.5 -50t-47.5 -21z" />
    <glyph glyph-name="Zcaron" unicode="&#x17d;" horiz-adv-x="581" 
d="M26 0v54l346 497v4h-127q-64 0 -109.5 -6.5t-87.5 -25.5v102h507v-56l-346 -495v-5h130q63 0 108.5 6.5t87.5 25.5v-101h-509zM250 699l-129 204h56l108 -110h5l109 110h56l-130 -204h-75z" />
    <glyph glyph-name="zcaron" unicode="&#x17e;" horiz-adv-x="481" 
d="M30 0v47l256 352h-65q-48 0 -92 -9t-79 -26v94h401v-47l-256 -352h74q48 0 91.5 9t78.5 26v-94h-409zM204 534l-129 204h56l108 -110h5l109 110h56l-130 -204h-75z" />
    <glyph glyph-name="florin" unicode="&#x192;" horiz-adv-x="606" 
d="M370 326l-19 -119q-18 -112 -64.5 -167t-138.5 -55q-35 0 -68.5 9t-67.5 32l40 82q19 -29 37 -43t41 -14q14 0 26.5 4t23 14.5t18 29t12.5 48.5l30 179h-92v67h103l4 25q18 112 64.5 167t138.5 55q35 0 68.5 -9t67.5 -32l-41 -82q-18 29 -36 43t-41 14q-14 0 -26.5 -4
t-22.5 -14.5t-18 -29t-13 -48.5l-15 -85h125v-67h-136z" />
    <glyph glyph-name="Aringacute" unicode="&#x1fa;" horiz-adv-x="613" 
d="M440 0l-60 176h-226q-15 -45 -30 -88.5t-31 -87.5h-77q54 151 107.5 301t107.5 302q-18 16 -27.5 38t-9.5 48q0 23 8 44t22.5 36.5t35 24.5t46.5 9t47 -9t35.5 -24.5t22.5 -36.5t8 -44q0 -24 -9 -45.5t-25 -37.5l212 -606h-157zM306 625q29 0 45.5 20t16.5 44
q0 25 -16.5 45t-45.5 20t-45.5 -20t-16.5 -45q0 -24 16.5 -44t45.5 -20zM275 499h-10l-88 -258h181zM260 829l99 177h137l-174 -177h-62z" />
    <glyph glyph-name="aringacute" unicode="&#x1fb;" horiz-adv-x="495" 
d="M211 776l98 177h138l-175 -177h-61zM306 0v61h-4q-27 -40 -63 -58t-82 -18q-25 0 -47.5 8.5t-40 24.5t-27.5 38.5t-10 50.5q0 37 16.5 65t47.5 49.5t75 37.5t100 29l35 8q0 54 -19 82.5t-63 28.5q-64 0 -122 -79l-50 73q25 20 48.5 34t48.5 22.5t51.5 12t57.5 3.5
q91 0 135 -48.5t44 -154.5v-270h-131zM306 238l-23 -7q-64 -20 -91.5 -44.5t-27.5 -53.5q0 -28 15 -42t41 -14q24 0 46.5 14.5t39.5 39.5v107zM240 522q-26 0 -46.5 9t-35 24.5t-22.5 36.5t-8 44t8 43.5t22.5 36t35 24.5t46.5 9q53 0 83 -33.5t30 -79.5q0 -23 -8 -44
t-22.5 -36.5t-35.5 -24.5t-47 -9zM240 571q29 0 45.5 20t16.5 45q0 24 -16.5 44t-45.5 20t-45.5 -20t-16.5 -44q0 -25 16.5 -45t45.5 -20z" />
    <glyph glyph-name="AEacute" unicode="&#x1fc;" horiz-adv-x="892" 
d="M412 0v198h-211l-111 -198h-84q89 157 176.5 312.5t175.5 312.5h486v-102q-18 8 -37 14t-42.5 9.5t-53.5 5.5t-70 2h-83v-205h202v-68h-202v-211h83q40 0 70 2t53.5 6t42.5 9.5t37 13.5v-101h-432zM412 560h-8q-42 -75 -83.5 -149t-83.5 -149h175v298zM500 699l98 177
h138l-175 -177h-61z" />
    <glyph glyph-name="aeacute" unicode="&#x1fd;" horiz-adv-x="772" 
d="M352 534l99 177h138l-175 -177h-62zM294 235l-30 -10q-100 -34 -100 -92q0 -28 15.5 -42t39.5 -14q28 0 50 14.5t39 39.5q-6 17 -9 36t-5 40v28zM604 280q0 59 -17.5 93.5t-60.5 34.5q-34 0 -57.5 -34t-31.5 -94h167zM706 39q-32 -26 -71 -40t-99 -14q-69 0 -119 24.5
t-81 70.5q-31 -46 -74.5 -70.5t-102.5 -24.5q-26 0 -49.5 8.5t-40.5 24t-27 38t-10 51.5q0 36 16.5 64t47.5 49.5t75 37.5t99 30l35 8q2 54 -15 82.5t-61 28.5q-32 0 -66.5 -20.5t-60.5 -58.5l-18 26q-8 11 -16.5 23.5t-15.5 23.5q27 20 52 33.5t50 22t51.5 12.5t56.5 4
q85 0 127 -46q29 22 64.5 34t77.5 12q100 0 152.5 -54.5t52.5 -148.5q0 -12 -1 -24t-3 -26h-297q1 -35 11 -66t27.5 -54t42.5 -36.5t58 -13.5q31 0 56 11.5t46 30.5z" />
    <glyph glyph-name="Oslashacute" unicode="&#x1fe;" horiz-adv-x="749" 
d="M123 -69l59 101q-70 41 -108 111t-38 163q0 74 27 135.5t73.5 105.5t108.5 68.5t132 24.5q40 0 75.5 -6.5t67.5 -18.5l45 78h60l-58 -100q69 -42 107.5 -112t38.5 -164q0 -74 -27.5 -135.5t-74 -105t-108.5 -67.5t-132 -24q-81 0 -142 24l-46 -78h-60zM474 535
q-44 38 -103 38q-38 0 -70 -15.5t-56 -47t-37.5 -79.5t-13.5 -113q0 -61 12 -108t33 -80zM274 89q44 -38 104 -38q37 0 69.5 15.5t56.5 47t37.5 79t13.5 112.5q0 62 -12 109t-34 81zM327 699l98 177h138l-175 -177h-61z" />
    <glyph glyph-name="oslashacute" unicode="&#x1ff;" horiz-adv-x="563" 
d="M237 534l98 177h138l-175 -177h-61zM58 -111l77 133q-49 32 -74 84t-25 116q0 53 19 99t53 79.5t81 53t104 19.5q50 0 93 -16l78 134l40 -22l-77 -133q49 -32 74.5 -84t25.5 -116q0 -53 -19 -99t-53 -79.5t-81 -53t-104 -19.5q-51 0 -94 16l-78 -134zM342 380
q-26 27 -64 27q-45 0 -73 -42.5t-28 -117.5q0 -77 17 -123zM220 79q25 -28 65 -28q45 0 73 42.5t28 117.5q0 39 -5 70t-13 54z" />
    <glyph glyph-name="Scommaaccent" unicode="&#x218;" horiz-adv-x="568" 
d="M211 -264q30 14 49 33.5t19 48.5q0 26 -20.5 42.5t-55.5 24.5q0 26 19.5 45.5t51.5 19.5q39 0 64 -28t25 -67q0 -52 -37.5 -90t-98.5 -64zM86 129q49 -44 90.5 -61.5t88.5 -17.5q67 0 98 28.5t31 64.5q0 21 -8.5 37t-26.5 29t-46.5 24.5t-67.5 23.5q-47 14 -84 31t-62 39
t-38 51t-13 68t15.5 74t46 62t75.5 42.5t104 15.5q58 0 111.5 -11.5t94.5 -28.5l-33 -98l-24 19q-32 25 -70.5 40t-86.5 15q-53 0 -82.5 -24t-29.5 -58q0 -40 33.5 -61.5t102.5 -42.5q55 -17 96 -35.5t67 -42t39 -53.5t13 -70q0 -41 -17 -78t-50 -65t-82 -44.5t-113 -16.5
q-54 0 -108.5 13.5t-97.5 33.5z" />
    <glyph glyph-name="scommaaccent" unicode="&#x219;" horiz-adv-x="446" 
d="M151 -264q31 14 50 33.5t19 48.5q0 26 -20.5 42.5t-55.5 24.5q0 26 19.5 45.5t51.5 19.5q39 0 63.5 -28t24.5 -67q0 -52 -37 -90t-98 -64zM69 114q25 -29 57.5 -46.5t75.5 -17.5q89 0 89 51q0 21 -16.5 36t-65.5 32q-39 13 -71 27t-54.5 32.5t-35 43t-12.5 57.5
q0 63 49 103.5t140 40.5q48 0 91.5 -10t82.5 -29l-36 -86q-25 26 -59 43t-68 17q-40 0 -60 -12.5t-20 -33.5q0 -20 15 -33.5t63 -29.5q88 -29 132 -63.5t44 -96.5q0 -32 -13 -60t-38.5 -49t-65 -33t-91.5 -12q-51 0 -90.5 11t-77.5 31z" />
    <glyph glyph-name="uni021A" unicode="&#x21a;" horiz-adv-x="599" 
d="M236 -263q30 13 49 32.5t19 48.5q0 26 -20 43t-55 25q0 25 19 44.5t51 19.5q39 0 64 -28t25 -67q0 -51 -37.5 -89t-98.5 -64zM227 0v555q-39 -1 -68 -3.5t-52 -6t-42.5 -9.5t-38.5 -13v102h547v-102q-19 7 -38 13t-42.5 9.5t-52 6t-66.5 3.5v-555h-147z" />
    <glyph glyph-name="uni021B" unicode="&#x21b;" horiz-adv-x="380" 
d="M148 -264q30 14 49.5 33.5t19.5 48.5q0 26 -20.5 42.5t-55.5 24.5q0 26 19 45.5t51 19.5q39 0 64 -28t25 -67q0 -52 -37 -90t-98 -64zM370 41q-27 -29 -62.5 -42.5t-76.5 -13.5q-63 0 -103 37.5t-40 109.5v259h-72v67h72v131l131 26v-157h136v-67h-136v-266
q0 -31 14 -47.5t36 -16.5q36 0 70 38z" />
    <glyph glyph-name="uni0237" unicode="&#x237;" horiz-adv-x="257" 
d="M63 445l131 25v-456q0 -65 -10.5 -116t-34.5 -86t-62 -54t-93 -19q-8 0 -19 1t-23 3.5t-23 5.5t-18 7l20 92q16 -20 33 -31.5t37 -11.5q29 0 45.5 18t16.5 63v559z" />
    <glyph glyph-name="circumflex" unicode="&#x2c6;" horiz-adv-x="435" 
d="M328 534l-108 110h-5l-108 -110h-57l130 204h75l129 -204h-56z" />
    <glyph glyph-name="caron" unicode="&#x2c7;" horiz-adv-x="435" 
d="M180 534l-129 204h56l108 -110h5l109 110h56l-130 -204h-75z" />
    <glyph glyph-name="breve" unicode="&#x2d8;" horiz-adv-x="435" 
d="M379 711q-3 -46 -16.5 -78.5t-35 -53.5t-50 -31t-60.5 -10t-60 10t-49.5 31t-35 53.5t-16.5 78.5h64q8 -52 31.5 -74t65.5 -22q43 0 66 22t32 74h64z" />
    <glyph glyph-name="dotaccent" unicode="&#x2d9;" horiz-adv-x="435" 
d="M218 547q-29 0 -48.5 21t-19.5 50t19.5 50t48.5 21q28 0 47.5 -21t19.5 -50t-19.5 -50t-47.5 -21z" />
    <glyph glyph-name="ring" unicode="&#x2da;" horiz-adv-x="435" 
d="M217 522q-26 0 -46.5 9t-35 24.5t-22.5 36.5t-8 44t8 43.5t22.5 36t35 24.5t46.5 9q53 0 83 -33.5t30 -79.5q0 -23 -8 -44t-22.5 -36.5t-35.5 -24.5t-47 -9zM217 571q29 0 45.5 20t16.5 45q0 24 -16.5 44t-45.5 20t-45.5 -20t-16.5 -44q0 -25 16.5 -45t45.5 -20z" />
    <glyph glyph-name="ogonek" unicode="&#x2db;" horiz-adv-x="435" 
d="M363 -186q-17 -26 -47.5 -43t-77.5 -17q-51 0 -81.5 27t-30.5 75t40.5 94t111.5 78h58q-52 -31 -81 -70t-29 -74q0 -26 15 -43t41 -17q20 0 35 8.5t27 21.5z" />
    <glyph glyph-name="tilde" unicode="&#x2dc;" horiz-adv-x="435" 
d="M398 686q-6 -77 -32.5 -109t-77.5 -32q-22 0 -43 11t-40.5 24t-36.5 24t-31 11q-19 0 -28 -14.5t-15 -46.5h-58q9 77 36 109t74 32q22 0 43 -11t40.5 -23.5t36.5 -23.5t31 -11q19 0 30.5 14t17.5 46h53z" />
    <glyph glyph-name="hungarumlaut" unicode="&#x2dd;" horiz-adv-x="435" 
d="M266 534l96 177h133l-172 -177h-57zM80 534l96 177h133l-173 -177h-56z" />
    <glyph glyph-name="Wgrave" unicode="&#x1e80;" horiz-adv-x="916" 
d="M580 -3l-119 355h-6l-120 -355h-117l-202 628h156l140 -476h7l104 318l-52 158h153l146 -476h6l149 476h75l-202 -628h-118zM425 699l-175 177h138l99 -177h-62z" />
    <glyph glyph-name="wgrave" unicode="&#x1e81;" horiz-adv-x="758" 
d="M373 534l-175 177h138l99 -177h-62zM480 -3l-102 287l-103 -287h-91l-166 461h143l107 -315l80 223l-32 92h137l109 -316l110 316h68l-169 -461h-91z" />
    <glyph glyph-name="Wacute" unicode="&#x1e82;" horiz-adv-x="916" 
d="M580 -3l-119 355h-6l-120 -355h-117l-202 628h156l140 -476h7l104 318l-52 158h153l146 -476h6l149 476h75l-202 -628h-118zM391 699l98 177h138l-175 -177h-61z" />
    <glyph glyph-name="wacute" unicode="&#x1e83;" horiz-adv-x="758" 
d="M374 534l99 177h138l-175 -177h-62zM480 -3l-102 287l-103 -287h-91l-166 461h143l107 -315l80 223l-32 92h137l109 -316l110 316h68l-169 -461h-91z" />
    <glyph glyph-name="Wdieresis" unicode="&#x1e84;" horiz-adv-x="916" 
d="M580 -3l-119 355h-6l-120 -355h-117l-202 628h156l140 -476h7l104 318l-52 158h153l146 -476h6l149 476h75l-202 -628h-118zM349 712q-28 0 -47.5 21t-19.5 50t19.5 50t47.5 21t47.5 -21t19.5 -50t-19.5 -50t-47.5 -21zM568 712q-29 0 -48.5 21t-19.5 50t19.5 50t48.5 21
q28 0 47.5 -21t19.5 -50t-19.5 -50t-47.5 -21z" />
    <glyph glyph-name="wdieresis" unicode="&#x1e85;" horiz-adv-x="758" 
d="M480 -3l-102 287l-103 -287h-91l-166 461h143l107 -315l80 223l-32 92h137l109 -316l110 316h68l-169 -461h-91zM282 547q-28 0 -47.5 21t-19.5 50t19.5 50t47.5 21t47.5 -21t19.5 -50t-19.5 -50t-47.5 -21zM501 547q-29 0 -48.5 21t-19.5 50t19.5 50t48.5 21
q28 0 47.5 -21t19.5 -50t-19.5 -50t-47.5 -21z" />
    <glyph glyph-name="uni2009" unicode="&#x2009;" horiz-adv-x="116" 
 />
    <glyph glyph-name="endash" unicode="&#x2013;" horiz-adv-x="492" 
d="M48 224v67h396v-67h-396z" />
    <glyph glyph-name="emdash" unicode="&#x2014;" horiz-adv-x="940" 
d="M48 224v67h844v-67h-844z" />
    <glyph glyph-name="quoteleft" unicode="&#x2018;" horiz-adv-x="250" 
d="M215 635q-45 -31 -66 -61t-21 -69q0 -32 23 -53.5t65 -37.5q0 -14 -5.5 -28t-16 -25t-26 -17.5t-34.5 -6.5q-23 0 -42.5 9t-34 25t-22.5 37t-8 45q0 64 44.5 118.5t116.5 100.5z" />
    <glyph glyph-name="quoteright" unicode="&#x2019;" horiz-adv-x="250" 
d="M35 361q45 30 66 60.5t21 68.5q0 32 -23 54t-65 37q0 15 5.5 29t16 25t26 17.5t34.5 6.5q23 0 42.5 -9t34 -25t22.5 -37.5t8 -45.5q0 -63 -44.5 -117.5t-116.5 -100.5z" />
    <glyph glyph-name="quotesinglbase" unicode="&#x201a;" horiz-adv-x="245" 
d="M33 -155q45 30 66.5 60.5t21.5 68.5q0 32 -23.5 54t-65.5 37q0 15 5.5 29t16 25t26 17.5t34.5 6.5q23 0 42.5 -9t34 -25t22.5 -37.5t8 -45.5q0 -63 -44.5 -117.5t-116.5 -100.5z" />
    <glyph glyph-name="quotedblleft" unicode="&#x201c;" horiz-adv-x="476" 
d="M441 635q-45 -31 -66.5 -61t-21.5 -69q0 -32 23.5 -53.5t65.5 -37.5q0 -14 -5.5 -28t-16 -25t-26 -17.5t-34.5 -6.5q-23 0 -42.5 9t-34 25t-22.5 37t-8 45q0 64 44.5 118.5t116.5 100.5zM215 635q-45 -31 -66 -61t-21 -69q0 -32 23 -53.5t65 -37.5q0 -14 -5.5 -28
t-16 -25t-26 -17.5t-34.5 -6.5q-23 0 -42.5 9t-34 25t-22.5 37t-8 45q0 64 44.5 118.5t116.5 100.5z" />
    <glyph glyph-name="quotedblright" unicode="&#x201d;" horiz-adv-x="476" 
d="M35 361q45 30 66 60.5t21 68.5q0 32 -23 54t-65 37q0 15 5.5 29t16 25t26 17.5t34.5 6.5q23 0 42.5 -9t34 -25t22.5 -37.5t8 -45.5q0 -63 -44.5 -117.5t-116.5 -100.5zM261 361q44 30 65.5 60.5t21.5 68.5q0 32 -23.5 54t-65.5 37q0 15 5.5 29t16.5 25t26 17.5t35 6.5
q22 0 42 -9t34 -25t22.5 -37.5t8.5 -45.5q0 -63 -44.5 -117.5t-117.5 -100.5z" />
    <glyph glyph-name="quotedblbase" unicode="&#x201e;" horiz-adv-x="467" 
d="M35 -156q45 31 66 61t21 69q0 32 -23 53.5t-65 36.5q0 15 5.5 29t16 25t26 17.5t34.5 6.5q23 0 42.5 -9t34 -25t22.5 -37.5t8 -45.5q0 -63 -44.5 -117.5t-116.5 -100.5zM261 -156q44 31 65.5 61t21.5 69q0 32 -23.5 53.5t-65.5 36.5q0 15 5.5 29t16.5 25t26 17.5t35 6.5
q22 0 42 -9t34 -25t22.5 -37.5t8.5 -45.5q0 -63 -44.5 -117.5t-117.5 -100.5z" />
    <glyph glyph-name="dagger" unicode="&#x2020;" horiz-adv-x="470" 
d="M197 -156v547h-161v67h161v167h76v-167h161v-67h-161v-547h-76z" />
    <glyph glyph-name="daggerdbl" unicode="&#x2021;" horiz-adv-x="470" 
d="M197 -156v176h-161v67h161v304h-161v67h161v167h76v-167h161v-67h-161v-304h161v-67h-161v-176h-76z" />
    <glyph glyph-name="bullet" unicode="&#x2022;" horiz-adv-x="455" 
d="M228 46q-38 0 -72 14.5t-59 39.5t-39.5 59t-14.5 72t14.5 72t39.5 59t59 39.5t72 14.5t72 -14.5t59 -39.5t39.5 -59t14.5 -72t-14.5 -72t-39.5 -59t-59 -39.5t-72 -14.5z" />
    <glyph glyph-name="ellipsis" unicode="&#x2026;" horiz-adv-x="692" 
d="M658 65q0 -33 -23.5 -56.5t-57.5 -23.5t-57.5 23t-23.5 57t23.5 58t57.5 24t57.5 -24t23.5 -58zM428 65q0 -33 -23.5 -56.5t-57.5 -23.5t-57.5 23t-23.5 57t23.5 58t57.5 24t57.5 -24t23.5 -58zM198 65q0 -33 -23.5 -56.5t-57.5 -23.5t-57.5 23t-23.5 57t23.5 58t57.5 24
t57.5 -24t23.5 -58z" />
    <glyph glyph-name="perthousand" unicode="&#x2030;" horiz-adv-x="1102" 
d="M94 0l484 625h69l-485 -625h-68zM182 330q-38 0 -68 13t-50 35t-30.5 51t-10.5 61t10.5 61t30.5 51t50 35t68 13q37 0 66.5 -13t49.5 -35t30.5 -51t10.5 -61t-10.5 -61t-30.5 -51t-49.5 -35t-66.5 -13zM182 382q22 0 39.5 24.5t17.5 83.5t-17.5 83.5t-39.5 24.5
q-23 0 -40.5 -24.5t-17.5 -83.5t17.5 -83.5t40.5 -24.5zM719 134q0 -32 -10.5 -61t-31 -50.5t-50 -34t-67.5 -12.5t-67.5 12.5t-49.5 34t-30.5 50.5t-10.5 61t10.5 61t30.5 51t49.5 35t67.5 13t67.5 -13t50 -35t31 -51t10.5 -61zM560 26q23 0 40.5 24.5t17.5 83.5t-18 84
t-40 25t-40 -25t-18 -84t18 -83.5t40 -24.5zM1078 134q0 -32 -10.5 -61t-30.5 -50.5t-49.5 -34t-67.5 -12.5t-67.5 12.5t-50 34t-31 50.5t-10.5 61t10.5 61t31 51t50 35t67.5 13t67.5 -13t49.5 -35t30.5 -51t10.5 -61zM920 26q22 0 39.5 24.5t17.5 83.5t-17.5 84t-39.5 25
q-23 0 -40.5 -25t-17.5 -84t17.5 -83.5t40.5 -24.5z" />
    <glyph glyph-name="guilsinglleft" unicode="&#x2039;" horiz-adv-x="327" 
d="M28 220v65l241 171l24 -32l-155 -171l155 -171l-24 -32z" />
    <glyph glyph-name="guilsinglright" unicode="&#x203a;" horiz-adv-x="327" 
d="M59 50l-25 32l155 171l-155 171l25 32l240 -171v-65z" />
    <glyph glyph-name="fraction" unicode="&#x2044;" horiz-adv-x="512" 
d="M-12 -15l469 655h67l-469 -655h-67z" />
    <glyph glyph-name="uni2070" unicode="&#x2070;" horiz-adv-x="350" 
d="M175 266q-69 0 -109.5 50t-40.5 144t40.5 146t109.5 52t109.5 -50.5t40.5 -144.5q0 -93 -40.5 -145t-109.5 -52zM176 314q13 0 22 6.5t14.5 23t8 44.5t2.5 71q0 44 -2.5 73t-8.5 46t-15.5 24t-22.5 7t-22 -6.5t-14.5 -22.5t-8 -44t-2.5 -71q0 -44 2.5 -73t8 -46.5
t15 -24.5t23.5 -7z" />
    <glyph glyph-name="uni2074" unicode="&#x2074;" horiz-adv-x="350" 
d="M187 273v82h-163l-9 51l191 248h75v-236h53v-63h-53v-82h-94zM187 562l-110 -144h110v144z" />
    <glyph glyph-name="uni2075" unicode="&#x2075;" horiz-adv-x="350" 
d="M123 571q-2 -12 -4 -20.5t-5 -19.5q58 -7 95.5 -21t59.5 -32.5t31 -41t9 -46.5q0 -25 -11 -48t-31 -41t-49.5 -28.5t-65.5 -10.5q-44 0 -75 12t-54 29l35 59q35 -52 99 -52q67 0 67 51q0 15 -8.5 29.5t-29 26.5t-55 21.5t-86.5 13.5l49 199h214v-80h-185z" />
    <glyph glyph-name="uni2076" unicode="&#x2076;" horiz-adv-x="350" 
d="M305 616q-37 -3 -68 -15t-54.5 -29t-38.5 -39t-20 -44l3 -4q25 16 49 22.5t44 6.5q44 0 76 -29t32 -85q0 -29 -11.5 -54t-31.5 -44t-48 -29.5t-61 -10.5q-69 0 -110 45.5t-41 120.5q0 48 19.5 89.5t55.5 73t86.5 51t112.5 21.5zM181 309q19 0 34.5 15.5t15.5 54.5
q0 36 -18 53.5t-43 17.5q-13 0 -24.5 -3.5t-19.5 -6.5q-1 -4 -1 -8q-1 -4 -1 -9.5v-11.5q0 -49 15.5 -75.5t41.5 -26.5z" />
    <glyph glyph-name="uni2077" unicode="&#x2077;" horiz-adv-x="350" 
d="M75 267l161 304h-200v80h284l6 -32l-180 -352h-71z" />
    <glyph glyph-name="uni2078" unicode="&#x2078;" horiz-adv-x="350" 
d="M88 451q-27 14 -45.5 35.5t-18.5 59.5q0 20 8.5 40.5t26.5 37t46.5 27t68.5 10.5q66 0 105 -26t39 -75q0 -26 -17.5 -46.5t-51.5 -31.5q31 -18 54 -42.5t23 -62.5q0 -22 -10 -42.5t-30 -36.5t-49.5 -26t-67.5 -10q-31 0 -58 6.5t-47 19t-31.5 31t-11.5 43.5q0 26 15.5 50
t51.5 37v2zM135 432q-13 -11 -19 -26t-6 -29q0 -30 18 -49.5t51 -19.5q29 0 42.5 12t13.5 28q0 24 -21.5 43t-78.5 41zM200 497q13 13 19.5 27t6.5 26q0 26 -17.5 45.5t-46.5 19.5q-26 0 -38.5 -12.5t-12.5 -31.5q0 -26 22 -41.5t67 -32.5z" />
    <glyph glyph-name="uni2079" unicode="&#x2079;" horiz-adv-x="350" 
d="M222 438q-25 -16 -49 -22.5t-44 -6.5q-22 0 -41.5 7.5t-34.5 21.5t-23.5 35.5t-8.5 49.5q0 29 11.5 54t31.5 44t48.5 29.5t61.5 10.5q68 0 109 -45.5t41 -120.5q0 -48 -19.5 -89.5t-55.5 -73t-86.5 -51t-112.5 -21.5l-6 47q37 3 68 15t54.5 29t38.5 38.5t20 44.5z
M223 483q1 6 1.5 13t0.5 16q0 49 -15.5 75.5t-40.5 26.5q-20 0 -35.5 -15.5t-15.5 -54.5q0 -36 18 -53.5t44 -17.5q12 0 23.5 3.5t19.5 6.5z" />
    <glyph glyph-name="uni207A" unicode="&#x207a;" horiz-adv-x="350" 
d="M156 338v103h-103v42h103v103h41v-103h103v-42h-103v-103h-41z" />
    <glyph glyph-name="uni207B" unicode="&#x207b;" horiz-adv-x="350" 
d="M58 442v40h247v-40h-247z" />
    <glyph glyph-name="uni2080" unicode="&#x2080;" horiz-adv-x="350" 
d="M175 -150q-69 0 -109.5 50t-40.5 144t40.5 146t109.5 52t109.5 -50.5t40.5 -144.5q0 -93 -40.5 -145t-109.5 -52zM176 -102q13 0 22 6.5t14.5 23t8 44.5t2.5 71q0 44 -2.5 73t-8.5 46t-15.5 24t-22.5 7t-22 -6.5t-14.5 -22.5t-8 -44t-2.5 -71q0 -44 2.5 -73t8 -46.5
t15 -24.5t23.5 -7z" />
    <glyph glyph-name="uni2081" unicode="&#x2081;" horiz-adv-x="350" 
d="M137 -143v297h-81v40l183 54v-391h-102z" />
    <glyph glyph-name="uni2082" unicode="&#x2082;" horiz-adv-x="350" 
d="M38 -143l-4 40q33 33 65 60t56.5 53t39.5 52.5t15 57.5q0 26 -17 41.5t-50 15.5q-28 0 -51 -12t-45 -31l-26 35q31 33 71.5 54.5t90.5 21.5q61 0 96.5 -29.5t35.5 -84.5q0 -44 -41 -86t-126 -103v-5h165v-80h-275z" />
    <glyph glyph-name="uni2083" unicode="&#x2083;" horiz-adv-x="350" 
d="M221 65q43 0 73.5 -21.5t30.5 -63.5q0 -27 -13 -51t-35 -42t-51.5 -29t-62.5 -11q-44 0 -76 12t-55 29l35 58q18 -25 38.5 -38t49.5 -13q30 0 48 18t18 50q0 33 -19 46t-43 13q-21 0 -43 -9l-16 38q45 18 75 38.5t30 44.5q0 22 -16.5 32.5t-41.5 10.5q-27 0 -51.5 -12
t-44.5 -33l-26 37q33 34 75 55t101 21q50 0 79 -23t29 -57q0 -33 -25 -56t-63 -40v-4z" />
    <glyph glyph-name="uni2084" unicode="&#x2084;" horiz-adv-x="350" 
d="M187 -143v82h-163l-9 51l191 248h75v-236h53v-63h-53v-82h-94zM187 146l-110 -144h110v144z" />
    <glyph glyph-name="uni2085" unicode="&#x2085;" horiz-adv-x="350" 
d="M123 155q-2 -12 -4 -20.5t-5 -19.5q58 -7 95.5 -20.5t59.5 -32.5t31 -41t9 -46q0 -25 -11 -48t-31 -41t-49.5 -28.5t-65.5 -10.5q-44 0 -75 12t-54 29l35 58q36 -51 99 -51q67 0 67 51q0 15 -8.5 29t-29 26.5t-55 21.5t-86.5 13l49 199h214v-80h-185z" />
    <glyph glyph-name="uni2086" unicode="&#x2086;" horiz-adv-x="350" 
d="M305 200q-37 -3 -68 -15t-54.5 -29t-38.5 -39t-20 -44l3 -4q25 16 49 22.5t44 6.5q44 0 76 -29t32 -84q0 -29 -11.5 -54t-31.5 -44t-48 -29.5t-61 -10.5q-69 0 -110 45.5t-41 119.5q0 48 19.5 89.5t55.5 73t86.5 51t112.5 21.5zM124 -5q0 -48 15.5 -74.5t41.5 -26.5
q19 0 34.5 15.5t15.5 54.5q0 35 -18 52.5t-43 17.5q-13 0 -24.5 -3.5t-19.5 -6.5z" />
    <glyph glyph-name="uni2087" unicode="&#x2087;" horiz-adv-x="350" 
d="M75 -149l161 304h-200v80h284l6 -32l-180 -352h-71z" />
    <glyph glyph-name="uni2088" unicode="&#x2088;" horiz-adv-x="350" 
d="M89 35q-27 14 -45.5 35.5t-18.5 59.5q0 20 8.5 40.5t26.5 37t46.5 27t68.5 10.5q66 0 105 -26t39 -75q0 -26 -17.5 -46.5t-51.5 -31.5q31 -18 54 -42t23 -62q0 -22 -10 -42.5t-30 -36.5t-49.5 -26t-67.5 -10q-31 0 -58 6.5t-47 19t-31.5 31t-11.5 42.5q0 27 15.5 50.5
t51.5 36.5v2zM136 16q-13 -11 -19 -25.5t-6 -29.5q0 -29 18 -48.5t51 -19.5q29 0 42.5 12t13.5 28q0 24 -21.5 43t-78.5 40zM201 81q13 13 19.5 27t6.5 26q0 26 -17.5 45.5t-46.5 19.5q-26 0 -38.5 -12.5t-12.5 -31.5q0 -26 22 -41.5t67 -32.5z" />
    <glyph glyph-name="uni2089" unicode="&#x2089;" horiz-adv-x="350" 
d="M222 22q-25 -16 -49 -22t-44 -6q-22 0 -41.5 7t-34.5 21.5t-23.5 35.5t-8.5 49q0 29 11.5 54t31.5 44t48.5 29.5t61.5 10.5q68 0 109 -45.5t41 -120.5q0 -47 -19.5 -89t-55.5 -73.5t-86.5 -50.5t-112.5 -21l-6 47q37 3 68 15t54.5 29t38.5 38.5t20 43.5zM223 67
q1 6 1.5 13t0.5 16q0 49 -15.5 75.5t-40.5 26.5q-20 0 -35.5 -15.5t-15.5 -54.5q0 -36 18 -53.5t44 -17.5q12 0 23.5 3.5t19.5 6.5z" />
    <glyph glyph-name="Euro" unicode="&#x20ac;" horiz-adv-x="540" 
d="M501 54q-37 -36 -76 -52.5t-93 -16.5q-99 0 -165 62t-85 176h-65v53h60q-1 8 -1 15v15q0 11 0.5 22.5t1.5 22.5h-61v53h69q11 53 33.5 96.5t54.5 74t72 47.5t86 17q57 0 99.5 -16t80.5 -48l-48 -76q-27 36 -56 55t-67 19q-53 0 -85.5 -44.5t-46.5 -124.5h202v-53h-208
q0 -10 -0.5 -19.5t-0.5 -19.5q0 -9 0.5 -18t0.5 -18h208v-53h-203q13 -84 49.5 -129.5t90.5 -45.5q32 0 59.5 13.5t54.5 42.5z" />
    <glyph glyph-name="trademark" unicode="&#x2122;" horiz-adv-x="900" 
d="M160 252v327q-43 -2 -72 -6.5t-52 -15.5v68h339v-68q-23 11 -51.5 15.5t-70.5 6.5v-327h-93zM767 252l-9 313h-4l-96 -301h-72l-89 301h-4l-9 -313h-48l11 373h126l71 -246h4l76 246h125l11 -373h-93z" />
    <glyph glyph-name="minus" unicode="&#x2212;" 
d="M44 204v63h412v-63h-412z" />
    <glyph glyph-name="uni2215" unicode="&#x2215;" horiz-adv-x="512" 
d="M-12 -15l469 655h67l-469 -655h-67z" />
    <glyph glyph-name="approxequal" unicode="&#x2248;" 
d="M443 211q-9 -53 -35.5 -83.5t-69.5 -30.5q-22 0 -45.5 8.5t-46 19t-42.5 19.5t-35 9q-18 0 -31.5 -10t-20.5 -39h-59q8 52 35 83t69 31q22 0 46.5 -9t47.5 -19.5t42.5 -19.5t32.5 -9q17 0 30.5 8.5t21.5 41.5h60zM443 374q-9 -52 -35.5 -83t-69.5 -31q-22 0 -45.5 8.5
t-46 19t-42.5 19.5t-35 9q-18 0 -31.5 -9.5t-20.5 -39.5h-59q8 52 35 83t69 31q22 0 46.5 -9t47.5 -19.5t42.5 -19.5t32.5 -9q17 0 30.5 8.5t21.5 41.5h60z" />
    <glyph glyph-name="notequal" unicode="&#x2260;" 
d="M259 119l-40 -142h-65l40 142h-142v63h160l30 105h-190v63h208l37 132h65l-37 -132h123v-63h-141l-30 -105h171v-63h-189z" />
    <glyph glyph-name="lessequal" unicode="&#x2264;" 
d="M58 0v61h384v-61h-384zM58 252v46l384 163v-67l-288 -119l288 -120v-66z" />
    <glyph glyph-name="greaterequal" unicode="&#x2265;" 
d="M58 0v61h384v-61h-384zM58 89v66l288 120l-288 119v67l384 -163v-46z" />
    <glyph glyph-name="uni24DF" unicode="&#x24df;" horiz-adv-x="801" 
d="M400 -54q-76 0 -142.5 28.5t-116 78t-78 116t-28.5 142.5t28.5 143t78 116.5t116 78t142.5 28.5t142.5 -28.5t116 -78t78 -116.5t28.5 -143t-28.5 -142.5t-78 -116t-116 -78t-142.5 -28.5zM400 -5q65 0 122 25t99.5 68t67 100.5t24.5 122.5t-24.5 122.5t-67 101
t-99.5 68.5t-122 25t-122.5 -25t-100 -68.5t-67 -101t-24.5 -122.5t24.5 -122.5t67 -100.5t100 -68t122.5 -25zM275 120v385l136 2q79 1 120.5 -32t41.5 -84q0 -32 -14 -56.5t-37.5 -41t-54 -25.5t-63.5 -9q-8 0 -18.5 0.5t-18.5 1.5v-141h-92zM367 456v-146q8 -2 16 -3
t17 -1q32 0 52 20t20 54q0 35 -20.5 55.5t-58.5 20.5h-26z" />
    <glyph glyph-name="uniF6C3" unicode="&#xf6c3;" horiz-adv-x="435" 
d="M137 -264q30 14 49 33.5t19 48.5q0 26 -20 42.5t-55 24.5q0 26 19 45.5t51 19.5q39 0 64 -28t25 -67q0 -52 -37.5 -90t-98.5 -64z" />
    <glyph glyph-name="uniF8FF" unicode="&#xf8ff;" horiz-adv-x="758" 
d="M463 116l-85 -181l-84 180l-187 -68l68 187l-181 86l181 83l-68 189l187 -69l86 181l83 -181l189 69l-69 -189l180 -82l-180 -85l69 -189zM531 258l132 62l-132 62l50 139l-139 -50l-63 133l-63 -133l-139 50l51 -139l-134 -63l134 -63l-51 -138l139 51l62 -135l64 135
l139 -51z" />
    <glyph glyph-name="J.salt" horiz-adv-x="291" 
d="M-98 -186l14 110q20 -22 43.5 -32.5t46.5 -10.5q28 0 47 18.5t19 58.5v667h147v-551q0 -134 -51.5 -197t-158.5 -63h-107z" />
    <glyph glyph-name="a.salt" horiz-adv-x="559" 
d="M366 0v57h-4q-26 -32 -64 -52t-80 -20q-43 0 -76.5 17t-57 46.5t-36 69.5t-12.5 87q0 53 17 100.5t49.5 83t80 56.5t108.5 21q11 0 26.5 -1.5t32 -4.5t32 -8t26.5 -12l89 30v-470h-131zM366 374q-17 13 -37 20t-37 7q-25 0 -46 -12t-36.5 -33t-24 -50t-8.5 -63
q0 -71 30.5 -113t81.5 -42q18 0 39.5 10.5t37.5 28.5v247z" />
    <glyph glyph-name="g.salt" horiz-adv-x="559" 
d="M366 57h-4q-26 -32 -64 -52t-80 -20q-43 0 -76.5 17t-57 46.5t-36 69.5t-12.5 87q0 53 17 100.5t49.5 83t80 56.5t108.5 21q13 0 28.5 -1.5t31 -4.5t30.5 -8t27 -12l89 30v-474q0 -69 -16.5 -118t-48.5 -80t-78 -45t-104 -14q-48 0 -93.5 15.5t-83.5 38.5l42 92
q29 -38 63.5 -59t78.5 -21q56 0 82.5 37t26.5 105v110zM366 374q-17 13 -37 20t-37 7q-25 0 -46 -12t-36.5 -33t-24 -50t-8.5 -63q0 -71 30 -113t81 -42q18 0 40 10.5t38 28.5v247z" />
    <glyph glyph-name="agrave.salt" horiz-adv-x="559" 
d="M283 534l-175 177h138l99 -177h-62zM366 0v57h-4q-26 -32 -64 -52t-80 -20q-43 0 -76.5 17t-57 46.5t-36 69.5t-12.5 87q0 53 17 100.5t49.5 83t80 56.5t108.5 21q11 0 26.5 -1.5t32 -4.5t32 -8t26.5 -12l89 30v-470h-131zM366 374q-17 13 -37 20t-37 7q-25 0 -46 -12
t-36.5 -33t-24 -50t-8.5 -63q0 -71 30.5 -113t81.5 -42q18 0 39.5 10.5t37.5 28.5v247z" />
    <glyph glyph-name="aacute.salt" horiz-adv-x="559" 
d="M221 534l99 177h137l-174 -177h-62zM366 0v57h-4q-26 -32 -64 -52t-80 -20q-43 0 -76.5 17t-57 46.5t-36 69.5t-12.5 87q0 53 17 100.5t49.5 83t80 56.5t108.5 21q11 0 26.5 -1.5t32 -4.5t32 -8t26.5 -12l89 30v-470h-131zM366 374q-17 13 -37 20t-37 7q-25 0 -46 -12
t-36.5 -33t-24 -50t-8.5 -63q0 -71 30.5 -113t81.5 -42q18 0 39.5 10.5t37.5 28.5v247z" />
    <glyph glyph-name="acircumflex.salt" horiz-adv-x="559" 
d="M366 0v57h-4q-26 -32 -64 -52t-80 -20q-43 0 -76.5 17t-57 46.5t-36 69.5t-12.5 87q0 53 17 100.5t49.5 83t80 56.5t108.5 21q11 0 26.5 -1.5t32 -4.5t32 -8t26.5 -12l89 30v-470h-131zM366 374q-17 13 -37 20t-37 7q-25 0 -46 -12t-36.5 -33t-24 -50t-8.5 -63
q0 -71 30.5 -113t81.5 -42q18 0 39.5 10.5t37.5 28.5v247zM397 534l-108 110h-5l-108 -110h-57l130 204h75l129 -204h-56z" />
    <glyph glyph-name="atilde.salt" horiz-adv-x="559" 
d="M463 672q-6 -78 -33 -109.5t-78 -31.5q-22 0 -43 11t-40 24t-36 24t-31 11q-20 0 -29 -15t-14 -46h-58q8 77 35.5 109t74.5 32q22 0 43 -11t40.5 -23.5t36.5 -23.5t31 -11q19 0 30.5 14t17.5 46h53zM366 0v57h-4q-26 -32 -64 -52t-80 -20q-43 0 -76.5 17t-57 46.5
t-36 69.5t-12.5 87q0 53 17 100.5t49.5 83t80 56.5t108.5 21q11 0 26.5 -1.5t32 -4.5t32 -8t26.5 -12l89 30v-470h-131zM366 374q-17 13 -37 20t-37 7q-25 0 -46 -12t-36.5 -33t-24 -50t-8.5 -63q0 -71 30.5 -113t81.5 -42q18 0 39.5 10.5t37.5 28.5v247z" />
    <glyph glyph-name="adieresis.salt" horiz-adv-x="559" 
d="M386 531q-31 0 -49 20.5t-18 49.5t18 50t49 21q32 0 50 -21t18 -50t-18 -49.5t-50 -20.5zM168 531q-31 0 -49.5 20.5t-18.5 49.5t18.5 50t49.5 21q32 0 49.5 -21t17.5 -50t-17.5 -49.5t-49.5 -20.5zM366 0v57h-4q-26 -32 -64 -52t-80 -20q-43 0 -76.5 17t-57 46.5
t-36 69.5t-12.5 87q0 53 17 100.5t49.5 83t80 56.5t108.5 21q11 0 26.5 -1.5t32 -4.5t32 -8t26.5 -12l89 30v-470h-131zM366 374q-17 13 -37 20t-37 7q-25 0 -46 -12t-36.5 -33t-24 -50t-8.5 -63q0 -71 30.5 -113t81.5 -42q18 0 39.5 10.5t37.5 28.5v247z" />
    <glyph glyph-name="aring.salt" horiz-adv-x="559" 
d="M366 0v57h-4q-26 -32 -64 -52t-80 -20q-43 0 -76.5 17t-57 46.5t-36 69.5t-12.5 87q0 53 17 100.5t49.5 83t80 56.5t108.5 21q11 0 26.5 -1.5t32 -4.5t32 -8t26.5 -12l89 30v-470h-131zM366 374q-17 13 -37 20t-37 7q-25 0 -46 -12t-36.5 -33t-24 -50t-8.5 -63
q0 -71 30.5 -113t81.5 -42q18 0 39.5 10.5t37.5 28.5v247zM276 522q-26 0 -46.5 9t-35 24.5t-22.5 36.5t-8 44t8 43.5t22.5 36t35 24.5t46.5 9q53 0 83 -33.5t30 -79.5q0 -23 -8 -44t-22.5 -36.5t-35.5 -24.5t-47 -9zM276 571q29 0 45.5 20t16.5 45q0 24 -16.5 44t-45.5 20
t-45.5 -20t-16.5 -44q0 -25 16.5 -45t45.5 -20z" />
    <glyph glyph-name="aringacute.salt" horiz-adv-x="559" 
d="M238 776l99 177h138l-175 -177h-62zM366 0v57h-4q-26 -32 -64 -52t-80 -20q-43 0 -76.5 17t-57 46.5t-36 69.5t-12.5 87q0 53 17 100.5t49.5 83t80 56.5t108.5 21q11 0 26.5 -1.5t32 -4.5t32 -8t26.5 -12l89 30v-470h-131zM366 374q-17 13 -37 20t-37 7q-25 0 -46 -12
t-36.5 -33t-24 -50t-8.5 -63q0 -71 30.5 -113t81.5 -42q18 0 39.5 10.5t37.5 28.5v247zM276 522q-26 0 -46.5 9t-35 24.5t-22.5 36.5t-8 44t8 43.5t22.5 36t35 24.5t46.5 9q53 0 83 -33.5t30 -79.5q0 -23 -8 -44t-22.5 -36.5t-35.5 -24.5t-47 -9zM276 571q29 0 45.5 20
t16.5 45q0 24 -16.5 44t-45.5 20t-45.5 -20t-16.5 -44q0 -25 16.5 -45t45.5 -20z" />
    <glyph glyph-name="amacron.salt" horiz-adv-x="559" 
d="M366 0v57h-4q-26 -32 -64 -52t-80 -20q-43 0 -76.5 17t-57 46.5t-36 69.5t-12.5 87q0 53 17 100.5t49.5 83t80 56.5t108.5 21q11 0 26.5 -1.5t32 -4.5t32 -8t26.5 -12l89 30v-470h-131zM366 374q-17 13 -37 20t-37 7q-25 0 -46 -12t-36.5 -33t-24 -50t-8.5 -63
q0 -71 30.5 -113t81.5 -42q18 0 39.5 10.5t37.5 28.5v247zM126 580v66h305v-66h-305z" />
    <glyph glyph-name="abreve.salt" horiz-adv-x="559" 
d="M366 0v57h-4q-26 -32 -64 -52t-80 -20q-43 0 -76.5 17t-57 46.5t-36 69.5t-12.5 87q0 53 17 100.5t49.5 83t80 56.5t108.5 21q11 0 26.5 -1.5t32 -4.5t32 -8t26.5 -12l89 30v-470h-131zM366 374q-17 13 -37 20t-37 7q-25 0 -46 -12t-36.5 -33t-24 -50t-8.5 -63
q0 -71 30.5 -113t81.5 -42q18 0 39.5 10.5t37.5 28.5v247zM451 711q-3 -46 -16.5 -78.5t-35 -53.5t-50 -31t-60.5 -10t-60 10t-49.5 31t-35 53.5t-16.5 78.5h64q8 -52 31.5 -74t65.5 -22q43 0 66 22t32 74h64z" />
    <glyph glyph-name="aogonek.salt" horiz-adv-x="559" 
d="M565 -186q-17 -26 -47.5 -43t-77.5 -17q-51 0 -81.5 27t-30.5 75q0 38 26 76t74 68h-62v57h-4q-26 -32 -64 -52t-80 -20q-43 0 -76.5 17t-57 46.5t-36 69.5t-12.5 87q0 53 17 100.5t49.5 83t80 56.5t108.5 21q11 0 26.5 -1.5t32 -4.5t32 -8t26.5 -12l89 30v-470
q-33 -29 -51 -58.5t-18 -57.5q0 -26 15 -43t41 -17q20 0 35 8.5t27 21.5zM366 374q-17 13 -37 20t-37 7q-25 0 -46 -12t-36.5 -33t-24 -50t-8.5 -63q0 -71 30.5 -113t81.5 -42q18 0 39.5 10.5t37.5 28.5v247z" />
    <glyph glyph-name="gcircumflex.salt" horiz-adv-x="559" 
d="M366 57h-4q-26 -32 -64 -52t-80 -20q-43 0 -76.5 17t-57 46.5t-36 69.5t-12.5 87q0 53 17 100.5t49.5 83t80 56.5t108.5 21q13 0 28.5 -1.5t31 -4.5t30.5 -8t27 -12l89 30v-474q0 -69 -16.5 -118t-48.5 -80t-78 -45t-104 -14q-48 0 -93.5 15.5t-83.5 38.5l42 92
q29 -38 63.5 -59t78.5 -21q56 0 82.5 37t26.5 105v110zM366 374q-17 13 -37 20t-37 7q-25 0 -46 -12t-36.5 -33t-24 -50t-8.5 -63q0 -71 30 -113t81 -42q18 0 40 10.5t38 28.5v247zM401 534l-108 110h-5l-108 -110h-57l130 204h75l129 -204h-56z" />
    <glyph glyph-name="gbreve.salt" horiz-adv-x="559" 
d="M366 57h-4q-26 -32 -64 -52t-80 -20q-43 0 -76.5 17t-57 46.5t-36 69.5t-12.5 87q0 53 17 100.5t49.5 83t80 56.5t108.5 21q13 0 28.5 -1.5t31 -4.5t30.5 -8t27 -12l89 30v-474q0 -69 -16.5 -118t-48.5 -80t-78 -45t-104 -14q-48 0 -93.5 15.5t-83.5 38.5l42 92
q29 -38 63.5 -59t78.5 -21q56 0 82.5 37t26.5 105v110zM366 374q-17 13 -37 20t-37 7q-25 0 -46 -12t-36.5 -33t-24 -50t-8.5 -63q0 -71 30 -113t81 -42q18 0 40 10.5t38 28.5v247zM455 711q-3 -46 -16.5 -78.5t-35 -53.5t-50 -31t-60.5 -10t-60 10t-49.5 31t-35 53.5
t-16.5 78.5h64q8 -52 31.5 -74t65.5 -22q43 0 66 22t32 74h64z" />
    <glyph glyph-name="gdotaccent.salt" horiz-adv-x="559" 
d="M366 57h-4q-26 -32 -64 -52t-80 -20q-43 0 -76.5 17t-57 46.5t-36 69.5t-12.5 87q0 53 17 100.5t49.5 83t80 56.5t108.5 21q13 0 28.5 -1.5t31 -4.5t30.5 -8t27 -12l89 30v-474q0 -69 -16.5 -118t-48.5 -80t-78 -45t-104 -14q-48 0 -93.5 15.5t-83.5 38.5l42 92
q29 -38 63.5 -59t78.5 -21q56 0 82.5 37t26.5 105v110zM366 374q-17 13 -37 20t-37 7q-25 0 -46 -12t-36.5 -33t-24 -50t-8.5 -63q0 -71 30 -113t81 -42q18 0 40 10.5t38 28.5v247zM293 547q-29 0 -48.5 21t-19.5 50t19.5 50t48.5 21q28 0 47.5 -21t19.5 -50t-19.5 -50
t-47.5 -21z" />
    <glyph glyph-name="gcommaaccent.salt" horiz-adv-x="559" 
d="M357 740q-31 -13 -50 -32.5t-19 -48.5q0 -26 20.5 -43t55.5 -25q0 -25 -19.5 -44.5t-51.5 -19.5q-39 0 -63.5 28t-24.5 67q0 51 37 89t98 64zM366 57h-4q-26 -32 -64 -52t-80 -20q-43 0 -76.5 17t-57 46.5t-36 69.5t-12.5 87q0 53 17 100.5t49.5 83t80 56.5t108.5 21
q13 0 28.5 -1.5t31 -4.5t30.5 -8t27 -12l89 30v-474q0 -69 -16.5 -118t-48.5 -80t-78 -45t-104 -14q-48 0 -93.5 15.5t-83.5 38.5l42 92q29 -38 63.5 -59t78.5 -21q56 0 82.5 37t26.5 105v110zM366 374q-17 13 -37 20t-37 7q-25 0 -46 -12t-36.5 -33t-24 -50t-8.5 -63
q0 -71 30 -113t81 -42q18 0 40 10.5t38 28.5v247z" />
    <glyph glyph-name="Jcircumflex.salt" horiz-adv-x="291" 
d="M-98 -186l14 110q20 -22 43.5 -32.5t46.5 -10.5q28 0 47 18.5t19 58.5v667h147v-551q0 -134 -51.5 -197t-158.5 -63h-107zM256 699l-108 110h-5l-108 -110h-57l130 204h75l129 -204h-56z" />
    <glyph glyph-name="glyph383" horiz-adv-x="266" 
d="M214 253q0 -33 -23.5 -57t-57.5 -24t-57.5 23.5t-23.5 57.5t23.5 58t57.5 24t57.5 -24t23.5 -58z" />
    <glyph glyph-name="A.c2sc" horiz-adv-x="520" 
d="M367 0l-45 132h-189l-48 -132h-67l160 437v31l149 28l175 -496h-135zM234 385h-8l-73 -197h149z" />
    <glyph glyph-name="B.c2sc" horiz-adv-x="526" 
d="M68 1v480l214 3q52 1 88.5 -7t59.5 -23t33 -37.5t10 -50.5q0 -45 -28.5 -72t-70.5 -39v-5q51 -10 80.5 -39t29.5 -77q0 -65 -51 -101.5t-164 -34.5zM237 273q43 0 69.5 19t26.5 52q0 38 -27.5 57t-72.5 19h-34v-147h38zM242 61q45 0 73 18.5t28 56.5q0 42 -31 60.5
t-78 18.5h-35v-154h43z" />
    <glyph glyph-name="C.c2sc" horiz-adv-x="527" 
d="M478 41q-32 -26 -72.5 -41t-100.5 -15t-109.5 17t-85 49t-55 78.5t-19.5 105.5q0 57 20 105t56.5 83t87 54.5t111.5 19.5q59 0 104 -14.5t80 -40.5l-47 -80q-23 32 -55 51.5t-74 19.5q-66 0 -104 -51t-38 -139q0 -89 40 -140.5t116 -51.5q41 0 66.5 11.5t48.5 31.5z" />
    <glyph glyph-name="d.aalt" horiz-adv-x="576" 
d="M68 1v480l190 3q137 2 209.5 -62.5t72.5 -179.5q0 -57 -19 -103t-55 -78t-89 -49t-120 -15zM245 65q73 0 113.5 45.5t40.5 128.5q0 84 -40.5 130.5t-114.5 46.5h-45v-351h46z" />
    <glyph glyph-name="e.aalt" horiz-adv-x="474" 
d="M68 0v482h364v-91q-32 13 -72.5 19t-83.5 6h-77v-142h159v-62h-159v-147h77q42 0 81 5.5t74 19.5v-90h-363z" />
    <glyph glyph-name="f.aalt" horiz-adv-x="458" 
d="M68 0v482h360v-92q-34 14 -74 20t-82 6h-73v-149h155v-62h-155v-205h-131z" />
    <glyph glyph-name="G.c2sc" horiz-adv-x="534" 
d="M367 223h120v-194q-38 -23 -79.5 -33.5t-102.5 -10.5q-60 0 -109.5 17t-85 49t-55 78.5t-19.5 105.5q0 57 20 105t56.5 83t87 54.5t111.5 19.5q59 0 104 -14.5t80 -40.5l-47 -80q-23 32 -55 51.5t-74 19.5q-66 0 -104 -51t-38 -138q0 -89 40.5 -142t115.5 -53
q11 0 18.5 1.5t15.5 3.5v169z" />
    <glyph glyph-name="h.aalt" horiz-adv-x="582" 
d="M382 0v211h-182v-211h-132v482h132v-205h182v205h132v-482h-132z" />
    <glyph glyph-name="i.aalt" horiz-adv-x="268" 
d="M68 0v482h132v-482h-132z" />
    <glyph glyph-name="j.aalt" horiz-adv-x="415" 
d="M215 482h132v-280q0 -53 -9.5 -93.5t-31.5 -68t-57.5 -41.5t-87.5 -14q-42 0 -81 16.5t-64 46.5l59 72q33 -71 85 -71q24 0 39.5 16t15.5 43v374z" />
    <glyph glyph-name="j.aalt.aalt" horiz-adv-x="268" 
d="M-91 -186l13 100q20 -18 39 -27t44 -9q63 0 63 89v515h132v-429q0 -122 -51 -180.5t-143 -58.5h-97z" />
    <glyph glyph-name="k.aalt" horiz-adv-x="534" 
d="M373 0l-128 216l-45 -45v-171h-132v482h132v-229l229 229h88l-182 -179l185 -303h-147z" />
    <glyph glyph-name="l.aalt" horiz-adv-x="451" 
d="M68 0v482h132v-417h73q43 0 82 5.5t74 19.5v-90h-361z" />
    <glyph glyph-name="m.aalt" horiz-adv-x="681" 
d="M491 0l-13 400h-8l-110 -385h-109l-108 385h-6l-16 -400h-61l21 482h167l90 -332h8l91 332h166l18 -482h-130z" />
    <glyph glyph-name="n.aalt" horiz-adv-x="574" 
d="M368 -4l-229 350h-8v-346h-63v479l134 7l232 -361h9v357h63v-478z" />
    <glyph glyph-name="O.c2sc" horiz-adv-x="597" 
d="M561 245q0 -58 -21.5 -105.5t-58 -82t-84.5 -53.5t-102 -19t-101 18t-82.5 51t-55.5 79.5t-20 103.5q0 58 21 105.5t57.5 82t84.5 53.5t102 19t101 -18t82.5 -51t56 -79.5t20.5 -103.5zM300 49q52 0 86 44.5t34 140.5q0 97 -34 148t-91 51q-50 0 -84 -45t-34 -140
q0 -94 33 -146.5t90 -52.5z" />
    <glyph glyph-name="p.aalt" horiz-adv-x="506" 
d="M68 0v481l179 3q111 2 171.5 -39.5t60.5 -117.5q0 -40 -18.5 -70t-50.5 -50t-74.5 -30t-90.5 -10q-8 0 -22.5 1t-22.5 2v-170h-132zM200 421v-191q16 -3 49 -3q40 0 64.5 26.5t24.5 69.5q0 42 -23.5 70t-61.5 28h-53z" />
    <glyph glyph-name="q.aalt" horiz-adv-x="597" 
d="M334 -12q-18 -3 -36 -3q-54 0 -101.5 18t-83.5 51.5t-56.5 80.5t-20.5 105q0 57 21 104.5t57 81.5t84 52.5t101 18.5q54 0 101.5 -18t83.5 -51.5t56.5 -80.5t20.5 -105q0 -41 -11 -77t-31 -66t-47.5 -52.5t-60.5 -37.5l154 -118l-41 -54zM299 49q52 0 86.5 46t34.5 144
q0 100 -35 147t-87 47t-86.5 -46t-34.5 -145t35 -146t87 -47z" />
    <glyph glyph-name="r.aalt" horiz-adv-x="532" 
d="M361 0l-106 188l-55 3v-191h-132v481l231 4q43 1 77 -9.5t57 -28.5t35 -43t12 -53q0 -48 -27 -83.5t-71 -52.5l132 -215h-153zM200 421v-164q10 -2 20 -3t21 -1q43 0 70.5 22.5t27.5 60.5t-24.5 61.5t-72.5 23.5h-42z" />
    <glyph glyph-name="s.aalt" horiz-adv-x="483" 
d="M75 112q32 -33 72.5 -48t87.5 -15q46 0 69.5 17.5t23.5 41.5q0 27 -22.5 43.5t-70.5 29.5q-54 15 -90.5 31.5t-59.5 36t-33 44t-10 54.5q0 66 50.5 107.5t147.5 42.5q48 0 98.5 -9t88.5 -28l-34 -86q-30 26 -68.5 42.5t-84.5 16.5q-45 0 -65 -14t-20 -36q0 -25 22 -40
t68 -28q53 -15 90.5 -31.5t61 -36.5t34 -45.5t10.5 -59.5q0 -33 -14 -62t-41.5 -50t-69.5 -33t-97 -12q-46 0 -92 9.5t-88 31.5z" />
    <glyph glyph-name="t.aalt" horiz-adv-x="510" 
d="M189 0v416h-22q-41 0 -80 -7t-65 -18v91h466v-91q-26 11 -64.5 18t-80.5 7h-22v-416h-132z" />
    <glyph glyph-name="u.aalt" horiz-adv-x="544" 
d="M416 482h64v-318q0 -43 -16 -76.5t-43.5 -56t-65.5 -34.5t-83 -12t-83 12t-65.5 34.5t-43.5 56t-16 76.5v318h132v-295q0 -63 28.5 -93.5t82.5 -30.5q53 0 81 30.5t28 93.5v295z" />
    <glyph glyph-name="v.aalt" horiz-adv-x="505" 
d="M199 -4l-181 486h139l126 -353h8l129 353h67l-182 -486h-106z" />
    <glyph glyph-name="w.aalt" horiz-adv-x="785" 
d="M481 -4l-84 273h-9l-84 -273h-127l-159 486h137l117 -372h9l82 263l-34 109h133l111 -372h8l117 372h69l-159 -486h-127z" />
    <glyph glyph-name="x.aalt" horiz-adv-x="530" 
d="M354 0l-117 178l-136 -178h-80l175 221l-172 261h155l116 -177l135 177h78l-172 -221l173 -261h-155z" />
    <glyph glyph-name="y.aalt" horiz-adv-x="521" 
d="M195 0v193l-177 289h149l128 -217h7l130 217h71l-176 -289v-193h-132z" />
    <glyph glyph-name="z.aalt" horiz-adv-x="492" 
d="M28 0v51l273 367h-101q-84 0 -156 -27v91h420v-51l-274 -368h108q82 0 155 28v-91h-425z" />
    <glyph glyph-name="uniFB01.aalt" horiz-adv-x="728" 
d="M68 0v482h360v-92q-34 14 -74 20t-82 6h-73v-149h155v-62h-155v-205h-131zM528 0v482h132v-482h-132z" />
    <glyph glyph-name="uniFB02.aalt" horiz-adv-x="911" 
d="M68 0v482h360v-92q-34 14 -74 20t-82 6h-73v-149h155v-62h-155v-205h-131zM528 0v482h132v-418h32q36 0 63.5 2.5t51 8t43 13t39.5 17.5v-105h-361z" />
    <glyph glyph-name="uniFB00.aalt" horiz-adv-x="918" 
d="M68 0v482h360v-92q-34 14 -74 20t-82 6h-73v-149h155v-62h-155v-205h-131zM528 0v482h360v-92q-35 14 -74.5 20t-81.5 6h-73v-149h155v-62h-155v-205h-131z" />
    <glyph glyph-name="uniFB03.aalt" horiz-adv-x="1187" 
d="M68 0v482h360v-92q-34 14 -74 20t-82 6h-73v-149h155v-62h-155v-205h-131zM528 0v482h360v-92q-35 14 -74.5 20t-81.5 6h-73v-149h155v-62h-155v-205h-131zM988 0v482h131v-482h-131z" />
    <glyph glyph-name="uniFB04.aalt" horiz-adv-x="1371" 
d="M68 0v482h360v-92q-34 14 -74 20t-82 6h-73v-149h155v-62h-155v-205h-131zM528 0v482h360v-92q-35 14 -74.5 20t-81.5 6h-73v-149h155v-62h-155v-205h-131zM988 0v482h132v-418h32q36 0 63.5 2.5t51 8t43 13t39.5 17.5v-105h-361z" />
    <glyph glyph-name="germandbls.aalt" horiz-adv-x="972" 
d="M82 107q31 -31 70.5 -44.5t86.5 -13.5q43 0 66 16.5t23 40.5q0 27 -22.5 44.5t-70.5 30.5q-54 15 -90.5 31.5t-59.5 36t-33 44t-10 54.5q0 66 51 107.5t148 42.5q48 0 98 -9t88 -28l-34 -86q-30 26 -68.5 42.5t-84.5 16.5q-45 0 -65 -14t-20 -36q0 -25 22 -40t68 -28
q53 -15 90.5 -31t61 -36t34 -45.5t10.5 -59.5q0 -33 -14 -62t-41 -50.5t-68 -33.5t-95 -12q-46 0 -91.5 9t-84.5 27zM571 107q31 -31 70.5 -44.5t86.5 -13.5q43 0 66 16.5t23 40.5q0 27 -22.5 44.5t-70.5 30.5q-54 15 -90.5 31.5t-59.5 36t-33 44t-10 54.5q0 66 51 107.5
t148 42.5q48 0 98 -9t88 -28l-34 -86q-30 26 -68.5 42.5t-84.5 16.5q-45 0 -65 -14t-20 -36q0 -25 22 -40t68 -28q53 -15 90.5 -31t61 -36t34 -45.5t10.5 -59.5q0 -33 -14 -62t-41 -50.5t-68 -33.5t-95 -12q-46 0 -91.5 9t-84.5 27z" />
    <glyph glyph-name="Agrave.aalt" horiz-adv-x="520" 
d="M367 0l-45 132h-189l-48 -132h-67l160 437v31l149 28l175 -496h-135zM234 385h-8l-73 -197h149zM241 554l-175 177h138l99 -177h-62z" />
    <glyph glyph-name="Aacute.aalt" horiz-adv-x="520" 
d="M367 0l-45 132h-189l-48 -132h-67l160 437v31l149 28l175 -496h-135zM234 385h-8l-73 -197h149zM226 554l98 177h138l-175 -177h-61z" />
    <glyph glyph-name="Acircumflex.aalt" horiz-adv-x="520" 
d="M367 0l-45 132h-189l-48 -132h-67l160 437v31l149 28l175 -496h-135zM234 385h-8l-73 -197h149zM371 534l-108 110h-5l-108 -110h-57l130 204h75l129 -204h-56z" />
    <glyph glyph-name="Atilde.aalt" horiz-adv-x="520" 
d="M367 0l-45 132h-189l-48 -132h-67l160 437v31l149 28l175 -496h-135zM234 385h-8l-73 -197h149zM441 706q-6 -77 -32.5 -109t-77.5 -32q-22 0 -43 11t-40.5 24t-36.5 24t-31 11q-19 0 -28 -14.5t-15 -46.5h-58q9 77 36 109t74 32q22 0 43 -11t40.5 -23.5t36.5 -23.5
t31 -11q19 0 30.5 14t17.5 46h53z" />
    <glyph glyph-name="Adieresis.aalt" horiz-adv-x="520" 
d="M367 0l-45 132h-189l-48 -132h-67l160 437v31l149 28l175 -496h-135zM234 385h-8l-73 -197h149zM151 567q-28 0 -47.5 21t-19.5 50t19.5 50t47.5 21t47.5 -21t19.5 -50t-19.5 -50t-47.5 -21zM370 567q-29 0 -48.5 21t-19.5 50t19.5 50t48.5 21q28 0 47.5 -21t19.5 -50
t-19.5 -50t-47.5 -21z" />
    <glyph glyph-name="Aring.aalt" horiz-adv-x="520" 
d="M367 0l-45 132h-189l-48 -132h-67l168 454q-18 15 -28 37.5t-10 48.5q0 46 30 79.5t83 33.5q26 0 46.5 -9t35 -24.5t22.5 -36t8 -43.5q0 -50 -32 -82l161 -458h-135zM261 475q29 0 45 20t16 45q0 24 -16 44t-45 20t-45.5 -20t-16.5 -44q0 -25 16.5 -45t45.5 -20zM234 386
h-8l-73 -198h149z" />
    <glyph glyph-name="Aringacute.aalt" horiz-adv-x="520" 
d="M215 682l99 177h138l-175 -177h-62zM367 0l-45 132h-189l-48 -132h-67l168 454q-18 15 -28 37.5t-10 48.5q0 46 30 79.5t83 33.5q26 0 46.5 -9t35 -24.5t22.5 -36t8 -43.5q0 -50 -32 -82l161 -458h-135zM261 475q29 0 45 20t16 45q0 24 -16 44t-45 20t-45.5 -20
t-16.5 -44q0 -25 16.5 -45t45.5 -20zM234 386h-8l-73 -198h149z" />
    <glyph glyph-name="Amacron.aalt" horiz-adv-x="520" 
d="M367 0l-45 132h-189l-48 -132h-67l160 437v31l149 28l175 -496h-135zM234 385h-8l-73 -197h149zM108 580v66h305v-66h-305z" />
    <glyph glyph-name="Abreve.aalt" horiz-adv-x="520" 
d="M367 0l-45 132h-189l-48 -132h-67l160 437v31l149 28l175 -496h-135zM234 385h-8l-73 -197h149zM422 731q-3 -46 -16.5 -78.5t-35 -53.5t-50 -31t-60.5 -10t-60 10t-49.5 31t-35 53.5t-16.5 78.5h64q8 -52 31.5 -74t65.5 -22q43 0 66 22t32 74h64z" />
    <glyph glyph-name="Aogonek.aalt" horiz-adv-x="520" 
d="M570 -184q-17 -26 -47.5 -43t-78.5 -17q-51 0 -81 27t-30 75q0 39 27.5 75.5t77.5 66.5h-71l-45 132h-189l-48 -132h-67l160 437v31l149 28l175 -496q-33 -29 -51 -55.5t-18 -58.5q0 -26 15 -43t41 -17q20 0 35 8t26 22zM234 385h-8l-73 -197h149z" />
    <glyph glyph-name="AE.aalt" horiz-adv-x="751" 
d="M346 0v146h-177l-88 -146h-75l293 483h410v-91q-63 25 -155 25h-77v-143h159v-62h-159v-147h76q42 0 81 5.5t75 19.5v-90h-363zM346 422h-11l-131 -217h142v217z" />
    <glyph glyph-name="AEacute.aalt" horiz-adv-x="751" 
d="M345 422h-10q-33 -54 -66 -109t-65 -109h141v218zM345 0v145h-177l-87 -145h-75l292 482h411v-90q-67 25 -156 25h-77v-143h159v-63h-159v-146h77q42 0 81 5.5t74 19.5v-90h-363zM413 554l98 177h138l-175 -177h-61z" />
    <glyph glyph-name="Ccedilla.aalt" horiz-adv-x="527" 
d="M196 -228q76 0 110.5 16.5t34.5 43.5q0 19 -20 30t-60 11q-19 0 -36 -1t-36 -5v37l80 83q-53 5 -95.5 24t-73.5 50.5t-47.5 75t-16.5 98.5q0 57 20 105t56.5 83t87 54.5t111.5 19.5q59 0 104 -14.5t80 -40.5l-47 -80q-23 32 -55 51.5t-74 19.5q-66 0 -104 -51t-38 -139
q0 -89 40 -140.5t116 -51.5q41 0 66.5 11.5t48.5 31.5l30 -53q-28 -23 -63 -37t-83 -18l-42 -43q66 0 105 -25.5t39 -69.5q0 -57 -63 -92t-175 -35v51z" />
    <glyph glyph-name="Cacute.aalt" horiz-adv-x="527" 
d="M478 41q-32 -26 -72.5 -41t-100.5 -15t-109.5 17t-85 49t-55 78.5t-19.5 105.5q0 57 20 105t56.5 83t87 54.5t111.5 19.5q59 0 104 -14.5t80 -40.5l-47 -80q-23 32 -55 51.5t-74 19.5q-66 0 -104 -51t-38 -139q0 -89 40 -140.5t116 -51.5q41 0 66.5 11.5t48.5 31.5z
M248 554l98 177h138l-175 -177h-61z" />
    <glyph glyph-name="Ccircumflex.aalt" horiz-adv-x="527" 
d="M478 41q-32 -26 -72.5 -41t-100.5 -15t-109.5 17t-85 49t-55 78.5t-19.5 105.5q0 57 20 105t56.5 83t87 54.5t111.5 19.5q59 0 104 -14.5t80 -40.5l-47 -80q-23 32 -55 51.5t-74 19.5q-66 0 -104 -51t-38 -139q0 -89 40 -140.5t116 -51.5q41 0 66.5 11.5t48.5 31.5z
M413 534l-108 110h-5l-108 -110h-57l130 204h75l129 -204h-56z" />
    <glyph glyph-name="Cdotaccent.aalt" horiz-adv-x="527" 
d="M478 41q-32 -26 -72.5 -41t-100.5 -15t-109.5 17t-85 49t-55 78.5t-19.5 105.5q0 57 20 105t56.5 83t87 54.5t111.5 19.5q59 0 104 -14.5t80 -40.5l-47 -80q-23 32 -55 51.5t-74 19.5q-66 0 -104 -51t-38 -139q0 -89 40 -140.5t116 -51.5q41 0 66.5 11.5t48.5 31.5z
M305 567q-29 0 -48.5 21t-19.5 50t19.5 50t48.5 21q28 0 47.5 -21t19.5 -50t-19.5 -50t-47.5 -21z" />
    <glyph glyph-name="Ccaron.aalt" horiz-adv-x="527" 
d="M478 41q-32 -26 -72.5 -41t-100.5 -15t-109.5 17t-85 49t-55 78.5t-19.5 105.5q0 57 20 105t56.5 83t87 54.5t111.5 19.5q59 0 104 -14.5t80 -40.5l-47 -80q-23 32 -55 51.5t-74 19.5q-66 0 -104 -51t-38 -139q0 -89 40 -140.5t116 -51.5q41 0 66.5 11.5t48.5 31.5z
M267 554l-129 204h56l108 -110h5l109 110h56l-130 -204h-75z" />
    <glyph glyph-name="Dcaron.aalt" horiz-adv-x="576" 
d="M68 1v480l190 3q137 2 209.5 -62.5t72.5 -179.5q0 -57 -19 -103t-55 -78t-89 -49t-120 -15zM245 65q73 0 113.5 45.5t40.5 128.5q0 84 -40.5 130.5t-114.5 46.5h-45v-351h46zM215 554l-129 204h56l108 -110h5l109 110h56l-130 -204h-75z" />
    <glyph glyph-name="Eth.aalt" horiz-adv-x="583" 
d="M75 1v214h-62v55h62v211l190 3q137 2 209.5 -62.5t72.5 -179.5q0 -57 -19 -103t-55.5 -78t-89 -49t-119.5 -15zM252 65q74 0 114 45.5t40 128.5q0 84 -41 130.5t-114 46.5h-45v-146h99v-55h-99v-150h46z" />
    <glyph glyph-name="Dcroat.aalt" horiz-adv-x="583" 
d="M75 1v214h-62v55h62v211l190 3q137 2 209.5 -62.5t72.5 -179.5q0 -57 -19 -103t-55.5 -78t-89 -49t-119.5 -15zM252 65q74 0 114 45.5t40 128.5q0 84 -41 130.5t-114 46.5h-45v-146h99v-55h-99v-150h46z" />
    <glyph glyph-name="Egrave.aalt" horiz-adv-x="474" 
d="M68 0v482h364v-91q-32 13 -72.5 19t-83.5 6h-77v-142h159v-62h-159v-147h77q42 0 81 5.5t74 19.5v-90h-363zM250 554l-175 177h138l99 -177h-62z" />
    <glyph glyph-name="Eacute.aalt" horiz-adv-x="474" 
d="M68 0v482h364v-91q-32 13 -72.5 19t-83.5 6h-77v-142h159v-62h-159v-147h77q42 0 81 5.5t74 19.5v-90h-363zM191 554l98 177h138l-175 -177h-61z" />
    <glyph glyph-name="Ecircumflex.aalt" horiz-adv-x="474" 
d="M68 0v482h364v-91q-32 13 -72.5 19t-83.5 6h-77v-142h159v-62h-159v-147h77q42 0 81 5.5t74 19.5v-90h-363zM362 534l-108 110h-5l-108 -110h-57l130 204h75l129 -204h-56z" />
    <glyph glyph-name="Edieresis.aalt" horiz-adv-x="474" 
d="M68 0v482h364v-91q-32 13 -72.5 19t-83.5 6h-77v-142h159v-62h-159v-147h77q42 0 81 5.5t74 19.5v-90h-363zM143 567q-28 0 -47.5 21t-19.5 50t19.5 50t47.5 21t47.5 -21t19.5 -50t-19.5 -50t-47.5 -21zM362 567q-29 0 -48.5 21t-19.5 50t19.5 50t48.5 21q28 0 47.5 -21
t19.5 -50t-19.5 -50t-47.5 -21z" />
    <glyph glyph-name="Emacron.aalt" horiz-adv-x="482" 
d="M68 0v482h364v-91q-32 13 -72.5 19t-83.5 6h-77v-142h159v-62h-159v-147h77q42 0 81 5.5t74 19.5v-90h-363zM98 580v66h305v-66h-305z" />
    <glyph glyph-name="Ebreve.aalt" horiz-adv-x="474" 
d="M68 0v482h364v-91q-32 13 -72.5 19t-83.5 6h-77v-142h159v-62h-159v-147h77q42 0 81 5.5t74 19.5v-90h-363zM412 731q-3 -46 -16.5 -78.5t-35 -53.5t-50 -31t-60.5 -10t-60 10t-49.5 31t-35 53.5t-16.5 78.5h64q8 -52 31.5 -74t65.5 -22q43 0 66 22t32 74h64z" />
    <glyph glyph-name="Edotaccent.aalt" horiz-adv-x="474" 
d="M68 0v482h364v-91q-32 13 -72.5 19t-83.5 6h-77v-142h159v-62h-159v-147h77q42 0 81 5.5t74 19.5v-90h-363zM268 567q-29 0 -48.5 21t-19.5 50t19.5 50t48.5 21q28 0 47.5 -21t19.5 -50t-19.5 -50t-47.5 -21z" />
    <glyph glyph-name="Eogonek.aalt" horiz-adv-x="474" 
d="M446 -186q-17 -26 -47.5 -43t-77.5 -17q-51 0 -81.5 27t-30.5 75q0 38 27 76t75 68h-243v482h364v-91q-32 13 -72.5 19t-83.5 6h-77v-142h159v-62h-159v-147h77q42 0 81 5.5t74 19.5v-90h-52q-34 -27 -52 -57.5t-18 -58.5q0 -26 15 -43t41 -17q20 0 35 8.5t27 21.5z" />
    <glyph glyph-name="Ecaron.aalt" horiz-adv-x="474" 
d="M68 0v482h364v-91q-32 13 -72.5 19t-83.5 6h-77v-142h159v-62h-159v-147h77q42 0 81 5.5t74 19.5v-90h-363zM209 554l-129 204h56l108 -110h5l109 110h56l-130 -204h-75z" />
    <glyph glyph-name="Gcircumflex.aalt" horiz-adv-x="534" 
d="M367 223h120v-194q-38 -23 -79.5 -33.5t-102.5 -10.5q-60 0 -109.5 17t-85 49t-55 78.5t-19.5 105.5q0 57 20 105t56.5 83t87 54.5t111.5 19.5q59 0 104 -14.5t80 -40.5l-47 -80q-23 32 -55 51.5t-74 19.5q-66 0 -104 -51t-38 -138q0 -89 40.5 -142t115.5 -53
q11 0 18.5 1.5t15.5 3.5v169zM411 534l-108 110h-5l-108 -110h-57l130 204h75l129 -204h-56z" />
    <glyph glyph-name="Gbreve.aalt" horiz-adv-x="534" 
d="M367 223h120v-194q-38 -23 -79.5 -33.5t-102.5 -10.5q-60 0 -109.5 17t-85 49t-55 78.5t-19.5 105.5q0 57 20 105t56.5 83t87 54.5t111.5 19.5q59 0 104 -14.5t80 -40.5l-47 -80q-23 32 -55 51.5t-74 19.5q-66 0 -104 -51t-38 -138q0 -89 40.5 -142t115.5 -53
q11 0 18.5 1.5t15.5 3.5v169zM467 731q-3 -46 -16.5 -78.5t-35 -53.5t-50 -31t-60.5 -10t-60 10t-49.5 31t-35 53.5t-16.5 78.5h64q8 -52 31.5 -74t65.5 -22q43 0 66 22t32 74h64z" />
    <glyph glyph-name="Gdotaccent.aalt" horiz-adv-x="534" 
d="M367 223h120v-194q-38 -23 -79.5 -33.5t-102.5 -10.5q-60 0 -109.5 17t-85 49t-55 78.5t-19.5 105.5q0 57 20 105t56.5 83t87 54.5t111.5 19.5q59 0 104 -14.5t80 -40.5l-47 -80q-23 32 -55 51.5t-74 19.5q-66 0 -104 -51t-38 -138q0 -89 40.5 -142t115.5 -53
q11 0 18.5 1.5t15.5 3.5v169zM305 567q-29 0 -48.5 21t-19.5 50t19.5 50t48.5 21q28 0 47.5 -21t19.5 -50t-19.5 -50t-47.5 -21z" />
    <glyph glyph-name="Gcommaaccent.aalt" horiz-adv-x="534" 
d="M237 -264q30 14 49 33.5t19 48.5q0 26 -20 42.5t-55 24.5q0 26 19 45.5t51 19.5q39 0 64 -28t25 -67q0 -52 -37.5 -90t-98.5 -64zM367 223h120v-194q-38 -23 -79.5 -33.5t-102.5 -10.5q-60 0 -109.5 17t-85 49t-55 78.5t-19.5 105.5q0 57 20 105t56.5 83t87 54.5
t111.5 19.5q59 0 104 -14.5t80 -40.5l-47 -80q-23 32 -55 51.5t-74 19.5q-66 0 -104 -51t-38 -138q0 -89 40.5 -142t115.5 -53q11 0 18.5 1.5t15.5 3.5v169z" />
    <glyph glyph-name="Hcircumflex.aalt" horiz-adv-x="582" 
d="M382 0v211h-182v-211h-132v482h132v-205h182v205h132v-482h-132zM402 534l-108 110h-5l-108 -110h-57l130 204h75l129 -204h-56z" />
    <glyph glyph-name="Hbar.aalt" horiz-adv-x="613" 
d="M398 0v174h-182v-174h-132v320h-77v54h77v108h132v-108h182v108h132v-108h76v-54h-76v-320h-132zM398 320h-182v-81h182v81z" />
    <glyph glyph-name="Igrave.aalt" horiz-adv-x="268" 
d="M68 0v482h132v-482h-132zM120 554l-175 177h138l99 -177h-62z" />
    <glyph glyph-name="Iacute.aalt" horiz-adv-x="268" 
d="M68 0v482h132v-482h-132zM87 554l98 177h138l-175 -177h-61z" />
    <glyph glyph-name="Icircumflex.aalt" horiz-adv-x="268" 
d="M68 0v482h132v-482h-132zM245 534l-108 110h-5l-108 -110h-57l130 204h75l129 -204h-56z" />
    <glyph glyph-name="Idieresis.aalt" horiz-adv-x="268" 
d="M68 0v482h132v-482h-132zM25 567q-28 0 -47.5 21t-19.5 50t19.5 50t47.5 21t47.5 -21t19.5 -50t-19.5 -50t-47.5 -21zM244 567q-29 0 -48.5 21t-19.5 50t19.5 50t48.5 21q28 0 47.5 -21t19.5 -50t-19.5 -50t-47.5 -21z" />
    <glyph glyph-name="Imacron.aalt" horiz-adv-x="268" 
d="M68 0v482h132v-482h-132zM-18 580v66h305v-66h-305z" />
    <glyph glyph-name="Ibreve.aalt" horiz-adv-x="268" 
d="M68 0v482h132v-482h-132zM296 731q-3 -46 -16.5 -78.5t-35 -53.5t-50 -31t-60.5 -10t-60 10t-49.5 31t-35 53.5t-16.5 78.5h64q8 -52 31.5 -74t65.5 -22q43 0 66 22t32 74h64z" />
    <glyph glyph-name="Iogonek.aalt" horiz-adv-x="268" 
d="M267 -185q-17 -26 -47.5 -43t-77.5 -17q-51 0 -81.5 27t-30.5 75q0 40 28 77t79 66h-69v482h132v-482q-70 -58 -70 -115q0 -26 15 -43t41 -17q20 0 35 8.5t26 21.5z" />
    <glyph glyph-name="Idotaccent.aalt" horiz-adv-x="268" 
d="M68 0v482h132v-482h-132zM135 567q-29 0 -48.5 21t-19.5 50t19.5 50t48.5 21q28 0 47.5 -21t19.5 -50t-19.5 -50t-47.5 -21z" />
    <glyph glyph-name="dotlessi.aalt" horiz-adv-x="268" 
d="M68 0v482h132v-482h-132z" />
    <glyph glyph-name="jcircumflex.aalt" horiz-adv-x="415" 
d="M215 482h132v-280q0 -53 -9.5 -93.5t-31.5 -68t-57.5 -41.5t-87.5 -14q-42 0 -81 16.5t-64 46.5l59 72q33 -71 85 -71q24 0 39.5 16t15.5 43v374zM389 534l-108 110h-5l-108 -110h-57l130 204h75l129 -204h-56z" />
    <glyph glyph-name="jcircumflex.aalt.aalt" horiz-adv-x="268" 
d="M-91 -186l13 100q20 -18 39 -27t44 -9q63 0 63 89v515h132v-429q0 -122 -51 -180.5t-143 -58.5h-97zM245 534l-108 110h-5l-108 -110h-57l130 204h75l129 -204h-56z" />
    <glyph glyph-name="uni0237.aalt" horiz-adv-x="415" 
d="M215 482h132v-280q0 -53 -9.5 -93.5t-31.5 -68t-57.5 -41.5t-87.5 -14q-42 0 -81 16.5t-64 46.5l59 72q33 -71 85 -71q24 0 39.5 16t15.5 43v374z" />
    <glyph glyph-name="Kcommaaccent.aalt" horiz-adv-x="534" 
d="M218 -264q31 14 50 33.5t19 48.5q0 26 -20.5 42.5t-55.5 24.5q0 26 19.5 45.5t51.5 19.5q39 0 64 -28t25 -67q0 -52 -37.5 -90t-98.5 -64zM373 0l-128 216l-45 -45v-171h-132v482h132v-229l229 229h88l-182 -179l185 -303h-147z" />
    <glyph glyph-name="Lacute.aalt" horiz-adv-x="451" 
d="M68 0v482h132v-417h73q43 0 82 5.5t74 19.5v-90h-361zM87 554l98 177h138l-175 -177h-61z" />
    <glyph glyph-name="Lcommaaccent.aalt" horiz-adv-x="451" 
d="M177 -264q30 14 49.5 33.5t19.5 48.5q0 26 -20.5 42.5t-55.5 24.5q0 26 19.5 45.5t51.5 19.5q39 0 63.5 -28t24.5 -67q0 -52 -37 -90t-98 -64zM68 0v482h132v-417h73q43 0 82 5.5t74 19.5v-90h-361z" />
    <glyph glyph-name="Lcaron.aalt" horiz-adv-x="600" 
d="M402 224q45 31 66 61.5t21 68.5q0 32 -23 54t-65 37q0 15 5.5 29t16 25t26 17.5t34.5 6.5q23 0 42.5 -9t34 -25t22.5 -37.5t8 -45.5q0 -64 -44.5 -118.5t-116.5 -99.5zM68 0v482h132v-417h73q43 0 82 5.5t74 19.5v-90h-361z" />
    <glyph glyph-name="Ldot.aalt" horiz-adv-x="570" 
d="M560 253q0 -33 -23.5 -57t-57.5 -24t-57.5 23.5t-23.5 57.5t23.5 58t57.5 24t57.5 -24t23.5 -58zM68 0v482h132v-417h73q43 0 82 5.5t74 19.5v-90h-361z" />
    <glyph glyph-name="Lslash.aalt" horiz-adv-x="463" 
d="M80 0v185l-67 -18v52l67 19v244h132v-208l95 26v-52l-95 -27v-156h74q42 0 81 5.5t74 19.5v-90h-361z" />
    <glyph glyph-name="Ntilde.aalt" horiz-adv-x="574" 
d="M368 -4l-229 350h-8v-346h-63v479l134 7l232 -361h9v357h63v-478zM471 706q-6 -77 -32.5 -109t-77.5 -32q-22 0 -43 11t-40.5 24t-36.5 24t-31 11q-19 0 -28 -14.5t-15 -46.5h-58q9 77 36 109t74 32q22 0 43 -11t40.5 -23.5t36.5 -23.5t31 -11q19 0 30.5 14t17.5 46h53z
" />
    <glyph glyph-name="Nacute.aalt" horiz-adv-x="574" 
d="M368 -4l-229 350h-8v-346h-63v479l134 7l232 -361h9v357h63v-478zM255 554l98 177h138l-175 -177h-61z" />
    <glyph glyph-name="Ncommaaccent.aalt" horiz-adv-x="574" 
d="M207 -264q30 14 49 33.5t19 48.5q0 26 -20.5 42.5t-55.5 24.5q0 26 19.5 45.5t51.5 19.5q39 0 64 -28t25 -67q0 -52 -37.5 -90t-98.5 -64zM368 -4l-229 350h-8v-346h-63v479l134 7l232 -361h9v357h63v-478z" />
    <glyph glyph-name="Ncaron.aalt" horiz-adv-x="574" 
d="M368 -4l-229 350h-8v-346h-63v479l134 7l232 -361h9v357h63v-478zM267 554l-129 204h56l108 -110h5l109 110h56l-130 -204h-75z" />
    <glyph glyph-name="Ograve.aalt" horiz-adv-x="597" 
d="M561 245q0 -58 -21.5 -105.5t-58 -82t-84.5 -53.5t-102 -19t-101 18t-82.5 51t-55.5 79.5t-20 103.5q0 58 21 105.5t57.5 82t84.5 53.5t102 19t101 -18t82.5 -51t56 -79.5t20.5 -103.5zM300 49q52 0 86 44.5t34 140.5q0 97 -34 148t-91 51q-50 0 -84 -45t-34 -140
q0 -94 33 -146.5t90 -52.5zM283 554l-175 177h138l99 -177h-62z" />
    <glyph glyph-name="Oacute.aalt" horiz-adv-x="597" 
d="M561 245q0 -58 -21.5 -105.5t-58 -82t-84.5 -53.5t-102 -19t-101 18t-82.5 51t-55.5 79.5t-20 103.5q0 58 21 105.5t57.5 82t84.5 53.5t102 19t101 -18t82.5 -51t56 -79.5t20.5 -103.5zM300 49q52 0 86 44.5t34 140.5q0 97 -34 148t-91 51q-50 0 -84 -45t-34 -140
q0 -94 33 -146.5t90 -52.5zM255 554l98 177h138l-175 -177h-61z" />
    <glyph glyph-name="Ocircumflex.aalt" horiz-adv-x="597" 
d="M561 245q0 -58 -21.5 -105.5t-58 -82t-84.5 -53.5t-102 -19t-101 18t-82.5 51t-55.5 79.5t-20 103.5q0 58 21 105.5t57.5 82t84.5 53.5t102 19t101 -18t82.5 -51t56 -79.5t20.5 -103.5zM300 49q52 0 86 44.5t34 140.5q0 97 -34 148t-91 51q-50 0 -84 -45t-34 -140
q0 -94 33 -146.5t90 -52.5zM409 534l-108 110h-5l-108 -110h-57l130 204h75l129 -204h-56z" />
    <glyph glyph-name="Otilde.aalt" horiz-adv-x="597" 
d="M561 245q0 -58 -21.5 -105.5t-58 -82t-84.5 -53.5t-102 -19t-101 18t-82.5 51t-55.5 79.5t-20 103.5q0 58 21 105.5t57.5 82t84.5 53.5t102 19t101 -18t82.5 -51t56 -79.5t20.5 -103.5zM300 49q52 0 86 44.5t34 140.5q0 97 -34 148t-91 51q-50 0 -84 -45t-34 -140
q0 -94 33 -146.5t90 -52.5zM479 706q-6 -77 -32.5 -109t-77.5 -32q-22 0 -43 11t-40.5 24t-36.5 24t-31 11q-19 0 -28 -14.5t-15 -46.5h-58q9 77 36 109t74 32q22 0 43 -11t40.5 -23.5t36.5 -23.5t31 -11q19 0 30.5 14t17.5 46h53z" />
    <glyph glyph-name="Odieresis.aalt" horiz-adv-x="597" 
d="M561 245q0 -58 -21.5 -105.5t-58 -82t-84.5 -53.5t-102 -19t-101 18t-82.5 51t-55.5 79.5t-20 103.5q0 58 21 105.5t57.5 82t84.5 53.5t102 19t101 -18t82.5 -51t56 -79.5t20.5 -103.5zM300 49q52 0 86 44.5t34 140.5q0 97 -34 148t-91 51q-50 0 -84 -45t-34 -140
q0 -94 33 -146.5t90 -52.5zM189 567q-28 0 -47.5 21t-19.5 50t19.5 50t47.5 21t47.5 -21t19.5 -50t-19.5 -50t-47.5 -21zM408 567q-29 0 -48.5 21t-19.5 50t19.5 50t48.5 21q28 0 47.5 -21t19.5 -50t-19.5 -50t-47.5 -21z" />
    <glyph glyph-name="Omacron.aalt" horiz-adv-x="597" 
d="M561 245q0 -58 -21.5 -105.5t-58 -82t-84.5 -53.5t-102 -19t-101 18t-82.5 51t-55.5 79.5t-20 103.5q0 58 21 105.5t57.5 82t84.5 53.5t102 19t101 -18t82.5 -51t56 -79.5t20.5 -103.5zM300 49q52 0 86 44.5t34 140.5q0 97 -34 148t-91 51q-50 0 -84 -45t-34 -140
q0 -94 33 -146.5t90 -52.5zM146 580v66h305v-66h-305z" />
    <glyph glyph-name="Obreve.aalt" horiz-adv-x="597" 
d="M561 245q0 -58 -21.5 -105.5t-58 -82t-84.5 -53.5t-102 -19t-101 18t-82.5 51t-55.5 79.5t-20 103.5q0 58 21 105.5t57.5 82t84.5 53.5t102 19t101 -18t82.5 -51t56 -79.5t20.5 -103.5zM300 49q52 0 86 44.5t34 140.5q0 97 -34 148t-91 51q-50 0 -84 -45t-34 -140
q0 -94 33 -146.5t90 -52.5zM460 731q-3 -46 -16.5 -78.5t-35 -53.5t-50 -31t-60.5 -10t-60 10t-49.5 31t-35 53.5t-16.5 78.5h64q8 -52 31.5 -74t65.5 -22q43 0 66 22t32 74h64z" />
    <glyph glyph-name="Ohungarumlaut.aalt" horiz-adv-x="597" 
d="M561 245q0 -58 -21.5 -105.5t-58 -82t-84.5 -53.5t-102 -19t-101 18t-82.5 51t-55.5 79.5t-20 103.5q0 58 21 105.5t57.5 82t84.5 53.5t102 19t101 -18t82.5 -51t56 -79.5t20.5 -103.5zM300 49q52 0 86 44.5t34 140.5q0 97 -34 148t-91 51q-50 0 -84 -45t-34 -140
q0 -94 33 -146.5t90 -52.5zM375 554l96 177h133l-172 -177h-57zM189 554l96 177h133l-173 -177h-56z" />
    <glyph glyph-name="Oslash.aalt" horiz-adv-x="604" 
d="M80 -95l70 120q-52 32 -83 86.5t-31 125.5q0 58 22 105.5t58.5 82t85.5 53.5t103 19q29 0 55.5 -4.5t51.5 -15.5l68 119l44 -20l-70 -120q51 -32 82.5 -86t31.5 -125q0 -58 -22 -105.5t-59.5 -82t-86 -53.5t-102.5 -19q-28 0 -54.5 5t-50.5 14l-69 -119zM372 405
q-31 28 -73 28q-51 0 -86.5 -45t-35.5 -140q0 -41 7 -73t20 -58zM234 75q28 -27 70 -27q51 0 87 45t36 141q0 41 -7 73.5t-20 55.5z" />
    <glyph glyph-name="Oslashacute.aalt" horiz-adv-x="604" 
d="M80 -95l70 120q-52 32 -83 86.5t-31 125.5q0 58 22 105.5t58.5 82t85.5 53.5t103 19q29 0 55.5 -4.5t51.5 -15.5l68 119l44 -20l-70 -120q51 -32 82.5 -86t31.5 -125q0 -58 -22 -105.5t-59.5 -82t-86 -53.5t-102.5 -19q-28 0 -54.5 5t-50.5 14l-69 -119zM372 405
q-31 28 -73 28q-51 0 -86.5 -45t-35.5 -140q0 -41 7 -73t20 -58zM234 75q28 -27 70 -27q51 0 87 45t36 141q0 41 -7 73.5t-20 55.5zM255 554l98 177h138l-175 -177h-61z" />
    <glyph glyph-name="OE.aalt" horiz-adv-x="786" 
d="M319 0q-138 0 -210.5 62.5t-72.5 177.5t73.5 178.5t209.5 63.5h425v-91q-32 13 -72.5 19t-83.5 6h-77v-142h159v-62h-159v-147h77q43 0 83.5 6.5t72.5 19.5v-91h-425zM380 416h-48q-73 0 -113 -45.5t-40 -128.5t40 -130t114 -47h47v351z" />
    <glyph glyph-name="Thorn.aalt" horiz-adv-x="506" 
d="M68 0v482h132v-77l47 1q113 2 172 -39.5t59 -117.5q0 -40 -17.5 -70t-48.5 -50t-72.5 -30t-89.5 -10q-11 0 -25.5 0.5t-24.5 1.5v-91h-132zM200 343v-190q15 -4 48 -4q40 0 64.5 26t24.5 69q0 45 -25 72t-67 27h-45z" />
    <glyph glyph-name="Racute.aalt" horiz-adv-x="532" 
d="M361 0l-106 188l-55 3v-191h-132v481l231 4q43 1 77 -9.5t57 -28.5t35 -43t12 -53q0 -48 -27 -83.5t-71 -52.5l132 -215h-153zM200 421v-164q10 -2 20 -3t21 -1q43 0 70.5 22.5t27.5 60.5t-24.5 61.5t-72.5 23.5h-42zM194 554l98 177h138l-175 -177h-61z" />
    <glyph glyph-name="Rcommaaccent.aalt" horiz-adv-x="532" 
d="M201 -264q31 14 50 33.5t19 48.5q0 26 -20.5 42.5t-55.5 24.5q0 26 19.5 45.5t51.5 19.5q39 0 63.5 -28t24.5 -67q0 -52 -37 -90t-98 -64zM361 0l-106 188l-55 3v-191h-132v481l231 4q43 1 77 -9.5t57 -28.5t35 -43t12 -53q0 -48 -27 -83.5t-71 -52.5l132 -215h-153z
M200 421v-164q10 -2 20 -3t21 -1q43 0 70.5 22.5t27.5 60.5t-24.5 61.5t-72.5 23.5h-42z" />
    <glyph glyph-name="Rcaron.aalt" horiz-adv-x="532" 
d="M361 0l-106 188l-55 3v-191h-132v481l231 4q43 1 77 -9.5t57 -28.5t35 -43t12 -53q0 -48 -27 -83.5t-71 -52.5l132 -215h-153zM200 421v-164q10 -2 20 -3t21 -1q43 0 70.5 22.5t27.5 60.5t-24.5 61.5t-72.5 23.5h-42zM209 554l-129 204h56l108 -110h5l109 110h56
l-130 -204h-75z" />
    <glyph glyph-name="Sacute.aalt" horiz-adv-x="483" 
d="M75 112q32 -33 72.5 -48t87.5 -15q46 0 69.5 17.5t23.5 41.5q0 27 -22.5 43.5t-70.5 29.5q-54 15 -90.5 31.5t-59.5 36t-33 44t-10 54.5q0 66 50.5 107.5t147.5 42.5q48 0 98.5 -9t88.5 -28l-34 -86q-30 26 -68.5 42.5t-84.5 16.5q-45 0 -65 -14t-20 -36q0 -25 22 -40
t68 -28q53 -15 90.5 -31.5t61 -36.5t34 -45.5t10.5 -59.5q0 -33 -14 -62t-41.5 -50t-69.5 -33t-97 -12q-46 0 -92 9.5t-88 31.5zM185 554l98 177h138l-175 -177h-61z" />
    <glyph glyph-name="Scircumflex.aalt" horiz-adv-x="483" 
d="M75 112q32 -33 72.5 -48t87.5 -15q46 0 69.5 17.5t23.5 41.5q0 27 -22.5 43.5t-70.5 29.5q-54 15 -90.5 31.5t-59.5 36t-33 44t-10 54.5q0 66 50.5 107.5t147.5 42.5q48 0 98.5 -9t88.5 -28l-34 -86q-30 26 -68.5 42.5t-84.5 16.5q-45 0 -65 -14t-20 -36q0 -25 22 -40
t68 -28q53 -15 90.5 -31.5t61 -36.5t34 -45.5t10.5 -59.5q0 -33 -14 -62t-41.5 -50t-69.5 -33t-97 -12q-46 0 -92 9.5t-88 31.5zM352 534l-108 110h-5l-108 -110h-57l130 204h75l129 -204h-56z" />
    <glyph glyph-name="Scedilla.aalt" horiz-adv-x="483" 
d="M126 -228q76 0 110.5 16.5t34.5 43.5q0 19 -20 30t-60 11q-19 0 -36 -1t-36 -5v37l79 82q-41 2 -81.5 11t-77.5 29l36 86q32 -33 72.5 -48t87.5 -15q46 0 69.5 17.5t23.5 41.5q0 27 -22.5 43.5t-70.5 29.5q-54 15 -90.5 31.5t-59.5 36t-33 44t-10 54.5q0 66 50.5 107.5
t147.5 42.5q48 0 98.5 -9t88.5 -28l-34 -86q-30 26 -68.5 42.5t-84.5 16.5q-45 0 -65 -14t-20 -36q0 -25 22 -40t68 -28q53 -15 90.5 -31.5t61 -36.5t34 -45.5t10.5 -59.5q0 -60 -44.5 -102.5t-133.5 -51.5l-43 -45q66 0 105 -25.5t39 -69.5q0 -57 -63 -92t-175 -35v51z" />
    <glyph glyph-name="Scommaaccent.aalt" horiz-adv-x="483" 
d="M161 -264q30 14 49 33.5t19 48.5q0 26 -20.5 42.5t-55.5 24.5q0 26 19.5 45.5t51.5 19.5q39 0 64 -28t25 -67q0 -52 -37.5 -90t-98.5 -64zM75 112q32 -33 72.5 -48t87.5 -15q46 0 69.5 17.5t23.5 41.5q0 27 -22.5 43.5t-70.5 29.5q-54 15 -90.5 31.5t-59.5 36t-33 44
t-10 54.5q0 66 50.5 107.5t147.5 42.5q48 0 98.5 -9t88.5 -28l-34 -86q-30 26 -68.5 42.5t-84.5 16.5q-45 0 -65 -14t-20 -36q0 -25 22 -40t68 -28q53 -15 90.5 -31.5t61 -36.5t34 -45.5t10.5 -59.5q0 -33 -14 -62t-41.5 -50t-69.5 -33t-97 -12q-46 0 -92 9.5t-88 31.5z" />
    <glyph glyph-name="Scaron.aalt" horiz-adv-x="483" 
d="M75 112q32 -33 72.5 -48t87.5 -15q46 0 69.5 17.5t23.5 41.5q0 27 -22.5 43.5t-70.5 29.5q-54 15 -90.5 31.5t-59.5 36t-33 44t-10 54.5q0 66 50.5 107.5t147.5 42.5q48 0 98.5 -9t88.5 -28l-34 -86q-30 26 -68.5 42.5t-84.5 16.5q-45 0 -65 -14t-20 -36q0 -25 22 -40
t68 -28q53 -15 90.5 -31.5t61 -36.5t34 -45.5t10.5 -59.5q0 -33 -14 -62t-41.5 -50t-69.5 -33t-97 -12q-46 0 -92 9.5t-88 31.5zM209 554l-129 204h56l108 -110h5l109 110h56l-130 -204h-75z" />
    <glyph glyph-name="Tcommaaccent.aalt" horiz-adv-x="510" 
d="M184 -264q30 14 49.5 33.5t19.5 48.5q0 26 -20.5 42.5t-55.5 24.5q0 26 19.5 45.5t51.5 19.5q39 0 63.5 -28t24.5 -67q0 -52 -37 -90t-98 -64zM189 0v416h-22q-41 0 -80 -7t-65 -18v91h466v-91q-26 11 -64.5 18t-80.5 7h-22v-416h-132z" />
    <glyph glyph-name="Tcaron.aalt" horiz-adv-x="510" 
d="M189 0v416h-22q-41 0 -80 -7t-65 -18v91h466v-91q-26 11 -64.5 18t-80.5 7h-22v-416h-132zM217 554l-129 204h56l108 -110h5l109 110h56l-130 -204h-75z" />
    <glyph glyph-name="Ugrave.aalt" horiz-adv-x="544" 
d="M416 482h64v-318q0 -43 -16 -76.5t-43.5 -56t-65.5 -34.5t-83 -12t-83 12t-65.5 34.5t-43.5 56t-16 76.5v318h132v-295q0 -63 28.5 -93.5t82.5 -30.5q53 0 81 30.5t28 93.5v295zM292 554l-175 177h138l99 -177h-62z" />
    <glyph glyph-name="Uacute.aalt" horiz-adv-x="544" 
d="M416 482h64v-318q0 -43 -16 -76.5t-43.5 -56t-65.5 -34.5t-83 -12t-83 12t-65.5 34.5t-43.5 56t-16 76.5v318h132v-295q0 -63 28.5 -93.5t82.5 -30.5q53 0 81 30.5t28 93.5v295zM258 554l98 177h138l-175 -177h-61z" />
    <glyph glyph-name="Ucircumflex.aalt" horiz-adv-x="544" 
d="M416 482h64v-318q0 -43 -16 -76.5t-43.5 -56t-65.5 -34.5t-83 -12t-83 12t-65.5 34.5t-43.5 56t-16 76.5v318h132v-295q0 -63 28.5 -93.5t82.5 -30.5q53 0 81 30.5t28 93.5v295zM395 534l-108 110h-5l-108 -110h-57l130 204h75l129 -204h-56z" />
    <glyph glyph-name="Udieresis.aalt" horiz-adv-x="544" 
d="M416 482h64v-318q0 -43 -16 -76.5t-43.5 -56t-65.5 -34.5t-83 -12t-83 12t-65.5 34.5t-43.5 56t-16 76.5v318h132v-295q0 -63 28.5 -93.5t82.5 -30.5q53 0 81 30.5t28 93.5v295zM169 567q-28 0 -47.5 21t-19.5 50t19.5 50t47.5 21t47.5 -21t19.5 -50t-19.5 -50t-47.5 -21
zM388 567q-29 0 -48.5 21t-19.5 50t19.5 50t48.5 21q28 0 47.5 -21t19.5 -50t-19.5 -50t-47.5 -21z" />
    <glyph glyph-name="Umacron.aalt" horiz-adv-x="544" 
d="M416 482h64v-318q0 -43 -16 -76.5t-43.5 -56t-65.5 -34.5t-83 -12t-83 12t-65.5 34.5t-43.5 56t-16 76.5v318h132v-295q0 -63 28.5 -93.5t82.5 -30.5q53 0 81 30.5t28 93.5v295zM131 580v66h305v-66h-305z" />
    <glyph glyph-name="Ubreve.aalt" horiz-adv-x="544" 
d="M416 482h64v-318q0 -43 -16 -76.5t-43.5 -56t-65.5 -34.5t-83 -12t-83 12t-65.5 34.5t-43.5 56t-16 76.5v318h132v-295q0 -63 28.5 -93.5t82.5 -30.5q53 0 81 30.5t28 93.5v295zM457 731q-3 -46 -16.5 -78.5t-35 -53.5t-50 -31t-60.5 -10t-60 10t-49.5 31t-35 53.5
t-16.5 78.5h64q8 -52 31.5 -74t65.5 -22q43 0 66 22t32 74h64z" />
    <glyph glyph-name="Uring.aalt" horiz-adv-x="544" 
d="M416 482h64v-318q0 -43 -16 -76.5t-43.5 -56t-65.5 -34.5t-83 -12t-83 12t-65.5 34.5t-43.5 56t-16 76.5v318h132v-295q0 -63 28.5 -93.5t82.5 -30.5q53 0 81 30.5t28 93.5v295zM298 542q-26 0 -46.5 9t-35 24.5t-22.5 36.5t-8 44t8 43.5t22.5 36t35 24.5t46.5 9
q53 0 83 -33.5t30 -79.5q0 -23 -8 -44t-22.5 -36.5t-35.5 -24.5t-47 -9zM298 591q29 0 45.5 20t16.5 45q0 24 -16.5 44t-45.5 20t-45.5 -20t-16.5 -44q0 -25 16.5 -45t45.5 -20z" />
    <glyph glyph-name="Uhungarumlaut.aalt" horiz-adv-x="544" 
d="M416 482h64v-318q0 -43 -16 -76.5t-43.5 -56t-65.5 -34.5t-83 -12t-83 12t-65.5 34.5t-43.5 56t-16 76.5v318h132v-295q0 -63 28.5 -93.5t82.5 -30.5q53 0 81 30.5t28 93.5v295zM351 554l96 177h133l-172 -177h-57zM165 554l96 177h133l-173 -177h-56z" />
    <glyph glyph-name="Uogonek.aalt" horiz-adv-x="544" 
d="M445 -186q-17 -26 -47.5 -43t-77.5 -17q-51 0 -81.5 27t-30.5 75q0 33 23 67t61 63q-5 -1 -10 -1h-10q-45 0 -83 12t-65.5 34.5t-43.5 56t-16 76.5v318h132v-295q0 -63 28.5 -93.5t82.5 -30.5q53 0 81 30.5t28 93.5v295h64v-318q0 -52 -22.5 -89t-60.5 -60
q-42 -31 -65.5 -65t-23.5 -66q0 -26 15 -43t41 -17q20 0 35 8.5t27 21.5z" />
    <glyph glyph-name="Wcircumflex.aalt" horiz-adv-x="785" 
d="M481 -4l-84 273h-9l-84 -273h-127l-159 486h137l117 -372h9l82 263l-34 109h133l111 -372h8l117 372h69l-159 -486h-127zM503 534l-108 110h-5l-108 -110h-57l130 204h75l129 -204h-56z" />
    <glyph glyph-name="Wgrave.aalt" horiz-adv-x="785" 
d="M481 -4l-84 273h-9l-84 -273h-127l-159 486h137l117 -372h9l82 263l-34 109h133l111 -372h8l117 372h69l-159 -486h-127zM380 554l-175 177h138l99 -177h-62z" />
    <glyph glyph-name="Wacute.aalt" horiz-adv-x="785" 
d="M481 -4l-84 273h-9l-84 -273h-127l-159 486h137l117 -372h9l82 263l-34 109h133l111 -372h8l117 372h69l-159 -486h-127zM357 554l98 177h138l-175 -177h-61z" />
    <glyph glyph-name="Wdieresis.aalt" horiz-adv-x="785" 
d="M481 -4l-84 273h-9l-84 -273h-127l-159 486h137l117 -372h9l82 263l-34 109h133l111 -372h8l117 372h69l-159 -486h-127zM283 567q-28 0 -47.5 21t-19.5 50t19.5 50t47.5 21t47.5 -21t19.5 -50t-19.5 -50t-47.5 -21zM502 567q-29 0 -48.5 21t-19.5 50t19.5 50t48.5 21
q28 0 47.5 -21t19.5 -50t-19.5 -50t-47.5 -21z" />
    <glyph glyph-name="Yacute.aalt" horiz-adv-x="521" 
d="M195 0v193l-177 289h149l128 -217h7l130 217h71l-176 -289v-193h-132zM240 554l98 177h138l-175 -177h-61z" />
    <glyph glyph-name="Ycircumflex.aalt" horiz-adv-x="521" 
d="M195 0v193l-177 289h149l128 -217h7l130 217h71l-176 -289v-193h-132zM390 534l-108 110h-5l-108 -110h-57l130 204h75l129 -204h-56z" />
    <glyph glyph-name="Ydieresis.aalt" horiz-adv-x="521" 
d="M195 0v193l-177 289h149l128 -217h7l130 217h71l-176 -289v-193h-132zM161 567q-28 0 -47.5 21t-19.5 50t19.5 50t47.5 21t47.5 -21t19.5 -50t-19.5 -50t-47.5 -21zM380 567q-29 0 -48.5 21t-19.5 50t19.5 50t48.5 21q28 0 47.5 -21t19.5 -50t-19.5 -50t-47.5 -21z" />
    <glyph glyph-name="Zacute.aalt" horiz-adv-x="492" 
d="M28 0v51l273 367h-101q-84 0 -156 -27v91h420v-51l-274 -368h108q82 0 155 28v-91h-425zM185 554l98 177h138l-175 -177h-61z" />
    <glyph glyph-name="Zdotaccent.aalt" horiz-adv-x="492" 
d="M28 0v51l273 367h-101q-84 0 -156 -27v91h420v-51l-274 -368h108q82 0 155 28v-91h-425zM249 567q-29 0 -48.5 21t-19.5 50t19.5 50t48.5 21q28 0 47.5 -21t19.5 -50t-19.5 -50t-47.5 -21z" />
    <glyph glyph-name="Zcaron.aalt" horiz-adv-x="492" 
d="M28 0v51l273 367h-101q-84 0 -156 -27v91h420v-51l-274 -368h108q82 0 155 28v-91h-425zM211 554l-129 204h56l108 -110h5l109 110h56l-130 -204h-75z" />
    <glyph glyph-name="slash.aalt" horiz-adv-x="207" 
d="M-196 -116l535 741h64l-535 -741h-64z" />
    <glyph glyph-name="uni207A.aalt" horiz-adv-x="350" 
d="M156 -78v103h-103v42h103v103h41v-103h103v-42h-103v-103h-41z" />
    <glyph glyph-name="uni207B.aalt" horiz-adv-x="350" 
d="M58 26v40h247v-40h-247z" />
    <glyph glyph-name="zero.lnum" 
d="M248 -15q-50 0 -91 18.5t-71 57.5t-46.5 99t-16.5 143q0 79 17 142t47 106t72 66t92 23q49 0 90.5 -20t71.5 -60t47 -100.5t17 -141.5q0 -76 -16 -137.5t-45.5 -105t-72 -67t-95.5 -23.5zM252 50q21 0 36.5 14t25.5 44.5t15 79.5t5 119q0 144 -20.5 206t-65.5 62
q-41 0 -61.5 -60t-20.5 -199q0 -144 20.5 -205t65.5 -61z" />
    <glyph glyph-name="one.lnum" 
d="M200 0v520h-117v61l249 61v-642h-132z" />
    <glyph glyph-name="two.lnum" 
d="M53 0l-8 62q66 64 115.5 116.5t81.5 97.5t48 84.5t16 77.5q0 54 -28.5 83t-77.5 29q-40 0 -73.5 -21t-65.5 -50l-42 47q45 54 106 84t131 30q50 0 88 -13.5t63.5 -37.5t38.5 -56.5t13 -69.5q0 -42 -15.5 -79t-48 -76.5t-82.5 -84.5t-119 -103v-9h262v-111h-403z" />
    <glyph glyph-name="three.lnum" 
d="M84 124q21 -38 53.5 -56t64.5 -18q53 0 83 28.5t30 85.5q0 54 -31 82.5t-86 28.5q-14 0 -33.5 -4t-39.5 -12l-18 54q94 39 141 75t47 83q0 38 -22.5 59.5t-69.5 21.5q-31 0 -64.5 -16.5t-61.5 -42.5l-41 48q46 47 109.5 73t127.5 26q38 0 69.5 -9.5t54 -27t35 -40.5
t12.5 -50q0 -51 -38 -88t-100 -68l2 -5q34 -4 62.5 -19t49 -37t32 -50t11.5 -59q0 -46 -17.5 -83t-49 -63.5t-76.5 -41t-99 -14.5q-113 0 -185 54z" />
    <glyph glyph-name="four.lnum" 
d="M283 0v138h-261l-7 71l302 420h91v-383h77v-108h-77v-138h-125zM283 467h-4l-158 -221h162v221z" />
    <glyph glyph-name="five.lnum" 
d="M84 124q14 -20 27 -34t28.5 -23t34.5 -13.5t44 -4.5q50 0 81 27.5t31 75.5q0 31 -14 57.5t-45.5 47.5t-82.5 36t-126 23l74 309h312v-114h-262l-19 -83q80 -12 133.5 -34.5t85.5 -53t45 -68t13 -79.5t-16 -80t-45 -66.5t-70 -45t-91 -16.5q-55 0 -102.5 13t-83.5 41z" />
    <glyph glyph-name="six.lnum" 
d="M164 348q35 25 68 37t68 12q39 0 71 -13.5t55.5 -38.5t36 -59.5t12.5 -77.5q0 -48 -17 -88.5t-47.5 -70.5t-72.5 -47t-91 -17q-51 0 -92 18.5t-70 52t-45 80t-16 101.5q0 91 35.5 163.5t93 124.5t131 82.5t149.5 38.5l13 -62q-58 -12 -103.5 -30t-80 -45.5t-59.5 -66
t-41 -92.5zM166 277q-2 -8 -4 -24t-2 -32q0 -31 6 -61.5t18 -54.5t30 -39t42 -15q31 0 51.5 29t20.5 86q0 67 -26.5 100.5t-70.5 33.5q-20 0 -36.5 -6.5t-28.5 -16.5z" />
    <glyph glyph-name="seven.lnum" 
d="M95 -4l265 515h-317v114h423l9 -57l-285 -572h-95z" />
    <glyph glyph-name="eight.lnum" 
d="M354 336q23 -13 45 -29t39 -36t27 -45t10 -57q0 -36 -14.5 -69t-43 -58.5t-72 -41t-101.5 -15.5q-45 0 -84.5 10.5t-69 31.5t-47 51.5t-17.5 70.5q0 47 30 90.5t85 63.5v5q-21 12 -40 25.5t-33.5 31t-22.5 40.5t-8 54t13 63t40 58t67.5 43t95.5 17q46 0 84 -11.5
t65 -32.5t42 -50.5t15 -65.5q0 -48 -28 -84.5t-77 -56.5v-3zM206 270q-24 -21 -37 -48t-13 -58q0 -51 29 -82.5t79 -31.5q44 0 67 23t23 57q0 22 -8.5 40.5t-26.5 35t-46 32t-67 32.5zM287 368q19 17 30.5 41.5t11.5 55.5q0 48 -22.5 79t-69.5 31q-39 0 -59 -23t-20 -55
q0 -20 6 -36.5t20.5 -31.5t39.5 -30t63 -31z" />
    <glyph glyph-name="nine.lnum" 
d="M53 41q58 12 103.5 30t80 45.5t59.5 66t41 92.5l-2 2q-35 -25 -68 -37t-68 -12q-39 0 -71 13.5t-55.5 38t-36 59.5t-12.5 78q0 48 17 88.5t47.5 70.5t72.5 47t91 17q51 0 92 -18.5t70 -52t45 -80t16 -101.5q0 -91 -35.5 -163.5t-93 -124.5t-131 -82.5t-149.5 -38.5z
M333 348q2 8 4 24t2 32q0 31 -6 61.5t-18.5 54.5t-30.5 39t-42 15q-31 0 -51 -29t-20 -86q0 -67 27 -100.5t71 -33.5q20 0 36 6.5t28 16.5z" />
    <glyph glyph-name="dollar.aalt" 
d="M115 -96l29 118q-29 5 -55.5 11.5t-47.5 15.5q8 22 16 43.5t16 43.5q24 -22 44 -33t43 -17q11 45 21.5 88t21.5 88q-40 13 -71 28t-52 34.5t-31.5 45t-10.5 58.5q0 35 14 67t41.5 56.5t68.5 39t94 14.5h14t15 -1l22 92h56l-24 -98q29 -5 56.5 -11.5t49.5 -15.5l-16 -44
l-16 -44q-32 26 -52.5 35.5t-37.5 15.5q-9 -40 -18.5 -79t-19.5 -80q45 -14 78.5 -30.5t55.5 -37t32.5 -47t10.5 -60.5q0 -38 -15.5 -71t-45 -58.5t-73 -40t-99.5 -14.5h-31l-27 -112h-56zM270 545h-13q-54 0 -82 -20.5t-28 -51.5t21 -48.5t66 -33.5zM253 246
q-10 -43 -19.5 -85.5t-20.5 -85.5q4 0 7.5 -0.5t8.5 -0.5q63 0 91 25.5t28 58.5q0 32 -22 51t-73 37z" />
    <glyph glyph-name="cent.aalt" 
d="M165 -119l40 161q-74 20 -115 77.5t-41 139.5q0 51 16.5 94.5t47.5 75.5t74 50t97 18h16t17 -1l38 153h53l-39 -161q28 -7 51 -17t43 -25l-48 -75q-31 37 -62 51l-79 -319q10 -3 20.5 -5t23.5 -2q29 0 53.5 11t44.5 29l30 -53q-30 -24 -68 -37.5t-96 -13.5h-26
q-10 -37 -19 -75t-19 -76h-53zM302 434q-29 0 -52 -13.5t-39 -36.5t-24.5 -54.5t-8.5 -68.5q0 -41 13.5 -74.5t35.5 -54.5z" />
    <glyph glyph-name="sterling.aalt" 
d="M48 0v116q45 18 65.5 51.5t20.5 76.5q0 20 -5 40h-89v54h78q-8 23 -14 51t-6 54q0 44 12 80t36 62t59 40.5t81 14.5q57 0 98.5 -14.5t74.5 -38.5l-51 -81q-18 32 -42 51t-60 19q-35 0 -54 -24.5t-19 -69.5q0 -29 3.5 -48.5t8.5 -35t9.5 -29t7.5 -31.5h118v-54h-115
l-6 -38q-7 -42 -31.5 -74.5t-78.5 -61.5h298v-110h-399z" />
    <glyph glyph-name="yen.aalt" 
d="M318 126v-126h-139v126h-148v54h148v73h-148v53h128l-152 319h146q32 -72 63.5 -143t63.5 -143h7l126 286h78l-153 -319h129v-53h-149v-73h149v-54h-149z" />
    <glyph glyph-name="Euro.aalt" 
d="M182 223q13 -84 49.5 -129.5t88.5 -45.5q34 0 60.5 13.5t54.5 42.5q10 -13 19 -25.5t20 -24.5q-38 -36 -76 -52.5t-93 -16.5q-100 0 -165 62t-85 176h-66v53h61q-1 8 -1 15v15q0 11 0.5 22.5t1.5 22.5h-62v53h70q12 53 34 96.5t53.5 74t71 47.5t85.5 17q59 0 101 -16
t81 -48q-12 -20 -24.5 -38t-24.5 -38q-26 36 -56 55t-68 19q-51 0 -83.5 -44t-45.5 -125h201v-53h-207q-1 -10 -1 -19.5v-19.5v-18t1 -18h207v-53h-202z" />
    <glyph glyph-name="degree.aalt" 
d="M411 483q0 -32 -11 -61t-32 -51t-51 -35t-67 -13q-38 0 -68 13t-51 35t-32 51t-11 61q0 33 11 63t32 52t51 35t68 13q37 0 67 -13t51 -35t32 -52t11 -63zM250 380q23 0 41.5 8.5t31.5 22.5t20 33t7 39q0 44 -26.5 75t-73.5 31q-48 0 -74.5 -31t-26.5 -75q0 -20 7 -39
t20 -33t31.5 -22.5t42.5 -8.5z" />
    <glyph glyph-name="plus.lnum" 
d="M219 86v180h-175v63h175v180h62v-180h175v-63h-175v-180h-62z" />
    <glyph glyph-name="minus.lnum" 
d="M44 266v63h412v-63h-412z" />
    <glyph glyph-name="plusminus.aalt" 
d="M281 301v-139h-62v139h-175v62h175v157h62v-157h175v-62h-175zM44 62v63h412v-63h-412z" />
    <glyph glyph-name="logicalnot.aalt" 
d="M379 152v154h-337v63h400v-217h-63z" />
    <glyph glyph-name="equal.aalt" 
d="M52 346v63h396v-63h-396zM52 178v63h396v-63h-396z" />
    <glyph glyph-name="notequal.aalt" 
d="M259 172l-40 -142h-65l40 142h-142v63h160l30 105h-190v63h208l37 132h65l-37 -132h123v-63h-141l-30 -105h171v-63h-189z" />
    <glyph glyph-name="approxequal.aalt" 
d="M443 270q-9 -53 -35.5 -83.5t-69.5 -30.5q-22 0 -45.5 8.5t-46 19t-42.5 19.5t-35 9q-18 0 -31.5 -10t-20.5 -39h-59q8 52 35 83t69 31q22 0 46.5 -9t47.5 -19.5t42.5 -19.5t32.5 -9q17 0 30.5 8.5t21.5 41.5h60zM443 433q-9 -52 -35.5 -83t-69.5 -31q-22 0 -45.5 8.5
t-46 19t-42.5 19.5t-35 9q-18 0 -31.5 -9.5t-20.5 -39.5h-59q8 52 35 83t69 31q22 0 46.5 -9t47.5 -19.5t42.5 -19.5t32.5 -9q17 0 30.5 8.5t21.5 41.5h60z" />
    <glyph glyph-name="multiply.aalt" 
d="M250 256l-157 -159l-44 45l158 157l-158 157l44 44l157 -158l157 158l45 -44l-160 -157l160 -157l-45 -45z" />
    <glyph glyph-name="divide.aalt" 
d="M303 437q0 -23 -15.5 -38t-37.5 -15q-23 0 -38 15t-15 38q0 22 15 37.5t38 15.5q22 0 37.5 -15.5t15.5 -37.5zM303 151q0 -22 -15.5 -37t-37.5 -15q-23 0 -38 15t-15 37t15 37.5t38 15.5q22 0 37.5 -15.5t15.5 -37.5zM52 263v63h396v-63h-396z" />
    <glyph glyph-name="less.aalt" 
d="M40 263v44l402 180v-67l-304 -133v-4l304 -133v-67z" />
    <glyph glyph-name="greater.aalt" 
d="M58 83v67l303 133v4l-303 133v67l402 -180v-44z" />
    <glyph glyph-name="lessequal.aalt" 
d="M58 50v61h384v-61h-384zM58 302v46l384 163v-67l-288 -119l288 -120v-66z" />
    <glyph glyph-name="greaterequal.aalt" 
d="M58 50v61h384v-61h-384zM58 139v66l288 120l-288 119v67l384 -163v-46z" />
    <glyph glyph-name="bar.aalt" horiz-adv-x="250" 
d="M97 -157v877h55v-877h-55z" />
    <glyph glyph-name="brokenbar.aalt" horiz-adv-x="250" 
d="M97 306v335h55v-335h-55zM97 -138v335h55v-335h-55z" />
    <glyph glyph-name="bullet.lnum" 
d="M250 105q-38 0 -72 14.5t-59 39.5t-39.5 59t-14.5 72t14.5 72t39.5 59t59 39.5t72 14.5t72 -14.5t59 -39.5t39.5 -59t14.5 -72t-14.5 -72t-39.5 -59t-59 -39.5t-72 -14.5z" />
    <glyph glyph-name="asciitilde.aalt" 
d="M443 368q-9 -57 -35.5 -89t-71.5 -32q-23 0 -47 9.5t-46 20.5t-41.5 20.5t-33.5 9.5q-19 0 -33 -10t-22 -42h-57q9 57 36.5 89t71.5 32q23 0 47.5 -9.5t47 -21t41.5 -21t32 -9.5q21 0 34 10.5t21 42.5h56z" />
    <glyph glyph-name="quotesingle.aalt" horiz-adv-x="250" 
d="M14 403l115 242l96 -33l-163 -209h-48z" />
    <glyph glyph-name="quotedbl.aalt" 
d="M50 403l115 242l96 -33l-163 -209h-48zM230 403l115 242l96 -33l-163 -209h-48z" />
    <glyph glyph-name="parenleft.aalt" horiz-adv-x="465" 
d="M377 -156q-47 25 -94.5 68.5t-86 102.5t-63 133t-24.5 160q0 85 24.5 159t63 133.5t86 103t94.5 68.5l34 -55q-42 -24 -83 -63.5t-73 -92t-52 -117t-20 -136.5t20 -136.5t52.5 -117t73 -92t82.5 -63.5z" />
    <glyph glyph-name="parenright.aalt" horiz-adv-x="465" 
d="M58 -101q42 24 82.5 63.5t73 92t52.5 117t20 136.5t-20 136.5t-52 117t-73 92t-83 63.5l34 55q47 -25 94.5 -68.5t86 -103t63 -133.5t24.5 -159q0 -86 -24.5 -160t-63 -133t-86 -102.5t-94.5 -68.5z" />
    <glyph glyph-name="bracketleft.aalt" horiz-adv-x="460" 
d="M137 -138v904h255v-59h-180v-785h180v-60h-255z" />
    <glyph glyph-name="bracketright.aalt" horiz-adv-x="460" 
d="M68 -138v60h181v785h-181v59h255v-904h-255z" />
    <glyph glyph-name="asterisk.aalt" 
d="M299 307l-53 31l6 116l-15 4l-55 -99l-61 1l-15 17l12 61l110 30v20l-110 30l-12 60l14 17l62 2l55 -99l16 5l-6 114l52 30l21 -7l22 -55l-77 -87l10 -13l106 43l46 -40v-22l-46 -40l-106 44l-10 -13l76 -88l-21 -54z" />
    <glyph glyph-name="braceleft.aalt" horiz-adv-x="450" 
d="M374 -137q-115 5 -168.5 45.5t-53.5 104.5q0 26 8 51t18 48.5t18 45.5t8 42q0 39 -27 56t-95 25l-8 33l8 32q63 8 92.5 25.5t29.5 55.5q0 18 -8 40t-18 46t-18 49.5t-8 51.5q0 66 53.5 106.5t168.5 45.5v-41q-59 -5 -80.5 -27.5t-21.5 -56.5q0 -23 8 -45.5t17.5 -46
t17.5 -49t8 -53.5q0 -46 -43.5 -82t-120.5 -45v-12q79 -9 121.5 -44.5t42.5 -82.5q0 -29 -8 -54t-17.5 -48t-17.5 -45.5t-8 -45.5q0 -36 22.5 -57.5t79.5 -26.5v-41z" />
    <glyph glyph-name="braceright.aalt" horiz-adv-x="450" 
d="M79 -96q59 5 81 27t22 57q0 23 -8 45.5t-18 45.5t-18 48t-8 54q0 23 11.5 44t33 38t51.5 28.5t68 16.5v12q-78 10 -121 44.5t-43 82.5q0 28 8 53.5t18 49t18 46t8 45.5q0 35 -23 57t-80 27v41q115 -5 168.5 -45.5t53.5 -106.5q0 -26 -8 -50.5t-18 -48t-18 -46t-8 -42.5
q0 -38 29.5 -55.5t92.5 -25.5l8 -32l-8 -33q-68 -8 -95 -25t-27 -56q0 -18 8 -40t18 -46t18 -49.5t8 -51.5q0 -64 -53.5 -104.5t-168.5 -45.5v41z" />
    <glyph glyph-name="section.aalt" 
d="M111 12q29 -36 60 -50.5t69 -14.5t57.5 15t19.5 40q0 13 -5.5 24t-19 22.5t-35 24t-54.5 29.5q-46 23 -76.5 43t-48.5 39.5t-25.5 40t-7.5 45.5q0 42 20.5 75t57.5 57q-38 38 -38 89q0 30 11.5 57t34.5 47.5t58 32.5t82 12q40 0 81 -10t79 -33l-42 -85q-24 32 -57.5 48
t-71.5 16t-57.5 -15.5t-19.5 -40.5q0 -13 5.5 -24t19 -22.5t35.5 -24.5t54 -29q46 -24 76.5 -43.5t48.5 -38.5t25.5 -39.5t7.5 -45.5q0 -42 -20.5 -75t-57.5 -57q39 -39 39 -89q0 -30 -11.5 -57t-35 -47.5t-58.5 -32.5t-82 -12q-40 0 -81 10t-79 33zM339 153q13 10 20.5 23
t7.5 31q0 36 -27.5 60.5t-92.5 54.5q-51 24 -86 48q-13 -10 -20.5 -23t-7.5 -30q0 -18 6.5 -33t21 -28t37.5 -26.5t56 -28.5q25 -12 46.5 -23.5t38.5 -24.5z" />
    <glyph glyph-name="paragraph.aalt" 
d="M350 -32v284q-42 -6 -84 -6q-50 0 -91.5 15t-71 40.5t-46 60t-16.5 73.5q0 42 16 77t44.5 60t67.5 39t85 14h173v-657h-77z" />
    <glyph glyph-name="period.aalt" horiz-adv-x="250" 
d="M206 65q0 -33 -23.5 -56.5t-57.5 -23.5q-35 0 -58.5 23t-23.5 57t23.5 58t58.5 24q34 0 57.5 -24t23.5 -58z" />
    <glyph glyph-name="comma.aalt" horiz-adv-x="250" 
d="M30 -156q45 31 66 61t21 69q0 32 -23 53.5t-65 36.5q0 15 5.5 29t16 25t26 17.5t34.5 6.5q23 0 42.5 -9t34 -25t22.5 -37.5t8 -45.5q0 -63 -44.5 -117.5t-116.5 -100.5z" />
    <glyph glyph-name="colon.aalt" horiz-adv-x="250" 
d="M206 377q0 -33 -23.5 -57t-57.5 -24q-35 0 -58.5 23.5t-23.5 57.5q0 35 23.5 59t58.5 24q34 0 57.5 -24.5t23.5 -58.5zM206 66q0 -33 -23.5 -57t-57.5 -24q-35 0 -58.5 23.5t-23.5 57.5t23.5 58t58.5 24q34 0 57.5 -24.5t23.5 -57.5z" />
    <glyph glyph-name="semicolon.aalt" horiz-adv-x="250" 
d="M200 377q0 -33 -23.5 -57t-57.5 -24t-57.5 23.5t-23.5 57.5q0 35 23.5 59t57.5 24t57.5 -24.5t23.5 -58.5zM32 -156q45 31 66 61.5t21 68.5q0 32 -23 53.5t-65 36.5q0 15 5.5 29t16 25t25.5 17.5t35 6.5q22 0 42 -9t34 -25t22.5 -37.5t8.5 -45.5q0 -63 -44.5 -117.5
t-117.5 -99.5z" />
    <glyph glyph-name="periodcentered.aalt" horiz-adv-x="250" 
d="M206 268q0 -33 -23.5 -57t-57.5 -24q-35 0 -58.5 23.5t-23.5 57.5t23.5 58t58.5 24q34 0 57.5 -24t23.5 -58z" />
    <glyph glyph-name="hyphen.lnum" horiz-adv-x="349" 
d="M48 279v67h254v-67h-254z" />
    <glyph glyph-name="endash.aalt" horiz-adv-x="498" 
d="M48 279v67h402v-67h-402z" />
    <glyph glyph-name="A.ornm" horiz-adv-x="750" 
d="M88 45l288 539l286 -539h-574zM375 398l-127 -261h254z" />
    <glyph glyph-name="B.ornm" horiz-adv-x="750" 
d="M145 26v574l539 -288zM237 440v-254l261 127z" />
    <glyph glyph-name="C.ornm" horiz-adv-x="750" 
d="M88 584h574l-286 -539zM502 492h-254l127 -261z" />
    <glyph glyph-name="D.ornm" horiz-adv-x="750" 
d="M65 312l539 288v-574zM512 440l-261 -127l261 -127v254z" />
    <glyph glyph-name="E.ornm" horiz-adv-x="750" 
d="M88 45l288 539l286 -539h-574z" />
    <glyph glyph-name="F.ornm" horiz-adv-x="750" 
d="M145 26v574l539 -288z" />
    <glyph glyph-name="G.ornm" horiz-adv-x="750" 
d="M88 584h574l-286 -539z" />
    <glyph glyph-name="H.ornm" horiz-adv-x="750" 
d="M65 312l539 288v-574z" />
    <glyph glyph-name="I.ornm" horiz-adv-x="750" 
d="M281 -24l31 442l-143 -201l-140 107l338 329h16l338 -329l-139 -107l-144 201l31 -442h-188z" />
    <glyph glyph-name="J.ornm" horiz-adv-x="750" 
d="M713 303q-82 -85 -164 -168.5t-164 -168.5q-27 34 -54 69l-54 70l201 143l-442 -31v188l442 -31l-201 143l108 140l328 -338v-16z" />
    <glyph glyph-name="K.ornm" horiz-adv-x="750" 
d="M366 -27l-338 327l70 54t70 53q35 -51 71.5 -100t71.5 -100l-31 442h188q-8 -112 -15.5 -221.5t-15.5 -220.5q36 51 71.5 100t72.5 100l139 -107q-85 -82 -169 -164t-169 -163h-16z" />
    <glyph glyph-name="L.ornm" horiz-adv-x="750" 
d="M268 249l201 -144l-107 -140l-328 339v15l328 338l107 -139l-201 -144l442 31v-188z" />
    <glyph glyph-name="M.ornm" 
d="M41 0v417h418v-417h-418zM406 366h-313v-313h313v313z" />
    <glyph glyph-name="N.ornm" 
d="M41 0v417h418v-417h-418zM368 327h-236v-236h236v236z" />
    <glyph glyph-name="O.ornm" 
d="M41 0v417h418v-417h-418zM414 373h-37l37 -37v37zM414 307l-65 66h-65l130 -130v64zM414 215l-158 158h-64l222 -222v64zM414 123l-250 250h-64l314 -314v64zM86 359v-65l250 -248h64zM86 266v-64l157 -156h64zM86 173v-64l64 -63h64zM86 82v-36h36z" />
    <glyph glyph-name="P.ornm" 
d="M41 0v417h418v-417h-418z" />
    <glyph glyph-name="Q.ornm" horiz-adv-x="750" 
d="M62 0v626h626v-626h-626zM633 571h-516v-516h516v516z" />
    <glyph glyph-name="R.ornm" horiz-adv-x="750" 
d="M62 0v626h626v-626h-626zM573 511h-396v-396h396v396z" />
    <glyph glyph-name="S.ornm" horiz-adv-x="750" 
d="M62 0v626h626v-626h-626zM633 571h-78l78 -78v78zM633 467l-104 104h-116l220 -220v116zM633 325l-246 246h-116l362 -362v116zM633 184l-387 387h-116l503 -503v116zM117 559v-116l388 -388h116zM117 417v-116l246 -246h116zM117 275v-116l104 -104h116zM117 135v-80h80
z" />
    <glyph glyph-name="T.ornm" horiz-adv-x="750" 
d="M62 0v626h626v-626h-626z" />
    <glyph glyph-name="U.ornm" 
d="M250 -10q-46 0 -86 17t-69.5 46.5t-46.5 69.5t-17 86t17 85.5t46.5 69t69.5 46.5t86 17t86 -17t69.5 -46.5t46.5 -69t17 -85.5t-17 -86t-46.5 -69.5t-69.5 -46.5t-86 -17zM250 41q35 0 65.5 13t53 36t35 53.5t12.5 65.5t-12.5 65.5t-35 53.5t-53 36t-65.5 13t-65.5 -13
t-53 -36t-35 -53.5t-12.5 -65.5t12.5 -65.5t35 -53.5t53 -36t65.5 -13z" />
    <glyph glyph-name="V.ornm" 
d="M250 -10q-46 0 -86 17t-69.5 46.5t-46.5 69.5t-17 86t17 85.5t46.5 69t69.5 46.5t86 17t86 -17t69.5 -46.5t46.5 -69t17 -85.5t-17 -86t-46.5 -69.5t-69.5 -46.5t-86 -17zM250 81q27 0 50 10t40 27.5t26.5 40.5t9.5 50q0 26 -9.5 49.5t-26.5 41t-40 27.5t-50 10t-50 -10
t-40 -27.5t-26.5 -41t-9.5 -49.5q0 -27 9.5 -50t26.5 -40.5t40 -27.5t50 -10z" />
    <glyph glyph-name="W.ornm" 
d="M250 -10q-46 0 -86 17t-69.5 46.5t-46.5 69.5t-17 86t17 85.5t46.5 69t69.5 46.5t86 17t86 -17t69.5 -46.5t46.5 -69t17 -85.5t-17 -86t-46.5 -69.5t-69.5 -46.5t-86 -17zM426 236q-4 30 -17 55.5t-33 45.5t-45.5 33t-55.5 17zM244 389q-14 -1 -28 -3.5t-27 -7.5
l228 -229q5 14 7.5 28t3.5 28zM169 370q-11 -5 -20.5 -12t-17.5 -15l253 -254q17 17 26 39zM116 329q-17 -17 -26 -40l242 -241q11 5 20.5 12t17.5 15zM82 268q-8 -24 -10 -55l184 -184q31 0 55 10zM74 182q4 -31 18 -57.5t35 -46.5q20 -19 44.5 -31.5t53.5 -16.5z" />
    <glyph glyph-name="X.ornm" 
d="M250 -10q-46 0 -86 17t-69.5 46.5t-46.5 69.5t-17 86t17 85.5t46.5 69t69.5 46.5t86 17t86 -17t69.5 -46.5t46.5 -69t17 -85.5t-17 -86t-46.5 -69.5t-69.5 -46.5t-86 -17z" />
    <glyph glyph-name="Y.ornm" horiz-adv-x="750" 
d="M375 -15q-69 0 -129 25.5t-104.5 70t-69.5 104t-25 128.5t25 128.5t69.5 104t104.5 70t129 25.5t129 -25.5t104.5 -70t69.5 -104t25 -128.5t-25 -128.5t-69.5 -104t-104.5 -70t-129 -25.5zM375 37q58 0 108 21.5t86.5 59t57.5 88t21 107.5t-21 107.5t-57.5 88t-86.5 59
t-108 21.5t-108 -21.5t-86.5 -59t-57.5 -88t-21 -107.5t21 -107.5t57.5 -88t86.5 -59t108 -21.5z" />
    <glyph glyph-name="Z.ornm" horiz-adv-x="750" 
d="M375 -15q-69 0 -129 25.5t-104.5 70t-69.5 104t-25 128.5t25 128.5t69.5 104t104.5 70t129 25.5t129 -25.5t104.5 -70t69.5 -104t25 -128.5t-25 -128.5t-69.5 -104t-104.5 -70t-129 -25.5zM375 97q45 0 84 17t67.5 46.5t45 68.5t16.5 84t-16.5 84t-45 68.5t-67.5 46.5
t-84 17t-84 -17t-67.5 -46.5t-45 -68.5t-16.5 -84t16.5 -84t45 -68.5t67.5 -46.5t84 -17z" />
    <glyph glyph-name="a.ornm" horiz-adv-x="750" 
d="M375 -15q-69 0 -129 25.5t-104.5 70t-69.5 104t-25 128.5t25 129t69.5 104.5t104.5 70.5t129 26t129 -26t104.5 -70.5t69.5 -104.5t25 -129t-25 -128.5t-69.5 -104t-104.5 -70t-129 -25.5zM647 337q-4 51 -24.5 95t-53.5 77.5t-77.5 54t-95.5 24.5zM369 589
q-53 -2 -97 -19l179 -179q33 -34 65 -66l57 -57q29 -30 56 -56q17 45 19 98zM576 125q28 29 46 69q-27 26 -57 57q-26 26 -58.5 59t-67.5 68l-184 184q-38 -18 -68 -48zM174 502q-14 -15 -25.5 -32.5t-20.5 -37.5l368 -368q38 18 68 48zM120 414q-16 -45 -18 -98l279 -279
q26 0 50 5t47 14zM103 289q4 -51 24.5 -95t53.5 -77.5t77.5 -54t95.5 -24.5z" />
    <glyph glyph-name="b.ornm" horiz-adv-x="750" 
d="M375 -15q-69 0 -129 25.5t-104.5 70t-69.5 104t-25 128.5t25 128.5t69.5 104t104.5 70t129 25.5t129 -25.5t104.5 -70t69.5 -104t25 -128.5t-25 -128.5t-69.5 -104t-104.5 -70t-129 -25.5z" />
    </font>
</defs>
</svg>
