<?xml version="1.0" standalone="no"?>
<!DOCTYPE svg PUBLIC "-//W3C//DTD SVG 1.1//EN" "http://www.w3.org/Graphics/SVG/1.1/DTD/svg11.dtd" >
<svg xmlns="http://www.w3.org/2000/svg" xmlns:xlink="http://www.w3.org/1999/xlink" version="1.1">
<metadata>
Created by FontForge 20170812 at Wed Jul  1 18:31:29 2015
 By www-data
Copyright (c) 2004-2013, Phil's Fonts Inc &#38; Joshua Darden. All rights reserved. Published by Garagefonts USA 301-879-9222 www.garagefonts.com
</metadata>
<defs>
<font id="FreightNeoW03-Semi" horiz-adv-x="500" >
  <font-face 
    font-family="FreightNeoW03-Semi"
    font-weight="600"
    font-stretch="normal"
    units-per-em="1000"
    panose-1="2 0 5 3 0 0 0 2 0 4"
    ascent="800"
    descent="-200"
    x-height="458"
    cap-height="625"
    bbox="-193 -297 1305 1006"
    underline-thickness="50"
    underline-position="-125"
    unicode-range="U+0020-FB04"
  />
<missing-glyph 
d="M72 0v624h356v-624h-356zM229 312l-121 225v-449zM380 589h-261l131 -239zM250 275l-131 -239h261zM392 537l-122 -225l122 -224v449z" />
    <glyph glyph-name="uniFB00" unicode="ff" horiz-adv-x="715" 
d="M402 0v400h-204v-400h-107v400h-73v58h73q0 125 57 182t153 57q45 0 83 -12t70 -35q44 47 126 47q35 0 67 -11t60 -28l-35 -73q-15 25 -37 41t-49 16q-76 0 -76 -114v-70h133v-58h-133v-400h-108zM402 480q0 29 3 55t11 46q-18 26 -46 43.5t-62 17.5q-52 0 -81 -34.5
t-29 -112.5v-37h204v22z" />
    <glyph glyph-name="uniFB01" unicode="fi" horiz-adv-x="572" 
d="M398 0v400h-200v-400h-107v400h-73v58h73q0 125 56 182t151 57q40 0 79 -11t66 -28l-34 -73q-16 26 -43 41.5t-61 15.5q-49 0 -78 -34.5t-29 -112.5v-37h256l52 12v-470h-108z" />
    <glyph glyph-name="uniFB02" unicode="fl" horiz-adv-x="572" 
d="M398 0v593q-14 21 -38 35t-56 14q-48 0 -77 -34.5t-29 -112.5v-37h129v-58h-129v-400h-107v400h-73v58h73q0 125 57.5 182t155.5 57q29 0 58 -6t55 -16l89 22v-697h-108z" />
    <glyph glyph-name="uniFB03" unicode="ffi" horiz-adv-x="884" 
d="M710 0v400h-200v-400h-108v400h-204v-400h-107v400h-73v58h73q0 63 14.5 108t41.5 74t65 43t86 14q49 0 91 -14t73 -39q27 27 64.5 40t82.5 13q40 0 79.5 -11t66.5 -28l-35 -73q-15 25 -42 41t-62 16q-48 0 -77 -34.5t-29 -112.5v-37h255l53 12v-470h-108zM402 458
q0 67 18 115q-18 29 -47.5 49t-64.5 20q-52 0 -81 -34.5t-29 -112.5v-37h204z" />
    <glyph glyph-name="uniFB04" unicode="ffl" horiz-adv-x="884" 
d="M402 458q0 67 18 115q-18 29 -47.5 49t-64.5 20q-52 0 -81 -34.5t-29 -112.5v-37h204zM710 0v593q-14 21 -38 35t-56 14q-48 0 -77 -34.5t-29 -112.5v-37h136v-58h-136v-400h-108v400h-204v-400h-107v400h-73v58h73q0 63 14.5 108t41.5 74t65 43t86 14q49 0 92.5 -14
t73.5 -39q28 27 66.5 40t84.5 13q29 0 58.5 -6t55.5 -16l89 22v-697h-108z" />
    <glyph glyph-name=".notdef" 
d="M72 0v624h356v-624h-356zM229 312l-121 225v-449zM380 589h-261l131 -239zM250 275l-131 -239h261zM392 537l-122 -225l122 -224v449z" />
    <glyph glyph-name=".null" horiz-adv-x="0" 
 />
    <glyph glyph-name="nonmarkingreturn" horiz-adv-x="333" 
 />
    <glyph glyph-name="space" unicode=" " horiz-adv-x="236" 
 />
    <glyph glyph-name="exclam" unicode="!" horiz-adv-x="295" 
d="M149 -16q-29 0 -50 21.5t-21 50.5q0 30 21 51.5t50 21.5q30 0 50.5 -22t20.5 -51t-20.5 -50.5t-50.5 -21.5zM125 201l-42 387q-6 51 66 51t66 -51l-42 -387h-48z" />
    <glyph glyph-name="quotedbl" unicode="&#x22;" horiz-adv-x="420" 
d="M30 403l115 242l88 -31l-160 -211h-43zM210 403l115 242l88 -31l-160 -211h-43z" />
    <glyph glyph-name="numbersign" unicode="#" horiz-adv-x="590" 
d="M274 -6l52 189h-136l-51 -189h-59l52 189h-116v54h130l44 162h-121v54h135l48 178h59l-48 -178h136l47 178h59l-47 -178h116v-54h-131l-44 -162h116v-54h-130l-52 -189h-59zM384 399h-135l-44 -162h135z" />
    <glyph glyph-name="dollar" unicode="$" 
d="M114 -96l29 118q-29 5 -54 11.5t-42 14.5l26 76q17 -17 39 -28t45 -18l48 198q-40 13 -70 28.5t-49.5 34.5t-29.5 42.5t-10 54.5q0 32 13 62.5t39 54t65 38t91 14.5h15t15 -1l22 93h51l-24 -99q29 -5 55 -12t45 -15l-26 -75q-22 15 -43 26.5t-45 19.5l-43 -179
q46 -15 79 -31.5t54 -37t31 -45t10 -56.5q0 -35 -15.5 -67t-44.5 -56.5t-71.5 -39t-97.5 -14.5h-29l-27 -112h-51zM271 552h-12q-59 0 -89.5 -23.5t-30.5 -55.5q0 -34 21 -55t70 -39zM205 68q5 0 11 -0.5t12 -0.5q31 0 54.5 8t39 21t23 30t7.5 34q0 34 -21.5 56t-79.5 45z
" />
    <glyph glyph-name="percent" unicode="%" horiz-adv-x="713" 
d="M83 0l484 625h60l-484 -625h-60zM177 337q-36 0 -64 12.5t-47 34t-29 49.5t-10 60q0 31 10 59.5t29 50.5t47 34.5t64 12.5t63.5 -12.5t46.5 -34.5t29 -50.5t10 -59.5q0 -32 -10 -60t-29 -49.5t-46.5 -34t-63.5 -12.5zM177 382q23 0 42 25t19 86t-19 86t-42 25t-42 -25
t-19 -86t19 -86t42 -25zM536 -24q-36 0 -64 12.5t-47 33.5t-29 49t-10 60q0 31 10 59.5t29 50.5t47 34.5t64 12.5t64 -12.5t47 -34.5t29 -50.5t10 -59.5q0 -32 -10 -60t-29 -49t-47 -33.5t-64 -12.5zM536 20q24 0 42.5 25.5t18.5 85.5q0 61 -18.5 86.5t-42.5 25.5
q-23 0 -42 -25.5t-19 -86.5q0 -60 19 -85.5t42 -25.5z" />
    <glyph glyph-name="ampersand" unicode="&#x26;" horiz-adv-x="627" 
d="M482 0l-67 80q-35 -48 -78.5 -71.5t-111.5 -23.5q-46 0 -81 14t-59 38t-36.5 55t-12.5 65q0 27 11 55.5t31 54.5t48 48t63 37q-32 37 -56 77.5t-24 71.5t10 56.5t31.5 44t54.5 28.5t79 10q41 0 71.5 -11t50 -29.5t29 -42t9.5 -48.5q0 -91 -107 -144l-20 -10l117 -139
l84 135h68l-114 -182l141 -169h-131zM286 393q29 23 42.5 50.5t13.5 59.5q0 37 -17 60.5t-47 23.5q-26 0 -44.5 -18t-18.5 -50q0 -23 11.5 -45t28.5 -43zM222 313q-29 -20 -53 -53t-24 -78q0 -27 9 -49.5t24 -38.5t36 -25t45 -9q38 0 68 17.5t50 49.5z" />
    <glyph glyph-name="quotesingle" unicode="'" horiz-adv-x="240" 
d="M30 403l115 242l88 -31l-160 -211h-43z" />
    <glyph glyph-name="parenleft" unicode="(" horiz-adv-x="376" 
d="M313 -213q-53 30 -101.5 76.5t-85 106t-58 131t-21.5 152.5q0 79 21.5 150.5t58 131t84.5 106.5t102 77l27 -46q-47 -29 -88.5 -72t-72.5 -97t-48.5 -117.5t-17.5 -132.5t17.5 -133t48.5 -118t72.5 -97.5t88.5 -71.5z" />
    <glyph glyph-name="parenright" unicode=")" horiz-adv-x="376" 
d="M36 -167q47 28 88.5 71.5t72.5 97.5t49 118t18 133t-18 132.5t-48.5 117.5t-72 97t-89.5 72l28 46q54 -30 102 -77t84.5 -106.5t58 -131t21.5 -150.5q0 -81 -21.5 -152.5t-58.5 -131t-85 -106t-101 -76.5z" />
    <glyph glyph-name="asterisk" unicode="*" horiz-adv-x="354" 
d="M223 308l-49 36l5 107l-15 4l-53 -89l-62 -4l-14 17l20 60l100 27v19l-100 28l-21 58l14 18l63 -4l53 -90l15 5l-3 105l48 37l22 -8l16 -58l-70 -81l10 -13l99 38l50 -35v-22l-50 -35l-99 39l-10 -13l68 -82l-16 -58z" />
    <glyph glyph-name="plus" unicode="+" 
d="M222 24v184h-175v55h175v184h55v-184h176v-55h-176v-184h-55z" />
    <glyph glyph-name="comma" unicode="," horiz-adv-x="230" 
d="M30 -160q38 29 61 61t23 70q0 58 -82 89q0 27 20 48t56 21q20 0 38 -8.5t31.5 -23t21.5 -34.5t8 -43q0 -32 -11.5 -61.5t-32 -55.5t-48.5 -50t-61 -45z" />
    <glyph glyph-name="hyphen" unicode="-" horiz-adv-x="328" 
d="M51 231v60h225v-60h-225z" />
    <glyph glyph-name="period" unicode="." horiz-adv-x="230" 
d="M188 58q0 -30 -21.5 -51.5t-51.5 -21.5q-31 0 -52 21t-21 52q0 30 21 52t52 22q30 0 51.5 -22t21.5 -52z" />
    <glyph glyph-name="slash" unicode="/" horiz-adv-x="285" 
d="M8 -177l217 877h51l-217 -877h-51z" />
    <glyph glyph-name="zero" unicode="0" horiz-adv-x="554" 
d="M270 -15q-54 0 -96 19t-71 52.5t-44.5 79.5t-15.5 100q0 55 17 103t48.5 83t76 55t99.5 20q54 0 96 -19t71 -53t44.5 -80t15.5 -100q0 -56 -17 -103.5t-48.5 -82t-76 -54.5t-99.5 -20zM279 39q51 0 83 50t32 141q0 108 -34 160.5t-86 52.5q-51 0 -82.5 -50t-31.5 -141
q0 -109 33.5 -161t85.5 -52z" />
    <glyph glyph-name="one" unicode="1" horiz-adv-x="321" 
d="M136 0v387h-109v44l216 69v-500h-107z" />
    <glyph glyph-name="two" unicode="2" horiz-adv-x="463" 
d="M48 0l-7 73q54 36 99.5 68t78.5 62.5t51.5 60t18.5 59.5q0 42 -24.5 65.5t-64.5 23.5q-42 0 -75 -17t-54 -41l-33 38q42 52 92.5 78.5t115.5 26.5q35 0 64 -10t50 -27.5t33 -42t12 -53.5q0 -38 -16.5 -71t-48 -64t-76 -62.5t-101.5 -67.5v-4h260v-95h-375z" />
    <glyph glyph-name="three" unicode="3" horiz-adv-x="461" 
d="M68 -80q17 -27 46.5 -46.5t70.5 -19.5q58 0 91 38t33 102q0 59 -30.5 93t-90.5 34q-20 0 -39.5 -5.5t-42.5 -14.5l-16 46q97 45 141.5 90t44.5 93q0 38 -26 62.5t-66 24.5q-39 0 -72 -19t-55 -44l-33 38q45 53 96 79t116 26q36 0 64.5 -10.5t48.5 -28t30.5 -40.5
t10.5 -48q0 -56 -37.5 -101t-104.5 -84q44 -2 77.5 -15.5t56 -36t33.5 -52.5t11 -63q0 -44 -17 -83.5t-48 -69.5t-74 -47.5t-95 -17.5q-61 0 -98.5 13.5t-68.5 33.5z" />
    <glyph glyph-name="four" unicode="4" horiz-adv-x="539" 
d="M308 -185v194h-276l-6 50l313 429h72v-392h106v-87h-106v-194h-103zM308 349h-6l-184 -253h190v253z" />
    <glyph glyph-name="five" unicode="5" horiz-adv-x="448" 
d="M53 -80q17 -28 48.5 -47t71.5 -19q60 0 91.5 34.5t31.5 94.5q0 61 -60.5 112t-198.5 83l75 304h293v-99h-260l-27 -112q146 -38 214 -106.5t68 -151.5q0 -47 -16.5 -86t-45.5 -67.5t-70.5 -44t-90.5 -15.5q-54 0 -96 13.5t-71 33.5z" />
    <glyph glyph-name="six" unicode="6" horiz-adv-x="546" 
d="M165 361q34 28 74.5 43.5t79.5 15.5q42 0 76 -15.5t58 -42.5t37 -64.5t13 -80.5q0 -51 -18 -94t-49.5 -73.5t-74 -47.5t-91.5 -17q-53 0 -95 21.5t-71 58.5t-45 85.5t-16 101.5q0 93 36.5 170t96.5 133.5t138.5 90.5t162.5 41l7 -48q-67 -11 -119.5 -35.5t-92.5 -60
t-67 -81t-43 -98.5zM163 298q-3 -11 -4.5 -23.5t-1.5 -35.5q0 -37 8.5 -73t25 -64t40.5 -45.5t56 -17.5q25 0 43.5 11.5t31 31.5t18.5 46.5t6 55.5q0 73 -33.5 114.5t-90.5 41.5q-30 0 -56.5 -14t-42.5 -28z" />
    <glyph glyph-name="seven" unicode="7" horiz-adv-x="487" 
d="M66 -185l299 568h-331v99h418l6 -53l-314 -614h-78z" />
    <glyph glyph-name="eight" unicode="8" horiz-adv-x="528" 
d="M350 336q25 -14 49.5 -29.5t43.5 -36t30.5 -46.5t11.5 -60q0 -36 -15 -68t-44 -57t-72 -39.5t-99 -14.5q-44 0 -82.5 11.5t-67.5 32.5t-45.5 51.5t-16.5 68.5q0 51 34 91.5t91 62.5v4q-23 13 -43 27.5t-35 33t-24 41.5t-9 53q0 33 13 65t39 57t65.5 40.5t92.5 15.5
q43 0 79 -11.5t62 -33t40.5 -51t14.5 -65.5q0 -48 -31 -82.5t-82 -56.5v-4zM301 361q55 37 55 110q0 22 -6.5 43t-19.5 37t-32.5 26t-45.5 10q-45 0 -70.5 -26.5t-25.5 -61.5q0 -21 7 -38t23.5 -32.5t44.5 -32t70 -35.5zM218 281q-30 -22 -49 -53t-19 -69q0 -52 33 -86.5
t90 -34.5q54 0 83 25.5t29 63.5q0 23 -8.5 42t-28 36.5t-51.5 36t-79 39.5z" />
    <glyph glyph-name="nine" unicode="9" horiz-adv-x="545" 
d="M61 -150q135 22 213 91.5t110 176.5l-3 3q-34 -28 -74.5 -43.5t-79.5 -15.5q-42 0 -76 15.5t-58 42.5t-37 64t-13 81q0 51 18 94t49.5 73.5t74 47.5t91.5 17q52 0 94.5 -22t71.5 -58.5t45 -85t16 -101.5q0 -93 -36.5 -169t-96.5 -131.5t-138.5 -88t-162.5 -39.5zM383 184
q3 11 4.5 23.5t1.5 35.5q0 37 -8.5 73t-25 64t-41 45.5t-55.5 17.5q-25 0 -43.5 -11.5t-31 -31.5t-18.5 -46.5t-6 -55.5q0 -73 33.5 -114.5t90.5 -41.5q30 0 56.5 14t42.5 28z" />
    <glyph glyph-name="colon" unicode=":" horiz-adv-x="235" 
d="M190 385q0 -30 -21 -51.5t-52 -21.5q-30 0 -51.5 21.5t-21.5 51.5q0 31 21.5 53t51.5 22q31 0 52 -22t21 -53zM190 58q0 -30 -21 -51.5t-52 -21.5q-30 0 -51.5 21.5t-21.5 51.5q0 31 21.5 52.5t51.5 21.5q31 0 52 -22t21 -52z" />
    <glyph glyph-name="semicolon" unicode=";" horiz-adv-x="235" 
d="M190 385q0 -30 -21 -51.5t-52 -21.5q-30 0 -51.5 21.5t-21.5 51.5q0 31 21.5 53t51.5 22q31 0 52 -22t21 -53zM35 -159q38 29 61 61t23 69q0 58 -82 89q0 27 20 48t56 21q20 0 38 -8.5t31.5 -23t21.5 -34.5t8 -43q0 -32 -11.5 -61t-32 -55.5t-48.5 -50t-61 -44.5z" />
    <glyph glyph-name="less" unicode="&#x3c;" 
d="M40 215v39l401 183v-61l-312 -139v-5l312 -139v-60z" />
    <glyph glyph-name="equal" unicode="=" 
d="M52 290v56h396v-56h-396zM52 122v56h396v-56h-396z" />
    <glyph glyph-name="greater" unicode="&#x3e;" 
d="M59 33v60l311 139v5l-311 139v61l401 -183v-39z" />
    <glyph glyph-name="question" unicode="?" horiz-adv-x="392" 
d="M148 198q-23 17 -37 43t-14 55q0 26 9 44t25 31t38.5 23t49.5 19q35 12 57 25.5t22 34.5q0 15 -10.5 26.5t-29.5 19t-44 11.5t-53 4q-21 0 -43 -3t-37 -6q-8 8 -13 22.5t-5 26.5q0 29 21 47t68 18q45 0 83 -14t65.5 -38t43 -56t15.5 -68q0 -32 -7.5 -55t-22 -40t-36 -29
t-49.5 -22q-23 -8 -37.5 -15t-22.5 -14t-11 -14.5t-3 -16.5q0 -23 25 -59h-47zM173 -16q-29 0 -50 21.5t-21 50.5q0 30 21 51.5t50 21.5q30 0 51 -22t21 -51t-21 -50.5t-51 -21.5z" />
    <glyph glyph-name="at" unicode="@" horiz-adv-x="927" 
d="M606 -137q-38 -13 -73.5 -19.5t-76.5 -6.5q-86 0 -161 31t-130.5 85t-87 127.5t-31.5 158.5q0 89 33 168.5t91 139t137.5 94t173.5 34.5q85 0 158 -24t126.5 -69.5t84 -111.5t30.5 -150q0 -57 -18.5 -109.5t-51.5 -93t-79.5 -65t-101.5 -24.5q-60 0 -92 24.5t-32 74.5
q0 35 18 83h-6q-23 -42 -43.5 -72t-40.5 -49t-42 -28t-47 -9q-47 0 -78 33.5t-31 97.5q0 58 19.5 113t52.5 98t77 69.5t93 26.5q38 0 62.5 -21t34.5 -58h6l23 62h96l-101 -285q-5 -14 -7.5 -26.5t-2.5 -22.5q0 -27 16 -40t43 -13q40 0 73.5 19.5t57.5 51.5t37 74t13 87
q0 70 -24.5 127t-70 96.5t-110 61t-144.5 21.5t-149 -30t-121 -81.5t-81.5 -121.5t-29.5 -150q0 -77 27 -141.5t75.5 -112t114.5 -74t144 -26.5q32 0 64 5.5t68 17.5zM553 347q-8 35 -26.5 52t-44.5 17t-52 -19t-46 -49t-32.5 -67t-12.5 -73q0 -38 11 -54.5t35 -16.5
q13 0 30 10.5t38 35t46 64.5t54 100z" />
    <glyph glyph-name="A" unicode="A" horiz-adv-x="580" 
d="M433 0l-63 190h-224l-63 -190h-65l194 568v37l132 38l218 -643h-129zM264 518h-9l-90 -273h186z" />
    <glyph glyph-name="B" unicode="B" horiz-adv-x="585" 
d="M76 1v623l204 4q67 1 112.5 -9.5t74 -30.5t41 -47t12.5 -59q0 -29 -11 -53.5t-30 -44t-45 -34t-56 -22.5v-5q81 -14 122 -55t41 -98q0 -81 -67 -128.5t-204 -44.5zM260 347q33 0 57.5 9t41 24t24.5 34.5t8 40.5q0 51 -35.5 83t-107.5 32h-50v-223h62zM262 56q75 0 112 33
t37 87q0 24 -11.5 45.5t-32.5 37.5t-51 25t-67 9h-51v-237h64z" />
    <glyph glyph-name="C" unicode="C" horiz-adv-x="647" 
d="M592 44q-43 -29 -96 -44t-109 -15q-77 0 -141 23t-110 65t-71 102t-25 134q0 70 25.5 131t71.5 105t108.5 69.5t137.5 25.5q68 0 124.5 -16.5t104.5 -46.5l-42 -78q-35 38 -80.5 61.5t-104.5 23.5q-45 0 -84 -17.5t-68.5 -51.5t-46 -83.5t-16.5 -112.5q0 -67 17.5 -118.5
t48.5 -86.5t74 -53t93 -18q42 0 82.5 12t75.5 41z" />
    <glyph glyph-name="D" unicode="D" horiz-adv-x="668" 
d="M76 1v623l178 4q86 2 155 -20.5t118 -64t75 -98.5t26 -124q0 -70 -24 -130t-71.5 -104t-118 -68t-162.5 -22zM257 55q60 0 105 18.5t75 51.5t45.5 79t15.5 101q0 60 -16.5 109t-50 83.5t-84 53.5t-117.5 19h-32v-515h59z" />
    <glyph glyph-name="E" unicode="E" horiz-adv-x="530" 
d="M76 0v625h406v-83q-17 6 -35 10.5t-40 8t-50 5t-66 1.5h-94v-223h202v-56h-202v-230h94q38 0 66 1.5t50 5t40 8t35 10.5v-83h-406z" />
    <glyph glyph-name="F" unicode="F" horiz-adv-x="516" 
d="M76 0v625h404v-83q-17 6 -35 10.5t-40 8t-50 5t-66 1.5h-92v-226h205v-56h-205v-285h-121z" />
    <glyph glyph-name="G" unicode="G" horiz-adv-x="658" 
d="M472 276h120v-234q-90 -57 -205 -57q-77 0 -141 22.5t-109.5 64t-71 101t-25.5 133.5q0 70 25.5 131t71 106t108.5 71t138 26q64 0 122.5 -16.5t106.5 -46.5l-42 -78q-35 38 -80.5 61.5t-105.5 23.5q-45 0 -84 -18t-68 -52t-45.5 -83.5t-16.5 -112.5q0 -67 17.5 -118.5
t48.5 -87t73 -53.5t92 -18q20 0 36.5 1.5t34.5 6.5v227z" />
    <glyph glyph-name="H" unicode="H" horiz-adv-x="660" 
d="M462 0v290h-264v-290h-122v625h122v-277h264v277h122v-625h-122z" />
    <glyph glyph-name="I" unicode="I" horiz-adv-x="274" 
d="M76 0v625h122v-625h-122z" />
    <glyph glyph-name="J" unicode="J" horiz-adv-x="475" 
d="M278 625h121v-403q0 -65 -15 -110.5t-41.5 -73.5t-64 -40.5t-82.5 -12.5q-67 0 -112.5 25.5t-72.5 67.5l60 70l16 -33q19 -39 43 -56.5t57 -17.5q42 0 66.5 30t24.5 94v460z" />
    <glyph glyph-name="K" unicode="K" horiz-adv-x="614" 
d="M446 0l-187 292l-61 -62v-230h-122v625h122v-313l308 313h86l-248 -248l250 -377h-148z" />
    <glyph glyph-name="L" unicode="L" horiz-adv-x="506" 
d="M76 0v625h121v-567h92q38 0 66 1.5t50 4.5t40 7.5t35 10.5v-82h-404z" />
    <glyph glyph-name="M" unicode="M" horiz-adv-x="803" 
d="M613 0l-17 536h-9l-178 -513h-79l-171 513h-10l-17 -536h-64l21 625h164l143 -435h7l148 435h164l20 -625h-122z" />
    <glyph glyph-name="N" unicode="N" horiz-adv-x="654" 
d="M463 -6l-318 494h-6v-488h-63v619l122 10l311 -483h6v479h63v-620z" />
    <glyph glyph-name="O" unicode="O" horiz-adv-x="741" 
d="M701 317q0 -71 -26.5 -132t-71.5 -105.5t-105.5 -69.5t-129.5 -25q-73 0 -133 23.5t-103.5 66t-67.5 101.5t-24 131q0 71 26 132t71 105.5t105.5 70t129.5 25.5q73 0 133.5 -23.5t104 -66t67.5 -102t24 -131.5zM373 40q41 0 77 17t63 50.5t42.5 83t15.5 114.5
q0 67 -16 119t-44 87.5t-65 54t-79 18.5q-41 0 -77 -17t-62.5 -50.5t-42 -83t-15.5 -114.5q0 -67 16 -119t44 -87.5t64.5 -54t78.5 -18.5z" />
    <glyph glyph-name="P" unicode="P" horiz-adv-x="567" 
d="M76 0v624l205 4q63 1 109.5 -12.5t78 -38.5t47 -58t15.5 -71q0 -51 -21 -90.5t-56.5 -66.5t-82.5 -40.5t-99 -13.5q-17 0 -37 1t-37 3v-241h-122zM198 570v-272q28 -6 68 -6q29 0 54 9.5t43 27.5t28 43.5t10 57.5q0 63 -37 101.5t-102 38.5h-64z" />
    <glyph glyph-name="Q" unicode="Q" horiz-adv-x="741" 
d="M417 -11q-12 -2 -24 -3t-25 -1q-73 0 -133 23.5t-103.5 66t-67.5 101.5t-24 131q0 71 26 132t71.5 105.5t106 70t129.5 25.5q73 0 133 -23.5t103.5 -66t67.5 -102t24 -131.5q0 -54 -15.5 -103t-43.5 -89t-67 -70t-85 -48l202 -153l-38 -51zM373 40q41 0 77 17t63 50.5
t42.5 83t15.5 114.5q0 67 -16 119t-44 87.5t-64.5 54t-78.5 18.5q-41 0 -77 -17t-63 -50.5t-42.5 -83t-15.5 -114.5q0 -67 16 -119t44 -87.5t64.5 -54t78.5 -18.5z" />
    <glyph glyph-name="R" unicode="R" horiz-adv-x="586" 
d="M425 0l-153 263l-74 3v-266h-122v624l218 4q61 1 105.5 -10.5t73 -33t42.5 -51.5t14 -66q0 -61 -36.5 -107.5t-102.5 -67.5l176 -292h-141zM198 570v-245q12 -2 29.5 -3t31.5 -1q62 0 101 32.5t39 91.5q0 61 -35.5 93t-106.5 32h-59z" />
    <glyph glyph-name="S" unicode="S" horiz-adv-x="545" 
d="M75 114q46 -39 89 -56t91 -17q35 0 60.5 9t42.5 23t25 32.5t8 38.5q0 21 -7.5 38t-25.5 32t-48 28.5t-75 28.5q-94 30 -140.5 73t-46.5 114q0 35 14 67.5t42 58t70.5 41t100.5 15.5q57 0 109 -11t90 -27l-27 -84q-44 36 -87 51t-92 15q-56 0 -87.5 -26.5t-31.5 -62.5
q0 -44 35 -70t112 -50q54 -17 92.5 -36.5t62.5 -43t35 -52.5t11 -65q0 -38 -16.5 -73t-48.5 -61.5t-79.5 -42.5t-108.5 -16q-52 0 -102.5 12.5t-94.5 33.5z" />
    <glyph glyph-name="T" unicode="T" horiz-adv-x="579" 
d="M229 0v567q-36 -1 -65 -2.5t-53 -4.5t-44 -7.5t-39 -11.5v84h523v-84q-19 7 -39 11.5t-43.5 7.5t-52.5 4.5t-65 2.5v-567h-122z" />
    <glyph glyph-name="U" unicode="U" horiz-adv-x="637" 
d="M503 625h62v-404q0 -56 -17.5 -100t-50 -74t-78 -46t-101.5 -16t-101 15t-77.5 45t-50 75.5t-17.5 106.5v398h122v-375q0 -101 42.5 -145t114.5 -44q74 0 113 46.5t39 130.5v387z" />
    <glyph glyph-name="V" unicode="V" horiz-adv-x="597" 
d="M238 -3l-220 628h130l176 -516h9l181 516h65l-226 -628h-115z" />
    <glyph glyph-name="W" unicode="W" horiz-adv-x="888" 
d="M579 -3l-133 380h-5l-132 -380h-90l-201 628h129l147 -489h6l114 335l-53 154h127l160 -489h5l153 489h64l-201 -628h-90z" />
    <glyph glyph-name="X" unicode="X" horiz-adv-x="613" 
d="M450 0l-164 252l-186 -252h-78l226 298l-221 327h142l157 -241l181 241h77l-220 -287l227 -338h-141z" />
    <glyph glyph-name="Y" unicode="Y" horiz-adv-x="584" 
d="M232 0v261l-214 364h136l166 -290h10l168 290h68l-212 -363v-262h-122z" />
    <glyph glyph-name="Z" unicode="Z" horiz-adv-x="566" 
d="M30 0v45l357 520v2h-147q-34 0 -60.5 -1.5t-48.5 -4.5t-41 -8t-38 -12v84h484v-47l-358 -519v-2h153q33 0 59.5 1.5t48.5 4.5t41 8t38 12v-83h-488z" />
    <glyph glyph-name="bracketleft" unicode="[" horiz-adv-x="358" 
d="M86 -184v910h247v-54h-179v-802h179v-54h-247z" />
    <glyph glyph-name="backslash" unicode="\" horiz-adv-x="285" 
d="M225 -177l-217 877h51l217 -877h-51z" />
    <glyph glyph-name="bracketright" unicode="]" horiz-adv-x="358" 
d="M25 -184v54h178v802h-178v54h246v-910h-246z" />
    <glyph glyph-name="asciicircum" unicode="^" horiz-adv-x="419" 
d="M325 520l-113 119h-5l-113 -119h-49l126 200h77l126 -200h-49z" />
    <glyph glyph-name="underscore" unicode="_" horiz-adv-x="457" 
d="M-10 -163v55h476v-55h-476z" />
    <glyph glyph-name="grave" unicode="`" horiz-adv-x="417" 
d="M219 534l-163 177h119l94 -177h-50z" />
    <glyph glyph-name="a" unicode="a" horiz-adv-x="480" 
d="M310 0v63h-4q-25 -37 -60 -57.5t-86 -20.5q-25 0 -47.5 9t-39.5 25t-27 39t-10 50q0 36 16.5 63t48.5 48.5t78 38.5t106 31l25 6v21q0 54 -17 77.5t-62 23.5q-32 0 -64.5 -20.5t-61.5 -60.5l-44 67q49 38 93.5 54t101.5 16q87 0 124.5 -45.5t37.5 -145.5v-282h-108z
M310 246l-24 -7q-77 -23 -109 -50t-32 -59t18.5 -49t45.5 -17q32 0 58 17.5t43 42.5v122z" />
    <glyph glyph-name="b" unicode="b" horiz-adv-x="536" 
d="M66 -11v682l107 26v-296h4q26 32 62.5 52t82.5 20q42 0 75.5 -17.5t56 -48t34.5 -72t12 -88.5q0 -51 -15.5 -97.5t-45.5 -81.5t-75 -55.5t-103 -20.5q-61 0 -116 25zM173 75q19 -14 40.5 -21.5t42.5 -7.5q28 0 51.5 12.5t40.5 35.5t27 55t10 70q0 78 -32.5 124t-88.5 46
q-26 0 -50.5 -16.5t-40.5 -39.5v-258z" />
    <glyph glyph-name="c" unicode="c" horiz-adv-x="476" 
d="M425 38q-30 -25 -68 -39t-92 -14q-51 0 -93 17t-72 48.5t-47 75.5t-17 97q0 54 17 99.5t48 79t74.5 52.5t96.5 19t94.5 -13.5t75.5 -39.5l-43 -70q-24 31 -52.5 49.5t-67.5 18.5q-31 0 -54.5 -14t-40 -39t-25 -60t-8.5 -76q0 -39 9.5 -73t28 -59t45.5 -39t62 -14
q26 0 53 10t49 30z" />
    <glyph glyph-name="d" unicode="d" horiz-adv-x="536" 
d="M363 0v57h-4q-26 -33 -62 -52.5t-83 -19.5q-42 0 -75.5 17.5t-56 48t-34.5 71.5t-12 88q0 51 15.5 97.5t45.5 82t74.5 56t102.5 20.5q23 0 46 -4t43 -11v220l107 26v-697h-107zM363 382q-18 14 -40 21.5t-43 7.5q-28 0 -51.5 -12.5t-41 -35.5t-27 -55t-9.5 -70
q0 -78 32 -123.5t89 -45.5q26 0 50.5 16t40.5 39v258z" />
    <glyph glyph-name="e" unicode="e" horiz-adv-x="493" 
d="M428 38q-29 -25 -68 -39t-94 -14q-51 0 -93 17t-72.5 48t-47.5 75t-17 98t17.5 100t48 79.5t72.5 52t91 18.5q47 0 83 -14t60 -39t36.5 -59.5t12.5 -75.5q0 -10 -1 -23.5t-3 -25.5h-301q0 -40 9.5 -75t28 -61.5t46 -41.5t63.5 -15q29 0 55 10.5t48 29.5zM347 287
q0 60 -20.5 95.5t-65.5 35.5q-35 0 -65 -34.5t-41 -96.5h192z" />
    <glyph glyph-name="f" unicode="f" horiz-adv-x="403" 
d="M91 0v400h-73v58h73v22q0 113 47 165t131 52q35 0 67 -11t59 -28l-34 -73q-14 24 -36.5 40t-49.5 16q-76 0 -76 -113v-70h132v-58h-132v-400h-108z" />
    <glyph glyph-name="g" unicode="g" horiz-adv-x="526" 
d="M111 -25q-29 10 -46.5 33t-17.5 50q0 32 19.5 57.5t63.5 41.5v5q-36 17 -60 50.5t-24 88.5q0 35 13 66.5t38 55t61 37t82 13.5q52 0 91 -15h185v-58l-117 3v-6q18 -22 24.5 -42t6.5 -43q0 -38 -14.5 -69.5t-40.5 -54.5t-62 -36t-80 -13q-13 0 -27 2t-26 4
q-17 -7 -27.5 -18t-10.5 -25q0 -43 64 -43q38 0 66 1.5t59 1.5q66 0 109.5 -37t43.5 -103q0 -42 -19.5 -76t-54.5 -57.5t-85 -36.5t-110 -13q-96 0 -148 31.5t-52 87.5q0 41 24 68t72 44v5zM174 -37q-24 -11 -42 -30t-18 -51q0 -43 35.5 -65.5t98.5 -22.5q61 0 101 26t40 70
q0 41 -30 57t-81 16q-26 0 -51.5 -1t-52.5 1zM237 192q38 0 61 27.5t23 78.5q0 24 -5 46.5t-15.5 39.5t-25.5 27t-36 10q-38 0 -60.5 -27.5t-22.5 -79.5q0 -24 5 -46.5t15 -39t25 -26.5t36 -10z" />
    <glyph glyph-name="h" unicode="h" horiz-adv-x="528" 
d="M358 0v283q0 54 -18.5 78t-60.5 24q-29 0 -57.5 -20t-48.5 -45v-320h-107v671l107 26v-301h5q38 38 76 57.5t83 19.5q34 0 58 -11.5t40 -32t23.5 -48t7.5 -59.5v-322h-108z" />
    <glyph glyph-name="i" unicode="i" horiz-adv-x="242" 
d="M67 0v445l108 25v-470h-108zM121 545q-28 0 -48 20t-20 49t20 49.5t48 20.5t48 -20.5t20 -49.5t-20 -49t-48 -20z" />
    <glyph glyph-name="j" unicode="j" horiz-adv-x="242" 
d="M121 545q-28 0 -48 20t-20 49t20 49.5t48 20.5t48 -20.5t20 -49.5t-20 -49t-48 -20zM67 445l108 25v-488q0 -123 -43.5 -183.5t-140.5 -60.5q-17 0 -42 5t-40 13l19 83q15 -19 32.5 -32t37.5 -13q32 0 50.5 21.5t18.5 71.5v558z" />
    <glyph glyph-name="k" unicode="k" horiz-adv-x="506" 
d="M358 0l-132 230l-53 -46v-184h-107v671l107 26v-447l233 208h78l-178 -159l176 -299h-124z" />
    <glyph glyph-name="l" unicode="l" horiz-adv-x="239" 
d="M66 0v671l107 26v-697h-107z" />
    <glyph glyph-name="m" unicode="m" horiz-adv-x="808" 
d="M639 0v282q0 53 -17 78t-58 25q-29 0 -56.5 -19.5t-47.5 -45.5v-320h-108v282q0 53 -17 78t-58 25q-29 0 -56.5 -19t-47.5 -45v-321h-107v445l107 25v-74h5q38 38 75 57.5t81 19.5q48 0 77.5 -25t40.5 -66q37 41 78.5 66t89.5 25q33 0 57 -12t39 -32t22.5 -48t7.5 -59
v-322h-107z" />
    <glyph glyph-name="n" unicode="n" horiz-adv-x="528" 
d="M358 0v283q0 54 -18.5 78t-60.5 24q-29 0 -57.5 -19.5t-48.5 -44.5v-321h-107v445l107 25v-74h5q38 37 76.5 57t83.5 20q34 0 58 -12t39.5 -32.5t23 -48t7.5 -59.5v-321h-108z" />
    <glyph glyph-name="o" unicode="o" horiz-adv-x="544" 
d="M264 -15q-54 0 -96 18t-71.5 49.5t-45 75.5t-15.5 95q0 53 17.5 99t49.5 79.5t77 52.5t100 19q54 0 96 -18t71.5 -49.5t45 -75.5t15.5 -95q0 -53 -17.5 -99t-49.5 -79.5t-77 -52.5t-100 -19zM275 40q51 0 84.5 46t33.5 130q0 52 -9.5 90t-26.5 62.5t-40 36.5t-49 12
q-51 0 -84 -45.5t-33 -130.5q0 -52 9.5 -90t26.5 -62.5t39.5 -36.5t48.5 -12z" />
    <glyph glyph-name="p" unicode="p" horiz-adv-x="536" 
d="M66 -246v691l107 25v-69h4q26 32 62 52t83 20q42 0 75.5 -17.5t56 -48t34.5 -72t12 -88.5q0 -51 -15.5 -97.5t-45.5 -81.5t-75 -55.5t-103 -20.5q-22 0 -45 3.5t-43 11.5v-253h-107zM173 75q19 -14 40.5 -21.5t42.5 -7.5q28 0 51.5 12.5t40.5 35.5t27 55t10 70
q0 78 -32.5 124t-88.5 46q-26 0 -50.5 -16.5t-40.5 -39.5v-258z" />
    <glyph glyph-name="q" unicode="q" horiz-adv-x="536" 
d="M363 -246v303h-4q-26 -33 -62.5 -52.5t-82.5 -19.5q-42 0 -75.5 17.5t-56 48t-34.5 71.5t-12 88q0 51 15.5 97.5t45.5 82t74.5 56t103.5 20.5q28 0 59 -6t55 -19l81 28v-715h-107zM363 382q-18 14 -40 21.5t-44 7.5q-27 0 -50.5 -12.5t-41 -35.5t-27 -55t-9.5 -70
q0 -78 32.5 -123.5t88.5 -45.5q26 0 50.5 16t40.5 39v258z" />
    <glyph glyph-name="r" unicode="r" horiz-adv-x="383" 
d="M66 0v445l107 25v-89h5q40 92 121 92q35 0 64 -17l-20 -101q-14 15 -29.5 23.5t-35.5 8.5q-35 0 -64 -36t-41 -110v-241h-107z" />
    <glyph glyph-name="s" unicode="s" horiz-adv-x="431" 
d="M71 97q23 -26 55 -41.5t73 -15.5q43 0 69.5 15.5t26.5 46.5q0 26 -22.5 44.5t-81.5 37.5q-36 12 -64.5 25.5t-48 31t-30 40.5t-10.5 53q0 28 12 53.5t34.5 44.5t56 30t77.5 11q93 0 163 -38l-32 -74q-23 26 -56 41.5t-73 15.5q-42 0 -63 -14.5t-21 -40.5q0 -24 20 -41.5
t77 -36.5q41 -14 71.5 -29t50 -32.5t29 -39t9.5 -49.5q0 -30 -12.5 -57.5t-37 -48t-60.5 -32.5t-83 -12q-46 0 -87 10t-74 28z" />
    <glyph glyph-name="t" unicode="t" horiz-adv-x="368" 
d="M351 42q-28 -28 -58 -42.5t-76 -14.5q-63 0 -94.5 36t-31.5 115v264h-73v58h73v131l107 26v-157h140v-58h-140v-272q0 -45 14.5 -61.5t40.5 -16.5q20 0 37.5 11t36.5 30z" />
    <glyph glyph-name="u" unicode="u" horiz-adv-x="528" 
d="M354 0v62h-5q-37 -38 -75.5 -57.5t-83.5 -19.5q-34 0 -58.5 11.5t-40 32t-22.5 48t-7 59.5v322h107v-283q0 -54 19 -78t61 -24q29 0 57 19.5t48 44.5v321h108v-458h-108z" />
    <glyph glyph-name="v" unicode="v" horiz-adv-x="481" 
d="M204 -3l-184 461h117l132 -343l133 343h59l-185 -461h-72z" />
    <glyph glyph-name="w" unicode="w" horiz-adv-x="728" 
d="M471 -3l-107 289l-109 -289h-70l-165 461h118l114 -335l86 232l-38 103h115l118 -336l115 336h60l-167 -461h-70z" />
    <glyph glyph-name="x" unicode="x" horiz-adv-x="490" 
d="M346 0l-120 178l-138 -178h-68l171 216l-164 242h124l114 -171l132 171h67l-164 -210l170 -248h-124z" />
    <glyph glyph-name="y" unicode="y" horiz-adv-x="481" 
d="M227 -16l-207 474h119l139 -338l123 338h60l-226 -600q-44 -119 -134 -119q-17 0 -37.5 3.5t-32.5 11.5l22 97q14 -18 27.5 -29.5t34.5 -11.5q25 0 42.5 16t31.5 54z" />
    <glyph glyph-name="z" unicode="z" horiz-adv-x="466" 
d="M34 0v40l264 367h-80q-51 0 -92 -7t-73 -20v78h379v-40l-264 -368h93q52 0 92.5 7.5t72.5 19.5v-77h-392z" />
    <glyph glyph-name="braceleft" unicode="{" horiz-adv-x="341" 
d="M304 -186q-104 5 -156 46t-52 107q0 29 8.5 54t19 48t19 45.5t8.5 45.5q0 40 -34 57t-92 22v60q55 5 90.5 22t35.5 58q0 22 -8.5 44.5t-19 45.5t-19 48.5t-8.5 54.5q0 66 52 107t156 46v-45q-59 -5 -83.5 -28t-24.5 -58q0 -25 8.5 -47t18.5 -45t18.5 -48t8.5 -55
q0 -24 -11.5 -45.5t-31.5 -38t-46.5 -27t-56.5 -13.5v-12q30 -3 56.5 -14t46.5 -27.5t31.5 -38t11.5 -45.5q0 -30 -8.5 -54.5t-18.5 -46.5t-18.5 -44t-8.5 -46q0 -35 24.5 -59.5t83.5 -29.5v-44z" />
    <glyph glyph-name="bar" unicode="|" horiz-adv-x="250" 
d="M100 -157v877h49v-877h-49z" />
    <glyph glyph-name="braceright" unicode="}" horiz-adv-x="341" 
d="M36 -142q59 5 84 29.5t25 59.5q0 24 -8.5 46t-18.5 44t-18.5 46.5t-8.5 54.5q0 24 11.5 45.5t31.5 38t46.5 27.5t56.5 14v12q-30 3 -56.5 13.5t-46.5 27t-31.5 38t-11.5 45.5q0 30 8.5 55t18.5 48t18.5 45t8.5 47q0 35 -25 58t-84 28v45q104 -5 156.5 -46t52.5 -107
q0 -29 -9 -54.5t-19.5 -48.5t-19 -45.5t-8.5 -44.5q0 -41 35.5 -58t91.5 -22v-60q-59 -5 -93 -22t-34 -57q0 -23 8.5 -45.5t19 -45.5t19.5 -48t9 -54q0 -66 -52.5 -107t-156.5 -46v44z" />
    <glyph glyph-name="asciitilde" unicode="~" horiz-adv-x="400" 
d="M377 318q-8 -69 -34.5 -102t-76.5 -33q-23 0 -43.5 11t-38.5 24.5t-33.5 25t-29.5 11.5q-20 0 -31.5 -14.5t-19.5 -48.5h-48q9 68 35.5 101.5t74.5 33.5q23 0 43.5 -11.5t38.5 -25t33.5 -25t29.5 -11.5q20 0 33 14.5t21 49.5h46z" />
    <glyph glyph-name="uni00A0" unicode="&#xa0;" horiz-adv-x="236" 
 />
    <glyph glyph-name="exclamdown" unicode="&#xa1;" horiz-adv-x="295" 
d="M146 494q-30 0 -50.5 22t-20.5 51t20.5 50.5t50.5 21.5q29 0 50 -21.5t21 -50.5q0 -30 -21 -51.5t-50 -21.5zM122 422h48l42 -387q6 -51 -66 -51t-66 51z" />
    <glyph glyph-name="cent" unicode="&#xa2;" horiz-adv-x="486" 
d="M158 -119l40 163q-68 21 -107.5 77.5t-39.5 137.5q0 51 16.5 94.5t46.5 75.5t73 50t96 18h13.5t13.5 -1l38 153h48l-40 -160q28 -6 52 -16t45 -27l-43 -67q-17 19 -33 32t-35 21l-82 -334q22 -8 49 -8t53 10.5t47 28.5l27 -47q-29 -23 -67 -36.5t-92 -13.5h-16.5t-16.5 1
l-38 -152h-48zM297 442q-32 0 -57 -13t-43 -37t-27.5 -56.5t-9.5 -71.5q0 -46 16 -82.5t42 -59.5z" />
    <glyph glyph-name="sterling" unicode="&#xa3;" 
d="M59 0v105q40 17 61 53.5t21 81.5q0 25 -5 50h-90v48h80q-8 27 -16 55t-8 60q0 85 48 135.5t131 50.5q54 0 91.5 -13.5t68.5 -36.5l-45 -70q-15 30 -39.5 48t-60.5 18q-41 0 -63.5 -28t-22.5 -76q0 -27 3 -46.5t7.5 -35.5t9.5 -30.5t8 -30.5h126v-48h-120q-3 -32 -7 -58.5
t-14.5 -50t-30.5 -44t-53 -40.5h290v-97h-370z" />
    <glyph glyph-name="currency" unicode="&#xa4;" 
d="M427 112l-79 79q-21 -14 -46 -22.5t-53 -8.5t-53 8.5t-46 22.5l-79 -79l-42 42l79 80q-15 21 -23.5 46t-8.5 53t8.5 53t23.5 46l-79 80l42 42l79 -80q43 31 99 31t99 -31l79 80l43 -42l-80 -80q15 -21 23.5 -46t8.5 -53t-8.5 -53t-23.5 -46l80 -80zM249 222q22 0 42 8.5
t34.5 23.5t23 35.5t8.5 43.5t-8.5 43t-23 35t-34.5 24t-42 9q-23 0 -42.5 -9t-34 -24t-23 -35t-8.5 -43t8.5 -43.5t23 -35.5t34 -23.5t42.5 -8.5z" />
    <glyph glyph-name="yen" unicode="&#xa5;" horiz-adv-x="523" 
d="M316 128v-128h-109v128h-152v48h152v81h-152v47h131l-154 321h118l137 -294h4l135 294h65l-154 -321h131v-47h-152v-81h152v-48h-152z" />
    <glyph glyph-name="brokenbar" unicode="&#xa6;" horiz-adv-x="250" 
d="M100 305v335h49v-335h-49zM100 -138v335h49v-335h-49z" />
    <glyph glyph-name="section" unicode="&#xa7;" horiz-adv-x="480" 
d="M101 0q29 -34 60 -49t68 -15q43 0 64.5 17.5t21.5 46.5q0 30 -26.5 53.5t-91.5 56.5q-44 22 -74 41t-48 38.5t-25.5 40.5t-7.5 48q0 40 20 72t57 53q-19 20 -28.5 42.5t-9.5 51.5t11.5 55t34 45.5t56 31t77.5 11.5q88 0 156 -43l-37 -75q-26 32 -58.5 47.5t-69.5 15.5
q-44 0 -65 -18t-21 -47q0 -30 26.5 -54t91.5 -56q44 -23 74 -41.5t48 -37.5t25.5 -40t7.5 -48q0 -40 -20 -72t-58 -53q39 -39 39 -93q0 -30 -11.5 -56t-34 -45.5t-56 -30.5t-78.5 -11q-42 0 -81.5 10.5t-73.5 32.5zM330 145q14 11 22.5 26.5t8.5 35.5q0 38 -29 63.5
t-98 57.5q-26 11 -46.5 23t-37.5 25q-14 -10 -22.5 -25.5t-8.5 -34.5q0 -20 7 -35t22.5 -29t39.5 -28t59 -30q24 -12 45 -23.5t38 -25.5z" />
    <glyph glyph-name="dieresis" unicode="&#xa8;" horiz-adv-x="417" 
d="M105 552q-26 0 -44 19.5t-18 45.5q0 27 18 46.5t44 19.5t44 -19.5t18 -46.5q0 -26 -18 -45.5t-44 -19.5zM312 552q-26 0 -44.5 19.5t-18.5 45.5q0 27 18.5 46.5t44.5 19.5t44 -19.5t18 -46.5q0 -26 -18 -45.5t-44 -19.5z" />
    <glyph glyph-name="copyright" unicode="&#xa9;" horiz-adv-x="800" 
d="M400 -48q-75 0 -140 28t-114 77t-77 114t-28 140t28 141t77 114.5t114 77t140 28.5t140 -28.5t114 -77t77 -114.5t28 -141t-28 -140t-77 -114t-114 -77t-140 -28zM400 -3q64 0 121 25t99 67.5t66.5 99.5t24.5 122q0 64 -24.5 121.5t-66.5 101t-99 68.5t-121 25
q-65 0 -121.5 -25t-98.5 -68.5t-66.5 -101t-24.5 -121.5q0 -65 24.5 -122t66.5 -99.5t98.5 -67.5t121.5 -25zM540 148q-25 -17 -56 -27t-71 -10q-47 0 -85.5 14.5t-66 40.5t-42.5 62t-15 80q0 42 15.5 79t43 64.5t65.5 43.5t82 16q45 0 81 -10.5t65 -29.5l-37 -61
q-18 27 -44.5 42.5t-61.5 15.5q-54 0 -87 -42.5t-33 -113.5q0 -72 37 -114t100 -42q26 0 48.5 8t40.5 21z" />
    <glyph glyph-name="ordfeminine" unicode="&#xaa;" horiz-adv-x="377" 
d="M237 294v51h-4q-17 -30 -42 -46.5t-64 -16.5q-18 0 -34.5 6.5t-29 18.5t-20.5 29t-8 37q0 52 45 82t134 52l23 6q0 42 -12.5 61.5t-47.5 19.5q-23 0 -47.5 -15.5t-43.5 -45.5l-37 55q36 28 69.5 40t77.5 12q64 0 93.5 -32.5t29.5 -104.5v-209h-82zM237 473l-16 -5
q-59 -17 -80 -36.5t-21 -41.5q0 -21 12.5 -33.5t32.5 -12.5q23 0 41 13.5t31 32.5v83z" />
    <glyph glyph-name="guillemotleft" unicode="&#xab;" horiz-adv-x="574" 
d="M31 226v57l245 173l22 -30l-163 -171l163 -171l-22 -30zM267 226v57l245 173l22 -30l-163 -171l163 -171l-22 -30z" />
    <glyph glyph-name="logicalnot" unicode="&#xac;" 
d="M382 114v157h-340v57h397v-214h-57z" />
    <glyph glyph-name="uni00AD" unicode="&#xad;" horiz-adv-x="328" 
d="M51 231v60h225v-60h-225z" />
    <glyph glyph-name="registered" unicode="&#xae;" horiz-adv-x="593" 
d="M296 125q-53 0 -100 20t-81.5 55t-54.5 81.5t-20 100.5q0 53 20 100t54.5 82t81.5 55t100 20t100 -20t81.5 -55t54.5 -82t20 -100q0 -54 -20 -100.5t-54.5 -81.5t-81.5 -55t-100 -20zM296 159q46 0 86.5 17.5t70.5 48t47 71t17 86.5t-17 86.5t-47 71t-70.5 48.5t-86.5 18
t-86.5 -18t-70.5 -48.5t-47.5 -71t-17.5 -86.5t17.5 -86.5t47.5 -71t70.5 -48t86.5 -17.5zM346 250l-58 108l-29 2v-110h-59v267l98 1q53 1 77 -18.5t24 -52.5q0 -25 -13.5 -44t-41.5 -30l70 -123h-68zM259 486v-94q5 -1 12 -1.5t15 -0.5q23 0 36.5 12.5t13.5 34.5
t-14.5 35.5t-46.5 13.5h-16z" />
    <glyph glyph-name="macron" unicode="&#xaf;" horiz-adv-x="417" 
d="M69 587v56h279v-56h-279z" />
    <glyph glyph-name="degree" unicode="&#xb0;" horiz-adv-x="403" 
d="M357 485q0 -31 -10.5 -59t-31 -49.5t-49.5 -34t-65 -12.5t-64.5 12.5t-49 34t-31 49.5t-10.5 59q0 32 10.5 61t31 50.5t49 34t64.5 12.5t65 -12.5t49.5 -34t31 -50.5t10.5 -61zM201 384q23 0 41 8.5t30.5 22.5t19 32t6.5 38q0 43 -25.5 73.5t-71.5 30.5q-45 0 -71 -30.5
t-26 -73.5q0 -20 6.5 -38t19.5 -32t30.5 -22.5t40.5 -8.5z" />
    <glyph glyph-name="plusminus" unicode="&#xb1;" 
d="M277 243v-145h-55v145h-175v55h175v160h55v-160h176v-55h-176zM47 0v55h406v-55h-406z" />
    <glyph glyph-name="uni00B2" unicode="&#xb2;" horiz-adv-x="350" 
d="M43 273l-2 39q34 33 67.5 61.5t59 55t41.5 53.5t16 59q0 26 -18 42t-53 16q-29 0 -53 -12t-45 -30l-24 32q31 32 69 52t86 20q60 0 95 -29.5t35 -83.5q0 -45 -44.5 -90t-134.5 -108v-5h179v-72h-274z" />
    <glyph glyph-name="uni00B3" unicode="&#xb3;" horiz-adv-x="350" 
d="M69 354q17 -23 36.5 -36t50.5 -13q32 0 52 19.5t20 51.5t-20.5 47t-46.5 15q-24 0 -47 -10q-3 9 -7 17.5t-7 16.5q50 23 78 45t28 49q0 44 -57 44q-25 0 -48.5 -11t-44.5 -30l-25 33q31 29 69.5 48.5t94.5 19.5q46 0 75 -22t29 -56q0 -32 -22 -54t-56 -40v-4
q40 0 69.5 -25t29.5 -67q0 -26 -12.5 -49.5t-34.5 -41.5t-50.5 -28.5t-60.5 -10.5q-45 0 -75 11t-50 27z" />
    <glyph glyph-name="acute" unicode="&#xb4;" horiz-adv-x="417" 
d="M149 534l93 177h119l-163 -177h-49z" />
    <glyph glyph-name="uni00B5" unicode="&#xb5;" horiz-adv-x="544" 
d="M365 0v55h-5q-29 -35 -55.5 -53t-64.5 -18q-34 0 -58 16.5t-38 39.5v-286h-72v704h107v-271q0 -65 21 -89.5t63 -24.5q27 0 54.5 18.5t47.5 41.5v325h107v-458h-107z" />
    <glyph glyph-name="paragraph" unicode="&#xb6;" horiz-adv-x="480" 
d="M339 -32v296q-21 -4 -41.5 -6t-38.5 -2q-53 0 -95 14.5t-70.5 39.5t-43.5 58.5t-15 71.5q0 44 15.5 78.5t43.5 58t66 36t83 12.5h164v-657h-68z" />
    <glyph glyph-name="periodcentered" unicode="&#xb7;" horiz-adv-x="230" 
d="M188 257q0 -30 -21.5 -51.5t-51.5 -21.5q-31 0 -52 21.5t-21 51.5q0 31 21 52.5t52 21.5q30 0 51.5 -21.5t21.5 -52.5z" />
    <glyph glyph-name="cedilla" unicode="&#xb8;" horiz-adv-x="417" 
d="M96 -234q76 0 112 17t36 46q0 21 -21.5 33.5t-63.5 12.5q-17 0 -34 -1t-34 -5v31l112 117h55l-77 -79q65 0 105.5 -24.5t40.5 -68.5q0 -54 -58 -88t-173 -34v43z" />
    <glyph glyph-name="uni00B9" unicode="&#xb9;" horiz-adv-x="350" 
d="M150 273v303h-82v38l171 48v-389h-89z" />
    <glyph glyph-name="ordmasculine" unicode="&#xba;" horiz-adv-x="408" 
d="M196 283q-39 0 -68.5 14t-50 38t-31 56t-10.5 67q0 37 13 70.5t36.5 58t56 39t70.5 14.5t67.5 -14.5t50 -38.5t31 -56t10.5 -67q0 -38 -13 -70.5t-36.5 -57.5t-55.5 -39t-70 -14zM205 328q35 0 55.5 33t20.5 88q0 72 -17 108.5t-62 36.5q-35 0 -55 -32.5t-20 -87.5
q0 -73 16.5 -109.5t61.5 -36.5z" />
    <glyph glyph-name="guillemotright" unicode="&#xbb;" horiz-adv-x="574" 
d="M298 54l-22 30l163 171l-163 171l22 30l244 -173v-57zM62 54l-23 30l163 171l-163 171l23 30l244 -173v-57z" />
    <glyph glyph-name="onequarter" unicode="&#xbc;" horiz-adv-x="735" 
d="M92 -116l535 741h58l-535 -741h-58zM136 273v303h-82v38l171 48v-389h-89zM573 -143v81h-166l-8 50l192 250h67v-241h54v-59h-54v-81h-85zM573 151l-118 -154h118v154z" />
    <glyph glyph-name="onehalf" unicode="&#xbd;" horiz-adv-x="735" 
d="M58 -116l535 741h57l-535 -741h-57zM136 273v303h-82v38l171 48v-389h-89zM423 -143l-2 39q34 33 67.5 61.5t59 55t41.5 53.5t16 59q0 26 -18 42t-53 16q-29 0 -53 -12t-45 -30l-24 32q31 32 69 52t86 20q60 0 95 -29.5t35 -83.5q0 -45 -44.5 -90t-134.5 -108v-5h179v-72
h-274z" />
    <glyph glyph-name="threequarters" unicode="&#xbe;" horiz-adv-x="735" 
d="M103 -116l535 741h58l-535 -741h-58zM75 354q17 -23 36.5 -36t50.5 -13q32 0 52 19.5t20 51.5t-20.5 47t-46.5 15q-24 0 -47 -10q-3 9 -7 17.5t-7 16.5q50 23 78 45t28 49q0 44 -57 44q-25 0 -48.5 -11t-44.5 -30l-25 33q31 29 69.5 48.5t94.5 19.5q46 0 75 -22t29 -56
q0 -32 -22 -54t-56 -40v-4q40 0 69.5 -25t29.5 -67q0 -26 -12.5 -49.5t-34.5 -41.5t-50.5 -28.5t-60.5 -10.5q-45 0 -75 11t-50 27zM573 -143v81h-166l-8 50l192 250h67v-241h54v-59h-54v-81h-85zM573 151l-118 -154h118v154z" />
    <glyph glyph-name="questiondown" unicode="&#xbf;" horiz-adv-x="392" 
d="M241 426q23 -18 38 -43t15 -55q0 -26 -9 -44t-25 -31t-39 -23t-50 -19q-35 -12 -57.5 -25.5t-22.5 -35.5q0 -15 11 -26.5t30 -20t44 -13t54 -4.5q21 0 43 2.5t37 6.5q9 -8 13 -21t4 -26q0 -29 -20.5 -46t-67.5 -17q-44 0 -82 14t-65.5 38t-43.5 55.5t-16 67.5q0 32 8 54
t23 38t36 27.5t48 21.5q46 17 60.5 30t14.5 32q0 14 -7 30t-19 33h45zM218 495q-30 0 -51 21t-21 51q0 29 21 50.5t51 21.5q29 0 50 -21.5t21 -50.5t-21 -50.5t-50 -21.5z" />
    <glyph glyph-name="Agrave" unicode="&#xc0;" horiz-adv-x="580" 
d="M267 699l-163 177h119l94 -177h-50zM433 0l-63 190h-224l-63 -190h-65l194 568v37l132 38l218 -643h-129zM264 518h-9l-90 -273h186z" />
    <glyph glyph-name="Aacute" unicode="&#xc1;" horiz-adv-x="580" 
d="M433 0l-63 190h-224l-63 -190h-65l194 568v37l132 38l218 -643h-129zM264 518h-9l-90 -273h186zM257 699l94 177h119l-163 -177h-50z" />
    <glyph glyph-name="Acircumflex" unicode="&#xc2;" horiz-adv-x="580" 
d="M404 699l-113 119h-5l-113 -119h-49l126 200h77l126 -200h-49zM433 0l-63 190h-224l-63 -190h-65l194 568v37l132 38l218 -643h-129zM264 518h-9l-90 -273h186z" />
    <glyph glyph-name="Atilde" unicode="&#xc3;" horiz-adv-x="580" 
d="M433 0l-63 190h-224l-63 -190h-65l194 568v37l132 38l218 -643h-129zM264 518h-9l-90 -273h186zM466 854q-8 -68 -34.5 -101t-76.5 -33q-23 0 -43.5 11t-38.5 24.5t-33.5 25t-29.5 11.5q-20 0 -31.5 -14.5t-19.5 -48.5h-48q9 68 35.5 101t74.5 33q23 0 43.5 -11.5
t38.5 -25t33.5 -24.5t29.5 -11q20 0 33 14.5t21 48.5h46z" />
    <glyph glyph-name="Adieresis" unicode="&#xc4;" horiz-adv-x="580" 
d="M433 0l-63 190h-224l-63 -190h-65l194 568v37l132 38l218 -643h-129zM264 518h-9l-90 -273h186zM185 715q-27 0 -45 19.5t-18 45.5t18 46t45 20q28 0 45 -20t17 -46t-17 -45.5t-45 -19.5zM391 715q-28 0 -45 19.5t-17 45.5t17 46t45 20t45.5 -20t17.5 -46t-17.5 -45.5
t-45.5 -19.5z" />
    <glyph glyph-name="Aring" unicode="&#xc5;" horiz-adv-x="580" 
d="M433 0l-63 190h-224l-63 -190h-65l204 595q-44 33 -44 92q0 46 30 79t82 33q53 0 82.5 -33t29.5 -79q0 -57 -42 -90l202 -597h-129zM264 518h-9l-90 -273h186zM290 618q31 0 48 21.5t17 47.5t-17 47t-48 21t-48 -21t-17 -47t17 -47.5t48 -21.5z" />
    <glyph glyph-name="AE" unicode="&#xc6;" horiz-adv-x="860" 
d="M405 0v202h-212l-114 -202h-71l349 625h455v-83q-17 6 -35 10.5t-40 8t-50 5t-66 1.5h-94v-223h202v-56h-202v-230h94q38 0 66 1.5t50 5t40 8t35 10.5v-83h-407zM405 570h-7l-176 -314h183v314z" />
    <glyph glyph-name="Ccedilla" unicode="&#xc7;" horiz-adv-x="647" 
d="M266 -234q76 0 112 17t36 46q0 21 -21.5 33.5t-63.5 12.5q-17 0 -34 -1t-34 -5v31l83 87q-69 6 -125 31.5t-95.5 67t-61.5 98t-22 125.5q0 70 25.5 131t71.5 105t108.5 69.5t137.5 25.5q68 0 124.5 -16.5t104.5 -46.5l-42 -78q-35 38 -80.5 61.5t-104.5 23.5
q-45 0 -84 -17.5t-68.5 -51.5t-46 -83.5t-16.5 -112.5q0 -67 17.5 -118.5t48.5 -86.5t74 -53t93 -18q42 0 82.5 12t75.5 41l31 -52q-42 -28 -92 -42.5t-103 -16.5l-46 -47q65 0 105.5 -24.5t40.5 -68.5q0 -54 -58 -88t-173 -34v43z" />
    <glyph glyph-name="Egrave" unicode="&#xc8;" horiz-adv-x="530" 
d="M76 0v625h406v-83q-17 6 -35 10.5t-40 8t-50 5t-66 1.5h-94v-223h202v-56h-202v-230h94q38 0 66 1.5t50 5t40 8t35 10.5v-83h-406zM295 699l-163 177h120l93 -177h-50z" />
    <glyph glyph-name="Eacute" unicode="&#xc9;" horiz-adv-x="530" 
d="M76 0v625h406v-83q-17 6 -35 10.5t-40 8t-50 5t-66 1.5h-94v-223h202v-56h-202v-230h94q38 0 66 1.5t50 5t40 8t35 10.5v-83h-406zM239 699l93 177h119l-163 -177h-49z" />
    <glyph glyph-name="Ecircumflex" unicode="&#xca;" horiz-adv-x="530" 
d="M76 0v625h406v-83q-17 6 -35 10.5t-40 8t-50 5t-66 1.5h-94v-223h202v-56h-202v-230h94q38 0 66 1.5t50 5t40 8t35 10.5v-83h-406zM406 699l-113 119h-5l-113 -119h-49l126 200h77l126 -200h-49z" />
    <glyph glyph-name="Edieresis" unicode="&#xcb;" horiz-adv-x="530" 
d="M76 0v625h406v-83q-17 6 -35 10.5t-40 8t-50 5t-66 1.5h-94v-223h202v-56h-202v-230h94q38 0 66 1.5t50 5t40 8t35 10.5v-83h-406zM189 715q-28 0 -45.5 19.5t-17.5 45.5t17.5 46t45.5 20t45 -20t17 -46t-17 -45.5t-45 -19.5zM395 715q-28 0 -45 19.5t-17 45.5t17 46
t45 20t45.5 -20t17.5 -46t-17.5 -45.5t-45.5 -19.5z" />
    <glyph glyph-name="Igrave" unicode="&#xcc;" horiz-adv-x="274" 
d="M76 0v625h122v-625h-122zM118 699l-163 177h119l94 -177h-50z" />
    <glyph glyph-name="Iacute" unicode="&#xcd;" horiz-adv-x="274" 
d="M76 0v625h122v-625h-122zM107 699l93 177h119l-163 -177h-49z" />
    <glyph glyph-name="Icircumflex" unicode="&#xce;" horiz-adv-x="274" 
d="M76 0v625h122v-625h-122zM253 699l-113 119h-5l-113 -119h-49l126 200h77l126 -200h-49z" />
    <glyph glyph-name="Idieresis" unicode="&#xcf;" horiz-adv-x="274" 
d="M76 0v625h122v-625h-122zM34 715q-28 0 -45.5 19.5t-17.5 45.5t17.5 46t45.5 20t45 -20t17 -46t-17 -45.5t-45 -19.5zM240 715q-28 0 -45 19.5t-17 45.5t17 46t45 20t45.5 -20t17.5 -46t-17.5 -45.5t-45.5 -19.5z" />
    <glyph glyph-name="Eth" unicode="&#xd0;" horiz-adv-x="668" 
d="M76 1v289h-68v47h68v287l178 4q86 2 155 -20.5t118 -64t75 -98.5t26 -124q0 -70 -24 -130t-71.5 -104t-118 -68t-162.5 -22zM257 55q60 0 105 18.5t75 51.5t45.5 79t15.5 101q0 60 -17 109t-50.5 83.5t-84 53.5t-117.5 19h-31v-233h124v-47h-124v-235h59z" />
    <glyph glyph-name="Ntilde" unicode="&#xd1;" horiz-adv-x="654" 
d="M463 -6l-318 494h-6v-488h-63v619l122 10l311 -483h6v479h63v-620zM521 854q-8 -68 -34.5 -101t-76.5 -33q-23 0 -43.5 11t-38.5 24.5t-33.5 25t-29.5 11.5q-20 0 -31.5 -14.5t-19.5 -48.5h-48q9 68 35.5 101t74.5 33q23 0 43.5 -11.5t38.5 -25t34 -24.5t30 -11
q20 0 32.5 14.5t20.5 48.5h46z" />
    <glyph glyph-name="Ograve" unicode="&#xd2;" horiz-adv-x="741" 
d="M366 699l-163 177h120l93 -177h-50zM701 317q0 -71 -26.5 -132t-71.5 -105.5t-105.5 -69.5t-129.5 -25q-73 0 -133 23.5t-103.5 66t-67.5 101.5t-24 131q0 71 26 132t71 105.5t105.5 70t129.5 25.5q73 0 133.5 -23.5t104 -66t67.5 -102t24 -131.5zM373 40q41 0 77 17
t63 50.5t42.5 83t15.5 114.5q0 67 -16 119t-44 87.5t-65 54t-79 18.5q-41 0 -77 -17t-62.5 -50.5t-42 -83t-15.5 -114.5q0 -67 16 -119t44 -87.5t64.5 -54t78.5 -18.5z" />
    <glyph glyph-name="Oacute" unicode="&#xd3;" horiz-adv-x="741" 
d="M329 699l93 177h119l-163 -177h-49zM701 317q0 -71 -26.5 -132t-71.5 -105.5t-105.5 -69.5t-129.5 -25q-73 0 -133 23.5t-103.5 66t-67.5 101.5t-24 131q0 71 26 132t71 105.5t105.5 70t129.5 25.5q73 0 133.5 -23.5t104 -66t67.5 -102t24 -131.5zM373 40q41 0 77 17
t63 50.5t42.5 83t15.5 114.5q0 67 -16 119t-44 87.5t-65 54t-79 18.5q-41 0 -77 -17t-62.5 -50.5t-42 -83t-15.5 -114.5q0 -67 16 -119t44 -87.5t64.5 -54t78.5 -18.5z" />
    <glyph glyph-name="Ocircumflex" unicode="&#xd4;" horiz-adv-x="741" 
d="M488 699l-113 118h-5l-113 -118h-49l126 200h77l126 -200h-49zM701 317q0 -71 -26.5 -132t-71.5 -105.5t-105.5 -69.5t-129.5 -25q-73 0 -133 23.5t-103.5 66t-67.5 101.5t-24 131q0 71 26 132t71 105.5t105.5 70t129.5 25.5q73 0 133.5 -23.5t104 -66t67.5 -102
t24 -131.5zM373 40q41 0 77 17t63 50.5t42.5 83t15.5 114.5q0 67 -16 119t-44 87.5t-65 54t-79 18.5q-41 0 -77 -17t-62.5 -50.5t-42 -83t-15.5 -114.5q0 -67 16 -119t44 -87.5t64.5 -54t78.5 -18.5z" />
    <glyph glyph-name="Otilde" unicode="&#xd5;" horiz-adv-x="741" 
d="M550 854q-8 -69 -34.5 -101.5t-76.5 -32.5q-23 0 -43.5 11t-38.5 24.5t-33.5 25t-29.5 11.5q-20 0 -31.5 -15t-19.5 -48h-49q10 68 36.5 101t74.5 33q23 0 43.5 -11.5t38.5 -25t33.5 -24.5t29.5 -11q20 0 33 14.5t21 48.5h46zM701 317q0 -71 -26.5 -132t-71.5 -105.5
t-105.5 -69.5t-129.5 -25q-73 0 -133 23.5t-103.5 66t-67.5 101.5t-24 131q0 71 26 132t71 105.5t105.5 70t129.5 25.5q73 0 133.5 -23.5t104 -66t67.5 -102t24 -131.5zM373 40q41 0 77 17t63 50.5t42.5 83t15.5 114.5q0 67 -16 119t-44 87.5t-65 54t-79 18.5q-41 0 -77 -17
t-62.5 -50.5t-42 -83t-15.5 -114.5q0 -67 16 -119t44 -87.5t64.5 -54t78.5 -18.5z" />
    <glyph glyph-name="Odieresis" unicode="&#xd6;" horiz-adv-x="741" 
d="M474 715q-28 0 -45 19.5t-17 45.5t17 45.5t45 19.5t45.5 -19.5t17.5 -45.5t-17.5 -45.5t-45.5 -19.5zM268 715q-28 0 -45.5 19.5t-17.5 45.5t17.5 45.5t45.5 19.5t45 -19.5t17 -45.5t-17 -45.5t-45 -19.5zM701 317q0 -71 -26.5 -132t-71.5 -105.5t-105.5 -69.5
t-129.5 -25q-73 0 -133 23.5t-103.5 66t-67.5 101.5t-24 131q0 71 26 132t71 105.5t105.5 70t129.5 25.5q73 0 133.5 -23.5t104 -66t67.5 -102t24 -131.5zM373 40q41 0 77 17t63 50.5t42.5 83t15.5 114.5q0 67 -16 119t-44 87.5t-65 54t-79 18.5q-41 0 -77 -17t-62.5 -50.5
t-42 -83t-15.5 -114.5q0 -67 16 -119t44 -87.5t64.5 -54t78.5 -18.5z" />
    <glyph glyph-name="multiply" unicode="&#xd7;" 
d="M250 201l-161 -163l-40 40l163 161l-163 162l40 39l161 -162l161 162l40 -39l-163 -162l163 -161l-40 -40z" />
    <glyph glyph-name="Oslash" unicode="&#xd8;" horiz-adv-x="741" 
d="M122 -71l61 105q-68 42 -105.5 112t-37.5 161q0 71 26 132t71 105.5t105.5 70t129.5 25.5q41 0 77.5 -7.5t68.5 -21.5l46 80h55l-59 -102q66 -42 103.5 -111.5t37.5 -160.5q0 -71 -26.5 -132t-71.5 -105.5t-105.5 -69.5t-129.5 -25q-80 0 -143 27l-48 -83h-55zM479 544
q-49 40 -112 40q-41 0 -77 -17t-62.5 -50.5t-42 -83t-15.5 -114.5q0 -67 16 -118.5t43 -86.5zM263 78q47 -38 110 -38q41 0 77 17t63 50.5t42.5 83t15.5 114.5q0 66 -16 117t-43 87z" />
    <glyph glyph-name="Ugrave" unicode="&#xd9;" horiz-adv-x="637" 
d="M503 625h62v-404q0 -56 -17.5 -100t-50 -74t-78 -46t-101.5 -16t-101 15t-77.5 45t-50 75.5t-17.5 106.5v398h122v-375q0 -101 42.5 -145t114.5 -44q74 0 113 46.5t39 130.5v387zM334 699l-163 177h119l93 -177h-49z" />
    <glyph glyph-name="Uacute" unicode="&#xda;" horiz-adv-x="637" 
d="M503 625h62v-404q0 -56 -17.5 -100t-50 -74t-78 -46t-101.5 -16t-101 15t-77.5 45t-50 75.5t-17.5 106.5v398h122v-375q0 -101 42.5 -145t114.5 -44q74 0 113 46.5t39 130.5v387zM299 699l93 177h119l-163 -177h-49z" />
    <glyph glyph-name="Ucircumflex" unicode="&#xdb;" horiz-adv-x="637" 
d="M503 625h62v-404q0 -56 -17.5 -100t-50 -74t-78 -46t-101.5 -16t-101 15t-77.5 45t-50 75.5t-17.5 106.5v398h122v-375q0 -101 42.5 -145t114.5 -44q74 0 113 46.5t39 130.5v387zM457 699l-112 119h-6l-113 -119h-48l125 200h78l125 -200h-49z" />
    <glyph glyph-name="Udieresis" unicode="&#xdc;" horiz-adv-x="637" 
d="M503 625h62v-404q0 -56 -17.5 -100t-50 -74t-78 -46t-101.5 -16t-101 15t-77.5 45t-50 75.5t-17.5 106.5v398h122v-375q0 -101 42.5 -145t114.5 -44q74 0 113 46.5t39 130.5v387zM235 715q-28 0 -45.5 19.5t-17.5 45.5t17.5 46t45.5 20t45 -20t17 -46t-17 -45.5
t-45 -19.5zM441 715q-28 0 -45 19.5t-17 45.5t17 46t45 20t45.5 -20t17.5 -46t-17.5 -45.5t-45.5 -19.5z" />
    <glyph glyph-name="Yacute" unicode="&#xdd;" horiz-adv-x="584" 
d="M232 0v261l-214 364h136l166 -290h10l168 290h68l-212 -363v-262h-122zM271 699l93 177h119l-163 -177h-49z" />
    <glyph glyph-name="Thorn" unicode="&#xde;" horiz-adv-x="566" 
d="M76 0v625h122v-125l81 1q63 1 110 -12.5t78.5 -37.5t47 -56.5t15.5 -69.5q0 -51 -21 -90.5t-56.5 -65.5t-82.5 -39.5t-99 -13.5q-18 0 -37 1t-36 3v-120h-122zM198 444v-267q28 -6 66 -6q30 0 55 9.5t43 27t28 42.5t10 57q0 63 -37 100t-102 37h-63z" />
    <glyph glyph-name="germandbls" unicode="&#xdf;" horiz-adv-x="586" 
d="M273 96q15 -23 41 -40t56 -17q41 0 64 25t23 68q0 28 -10 56t-32.5 56t-60 56t-91.5 55v61q66 11 93.5 47t27.5 79q0 45 -22.5 72.5t-64.5 27.5q-49 0 -73.5 -35.5t-24.5 -104.5v-502h-108v400h-73v58h73v12q0 110 57.5 168.5t154.5 58.5q43 0 77.5 -11.5t58 -31t36 -46
t12.5 -56.5q0 -48 -27 -85.5t-81 -57.5v-6q85 -45 128 -105.5t43 -128.5q0 -38 -12 -71.5t-35.5 -58.5t-58.5 -39.5t-82 -14.5q-40 0 -71.5 9t-51.5 21z" />
    <glyph glyph-name="agrave" unicode="&#xe0;" horiz-adv-x="480" 
d="M244 534l-163 177h119l93 -177h-49zM310 0v63h-4q-25 -37 -60 -57.5t-86 -20.5q-25 0 -47.5 9t-39.5 25t-27 39t-10 50q0 36 16.5 63t48.5 48.5t78 38.5t106 31l25 6v21q0 54 -17 77.5t-62 23.5q-32 0 -64.5 -20.5t-61.5 -60.5l-44 67q49 38 93.5 54t101.5 16
q87 0 124.5 -45.5t37.5 -145.5v-282h-108zM310 246l-24 -7q-77 -23 -109 -50t-32 -59t18.5 -49t45.5 -17q32 0 58 17.5t43 42.5v122z" />
    <glyph glyph-name="aacute" unicode="&#xe1;" horiz-adv-x="480" 
d="M190 534l93 177h119l-163 -177h-49zM310 0v63h-4q-25 -37 -60 -57.5t-86 -20.5q-25 0 -47.5 9t-39.5 25t-27 39t-10 50q0 36 16.5 63t48.5 48.5t78 38.5t106 31l25 6v21q0 54 -17 77.5t-62 23.5q-32 0 -64.5 -20.5t-61.5 -60.5l-44 67q49 38 93.5 54t101.5 16
q87 0 124.5 -45.5t37.5 -145.5v-282h-108zM310 246l-24 -7q-77 -23 -109 -50t-32 -59t18.5 -49t45.5 -17q32 0 58 17.5t43 42.5v122z" />
    <glyph glyph-name="acircumflex" unicode="&#xe2;" horiz-adv-x="480" 
d="M356 534l-113 119h-5l-113 -119h-49l126 200h77l126 -200h-49zM310 0v63h-4q-25 -37 -60 -57.5t-86 -20.5q-25 0 -47.5 9t-39.5 25t-27 39t-10 50q0 36 16.5 63t48.5 48.5t78 38.5t106 31l25 6v21q0 54 -17 77.5t-62 23.5q-32 0 -64.5 -20.5t-61.5 -60.5l-44 67
q49 38 93.5 54t101.5 16q87 0 124.5 -45.5t37.5 -145.5v-282h-108zM310 246l-24 -7q-77 -23 -109 -50t-32 -59t18.5 -49t45.5 -17q32 0 58 17.5t43 42.5v122z" />
    <glyph glyph-name="atilde" unicode="&#xe3;" horiz-adv-x="480" 
d="M415 689q-8 -68 -34.5 -101t-77.5 -33q-23 0 -43.5 11t-38.5 24.5t-33.5 25t-29.5 11.5q-20 0 -31.5 -14.5t-19.5 -48.5h-48q9 68 35.5 101t75.5 33q23 0 43 -11.5t38 -25t34 -24.5t30 -11q20 0 33 14.5t21 48.5h46zM310 0v63h-4q-25 -37 -60 -57.5t-86 -20.5
q-25 0 -47.5 9t-39.5 25t-27 39t-10 50q0 36 16.5 63t48.5 48.5t78 38.5t106 31l25 6v21q0 54 -17 77.5t-62 23.5q-32 0 -64.5 -20.5t-61.5 -60.5l-44 67q49 38 93.5 54t101.5 16q87 0 124.5 -45.5t37.5 -145.5v-282h-108zM310 246l-24 -7q-77 -23 -109 -50t-32 -59
t18.5 -49t45.5 -17q32 0 58 17.5t43 42.5v122z" />
    <glyph glyph-name="adieresis" unicode="&#xe4;" horiz-adv-x="480" 
d="M133 552q-27 0 -45 19.5t-18 45.5t18 46t45 20q28 0 45 -20t17 -46t-17 -45.5t-45 -19.5zM339 552q-28 0 -45 19.5t-17 45.5t17 46t45 20t45.5 -20t17.5 -46t-17.5 -45.5t-45.5 -19.5zM310 0v63h-4q-25 -37 -60 -57.5t-86 -20.5q-25 0 -47.5 9t-39.5 25t-27 39t-10 50
q0 36 16.5 63t48.5 48.5t78 38.5t106 31l25 6v21q0 54 -17 77.5t-62 23.5q-32 0 -64.5 -20.5t-61.5 -60.5l-44 67q49 38 93.5 54t101.5 16q87 0 124.5 -45.5t37.5 -145.5v-282h-108zM310 246l-24 -7q-77 -23 -109 -50t-32 -59t18.5 -49t45.5 -17q32 0 58 17.5t43 42.5v122z
" />
    <glyph glyph-name="aring" unicode="&#xe5;" horiz-adv-x="480" 
d="M235 522q-53 0 -82.5 33.5t-29.5 79.5t29.5 79.5t82.5 33.5q26 0 46.5 -9t35 -24.5t22 -36t7.5 -43.5t-7.5 -43.5t-22 -36t-35 -24.5t-46.5 -9zM235 566q31 0 48 21.5t17 47.5t-17 47.5t-48 21.5t-48.5 -21.5t-17.5 -47.5t17.5 -47.5t48.5 -21.5zM310 0v63h-4
q-25 -37 -60 -57.5t-86 -20.5q-25 0 -47.5 9t-39.5 25t-27 39t-10 50q0 36 16.5 63t48.5 48.5t78 38.5t106 31l25 6v21q0 54 -17 77.5t-62 23.5q-32 0 -64.5 -20.5t-61.5 -60.5l-44 67q49 38 93.5 54t101.5 16q87 0 124.5 -45.5t37.5 -145.5v-282h-108zM310 246l-24 -7
q-77 -23 -109 -50t-32 -59t18.5 -49t45.5 -17q32 0 58 17.5t43 42.5v122z" />
    <glyph glyph-name="ae" unicode="&#xe6;" horiz-adv-x="755" 
d="M254 229q-60 -20 -84.5 -45t-24.5 -54q0 -32 18.5 -49t44.5 -17q35 0 60.5 18t44.5 48q-7 20 -10.5 39.5t-4.5 42.5v16t1 16zM609 287q0 60 -21 95.5t-66 35.5q-35 0 -64.5 -34.5t-40.5 -96.5h192zM691 38q-30 -25 -68.5 -39t-93.5 -14q-65 0 -114.5 26.5t-78.5 74.5
q-29 -47 -71.5 -74t-101.5 -27q-26 0 -49.5 9t-40.5 25t-27 38.5t-10 50.5q0 70 64 111t183 70l25 6q6 66 -14.5 94t-66.5 28q-32 0 -66.5 -20.5t-60.5 -59.5l-44 64q50 39 93.5 55.5t99.5 16.5q93 0 131 -57q29 27 66.5 42t80.5 15q50 0 86 -15.5t59.5 -42.5t35 -63.5
t11.5 -78.5q-1 -9 -1 -18t-2 -19h-302q0 -41 9.5 -76t28 -61t46 -41t64.5 -15q29 0 54.5 10.5t47.5 29.5z" />
    <glyph glyph-name="ccedilla" unicode="&#xe7;" horiz-adv-x="476" 
d="M162 -234q76 0 112 17t36 46q0 21 -21.5 33.5t-63.5 12.5q-17 0 -34 -1t-34 -5v31l82 86q-45 4 -82.5 23t-64.5 50t-41.5 72.5t-14.5 91.5q0 54 17 99.5t48 79t74.5 52.5t96.5 19t94.5 -13.5t75.5 -39.5l-43 -70q-24 31 -52.5 49.5t-67.5 18.5q-31 0 -54.5 -14t-40 -39
t-25 -60t-8.5 -76q0 -39 9.5 -73t28 -59t45.5 -39t62 -14q26 0 53 10t49 30l27 -46q-26 -22 -57.5 -35t-73.5 -16l-47 -49q65 0 105.5 -24.5t40.5 -68.5q0 -54 -58 -88t-173 -34v43z" />
    <glyph glyph-name="egrave" unicode="&#xe8;" horiz-adv-x="493" 
d="M260 534l-162 177h119l93 -177h-50zM428 38q-29 -25 -68 -39t-94 -14q-51 0 -93 17t-72.5 48t-47.5 75t-17 98t17.5 100t48 79.5t72.5 52t91 18.5q47 0 83 -14t60 -39t36.5 -59.5t12.5 -75.5q0 -10 -1 -23.5t-3 -25.5h-301q0 -40 9.5 -75t28 -61.5t46 -41.5t63.5 -15
q29 0 55 10.5t48 29.5zM347 287q0 60 -20.5 95.5t-65.5 35.5q-35 0 -65 -34.5t-41 -96.5h192z" />
    <glyph glyph-name="eacute" unicode="&#xe9;" horiz-adv-x="493" 
d="M214 534l93 177h119l-163 -177h-49zM428 38q-29 -25 -68 -39t-94 -14q-51 0 -93 17t-72.5 48t-47.5 75t-17 98t17.5 100t48 79.5t72.5 52t91 18.5q47 0 83 -14t60 -39t36.5 -59.5t12.5 -75.5q0 -10 -1 -23.5t-3 -25.5h-301q0 -40 9.5 -75t28 -61.5t46 -41.5t63.5 -15
q29 0 55 10.5t48 29.5zM347 287q0 60 -20.5 95.5t-65.5 35.5q-35 0 -65 -34.5t-41 -96.5h192z" />
    <glyph glyph-name="ecircumflex" unicode="&#xea;" horiz-adv-x="493" 
d="M373 534l-112 118h-5l-113 -118h-49l126 200h77l125 -200h-49zM428 38q-29 -25 -68 -39t-94 -14q-51 0 -93 17t-72.5 48t-47.5 75t-17 98t17.5 100t48 79.5t72.5 52t91 18.5q47 0 83 -14t60 -39t36.5 -59.5t12.5 -75.5q0 -10 -1 -23.5t-3 -25.5h-301q0 -40 9.5 -75
t28 -61.5t46 -41.5t63.5 -15q29 0 55 10.5t48 29.5zM347 287q0 60 -20.5 95.5t-65.5 35.5q-35 0 -65 -34.5t-41 -96.5h192z" />
    <glyph glyph-name="edieresis" unicode="&#xeb;" horiz-adv-x="493" 
d="M362 552q-27 0 -44.5 19.5t-17.5 45.5t17.5 45.5t44.5 19.5q28 0 45.5 -19.5t17.5 -45.5t-17.5 -45.5t-45.5 -19.5zM157 552q-28 0 -45.5 19.5t-17.5 45.5t17.5 45.5t45.5 19.5q27 0 44 -19.5t17 -45.5t-17 -45.5t-44 -19.5zM428 38q-29 -25 -68 -39t-94 -14
q-51 0 -93 17t-72.5 48t-47.5 75t-17 98t17.5 100t48 79.5t72.5 52t91 18.5q47 0 83 -14t60 -39t36.5 -59.5t12.5 -75.5q0 -10 -1 -23.5t-3 -25.5h-301q0 -40 9.5 -75t28 -61.5t46 -41.5t63.5 -15q29 0 55 10.5t48 29.5zM347 287q0 60 -20.5 95.5t-65.5 35.5
q-35 0 -65 -34.5t-41 -96.5h192z" />
    <glyph glyph-name="igrave" unicode="&#xec;" horiz-adv-x="242" 
d="M108 534l-163 177h119l93 -177h-49zM67 0v445l108 25v-470h-108z" />
    <glyph glyph-name="iacute" unicode="&#xed;" horiz-adv-x="242" 
d="M85 534l93 177h119l-163 -177h-49zM67 0v445l108 25v-470h-108z" />
    <glyph glyph-name="icircumflex" unicode="&#xee;" horiz-adv-x="242" 
d="M237 534l-112 119h-6l-113 -119h-48l125 200h78l125 -200h-49zM67 0v445l108 25v-470h-108z" />
    <glyph glyph-name="idieresis" unicode="&#xef;" horiz-adv-x="242" 
d="M18 552q-27 0 -44.5 19.5t-17.5 45.5t17.5 46t44.5 20q28 0 45 -20t17 -46t-17 -45.5t-45 -19.5zM224 552q-27 0 -44.5 19.5t-17.5 45.5t17.5 46t44.5 20q28 0 45.5 -20t17.5 -46t-17.5 -45.5t-45.5 -19.5zM67 0v445l108 25v-470h-108z" />
    <glyph glyph-name="eth" unicode="&#xf0;" horiz-adv-x="543" 
d="M339 586q85 -62 122.5 -147t37.5 -185q0 -61 -17.5 -110.5t-49 -85t-74 -54.5t-93.5 -19q-53 0 -95 18t-71.5 50t-45.5 75.5t-16 95.5q0 53 16.5 98t45 78t66 52t79.5 19q33 0 61.5 -11t48.5 -34q-13 39 -35.5 73.5t-55.5 61.5l-145 -48v46l99 33q-23 14 -50 25t-59 18
l15 47q49 -12 91 -28.5t78 -36.5l126 41v-46zM273 39q51 0 81.5 47.5t30.5 130.5q0 52 -10 89.5t-26.5 62.5t-38.5 37t-47 12q-49 0 -79.5 -47.5t-30.5 -130.5q0 -99 34 -150t86 -51z" />
    <glyph glyph-name="ntilde" unicode="&#xf1;" horiz-adv-x="528" 
d="M358 0v283q0 54 -18.5 78t-60.5 24q-29 0 -57.5 -19.5t-48.5 -44.5v-321h-107v445l107 25v-74h5q38 37 76.5 57t83.5 20q34 0 58 -12t39.5 -32.5t23 -48t7.5 -59.5v-321h-108zM448 689q-8 -69 -34.5 -101.5t-76.5 -32.5q-23 0 -43.5 11t-38.5 24.5t-33.5 25t-29.5 11.5
q-20 0 -31.5 -15t-19.5 -48h-49q10 68 36.5 101t74.5 33q23 0 43.5 -11.5t38.5 -25t33.5 -24.5t29.5 -11q20 0 33 14.5t21 48.5h46z" />
    <glyph glyph-name="ograve" unicode="&#xf2;" horiz-adv-x="544" 
d="M268 534l-163 177h119l93 -177h-49zM264 -15q-54 0 -96 18t-71.5 49.5t-45 75.5t-15.5 95q0 53 17.5 99t49.5 79.5t77 52.5t100 19q54 0 96 -18t71.5 -49.5t45 -75.5t15.5 -95q0 -53 -17.5 -99t-49.5 -79.5t-77 -52.5t-100 -19zM275 40q51 0 84.5 46t33.5 130
q0 52 -9.5 90t-26.5 62.5t-40 36.5t-49 12q-51 0 -84 -45.5t-33 -130.5q0 -52 9.5 -90t26.5 -62.5t39.5 -36.5t48.5 -12z" />
    <glyph glyph-name="oacute" unicode="&#xf3;" horiz-adv-x="544" 
d="M234 534l93 177h119l-163 -177h-49zM264 -15q-54 0 -96 18t-71.5 49.5t-45 75.5t-15.5 95q0 53 17.5 99t49.5 79.5t77 52.5t100 19q54 0 96 -18t71.5 -49.5t45 -75.5t15.5 -95q0 -53 -17.5 -99t-49.5 -79.5t-77 -52.5t-100 -19zM275 40q51 0 84.5 46t33.5 130
q0 52 -9.5 90t-26.5 62.5t-40 36.5t-49 12q-51 0 -84 -45.5t-33 -130.5q0 -52 9.5 -90t26.5 -62.5t39.5 -36.5t48.5 -12z" />
    <glyph glyph-name="ocircumflex" unicode="&#xf4;" horiz-adv-x="544" 
d="M388 534l-113 118h-5l-113 -118h-49l126 200h77l126 -200h-49zM264 -15q-54 0 -96 18t-71.5 49.5t-45 75.5t-15.5 95q0 53 17.5 99t49.5 79.5t77 52.5t100 19q54 0 96 -18t71.5 -49.5t45 -75.5t15.5 -95q0 -53 -17.5 -99t-49.5 -79.5t-77 -52.5t-100 -19zM275 40
q51 0 84.5 46t33.5 130q0 52 -9.5 90t-26.5 62.5t-40 36.5t-49 12q-51 0 -84 -45.5t-33 -130.5q0 -52 9.5 -90t26.5 -62.5t39.5 -36.5t48.5 -12z" />
    <glyph glyph-name="otilde" unicode="&#xf5;" horiz-adv-x="544" 
d="M450 689q-8 -69 -34.5 -101.5t-76.5 -32.5q-23 0 -43.5 11t-38.5 24.5t-33.5 25t-29.5 11.5q-20 0 -31.5 -15t-19.5 -48h-48q9 68 35.5 101t74.5 33q23 0 43.5 -11.5t38.5 -25t33.5 -24.5t29.5 -11q20 0 33 14t21 49h46zM264 -15q-54 0 -96 18t-71.5 49.5t-45 75.5
t-15.5 95q0 53 17.5 99t49.5 79.5t77 52.5t100 19q54 0 96 -18t71.5 -49.5t45 -75.5t15.5 -95q0 -53 -17.5 -99t-49.5 -79.5t-77 -52.5t-100 -19zM275 40q51 0 84.5 46t33.5 130q0 52 -9.5 90t-26.5 62.5t-40 36.5t-49 12q-51 0 -84 -45.5t-33 -130.5q0 -52 9.5 -90
t26.5 -62.5t39.5 -36.5t48.5 -12z" />
    <glyph glyph-name="odieresis" unicode="&#xf6;" horiz-adv-x="544" 
d="M375 552q-28 0 -45 19.5t-17 45.5t17 45.5t45 19.5t45.5 -19.5t17.5 -45.5t-17.5 -45.5t-45.5 -19.5zM169 552q-27 0 -45 19.5t-18 45.5t18 45.5t45 19.5q28 0 45 -19.5t17 -45.5t-17 -45.5t-45 -19.5zM264 -15q-54 0 -96 18t-71.5 49.5t-45 75.5t-15.5 95q0 53 17.5 99
t49.5 79.5t77 52.5t100 19q54 0 96 -18t71.5 -49.5t45 -75.5t15.5 -95q0 -53 -17.5 -99t-49.5 -79.5t-77 -52.5t-100 -19zM275 40q51 0 84.5 46t33.5 130q0 52 -9.5 90t-26.5 62.5t-40 36.5t-49 12q-51 0 -84 -45.5t-33 -130.5q0 -52 9.5 -90t26.5 -62.5t39.5 -36.5
t48.5 -12z" />
    <glyph glyph-name="divide" unicode="&#xf7;" 
d="M250 328q-21 0 -35.5 14.5t-14.5 35.5q0 20 14.5 34.5t35.5 14.5q20 0 34.5 -14.5t14.5 -34.5q0 -21 -14.5 -35.5t-34.5 -14.5zM299 92q0 -20 -14.5 -34.5t-34.5 -14.5q-21 0 -35.5 14.5t-14.5 34.5q0 21 14.5 35.5t35.5 14.5q20 0 34.5 -14.5t14.5 -35.5zM52 207v56h396
v-56h-396z" />
    <glyph glyph-name="oslash" unicode="&#xf8;" horiz-adv-x="544" 
d="M51 -113l79 137q-46 31 -70 82.5t-24 116.5q0 53 17.5 99t49.5 79.5t77 52.5t100 19q54 0 98 -19l79 136l36 -20l-79 -136q46 -32 70.5 -83t24.5 -116q0 -53 -17.5 -99t-49.5 -79.5t-77 -52.5t-100 -19q-53 0 -99 19l-79 -136zM341 388q-16 15 -34 22t-38 7
q-51 0 -84.5 -45.5t-33.5 -130.5q0 -44 7 -77.5t20 -56.5zM203 69q32 -29 73 -29q51 0 84.5 46t33.5 130q0 44 -7.5 77.5t-20.5 57.5z" />
    <glyph glyph-name="ugrave" unicode="&#xf9;" horiz-adv-x="528" 
d="M252 534l-163 177h119l93 -177h-49zM354 0v62h-5q-37 -38 -75.5 -57.5t-83.5 -19.5q-34 0 -58.5 11.5t-40 32t-22.5 48t-7 59.5v322h107v-283q0 -54 19 -78t61 -24q29 0 57 19.5t48 44.5v321h108v-458h-108z" />
    <glyph glyph-name="uacute" unicode="&#xfa;" horiz-adv-x="528" 
d="M222 534l94 177h118l-162 -177h-50zM354 0v62h-5q-37 -38 -75.5 -57.5t-83.5 -19.5q-34 0 -58.5 11.5t-40 32t-22.5 48t-7 59.5v322h107v-283q0 -54 19 -78t61 -24q29 0 57 19.5t48 44.5v321h108v-458h-108z" />
    <glyph glyph-name="ucircumflex" unicode="&#xfb;" horiz-adv-x="528" 
d="M383 534l-113 118h-5l-113 -118h-49l126 200h77l126 -200h-49zM354 0v62h-5q-37 -38 -75.5 -57.5t-83.5 -19.5q-34 0 -58.5 11.5t-40 32t-22.5 48t-7 59.5v322h107v-283q0 -54 19 -78t61 -24q29 0 57 19.5t48 44.5v321h108v-458h-108z" />
    <glyph glyph-name="udieresis" unicode="&#xfc;" horiz-adv-x="528" 
d="M162 552q-28 0 -45.5 19.5t-17.5 45.5t17.5 45.5t45.5 19.5t45 -19.5t17 -45.5t-17 -45.5t-45 -19.5zM368 552q-28 0 -45 19.5t-17 45.5t17 45.5t45 19.5t45.5 -19.5t17.5 -45.5t-17.5 -45.5t-45.5 -19.5zM354 0v62h-5q-37 -38 -75.5 -57.5t-83.5 -19.5q-34 0 -58.5 11.5
t-40 32t-22.5 48t-7 59.5v322h107v-283q0 -54 19 -78t61 -24q29 0 57 19.5t48 44.5v321h108v-458h-108z" />
    <glyph glyph-name="yacute" unicode="&#xfd;" horiz-adv-x="481" 
d="M215 534l93 177h119l-163 -177h-49zM227 -16l-207 474h119l139 -338l123 338h60l-226 -600q-44 -119 -134 -119q-17 0 -37.5 3.5t-32.5 11.5l22 97q14 -18 27.5 -29.5t34.5 -11.5q25 0 42.5 16t31.5 54z" />
    <glyph glyph-name="thorn" unicode="&#xfe;" horiz-adv-x="537" 
d="M67 -246v917l107 26v-296h4q26 32 62 52t83 20q42 0 75.5 -17.5t56 -48t34.5 -72t12 -88.5q0 -51 -15.5 -97.5t-45.5 -81.5t-75 -55.5t-103 -20.5q-22 0 -45 3.5t-43 11.5v-253h-107zM174 75q19 -14 40.5 -21.5t42.5 -7.5q28 0 51.5 12.5t40.5 35.5t27 55t10 70
q0 78 -32.5 124t-88.5 46q-26 0 -50.5 -16.5t-40.5 -39.5v-258z" />
    <glyph glyph-name="ydieresis" unicode="&#xff;" horiz-adv-x="481" 
d="M153 552q-27 0 -45 19.5t-18 45.5t18 46t45 20q28 0 45 -20t17 -46t-17 -45.5t-45 -19.5zM359 552q-27 0 -44.5 19.5t-17.5 45.5t17.5 46t44.5 20q28 0 45.5 -20t17.5 -46t-17.5 -45.5t-45.5 -19.5zM227 -16l-207 474h119l139 -338l123 338h60l-226 -600
q-44 -119 -134 -119q-17 0 -37.5 3.5t-32.5 11.5l22 97q14 -18 27.5 -29.5t34.5 -11.5q25 0 42.5 16t31.5 54z" />
    <glyph glyph-name="Amacron" unicode="&#x100;" horiz-adv-x="580" 
d="M433 0l-63 190h-224l-63 -190h-65l194 568v37l132 38l218 -643h-129zM264 518h-9l-90 -273h186zM149 744v56h278v-56h-278z" />
    <glyph glyph-name="amacron" unicode="&#x101;" horiz-adv-x="480" 
d="M99 587v56h278v-56h-278zM310 0v63h-4q-25 -37 -60 -57.5t-86 -20.5q-25 0 -47.5 9t-39.5 25t-27 39t-10 50q0 36 16.5 63t48.5 48.5t78 38.5t106 31l25 6v21q0 54 -17 77.5t-62 23.5q-32 0 -64.5 -20.5t-61.5 -60.5l-44 67q49 38 93.5 54t101.5 16q87 0 124.5 -45.5
t37.5 -145.5v-282h-108zM310 246l-24 -7q-77 -23 -109 -50t-32 -59t18.5 -49t45.5 -17q32 0 58 17.5t43 42.5v122z" />
    <glyph glyph-name="Abreve" unicode="&#x102;" horiz-adv-x="580" 
d="M433 0l-63 190h-224l-63 -190h-65l194 568v37l132 38l218 -643h-129zM264 518h-9l-90 -273h186zM441 865q-3 -44 -15.5 -76t-33 -52t-47.5 -29.5t-57 -9.5t-57 9.5t-47.5 29.5t-33 52t-15.5 76h51q10 -54 33.5 -76t68.5 -22t68.5 22t33.5 76h51z" />
    <glyph glyph-name="abreve" unicode="&#x103;" horiz-adv-x="480" 
d="M389 711q-3 -44 -15.5 -76t-33 -52t-47.5 -29.5t-57 -9.5t-57 9.5t-47.5 29.5t-33.5 52t-16 76h52q10 -54 33.5 -76.5t68.5 -22.5t68.5 22.5t33.5 76.5h51zM310 0v63h-4q-25 -37 -60 -57.5t-86 -20.5q-25 0 -47.5 9t-39.5 25t-27 39t-10 50q0 36 16.5 63t48.5 48.5
t78 38.5t106 31l25 6v21q0 54 -17 77.5t-62 23.5q-32 0 -64.5 -20.5t-61.5 -60.5l-44 67q49 38 93.5 54t101.5 16q87 0 124.5 -45.5t37.5 -145.5v-282h-108zM310 246l-24 -7q-77 -23 -109 -50t-32 -59t18.5 -49t45.5 -17q32 0 58 17.5t43 42.5v122z" />
    <glyph glyph-name="Aogonek" unicode="&#x104;" horiz-adv-x="580" 
d="M629 -186q-17 -26 -46 -43t-73 -17q-51 0 -79.5 27t-28.5 75q0 37 26.5 75.5t72.5 68.5h-68l-63 190h-224l-63 -190h-65l194 568v37l132 38l218 -643q-12 -10 -25.5 -23t-24.5 -28.5t-18 -33.5t-7 -37q0 -28 14.5 -45.5t43.5 -17.5q21 0 37.5 9.5t27.5 23.5zM264 518h-9
l-90 -273h186z" />
    <glyph glyph-name="aogonek" unicode="&#x105;" horiz-adv-x="480" 
d="M486 -186q-17 -26 -46.5 -43t-72.5 -17q-51 0 -80 27t-29 75q0 37 26.5 75t75.5 69h-50v63h-4q-25 -37 -60 -57.5t-86 -20.5q-25 0 -47.5 9t-39.5 25t-27 39t-10 50q0 36 16.5 63t48.5 48.5t78 38.5t106 31l25 6v21q0 54 -17.5 77.5t-62.5 23.5q-32 0 -64 -20.5
t-61 -59.5l-44 66q49 38 93.5 54t101.5 16q87 0 124.5 -45.5t37.5 -145.5v-282q-38 -31 -56 -63t-18 -60t14.5 -45.5t43.5 -17.5q21 0 37.5 10t27.5 23zM310 246l-24 -7q-77 -23 -109 -50t-32 -59t18.5 -49t45.5 -17q32 0 58 17.5t43 42.5v122z" />
    <glyph glyph-name="Cacute" unicode="&#x106;" horiz-adv-x="647" 
d="M338 699l93 177h119l-163 -177h-49zM592 44q-43 -29 -96 -44t-109 -15q-77 0 -141 23t-110 65t-71 102t-25 134q0 70 25.5 131t71.5 105t108.5 69.5t137.5 25.5q68 0 124.5 -16.5t104.5 -46.5l-42 -78q-35 38 -80.5 61.5t-104.5 23.5q-45 0 -84 -17.5t-68.5 -51.5
t-46 -83.5t-16.5 -112.5q0 -67 17.5 -118.5t48.5 -86.5t74 -53t93 -18q42 0 82.5 12t75.5 41z" />
    <glyph glyph-name="cacute" unicode="&#x107;" horiz-adv-x="476" 
d="M225 534l93 177h119l-163 -177h-49zM425 38q-30 -25 -68 -39t-92 -14q-51 0 -93 17t-72 48.5t-47 75.5t-17 97q0 54 17 99.5t48 79t74.5 52.5t96.5 19t94.5 -13.5t75.5 -39.5l-43 -70q-24 31 -52.5 49.5t-67.5 18.5q-31 0 -54.5 -14t-40 -39t-25 -60t-8.5 -76
q0 -39 9.5 -73t28 -59t45.5 -39t62 -14q26 0 53 10t49 30z" />
    <glyph glyph-name="Ccircumflex" unicode="&#x108;" horiz-adv-x="647" 
d="M499 699l-113 118h-5l-113 -118h-49l126 200h77l126 -200h-49zM592 44q-43 -29 -96 -44t-109 -15q-77 0 -141 23t-110 65t-71 102t-25 134q0 70 25.5 131t71.5 105t108.5 69.5t137.5 25.5q68 0 124.5 -16.5t104.5 -46.5l-42 -78q-35 38 -80.5 61.5t-104.5 23.5
q-45 0 -84 -17.5t-68.5 -51.5t-46 -83.5t-16.5 -112.5q0 -67 17.5 -118.5t48.5 -86.5t74 -53t93 -18q42 0 82.5 12t75.5 41z" />
    <glyph glyph-name="ccircumflex" unicode="&#x109;" horiz-adv-x="476" 
d="M380 534l-112 119h-5l-114 -119h-48l126 200h77l125 -200h-49zM425 38q-30 -25 -68 -39t-92 -14q-51 0 -93 17t-72 48.5t-47 75.5t-17 97q0 54 17 99.5t48 79t74.5 52.5t96.5 19t94.5 -13.5t75.5 -39.5l-43 -70q-24 31 -52.5 49.5t-67.5 18.5q-31 0 -54.5 -14t-40 -39
t-25 -60t-8.5 -76q0 -39 9.5 -73t28 -59t45.5 -39t62 -14q26 0 53 10t49 30z" />
    <glyph glyph-name="Cdotaccent" unicode="&#x10a;" horiz-adv-x="647" 
d="M376 717q-29 0 -46.5 20t-17.5 46q0 27 17.5 47t46.5 20q28 0 46 -20t18 -47q0 -26 -18 -46t-46 -20zM592 44q-43 -29 -96 -44t-109 -15q-77 0 -141 23t-110 65t-71 102t-25 134q0 70 25.5 131t71.5 105t108.5 69.5t137.5 25.5q68 0 124.5 -16.5t104.5 -46.5l-42 -78
q-35 38 -80.5 61.5t-104.5 23.5q-45 0 -84 -17.5t-68.5 -51.5t-46 -83.5t-16.5 -112.5q0 -67 17.5 -118.5t48.5 -86.5t74 -53t93 -18q42 0 82.5 12t75.5 41z" />
    <glyph glyph-name="cdotaccent" unicode="&#x10b;" horiz-adv-x="476" 
d="M273 554q-28 0 -45.5 20t-17.5 46q0 28 17.5 47.5t45.5 19.5q29 0 46.5 -19.5t17.5 -47.5q0 -26 -17.5 -46t-46.5 -20zM425 38q-30 -25 -68 -39t-92 -14q-51 0 -93 17t-72 48.5t-47 75.5t-17 97q0 54 17 99.5t48 79t74.5 52.5t96.5 19t94.5 -13.5t75.5 -39.5l-43 -70
q-24 31 -52.5 49.5t-67.5 18.5q-31 0 -54.5 -14t-40 -39t-25 -60t-8.5 -76q0 -39 9.5 -73t28 -59t45.5 -39t62 -14q26 0 53 10t49 30z" />
    <glyph glyph-name="Ccaron" unicode="&#x10c;" horiz-adv-x="647" 
d="M345 699l-126 200h49l113 -119h5l113 119h49l-126 -200h-77zM592 44q-43 -29 -96 -44t-109 -15q-77 0 -141 23t-110 65t-71 102t-25 134q0 70 25.5 131t71.5 105t108.5 69.5t137.5 25.5q68 0 124.5 -16.5t104.5 -46.5l-42 -78q-35 38 -80.5 61.5t-104.5 23.5
q-45 0 -84 -17.5t-68.5 -51.5t-46 -83.5t-16.5 -112.5q0 -67 17.5 -118.5t48.5 -86.5t74 -53t93 -18q42 0 82.5 12t75.5 41z" />
    <glyph glyph-name="ccaron" unicode="&#x10d;" horiz-adv-x="476" 
d="M233 534l-125 200h49l112 -119h5l114 119h48l-126 -200h-77zM425 38q-30 -25 -68 -39t-92 -14q-51 0 -93 17t-72 48.5t-47 75.5t-17 97q0 54 17 99.5t48 79t74.5 52.5t96.5 19t94.5 -13.5t75.5 -39.5l-43 -70q-24 31 -52.5 49.5t-67.5 18.5q-31 0 -54.5 -14t-40 -39
t-25 -60t-8.5 -76q0 -39 9.5 -73t28 -59t45.5 -39t62 -14q26 0 53 10t49 30z" />
    <glyph glyph-name="Dcaron" unicode="&#x10e;" horiz-adv-x="668" 
d="M251 699l-126 200h49l113 -119h5l113 119h49l-126 -200h-77zM76 1v623l178 4q86 2 155 -20.5t118 -64t75 -98.5t26 -124q0 -70 -24 -130t-71.5 -104t-118 -68t-162.5 -22zM257 55q60 0 105 18.5t75 51.5t45.5 79t15.5 101q0 60 -16.5 109t-50 83.5t-84 53.5t-117.5 19
h-32v-515h59z" />
    <glyph glyph-name="dcaron" unicode="&#x10f;" horiz-adv-x="752" 
d="M552 408q39 28 61.5 60t22.5 70q0 59 -82 89q0 28 20.5 49t56.5 21q20 0 38 -8.5t31.5 -23.5t21.5 -35t8 -43q0 -32 -12 -61t-32.5 -55.5t-48.5 -50t-61 -44.5zM363 0v57h-4q-26 -33 -62 -52.5t-83 -19.5q-42 0 -75.5 17.5t-56 48t-34.5 71.5t-12 88q0 51 15.5 97.5
t45.5 82t74.5 56t102.5 20.5q23 0 46 -4t43 -11v220l107 26v-697h-107zM363 382q-18 14 -40 21.5t-43 7.5q-28 0 -51.5 -12.5t-41 -35.5t-27 -55t-9.5 -70q0 -78 32 -123.5t89 -45.5q26 0 50.5 16t40.5 39v258z" />
    <glyph glyph-name="Dcroat" unicode="&#x110;" horiz-adv-x="668" 
d="M76 1v289h-68v47h68v287l178 4q86 2 155 -20.5t118 -64t75 -98.5t26 -124q0 -70 -24 -130t-71.5 -104t-118 -68t-162.5 -22zM257 55q60 0 105 18.5t75 51.5t45.5 79t15.5 101q0 60 -17 109t-50.5 83.5t-84 53.5t-117.5 19h-31v-233h124v-47h-124v-235h59z" />
    <glyph glyph-name="dcroat" unicode="&#x111;" horiz-adv-x="552" 
d="M363 0v57h-4q-26 -33 -62 -52.5t-83 -19.5q-42 0 -75.5 17.5t-56 48t-34.5 71.5t-12 88q0 51 15.5 97.5t45.5 82t74.5 56t102.5 20.5q23 0 46 -4t43 -11v72h-138v49h138v99l107 26v-125h72v-49h-72v-523h-107zM363 382q-18 14 -40 21.5t-43 7.5q-28 0 -51.5 -12.5
t-41 -35.5t-27 -55t-9.5 -70q0 -78 32 -123.5t89 -45.5q26 0 50.5 16t40.5 39v258z" />
    <glyph glyph-name="Emacron" unicode="&#x112;" horiz-adv-x="530" 
d="M76 0v625h406v-83q-17 6 -35 10.5t-40 8t-50 5t-66 1.5h-94v-223h202v-56h-202v-230h94q38 0 66 1.5t50 5t40 8t35 10.5v-83h-406zM149 744v56h278v-56h-278z" />
    <glyph glyph-name="emacron" unicode="&#x113;" horiz-adv-x="493" 
d="M117 587v56h279v-56h-279zM428 38q-29 -25 -68 -39t-94 -14q-51 0 -93 17t-72.5 48t-47.5 75t-17 98t17.5 100t48 79.5t72.5 52t91 18.5q47 0 83 -14t60 -39t36.5 -59.5t12.5 -75.5q0 -10 -1 -23.5t-3 -25.5h-301q0 -40 9.5 -75t28 -61.5t46 -41.5t63.5 -15q29 0 55 10.5
t48 29.5zM347 287q0 60 -20.5 95.5t-65.5 35.5q-35 0 -65 -34.5t-41 -96.5h192z" />
    <glyph glyph-name="Ebreve" unicode="&#x114;" horiz-adv-x="530" 
d="M76 0v625h406v-83q-17 6 -35 10.5t-40 8t-50 5t-66 1.5h-94v-223h202v-56h-202v-230h94q38 0 66 1.5t50 5t40 8t35 10.5v-83h-406zM443 865q-3 -44 -15.5 -76t-33 -52t-47.5 -29.5t-57 -9.5t-57 9.5t-47.5 29.5t-33.5 52t-16 76h52q10 -54 33.5 -76t68.5 -22t68.5 22
t33.5 76h51z" />
    <glyph glyph-name="ebreve" unicode="&#x115;" horiz-adv-x="493" 
d="M414 711q-3 -45 -15.5 -76.5t-33 -51.5t-47.5 -29.5t-57 -9.5q-31 0 -57.5 9.5t-47 29.5t-33.5 51.5t-16 76.5h52q9 -54 33 -76.5t69 -22.5t68 22.5t33 76.5h52zM428 38q-29 -25 -68 -39t-94 -14q-51 0 -93 17t-72.5 48t-47.5 75t-17 98t17.5 100t48 79.5t72.5 52
t91 18.5q47 0 83 -14t60 -39t36.5 -59.5t12.5 -75.5q0 -10 -1 -23.5t-3 -25.5h-301q0 -40 9.5 -75t28 -61.5t46 -41.5t63.5 -15q29 0 55 10.5t48 29.5zM347 287q0 60 -20.5 95.5t-65.5 35.5q-35 0 -65 -34.5t-41 -96.5h192z" />
    <glyph glyph-name="Edotaccent" unicode="&#x116;" horiz-adv-x="530" 
d="M76 0v625h406v-83q-17 6 -35 10.5t-40 8t-50 5t-66 1.5h-94v-223h202v-56h-202v-230h94q38 0 66 1.5t50 5t40 8t35 10.5v-83h-406zM298 716q-28 0 -46 20t-18 46q0 28 18 47.5t46 19.5t46 -19.5t18 -47.5q0 -26 -18 -46t-46 -20z" />
    <glyph glyph-name="edotaccent" unicode="&#x117;" horiz-adv-x="493" 
d="M260 554q-28 0 -46 20t-18 46q0 27 18 47t46 20t46 -20t18 -47q0 -26 -18 -46t-46 -20zM428 38q-29 -25 -68 -39t-94 -14q-51 0 -93 17t-72.5 48t-47.5 75t-17 98t17.5 100t48 79.5t72.5 52t91 18.5q47 0 83 -14t60 -39t36.5 -59.5t12.5 -75.5q0 -10 -1 -23.5t-3 -25.5
h-301q0 -40 9.5 -75t28 -61.5t46 -41.5t63.5 -15q29 0 55 10.5t48 29.5zM347 287q0 60 -20.5 95.5t-65.5 35.5q-35 0 -65 -34.5t-41 -96.5h192z" />
    <glyph glyph-name="Eogonek" unicode="&#x118;" horiz-adv-x="530" 
d="M496 -186q-17 -26 -46 -43t-73 -17q-51 0 -80 27t-29 75q0 38 26.5 76t71.5 68h-290v625h406v-83q-17 6 -35 10.5t-40 8t-50 5t-66 1.5h-94v-223h202v-56h-202v-230h94q38 0 66 1.5t50 5t40 8t35 10.5v-83h-54q-36 -29 -55 -60t-19 -63q0 -27 14.5 -44.5t43.5 -17.5
q21 0 37.5 9.5t27.5 23.5z" />
    <glyph glyph-name="eogonek" unicode="&#x119;" horiz-adv-x="493" 
d="M443 -186q-17 -26 -46 -43t-73 -17q-50 0 -79 27t-29 75q0 35 21.5 68.5t59.5 62.5q-8 -1 -15.5 -1.5t-15.5 -0.5q-51 0 -93 17t-72.5 48t-47.5 75t-17 98t17.5 100t48 79.5t72.5 52t91 18.5q50 0 86 -15.5t59.5 -42t34.5 -63t11 -78.5q0 -19 -3 -38h-301q0 -41 9.5 -76
t28 -61t46 -41t63.5 -15q29 0 55 10.5t48 29.5l26 -45q-57 -37 -92 -76.5t-35 -84.5q0 -27 15 -44.5t44 -17.5q20 0 36.5 9.5t27.5 23.5zM347 287q0 60 -20.5 95.5t-65.5 35.5q-35 0 -65 -34.5t-41 -96.5h192z" />
    <glyph glyph-name="Ecaron" unicode="&#x11a;" horiz-adv-x="530" 
d="M76 0v625h406v-83q-17 6 -35 10.5t-40 8t-50 5t-66 1.5h-94v-223h202v-56h-202v-230h94q38 0 66 1.5t50 5t40 8t35 10.5v-83h-406zM247 699l-125 200h49l112 -119h5l114 119h48l-126 -200h-77z" />
    <glyph glyph-name="ecaron" unicode="&#x11b;" horiz-adv-x="493" 
d="M220 534l-126 200h49l113 -119h6l113 119h48l-126 -200h-77zM428 38q-29 -25 -68 -39t-94 -14q-51 0 -93 17t-72.5 48t-47.5 75t-17 98t17.5 100t48 79.5t72.5 52t91 18.5q47 0 83 -14t60 -39t36.5 -59.5t12.5 -75.5q0 -10 -1 -23.5t-3 -25.5h-301q0 -40 9.5 -75
t28 -61.5t46 -41.5t63.5 -15q29 0 55 10.5t48 29.5zM347 287q0 60 -20.5 95.5t-65.5 35.5q-35 0 -65 -34.5t-41 -96.5h192z" />
    <glyph glyph-name="Gcircumflex" unicode="&#x11c;" horiz-adv-x="658" 
d="M496 699l-113 118h-5l-113 -118h-49l126 200h77l126 -200h-49zM472 276h120v-234q-90 -57 -205 -57q-77 0 -141 22.5t-109.5 64t-71 101t-25.5 133.5q0 70 25.5 131t71 106t108.5 71t138 26q64 0 122.5 -16.5t106.5 -46.5l-42 -78q-35 38 -80.5 61.5t-105.5 23.5
q-45 0 -84 -18t-68 -52t-45.5 -83.5t-16.5 -112.5q0 -67 17.5 -118.5t48.5 -87t73 -53.5t92 -18q20 0 36.5 1.5t34.5 6.5v227z" />
    <glyph glyph-name="gcircumflex" unicode="&#x11d;" horiz-adv-x="526" 
d="M367 534l-112 118h-5l-114 -118h-48l126 200h77l125 -200h-49zM111 -25q-29 10 -46.5 33t-17.5 50q0 32 19.5 57.5t63.5 41.5v5q-36 17 -60 50.5t-24 88.5q0 35 13 66.5t38 55t61 37t82 13.5q52 0 91 -15h185v-58l-117 3v-6q18 -22 24.5 -42t6.5 -43q0 -38 -14.5 -69.5
t-40.5 -54.5t-62 -36t-80 -13q-13 0 -27 2t-26 4q-17 -7 -27.5 -18t-10.5 -25q0 -43 64 -43q38 0 66 1.5t59 1.5q66 0 109.5 -37t43.5 -103q0 -42 -19.5 -76t-54.5 -57.5t-85 -36.5t-110 -13q-96 0 -148 31.5t-52 87.5q0 41 24 68t72 44v5zM174 -37q-24 -11 -42 -30t-18 -51
q0 -43 35.5 -65.5t98.5 -22.5q61 0 101 26t40 70q0 41 -30 57t-81 16q-26 0 -51.5 -1t-52.5 1zM237 192q38 0 61 27.5t23 78.5q0 24 -5 46.5t-15.5 39.5t-25.5 27t-36 10q-38 0 -60.5 -27.5t-22.5 -79.5q0 -24 5 -46.5t15 -39t25 -26.5t36 -10z" />
    <glyph glyph-name="Gbreve" unicode="&#x11e;" horiz-adv-x="658" 
d="M536 865q-3 -44 -15.5 -76t-33 -52t-47.5 -29.5t-57 -9.5q-31 0 -57.5 9.5t-47 29.5t-33.5 52t-16 76h52q9 -54 33 -76t69 -22t68 22.5t33 75.5h52zM472 276h120v-234q-90 -57 -205 -57q-77 0 -141 22.5t-109.5 64t-71 101t-25.5 133.5q0 70 25.5 131t71 106t108.5 71
t138 26q64 0 122.5 -16.5t106.5 -46.5l-42 -78q-35 38 -80.5 61.5t-105.5 23.5q-45 0 -84 -18t-68 -52t-45.5 -83.5t-16.5 -112.5q0 -67 17.5 -118.5t48.5 -87t73 -53.5t92 -18q20 0 36.5 1.5t34.5 6.5v227z" />
    <glyph glyph-name="gbreve" unicode="&#x11f;" horiz-adv-x="526" 
d="M403 711q-3 -44 -15.5 -76t-33 -52t-47.5 -29.5t-57 -9.5t-57 9.5t-47.5 29.5t-33.5 52t-16 76h52q10 -54 33.5 -76t68.5 -22q44 0 68 22.5t34 75.5h51zM111 -25q-29 10 -46.5 33t-17.5 50q0 32 19.5 57.5t63.5 41.5v5q-36 17 -60 50.5t-24 88.5q0 35 13 66.5t38 55
t61 37t82 13.5q52 0 91 -15h185v-58l-117 3v-6q18 -22 24.5 -42t6.5 -43q0 -38 -14.5 -69.5t-40.5 -54.5t-62 -36t-80 -13q-13 0 -27 2t-26 4q-17 -7 -27.5 -18t-10.5 -25q0 -43 64 -43q38 0 66 1.5t59 1.5q66 0 109.5 -37t43.5 -103q0 -42 -19.5 -76t-54.5 -57.5t-85 -36.5
t-110 -13q-96 0 -148 31.5t-52 87.5q0 41 24 68t72 44v5zM174 -37q-24 -11 -42 -30t-18 -51q0 -43 35.5 -65.5t98.5 -22.5q61 0 101 26t40 70q0 41 -30 57t-81 16q-26 0 -51.5 -1t-52.5 1zM237 192q38 0 61 27.5t23 78.5q0 24 -5 46.5t-15.5 39.5t-25.5 27t-36 10
q-38 0 -60.5 -27.5t-22.5 -79.5q0 -24 5 -46.5t15 -39t25 -26.5t36 -10z" />
    <glyph glyph-name="Gdotaccent" unicode="&#x120;" horiz-adv-x="658" 
d="M383 715q-28 0 -45.5 20t-17.5 46q0 27 17.5 47t45.5 20q29 0 47 -20t18 -47q0 -26 -18 -46t-47 -20zM472 276h120v-234q-90 -57 -205 -57q-77 0 -141 22.5t-109.5 64t-71 101t-25.5 133.5q0 70 25.5 131t71 106t108.5 71t138 26q64 0 122.5 -16.5t106.5 -46.5l-42 -78
q-35 38 -80.5 61.5t-105.5 23.5q-45 0 -84 -18t-68 -52t-45.5 -83.5t-16.5 -112.5q0 -67 17.5 -118.5t48.5 -87t73 -53.5t92 -18q20 0 36.5 1.5t34.5 6.5v227z" />
    <glyph glyph-name="gdotaccent" unicode="&#x121;" horiz-adv-x="526" 
d="M244 554q-28 0 -46 20t-18 46q0 27 18 47t46 20q29 0 46.5 -20t17.5 -47q0 -26 -17.5 -46t-46.5 -20zM111 -25q-29 10 -46.5 33t-17.5 50q0 32 19.5 57.5t63.5 41.5v5q-36 17 -60 50.5t-24 88.5q0 35 13 66.5t38 55t61 37t82 13.5q52 0 91 -15h185v-58l-117 3v-6
q18 -22 24.5 -42t6.5 -43q0 -38 -14.5 -69.5t-40.5 -54.5t-62 -36t-80 -13q-13 0 -27 2t-26 4q-17 -7 -27.5 -18t-10.5 -25q0 -43 64 -43q38 0 66 1.5t59 1.5q66 0 109.5 -37t43.5 -103q0 -42 -19.5 -76t-54.5 -57.5t-85 -36.5t-110 -13q-96 0 -148 31.5t-52 87.5
q0 41 24 68t72 44v5zM174 -37q-24 -11 -42 -30t-18 -51q0 -43 35.5 -65.5t98.5 -22.5q61 0 101 26t40 70q0 41 -30 57t-81 16q-26 0 -51.5 -1t-52.5 1zM237 192q38 0 61 27.5t23 78.5q0 24 -5 46.5t-15.5 39.5t-25.5 27t-36 10q-38 0 -60.5 -27.5t-22.5 -79.5q0 -24 5 -46.5
t15 -39t25 -26.5t36 -10z" />
    <glyph glyph-name="Gcommaaccent" unicode="&#x122;" horiz-adv-x="658" 
d="M317 -265q28 12 48.5 31.5t20.5 51.5q0 52 -75 72q0 24 18 42t50 18q37 0 61 -27.5t24 -64.5q0 -53 -37 -92.5t-96 -62.5zM472 276h120v-234q-90 -57 -205 -57q-77 0 -141 22.5t-109.5 64t-71 101t-25.5 133.5q0 70 25.5 131t71 106t108.5 71t138 26q64 0 122.5 -16.5
t106.5 -46.5l-42 -78q-35 38 -80.5 61.5t-105.5 23.5q-45 0 -84 -18t-68 -52t-45.5 -83.5t-16.5 -112.5q0 -67 17.5 -118.5t48.5 -87t73 -53.5t92 -18q20 0 36.5 1.5t34.5 6.5v227z" />
    <glyph glyph-name="gcommaaccent" unicode="&#x123;" horiz-adv-x="526" 
d="M316 741q-28 -11 -48.5 -31t-20.5 -51q0 -53 74 -73q0 -24 -17.5 -41.5t-49.5 -17.5q-37 0 -61 27.5t-24 64.5q0 53 37 92t95 62zM111 -25q-29 10 -46.5 33t-17.5 50q0 32 19.5 57.5t63.5 41.5v5q-36 17 -60 50.5t-24 88.5q0 35 13 66.5t38 55t61 37t82 13.5q52 0 91 -15
h185v-58l-117 3v-6q18 -22 24.5 -42t6.5 -43q0 -38 -14.5 -69.5t-40.5 -54.5t-62 -36t-80 -13q-13 0 -27 2t-26 4q-17 -7 -27.5 -18t-10.5 -25q0 -43 64 -43q38 0 66 1.5t59 1.5q66 0 109.5 -37t43.5 -103q0 -42 -19.5 -76t-54.5 -57.5t-85 -36.5t-110 -13q-96 0 -148 31.5
t-52 87.5q0 41 24 68t72 44v5zM174 -37q-24 -11 -42 -30t-18 -51q0 -43 35.5 -65.5t98.5 -22.5q61 0 101 26t40 70q0 41 -30 57t-81 16q-26 0 -51.5 -1t-52.5 1zM237 192q38 0 61 27.5t23 78.5q0 24 -5 46.5t-15.5 39.5t-25.5 27t-36 10q-38 0 -60.5 -27.5t-22.5 -79.5
q0 -24 5 -46.5t15 -39t25 -26.5t36 -10z" />
    <glyph glyph-name="Hcircumflex" unicode="&#x124;" horiz-adv-x="660" 
d="M462 0v290h-264v-290h-122v625h122v-277h264v277h122v-625h-122zM445 699l-113 119h-5l-113 -119h-49l126 200h77l126 -200h-49z" />
    <glyph glyph-name="hcircumflex" unicode="&#x125;" horiz-adv-x="528" 
d="M358 0v283q0 54 -18.5 78t-60.5 24q-29 0 -57.5 -20t-48.5 -45v-320h-107v671l107 26v-301h5q38 38 76 57.5t83 19.5q34 0 58 -11.5t40 -32t23.5 -48t7.5 -59.5v-322h-108zM249 738l-113 118h-5l-113 -118h-48l125 200h77l126 -200h-49z" />
    <glyph glyph-name="Hbar" unicode="&#x126;" horiz-adv-x="692" 
d="M478 0v290h-264v-290h-122v444h-87v50h87v131h122v-131h264v131h122v-131h87v-50h-87v-444h-122zM478 444h-264v-98h264v98z" />
    <glyph glyph-name="hbar" unicode="&#x127;" horiz-adv-x="543" 
d="M374 0v283q0 54 -19 78t-61 24q-29 0 -57 -20t-48 -45v-320h-108v523h-71v49h71v99l108 26v-125h137v-49h-137v-127h5q38 38 76 57.5t83 19.5q34 0 58 -11.5t39.5 -32t23 -48t7.5 -59.5v-322h-107z" />
    <glyph glyph-name="Imacron" unicode="&#x12a;" horiz-adv-x="274" 
d="M76 0v625h122v-625h-122zM-2 744v56h278v-56h-278z" />
    <glyph glyph-name="imacron" unicode="&#x12b;" horiz-adv-x="242" 
d="M67 0v445l108 25v-470h-108zM-18 587v55h279v-55h-279z" />
    <glyph glyph-name="Ibreve" unicode="&#x12c;" horiz-adv-x="274" 
d="M76 0v625h122v-625h-122zM290 865q-3 -44 -15.5 -76t-33 -52t-47.5 -29.5t-57 -9.5t-57 9.5t-47.5 29.5t-33.5 52t-16 76h52q10 -54 33.5 -76t68.5 -22t68.5 22t33.5 76h51z" />
    <glyph glyph-name="ibreve" unicode="&#x12d;" horiz-adv-x="242" 
d="M67 0v445l108 25v-470h-108zM275 711q-3 -44 -16 -76t-33.5 -52t-47 -29.5t-57.5 -9.5q-30 0 -57 9.5t-47.5 29.5t-33 52t-15.5 76h52q9 -54 33 -76t68 -22q45 0 68.5 22t33.5 76h52z" />
    <glyph glyph-name="Iogonek" unicode="&#x12e;" horiz-adv-x="274" 
d="M265 -185q-17 -26 -46.5 -43t-72.5 -17q-51 0 -80 27t-29 75q0 38 28 75.5t74 67.5h-63v625h122v-625q-41 -32 -58 -64t-17 -58q0 -28 14.5 -45.5t43.5 -17.5q21 0 37.5 10t27.5 23z" />
    <glyph glyph-name="iogonek" unicode="&#x12f;" horiz-adv-x="242" 
d="M242 -185q-17 -26 -46.5 -43t-72.5 -17q-51 0 -80 27t-29 75q0 38 27.5 75.5t73.5 67.5h-48v445l108 25v-470q-45 -35 -60 -67.5t-15 -54.5q0 -28 14.5 -45.5t43.5 -17.5q21 0 37.5 10t27.5 23zM121 545q-28 0 -48 20t-20 49t20 49.5t48 20.5t47.5 -20.5t19.5 -49.5
t-19.5 -49t-47.5 -20z" />
    <glyph glyph-name="Idotaccent" unicode="&#x130;" horiz-adv-x="274" 
d="M76 0v625h122v-625h-122zM137 715q-28 0 -45.5 20t-17.5 46q0 28 17.5 47.5t45.5 19.5q29 0 46.5 -19.5t17.5 -47.5q0 -26 -17.5 -46t-46.5 -20z" />
    <glyph glyph-name="dotlessi" unicode="&#x131;" horiz-adv-x="242" 
d="M67 0v445l108 25v-470h-108z" />
    <glyph glyph-name="Jcircumflex" unicode="&#x134;" horiz-adv-x="475" 
d="M447 699l-112 119h-6l-113 -119h-48l125 200h78l125 -200h-49zM278 625h121v-403q0 -65 -15 -110.5t-41.5 -73.5t-64 -40.5t-82.5 -12.5q-67 0 -112.5 25.5t-72.5 67.5l60 70l16 -33q19 -39 43 -56.5t57 -17.5q42 0 66.5 30t24.5 94v460z" />
    <glyph glyph-name="jcircumflex" unicode="&#x135;" horiz-adv-x="242" 
d="M238 534l-113 119h-5l-113 -119h-49l126 200h77l126 -200h-49zM67 445l108 25v-488q0 -123 -43.5 -183.5t-140.5 -60.5q-17 0 -42 5t-40 13l19 83q15 -19 32.5 -32t37.5 -13q32 0 50.5 21.5t18.5 71.5v558z" />
    <glyph glyph-name="Kcommaaccent" unicode="&#x136;" horiz-adv-x="614" 
d="M446 0l-187 292l-61 -62v-230h-122v625h122v-313l308 313h86l-248 -248l250 -377h-148zM248 -265q28 12 49 31.5t21 51.5q0 27 -19.5 44.5t-55.5 27.5q0 24 18 42t50 18q37 0 61 -27.5t24 -64.5q0 -54 -37 -93t-96 -62z" />
    <glyph glyph-name="kcommaaccent" unicode="&#x137;" horiz-adv-x="506" 
d="M358 0l-132 230l-53 -46v-184h-107v671l107 26v-447l233 208h78l-178 -159l176 -299h-124zM193 -265q29 12 49.5 31.5t20.5 51.5q0 52 -75 72q0 24 18 42t50 18q37 0 61 -27.5t24 -64.5q0 -54 -37 -93t-96 -62z" />
    <glyph glyph-name="Lacute" unicode="&#x139;" horiz-adv-x="505" 
d="M75 0v625h121v-567h92q38 0 66 1.5t50 4.5t40 7.5t35 10.5v-82h-404zM100 699l93 177h119l-163 -177h-49z" />
    <glyph glyph-name="lacute" unicode="&#x13a;" horiz-adv-x="239" 
d="M66 0v671l107 26v-697h-107zM82 746l93 177h119l-163 -177h-49z" />
    <glyph glyph-name="Lcommaaccent" unicode="&#x13b;" horiz-adv-x="506" 
d="M76 0v625h121v-567h92q38 0 66 1.5t50 4.5t40 7.5t35 10.5v-82h-404zM224 -265q29 12 49.5 31.5t20.5 51.5q0 52 -75 72q0 24 18 42t50 18q37 0 61 -27.5t24 -64.5q0 -54 -37 -93t-96 -62z" />
    <glyph glyph-name="lcommaaccent" unicode="&#x13c;" horiz-adv-x="239" 
d="M66 0v671l107 26v-697h-107zM47 -265q28 12 48.5 31.5t20.5 51.5q0 52 -74 72q0 24 17.5 42t49.5 18q37 0 61 -27.5t24 -64.5q0 -54 -37 -93t-95 -62z" />
    <glyph glyph-name="Lcaron" unicode="&#x13d;" horiz-adv-x="632" 
d="M76 0v625h121v-567h92q38 0 66 1.5t50 4.5t40 7.5t35 10.5v-82h-404zM427 370q38 28 61 60t23 70q0 59 -82 89q0 28 20 49t56 21q20 0 38 -8.5t31.5 -23.5t21.5 -35t8 -43q0 -32 -11.5 -61t-32 -55.5t-48.5 -50t-61 -44.5z" />
    <glyph glyph-name="lcaron" unicode="&#x13e;" horiz-adv-x="453" 
d="M66 0v671l107 26v-697h-107zM254 408q38 28 61 60t23 70q0 59 -82 89q0 28 20 49t56 21q20 0 38 -8.5t31.5 -23.5t21.5 -35t8 -43q0 -32 -11.5 -61t-32 -55.5t-48.5 -50t-61 -44.5z" />
    <glyph glyph-name="Ldot" unicode="&#x13f;" horiz-adv-x="602" 
d="M505 232q-30 0 -51.5 21.5t-21.5 52.5q0 30 21.5 52t51.5 22q31 0 52 -22t21 -52t-21 -52t-52 -22zM76 0v625h121v-567h92q38 0 66 1.5t50 4.5t40 7.5t35 10.5v-82h-404z" />
    <glyph glyph-name="ldot" unicode="&#x140;" horiz-adv-x="424" 
d="M329 239q-31 0 -52 21.5t-21 52.5q0 30 21 52t52 22q30 0 51.5 -22t21.5 -52t-21.5 -52t-51.5 -22zM66 0v671l107 26v-697h-107z" />
    <glyph glyph-name="Lslash" unicode="&#x141;" horiz-adv-x="523" 
d="M93 0v207l-77 -21v47l77 20v372h121v-339l100 27v-47l-100 -27v-181h92q38 0 66 1.5t50 4.5t40 7.5t35 10.5v-82h-404z" />
    <glyph glyph-name="lslash" unicode="&#x142;" horiz-adv-x="291" 
d="M92 0v207l-80 -21v47l80 21v417l107 26v-414l80 22v-47l-80 -21v-237h-107z" />
    <glyph glyph-name="Nacute" unicode="&#x143;" horiz-adv-x="654" 
d="M463 -6l-318 494h-6v-488h-63v619l122 10l311 -483h6v479h63v-620zM329 699l94 177h119l-163 -177h-50z" />
    <glyph glyph-name="nacute" unicode="&#x144;" horiz-adv-x="528" 
d="M358 0v283q0 54 -18.5 78t-60.5 24q-29 0 -57.5 -19.5t-48.5 -44.5v-321h-107v445l107 25v-74h5q38 37 76.5 57t83.5 20q34 0 58 -12t39.5 -32.5t23 -48t7.5 -59.5v-321h-108zM243 534l93 177h119l-163 -177h-49z" />
    <glyph glyph-name="Ncommaaccent" unicode="&#x145;" horiz-adv-x="654" 
d="M463 -6l-318 494h-6v-488h-63v619l122 10l311 -483h6v479h63v-620zM249 -265q28 12 48.5 31.5t20.5 51.5q0 52 -74 72q0 24 17.5 42t49.5 18q37 0 61 -27.5t24 -64.5q0 -54 -37 -93t-96 -62z" />
    <glyph glyph-name="ncommaaccent" unicode="&#x146;" horiz-adv-x="528" 
d="M358 0v283q0 54 -18.5 78t-60.5 24q-29 0 -57.5 -19.5t-48.5 -44.5v-321h-107v445l107 25v-74h5q38 37 76.5 57t83.5 20q34 0 58 -12t39.5 -32.5t23 -48t7.5 -59.5v-321h-108zM205 -265q29 12 49.5 31.5t20.5 51.5q0 52 -75 72q0 24 18 42t50 18q37 0 61 -27.5t24 -64.5
q0 -53 -37 -92.5t-96 -62.5z" />
    <glyph glyph-name="Ncaron" unicode="&#x147;" horiz-adv-x="654" 
d="M463 -6l-318 494h-6v-488h-63v619l122 10l311 -483h6v479h63v-620zM315 699l-126 200h49l113 -119h5l113 119h49l-126 -200h-77z" />
    <glyph glyph-name="ncaron" unicode="&#x148;" horiz-adv-x="528" 
d="M358 0v283q0 54 -18.5 78t-60.5 24q-29 0 -57.5 -19.5t-48.5 -44.5v-321h-107v445l107 25v-74h5q38 37 76.5 57t83.5 20q34 0 58 -12t39.5 -32.5t23 -48t7.5 -59.5v-321h-108zM233 534l-126 200h49l113 -119h5l113 119h49l-126 -200h-77z" />
    <glyph glyph-name="Omacron" unicode="&#x14c;" horiz-adv-x="741" 
d="M231 744v56h279v-56h-279zM701 317q0 -71 -26.5 -132t-71.5 -105.5t-105.5 -69.5t-129.5 -25q-73 0 -133 23.5t-103.5 66t-67.5 101.5t-24 131q0 71 26 132t71 105.5t105.5 70t129.5 25.5q73 0 133.5 -23.5t104 -66t67.5 -102t24 -131.5zM373 40q41 0 77 17t63 50.5
t42.5 83t15.5 114.5q0 67 -16 119t-44 87.5t-65 54t-79 18.5q-41 0 -77 -17t-62.5 -50.5t-42 -83t-15.5 -114.5q0 -67 16 -119t44 -87.5t64.5 -54t78.5 -18.5z" />
    <glyph glyph-name="omacron" unicode="&#x14d;" horiz-adv-x="544" 
d="M134 587v56h279v-56h-279zM265 -15q-54 0 -96 18t-71.5 49.5t-45 75.5t-15.5 95q0 53 17.5 99t49.5 79.5t77 52.5t100 19q54 0 96 -18t71.5 -49.5t45 -75.5t15.5 -95q0 -53 -17.5 -99t-49.5 -79.5t-77 -52.5t-100 -19zM276 40q51 0 84.5 46t33.5 130q0 52 -9.5 90
t-26.5 62.5t-40 36.5t-49 12q-51 0 -84 -45.5t-33 -130.5q0 -52 9.5 -90t26.5 -62.5t39.5 -36.5t48.5 -12z" />
    <glyph glyph-name="Obreve" unicode="&#x14e;" horiz-adv-x="741" 
d="M524 865q-3 -44 -15.5 -76t-33 -52t-47.5 -29.5t-57 -9.5t-57 9.5t-47.5 29.5t-33.5 52t-16 76h52q10 -54 33.5 -76t68.5 -22q44 0 68 22.5t34 75.5h51zM701 317q0 -71 -26.5 -132t-71.5 -105.5t-105.5 -69.5t-129.5 -25q-73 0 -133 23.5t-103.5 66t-67.5 101.5t-24 131
q0 71 26 132t71 105.5t105.5 70t129.5 25.5q73 0 133.5 -23.5t104 -66t67.5 -102t24 -131.5zM373 40q41 0 77 17t63 50.5t42.5 83t15.5 114.5q0 67 -16 119t-44 87.5t-65 54t-79 18.5q-41 0 -77 -17t-62.5 -50.5t-42 -83t-15.5 -114.5q0 -67 16 -119t44 -87.5t64.5 -54
t78.5 -18.5z" />
    <glyph glyph-name="obreve" unicode="&#x14f;" horiz-adv-x="544" 
d="M426 711q-3 -44 -15.5 -76t-33 -52t-47.5 -29.5t-57 -9.5q-31 0 -57.5 9.5t-47 29.5t-33.5 52t-16 76h52q9 -54 33 -76t69 -22t68 22.5t33 75.5h52zM264 -15q-54 0 -96 18t-71.5 49.5t-45 75.5t-15.5 95q0 53 17.5 99t49.5 79.5t77 52.5t100 19q54 0 96 -18t71.5 -49.5
t45 -75.5t15.5 -95q0 -53 -17.5 -99t-49.5 -79.5t-77 -52.5t-100 -19zM275 40q51 0 84.5 46t33.5 130q0 52 -9.5 90t-26.5 62.5t-40 36.5t-49 12q-51 0 -84 -45.5t-33 -130.5q0 -52 9.5 -90t26.5 -62.5t39.5 -36.5t48.5 -12z" />
    <glyph glyph-name="Ohungarumlaut" unicode="&#x150;" horiz-adv-x="741" 
d="M437 699l89 177h116l-158 -177h-47zM267 699l89 177h116l-158 -177h-47zM701 317q0 -71 -26.5 -132t-71.5 -105.5t-105.5 -69.5t-129.5 -25q-73 0 -133 23.5t-103.5 66t-67.5 101.5t-24 131q0 71 26 132t71 105.5t105.5 70t129.5 25.5q73 0 133.5 -23.5t104 -66
t67.5 -102t24 -131.5zM373 40q41 0 77 17t63 50.5t42.5 83t15.5 114.5q0 67 -16 119t-44 87.5t-65 54t-79 18.5q-41 0 -77 -17t-62.5 -50.5t-42 -83t-15.5 -114.5q0 -67 16 -119t44 -87.5t64.5 -54t78.5 -18.5z" />
    <glyph glyph-name="ohungarumlaut" unicode="&#x151;" horiz-adv-x="544" 
d="M336 534q22 45 44 88.5t45 88.5h116l-158 -177h-47zM166 534l88 177h117l-158 -177h-47zM264 -15q-54 0 -96 18t-71.5 49.5t-45 75.5t-15.5 95q0 53 17.5 99t49.5 79.5t77 52.5t100 19q54 0 96 -18t71.5 -49.5t45 -75.5t15.5 -95q0 -53 -17.5 -99t-49.5 -79.5t-77 -52.5
t-100 -19zM275 40q51 0 84.5 46t33.5 130q0 52 -9.5 90t-26.5 62.5t-40 36.5t-49 12q-51 0 -84 -45.5t-33 -130.5q0 -52 9.5 -90t26.5 -62.5t39.5 -36.5t48.5 -12z" />
    <glyph glyph-name="OE" unicode="&#x152;" horiz-adv-x="913" 
d="M394 0q-76 0 -141 20.5t-113 59.5t-75 95t-27 127q0 72 24.5 131.5t71.5 102t116 66t158 23.5h457v-84q-17 6 -35 11t-40 8.5t-50 5t-65 1.5h-94v-223h202v-56h-202v-231h94q37 0 65 1.5t50 5t40 8.5t35 11v-83h-471zM459 569h-64q-54 0 -96 -19t-71 -53t-44.5 -80.5
t-15.5 -101.5q0 -59 17 -107t49 -82t79.5 -52.5t107.5 -18.5h38v514z" />
    <glyph glyph-name="oe" unicode="&#x153;" horiz-adv-x="847" 
d="M783 38q-30 -25 -69 -39t-94 -14q-56 0 -100.5 20.5t-74.5 58.5q-31 -37 -76.5 -58t-104.5 -21q-54 0 -96 18t-71.5 49.5t-45 75.5t-15.5 95q0 53 17.5 99t49.5 79.5t77 52.5t100 19q57 0 100.5 -20.5t72.5 -57.5q30 37 73 57.5t94 20.5q46 0 82 -14t60 -39t36.5 -59.5
t12.5 -75.5q0 -10 -0.5 -23.5t-2.5 -25.5h-302q0 -40 9.5 -75t28 -61.5t46 -41.5t63.5 -15q29 0 55 10.5t48 29.5zM275 40q51 0 84.5 46t33.5 130q0 52 -9.5 90t-26.5 62.5t-40 36.5t-49 12q-51 0 -84 -45.5t-33 -130.5q0 -52 9.5 -90t26.5 -62.5t39.5 -36.5t48.5 -12z
M701 287q0 60 -20.5 95.5t-65.5 35.5q-35 0 -64.5 -34.5t-40.5 -96.5h191z" />
    <glyph glyph-name="Racute" unicode="&#x154;" horiz-adv-x="586" 
d="M425 0l-153 263l-74 3v-266h-122v624l218 4q61 1 105.5 -10.5t73 -33t42.5 -51.5t14 -66q0 -61 -36.5 -107.5t-102.5 -67.5l176 -292h-141zM198 570v-245q12 -2 29.5 -3t31.5 -1q62 0 101 32.5t39 91.5q0 61 -35.5 93t-106.5 32h-59zM242 699l93 177h119l-163 -177h-49z
" />
    <glyph glyph-name="racute" unicode="&#x155;" horiz-adv-x="383" 
d="M182 534l93 177h119l-163 -177h-49zM66 0v445l107 25v-89h5q40 92 121 92q35 0 64 -17l-20 -101q-14 15 -29.5 23.5t-35.5 8.5q-35 0 -64 -36t-41 -110v-241h-107z" />
    <glyph glyph-name="Rcommaaccent" unicode="&#x156;" horiz-adv-x="586" 
d="M425 0l-153 263l-74 3v-266h-122v624l218 4q61 1 105.5 -10.5t73 -33t42.5 -51.5t14 -66q0 -61 -36.5 -107.5t-102.5 -67.5l176 -292h-141zM198 570v-245q12 -2 29.5 -3t31.5 -1q62 0 101 32.5t39 91.5q0 61 -35.5 93t-106.5 32h-59zM231 -265q29 12 49.5 31.5t20.5 51.5
q0 52 -75 72q0 24 18 42t50 18q37 0 61 -27.5t24 -64.5q0 -54 -37 -93t-96 -62z" />
    <glyph glyph-name="rcommaaccent" unicode="&#x157;" horiz-adv-x="383" 
d="M54 -265q28 12 48.5 31.5t20.5 51.5q0 52 -75 72q0 24 18 42t50 18q37 0 61 -27.5t24 -64.5q0 -54 -37 -93t-96 -62zM66 0v445l107 25v-89h5q40 92 121 92q35 0 64 -17l-20 -101q-14 15 -29.5 23.5t-35.5 8.5q-35 0 -64 -36t-41 -110v-241h-107z" />
    <glyph glyph-name="Rcaron" unicode="&#x158;" horiz-adv-x="587" 
d="M425 0l-152 263l-75 3v-266h-122v624l218 4q61 1 105.5 -10.5t73.5 -33t43 -51.5t14 -66q0 -61 -37 -107.5t-103 -67.5l177 -292h-142zM198 570v-245q12 -2 29.5 -3t32.5 -1q62 0 101 32.5t39 91.5q0 61 -35.5 93t-106.5 32h-60zM244 699l-125 200h49l112 -119h5l114 119
h48l-126 -200h-77z" />
    <glyph glyph-name="rcaron" unicode="&#x159;" horiz-adv-x="383" 
d="M168 534l-125 200h49l112 -119h6l113 119h49l-126 -200h-78zM66 0v445l107 25v-89h5q40 92 121 92q35 0 64 -17l-20 -101q-14 15 -29.5 23.5t-35.5 8.5q-35 0 -64 -36t-41 -110v-241h-107z" />
    <glyph glyph-name="Sacute" unicode="&#x15a;" horiz-adv-x="545" 
d="M228 699l93 177h119l-163 -177h-49zM75 114q46 -39 89 -56t91 -17q35 0 60.5 9t42.5 23t25 32.5t8 38.5q0 21 -7.5 38t-25.5 32t-48 28.5t-75 28.5q-94 30 -140.5 73t-46.5 114q0 35 14 67.5t42 58t70.5 41t100.5 15.5q57 0 109 -11t90 -27l-27 -84q-44 36 -87 51t-92 15
q-56 0 -87.5 -26.5t-31.5 -62.5q0 -44 35 -70t112 -50q54 -17 92.5 -36.5t62.5 -43t35 -52.5t11 -65q0 -38 -16.5 -73t-48.5 -61.5t-79.5 -42.5t-108.5 -16q-52 0 -102.5 12.5t-94.5 33.5z" />
    <glyph glyph-name="sacute" unicode="&#x15b;" horiz-adv-x="431" 
d="M171 534l93 177h119l-163 -177h-49zM71 97q23 -26 55 -41.5t73 -15.5q43 0 69.5 15.5t26.5 46.5q0 26 -22.5 44.5t-81.5 37.5q-36 12 -64.5 25.5t-48 31t-30 40.5t-10.5 53q0 28 12 53.5t34.5 44.5t56 30t77.5 11q93 0 163 -38l-32 -74q-23 26 -56 41.5t-73 15.5
q-42 0 -63 -14.5t-21 -40.5q0 -24 20 -41.5t77 -36.5q41 -14 71.5 -29t50 -32.5t29 -39t9.5 -49.5q0 -30 -12.5 -57.5t-37 -48t-60.5 -32.5t-83 -12q-46 0 -87 10t-74 28z" />
    <glyph glyph-name="Scircumflex" unicode="&#x15c;" horiz-adv-x="545" 
d="M390 699l-113 119h-5l-113 -119h-49l126 200h77l126 -200h-49zM75 114q46 -39 89 -56t91 -17q35 0 60.5 9t42.5 23t25 32.5t8 38.5q0 21 -7.5 38t-25.5 32t-48 28.5t-75 28.5q-94 30 -140.5 73t-46.5 114q0 35 14 67.5t42 58t70.5 41t100.5 15.5q57 0 109 -11t90 -27
l-27 -84q-44 36 -87 51t-92 15q-56 0 -87.5 -26.5t-31.5 -62.5q0 -44 35 -70t112 -50q54 -17 92.5 -36.5t62.5 -43t35 -52.5t11 -65q0 -38 -16.5 -73t-48.5 -61.5t-79.5 -42.5t-108.5 -16q-52 0 -102.5 12.5t-94.5 33.5z" />
    <glyph glyph-name="scircumflex" unicode="&#x15d;" horiz-adv-x="431" 
d="M333 534l-112 119h-5l-113 -119h-49l126 200h77l125 -200h-49zM71 97q23 -26 55 -41.5t73 -15.5q43 0 69.5 15.5t26.5 46.5q0 26 -22.5 44.5t-81.5 37.5q-36 12 -64.5 25.5t-48 31t-30 40.5t-10.5 53q0 28 12 53.5t34.5 44.5t56 30t77.5 11q93 0 163 -38l-32 -74
q-23 26 -56 41.5t-73 15.5q-42 0 -63 -14.5t-21 -40.5q0 -24 20 -41.5t77 -36.5q41 -14 71.5 -29t50 -32.5t29 -39t9.5 -49.5q0 -30 -12.5 -57.5t-37 -48t-60.5 -32.5t-83 -12q-46 0 -87 10t-74 28z" />
    <glyph glyph-name="Scedilla" unicode="&#x15e;" horiz-adv-x="545" 
d="M166 -234q76 0 112 17t36 46q0 21 -21.5 33.5t-63.5 12.5q-17 0 -34 -1t-34 -5v31l81 85q-51 1 -101.5 13t-93.5 33l28 83q46 -39 89 -56t91 -17q35 0 60.5 9t42.5 23t25 32.5t8 38.5q0 21 -7.5 38t-25.5 32t-48 28.5t-75 28.5q-94 30 -140.5 73t-46.5 114q0 35 14 67.5
t42 58t70.5 41t100.5 15.5q57 0 109 -11t90 -27l-27 -84q-44 36 -87 51t-92 15q-56 0 -87.5 -26.5t-31.5 -62.5q0 -44 35 -70t112 -50q54 -17 92.5 -36.5t62.5 -43t35 -52.5t11 -65q0 -34 -13 -65t-37.5 -56.5t-61.5 -43t-85 -24.5l-49 -51q65 0 105.5 -24.5t40.5 -68.5
q0 -54 -58 -88t-173 -34v43z" />
    <glyph glyph-name="scedilla" unicode="&#x15f;" horiz-adv-x="431" 
d="M96 -234q76 0 112 17t36 46q0 21 -21.5 33.5t-63.5 12.5q-17 0 -34 -1t-34 -5v31l82 86q-38 3 -72 12t-62 25l32 74q23 -26 55 -41.5t73 -15.5q43 0 69.5 15.5t26.5 46.5q0 26 -22.5 44.5t-81.5 37.5q-36 12 -64.5 25.5t-48 31t-30 40.5t-10.5 53q0 28 12 53.5t34.5 44.5
t56 30t77.5 11q93 0 163 -38l-32 -74q-23 26 -56 41.5t-73 15.5q-42 0 -63 -14.5t-21 -40.5q0 -24 20 -41.5t77 -36.5q41 -14 71.5 -29t50 -32.5t29 -39t9.5 -49.5q0 -57 -42 -99t-123 -50l-47 -48q65 0 105.5 -24.5t40.5 -68.5q0 -54 -58 -88t-173 -34v43z" />
    <glyph glyph-name="Scaron" unicode="&#x160;" horiz-adv-x="545" 
d="M237 699l-125 200h49l112 -119h6l113 119h48l-125 -200h-78zM75 114q46 -39 89 -56t91 -17q35 0 60.5 9t42.5 23t25 32.5t8 38.5q0 21 -7.5 38t-25.5 32t-48 28.5t-75 28.5q-94 30 -140.5 73t-46.5 114q0 35 14 67.5t42 58t70.5 41t100.5 15.5q57 0 109 -11t90 -27
l-27 -84q-44 36 -87 51t-92 15q-56 0 -87.5 -26.5t-31.5 -62.5q0 -44 35 -70t112 -50q54 -17 92.5 -36.5t62.5 -43t35 -52.5t11 -65q0 -38 -16.5 -73t-48.5 -61.5t-79.5 -42.5t-108.5 -16q-52 0 -102.5 12.5t-94.5 33.5z" />
    <glyph glyph-name="scaron" unicode="&#x161;" horiz-adv-x="431" 
d="M180 534l-126 200h49l113 -119h5l113 119h49l-126 -200h-77zM71 97q23 -26 55 -41.5t73 -15.5q43 0 69.5 15.5t26.5 46.5q0 26 -22.5 44.5t-81.5 37.5q-36 12 -64.5 25.5t-48 31t-30 40.5t-10.5 53q0 28 12 53.5t34.5 44.5t56 30t77.5 11q93 0 163 -38l-32 -74
q-23 26 -56 41.5t-73 15.5q-42 0 -63 -14.5t-21 -40.5q0 -24 20 -41.5t77 -36.5q41 -14 71.5 -29t50 -32.5t29 -39t9.5 -49.5q0 -30 -12.5 -57.5t-37 -48t-60.5 -32.5t-83 -12q-46 0 -87 10t-74 28z" />
    <glyph glyph-name="Tcommaaccent" unicode="&#x162;" horiz-adv-x="579" 
d="M223 -264q28 11 48.5 31t20.5 51q0 53 -74 73q0 24 18 41.5t50 17.5q18 0 33.5 -7.5t27 -20t18 -29.5t6.5 -35q0 -53 -37.5 -92t-95.5 -62zM229 0v567q-36 -1 -65 -2.5t-53 -4.5t-44 -7.5t-39 -11.5v84h523v-84q-19 7 -39 11.5t-43.5 7.5t-52.5 4.5t-65 2.5v-567h-122z
" />
    <glyph glyph-name="tcommaaccent" unicode="&#x163;" horiz-adv-x="368" 
d="M143 -265q28 12 49 31.5t21 51.5q0 27 -19.5 44.5t-55.5 27.5q0 24 18 42t50 18q18 0 33.5 -7.5t27 -20t18 -29.5t6.5 -35q0 -54 -37 -93t-96 -62zM351 42q-28 -28 -58 -42.5t-76 -14.5q-63 0 -94.5 36t-31.5 115v264h-73v58h73v131l107 26v-157h140v-58h-140v-272
q0 -45 14.5 -61.5t40.5 -16.5q20 0 37.5 11t36.5 30z" />
    <glyph glyph-name="Tcaron" unicode="&#x164;" horiz-adv-x="579" 
d="M251 699l-125 200h49l112 -119h5l114 119h48l-126 -200h-77zM229 0v567q-36 -1 -65 -2.5t-53 -4.5t-44 -7.5t-39 -11.5v84h523v-84q-19 7 -39 11.5t-43.5 7.5t-52.5 4.5t-65 2.5v-567h-122z" />
    <glyph glyph-name="tcaron" unicode="&#x165;" horiz-adv-x="440" 
d="M294 529q30 16 50.5 36t20.5 53q0 28 -18 46t-54 30q0 23 17.5 41t49.5 18q18 0 33.5 -7.5t27 -20t18 -29.5t6.5 -35q0 -53 -37 -95.5t-95 -68.5zM351 42q-28 -28 -58 -42.5t-76 -14.5q-63 0 -94.5 36t-31.5 115v264h-73v58h73v131l107 26v-157h140v-58h-140v-272
q0 -45 14.5 -61.5t40.5 -16.5q20 0 37.5 11t36.5 30z" />
    <glyph glyph-name="Umacron" unicode="&#x16a;" horiz-adv-x="637" 
d="M503 625h62v-404q0 -56 -17.5 -100t-50 -74t-78 -46t-101.5 -16t-101 15t-77.5 45t-50 75.5t-17.5 106.5v398h122v-375q0 -101 42.5 -145t114.5 -44q74 0 113 46.5t39 130.5v387zM202 744v56h279v-56h-279z" />
    <glyph glyph-name="umacron" unicode="&#x16b;" horiz-adv-x="528" 
d="M126 587v56h278v-56h-278zM354 0v62h-5q-37 -38 -75.5 -57.5t-83.5 -19.5q-34 0 -58.5 11.5t-40 32t-22.5 48t-7 59.5v322h107v-283q0 -54 19 -78t61 -24q29 0 57 19.5t48 44.5v321h108v-458h-108z" />
    <glyph glyph-name="Ubreve" unicode="&#x16c;" horiz-adv-x="637" 
d="M503 625h62v-404q0 -56 -17.5 -100t-50 -74t-78 -46t-101.5 -16t-101 15t-77.5 45t-50 75.5t-17.5 106.5v398h122v-375q0 -101 42.5 -145t114.5 -44q74 0 113 46.5t39 130.5v387zM491 865q-3 -44 -15.5 -76t-33 -52t-47.5 -29.5t-57 -9.5t-57 9.5t-47.5 29.5t-33.5 52
t-16 76h52q10 -54 33.5 -76t68.5 -22t68.5 22t33.5 76h51z" />
    <glyph glyph-name="ubreve" unicode="&#x16d;" horiz-adv-x="528" 
d="M418 711q-3 -44 -15.5 -76t-33 -52t-47.5 -29.5t-57 -9.5t-57 9.5t-47.5 29.5t-33 52t-15.5 76h51q10 -54 33.5 -76t68.5 -22q44 0 68 22.5t34 75.5h51zM354 0v62h-5q-37 -38 -75.5 -57.5t-83.5 -19.5q-34 0 -58.5 11.5t-40 32t-22.5 48t-7 59.5v322h107v-283
q0 -54 19 -78t61 -24q29 0 57 19.5t48 44.5v321h108v-458h-108z" />
    <glyph glyph-name="Uring" unicode="&#x16e;" horiz-adv-x="637" 
d="M503 625h62v-404q0 -56 -17.5 -100t-50 -74t-78 -46t-101.5 -16t-101 15t-77.5 45t-50 75.5t-17.5 106.5v398h122v-375q0 -101 42.5 -145t114.5 -44q74 0 113 46.5t39 130.5v387zM345 684q-53 0 -82.5 33.5t-29.5 79.5t29.5 79.5t82.5 33.5q26 0 46.5 -9t35 -24.5
t22.5 -36t8 -43.5t-8 -43.5t-22.5 -36t-35 -24.5t-46.5 -9zM345 728q31 0 48 21.5t17 47.5t-17 47.5t-48 21.5t-48.5 -21.5t-17.5 -47.5t17.5 -47.5t48.5 -21.5z" />
    <glyph glyph-name="uring" unicode="&#x16f;" horiz-adv-x="528" 
d="M265 522q-26 0 -46.5 9t-35 24.5t-22.5 36t-8 43.5t8 43.5t22.5 36t35 24.5t46.5 9t46.5 -9t35 -24.5t22.5 -36t8 -43.5t-8 -43.5t-22.5 -36t-35 -24.5t-46.5 -9zM265 566q31 0 48 21.5t17 47.5t-17 47.5t-48 21.5t-48.5 -21.5t-17.5 -47.5t17.5 -47.5t48.5 -21.5zM354 0
v62h-5q-37 -38 -75.5 -57.5t-83.5 -19.5q-34 0 -58.5 11.5t-40 32t-22.5 48t-7 59.5v322h107v-283q0 -54 19 -78t61 -24q29 0 57 19.5t48 44.5v321h108v-458h-108z" />
    <glyph glyph-name="Uhungarumlaut" unicode="&#x170;" horiz-adv-x="637" 
d="M503 625h62v-404q0 -56 -17.5 -100t-50 -74t-78 -46t-101.5 -16t-101 15t-77.5 45t-50 75.5t-17.5 106.5v398h122v-375q0 -101 42.5 -145t114.5 -44q74 0 113 46.5t39 130.5v387zM225 699l88 177h117l-159 -177h-46zM395 699l88 177h117l-158 -177h-47z" />
    <glyph glyph-name="uhungarumlaut" unicode="&#x171;" horiz-adv-x="528" 
d="M150 534l89 177h116l-158 -177h-47zM320 534l89 177h116l-158 -177h-47zM354 0v62h-5q-37 -38 -75.5 -57.5t-83.5 -19.5q-34 0 -58.5 11.5t-40 32t-22.5 48t-7 59.5v322h107v-283q0 -54 19 -78t61 -24q29 0 57 19.5t48 44.5v321h108v-458h-108z" />
    <glyph glyph-name="Uogonek" unicode="&#x172;" horiz-adv-x="637" 
d="M502 -186q-17 -26 -46 -43t-73 -17q-50 0 -79 27t-29 75q0 33 22 67.5t62 63.5q-9 -1 -19.5 -1.5t-21.5 -0.5q-56 0 -101 15t-77.5 45t-50 75.5t-17.5 106.5v398h122v-375q0 -101 42.5 -145t114.5 -44q74 0 113 46.5t39 130.5v387h62v-404q0 -72 -28 -123t-78 -80
q-45 -28 -72 -67t-27 -74q0 -28 15 -45.5t44 -17.5q20 0 36.5 10t27.5 23z" />
    <glyph glyph-name="uogonek" unicode="&#x173;" horiz-adv-x="528" 
d="M530 -186q-17 -26 -46.5 -43t-72.5 -17q-51 0 -80 27t-29 75q0 37 27 75t76 69h-51v62h-5q-37 -38 -75.5 -57.5t-83.5 -19.5q-34 0 -58.5 11.5t-40 32t-22.5 48t-7 59.5v322h107v-283q0 -54 19 -78t61 -24q29 0 57 19.5t48 44.5v321h108v-458q-39 -33 -56.5 -64
t-17.5 -59t14.5 -45.5t43.5 -17.5q21 0 37.5 10t27.5 23z" />
    <glyph glyph-name="Wcircumflex" unicode="&#x174;" horiz-adv-x="888" 
d="M579 -3l-133 380h-5l-132 -380h-90l-201 628h129l147 -489h6l114 335l-53 154h127l160 -489h5l153 489h64l-201 -628h-90zM560 699l-113 119h-5l-113 -119h-49l126 200h77l126 -200h-49z" />
    <glyph glyph-name="wcircumflex" unicode="&#x175;" horiz-adv-x="728" 
d="M471 -3l-107 289l-109 -289h-70l-165 461h118l114 -335l86 232l-38 103h115l118 -336l115 336h60l-167 -461h-70zM496 534l-113 118h-5l-113 -118h-49l126 200h77l126 -200h-49z" />
    <glyph glyph-name="Ycircumflex" unicode="&#x176;" horiz-adv-x="584" 
d="M232 0v261l-214 364h136l166 -290h10l168 290h68l-212 -363v-262h-122zM431 699l-112 119h-5l-114 -119h-48l126 200h77l125 -200h-49z" />
    <glyph glyph-name="ycircumflex" unicode="&#x177;" horiz-adv-x="481" 
d="M365 534l-113 119h-5l-113 -119h-49l126 200h77l126 -200h-49zM227 -16l-207 474h119l139 -338l123 338h60l-226 -600q-44 -119 -134 -119q-17 0 -37.5 3.5t-32.5 11.5l22 97q14 -18 27.5 -29.5t34.5 -11.5q25 0 42.5 16t31.5 54z" />
    <glyph glyph-name="Ydieresis" unicode="&#x178;" horiz-adv-x="584" 
d="M232 0v261l-214 364h136l166 -290h10l168 290h68l-212 -363v-262h-122zM214 715q-27 0 -45 19.5t-18 45.5t18 46t45 20q28 0 45 -20t17 -46t-17 -45.5t-45 -19.5zM420 715q-27 0 -44.5 19.5t-17.5 45.5t17.5 46t44.5 20q28 0 45.5 -20t17.5 -46t-17.5 -45.5t-45.5 -19.5z
" />
    <glyph glyph-name="Zacute" unicode="&#x179;" horiz-adv-x="566" 
d="M226 699l93 177h119l-163 -177h-49zM30 0v45l357 520v2h-147q-34 0 -60.5 -1.5t-48.5 -4.5t-41 -8t-38 -12v84h484v-47l-358 -519v-2h153q33 0 59.5 1.5t48.5 4.5t41 8t38 12v-83h-488z" />
    <glyph glyph-name="zacute" unicode="&#x17a;" horiz-adv-x="466" 
d="M187 534l93 177h119l-163 -177h-49zM34 0v40l264 367h-80q-51 0 -92 -7t-73 -20v78h379v-40l-264 -368h93q52 0 92.5 7.5t72.5 19.5v-77h-392z" />
    <glyph glyph-name="Zdotaccent" unicode="&#x17b;" horiz-adv-x="566" 
d="M278 716q-28 0 -45.5 20t-17.5 46q0 27 17.5 47t45.5 20q29 0 47 -20t18 -47q0 -26 -18 -46t-47 -20zM30 0v45l357 520v2h-147q-34 0 -60.5 -1.5t-48.5 -4.5t-41 -8t-38 -12v84h484v-47l-358 -519v-2h153q33 0 59.5 1.5t48.5 4.5t41 8t38 12v-83h-488z" />
    <glyph glyph-name="zdotaccent" unicode="&#x17c;" horiz-adv-x="466" 
d="M234 554q-29 0 -46.5 20t-17.5 46q0 28 17.5 47.5t46.5 19.5q28 0 46 -19.5t18 -47.5q0 -26 -18 -46t-46 -20zM34 0v40l264 367h-80q-51 0 -92 -7t-73 -20v78h379v-40l-264 -368h93q52 0 92.5 7.5t72.5 19.5v-77h-392z" />
    <glyph glyph-name="Zcaron" unicode="&#x17d;" horiz-adv-x="566" 
d="M244 699l-126 200h49l113 -119h5l113 119h49l-126 -200h-77zM30 0v45l357 520v2h-147q-34 0 -60.5 -1.5t-48.5 -4.5t-41 -8t-38 -12v84h484v-47l-358 -519v-2h153q33 0 59.5 1.5t48.5 4.5t41 8t38 12v-83h-488z" />
    <glyph glyph-name="zcaron" unicode="&#x17e;" horiz-adv-x="466" 
d="M195 534l-125 200h49l112 -119h5l114 119h48l-126 -200h-77zM34 0v40l264 367h-80q-51 0 -92 -7t-73 -20v78h379v-40l-264 -368h93q52 0 92.5 7.5t72.5 19.5v-77h-392z" />
    <glyph glyph-name="florin" unicode="&#x192;" horiz-adv-x="584" 
d="M346 331l-26 -158q-15 -92 -60.5 -140t-120.5 -48q-30 0 -62 8t-61 27l36 76q18 -29 36 -42.5t41 -13.5q32 0 50.5 25.5t27.5 80.5l31 185h-85v54h94l10 57q17 100 61 149t124 49q67 0 126 -37l-36 -75q-35 56 -79 56q-32 0 -52.5 -25.5t-29.5 -80.5l-16 -93h127v-54
h-136z" />
    <glyph glyph-name="Aringacute" unicode="&#x1fa;" horiz-adv-x="580" 
d="M254 829l93 177h119l-163 -177h-49zM433 0l-63 190h-224l-63 -190h-65l204 595q-44 33 -44 92q0 46 30 79t82 33q53 0 82.5 -33t29.5 -79q0 -57 -42 -90l202 -597h-129zM264 518h-9l-90 -273h186zM290 618q31 0 48 21.5t17 47.5t-17 47t-48 21t-48 -21t-17 -47t17 -47.5
t48 -21.5z" />
    <glyph glyph-name="aringacute" unicode="&#x1fb;" horiz-adv-x="480" 
d="M243 522q-53 0 -82.5 33t-29.5 80q0 46 29.5 79.5t82.5 33.5q26 0 46.5 -9t35 -24.5t22 -36t7.5 -43.5q0 -47 -29.5 -80t-81.5 -33zM243 566q30 0 47 21.5t17 47.5t-17 47.5t-47 21.5q-31 0 -48.5 -21.5t-17.5 -47.5t17.5 -47.5t48.5 -21.5zM212 781l93 177h119
l-163 -177h-49zM310 0v63h-4q-25 -37 -60 -57.5t-86 -20.5q-25 0 -47.5 9t-39.5 25t-27 39t-10 50q0 36 16.5 63t48.5 48.5t78 38.5t106 31l25 6v21q0 54 -17 77.5t-62 23.5q-32 0 -64.5 -20.5t-61.5 -60.5l-44 67q49 38 93.5 54t101.5 16q87 0 124.5 -45.5t37.5 -145.5
v-282h-108zM310 246l-24 -7q-77 -23 -109 -50t-32 -59t18.5 -49t45.5 -17q32 0 58 17.5t43 42.5v122z" />
    <glyph glyph-name="AEacute" unicode="&#x1fc;" horiz-adv-x="860" 
d="M497 699l93 177h119l-163 -177h-49zM405 0v202h-212l-114 -202h-71l349 625h455v-83q-17 6 -35 10.5t-40 8t-50 5t-66 1.5h-94v-223h202v-56h-202v-230h94q38 0 66 1.5t50 5t40 8t35 10.5v-83h-407zM405 570h-7l-176 -314h183v314z" />
    <glyph glyph-name="aeacute" unicode="&#x1fd;" horiz-adv-x="755" 
d="M358 534l93 177h119l-163 -177h-49zM254 229q-60 -20 -84.5 -45t-24.5 -54q0 -32 18.5 -49t44.5 -17q35 0 60.5 18t44.5 48q-7 20 -10.5 39.5t-4.5 42.5v16t1 16zM609 287q0 60 -21 95.5t-66 35.5q-35 0 -64.5 -34.5t-40.5 -96.5h192zM691 38q-30 -25 -68.5 -39
t-93.5 -14q-65 0 -114.5 26.5t-78.5 74.5q-29 -47 -71.5 -74t-101.5 -27q-26 0 -49.5 9t-40.5 25t-27 38.5t-10 50.5q0 70 64 111t183 70l25 6q6 66 -14.5 94t-66.5 28q-32 0 -66.5 -20.5t-60.5 -59.5l-44 64q50 39 93.5 55.5t99.5 16.5q93 0 131 -57q29 27 66.5 42t80.5 15
q50 0 86 -15.5t59.5 -42.5t35 -63.5t11.5 -78.5q-1 -9 -1 -18t-2 -19h-302q0 -41 9.5 -76t28 -61t46 -41t64.5 -15q29 0 54.5 10.5t47.5 29.5z" />
    <glyph glyph-name="Oslashacute" unicode="&#x1fe;" horiz-adv-x="741" 
d="M122 -71l61 105q-68 42 -105.5 112t-37.5 161q0 71 26 132t71 105.5t105.5 70t129.5 25.5q41 0 77.5 -7.5t68.5 -21.5l46 80h55l-59 -102q66 -42 103.5 -111.5t37.5 -160.5q0 -71 -26.5 -132t-71.5 -105.5t-105.5 -69.5t-129.5 -25q-80 0 -143 27l-48 -83h-55zM479 544
q-49 40 -112 40q-41 0 -77 -17t-62.5 -50.5t-42 -83t-15.5 -114.5q0 -67 16 -118.5t43 -86.5zM263 78q47 -38 110 -38q41 0 77 17t63 50.5t42.5 83t15.5 114.5q0 66 -16 117t-43 87zM360 699l93 177h119l-163 -177h-49z" />
    <glyph glyph-name="oslashacute" unicode="&#x1ff;" horiz-adv-x="544" 
d="M51 -112l79 136q-46 32 -70 83t-24 116q0 53 17.5 99t49.5 79.5t77 52.5t100 19q54 0 98 -19l79 136l36 -19l-79 -137q46 -31 70.5 -82.5t24.5 -116.5q0 -53 -17.5 -99t-49.5 -79.5t-77 -52.5t-100 -19q-53 0 -99 19l-79 -136zM341 389q-32 29 -72 29q-51 0 -84.5 -46
t-33.5 -130q0 -44 7 -77.5t20 -57.5zM203 70q30 -29 73 -29q51 0 84.5 45.5t33.5 130.5q0 44 -7.5 77.5t-20.5 57.5zM246 534l93 177h119l-163 -177h-49z" />
    <glyph glyph-name="Scommaaccent" unicode="&#x218;" horiz-adv-x="545" 
d="M201 -265q28 12 48.5 31.5t20.5 51.5q0 52 -75 72q0 24 18 42t50 18q37 0 61 -27.5t24 -64.5q0 -54 -37 -93t-96 -62zM75 114q46 -39 89 -56t91 -17q35 0 60.5 9t42.5 23t25 32.5t8 38.5q0 21 -7.5 38t-25.5 32t-48 28.5t-75 28.5q-94 30 -140.5 73t-46.5 114
q0 35 14 67.5t42 58t70.5 41t100.5 15.5q57 0 109 -11t90 -27l-27 -84q-44 36 -87 51t-92 15q-56 0 -87.5 -26.5t-31.5 -62.5q0 -44 35 -70t112 -50q54 -17 92.5 -36.5t62.5 -43t35 -52.5t11 -65q0 -38 -16.5 -73t-48.5 -61.5t-79.5 -42.5t-108.5 -16q-52 0 -102.5 12.5
t-94.5 33.5z" />
    <glyph glyph-name="scommaaccent" unicode="&#x219;" horiz-adv-x="431" 
d="M148 -265q28 12 48.5 31.5t20.5 51.5q0 52 -74 72q0 24 18 42t50 18q18 0 33.5 -7.5t26.5 -20t17.5 -29.5t6.5 -35q0 -54 -37 -93t-95 -62zM71 97q23 -26 55 -41.5t73 -15.5q43 0 69.5 15.5t26.5 46.5q0 26 -22.5 44.5t-81.5 37.5q-36 12 -64.5 25.5t-48 31t-30 40.5
t-10.5 53q0 28 12 53.5t34.5 44.5t56 30t77.5 11q93 0 163 -38l-32 -74q-23 26 -56 41.5t-73 15.5q-42 0 -63 -14.5t-21 -40.5q0 -24 20 -41.5t77 -36.5q41 -14 71.5 -29t50 -32.5t29 -39t9.5 -49.5q0 -30 -12.5 -57.5t-37 -48t-60.5 -32.5t-83 -12q-46 0 -87 10t-74 28z
" />
    <glyph glyph-name="uni021A" unicode="&#x21a;" horiz-adv-x="579" 
d="M224 -264q28 11 48.5 31t20.5 51q0 53 -74 73q0 24 18 41.5t50 17.5q18 0 33.5 -7.5t27 -20t18 -29.5t6.5 -35q0 -53 -37.5 -92t-95.5 -62zM229 0v567q-36 -1 -65 -2.5t-53 -4.5t-44 -7.5t-39 -11.5v84h523v-84q-19 7 -39 11.5t-43.5 7.5t-52.5 4.5t-65 2.5v-567h-122z
" />
    <glyph glyph-name="uni021B" unicode="&#x21b;" horiz-adv-x="368" 
d="M143 -265q28 12 49 31.5t21 51.5q0 27 -19.5 44.5t-55.5 27.5q0 24 18 42t50 18q18 0 33.5 -7.5t27 -20t18 -29.5t6.5 -35q0 -54 -37 -93t-96 -62zM351 42q-28 -28 -58 -42.5t-76 -14.5q-63 0 -94.5 36t-31.5 115v264h-73v58h73v131l107 26v-157h140v-58h-140v-272
q0 -45 14.5 -61.5t40.5 -16.5q20 0 37.5 11t36.5 30z" />
    <glyph glyph-name="uni0237" unicode="&#x237;" horiz-adv-x="242" 
d="M67 445l108 25v-488q0 -123 -43.5 -183.5t-140.5 -60.5q-17 0 -42 5t-40 13l19 83q15 -19 32.5 -32t37.5 -13q32 0 50.5 21.5t18.5 71.5v558z" />
    <glyph glyph-name="circumflex" unicode="&#x2c6;" horiz-adv-x="417" 
d="M324 534l-113 119h-5l-113 -119h-49l126 200h77l126 -200h-49z" />
    <glyph glyph-name="caron" unicode="&#x2c7;" horiz-adv-x="417" 
d="M170 534l-125 200h49l112 -119h5l114 119h48l-126 -200h-77z" />
    <glyph glyph-name="breve" unicode="&#x2d8;" horiz-adv-x="417" 
d="M362 711q-3 -44 -15.5 -76t-33 -52t-47.5 -29.5t-58 -9.5q-30 0 -57 9.5t-47.5 29.5t-33 52t-15.5 76h52q9 -54 33 -76t68 -22q45 0 68.5 22t33.5 76h52z" />
    <glyph glyph-name="dotaccent" unicode="&#x2d9;" horiz-adv-x="417" 
d="M208 552q-28 0 -45.5 20t-17.5 46q0 28 17.5 47.5t45.5 19.5q29 0 46.5 -19.5t17.5 -47.5q0 -26 -17.5 -46t-46.5 -20z" />
    <glyph glyph-name="ring" unicode="&#x2da;" horiz-adv-x="417" 
d="M208 522q-26 0 -46.5 9t-35 24.5t-22 36t-7.5 43.5t7.5 43.5t22 36t35 24.5t46.5 9q53 0 82.5 -33.5t29.5 -79.5t-29.5 -79.5t-82.5 -33.5zM208 566q31 0 48 21.5t17 47.5t-17 47.5t-48 21.5q-30 0 -47.5 -21.5t-17.5 -47.5t17.5 -47.5t47.5 -21.5z" />
    <glyph glyph-name="ogonek" unicode="&#x2db;" horiz-adv-x="417" 
d="M353 -186q-17 -26 -46.5 -43t-72.5 -17q-51 0 -80 27t-29 75q0 44 37 88.5t103 76.5h51q-51 -31 -78 -70t-27 -74q0 -28 14.5 -45.5t43.5 -17.5q21 0 37.5 10t27.5 23z" />
    <glyph glyph-name="tilde" unicode="&#x2dc;" horiz-adv-x="417" 
d="M386 689q-8 -68 -34.5 -101t-76.5 -33q-23 0 -43.5 11t-38.5 24.5t-33.5 25t-29.5 11.5q-20 0 -31.5 -14.5t-19.5 -48.5h-49q10 68 36.5 101t74.5 33q23 0 43.5 -11.5t38.5 -25t33.5 -24.5t29.5 -11q20 0 33 14.5t21 48.5h46z" />
    <glyph glyph-name="hungarumlaut" unicode="&#x2dd;" horiz-adv-x="417" 
d="M88 534l89 177h116l-158 -177h-47zM258 534l89 177h116l-158 -177h-47z" />
    <glyph glyph-name="Wgrave" unicode="&#x1e80;" horiz-adv-x="888" 
d="M579 -3l-133 380h-5l-132 -380h-90l-201 628h129l147 -489h6l114 335l-53 154h127l160 -489h5l153 489h64l-201 -628h-90zM409 699l-163 177h119l93 -177h-49z" />
    <glyph glyph-name="wgrave" unicode="&#x1e81;" horiz-adv-x="728" 
d="M471 -3l-107 289l-109 -289h-70l-165 461h118l114 -335l86 232l-38 103h115l118 -336l115 336h60l-167 -461h-70zM336 534l-163 177h119l94 -177h-50z" />
    <glyph glyph-name="Wacute" unicode="&#x1e82;" horiz-adv-x="888" 
d="M579 -3l-133 380h-5l-132 -380h-90l-201 628h129l147 -489h6l114 335l-53 154h127l160 -489h5l153 489h64l-201 -628h-90zM373 699l93 177h119l-163 -177h-49z" />
    <glyph glyph-name="wacute" unicode="&#x1e83;" horiz-adv-x="728" 
d="M471 -3l-107 289l-109 -289h-70l-165 461h118l114 -335l86 232l-38 103h115l118 -336l115 336h60l-167 -461h-70zM329 534l93 177h119l-163 -177h-49z" />
    <glyph glyph-name="Wdieresis" unicode="&#x1e84;" horiz-adv-x="888" 
d="M579 -3l-133 380h-5l-132 -380h-90l-201 628h129l147 -489h6l114 335l-53 154h127l160 -489h5l153 489h64l-201 -628h-90zM341 715q-28 0 -45.5 19.5t-17.5 45.5t17.5 46t45.5 20t45 -20t17 -46t-17 -45.5t-45 -19.5zM547 715q-28 0 -45.5 19.5t-17.5 45.5t17.5 46
t45.5 20t45.5 -20t17.5 -46t-17.5 -45.5t-45.5 -19.5z" />
    <glyph glyph-name="wdieresis" unicode="&#x1e85;" horiz-adv-x="728" 
d="M471 -3l-107 289l-109 -289h-70l-165 461h118l114 -335l86 232l-38 103h115l118 -336l115 336h60l-167 -461h-70zM267 552q-28 0 -45.5 19.5t-17.5 45.5t17.5 45.5t45.5 19.5t45 -19.5t17 -45.5t-17 -45.5t-45 -19.5zM473 552q-28 0 -45 19.5t-17 45.5t17 45.5t45 19.5
t45.5 -19.5t17.5 -45.5t-17.5 -45.5t-45.5 -19.5z" />
    <glyph glyph-name="uni2009" unicode="&#x2009;" horiz-adv-x="118" 
 />
    <glyph glyph-name="endash" unicode="&#x2013;" horiz-adv-x="492" 
d="M51 231v60h389v-60h-389z" />
    <glyph glyph-name="emdash" unicode="&#x2014;" horiz-adv-x="940" 
d="M51 231v60h837v-60h-837z" />
    <glyph glyph-name="quoteleft" unicode="&#x2018;" horiz-adv-x="247" 
d="M209 639q-39 -29 -61.5 -60.5t-22.5 -69.5q0 -59 82 -90q0 -27 -20.5 -48t-56.5 -21q-20 0 -38 8.5t-31.5 23.5t-21.5 34.5t-8 42.5q0 33 12 62t32.5 55t48.5 50t61 45z" />
    <glyph glyph-name="quoteright" unicode="&#x2019;" horiz-adv-x="247" 
d="M38 370q39 28 61.5 60t22.5 70q0 59 -82 89q0 28 20.5 49t56.5 21q20 0 38 -8.5t31.5 -23.5t21.5 -35t8 -43q0 -32 -12 -61t-32.5 -55.5t-48.5 -50t-61 -44.5z" />
    <glyph glyph-name="quotesinglbase" unicode="&#x201a;" horiz-adv-x="237" 
d="M35 -159q38 28 61 60t23 70q0 59 -82 89q0 28 20 49t56 21q20 0 38 -8.5t31.5 -23.5t21.5 -35t8 -43q0 -32 -11.5 -61t-32 -55.5t-48.5 -50t-61 -44.5z" />
    <glyph glyph-name="quotedblleft" unicode="&#x201c;" horiz-adv-x="468" 
d="M430 639q-39 -29 -62 -60.5t-23 -69.5q0 -31 20.5 -52.5t62.5 -37.5q0 -27 -20.5 -48t-56.5 -21q-20 0 -38 8.5t-31.5 23.5t-21.5 34.5t-8 42.5q0 33 12 62t32.5 55t48.5 50t61 45zM209 639q-39 -29 -61.5 -60.5t-22.5 -69.5q0 -59 82 -90q0 -27 -20.5 -48t-56.5 -21
q-20 0 -38 8.5t-31.5 23.5t-21.5 34.5t-8 42.5q0 33 12 62t32.5 55t48.5 50t61 45z" />
    <glyph glyph-name="quotedblright" unicode="&#x201d;" horiz-adv-x="468" 
d="M38 370q39 28 61.5 60t22.5 70q0 59 -82 89q0 28 20.5 49t56.5 21q20 0 38 -8.5t31.5 -23.5t21.5 -35t8 -43q0 -32 -12 -61t-32.5 -55.5t-48.5 -50t-61 -44.5zM259 370q38 28 61 60t23 70q0 59 -82 89q0 28 20 49t57 21q20 0 38 -8.5t31.5 -23.5t21.5 -35t8 -43
q0 -32 -12 -61t-32.5 -55.5t-48.5 -50t-61 -44.5z" />
    <glyph glyph-name="quotedblbase" unicode="&#x201e;" horiz-adv-x="462" 
d="M38 -160q39 29 61.5 61t22.5 70q0 58 -82 89q0 27 20.5 48t56.5 21q20 0 38 -8.5t31.5 -23t21.5 -34.5t8 -43q0 -32 -12 -61.5t-32.5 -55.5t-48.5 -50t-61 -45zM259 -160q38 29 61 61t23 70q0 58 -82 89q0 27 20 48t57 21q20 0 38 -8.5t31.5 -23t21.5 -34.5t8 -43
q0 -32 -12 -61.5t-32.5 -55.5t-48.5 -50t-61 -45z" />
    <glyph glyph-name="dagger" unicode="&#x2020;" horiz-adv-x="470" 
d="M202 -156v557h-162v57h162v167h66v-167h161v-57h-161v-557h-66z" />
    <glyph glyph-name="daggerdbl" unicode="&#x2021;" horiz-adv-x="470" 
d="M202 -156v176h-162v57h162v324h-162v57h162v167h66v-167h161v-57h-161v-324h161v-57h-161v-176h-66z" />
    <glyph glyph-name="bullet" unicode="&#x2022;" horiz-adv-x="455" 
d="M228 46q-38 0 -72 14.5t-59 39.5t-39.5 59t-14.5 72t14.5 72t39.5 59t59 39.5t72 14.5t72 -14.5t59 -39.5t39.5 -59t14.5 -72t-14.5 -72t-39.5 -59t-59 -39.5t-72 -14.5z" />
    <glyph glyph-name="ellipsis" unicode="&#x2026;" horiz-adv-x="687" 
d="M645 58q0 -30 -21.5 -51.5t-51.5 -21.5q-31 0 -52 21t-21 52q0 30 21 52t52 22q30 0 51.5 -22t21.5 -52zM417 58q0 -30 -21.5 -51.5t-51.5 -21.5q-31 0 -52 21t-21 52q0 30 21 52t52 22q30 0 51.5 -22t21.5 -52zM189 58q0 -30 -21.5 -51.5t-51.5 -21.5q-31 0 -52 21
t-21 52q0 30 21 52t52 22q30 0 51.5 -22t21.5 -52z" />
    <glyph glyph-name="perthousand" unicode="&#x2030;" horiz-adv-x="1055" 
d="M83 0l484 625h60l-484 -625h-60zM177 337q-36 0 -64 12.5t-47 34t-29 49.5t-10 60q0 31 10 59.5t29 50.5t47 34.5t64 12.5t63.5 -12.5t46.5 -34.5t29 -50.5t10 -59.5q0 -32 -10 -60t-29 -49.5t-46.5 -34t-63.5 -12.5zM177 382q23 0 42 25t19 86t-19 86t-42 25t-42 -25
t-19 -86t19 -86t42 -25zM536 -24q-36 0 -64 12.5t-47 33.5t-29 49t-10 60q0 31 10 59.5t29 50.5t47 34.5t64 12.5t64 -12.5t47 -34.5t29 -50.5t10 -59.5q0 -32 -10 -60t-29 -49t-47 -33.5t-64 -12.5zM536 20q24 0 42.5 25.5t18.5 85.5q0 61 -18.5 86.5t-42.5 25.5
q-23 0 -42 -25.5t-19 -86.5q0 -60 19 -85.5t42 -25.5zM878 -24q-36 0 -64 12.5t-47.5 33.5t-29.5 49t-10 60q0 31 10 59.5t29.5 50.5t47.5 34.5t64 12.5t63.5 -12.5t46.5 -34.5t29 -50.5t10 -59.5q0 -32 -10 -60t-29 -49t-46.5 -33.5t-63.5 -12.5zM878 20q23 0 41.5 25.5
t18.5 85.5q0 61 -18.5 86.5t-41.5 25.5q-24 0 -42.5 -25.5t-18.5 -86.5q0 -60 18.5 -85.5t42.5 -25.5z" />
    <glyph glyph-name="guilsinglleft" unicode="&#x2039;" horiz-adv-x="338" 
d="M31 226v57l245 173l22 -30l-163 -171l163 -171l-22 -30z" />
    <glyph glyph-name="guilsinglright" unicode="&#x203a;" horiz-adv-x="338" 
d="M62 54l-23 30l163 171l-163 171l23 30l244 -173v-57z" />
    <glyph glyph-name="fraction" unicode="&#x2044;" horiz-adv-x="478" 
d="M-26 -15l469 655h61l-469 -655h-61z" />
    <glyph glyph-name="uni2070" unicode="&#x2070;" horiz-adv-x="350" 
d="M174 264q-66 0 -107 48.5t-41 145.5q0 47 11 84.5t30.5 63.5t47 40t60.5 14q66 0 107.5 -49t41.5 -146q0 -94 -41.5 -147.5t-108.5 -53.5zM176 307q14 0 25 7t18 24t10.5 45.5t3.5 72.5q0 90 -14.5 125t-45.5 35q-15 0 -25.5 -6.5t-17.5 -23.5t-10.5 -45.5t-3.5 -72.5
q0 -45 3.5 -76t11 -50t18.5 -27t27 -8z" />
    <glyph glyph-name="uni2074" unicode="&#x2074;" horiz-adv-x="350" 
d="M192 273v81h-166l-8 50l192 250h67v-241h54v-59h-54v-81h-85zM192 567l-118 -154h118v154z" />
    <glyph glyph-name="uni2075" unicode="&#x2075;" horiz-adv-x="350" 
d="M64 355q17 -24 38.5 -37t53.5 -13q36 0 52 17t16 44q0 15 -8.5 30t-28.5 27.5t-53 21.5t-82 13l42 193h208v-72h-181l-10 -51q54 -6 91 -19.5t59.5 -32t32 -41t9.5 -46.5q0 -25 -10.5 -48t-30 -40.5t-47 -28t-62.5 -10.5q-41 0 -71 11t-51 27z" />
    <glyph glyph-name="uni2076" unicode="&#x2076;" horiz-adv-x="350" 
d="M121 481q23 16 47 22.5t46 6.5q46 0 77 -30t31 -84q0 -29 -11.5 -53.5t-31 -42.5t-46.5 -28t-57 -10q-67 0 -107 44t-40 114q0 49 19.5 91t54.5 74.5t83.5 53t107.5 25.5l8 -40q-39 -6 -70 -19t-54 -31.5t-38 -41t-22 -47.5zM119 440q0 -2 -1 -10.5t-1 -22.5
q0 -45 16.5 -74.5t46.5 -29.5q24 0 39.5 20t15.5 57t-19 55.5t-47 18.5q-15 0 -28.5 -4.5t-21.5 -9.5z" />
    <glyph glyph-name="uni2077" unicode="&#x2077;" horiz-adv-x="350" 
d="M76 267l167 312h-205v72h280l5 -29l-182 -355h-65z" />
    <glyph glyph-name="uni2078" unicode="&#x2078;" horiz-adv-x="350" 
d="M97 454q-28 15 -46.5 36.5t-18.5 58.5q0 19 8 39t25.5 36t44 26.5t64.5 10.5q61 0 99 -26.5t38 -73.5q0 -56 -68 -81q32 -19 55 -43.5t23 -62.5q0 -22 -10 -42t-29 -35.5t-47 -25t-65 -9.5q-30 0 -56 6.5t-45.5 19t-31 31.5t-11.5 43q0 28 17.5 52t53.5 38v2zM241 358
q-3 22 -26.5 40t-75.5 38q-31 -26 -31 -63q0 -31 19 -50.5t54 -19.5q36 0 48 17t12 38zM199 495q13 11 20.5 25t7.5 31q0 27 -17 48t-48 21q-26 0 -39.5 -14.5t-13.5 -34.5q0 -28 22 -43.5t68 -32.5z" />
    <glyph glyph-name="uni2079" unicode="&#x2079;" horiz-adv-x="350" 
d="M47 299q39 6 70 19t54 31.5t38 41t22 47.5l-3 4q-23 -16 -47 -22.5t-46 -6.5q-46 0 -77 30t-31 84q0 29 11.5 53.5t31.5 42.5t46.5 28t57.5 10q33 0 60 -11.5t46 -32.5t29.5 -50t10.5 -64q0 -49 -19.5 -91t-54.5 -74.5t-84 -53t-107 -25.5zM230 483q1 5 1.5 12.5
t0.5 20.5q0 45 -16.5 74.5t-45.5 29.5q-25 0 -40.5 -20t-15.5 -57t19 -55.5t48 -18.5q14 0 27.5 4.5t21.5 9.5z" />
    <glyph glyph-name="uni207A" unicode="&#x207a;" horiz-adv-x="350" 
d="M157 338v105h-105v38h105v105h38v-105h104v-38h-104v-105h-38z" />
    <glyph glyph-name="uni207B" unicode="&#x207b;" horiz-adv-x="350" 
d="M52 443v38h247v-38h-247z" />
    <glyph glyph-name="uni2080" unicode="&#x2080;" horiz-adv-x="350" 
d="M174 -152q-66 0 -107 48.5t-41 145.5q0 47 11 84.5t30.5 63.5t47 40t60.5 14q66 0 107.5 -49t41.5 -146q0 -94 -41.5 -147.5t-108.5 -53.5zM176 -109q14 0 25 7t18 24t10.5 45.5t3.5 72.5q0 90 -14.5 125t-45.5 35q-15 0 -25.5 -6.5t-17.5 -23.5t-10.5 -45.5t-3.5 -72.5
q0 -45 3.5 -76t11 -50t18.5 -27t27 -8z" />
    <glyph glyph-name="uni2081" unicode="&#x2081;" horiz-adv-x="350" 
d="M147 -143v303h-83v38l172 48v-389h-89z" />
    <glyph glyph-name="uni2082" unicode="&#x2082;" horiz-adv-x="350" 
d="M39 -143l-2 39q34 33 67.5 61.5t59 55t41.5 53.5t16 59q0 26 -18 42t-53 16q-29 0 -53 -12t-45 -30l-24 32q31 32 69 52t86 20q60 0 95 -29.5t35 -83.5q0 -45 -44.5 -90t-134.5 -108v-5h179v-72h-274z" />
    <glyph glyph-name="uni2083" unicode="&#x2083;" horiz-adv-x="350" 
d="M69 -61q17 -23 36.5 -36t50.5 -13q32 0 52 19.5t20 51.5t-20.5 47t-46.5 15q-24 0 -47 -10q-3 9 -7 17.5t-7 16.5q50 23 78 45t28 49q0 44 -57 44q-25 0 -48.5 -11t-44.5 -30l-25 33q31 29 69.5 48.5t94.5 19.5q46 0 75 -22t29 -56q0 -32 -22 -54t-56 -40v-4
q40 0 69.5 -25t29.5 -67q0 -26 -12.5 -49.5t-34.5 -41.5t-50.5 -28.5t-60.5 -10.5q-45 0 -75 11t-50 27z" />
    <glyph glyph-name="uni2084" unicode="&#x2084;" horiz-adv-x="350" 
d="M192 -143v81h-166l-8 50l192 250h67v-241h54v-59h-54v-81h-85zM192 151l-118 -154h118v154z" />
    <glyph glyph-name="uni2085" unicode="&#x2085;" horiz-adv-x="350" 
d="M64 -61q17 -23 38.5 -36t53.5 -13q36 0 52 17t16 44q0 15 -8.5 30t-28.5 27t-53 21t-82 13l42 193h208v-72h-181l-10 -51q54 -6 91 -19.5t59.5 -32t32 -40.5t9.5 -46q0 -25 -10.5 -48t-30 -40.5t-47 -28t-62.5 -10.5q-41 0 -71 11t-51 27z" />
    <glyph glyph-name="uni2086" unicode="&#x2086;" horiz-adv-x="350" 
d="M121 65q23 16 47 22.5t46 6.5q46 0 77 -30t31 -83q0 -29 -11.5 -53.5t-31 -42.5t-46.5 -28t-57 -10q-33 0 -60.5 11.5t-46.5 32.5t-29.5 49.5t-10.5 63.5q0 49 19.5 91t54.5 74.5t83.5 53t107.5 25.5l8 -42q-78 -11 -124 -49t-60 -88zM119 24q-1 -6 -1.5 -13.5
t-0.5 -19.5q0 -44 16.5 -73.5t46.5 -29.5q24 0 39.5 20t15.5 57q0 36 -19 54.5t-47 18.5q-15 0 -28.5 -4.5t-21.5 -9.5z" />
    <glyph glyph-name="uni2087" unicode="&#x2087;" horiz-adv-x="350" 
d="M76 -149l167 312h-205v72h280l5 -29l-182 -355h-65z" />
    <glyph glyph-name="uni2088" unicode="&#x2088;" horiz-adv-x="350" 
d="M98 38q-28 15 -46.5 36.5t-18.5 58.5q0 19 8 39t25.5 36t44 26.5t64.5 10.5q61 0 99 -26.5t38 -73.5q0 -56 -68 -81q32 -19 55 -43t23 -62q0 -22 -10 -42t-29 -35.5t-47 -25t-65 -9.5q-30 0 -56 6.5t-45.5 19t-31 31t-11.5 42.5q0 29 17.5 52.5t53.5 37.5v2zM242 -57
q-3 21 -26.5 39.5t-75.5 37.5q-31 -26 -31 -62q0 -31 19 -50.5t54 -19.5q36 0 48 17t12 38zM200 79q13 11 20.5 25t7.5 31q0 27 -17 48t-48 21q-26 0 -39.5 -14.5t-13.5 -34.5q0 -28 22 -43.5t68 -32.5z" />
    <glyph glyph-name="uni2089" unicode="&#x2089;" horiz-adv-x="350" 
d="M47 -115q78 11 124 49.5t60 87.5l-3 4q-23 -16 -47 -22t-46 -6q-46 0 -77 29.5t-31 83.5q0 29 11.5 53.5t31.5 42.5t46.5 28t57.5 10q33 0 60 -11.5t46 -32.5t29.5 -50t10.5 -64q0 -48 -19.5 -90t-54.5 -74.5t-84 -53t-107 -25.5zM230 67q1 5 1.5 12.5t0.5 20.5
q0 45 -16.5 74.5t-45.5 29.5q-25 0 -40.5 -20t-15.5 -57t19 -55.5t48 -18.5q14 0 27.5 4.5t21.5 9.5z" />
    <glyph glyph-name="Euro" unicode="&#x20ac;" horiz-adv-x="535" 
d="M493 53q-35 -35 -73.5 -51.5t-90.5 -16.5q-48 0 -88.5 17.5t-71.5 49t-52.5 76t-30.5 99.5h-68v48h63q-1 8 -1 16.5v17.5q0 11 0.5 22.5t1.5 22.5h-64v48h71q10 52 31.5 95.5t52 75t69.5 49t84 17.5q57 0 99 -17t79 -49l-45 -67q-25 37 -55 57.5t-68 20.5
q-56 0 -91.5 -50t-49.5 -132h211v-48h-216q-1 -11 -1.5 -21t-0.5 -21q0 -10 0.5 -19.5t1.5 -17.5h216v-48h-212q12 -85 50.5 -136.5t99.5 -51.5q33 0 61 13.5t55 42.5z" />
    <glyph glyph-name="trademark" unicode="&#x2122;" horiz-adv-x="881" 
d="M164 252v334q-42 -2 -72.5 -6t-53.5 -12v57h331v-57q-24 8 -54 12t-70 6v-334h-81zM760 252l-10 315h-5l-99 -302h-62l-95 302h-6l-10 -315h-43l13 373h109l80 -260h5l82 260h110l12 -373h-81z" />
    <glyph glyph-name="minus" unicode="&#x2212;" 
d="M47 207v56h406v-56h-406z" />
    <glyph glyph-name="uni2215" unicode="&#x2215;" horiz-adv-x="478" 
d="M-26 -15l469 655h61l-469 -655h-61z" />
    <glyph glyph-name="approxequal" unicode="&#x2248;" 
d="M440 208q-9 -48 -34 -78.5t-70 -30.5q-22 0 -45 9t-45 20.5t-42.5 20.5t-36.5 9q-19 0 -32 -12t-20 -40h-54q8 48 33.5 78.5t69.5 30.5q23 0 46.5 -9.5t46 -20.5t42 -20.5t34.5 -9.5q6 0 13.5 1.5t14 6.5t13 16t11.5 29h55zM440 372q-9 -48 -34 -79t-70 -31
q-22 0 -45 9.5t-45 20.5t-42.5 20.5t-36.5 9.5q-19 0 -32 -12t-20 -40h-54q8 48 33.5 78.5t69.5 30.5q23 0 46.5 -9.5t46 -20.5t42 -20.5t34.5 -9.5q6 0 13.5 1.5t14 6.5t13 16t11.5 29h55z" />
    <glyph glyph-name="notequal" unicode="&#x2260;" 
d="M256 122l-41 -145h-57l41 145h-147v56h163l32 112h-195v56h211l38 136h57l-38 -136h128v-56h-144l-32 -112h176v-56h-192z" />
    <glyph glyph-name="lessequal" unicode="&#x2264;" 
d="M58 0v55h384v-55h-384zM58 254v41l384 166v-61l-296 -125l296 -127v-59z" />
    <glyph glyph-name="greaterequal" unicode="&#x2265;" 
d="M58 0v55h384v-55h-384zM58 89v59l296 127l-296 125v61l384 -166v-41z" />
    <glyph glyph-name="uni24DF" unicode="&#x24df;" horiz-adv-x="800" 
d="M759 311q0 -75 -28 -140t-77 -113.5t-114 -76.5t-140 -28t-140.5 28t-114 76.5t-76.5 113.5t-28 140t28 140.5t76.5 114.5t114 77t140.5 28t140 -28t114 -77t77 -114.5t28 -140.5zM400 -3q64 0 121 25t99 67.5t66.5 99.5t24.5 122q0 64 -24.5 121.5t-66.5 101t-99 68.5
t-121 25q-65 0 -122 -25t-99 -68.5t-66.5 -101t-24.5 -121.5q0 -65 24.5 -122t66.5 -99.5t99 -67.5t122 -25zM286 121v383l126 2q76 1 115 -32t39 -81q0 -32 -13 -56t-34.5 -40.5t-50.5 -25t-61 -8.5q-11 0 -21.5 0.5t-20.5 1.5v-144h-79zM365 460v-151q9 -2 17 -3t19 -1
q35 0 57 21t22 56q0 36 -21.5 57t-59.5 21h-34z" />
    <glyph glyph-name="uniF6C3" unicode="&#xf6c3;" horiz-adv-x="417" 
d="M128 -265q28 12 48.5 31.5t20.5 51.5q0 52 -74 72q0 24 18 42t50 18q18 0 33.5 -7.5t27 -20t18 -29.5t6.5 -35q0 -54 -37.5 -93t-95.5 -62z" />
    <glyph glyph-name="uniF8FF" unicode="&#xf8ff;" horiz-adv-x="758" 
d="M463 116l-85 -181l-84 180l-187 -68l68 187l-181 86l181 83l-68 189l187 -69l86 181l83 -181l189 69l-69 -189l180 -82l-180 -85l69 -189zM531 258l132 62l-132 62l50 139l-139 -50l-63 133l-63 -133l-139 50l51 -139l-134 -63l134 -63l-51 -138l139 51l62 -135l64 135
l139 -51z" />
    <glyph glyph-name="J.salt" horiz-adv-x="274" 
d="M-101 -186l13 99q17 -20 40.5 -32t48.5 -12q32 0 53.5 21t21.5 69v666h122v-571q0 -124 -51 -182t-151 -58h-97z" />
    <glyph glyph-name="a.salt" horiz-adv-x="536" 
d="M363 0v57h-4q-26 -33 -62 -52.5t-83 -19.5q-42 0 -75.5 17.5t-56 48t-34.5 71.5t-12 88q0 51 15.5 97.5t45.5 82t74.5 56t103.5 20.5q26 0 58.5 -6t55.5 -19l81 29v-470h-107zM363 382q-18 14 -40 21.5t-43 7.5q-28 0 -51.5 -12.5t-41 -35.5t-27 -55t-9.5 -70
q0 -78 32.5 -123.5t88.5 -45.5q26 0 50.5 16t40.5 39v258z" />
    <glyph glyph-name="g.salt" horiz-adv-x="536" 
d="M363 382q-18 14 -40 21.5t-43 7.5q-28 0 -51.5 -12.5t-41 -35.5t-27 -55t-9.5 -70q0 -78 32 -123.5t89 -45.5q26 0 50.5 16t40.5 39v258zM363 57h-4q-26 -33 -62 -52.5t-83 -19.5q-42 0 -75.5 17.5t-56 48t-34.5 71.5t-12 88q0 51 15.5 97.5t45.5 82t74.5 56t103.5 20.5
q28 0 59.5 -6.5t54.5 -18.5l81 29v-489q0 -65 -16.5 -110.5t-46.5 -75t-72 -43t-93 -13.5q-47 0 -88.5 15t-76.5 39l36 78q29 -35 59 -56t75 -21q58 0 87 37t29 109v117z" />
    <glyph glyph-name="agrave.salt" horiz-adv-x="536" 
d="M276 534l-163 177h119l93 -177h-49zM363 0v57h-4q-26 -33 -62 -52.5t-83 -19.5q-42 0 -75.5 17.5t-56 48t-34.5 71.5t-12 88q0 51 15.5 97.5t45.5 82t74.5 56t103.5 20.5q26 0 58.5 -6t55.5 -19l81 29v-470h-107zM363 382q-18 14 -40 21.5t-43 7.5q-28 0 -51.5 -12.5
t-41 -35.5t-27 -55t-9.5 -70q0 -78 32.5 -123.5t88.5 -45.5q26 0 50.5 16t40.5 39v258z" />
    <glyph glyph-name="aacute.salt" horiz-adv-x="536" 
d="M225 534l94 177h118l-162 -177h-50zM363 0v57h-4q-26 -33 -62 -52.5t-83 -19.5q-42 0 -75.5 17.5t-56 48t-34.5 71.5t-12 88q0 51 15.5 97.5t45.5 82t74.5 56t103.5 20.5q26 0 58.5 -6t55.5 -19l81 29v-470h-107zM363 382q-18 14 -40 21.5t-43 7.5q-28 0 -51.5 -12.5
t-41 -35.5t-27 -55t-9.5 -70q0 -78 32.5 -123.5t88.5 -45.5q26 0 50.5 16t40.5 39v258z" />
    <glyph glyph-name="acircumflex.salt" horiz-adv-x="536" 
d="M385 534l-113 118h-5l-113 -118h-49l126 200h77l126 -200h-49zM363 0v57h-4q-26 -33 -62 -52.5t-83 -19.5q-42 0 -75.5 17.5t-56 48t-34.5 71.5t-12 88q0 51 15.5 97.5t45.5 82t74.5 56t103.5 20.5q26 0 58.5 -6t55.5 -19l81 29v-470h-107zM363 382q-18 14 -40 21.5
t-43 7.5q-28 0 -51.5 -12.5t-41 -35.5t-27 -55t-9.5 -70q0 -78 32.5 -123.5t88.5 -45.5q26 0 50.5 16t40.5 39v258z" />
    <glyph glyph-name="atilde.salt" horiz-adv-x="536" 
d="M447 671q-8 -69 -34.5 -101.5t-76.5 -32.5q-23 0 -43.5 11t-38.5 24.5t-33.5 25t-29.5 11.5q-20 0 -31.5 -15t-19.5 -48h-48q9 68 35.5 101t74.5 33q23 0 43.5 -11.5t38.5 -25t34 -24.5t30 -11q20 0 32.5 14.5t20.5 48.5h46zM363 0v57h-4q-26 -33 -62 -52.5t-83 -19.5
q-42 0 -75.5 17.5t-56 48t-34.5 71.5t-12 88q0 51 15.5 97.5t45.5 82t74.5 56t103.5 20.5q26 0 58.5 -6t55.5 -19l81 29v-470h-107zM363 382q-18 14 -40 21.5t-43 7.5q-28 0 -51.5 -12.5t-41 -35.5t-27 -55t-9.5 -70q0 -78 32.5 -123.5t88.5 -45.5q26 0 50.5 16t40.5 39v258
z" />
    <glyph glyph-name="adieresis.salt" horiz-adv-x="536" 
d="M164 552q-28 0 -45.5 19.5t-17.5 45.5t17.5 45.5t45.5 19.5t45 -19.5t17 -45.5t-17 -45.5t-45 -19.5zM370 552q-28 0 -45.5 19.5t-17.5 45.5t17.5 45.5t45.5 19.5t45.5 -19.5t17.5 -45.5t-17.5 -45.5t-45.5 -19.5zM363 0v57h-4q-26 -33 -62 -52.5t-83 -19.5
q-42 0 -75.5 17.5t-56 48t-34.5 71.5t-12 88q0 51 15.5 97.5t45.5 82t74.5 56t103.5 20.5q26 0 58.5 -6t55.5 -19l81 29v-470h-107zM363 382q-18 14 -40 21.5t-43 7.5q-28 0 -51.5 -12.5t-41 -35.5t-27 -55t-9.5 -70q0 -78 32.5 -123.5t88.5 -45.5q26 0 50.5 16t40.5 39v258
z" />
    <glyph glyph-name="aring.salt" horiz-adv-x="536" 
d="M267 507q-53 0 -82.5 33t-29.5 80q0 46 29.5 79.5t82.5 33.5q26 0 46.5 -9t35 -24.5t22 -36t7.5 -43.5q0 -47 -29.5 -80t-81.5 -33zM267 551q31 0 48 21.5t17 47.5t-17 47.5t-48 21.5t-48.5 -21.5t-17.5 -47.5t17.5 -47.5t48.5 -21.5zM363 0v57h-4q-26 -33 -62 -52.5
t-83 -19.5q-42 0 -75.5 17.5t-56 48t-34.5 71.5t-12 88q0 51 15.5 97.5t45.5 82t74.5 56t103.5 20.5q26 0 58.5 -6t55.5 -19l81 29v-470h-107zM363 382q-18 14 -40 21.5t-43 7.5q-28 0 -51.5 -12.5t-41 -35.5t-27 -55t-9.5 -70q0 -78 32.5 -123.5t88.5 -45.5q26 0 50.5 16
t40.5 39v258z" />
    <glyph glyph-name="aringacute.salt" horiz-adv-x="536" 
d="M237 781l93 177h119l-163 -177h-49zM267 522q-52 0 -81.5 33t-29.5 80q0 23 7.5 43.5t22 36t35 24.5t46.5 9q53 0 82.5 -33.5t29.5 -79.5q0 -47 -29.5 -80t-82.5 -33zM267 566q31 0 48 21.5t17 47.5t-17 47.5t-48 21.5t-48 -21.5t-17 -47.5t17 -47.5t48 -21.5zM363 0v57
h-4q-26 -33 -62 -52.5t-83 -19.5q-42 0 -75.5 17.5t-56 48t-34.5 71.5t-12 88q0 51 15.5 97.5t45.5 82t74.5 56t103.5 20.5q26 0 58.5 -6t55.5 -19l81 29v-470h-107zM363 382q-18 14 -40 21.5t-43 7.5q-28 0 -51.5 -12.5t-41 -35.5t-27 -55t-9.5 -70q0 -78 32.5 -123.5
t88.5 -45.5q26 0 50.5 16t40.5 39v258z" />
    <glyph glyph-name="amacron.salt" horiz-adv-x="536" 
d="M129 587v56h279v-56h-279zM363 0v57h-4q-26 -33 -62 -52.5t-83 -19.5q-42 0 -75.5 17.5t-56 48t-34.5 71.5t-12 88q0 51 15.5 97.5t45.5 82t74.5 56t103.5 20.5q26 0 58.5 -6t55.5 -19l81 29v-470h-107zM363 382q-18 14 -40 21.5t-43 7.5q-28 0 -51.5 -12.5t-41 -35.5
t-27 -55t-9.5 -70q0 -78 32.5 -123.5t88.5 -45.5q26 0 50.5 16t40.5 39v258z" />
    <glyph glyph-name="abreve.salt" horiz-adv-x="536" 
d="M427 711q-3 -45 -16 -76.5t-33.5 -51.5t-47 -29.5t-57.5 -9.5q-30 0 -57 9.5t-47.5 29.5t-33 51.5t-15.5 76.5h52q9 -54 32.5 -76.5t68.5 -22.5t68.5 22.5t33.5 76.5h52zM363 0v57h-4q-26 -33 -62 -52.5t-83 -19.5q-42 0 -75.5 17.5t-56 48t-34.5 71.5t-12 88
q0 51 15.5 97.5t45.5 82t74.5 56t103.5 20.5q26 0 58.5 -6t55.5 -19l81 29v-470h-107zM363 382q-18 14 -40 21.5t-43 7.5q-28 0 -51.5 -12.5t-41 -35.5t-27 -55t-9.5 -70q0 -78 32.5 -123.5t88.5 -45.5q26 0 50.5 16t40.5 39v258z" />
    <glyph glyph-name="aogonek.salt" horiz-adv-x="536" 
d="M538 -186q-17 -26 -46.5 -43t-72.5 -17q-51 0 -80 27t-29 75q0 37 26.5 75t75.5 69h-49v57h-4q-26 -33 -62 -52.5t-83 -19.5q-42 0 -75.5 17.5t-56 48t-34.5 71.5t-12 88q0 51 15.5 97.5t45.5 82t74.5 56t103.5 20.5q26 0 58.5 -6t55.5 -19l81 29v-470q-38 -31 -56 -62.5
t-18 -60.5q0 -28 14.5 -45.5t43.5 -17.5q21 0 37.5 10t27.5 23zM363 382q-18 14 -40 21.5t-43 7.5q-28 0 -51.5 -12.5t-41 -35.5t-27 -55t-9.5 -70q0 -78 32.5 -123.5t88.5 -45.5q26 0 50.5 16t40.5 39v258z" />
    <glyph glyph-name="gcircumflex.salt" horiz-adv-x="536" 
d="M393 534l-113 118h-5l-113 -118h-49l126 200h77l126 -200h-49zM363 382q-18 14 -40 21.5t-43 7.5q-28 0 -51.5 -12.5t-41 -35.5t-27 -55t-9.5 -70q0 -78 32 -123.5t89 -45.5q26 0 50.5 16t40.5 39v258zM363 57h-4q-26 -33 -62 -52.5t-83 -19.5q-42 0 -75.5 17.5t-56 48
t-34.5 71.5t-12 88q0 51 15.5 97.5t45.5 82t74.5 56t103.5 20.5q28 0 59.5 -6.5t54.5 -18.5l81 29v-489q0 -65 -16.5 -110.5t-46.5 -75t-72 -43t-93 -13.5q-47 0 -88.5 15t-76.5 39l36 78q29 -35 59 -56t75 -21q58 0 87 37t29 109v117z" />
    <glyph glyph-name="gbreve.salt" horiz-adv-x="527" 
d="M423 711q-3 -44 -15.5 -76t-33 -52t-47.5 -29.5t-57 -9.5t-57 9.5t-47.5 29.5t-33.5 52t-16 76h52q10 -54 33.5 -76t68.5 -22q44 0 68 22.5t34 75.5h51zM363 382q-18 14 -40 21.5t-43 7.5q-28 0 -51.5 -12.5t-41 -35.5t-27 -55t-9.5 -70q0 -78 32 -123.5t89 -45.5
q26 0 50.5 16t40.5 39v258zM363 57h-4q-26 -33 -62 -52.5t-83 -19.5q-42 0 -75.5 17.5t-56 48t-34.5 71.5t-12 88q0 51 15.5 97.5t45.5 82t74.5 56t103.5 20.5q28 0 59.5 -6.5t54.5 -18.5l81 29v-489q0 -65 -16.5 -110.5t-46.5 -75t-72 -43t-93 -13.5q-47 0 -88.5 15
t-76.5 39l36 78q29 -35 59 -56t75 -21q58 0 87 37t29 109v117z" />
    <glyph glyph-name="gdotaccent.salt" horiz-adv-x="536" 
d="M279 554q-28 0 -45.5 20t-17.5 46q0 27 17.5 47t45.5 20q29 0 46.5 -20t17.5 -47q0 -26 -17.5 -46t-46.5 -20zM363 382q-18 14 -40 21.5t-43 7.5q-28 0 -51.5 -12.5t-41 -35.5t-27 -55t-9.5 -70q0 -78 32 -123.5t89 -45.5q26 0 50.5 16t40.5 39v258zM363 57h-4
q-26 -33 -62 -52.5t-83 -19.5q-42 0 -75.5 17.5t-56 48t-34.5 71.5t-12 88q0 51 15.5 97.5t45.5 82t74.5 56t103.5 20.5q28 0 59.5 -6.5t54.5 -18.5l81 29v-489q0 -65 -16.5 -110.5t-46.5 -75t-72 -43t-93 -13.5q-47 0 -88.5 15t-76.5 39l36 78q29 -35 59 -56t75 -21
q58 0 87 37t29 109v117z" />
    <glyph glyph-name="gcommaaccent.salt" horiz-adv-x="536" 
d="M343 741q-28 -11 -48.5 -31t-20.5 -51q0 -53 74 -73q0 -24 -18 -41.5t-50 -17.5q-18 0 -33.5 7.5t-26.5 20t-17.5 29.5t-6.5 35q0 53 37 92t95 62zM363 382q-18 14 -40 21.5t-43 7.5q-28 0 -51.5 -12.5t-41 -35.5t-27 -55t-9.5 -70q0 -78 32 -123.5t89 -45.5
q26 0 50.5 16t40.5 39v258zM363 57h-4q-26 -33 -62 -52.5t-83 -19.5q-42 0 -75.5 17.5t-56 48t-34.5 71.5t-12 88q0 51 15.5 97.5t45.5 82t74.5 56t103.5 20.5q28 0 59.5 -6.5t54.5 -18.5l81 29v-489q0 -65 -16.5 -110.5t-46.5 -75t-72 -43t-93 -13.5q-47 0 -88.5 15
t-76.5 39l36 78q29 -35 59 -56t75 -21q58 0 87 37t29 109v117z" />
    <glyph glyph-name="Jcircumflex.salt" horiz-adv-x="274" 
d="M249 699l-112 119h-6l-113 -119h-49l126 200h78l125 -200h-49zM-101 -186l13 99q17 -20 40.5 -32t48.5 -12q32 0 53.5 21t21.5 69v666h122v-571q0 -124 -51 -182t-151 -58h-97z" />
    <glyph glyph-name="glyph383" horiz-adv-x="250" 
d="M198 257q0 -30 -21.5 -51.5t-51.5 -21.5q-31 0 -52 21.5t-21 51.5q0 31 21 52.5t52 21.5q30 0 51.5 -21.5t21.5 -52.5z" />
    <glyph glyph-name="A.c2sc" horiz-adv-x="495" 
d="M364 0l-47 140h-187l-50 -140h-60l156 437v32l129 27l170 -496h-111zM230 398h-8l-74 -208h152z" />
    <glyph glyph-name="B.c2sc" horiz-adv-x="506" 
d="M72 1v480l189 3q50 1 85 -7t56.5 -23.5t31.5 -37t10 -47.5q0 -45 -29 -74.5t-74 -40.5v-5q55 -10 86 -40t31 -77q0 -64 -49 -100t-158 -34zM230 270q46 0 72 22t26 54q0 40 -27.5 61.5t-78.5 21.5h-43v-159h51zM239 52q48 0 76 20t28 60q0 47 -34.5 67.5t-86.5 20.5h-43
v-168h60z" />
    <glyph glyph-name="C.c2sc" horiz-adv-x="513" 
d="M465 40q-31 -26 -73 -40.5t-99 -14.5q-56 0 -102.5 18t-80.5 51t-53 79.5t-19 104.5q0 55 19.5 102.5t54.5 82.5t83 54.5t105 19.5q109 0 179 -55l-41 -69q-25 32 -56.5 51t-76.5 19q-69 0 -111 -54.5t-42 -147.5q0 -45 11 -81.5t32.5 -63t52.5 -41t70 -14.5t67.5 11.5
t52.5 33.5z" />
    <glyph glyph-name="d.aalt" horiz-adv-x="555" 
d="M72 1v480l185 3q60 1 108.5 -15t82 -47.5t51.5 -76.5t18 -102q0 -56 -19 -102t-53.5 -78.5t-83 -49.5t-106.5 -16zM250 54q67 0 109.5 46t42.5 137q0 93 -43 141.5t-111 48.5h-69v-373h71z" />
    <glyph glyph-name="e.aalt" horiz-adv-x="464" 
d="M72 0v482h348v-77q-63 21 -160 21h-81v-157h163v-53h-163v-161h81q49 0 88 5t72 16v-76h-348z" />
    <glyph glyph-name="f.aalt" horiz-adv-x="443" 
d="M72 0v482h339v-77q-65 21 -160 21h-72v-163h154v-53h-154v-210h-107z" />
    <glyph glyph-name="G.c2sc" horiz-adv-x="519" 
d="M371 223h101v-193q-35 -23 -76.5 -34t-102.5 -11q-55 0 -101.5 18t-80.5 51t-53.5 79.5t-19.5 104.5q0 55 19.5 102.5t54.5 82.5t83 54.5t105 19.5q109 0 179 -55l-41 -69q-25 32 -56.5 51t-75.5 19q-35 0 -63 -14t-48 -40.5t-31 -63.5t-11 -83q0 -45 11 -82t32.5 -64
t52 -41.5t69.5 -14.5q17 0 29 2.5t24 6.5v174z" />
    <glyph glyph-name="h.aalt" horiz-adv-x="560" 
d="M380 0v216h-200v-216h-108v482h108v-210h200v210h108v-482h-108z" />
    <glyph glyph-name="i.aalt" horiz-adv-x="252" 
d="M72 0v482h108v-482h-108z" />
    <glyph glyph-name="j.aalt" horiz-adv-x="397" 
d="M219 482h108v-298q0 -100 -39.5 -149.5t-134.5 -49.5q-38 0 -75.5 16t-61.5 46l50 62q34 -70 88 -70q28 0 46.5 18.5t18.5 50.5v374z" />
    <glyph glyph-name="j.aalt.aalt" horiz-adv-x="252" 
d="M-83 -186l11 87q17 -15 34 -23.5t40 -8.5q32 0 51 21.5t19 66.5v525h108v-455q0 -108 -46.5 -160.5t-130.5 -52.5h-86z" />
    <glyph glyph-name="k.aalt" horiz-adv-x="510" 
d="M367 0l-139 226l-48 -49v-177h-108v482h108v-232l230 232h77l-184 -183l187 -299h-123z" />
    <glyph glyph-name="l.aalt" horiz-adv-x="438" 
d="M72 0v482h108v-427h74q49 0 88 5t72 16v-76h-342z" />
    <glyph glyph-name="m.aalt" horiz-adv-x="665" 
d="M493 0l-14 411h-7l-122 -396h-87l-122 396h-6l-15 -411h-55l19 482h144l101 -342h8l102 342h143l18 -482h-107z" />
    <glyph glyph-name="n.aalt" horiz-adv-x="571" 
d="M382 -5l-247 375h-7v-370h-56v479l115 7l248 -380h8v376h56v-479z" />
    <glyph glyph-name="O.c2sc" horiz-adv-x="586" 
d="M290 -15q-54 0 -100 18t-80 51t-53 79.5t-19 103.5q0 56 20.5 104t55.5 82.5t81.5 54t99.5 19.5q54 0 100.5 -18t80 -51t53 -79.5t19.5 -103.5t-20.5 -104.5t-55.5 -82t-82 -54t-100 -19.5zM294 39q29 0 54.5 12t44 36t29.5 61t11 87q0 51 -11 89.5t-30 65t-45.5 40
t-56.5 13.5q-29 0 -53.5 -12t-43.5 -36t-29.5 -61t-10.5 -87q0 -100 40 -154t101 -54z" />
    <glyph glyph-name="p.aalt" horiz-adv-x="478" 
d="M72 0v481l161 3q104 2 159.5 -40.5t55.5 -111.5q0 -40 -18 -70t-48 -50.5t-69.5 -30.5t-83.5 -10q-10 0 -24 0.5t-25 1.5v-173h-108zM180 429v-203q10 -2 23.5 -3t29.5 -1q45 0 72.5 27t27.5 74q0 45 -25 75.5t-70 30.5h-58z" />
    <glyph glyph-name="q.aalt" horiz-adv-x="586" 
d="M329 -12q-18 -3 -37 -3q-54 0 -100.5 18t-80.5 51.5t-53.5 80t-19.5 103.5q0 56 20.5 103.5t55 82t81 54t99.5 19.5q54 0 100.5 -18.5t80.5 -51.5t53.5 -80t19.5 -104q0 -84 -43 -146t-111 -91l156 -123l-36 -46zM294 39q29 0 54.5 12t44 36.5t29.5 61.5t11 88
q0 52 -11 90.5t-30 64t-45 38.5t-55 13t-54.5 -12t-44.5 -37t-29.5 -62t-10.5 -88t11 -89.5t30 -64t45 -38.5t55 -13z" />
    <glyph glyph-name="r.aalt" horiz-adv-x="507" 
d="M358 0l-115 192l-63 3v-195h-108v481l189 3q46 1 81 -9.5t59 -29t36 -43t12 -52.5q0 -49 -28 -84t-73 -53l135 -213h-125zM180 429v-177q11 -2 23.5 -3t26.5 -1q47 0 75 23.5t28 65.5q0 44 -27 68t-81 24h-45z" />
    <glyph glyph-name="s.aalt" horiz-adv-x="469" 
d="M80 96q26 -27 63.5 -42t82.5 -15q51 0 77 20t26 48q0 35 -30 54.5t-81 34.5q-89 25 -131 61t-42 97q0 30 12 55.5t36 45t60 31t83 11.5q46 0 91.5 -9.5t79.5 -28.5l-30 -73q-26 25 -64 40.5t-83 15.5q-47 0 -68.5 -17t-21.5 -43q0 -33 28.5 -50t76.5 -32
q44 -13 77.5 -27.5t56 -33.5t34 -43.5t11.5 -58.5q0 -32 -14 -59.5t-40.5 -48t-65.5 -32.5t-90 -12q-43 0 -87 9.5t-79 26.5z" />
    <glyph glyph-name="t.aalt" horiz-adv-x="502" 
d="M197 0v426h-19q-48 0 -86.5 -5.5t-66.5 -15.5v77h452v-77q-28 10 -66.5 15.5t-86.5 5.5h-19v-426h-108z" />
    <glyph glyph-name="u.aalt" horiz-adv-x="530" 
d="M405 482h57v-323q0 -39 -15 -71.5t-41.5 -55t-62.5 -35t-78 -12.5t-78 12.5t-62.5 35t-41.5 55t-15 71.5v323h108v-312q0 -54 32 -86.5t83 -32.5t82.5 32.5t31.5 86.5v312z" />
    <glyph glyph-name="v.aalt" horiz-adv-x="491" 
d="M196 -4l-174 486h113l132 -382h8l134 382h60l-174 -486h-99z" />
    <glyph glyph-name="w.aalt" horiz-adv-x="757" 
d="M471 -4l-89 285h-8l-88 -285h-102l-162 486h112l123 -382h9l86 276l-34 106h110l116 -382h8l122 382h61l-162 -486h-102z" />
    <glyph glyph-name="x.aalt" horiz-adv-x="509" 
d="M359 0l-124 187l-142 -187h-69l175 224l-172 258h126l122 -185l140 185h68l-171 -223l173 -259h-126z" />
    <glyph glyph-name="y.aalt" horiz-adv-x="498" 
d="M195 0v192l-173 290h121l132 -229h4l133 229h64l-173 -290v-192h-108z" />
    <glyph glyph-name="z.aalt" horiz-adv-x="477" 
d="M32 0v49l284 379h-113q-49 0 -88 -5.5t-72 -16.5v76h402v-49l-284 -380h119q49 0 88 6t72 17v-76h-408z" />
    <glyph glyph-name="uniFB01.aalt" horiz-adv-x="697" 
d="M72 0v482h339v-77q-65 21 -160 21h-72v-163h154v-53h-154v-210h-107zM517 0v482h108v-482h-108z" />
    <glyph glyph-name="uniFB02.aalt" horiz-adv-x="883" 
d="M72 0v482h339v-77q-65 21 -160 21h-72v-163h154v-53h-154v-210h-107zM517 0v482h108v-428h54q63 0 104 7.5t76 21.5v-83h-342z" />
    <glyph glyph-name="uniFB00.aalt" horiz-adv-x="889" 
d="M72 0v482h339v-77q-65 21 -160 21h-72v-163h154v-53h-154v-210h-107zM517 0v482h340v-77q-66 21 -160 21h-72v-163h153v-53h-153v-210h-108z" />
    <glyph glyph-name="uniFB03.aalt" horiz-adv-x="1142" 
d="M72 0v482h339v-77q-65 21 -160 21h-72v-163h154v-53h-154v-210h-107zM517 0v482h340v-77q-66 21 -160 21h-72v-163h153v-53h-153v-210h-108zM963 0v482h107v-482h-107z" />
    <glyph glyph-name="uniFB04.aalt" horiz-adv-x="1329" 
d="M72 0v482h339v-77q-65 21 -160 21h-72v-163h154v-53h-154v-210h-107zM517 0v482h340v-77q-66 21 -160 21h-72v-163h153v-53h-153v-210h-108zM963 0v482h108v-428h54q63 0 104 7.5t76 21.5v-83h-342z" />
    <glyph glyph-name="germandbls.aalt" horiz-adv-x="937" 
d="M80 96q26 -27 63.5 -42t82.5 -15q51 0 77 20t26 48q0 35 -30 54.5t-81 34.5q-89 25 -131 61t-42 97q0 30 12 55.5t36 45t60 31t83 11.5q46 0 91.5 -9.5t79.5 -28.5l-30 -73q-26 25 -64 40.5t-83 15.5q-47 0 -68.5 -17t-21.5 -43q0 -33 28.5 -50t76.5 -32
q44 -13 77.5 -27.5t56 -33.5t34 -43.5t11.5 -58.5q0 -32 -14 -59.5t-40.5 -48t-65.5 -32.5t-90 -12q-43 0 -87 9.5t-79 26.5zM548 96q26 -27 63.5 -42t82.5 -15q51 0 77 20t26 48q0 35 -30 54.5t-81 34.5q-89 25 -131 61t-42 97q0 30 12 55.5t36 45t60 31t83 11.5
q46 0 91.5 -9.5t79.5 -28.5l-30 -73q-26 25 -64 40.5t-83 15.5q-47 0 -68.5 -17t-21.5 -43q0 -33 28.5 -50t76.5 -32q44 -13 77.5 -27.5t56 -33.5t34 -43.5t11.5 -58.5q0 -32 -14 -59.5t-40.5 -48t-65.5 -32.5t-90 -12q-43 0 -87 9.5t-79 26.5z" />
    <glyph glyph-name="Agrave.aalt" horiz-adv-x="495" 
d="M229 554l-163 177h120l93 -177h-50zM364 0l-47 140h-187l-50 -140h-60l156 437v32l129 27l170 -496h-111zM230 398h-8l-74 -208h152z" />
    <glyph glyph-name="Aacute.aalt" horiz-adv-x="495" 
d="M227 554l94 177h119l-163 -177h-50zM364 0l-47 140h-187l-50 -140h-60l156 437v32l129 27l170 -496h-111zM230 398h-8l-74 -208h152z" />
    <glyph glyph-name="Acircumflex.aalt" horiz-adv-x="495" 
d="M363 554l-113 119h-5l-113 -119h-49l126 200h77l126 -200h-49zM364 0l-47 140h-187l-50 -140h-60l156 437v32l129 27l170 -496h-111zM230 398h-8l-74 -208h152z" />
    <glyph glyph-name="Atilde.aalt" horiz-adv-x="495" 
d="M365 0l-47 140h-187l-50 -140h-60l156 437v32l128 27l170 -496h-110zM231 398h-9l-74 -208h153zM426 699q-8 -68 -34.5 -101t-76.5 -33q-23 0 -43.5 11t-38.5 24.5t-33.5 25t-29.5 11.5q-20 0 -31.5 -14.5t-19.5 -48.5h-49q10 68 36.5 101t74.5 33q23 0 43.5 -11.5
t38.5 -25t33.5 -24.5t29.5 -11q20 0 33 14.5t21 48.5h46z" />
    <glyph glyph-name="Adieresis.aalt" horiz-adv-x="495" 
d="M365 0l-47 140h-187l-50 -140h-60l156 437v32l129 27l170 -496h-111zM231 398h-8l-74 -208h152zM145 570q-28 0 -45.5 19t-17.5 45q0 27 17.5 46.5t45.5 19.5t45 -19.5t17 -46.5q0 -26 -17 -45t-45 -19zM351 570q-28 0 -45 19t-17 45q0 27 17 46.5t45 19.5t45.5 -19.5
t17.5 -46.5q0 -26 -17.5 -45t-45.5 -19z" />
    <glyph glyph-name="Aring.aalt" horiz-adv-x="495" 
d="M364 0l-47 140h-187l-50 -140h-60l162 448q-22 15 -34 39.5t-12 52.5q0 46 29.5 79.5t82.5 33.5q26 0 46.5 -9t35 -24.5t22 -36t7.5 -43.5q0 -55 -39 -88l155 -452h-111zM248 471q31 0 47.5 21.5t16.5 47.5t-16.5 47.5t-47.5 21.5t-48.5 -21.5t-17.5 -47.5t17.5 -47.5
t48.5 -21.5zM230 398h-8l-74 -208h152z" />
    <glyph glyph-name="Aringacute.aalt" horiz-adv-x="495" 
d="M364 0l-47 140h-187l-50 -140h-60l162 448q-22 15 -34 39.5t-12 52.5q0 46 29.5 79.5t82.5 33.5q26 0 46.5 -9t35 -24.5t22 -36t7.5 -43.5q0 -55 -39 -88l155 -452h-111zM248 471q31 0 47.5 21.5t16.5 47.5t-16.5 47.5t-47.5 21.5t-48.5 -21.5t-17.5 -47.5t17.5 -47.5
t48.5 -21.5zM230 398h-8l-74 -208h152zM213 685l93 177h119l-163 -177h-49z" />
    <glyph glyph-name="Amacron.aalt" horiz-adv-x="495" 
d="M364 0l-47 140h-187l-50 -140h-60l156 437v32l129 27l170 -496h-111zM230 398h-8l-74 -208h152zM108 597v56h278v-56h-278z" />
    <glyph glyph-name="Abreve.aalt" horiz-adv-x="495" 
d="M364 0l-47 140h-187l-50 -140h-60l156 437v32l129 27l170 -496h-111zM230 398h-8l-74 -208h152zM400 731q-3 -44 -15.5 -76t-33 -52t-47.5 -29.5t-57 -9.5t-57 9.5t-47.5 29.5t-33 52t-15.5 76h51q10 -54 33.5 -76.5t68.5 -22.5t68.5 22.5t33.5 76.5h51z" />
    <glyph glyph-name="Aogonek.aalt" horiz-adv-x="495" 
d="M543 -184q-17 -27 -46.5 -43.5t-73.5 -16.5q-50 0 -79 27t-29 75q0 37 27.5 74t77.5 68h-56l-47 140h-187l-50 -140h-60l156 437v32l129 27l170 -496q-35 -29 -54.5 -58t-19.5 -63q0 -28 14.5 -45.5t43.5 -17.5q20 0 36.5 9.5t27.5 23.5zM230 398h-8l-74 -208h152z" />
    <glyph glyph-name="AE.aalt" horiz-adv-x="734" 
d="M342 0v147h-180l-88 -147h-66l292 482h390v-76q-32 11 -70.5 16t-89.5 5h-81v-158h163v-53h-163v-161h81q48 0 87 5t73 16v-76h-348zM342 429h-10l-140 -232h150v232z" />
    <glyph glyph-name="AEacute.aalt" horiz-adv-x="734" 
d="M426 554l93 177h119l-163 -177h-49zM342 0v147h-180l-88 -147h-66l292 482h390v-76q-32 11 -70.5 16t-89.5 5h-81v-158h163v-53h-163v-161h81q48 0 87 5t73 16v-76h-348zM342 429h-10l-140 -232h150v232z" />
    <glyph glyph-name="Ccedilla.aalt" horiz-adv-x="513" 
d="M186 -234q76 0 112 17t36 46q0 21 -21.5 33.5t-63.5 12.5q-17 0 -34 -1t-34 -5v31l82 86q-50 5 -91 24.5t-71 52t-46.5 77t-16.5 98.5q0 55 19.5 102.5t54.5 82.5t83 54.5t105 19.5q109 0 179 -55l-41 -69q-25 32 -56.5 51t-76.5 19q-69 0 -111 -54.5t-42 -147.5
q0 -45 11 -81.5t32.5 -63t52.5 -41t70 -14.5t67.5 11.5t52.5 33.5l27 -46q-28 -23 -64 -37t-84 -17l-46 -48q65 0 105.5 -24.5t40.5 -68.5q0 -54 -58 -88t-173 -34v43z" />
    <glyph glyph-name="Cacute.aalt" horiz-adv-x="513" 
d="M465 40q-31 -26 -73 -40.5t-99 -14.5q-56 0 -102.5 18t-80.5 51t-53 79.5t-19 104.5q0 55 19.5 102.5t54.5 82.5t83 54.5t105 19.5q109 0 179 -55l-41 -69q-25 32 -56.5 51t-76.5 19q-69 0 -111 -54.5t-42 -147.5q0 -45 11 -81.5t32.5 -63t52.5 -41t70 -14.5t67.5 11.5
t52.5 33.5zM252 554l93 177h119l-163 -177h-49z" />
    <glyph glyph-name="Ccircumflex.aalt" horiz-adv-x="513" 
d="M465 40q-31 -26 -73 -40.5t-99 -14.5q-56 0 -102.5 18t-80.5 51t-53 79.5t-19 104.5q0 55 19.5 102.5t54.5 82.5t83 54.5t105 19.5q109 0 179 -55l-41 -69q-25 32 -56.5 51t-76.5 19q-69 0 -111 -54.5t-42 -147.5q0 -45 11 -81.5t32.5 -63t52.5 -41t70 -14.5t67.5 11.5
t52.5 33.5zM410 554l-113 119h-5l-113 -119h-49l126 200h77l126 -200h-49z" />
    <glyph glyph-name="Cdotaccent.aalt" horiz-adv-x="513" 
d="M465 40q-31 -26 -73 -40.5t-99 -14.5q-56 0 -102.5 18t-80.5 51t-53 79.5t-19 104.5q0 55 19.5 102.5t54.5 82.5t83 54.5t105 19.5q109 0 179 -55l-41 -69q-25 32 -56.5 51t-76.5 19q-69 0 -111 -54.5t-42 -147.5q0 -45 11 -81.5t32.5 -63t52.5 -41t70 -14.5t67.5 11.5
t52.5 33.5zM301 570q-28 0 -45.5 19.5t-17.5 45.5t17.5 45.5t45.5 19.5t45.5 -19.5t17.5 -45.5t-17.5 -45.5t-45.5 -19.5z" />
    <glyph glyph-name="Ccaron.aalt" horiz-adv-x="513" 
d="M465 40q-31 -26 -73 -40.5t-99 -14.5q-56 0 -102.5 18t-80.5 51t-53 79.5t-19 104.5q0 55 19.5 102.5t54.5 82.5t83 54.5t105 19.5q109 0 179 -55l-41 -69q-25 32 -56.5 51t-76.5 19q-69 0 -111 -54.5t-42 -147.5q0 -45 11 -81.5t32.5 -63t52.5 -41t70 -14.5t67.5 11.5
t52.5 33.5zM262 554l-125 200h49l112 -119h5l113 119h49l-126 -200h-77z" />
    <glyph glyph-name="Dcaron.aalt" horiz-adv-x="555" 
d="M72 1v480l185 3q60 1 108.5 -15t82 -47.5t51.5 -76.5t18 -102q0 -56 -19 -102t-53.5 -78.5t-83 -49.5t-106.5 -16zM250 54q67 0 109.5 46t42.5 137q0 93 -43 141.5t-111 48.5h-69v-373h71zM207 554l-125 200h49l112 -119h6l113 119h48l-125 -200h-78z" />
    <glyph glyph-name="Eth.aalt" horiz-adv-x="564" 
d="M80 1v217h-64v49h64v214l186 3q60 1 108 -15t82 -47.5t52 -76.5t18 -102q0 -56 -19 -102t-53.5 -78.5t-83 -49.5t-106.5 -16zM258 54q68 0 110 46t42 137q0 93 -43 141.5t-110 48.5h-69v-160h107v-49h-107v-164h70z" />
    <glyph glyph-name="Dcroat.aalt" horiz-adv-x="564" 
d="M80 1v217h-64v49h64v214l186 3q60 1 108 -15t82 -47.5t52 -76.5t18 -102q0 -56 -19 -102t-53.5 -78.5t-83 -49.5t-106.5 -16zM258 54q68 0 110 46t42 137q0 93 -43 141.5t-110 48.5h-69v-160h107v-49h-107v-164h70z" />
    <glyph glyph-name="Egrave.aalt" horiz-adv-x="464" 
d="M251 554l-163 177h120l93 -177h-50zM72 0v482h348v-77q-63 21 -160 21h-81v-157h163v-53h-163v-161h81q49 0 88 5t72 16v-76h-348z" />
    <glyph glyph-name="Eacute.aalt" horiz-adv-x="464" 
d="M200 554l93 177h119l-163 -177h-49zM72 0v482h348v-77q-63 21 -160 21h-81v-157h163v-53h-163v-161h81q49 0 88 5t72 16v-76h-348z" />
    <glyph glyph-name="Ecircumflex.aalt" horiz-adv-x="464" 
d="M72 0v482h348v-77q-63 21 -160 21h-81v-157h163v-53h-163v-161h81q49 0 88 5t72 16v-76h-348zM363 554l-112 119h-5l-113 -119h-49l126 200h77l125 -200h-49z" />
    <glyph glyph-name="Edieresis.aalt" horiz-adv-x="464" 
d="M72 0v482h348v-77q-63 21 -160 21h-81v-157h163v-53h-163v-161h81q49 0 88 5t72 16v-76h-348zM148 570q-28 0 -45.5 19.5t-17.5 45.5t17.5 45.5t45.5 19.5t45 -19.5t17 -45.5t-17 -45.5t-45 -19.5zM354 570q-28 0 -45.5 19.5t-17.5 45.5t17.5 45.5t45.5 19.5t45.5 -19.5
t17.5 -45.5t-17.5 -45.5t-45.5 -19.5z" />
    <glyph glyph-name="Emacron.aalt" horiz-adv-x="464" 
d="M72 0v482h348v-77q-63 21 -160 21h-81v-157h163v-53h-163v-161h81q49 0 88 5t72 16v-76h-348zM107 597v56h279v-56h-279z" />
    <glyph glyph-name="Ebreve.aalt" horiz-adv-x="464" 
d="M72 0v482h348v-77q-63 21 -160 21h-81v-157h163v-53h-163v-161h81q49 0 88 5t72 16v-76h-348zM410 731q-3 -44 -15.5 -76t-33 -52t-47.5 -29.5t-57 -9.5t-57 9.5t-47.5 29.5t-33.5 52t-16 76h52q10 -54 33.5 -76.5t68.5 -22.5t68.5 22.5t33.5 76.5h51z" />
    <glyph glyph-name="Edotaccent.aalt" horiz-adv-x="464" 
d="M72 0v482h348v-77q-63 21 -160 21h-81v-157h163v-53h-163v-161h81q49 0 88 5t72 16v-76h-348zM261 570q-28 0 -46 19.5t-18 46.5t18 47t46 20q29 0 46.5 -20t17.5 -47t-17.5 -46.5t-46.5 -19.5z" />
    <glyph glyph-name="Eogonek.aalt" horiz-adv-x="464" 
d="M433 -186q-17 -26 -46 -43t-73 -17q-50 0 -79 27t-29 75q0 37 26.5 75t74.5 69h-235v482h348v-77q-63 21 -160 21h-81v-157h163v-53h-163v-161h81q49 0 88 5t72 16v-76h-55q-36 -29 -55 -61t-19 -62q0 -28 15 -45.5t44 -17.5q20 0 36.5 10t27.5 23z" />
    <glyph glyph-name="Ecaron.aalt" horiz-adv-x="464" 
d="M72 0v482h348v-77q-63 21 -160 21h-81v-157h163v-53h-163v-161h81q49 0 88 5t72 16v-76h-348zM205 554l-125 200h49l112 -119h5l114 119h48l-126 -200h-77z" />
    <glyph glyph-name="Gcircumflex.aalt" horiz-adv-x="519" 
d="M407 554l-113 119h-5l-113 -119h-49l126 200h77l126 -200h-49zM371 223h101v-193q-35 -23 -76.5 -34t-102.5 -11q-55 0 -101.5 18t-80.5 51t-53.5 79.5t-19.5 104.5q0 55 19.5 102.5t54 82.5t82.5 54.5t105 19.5q110 0 180 -55l-41 -69q-25 32 -56.5 51t-75.5 19
q-35 0 -63 -14t-48 -40.5t-31 -63.5t-11 -83q0 -45 11 -82t32.5 -64t52 -41.5t69.5 -14.5q17 0 29 2.5t24 6.5v174z" />
    <glyph glyph-name="Gbreve.aalt" horiz-adv-x="519" 
d="M448 731q-3 -44 -15.5 -76t-33 -52t-47.5 -29.5t-57 -9.5q-31 0 -57.5 9.5t-47 29.5t-33.5 52t-16 76h52q9 -54 33 -76.5t69 -22.5t68 22.5t33 76.5h52zM371 223h101v-193q-35 -23 -76.5 -34t-102.5 -11q-55 0 -101.5 18t-80.5 51t-53.5 79.5t-19.5 104.5
q0 55 19.5 102.5t54.5 82.5t83 54.5t105 19.5q109 0 179 -55l-41 -69q-25 32 -56.5 51t-75.5 19q-35 0 -63 -14t-48 -40.5t-31 -63.5t-11 -83q0 -45 11 -82t32.5 -64t52 -41.5t69.5 -14.5q17 0 29 2.5t24 6.5v174z" />
    <glyph glyph-name="Gdotaccent.aalt" horiz-adv-x="519" 
d="M302 570q-27 0 -44.5 19.5t-17.5 45.5t17.5 45.5t44.5 19.5q28 0 45.5 -19.5t17.5 -45.5t-17.5 -45.5t-45.5 -19.5zM371 223h101v-193q-35 -23 -76.5 -34t-102.5 -11q-55 0 -101.5 18t-80.5 51t-53.5 79.5t-19.5 104.5q0 55 19.5 102.5t54.5 82.5t83 54.5t105 19.5
q109 0 179 -55l-41 -69q-25 32 -56.5 51t-75.5 19q-35 0 -63 -14t-48 -40.5t-31 -63.5t-11 -83q0 -45 11 -82t32.5 -64t52 -41.5t69.5 -14.5q17 0 29 2.5t24 6.5v174z" />
    <glyph glyph-name="Gcommaaccent.aalt" horiz-adv-x="519" 
d="M231 -265q28 12 48.5 31.5t20.5 51.5q0 52 -74 72q0 24 17.5 42t49.5 18q37 0 61 -27.5t24 -64.5q0 -54 -37 -93t-96 -62zM371 223h101v-193q-35 -23 -76.5 -34t-102.5 -11q-55 0 -101.5 18t-80.5 51t-53.5 79.5t-19.5 104.5q0 55 19.5 102.5t54.5 82.5t83 54.5t105 19.5
q109 0 179 -55l-41 -69q-25 32 -56.5 51t-75.5 19q-35 0 -63 -14t-48 -40.5t-31 -63.5t-11 -83q0 -45 11 -82t32.5 -64t52 -41.5t69.5 -14.5q17 0 29 2.5t24 6.5v174z" />
    <glyph glyph-name="Hcircumflex.aalt" horiz-adv-x="560" 
d="M380 0v216h-200v-216h-108v482h108v-210h200v210h108v-482h-108zM395 554l-112 119h-5l-114 -119h-48l126 200h77l125 -200h-49z" />
    <glyph glyph-name="Hbar.aalt" horiz-adv-x="591" 
d="M396 0v187h-200v-187h-108v325h-79v49h79v108h108v-108h200v108h108v-108h78v-49h-78v-325h-108zM396 325h-200v-84h200v84z" />
    <glyph glyph-name="Igrave.aalt" horiz-adv-x="252" 
d="M72 0v482h108v-482h-108zM108 554l-163 177h119l93 -177h-49z" />
    <glyph glyph-name="Iacute.aalt" horiz-adv-x="252" 
d="M72 0v482h108v-482h-108zM95 554l93 177h119l-163 -177h-49z" />
    <glyph glyph-name="Icircumflex.aalt" horiz-adv-x="252" 
d="M72 0v482h108v-482h-108zM242 554l-113 119h-5l-113 -119h-49l126 200h77l126 -200h-49z" />
    <glyph glyph-name="Idieresis.aalt" horiz-adv-x="252" 
d="M72 0v482h108v-482h-108zM23 570q-28 0 -45.5 19.5t-17.5 45.5t17.5 45.5t45.5 19.5t45 -19.5t17 -45.5t-17 -45.5t-45 -19.5zM229 570q-28 0 -45 19.5t-17 45.5t17 45.5t45 19.5t45.5 -19.5t17.5 -45.5t-17.5 -45.5t-45.5 -19.5z" />
    <glyph glyph-name="Imacron.aalt" horiz-adv-x="252" 
d="M72 0v482h108v-482h-108zM-14 598v56h279v-56h-279z" />
    <glyph glyph-name="Ibreve.aalt" horiz-adv-x="252" 
d="M72 0v482h108v-482h-108zM279 731q-3 -44 -15.5 -76t-33 -52t-47.5 -29.5t-57 -9.5t-57 9.5t-47.5 29.5t-33.5 52t-16 76h52q10 -54 33.5 -76.5t68.5 -22.5t68.5 22.5t33.5 76.5h51z" />
    <glyph glyph-name="Iogonek.aalt" horiz-adv-x="252" 
d="M247 -186q-17 -26 -46 -43t-73 -17q-50 0 -79 27t-29 75q0 39 27.5 76.5t78.5 67.5h-54v482h108v-482q-35 -28 -55 -59.5t-20 -63.5q0 -27 15 -44.5t44 -17.5q20 0 36.5 9.5t27.5 23.5z" />
    <glyph glyph-name="Idotaccent.aalt" horiz-adv-x="252" 
d="M72 0v482h108v-482h-108zM126 570q-27 0 -44.5 19.5t-17.5 45.5t17.5 45.5t44.5 19.5q28 0 45.5 -19.5t17.5 -45.5t-17.5 -45.5t-45.5 -19.5z" />
    <glyph glyph-name="dotlessi.aalt" horiz-adv-x="252" 
d="M72 0v482h108v-482h-108z" />
    <glyph glyph-name="jcircumflex.aalt" horiz-adv-x="397" 
d="M382 554l-112 119h-5l-114 -119h-48l126 200h77l125 -200h-49zM219 482h108v-298q0 -100 -39.5 -149.5t-134.5 -49.5q-38 0 -75.5 16t-61.5 46l50 62q34 -70 88 -70q28 0 46.5 18.5t18.5 50.5v374z" />
    <glyph glyph-name="jcircumflex.aalt.aalt" horiz-adv-x="252" 
d="M241 554l-112 119h-6l-113 -119h-48l125 200h78l125 -200h-49zM-83 -186l11 87q17 -15 34 -23.5t40 -8.5q32 0 51 21.5t19 66.5v525h108v-455q0 -108 -46.5 -160.5t-130.5 -52.5h-86z" />
    <glyph glyph-name="uni0237.aalt" horiz-adv-x="397" 
d="M219 482h108v-298q0 -100 -39.5 -149.5t-134.5 -49.5q-38 0 -75.5 16t-61.5 46l50 62q34 -70 88 -70q28 0 46.5 18.5t18.5 50.5v374z" />
    <glyph glyph-name="Kcommaaccent.aalt" horiz-adv-x="510" 
d="M367 0l-139 226l-48 -49v-177h-108v482h108v-232l230 232h77l-184 -183l187 -299h-123zM206 -265q28 12 48.5 31.5t20.5 51.5q0 52 -74 72q0 24 18 42t50 18q18 0 33.5 -7.5t27 -20t18 -29.5t6.5 -35q0 -54 -37.5 -93t-95.5 -62z" />
    <glyph glyph-name="Lacute.aalt" horiz-adv-x="438" 
d="M72 0v482h108v-427h74q49 0 88 5t72 16v-76h-342zM95 554l93 177h119l-163 -177h-49z" />
    <glyph glyph-name="Lcommaaccent.aalt" horiz-adv-x="438" 
d="M72 0v482h108v-427h74q49 0 88 5t72 16v-76h-342zM175 -265q28 12 48.5 31.5t20.5 51.5q0 52 -74 72q0 24 18 42t50 18q18 0 33.5 -7.5t26.5 -20t17.5 -29.5t6.5 -35q0 -54 -37 -93t-95 -62z" />
    <glyph glyph-name="Lcaron.aalt" horiz-adv-x="590" 
d="M390 238q38 29 61 61t23 69q0 59 -82 90q0 27 20 48t56 21q20 0 38 -8.5t31.5 -23t21.5 -34.5t8 -43q0 -33 -11.5 -62t-32 -55.5t-48.5 -50t-61 -44.5zM72 0v482h108v-427h74q49 0 88 5t72 16v-76h-342z" />
    <glyph glyph-name="Ldot.aalt" horiz-adv-x="544" 
d="M523 257q0 -30 -21.5 -51.5t-51.5 -21.5q-31 0 -52 21.5t-21 51.5q0 31 21 52.5t52 21.5q30 0 51.5 -21.5t21.5 -52.5zM72 0v482h108v-427h74q49 0 88 5t72 16v-76h-342z" />
    <glyph glyph-name="Lslash.aalt" horiz-adv-x="456" 
d="M90 0v193l-74 -20v47l74 20v242h108v-212l92 25v-47l-92 -26v-167h74q49 0 88 5t72 16v-76h-342z" />
    <glyph glyph-name="Ntilde.aalt" horiz-adv-x="571" 
d="M382 -5l-247 375h-7v-370h-56v479l115 7l248 -380h8v376h56v-479zM475 699q-8 -68 -34.5 -101t-76.5 -33q-23 0 -43.5 11t-38.5 24.5t-33.5 25t-29.5 11.5q-20 0 -31.5 -14.5t-19.5 -48.5h-48q9 68 35.5 101t74.5 33q23 0 43.5 -11.5t38.5 -25t33.5 -24.5t29.5 -11
q20 0 33 14.5t21 48.5h46z" />
    <glyph glyph-name="Nacute.aalt" horiz-adv-x="571" 
d="M382 -5l-247 375h-7v-370h-56v479l115 7l248 -380h8v376h56v-479zM266 554l93 177h119l-163 -177h-49z" />
    <glyph glyph-name="Ncommaaccent.aalt" horiz-adv-x="571" 
d="M382 -5l-247 375h-7v-370h-56v479l115 7l248 -380h8v376h56v-479zM205 -265q28 12 48.5 31.5t20.5 51.5q0 52 -74 72q0 24 18 42t50 18q18 0 33.5 -7.5t27 -20t18 -29.5t6.5 -35q0 -54 -37.5 -93t-95.5 -62z" />
    <glyph glyph-name="Ncaron.aalt" horiz-adv-x="571" 
d="M382 -5l-247 375h-7v-370h-56v479l115 7l248 -380h8v376h56v-479zM261 554l-126 200h49l113 -119h5l113 119h49l-126 -200h-77z" />
    <glyph glyph-name="Ograve.aalt" horiz-adv-x="586" 
d="M291 554l-163 177h119l94 -177h-50zM290 -15q-54 0 -100 18t-80 51t-53 79.5t-19 103.5q0 56 20.5 104t55.5 82.5t81.5 54t99.5 19.5q54 0 100.5 -18t80 -51t53 -79.5t19.5 -103.5t-20.5 -104.5t-55.5 -82t-82 -54t-100 -19.5zM294 39q29 0 54.5 12t44 36t29.5 61t11 87
q0 51 -11 89.5t-30 65t-45.5 40t-56.5 13.5q-29 0 -53.5 -12t-43.5 -36t-29.5 -61t-10.5 -87q0 -100 40 -154t101 -54z" />
    <glyph glyph-name="Oacute.aalt" horiz-adv-x="586" 
d="M252 554l93 177h119l-163 -177h-49zM290 -15q-54 0 -100 18t-80 51t-53 79.5t-19 103.5q0 56 20.5 104t55.5 82.5t81.5 54t99.5 19.5q54 0 100.5 -18t80 -51t53 -79.5t19.5 -103.5t-20.5 -104.5t-55.5 -82t-82 -54t-100 -19.5zM294 39q29 0 54.5 12t44 36t29.5 61t11 87
q0 51 -11 89.5t-30 65t-45.5 40t-56.5 13.5q-29 0 -53.5 -12t-43.5 -36t-29.5 -61t-10.5 -87q0 -100 40 -154t101 -54z" />
    <glyph glyph-name="Ocircumflex.aalt" horiz-adv-x="586" 
d="M409 554l-113 118h-5l-113 -118h-49l126 200h77l126 -200h-49zM290 -15q-54 0 -100 18t-80 51t-53 79.5t-19 103.5q0 56 20.5 104t55.5 82.5t81.5 54t99.5 19.5q54 0 100.5 -18t80 -51t53 -79.5t19.5 -103.5t-20.5 -104.5t-55.5 -82t-82 -54t-100 -19.5zM294 39
q29 0 54.5 12t44 36t29.5 61t11 87q0 51 -11 89.5t-30 65t-45.5 40t-56.5 13.5q-29 0 -53.5 -12t-43.5 -36t-29.5 -61t-10.5 -87q0 -100 40 -154t101 -54z" />
    <glyph glyph-name="Otilde.aalt" horiz-adv-x="586" 
d="M471 699q-8 -69 -35 -101.5t-77 -32.5q-23 0 -43 11t-38 24.5t-33.5 25t-29.5 11.5q-20 0 -31.5 -15t-19.5 -48h-49q10 68 36.5 101t74.5 33q23 0 43.5 -11.5t38.5 -25t33.5 -24.5t29.5 -11q20 0 33 14.5t21 48.5h46zM290 -15q-54 0 -100 18t-80 51t-53 79.5t-19 103.5
q0 56 20.5 104t55.5 82.5t81.5 54t99.5 19.5q54 0 100.5 -18t80 -51t53 -79.5t19.5 -103.5t-20.5 -104.5t-55.5 -82t-82 -54t-100 -19.5zM294 39q29 0 54.5 12t44 36t29.5 61t11 87q0 51 -11 89.5t-30 65t-45.5 40t-56.5 13.5q-29 0 -53.5 -12t-43.5 -36t-29.5 -61
t-10.5 -87q0 -100 40 -154t101 -54z" />
    <glyph glyph-name="Odieresis.aalt" horiz-adv-x="586" 
d="M396 570q-28 0 -45 19t-17 45q0 27 17 46.5t45 19.5t45.5 -19.5t17.5 -46.5q0 -26 -17.5 -45t-45.5 -19zM190 570q-28 0 -45.5 19t-17.5 45q0 27 17.5 46.5t45.5 19.5t45 -19.5t17 -46.5q0 -26 -17 -45t-45 -19zM290 -15q-54 0 -100 18t-80 51t-53 79.5t-19 103.5
q0 56 20.5 104t55.5 82.5t81.5 54t99.5 19.5q54 0 100.5 -18t80 -51t53 -79.5t19.5 -103.5t-20.5 -104.5t-55.5 -82t-82 -54t-100 -19.5zM294 39q29 0 54.5 12t44 36t29.5 61t11 87q0 51 -11 89.5t-30 65t-45.5 40t-56.5 13.5q-29 0 -53.5 -12t-43.5 -36t-29.5 -61
t-10.5 -87q0 -100 40 -154t101 -54z" />
    <glyph glyph-name="Omacron.aalt" horiz-adv-x="586" 
d="M154 597v56h278v-56h-278zM290 -15q-54 0 -100 18t-80 51t-53 79.5t-19 103.5q0 56 20.5 104t55.5 82.5t81.5 54t99.5 19.5q54 0 100.5 -18t80 -51t53 -79.5t19.5 -103.5t-20.5 -104.5t-55.5 -82t-82 -54t-100 -19.5zM294 39q29 0 54.5 12t44 36t29.5 61t11 87
q0 51 -11 89.5t-30 65t-45.5 40t-56.5 13.5q-29 0 -53.5 -12t-43.5 -36t-29.5 -61t-10.5 -87q0 -100 40 -154t101 -54z" />
    <glyph glyph-name="Obreve.aalt" horiz-adv-x="586" 
d="M447 731q-3 -45 -16 -76.5t-33.5 -51.5t-47.5 -29.5t-57 -9.5t-57 9.5t-47.5 29.5t-33 51.5t-15.5 76.5h51q10 -54 33.5 -76.5t68.5 -22.5t68.5 23t33.5 76h52zM290 -15q-54 0 -100 18t-80 51t-53 79.5t-19 103.5q0 56 20.5 104t55.5 82.5t81.5 54t99.5 19.5
q54 0 100.5 -18t80 -51t53 -79.5t19.5 -103.5t-20.5 -104.5t-55.5 -82t-82 -54t-100 -19.5zM294 39q29 0 54.5 12t44 36t29.5 61t11 87q0 51 -11 89.5t-30 65t-45.5 40t-56.5 13.5q-29 0 -53.5 -12t-43.5 -36t-29.5 -61t-10.5 -87q0 -100 40 -154t101 -54z" />
    <glyph glyph-name="Ohungarumlaut.aalt" horiz-adv-x="586" 
d="M365 554l88 177h117l-158 -177h-47zM195 554l88 177h117l-159 -177h-46zM290 -15q-54 0 -100 18t-80 51t-53 79.5t-19 103.5q0 56 20.5 104t55.5 82.5t81.5 54t99.5 19.5q54 0 100.5 -18t80 -51t53 -79.5t19.5 -103.5t-20.5 -104.5t-55.5 -82t-82 -54t-100 -19.5zM294 39
q29 0 54.5 12t44 36t29.5 61t11 87q0 51 -11 89.5t-30 65t-45.5 40t-56.5 13.5q-29 0 -53.5 -12t-43.5 -36t-29.5 -61t-10.5 -87q0 -100 40 -154t101 -54z" />
    <glyph glyph-name="Oslash.aalt" horiz-adv-x="590" 
d="M87 -77q14 26 29 51.5t30 50.5q-50 32 -79 86.5t-29 125.5q0 56 20.5 104t56 82.5t82.5 54t100 19.5q61 0 109 -22q14 23 27 46l26 46l44 -9l-60 -102q50 -33 79.5 -87t29.5 -124q0 -57 -21 -104.5t-56.5 -82t-83 -54t-99.5 -19.5q-29 0 -56.5 5.5t-51.5 15.5l-54 -91z
M372 414q-35 29 -80 29q-29 0 -54.5 -12t-44 -36t-29.5 -61t-11 -87q0 -47 10 -83.5t27 -62.5zM219 67q32 -29 77 -29q29 0 54.5 12t44.5 36.5t30 61.5t11 87q0 47 -10 83t-27 61z" />
    <glyph glyph-name="Oslashacute.aalt" horiz-adv-x="590" 
d="M265 554l94 177h119l-163 -177h-50zM87 -77q14 26 29 51.5t30 50.5q-50 32 -79 86.5t-29 125.5q0 56 20.5 104t56 82.5t82.5 54t100 19.5q61 0 109 -22q14 23 27 46l26 46l44 -9l-60 -102q50 -33 79.5 -87t29.5 -124q0 -57 -21 -104.5t-56.5 -82t-83 -54t-99.5 -19.5
q-29 0 -56.5 5.5t-51.5 15.5l-54 -91zM372 414q-35 29 -80 29q-29 0 -54.5 -12t-44 -36t-29.5 -61t-11 -87q0 -47 10 -83.5t27 -62.5zM219 67q32 -29 77 -29q29 0 54.5 12t44.5 36.5t30 61.5t11 87q0 47 -10 83t-27 61z" />
    <glyph glyph-name="OE.aalt" horiz-adv-x="769" 
d="M298 0q-121 0 -190.5 62.5t-69.5 175.5q0 57 19 102t53.5 76.5t82.5 48.5t107 17h425v-77q-63 21 -160 21h-81v-157h163v-53h-163v-161h81q97 0 160 21v-76h-427zM377 426h-71q-67 0 -109 -45.5t-42 -136.5q0 -92 42.5 -140.5t110.5 -48.5h69v371z" />
    <glyph glyph-name="Thorn.aalt" horiz-adv-x="480" 
d="M72 0v482h108v-80l53 2q106 2 160.5 -41t54.5 -111q0 -40 -17.5 -70t-47 -50.5t-68.5 -31t-83 -10.5q-12 0 -26.5 0.5t-25.5 1.5v-92h-108zM180 350v-204q10 -2 23 -3t30 -1q45 0 72 26.5t27 73.5q0 50 -29 79t-80 29h-43z" />
    <glyph glyph-name="Racute.aalt" horiz-adv-x="507" 
d="M190 554l93 177h119l-163 -177h-49zM358 0l-115 192l-63 3v-195h-108v481l189 3q46 1 81 -9.5t59 -29t36 -43t12 -52.5q0 -49 -28 -84t-73 -53l135 -213h-125zM180 429v-177q11 -2 23.5 -3t26.5 -1q47 0 75 23.5t28 65.5q0 44 -27 68t-81 24h-45z" />
    <glyph glyph-name="Rcommaaccent.aalt" horiz-adv-x="507" 
d="M191 -265q28 12 48.5 31.5t20.5 51.5q0 52 -74 72q0 24 18 42t50 18q18 0 33.5 -7.5t26.5 -20t17.5 -29.5t6.5 -35q0 -54 -37 -93t-95 -62zM358 0l-115 192l-63 3v-195h-108v481l189 3q46 1 81 -9.5t59 -29t36 -43t12 -52.5q0 -49 -28 -84t-73 -53l135 -213h-125z
M180 429v-177q11 -2 23.5 -3t26.5 -1q47 0 75 23.5t28 65.5q0 44 -27 68t-81 24h-45z" />
    <glyph glyph-name="Rcaron.aalt" horiz-adv-x="507" 
d="M199 554l-126 200h49l113 -119h5l113 119h49l-126 -200h-77zM358 0l-115 192l-63 3v-195h-108v481l189 3q46 1 81 -9.5t59 -29t36 -43t12 -52.5q0 -49 -28 -84t-73 -53l135 -213h-125zM180 429v-177q11 -2 23.5 -3t26.5 -1q47 0 75 23.5t28 65.5q0 44 -27 68t-81 24h-45z
" />
    <glyph glyph-name="Sacute.aalt" horiz-adv-x="469" 
d="M181 554l93 177h119l-163 -177h-49zM80 96q26 -27 63.5 -42t82.5 -15q51 0 77 20t26 48q0 35 -30 54.5t-81 34.5q-89 25 -131 61t-42 97q0 30 12 55.5t36 45t60 31t83 11.5q46 0 91.5 -9.5t79.5 -28.5l-30 -73q-26 25 -64 40.5t-83 15.5q-47 0 -68.5 -17t-21.5 -43
q0 -33 28.5 -50t76.5 -32q44 -13 77.5 -27.5t56 -33.5t34 -43.5t11.5 -58.5q0 -32 -14 -59.5t-40.5 -48t-65.5 -32.5t-90 -12q-43 0 -87 9.5t-79 26.5z" />
    <glyph glyph-name="Scircumflex.aalt" horiz-adv-x="469" 
d="M347 554l-113 119h-5l-113 -119h-49l126 200h77l126 -200h-49zM80 96q26 -27 63.5 -42t82.5 -15q51 0 77 20t26 48q0 35 -30 54.5t-81 34.5q-89 25 -131 61t-42 97q0 30 12 55.5t36 45t60 31t83 11.5q46 0 91.5 -9.5t79.5 -28.5l-30 -73q-26 25 -64 40.5t-83 15.5
q-47 0 -68.5 -17t-21.5 -43q0 -33 28.5 -50t76.5 -32q44 -13 77.5 -27.5t56 -33.5t34 -43.5t11.5 -58.5q0 -32 -14 -59.5t-40.5 -48t-65.5 -32.5t-90 -12q-43 0 -87 9.5t-79 26.5z" />
    <glyph glyph-name="Scedilla.aalt" horiz-adv-x="469" 
d="M125 -234q76 0 112 17t36 46q0 21 -21.5 33.5t-63.5 12.5q-17 0 -34 -1t-34 -5v31l81 85q-40 2 -80.5 11t-72.5 25l32 75q26 -27 63.5 -42t82.5 -15q51 0 77 20t26 48q0 35 -30 54.5t-81 34.5q-89 25 -131 61t-42 97q0 30 12 55.5t36 45t60 31t83 11.5q46 0 91.5 -9.5
t79.5 -28.5l-30 -73q-26 25 -64 40.5t-83 15.5q-47 0 -68.5 -17t-21.5 -43q0 -33 28.5 -50t76.5 -32q44 -13 77.5 -27.5t56 -33.5t34 -43.5t11.5 -58.5q0 -57 -42.5 -98t-123.5 -51l-48 -50q65 0 105.5 -24.5t40.5 -68.5q0 -54 -58 -88t-173 -34v43z" />
    <glyph glyph-name="Scommaaccent.aalt" horiz-adv-x="469" 
d="M151 -265q28 12 48.5 31.5t20.5 51.5q0 52 -75 72q0 24 18 42t50 18q37 0 61 -27.5t24 -64.5q0 -54 -37 -93t-96 -62zM80 96q26 -27 63.5 -42t82.5 -15q51 0 77 20t26 48q0 35 -30 54.5t-81 34.5q-89 25 -131 61t-42 97q0 30 12 55.5t36 45t60 31t83 11.5q46 0 91.5 -9.5
t79.5 -28.5l-30 -73q-26 25 -64 40.5t-83 15.5q-47 0 -68.5 -17t-21.5 -43q0 -33 28.5 -50t76.5 -32q44 -13 77.5 -27.5t56 -33.5t34 -43.5t11.5 -58.5q0 -32 -14 -59.5t-40.5 -48t-65.5 -32.5t-90 -12q-43 0 -87 9.5t-79 26.5z" />
    <glyph glyph-name="Scaron.aalt" horiz-adv-x="469" 
d="M193 554l-126 200h49l113 -119h5l113 119h49l-126 -200h-77zM80 96q26 -27 63.5 -42t82.5 -15q51 0 77 20t26 48q0 35 -30 54.5t-81 34.5q-89 25 -131 61t-42 97q0 30 12 55.5t36 45t60 31t83 11.5q46 0 91.5 -9.5t79.5 -28.5l-30 -73q-26 25 -64 40.5t-83 15.5
q-47 0 -68.5 -17t-21.5 -43q0 -33 28.5 -50t76.5 -32q44 -13 77.5 -27.5t56 -33.5t34 -43.5t11.5 -58.5q0 -32 -14 -59.5t-40.5 -48t-65.5 -32.5t-90 -12q-43 0 -87 9.5t-79 26.5z" />
    <glyph glyph-name="Tcommaaccent.aalt" horiz-adv-x="502" 
d="M197 0v426h-19q-48 0 -86.5 -5.5t-66.5 -15.5v77h452v-77q-28 10 -66.5 15.5t-86.5 5.5h-19v-426h-108zM182 -265q28 12 48.5 31.5t20.5 51.5q0 52 -74 72q0 24 18 42t50 18q18 0 33.5 -7.5t26.5 -20t17.5 -29.5t6.5 -35q0 -54 -37 -93t-95 -62z" />
    <glyph glyph-name="Tcaron.aalt" horiz-adv-x="502" 
d="M197 0v426h-19q-48 0 -86.5 -5.5t-66.5 -15.5v77h452v-77q-28 10 -66.5 15.5t-86.5 5.5h-19v-426h-108zM212 554l-125 200h49l112 -119h6l113 119h48l-125 -200h-78z" />
    <glyph glyph-name="Ugrave.aalt" horiz-adv-x="530" 
d="M405 482h57v-323q0 -39 -15 -71.5t-41.5 -55t-62.5 -35t-78 -12.5t-78 12.5t-62.5 35t-41.5 55t-15 71.5v323h108v-312q0 -54 32 -86.5t83 -32.5t82.5 32.5t31.5 86.5v312zM270 554l-163 177h120l93 -177h-50z" />
    <glyph glyph-name="Uacute.aalt" horiz-adv-x="530" 
d="M405 482h57v-323q0 -39 -15 -71.5t-41.5 -55t-62.5 -35t-78 -12.5t-78 12.5t-62.5 35t-41.5 55t-15 71.5v323h108v-312q0 -54 32 -86.5t83 -32.5t82.5 32.5t31.5 86.5v312zM261 554l94 177h119l-163 -177h-50z" />
    <glyph glyph-name="Ucircumflex.aalt" horiz-adv-x="530" 
d="M405 482h57v-323q0 -39 -15 -71.5t-41.5 -55t-62.5 -35t-78 -12.5t-78 12.5t-62.5 35t-41.5 55t-15 71.5v323h108v-312q0 -54 32 -86.5t83 -32.5t82.5 32.5t31.5 86.5v312zM385 554l-113 119h-5l-113 -119h-49l126 200h77l126 -200h-49z" />
    <glyph glyph-name="Udieresis.aalt" horiz-adv-x="530" 
d="M405 482h57v-323q0 -39 -15 -71.5t-41.5 -55t-62.5 -35t-78 -12.5t-78 12.5t-62.5 35t-41.5 55t-15 71.5v323h108v-312q0 -54 32 -86.5t83 -32.5t82.5 32.5t31.5 86.5v312zM165 570q-27 0 -45 19.5t-18 45.5t18 45.5t45 19.5q28 0 45 -19.5t17 -45.5t-17 -45.5t-45 -19.5
zM371 570q-27 0 -44.5 19.5t-17.5 45.5t17.5 45.5t44.5 19.5q28 0 45.5 -19.5t17.5 -45.5t-17.5 -45.5t-45.5 -19.5z" />
    <glyph glyph-name="Umacron.aalt" horiz-adv-x="530" 
d="M405 482h57v-323q0 -39 -15 -71.5t-41.5 -55t-62.5 -35t-78 -12.5t-78 12.5t-62.5 35t-41.5 55t-15 71.5v323h108v-312q0 -54 32 -86.5t83 -32.5t82.5 32.5t31.5 86.5v312zM132 597v56h279v-56h-279z" />
    <glyph glyph-name="Ubreve.aalt" horiz-adv-x="530" 
d="M405 482h57v-323q0 -39 -15 -71.5t-41.5 -55t-62.5 -35t-78 -12.5t-78 12.5t-62.5 35t-41.5 55t-15 71.5v323h108v-312q0 -54 32 -86.5t83 -32.5t82.5 32.5t31.5 86.5v312zM438 731q-3 -44 -15.5 -76t-33 -52t-47.5 -29.5t-57 -9.5t-57 9.5t-47.5 29.5t-33 52t-15.5 76
h51q10 -54 33.5 -76t68.5 -22t68.5 22t33.5 76h51z" />
    <glyph glyph-name="Uring.aalt" horiz-adv-x="530" 
d="M405 482h57v-323q0 -39 -15 -71.5t-41.5 -55t-62.5 -35t-78 -12.5t-78 12.5t-62.5 35t-41.5 55t-15 71.5v323h108v-312q0 -54 32 -86.5t83 -32.5t82.5 32.5t31.5 86.5v312zM284 537q-26 0 -46.5 9t-35 24.5t-22.5 36t-8 43.5t8 43.5t22.5 36t35 24.5t46.5 9t46.5 -9
t35 -24.5t22.5 -36t8 -43.5t-8 -43.5t-22.5 -36t-35 -24.5t-46.5 -9zM284 581q31 0 48 21.5t17 47.5t-17 47.5t-48 21.5t-48 -21.5t-17 -47.5t17 -47.5t48 -21.5z" />
    <glyph glyph-name="Uhungarumlaut.aalt" horiz-adv-x="530" 
d="M405 482h57v-323q0 -39 -15 -71.5t-41.5 -55t-62.5 -35t-78 -12.5t-78 12.5t-62.5 35t-41.5 55t-15 71.5v323h108v-312q0 -54 32 -86.5t83 -32.5t82.5 32.5t31.5 86.5v312zM167 554l89 177h116l-158 -177h-47zM337 554l89 177h116l-158 -177h-47z" />
    <glyph glyph-name="Uogonek.aalt" horiz-adv-x="530" 
d="M428 -186q-17 -26 -46.5 -43t-72.5 -17q-51 0 -80 27t-29 75q0 32 22 66.5t60 63.5q-4 -1 -8.5 -1h-8.5q-42 0 -78 12.5t-62.5 35t-41.5 55t-15 71.5v323h108v-312q0 -54 32 -86.5t83 -32.5t82.5 32.5t31.5 86.5v312h57v-323q0 -49 -23.5 -86.5t-61.5 -60.5
q-44 -31 -67.5 -66.5t-23.5 -68.5q0 -28 14.5 -45.5t43.5 -17.5q21 0 37.5 10t27.5 23z" />
    <glyph glyph-name="Wcircumflex.aalt" horiz-adv-x="757" 
d="M471 -4l-89 285h-8l-88 -285h-102l-162 486h112l123 -382h9l86 276l-34 106h110l116 -382h8l122 382h61l-162 -486h-102zM499 554l-113 119h-5l-113 -119h-49l126 200h77l126 -200h-49z" />
    <glyph glyph-name="Wgrave.aalt" horiz-adv-x="757" 
d="M471 -4l-89 285h-8l-88 -285h-102l-162 486h112l123 -382h9l86 276l-34 106h110l116 -382h8l122 382h61l-162 -486h-102zM349 554l-163 177h119l94 -177h-50z" />
    <glyph glyph-name="Wacute.aalt" horiz-adv-x="757" 
d="M471 -4l-89 285h-8l-88 -285h-102l-162 486h112l123 -382h9l86 276l-34 106h110l116 -382h8l122 382h61l-162 -486h-102zM334 554l93 177h119l-163 -177h-49z" />
    <glyph glyph-name="Wdieresis.aalt" horiz-adv-x="757" 
d="M471 -4l-89 285h-8l-88 -285h-102l-162 486h112l123 -382h9l86 276l-34 106h110l116 -382h8l122 382h61l-162 -486h-102zM275 570q-27 0 -44.5 19.5t-17.5 45.5t17.5 45.5t44.5 19.5q28 0 45 -19.5t17 -45.5t-17 -45.5t-45 -19.5zM481 570q-27 0 -44.5 19.5t-17.5 45.5
t17.5 45.5t44.5 19.5q28 0 45.5 -19.5t17.5 -45.5t-17.5 -45.5t-45.5 -19.5z" />
    <glyph glyph-name="Yacute.aalt" horiz-adv-x="498" 
d="M234 554l94 177h118l-162 -177h-50zM195 0v192l-173 290h121l132 -229h4l133 229h64l-173 -290v-192h-108z" />
    <glyph glyph-name="Ycircumflex.aalt" horiz-adv-x="498" 
d="M375 554l-112 118h-6l-113 -118h-49l126 200h78l125 -200h-49zM195 0v192l-173 290h121l132 -229h4l133 229h64l-173 -290v-192h-108z" />
    <glyph glyph-name="Ydieresis.aalt" horiz-adv-x="498" 
d="M153 570q-26 0 -44.5 19.5t-18.5 45.5q0 27 18.5 46.5t44.5 19.5t44 -19.5t18 -46.5q0 -26 -18 -45.5t-44 -19.5zM359 570q-26 0 -44.5 19.5t-18.5 45.5q0 27 18.5 46.5t44.5 19.5t44.5 -19.5t18.5 -46.5q0 -26 -18.5 -45.5t-44.5 -19.5zM195 0v192l-173 290h121
l132 -229h4l133 229h64l-173 -290v-192h-108z" />
    <glyph glyph-name="Zacute.aalt" horiz-adv-x="477" 
d="M32 0v49l284 379h-113q-49 0 -88 -5.5t-72 -16.5v76h402v-49l-284 -380h119q49 0 88 6t72 17v-76h-408zM186 554l93 177h119l-163 -177h-49z" />
    <glyph glyph-name="Zdotaccent.aalt" horiz-adv-x="477" 
d="M32 0v49l284 379h-113q-49 0 -88 -5.5t-72 -16.5v76h402v-49l-284 -380h119q49 0 88 6t72 17v-76h-408zM237 570q-28 0 -45 19.5t-17 45.5t17 46t45 20t45.5 -20t17.5 -46t-17.5 -45.5t-45.5 -19.5z" />
    <glyph glyph-name="Zcaron.aalt" horiz-adv-x="477" 
d="M32 0v49l284 379h-113q-49 0 -88 -5.5t-72 -16.5v76h402v-49l-284 -380h119q49 0 88 6t72 17v-76h-408zM200 554l-126 200h49l113 -119h5l113 119h49l-126 -200h-77z" />
    <glyph glyph-name="slash.aalt" horiz-adv-x="207" 
d="M-193 -116l535 741h58l-535 -741h-58z" />
    <glyph glyph-name="uni207A.aalt" horiz-adv-x="350" 
d="M157 -78v105h-105v38h105v105h38v-105h104v-38h-104v-105h-38z" />
    <glyph glyph-name="uni207B.aalt" horiz-adv-x="350" 
d="M52 27v38h247v-38h-247z" />
    <glyph glyph-name="zero.lnum" 
d="M247 -15q-46 0 -86.5 20.5t-70.5 60.5t-47.5 99.5t-17.5 138.5q0 75 17 137t47.5 106t72 68.5t90.5 24.5q46 0 86.5 -21t70.5 -62t47.5 -101t17.5 -138q0 -74 -16.5 -135t-46 -105t-71.5 -68.5t-93 -24.5zM254 40q95 0 95 262q0 142 -24.5 212.5t-79.5 70.5
q-45 0 -70 -65.5t-25 -197.5q0 -143 25 -212.5t79 -69.5z" />
    <glyph glyph-name="one.lnum" 
d="M209 0v533h-119v51l233 55v-639h-114z" />
    <glyph glyph-name="two.lnum" 
d="M60 0l-8 61q73 69 126 124t87 100.5t50 83t16 72.5q0 59 -33.5 89.5t-88.5 30.5q-41 0 -78 -20t-67 -48l-36 40q42 45 100 76t130 31q47 0 84 -13t62.5 -36t38.5 -53.5t13 -66.5q0 -42 -16 -80.5t-49.5 -80.5t-86 -90.5t-125.5 -110.5v-9h273v-100h-392z" />
    <glyph glyph-name="three.lnum" 
d="M84 117q19 -40 53.5 -58.5t69.5 -18.5q58 0 92.5 32t34.5 91q0 60 -33.5 88.5t-89.5 28.5q-19 0 -39.5 -4.5t-39.5 -13.5l-18 52q97 40 144 79.5t47 84.5q0 41 -24.5 64t-72.5 23q-36 0 -71 -19t-64 -45l-35 44q46 44 103 69.5t124 25.5q35 0 65 -9t52 -25.5t34.5 -39.5
t12.5 -51q0 -52 -33.5 -91t-107.5 -68l3 -7q35 -1 65.5 -12.5t53 -32t35.5 -49.5t13 -64q0 -44 -16 -81.5t-47.5 -65.5t-78.5 -43.5t-108 -15.5q-48 0 -91 13.5t-78 41.5z" />
    <glyph glyph-name="four.lnum" 
d="M291 0v144h-261l-9 65l302 420h78v-393h78v-92h-78v-144h-110zM291 482h-7l-176 -246h183v246z" />
    <glyph glyph-name="five.lnum" 
d="M83 118q28 -41 59 -59.5t79 -18.5q53 0 87 31.5t34 80.5q0 34 -13.5 62t-45 50t-83.5 37t-128 23l71 301h301v-100h-266l-23 -98q80 -12 134.5 -33.5t88 -51t48 -66t14.5 -77.5q0 -43 -14.5 -81.5t-42 -68t-67 -47t-89.5 -17.5q-53 0 -103 13.5t-85 41.5z" />
    <glyph glyph-name="six.lnum" 
d="M159 337q68 51 137 51q38 0 70 -14.5t55 -40t36 -60.5t13 -75q0 -49 -18.5 -88.5t-49.5 -67t-70 -42.5t-79 -15q-51 0 -92.5 18.5t-70.5 51.5t-44.5 78t-15.5 97q0 88 34 159.5t90.5 124.5t129.5 87t151 47l11 -50q-63 -17 -109.5 -40.5t-81 -55.5t-58.5 -72.5t-41 -90.5
zM156 272q-2 -8 -4.5 -22t-2.5 -41q0 -30 7 -60.5t20.5 -54.5t33.5 -39t47 -15q42 0 65 34.5t23 89.5q0 66 -28.5 103t-79.5 37q-28 0 -47 -9.5t-34 -22.5z" />
    <glyph glyph-name="seven.lnum" 
d="M113 -4l265 529h-336v100h423l8 -58l-279 -571h-81z" />
    <glyph glyph-name="eight.lnum" 
d="M339 335q25 -14 48.5 -30t41.5 -37t29 -46.5t11 -57.5q0 -35 -14.5 -67.5t-43 -57.5t-69.5 -39.5t-94 -14.5q-45 0 -85 11.5t-69 32.5t-46 51.5t-17 68.5q0 51 31.5 90t85.5 61v5q-44 25 -73.5 62.5t-29.5 96.5q0 31 13.5 62.5t40 57t65.5 41t90 15.5q90 0 142 -43
t52 -115q0 -48 -30 -83.5t-79 -58.5v-5zM205 277q-29 -24 -46 -52t-17 -66q0 -53 34 -86.5t88 -33.5q45 0 73.5 26.5t28.5 65.5q0 43 -39.5 77t-121.5 69zM283 362q24 20 40.5 50.5t16.5 64.5q0 22 -6.5 41.5t-19.5 34.5t-31.5 24t-43.5 9q-42 0 -67.5 -26t-25.5 -63
q0 -20 7 -37.5t23 -33t42 -31.5t65 -33z" />
    <glyph glyph-name="nine.lnum" 
d="M54 27q63 16 109.5 40t81 56t58.5 72.5t41 90.5l-3 2q-68 -51 -137 -51q-38 0 -70 14.5t-55 40t-36 60t-13 75.5q0 49 18.5 88t49.5 67t69.5 43t79.5 15q51 0 92.5 -18.5t70.5 -51.5t44.5 -78t15.5 -97q0 -89 -34 -160t-90.5 -124t-129.5 -87t-151 -47zM344 353
q2 8 4.5 22t2.5 41q0 30 -7 60.5t-20.5 54.5t-33.5 39t-47 15q-42 0 -65 -34.5t-23 -89.5q0 -66 28.5 -103t79.5 -37q28 0 47 9.5t34 22.5z" />
    <glyph glyph-name="dollar.aalt" 
d="M114 -96l29 118q-29 5 -54 11.5t-42 14.5l26 76q17 -17 39 -28t45 -18l48 198q-40 13 -70 28.5t-49.5 34.5t-29.5 42.5t-10 54.5q0 32 13 62.5t39 54t65 38t91 14.5h15t15 -1l22 93h51l-24 -99q29 -5 55 -12t45 -15l-26 -75q-22 15 -43 26.5t-45 19.5l-43 -179
q46 -15 79 -31.5t54 -37t31 -45t10 -56.5q0 -35 -15.5 -67t-44.5 -56.5t-71.5 -39t-97.5 -14.5h-29l-27 -112h-51zM271 552h-12q-59 0 -89.5 -23.5t-30.5 -55.5q0 -34 21 -55t70 -39zM205 68q5 0 11 -0.5t12 -0.5q31 0 54.5 8t39 21t23 30t7.5 34q0 34 -21.5 56t-79.5 45z
" />
    <glyph glyph-name="cent.aalt" 
d="M162 -119l40 163q-68 21 -107.5 77.5t-39.5 137.5q0 51 16.5 94.5t46.5 75.5t73 50t96 18h13.5t13.5 -1l38 153h48l-40 -160q28 -6 52 -16t45 -27l-43 -67q-17 19 -33 32t-35 21l-82 -334q22 -8 49 -8t53 10.5t47 28.5l27 -47q-29 -23 -67 -36.5t-92 -13.5h-16.5t-16.5 1
l-38 -152h-48zM301 442q-32 0 -57 -13t-43 -37t-27.5 -56.5t-9.5 -71.5q0 -46 16 -82.5t42 -59.5z" />
    <glyph glyph-name="sterling.aalt" 
d="M59 0v105q40 17 61 53.5t21 81.5q0 25 -5 50h-90v48h80q-8 27 -16 55t-8 60q0 85 48 135.5t131 50.5q54 0 91.5 -13.5t68.5 -36.5l-45 -70q-15 30 -39.5 48t-60.5 18q-41 0 -63.5 -28t-22.5 -76q0 -27 3 -46.5t7.5 -35.5t9.5 -30.5t8 -30.5h126v-48h-120q-3 -32 -7 -58.5
t-14.5 -50t-30.5 -44t-53 -40.5h290v-97h-370z" />
    <glyph glyph-name="yen.aalt" 
d="M305 128v-128h-109v128h-152v48h152v81h-152v47h131l-154 321h118l137 -294h4l135 294h65l-154 -321h131v-47h-152v-81h152v-48h-152z" />
    <glyph glyph-name="Euro.aalt" 
d="M469 53q-37 -35 -73 -51.5t-91 -16.5q-50 0 -90 17.5t-70.5 49t-51 76t-30.5 99.5h-71v48h66q-1 8 -1 16.5v17.5v22.5t2 22.5h-67v48h73q12 52 33 95.5t50.5 75t67 49t82.5 17.5q59 0 101.5 -16.5t80.5 -49.5l-45 -67q-26 37 -56.5 57.5t-70.5 20.5q-53 0 -85.5 -48
t-45.5 -134h206v-48h-212q-1 -11 -1 -21v-21v-19.5t1 -17.5h212v-48h-207q13 -85 48.5 -136.5t95.5 -51.5q35 0 61.5 13.5t55.5 42.5z" />
    <glyph glyph-name="degree.aalt" 
d="M405 485q0 -31 -10.5 -59t-31 -49.5t-49 -34t-64.5 -12.5t-65 12.5t-49.5 34t-31 49.5t-10.5 59q0 32 10.5 61t31 50.5t49.5 34t65 12.5t64.5 -12.5t49 -34t31 -50.5t10.5 -61zM250 384q22 0 40 8.5t31 22.5t19.5 32t6.5 38q0 43 -26 73.5t-71 30.5q-46 0 -72 -30.5
t-26 -73.5q0 -20 6.5 -38t19.5 -32t31 -22.5t41 -8.5z" />
    <glyph glyph-name="plus.lnum" 
d="M222 24v184h-175v55h175v184h55v-184h176v-55h-176v-184h-55z" />
    <glyph glyph-name="minus.lnum" 
d="M47 207v56h406v-56h-406z" />
    <glyph glyph-name="plusminus.aalt" 
d="M277 243v-145h-55v145h-175v55h175v160h55v-160h176v-55h-176zM47 0v55h406v-55h-406z" />
    <glyph glyph-name="logicalnot.aalt" 
d="M382 114v157h-340v57h397v-214h-57z" />
    <glyph glyph-name="equal.aalt" 
d="M52 290v56h396v-56h-396zM52 122v56h396v-56h-396z" />
    <glyph glyph-name="notequal.aalt" 
d="M256 122l-41 -145h-57l41 145h-147v56h163l32 112h-195v56h211l38 136h57l-38 -136h128v-56h-144l-32 -112h176v-56h-192z" />
    <glyph glyph-name="approxequal.aalt" 
d="M440 208q-9 -48 -34 -78.5t-70 -30.5q-22 0 -45 9t-45 20.5t-42.5 20.5t-36.5 9q-19 0 -32 -12t-20 -40h-54q8 48 33.5 78.5t69.5 30.5q23 0 46.5 -9.5t46 -20.5t42 -20.5t34.5 -9.5q6 0 13.5 1.5t14 6.5t13 16t11.5 29h55zM440 372q-9 -48 -34 -79t-70 -31
q-22 0 -45 9.5t-45 20.5t-42.5 20.5t-36.5 9.5q-19 0 -32 -12t-20 -40h-54q8 48 33.5 78.5t69.5 30.5q23 0 46.5 -9.5t46 -20.5t42 -20.5t34.5 -9.5q6 0 13.5 1.5t14 6.5t13 16t11.5 29h55z" />
    <glyph glyph-name="multiply.aalt" 
d="M250 201l-161 -163l-40 40l163 161l-163 162l40 39l161 -162l161 162l40 -39l-163 -162l163 -161l-40 -40z" />
    <glyph glyph-name="divide.aalt" 
d="M250 328q-21 0 -35.5 14.5t-14.5 35.5q0 20 14.5 34.5t35.5 14.5q20 0 34.5 -14.5t14.5 -34.5q0 -21 -14.5 -35.5t-34.5 -14.5zM299 92q0 -20 -14.5 -34.5t-34.5 -14.5q-21 0 -35.5 14.5t-14.5 34.5q0 21 14.5 35.5t35.5 14.5q20 0 34.5 -14.5t14.5 -35.5zM52 207v56h396
v-56h-396z" />
    <glyph glyph-name="less.aalt" 
d="M40 215v39l401 183v-61l-312 -139v-5l312 -139v-60z" />
    <glyph glyph-name="greater.aalt" 
d="M59 33v60l311 139v5l-311 139v61l401 -183v-39z" />
    <glyph glyph-name="lessequal.aalt" 
d="M58 0v55h384v-55h-384zM58 254v41l384 166v-61l-296 -125l296 -127v-59z" />
    <glyph glyph-name="greaterequal.aalt" 
d="M58 0v55h384v-55h-384zM58 89v59l296 127l-296 125v61l384 -166v-41z" />
    <glyph glyph-name="bar.aalt" horiz-adv-x="250" 
d="M100 -157v877h49v-877h-49z" />
    <glyph glyph-name="brokenbar.aalt" horiz-adv-x="250" 
d="M100 305v335h49v-335h-49zM100 -138v335h49v-335h-49z" />
    <glyph glyph-name="bullet.lnum" 
d="M250 115q-38 0 -72 14.5t-59 39.5t-39.5 59t-14.5 72t14.5 72t39.5 59t59 39.5t72 14.5t72 -14.5t59 -39.5t39.5 -59t14.5 -72t-14.5 -72t-39.5 -59t-59 -39.5t-72 -14.5z" />
    <glyph glyph-name="asciitilde.aalt" 
d="M441 369q-9 -58 -35.5 -91t-73.5 -33q-24 0 -47.5 10.5t-45.5 23t-41 23t-33 10.5q-20 0 -35.5 -12t-23.5 -47h-48q9 58 35.5 91.5t73.5 33.5q24 0 48 -10.5t46.5 -23.5t41.5 -23.5t32 -10.5q21 0 35.5 12.5t23.5 46.5h47z" />
    <glyph glyph-name="quotesingle.aalt" horiz-adv-x="250" 
d="M22 403l115 242l88 -31l-160 -211h-43z" />
    <glyph glyph-name="quotedbl.aalt" 
d="M59 403l116 242l88 -31l-160 -211h-44zM239 403l116 242l88 -31l-160 -211h-44z" />
    <glyph glyph-name="parenleft.aalt" horiz-adv-x="413" 
d="M342 -161q-53 30 -101 76.5t-84.5 106t-58 131t-21.5 152.5q0 79 21.5 150.5t58 131t84.5 106.5t101 77l29 -47q-48 -29 -89.5 -71.5t-72.5 -96.5t-49 -117.5t-18 -132.5t18 -132.5t49 -117.5t73 -97.5t89 -71.5z" />
    <glyph glyph-name="parenright.aalt" horiz-adv-x="413" 
d="M44 -114q47 28 89 71.5t73 97.5t49 117.5t18 132.5t-18 132.5t-49 117.5t-72.5 96.5t-89.5 71.5l29 47q53 -30 101 -77t84.5 -106.5t58 -131t21.5 -150.5q0 -81 -21.5 -152.5t-58 -131t-84.5 -106t-101 -76.5z" />
    <glyph glyph-name="bracketleft.aalt" horiz-adv-x="404" 
d="M108 -137v908h247v-53h-181v-801h181v-54h-247z" />
    <glyph glyph-name="bracketright.aalt" horiz-adv-x="404" 
d="M49 -137v54h181v801h-181v53h246v-908h-246z" />
    <glyph glyph-name="asterisk.aalt" 
d="M297 313l-49 37l5 107l-15 4l-53 -89l-62 -4l-14 17l20 60l100 27v19l-100 28l-21 58l14 17l63 -3l53 -90l15 5l-3 105l48 36l21 -7l17 -58l-70 -81l10 -13l99 38l50 -35v-22l-50 -35l-99 39l-10 -13l68 -82l-16 -58z" />
    <glyph glyph-name="braceleft.aalt" horiz-adv-x="391" 
d="M333 -136q-104 5 -156.5 44.5t-52.5 105.5q0 29 8.5 54t19 48.5t19.5 45.5t9 45q0 40 -34.5 57t-92.5 22q-1 8 -1.5 15t-2.5 15q2 8 2.5 15.5t1.5 15.5q28 2 51 7t40 14t26.5 23t9.5 35q0 22 -9 44t-19.5 45.5t-19 49t-8.5 54.5q0 66 52.5 106t156.5 45v-42
q-59 -5 -84 -28.5t-25 -58.5q0 -24 8.5 -46t18.5 -45t18.5 -48t8.5 -55q0 -24 -12.5 -45.5t-32.5 -38.5t-46.5 -27.5t-54.5 -13.5v-12q30 -3 56.5 -13.5t46.5 -27t31.5 -38t11.5 -45.5q0 -30 -8.5 -54.5t-18.5 -47t-18.5 -44t-8.5 -45.5q0 -36 27 -60t82 -29v-42z" />
    <glyph glyph-name="braceright.aalt" horiz-adv-x="391" 
d="M59 -94q59 5 84 29.5t25 59.5q0 24 -8.5 45.5t-18.5 44t-18.5 47t-8.5 54.5q0 24 12.5 45.5t33 38t46.5 27t54 13.5v12q-30 3 -56.5 13.5t-46.5 27t-31.5 38t-11.5 46.5q0 30 8.5 55t18.5 48t18.5 45t8.5 46q0 34 -26.5 58t-82.5 29v42q104 -5 156.5 -45t52.5 -106
q0 -29 -9 -54t-19.5 -48.5t-19 -45.5t-8.5 -45q0 -41 35.5 -58t91.5 -21q1 -8 1.5 -15.5t2.5 -15.5q-2 -8 -2.5 -15t-1.5 -15q-59 -5 -93 -22t-34 -57q0 -20 8.5 -42t19 -45.5t19.5 -50t9 -55.5q0 -66 -52.5 -105.5t-156.5 -44.5v42z" />
    <glyph glyph-name="section.aalt" 
d="M110 0q29 -34 60 -49t68 -15q44 0 65 18t21 47q0 30 -26 53t-92 56q-44 22 -74 41t-48 38.5t-25.5 40.5t-7.5 48q0 40 20 71.5t58 52.5q-19 20 -28.5 42.5t-9.5 51.5t11 55t33.5 46t56 31.5t78.5 11.5q42 0 81.5 -10.5t73.5 -32.5l-36 -75q-53 63 -129 63
q-43 0 -64.5 -18t-21.5 -47q0 -30 26.5 -53.5t91.5 -55.5q45 -23 75 -42t48 -38t25.5 -40t7.5 -48q0 -40 -20.5 -71.5t-57.5 -52.5q39 -39 39 -93q0 -30 -11.5 -56t-34 -45.5t-56.5 -31t-78 -11.5q-42 0 -81.5 10.5t-73.5 32.5zM339 146q14 11 22.5 25.5t8.5 34.5
q0 38 -29 63.5t-98 57.5q-25 11 -45.5 23t-38.5 25q-14 -10 -22.5 -25t-8.5 -34q0 -20 7 -35t22.5 -28.5t40 -27.5t58.5 -30q24 -12 45 -23.5t38 -25.5z" />
    <glyph glyph-name="paragraph.aalt" 
d="M355 -32v296q-21 -4 -41.5 -6t-38.5 -2q-54 0 -95.5 14.5t-70 39.5t-43.5 58.5t-15 71.5q0 44 16 78.5t43.5 58t66 36t83.5 12.5h163v-657h-68z" />
    <glyph glyph-name="period.aalt" horiz-adv-x="250" 
d="M198 58q0 -30 -21.5 -51.5t-51.5 -21.5q-31 0 -52.5 21t-21.5 52q0 30 21.5 52t52.5 22q30 0 51.5 -22t21.5 -52z" />
    <glyph glyph-name="comma.aalt" horiz-adv-x="250" 
d="M35 -160q38 29 61 61t23 70q0 58 -82 89q0 27 20 48t56 21q20 0 38 -8.5t31.5 -23t21.5 -34.5t8 -43q0 -32 -11.5 -61.5t-32 -55.5t-48.5 -50t-61 -45z" />
    <glyph glyph-name="colon.aalt" horiz-adv-x="250" 
d="M198 385q0 -30 -21.5 -51.5t-51.5 -21.5q-31 0 -52.5 21.5t-21.5 51.5q0 31 21.5 53t52.5 22q30 0 51.5 -22t21.5 -53zM198 58q0 -30 -21.5 -51.5t-51.5 -21.5q-31 0 -52.5 21.5t-21.5 51.5q0 31 21.5 52.5t52.5 21.5q30 0 51.5 -22t21.5 -52z" />
    <glyph glyph-name="semicolon.aalt" horiz-adv-x="250" 
d="M195 385q0 -30 -21.5 -51.5t-51.5 -21.5q-31 0 -52 21.5t-21 51.5q0 31 21 53t52 22q30 0 51.5 -22t21.5 -53zM39 -159q39 29 61.5 61t22.5 69q0 58 -82 89q0 27 20 48t57 21q20 0 38 -8.5t31.5 -23t21.5 -34.5t8 -43q0 -32 -12 -61t-32.5 -55.5t-48.5 -50t-61 -44.5z
" />
    <glyph glyph-name="periodcentered.aalt" horiz-adv-x="250" 
d="M125 216q-31 0 -52.5 21.5t-21.5 52.5q0 30 21.5 52t52.5 22q30 0 51.5 -22t21.5 -52t-21.5 -52t-51.5 -22z" />
    <glyph glyph-name="hyphen.lnum" horiz-adv-x="338" 
d="M51 283v60h236v-60h-236z" />
    <glyph glyph-name="endash.aalt" horiz-adv-x="495" 
d="M51 283v60h392v-60h-392z" />
    <glyph glyph-name="A.ornm" horiz-adv-x="750" 
d="M88 45l288 539l286 -539h-574zM375 398l-127 -261h254z" />
    <glyph glyph-name="B.ornm" horiz-adv-x="750" 
d="M145 26v574l539 -288zM237 440v-254l261 127z" />
    <glyph glyph-name="C.ornm" horiz-adv-x="750" 
d="M88 584h574l-286 -539zM502 492h-254l127 -261z" />
    <glyph glyph-name="D.ornm" horiz-adv-x="750" 
d="M65 312l539 288v-574zM512 440l-261 -127l261 -127v254z" />
    <glyph glyph-name="E.ornm" horiz-adv-x="750" 
d="M88 45l288 539l286 -539h-574z" />
    <glyph glyph-name="F.ornm" horiz-adv-x="750" 
d="M145 26v574l539 -288z" />
    <glyph glyph-name="G.ornm" horiz-adv-x="750" 
d="M88 584h574l-286 -539z" />
    <glyph glyph-name="H.ornm" horiz-adv-x="750" 
d="M65 312l539 288v-574z" />
    <glyph glyph-name="I.ornm" horiz-adv-x="750" 
d="M333 -10l6 512l-221 -231l-59 54l312 315h7l313 -315l-59 -54l-222 231l6 -512h-83z" />
    <glyph glyph-name="J.ornm" horiz-adv-x="750" 
d="M390 -4l-54 59l231 221l-512 -6v83l512 -6l-231 222l54 59l315 -313v-7z" />
    <glyph glyph-name="K.ornm" horiz-adv-x="750" 
d="M370 -15l-313 315l59 54l222 -231l-6 512h83l-6 -512l221 231l59 -54l-312 -315h-7z" />
    <glyph glyph-name="L.ornm" horiz-adv-x="750" 
d="M183 276l231 -221l-54 -59l-315 312v7l315 313l54 -59l-231 -222l512 6v-83z" />
    <glyph glyph-name="M.ornm" 
d="M41 0v417h418v-417h-418zM406 366h-313v-313h313v313z" />
    <glyph glyph-name="N.ornm" 
d="M41 0v417h418v-417h-418zM368 327h-236v-236h236v236z" />
    <glyph glyph-name="O.ornm" 
d="M41 0v417h418v-417h-418zM414 373h-37l37 -37v37zM414 307l-65 66h-65l130 -130v64zM414 215l-158 158h-64l222 -222v64zM414 123l-250 250h-64l314 -314v64zM86 359v-65l250 -248h64zM86 266v-64l157 -156h64zM86 173v-64l64 -63h64zM86 82v-36h36z" />
    <glyph glyph-name="P.ornm" 
d="M41 0v417h418v-417h-418z" />
    <glyph glyph-name="Q.ornm" horiz-adv-x="750" 
d="M62 0v626h626v-626h-626zM633 571h-516v-516h516v516z" />
    <glyph glyph-name="R.ornm" horiz-adv-x="750" 
d="M62 0v626h626v-626h-626zM573 511h-396v-396h396v396z" />
    <glyph glyph-name="S.ornm" horiz-adv-x="750" 
d="M62 0v626h626v-626h-626zM633 571h-78l78 -78v78zM633 467l-104 104h-116l220 -220v116zM633 325l-246 246h-116l362 -362v116zM633 184l-387 387h-116l503 -503v116zM117 559v-116l388 -388h116zM117 417v-116l246 -246h116zM117 275v-116l104 -104h116zM117 135v-80h80
z" />
    <glyph glyph-name="T.ornm" horiz-adv-x="750" 
d="M62 0v626h626v-626h-626z" />
    <glyph glyph-name="U.ornm" 
d="M250 -10q-46 0 -86 17t-69.5 46.5t-46.5 69.5t-17 86t17 85.5t46.5 69t69.5 46.5t86 17t86 -17t69.5 -46.5t46.5 -69t17 -85.5t-17 -86t-46.5 -69.5t-69.5 -46.5t-86 -17zM250 41q35 0 65.5 13t53 36t35 53.5t12.5 65.5t-12.5 65.5t-35 53.5t-53 36t-65.5 13t-65.5 -13
t-53 -36t-35 -53.5t-12.5 -65.5t12.5 -65.5t35 -53.5t53 -36t65.5 -13z" />
    <glyph glyph-name="V.ornm" 
d="M250 -10q-46 0 -86 17t-69.5 46.5t-46.5 69.5t-17 86t17 85.5t46.5 69t69.5 46.5t86 17t86 -17t69.5 -46.5t46.5 -69t17 -85.5t-17 -86t-46.5 -69.5t-69.5 -46.5t-86 -17zM250 81q27 0 50 10t40 27.5t26.5 40.5t9.5 50q0 26 -9.5 49.5t-26.5 41t-40 27.5t-50 10t-50 -10
t-40 -27.5t-26.5 -41t-9.5 -49.5q0 -27 9.5 -50t26.5 -40.5t40 -27.5t50 -10z" />
    <glyph glyph-name="W.ornm" 
d="M250 -10q-46 0 -86 17t-69.5 46.5t-46.5 69.5t-17 86t17 85.5t46.5 69t69.5 46.5t86 17t86 -17t69.5 -46.5t46.5 -69t17 -85.5t-17 -86t-46.5 -69.5t-69.5 -46.5t-86 -17zM426 236q-4 30 -17 55.5t-33 45.5t-45.5 33t-55.5 17zM244 389q-14 -1 -28 -3.5t-27 -7.5
l228 -229q5 14 7.5 28t3.5 28zM169 370q-11 -5 -20.5 -12t-17.5 -15l253 -254q17 17 26 39zM116 329q-17 -17 -26 -40l242 -241q11 5 20.5 12t17.5 15zM82 268q-8 -24 -10 -55l184 -184q31 0 55 10zM74 182q4 -31 18 -57.5t35 -46.5q20 -19 44.5 -31.5t53.5 -16.5z" />
    <glyph glyph-name="X.ornm" 
d="M250 -10q-46 0 -86 17t-69.5 46.5t-46.5 69.5t-17 86t17 85.5t46.5 69t69.5 46.5t86 17t86 -17t69.5 -46.5t46.5 -69t17 -85.5t-17 -86t-46.5 -69.5t-69.5 -46.5t-86 -17z" />
    <glyph glyph-name="Y.ornm" horiz-adv-x="750" 
d="M703 313q0 -69 -25 -128.5t-69.5 -104t-104.5 -70t-129 -25.5t-129 25.5t-104.5 70t-69.5 104t-25 128.5t25 128.5t69.5 104t104.5 70t129 25.5t129 -25.5t104.5 -70t69.5 -104t25 -128.5zM375 37q58 0 108 21.5t86.5 59t57.5 88t21 107.5t-21 107.5t-57.5 88t-86.5 59
t-108 21.5t-108 -21.5t-86.5 -59t-57.5 -88t-21 -107.5t21 -107.5t57.5 -88t86.5 -59t108 -21.5z" />
    <glyph glyph-name="Z.ornm" horiz-adv-x="750" 
d="M703 313q0 -69 -25 -128.5t-69.5 -104t-104.5 -70t-129 -25.5t-129 25.5t-104.5 70t-69.5 104t-25 128.5t25 128.5t69.5 104t104.5 70t129 25.5t129 -25.5t104.5 -70t69.5 -104t25 -128.5zM375 97q45 0 84 17t67.5 46.5t45 68.5t16.5 84t-16.5 84t-45 68.5t-67.5 46.5
t-84 17t-84 -17t-67.5 -46.5t-45 -68.5t-16.5 -84t16.5 -84t45 -68.5t67.5 -46.5t84 -17z" />
    <glyph glyph-name="a.ornm" horiz-adv-x="750" 
d="M703 313q0 -69 -25 -128.5t-69.5 -104t-104.5 -70t-129 -25.5t-129 25.5t-104.5 70t-69.5 104t-25 128.5t25 129t69.5 104.5t104.5 70.5t129 26t129 -26t104.5 -70.5t69.5 -104.5t25 -129zM647 337q-4 51 -24.5 95t-53.5 77.5t-77.5 54t-95.5 24.5zM369 589
q-53 -2 -97 -19l179 -179q33 -34 65 -66l57 -57q29 -30 56 -56q17 45 19 98zM576 125q28 29 46 69q-27 26 -57 57q-26 26 -58.5 59t-67.5 68l-184 184q-38 -18 -68 -48zM174 502q-14 -15 -25.5 -32.5t-20.5 -37.5l368 -368q38 18 68 48zM120 414q-16 -45 -18 -98l279 -279
q26 0 50 5t47 14zM103 289q4 -51 24.5 -95t53.5 -77.5t77.5 -54t95.5 -24.5z" />
    <glyph glyph-name="b.ornm" horiz-adv-x="750" 
d="M703 313q0 -69 -25 -128.5t-69.5 -104t-104.5 -70t-129 -25.5t-129 25.5t-104.5 70t-69.5 104t-25 128.5t25 128.5t69.5 104t104.5 70t129 25.5t129 -25.5t104.5 -70t69.5 -104t25 -128.5z" />
    </font>
</defs>
</svg>
