<?xml version="1.0" standalone="no"?>
<!DOCTYPE svg PUBLIC "-//W3C//DTD SVG 1.1//EN" "http://www.w3.org/Graphics/SVG/1.1/DTD/svg11.dtd" >
<svg xmlns="http://www.w3.org/2000/svg" xmlns:xlink="http://www.w3.org/1999/xlink" version="1.1">
<metadata>
Created by FontForge 20170812 at Mon Mar 21 04:50:43 2016
 By www-data
Copyright (c) 2004-2013, Phil's Fonts Inc &#38; Joshua Darden. All rights reserved. Published by Garagefonts USA 301-879-9222 www.garagefonts.com
</metadata>
<defs>
<font id="FreightNeoW03-MediumItalic" horiz-adv-x="500" >
  <font-face 
    font-family="FreightNeoW03-MediumItalic"
    font-weight="500"
    font-style="italic"
    font-stretch="normal"
    units-per-em="1000"
    panose-1="2 0 5 3 0 0 0 2 0 4"
    ascent="800"
    descent="-200"
    x-height="458"
    cap-height="625"
    bbox="-200 -295 1160 1005"
    underline-thickness="50"
    underline-position="-125"
    unicode-range="U+0020-FB04"
  />
<missing-glyph 
d="M428 0h-356v625h356v-625zM108 88l121 224l-121 226v-450zM250 350l130 240h-261zM380 36l-130 239l-131 -239h261zM392 88v450l-122 -226z" />
    <glyph glyph-name="uniFB00" unicode="ff" horiz-adv-x="606" 
d="M270 -107l101 518h-191l-92 -469q-7 -37 -27 -80t-48 -72t-54 -40t-48 -11q-46 0 -79 36l40 69q26 -52 59 -52q24 0 43.5 26.5t28.5 74.5l101 518h-71l9 47h72q17 71 52 125.5t77.5 84t88.5 29.5q40 0 73 -16t53 -45q28 30 62 45.5t65 15.5q25 0 49.5 -13.5t39.5 -30.5
l-45 -63q-29 54 -72 54q-34 0 -54.5 -27.5t-36.5 -108.5l-10 -50h118l-9 -47h-118l-92 -469q-7 -37 -27 -80t-48 -72t-54 -40t-48 -11q-46 0 -79 36l40 69q26 -52 59 -52q24 0 43.5 26.5t28.5 74.5zM380 458q15 76 34 114q-18 33 -46 51.5t-63 18.5q-39 0 -63 -33.5
t-48 -128.5l-5 -22h191z" />
    <glyph glyph-name="uniFB01" unicode="fi" horiz-adv-x="489" 
d="M359 0h-76l80 411h-183l-92 -469q-7 -37 -27 -80t-48 -72t-54 -40t-48 -11q-46 0 -79 36l40 69q26 -52 59 -52q24 0 43.5 26.5t28.5 74.5l101 518h-71l9 47h72q10 45 31 88.5t50 77.5t64.5 53.5t72.5 19.5q41 0 75 -17.5t54 -47.5l-45 -63q-18 35 -47 54t-64 19
q-40 0 -66.5 -39t-49.5 -145h223l39 12z" />
    <glyph glyph-name="uniFB02" unicode="fl" horiz-adv-x="488" 
d="M359 0h-76l117 595q-38 47 -95 47q-40 0 -65 -35.5t-47 -130.5l-4 -18h118l-9 -47h-118l-92 -469q-7 -37 -27 -80t-48 -72t-54 -40t-48 -11q-46 0 -79 36l40 69q26 -52 59 -52q24 0 43.5 26.5t28.5 74.5l101 518h-71l9 47h72q16 70 51.5 125t78 84.5t88.5 29.5
q23 0 46.5 -6.5t40.5 -17.5l77 24z" />
    <glyph glyph-name="uniFB03" unicode="ffi" horiz-adv-x="756" 
d="M626 0h-76l80 411h-183l-92 -469q-7 -37 -27 -80t-48 -72t-54 -40t-48 -11q-46 0 -79 36l40 69q26 -52 59 -52q24 0 43.5 26.5t28.5 74.5l101 518h-191l-92 -469q-7 -37 -27 -80t-48 -72t-54 -40t-48 -11q-46 0 -79 36l40 69q26 -52 59 -52q24 0 43.5 26.5t28.5 74.5
l101 518h-71l9 47h72q17 71 52 125.5t77.5 84t88.5 29.5q80 0 134 -69q29 32 63.5 50.5t69.5 18.5q41 0 75 -17.5t54 -47.5l-45 -63q-18 35 -47 54t-64 19q-26 0 -46 -17t-36.5 -53t-29.5 -96l-4 -18h224l38 12zM189 458h192q12 55 41 107q-25 40 -51.5 58.5t-65.5 18.5
q-41 0 -67.5 -40t-44.5 -125z" />
    <glyph glyph-name="uniFB04" unicode="ffl" horiz-adv-x="755" 
d="M626 0h-76l117 595q-38 47 -95 47q-24 0 -46.5 -17.5t-38.5 -57.5t-27 -90l-4 -19h118l-9 -47h-118l-92 -469q-7 -37 -27 -80t-48 -72t-54 -40t-48 -11q-46 0 -79 36l40 69q27 -53 59 -53q24 0 43.5 27t28.5 75l101 518h-191l-92 -469q-7 -37 -27 -80t-48 -72t-54 -40
t-48 -11q-46 0 -79 36l40 69q27 -53 59 -53q24 0 43.5 27t28.5 75l101 518h-71l9 47h72q11 47 32.5 90.5t50 77t63.5 52.5t72 19q80 0 134 -69q29 32 63.5 50.5t69.5 18.5q23 0 46.5 -6.5t40.5 -17.5l77 24zM189 458h192q14 58 41 107q-25 40 -51.5 58.5t-65.5 18.5
q-40 0 -67 -39t-45 -126z" />
    <glyph glyph-name=".notdef" 
d="M428 0h-356v625h356v-625zM108 88l121 224l-121 226v-450zM250 350l130 240h-261zM380 36l-130 239l-131 -239h261zM392 88v450l-122 -226z" />
    <glyph glyph-name=".null" horiz-adv-x="0" 
 />
    <glyph glyph-name="nonmarkingreturn" horiz-adv-x="333" 
 />
    <glyph glyph-name="space" unicode=" " horiz-adv-x="200" 
 />
    <glyph glyph-name="exclam" unicode="!" horiz-adv-x="276" 
d="M85 -15q-26 0 -45.5 19.5t-19.5 46.5t19.5 46.5t45.5 19.5t45.5 -19.5t19.5 -46.5t-19.5 -46.5t-45.5 -19.5zM130 200h-37l37 397q2 25 17 34t49 9q33 0 45 -13t5 -36z" />
    <glyph glyph-name="quotedbl" unicode="&#x22;" horiz-adv-x="420" 
d="M82 403h-42l159 242l79 -28zM262 403h-42l159 242l79 -28z" />
    <glyph glyph-name="numbersign" unicode="#" horiz-adv-x="587" 
d="M326 -6h-52l53 194h-140l-52 -194h-52l53 194h-116v47h128l46 169h-125v47h138l48 180h52l-49 -180h140l48 180h52l-48 -180h117v-47h-130l-46 -169h117v-47h-129zM339 235l46 169h-139l-46 -169h139z" />
    <glyph glyph-name="dollar" unicode="$" horiz-adv-x="490" 
d="M93 -96h-45l49 125q-51 12 -95 35l32 68q38 -39 82 -55l83 213q-129 61 -129 149q0 48 31 89.5t77.5 58.5t91.5 17q15 0 51 -4l38 97h45l-42 -105q53 -12 98 -35l-33 -69q-43 41 -83 56l-76 -193q82 -40 113.5 -75.5t31.5 -78.5q0 -51 -30.5 -94t-84.5 -64t-109 -21
q-24 0 -50 3zM237 272l-80 -205q17 -4 40 -4q53 0 91 29t38 77q0 29 -20.5 54t-68.5 49zM230 369l73 185q-16 3 -34 3q-34 0 -62.5 -12.5t-41 -34t-12.5 -44.5q0 -57 77 -97z" />
    <glyph glyph-name="percent" unicode="%" horiz-adv-x="685" 
d="M188 344q-46 0 -76 21.5t-41 51.5t-11 57q0 24 7.5 52.5t29.5 59.5t55.5 47.5t68.5 16.5q46 0 76 -21.5t41 -51.5t11 -57q0 -40 -20 -83t-58.5 -68t-82.5 -25zM187 384q21 0 41 18.5t32.5 59.5t12.5 75q0 31 -12.5 52t-38.5 21q-21 0 -41 -18.5t-32.5 -59.5t-12.5 -75
q0 -22 7 -40t19 -25.5t25 -7.5zM470 -24q-46 0 -76 21.5t-41 51.5t-11 57q0 24 7.5 52.5t29.5 59.5t55.5 47.5t68.5 16.5q46 0 76 -21.5t41 -51.5t11 -56q0 -23 -7.5 -52t-29.5 -60t-55.5 -48t-68.5 -17zM469 16q21 0 41 18.5t32.5 59.5t12.5 76q0 31 -12.5 51.5t-38.5 20.5
q-21 0 -41 -18.5t-32.5 -59.5t-12.5 -75q0 -22 7 -40t19 -25.5t25 -7.5zM65 -3h-57l613 631h56z" />
    <glyph glyph-name="ampersand" unicode="&#x26;" horiz-adv-x="605" 
d="M567 12l-86 -27l-81 97q-46 -44 -103.5 -70.5t-119.5 -26.5q-29 0 -59.5 8t-56.5 26.5t-43.5 47t-17.5 65.5q0 62 41.5 115t109.5 84l30 13q-55 58 -55 125q0 34 13.5 65.5t39 55t61.5 37t79 13.5q69 0 110.5 -35t41.5 -94q0 -53 -40.5 -95.5t-121.5 -71.5l-17 -6
l131 -156q15 28 24.5 64t9.5 65l-3 35h81q-1 -42 -23 -96t-57 -104zM265 370l20 8q47 19 74.5 52.5t27.5 79.5q0 37 -20 61t-57 24q-21 0 -45 -11t-40 -37.5t-16 -58.5q0 -53 45 -106zM370 117l-166 197q-5 -2 -17.5 -9t-36.5 -25.5t-43 -50.5t-19 -71q0 -20 10.5 -44.5
t38.5 -42.5t65 -18q97 0 168 64z" />
    <glyph glyph-name="quotesingle" unicode="'" horiz-adv-x="240" 
d="M82 403h-42l159 242l79 -28z" />
    <glyph glyph-name="parenleft" unicode="(" horiz-adv-x="362" 
d="M217 -177l-27 -38q-83 58 -132 159.5t-49 217.5q0 82 25.5 164.5t73 155.5t114 134t144.5 104l23 -42q-72 -39 -132.5 -95t-104 -124t-67 -144t-23.5 -152q0 -48 10.5 -99.5t27 -89.5t44 -78t73.5 -73z" />
    <glyph glyph-name="parenright" unicode=")" horiz-adv-x="362" 
d="M-37 -215l-23 42q72 39 132.5 95t104 124t67 144t23.5 152q0 48 -10.5 99.5t-27 89.5t-44 78t-73.5 73l27 38q83 -58 132 -159.5t49 -217.5q0 -82 -25.5 -164.5t-73 -155.5t-114 -134t-144.5 -104z" />
    <glyph glyph-name="asterisk" unicode="*" horiz-adv-x="352" 
d="M275 317l-21 -6l-45 43l4 97l-15 4l-52 -78l-62 -10l-14 18l28 58l91 24v18l-91 26l-29 56l13 18l64 -9l52 -81l14 5v97l43 42l22 -7l11 -61l-62 -76l10 -13l92 33l53 -30v-22l-53 -30l-92 34l-10 -13l60 -76z" />
    <glyph glyph-name="plus" unicode="+" 
d="M431 212h-176l-37 -188h-49l37 188h-175l9 48h175l37 187h49l-37 -187h176z" />
    <glyph glyph-name="comma" unicode="," horiz-adv-x="230" 
d="M-35 -190l-17 30q61 44 82.5 78.5t21.5 63.5q0 52 -64 74q5 26 25.5 43.5t52.5 17.5t55.5 -24.5t23.5 -60.5q0 -112 -180 -222z" />
    <glyph glyph-name="hyphen" unicode="-" horiz-adv-x="328" 
d="M262 238h-218l11 53h218z" />
    <glyph glyph-name="period" unicode="." horiz-adv-x="230" 
d="M65 -15q-26 0 -45.5 19.5t-19.5 46.5t19.5 46.5t45.5 19.5t45.5 -19.5t19.5 -46.5t-19.5 -46.5t-45.5 -19.5z" />
    <glyph glyph-name="slash" unicode="/" horiz-adv-x="285" 
d="M-40 -177h-48l387 877h48z" />
    <glyph glyph-name="zero" unicode="0" horiz-adv-x="470" 
d="M176 -15q-84 0 -122 51.5t-38 154.5q0 38 11.5 80t31.5 79.5t53 74t73 55t75 18.5q84 0 122 -51.5t38 -155.5q0 -52 -19.5 -106.5t-54 -100t-79 -72.5t-91.5 -27zM177 30q28 0 56.5 24t52 65.5t37.5 93.5t14 104q0 56 -19.5 96t-58.5 40q-21 0 -46.5 -16.5t-50.5 -54.5
t-44 -95t-19 -122q0 -56 19.5 -95.5t58.5 -39.5z" />
    <glyph glyph-name="one" unicode="1" horiz-adv-x="307" 
d="M157 0h-84l77 395h-108l7 35l205 69z" />
    <glyph glyph-name="two" unicode="2" horiz-adv-x="453" 
d="M345 0h-342v63q123 73 185.5 118t94 85t31.5 79q0 37 -24.5 61.5t-66.5 24.5q-39 0 -81.5 -20.5t-72.5 -47.5l-20 30q52 53 102.5 79t110.5 26q30 0 61.5 -12.5t53.5 -44.5t22 -69q0 -47 -26 -93t-83 -89.5t-170 -100.5v-5h241z" />
    <glyph glyph-name="three" unicode="3" horiz-adv-x="451" 
d="M-48 -141l49 59q12 -30 46.5 -51t77.5 -21q44 0 78 20t56 57.5t22 86.5q0 55 -35 85.5t-94 30.5q-26 0 -73 -13l-7 39q34 11 79 34.5t79 53.5t48 58.5t14 53.5q0 24 -13.5 45t-36.5 29.5t-45 8.5q-38 0 -74 -16.5t-64 -39.5l-20 32q48 44 95 65.5t101 21.5q45 0 76.5 -15
t48 -42t16.5 -61q0 -33 -15 -70t-54 -71.5t-89 -55.5q29 -3 57 -13t50 -31.5t31.5 -52.5t9.5 -58q0 -43 -19.5 -84.5t-54.5 -73.5t-80.5 -50.5t-93.5 -18.5q-94 0 -166 58z" />
    <glyph glyph-name="four" unicode="4" horiz-adv-x="527" 
d="M302 -185h-83l39 200h-281v45l402 428h54l-77 -395h107l-15 -78h-106zM273 93l51 264h-6l-248 -264h203z" />
    <glyph glyph-name="five" unicode="5" horiz-adv-x="443" 
d="M-69 -142l49 59q14 -27 48.5 -49t74.5 -22q44 0 75 19.5t48.5 53.5t17.5 72q0 57 -56.5 112.5t-168.5 96.5l124 283h281l-16 -84h-253l-59 -134q116 -47 172 -108t56 -140q0 -42 -15.5 -81t-45 -69.5t-71.5 -48t-91 -17.5q-48 0 -92.5 16t-77.5 41z" />
    <glyph glyph-name="six" unicode="6" 
d="M520 692v-41q-44 -8 -96.5 -27.5t-106.5 -55t-101.5 -90t-72.5 -111.5l3 -2q32 24 68.5 37.5t70.5 13.5q75 0 117 -46t42 -125q0 -49 -16 -96.5t-47 -84t-75 -58t-97 -21.5q-36 0 -70.5 11.5t-61 38.5t-42 69.5t-15.5 100.5q0 113 71 223.5t186.5 180.5t242.5 83z
M126 306q-10 -12 -17.5 -48t-7.5 -69q0 -30 9 -68t36 -64.5t71 -26.5q38 0 70 26t52 71.5t20 92.5q0 61 -29.5 97.5t-80.5 36.5q-23 0 -56.5 -12t-66.5 -36z" />
    <glyph glyph-name="seven" unicode="7" horiz-adv-x="477" 
d="M27 -185h-64l417 584h-331l16 84h403v-45z" />
    <glyph glyph-name="eight" unicode="8" horiz-adv-x="516" 
d="M332 328l-1 -4q109 -74 109 -158q0 -36 -14.5 -69t-42.5 -58t-69.5 -39.5t-93.5 -14.5q-88 0 -144.5 42t-56.5 112q0 33 16 68t57 65.5t90 45.5v4q-85 65 -85 140q0 42 23.5 85t72 68t107.5 25q81 0 127.5 -41t46.5 -105q0 -59 -39.5 -101t-102.5 -65zM296 350
q44 22 70 63.5t26 83.5q0 43 -28.5 70.5t-73.5 27.5q-22 0 -48 -10t-44.5 -37.5t-18.5 -65.5q0 -36 37 -72.5t80 -59.5zM217 297q-34 -19 -62.5 -48t-40 -59t-11.5 -53q0 -47 33 -77t92 -30q27 0 58 11t51 39.5t20 64.5t-29 69.5t-111 82.5z" />
    <glyph glyph-name="nine" unicode="9" 
d="M-45 -200v41q90 17 166.5 58.5t130.5 101.5t78 115l-3 2q-32 -24 -68.5 -37.5t-70.5 -13.5q-75 0 -117 46t-42 125q0 49 16 96.5t47 84t75 58t97 21.5q36 0 70.5 -11.5t61 -38.5t42 -69.5t15.5 -100.5q0 -113 -70.5 -221t-185 -176t-242.5 -81zM347 177q10 12 17.5 48
t7.5 69q0 30 -9 68t-36 64.5t-71 26.5q-38 0 -70 -26t-52 -71.5t-20 -92.5q0 -61 29.5 -97.5t80.5 -36.5q23 0 56.5 12t66.5 36z" />
    <glyph glyph-name="colon" unicode=":" horiz-adv-x="230" 
d="M132 328q-26 0 -45.5 19.5t-19.5 46.5t19.5 46.5t45.5 19.5t45.5 -19.5t19.5 -46.5t-19.5 -46.5t-45.5 -19.5zM65 -15q-26 0 -45.5 19.5t-19.5 46.5t19.5 46.5t45.5 19.5t45.5 -19.5t19.5 -46.5t-19.5 -46.5t-45.5 -19.5z" />
    <glyph glyph-name="semicolon" unicode=";" horiz-adv-x="230" 
d="M132 328q-26 0 -45.5 19.5t-19.5 46.5t19.5 46.5t45.5 19.5t45.5 -19.5t19.5 -46.5t-19.5 -46.5t-45.5 -19.5zM-35 -190l-17 30q61 44 82.5 78.5t21.5 63.5q0 52 -64 74q5 26 25.5 43.5t52.5 17.5t55.5 -24.5t23.5 -60.5q0 -112 -180 -222z" />
    <glyph glyph-name="less" unicode="&#x3c;" 
d="M380 33l-364 185l7 34l436 185l-11 -56l-349 -145l-1 -7l292 -146z" />
    <glyph glyph-name="equal" unicode="=" 
d="M443 294h-396l10 49h396zM410 126h-396l10 49h396z" />
    <glyph glyph-name="greater" unicode="&#x3e;" 
d="M450 218l-436 -185l11 56l349 145l1 7l-292 146l10 50l364 -185z" />
    <glyph glyph-name="question" unicode="?" horiz-adv-x="355" 
d="M91 -15q-26 0 -45.5 19.5t-19.5 46.5t19.5 46.5t45.5 19.5t45.5 -19.5t19.5 -46.5t-19.5 -46.5t-45.5 -19.5zM141 200h-37q-16 19 -26 43t-10 45q0 46 30.5 75.5t111.5 55.5q95 29 95 70q0 27 -30.5 44t-95.5 17q-18 0 -40.5 -3t-34.5 -7q-6 9 -6 33q0 15 9.5 31t33 26
t49.5 10q44 0 83.5 -20.5t60.5 -57t21 -72.5q0 -63 -33.5 -103.5t-109.5 -60.5q-51 -14 -69.5 -31t-18.5 -47q0 -16 17 -48z" />
    <glyph glyph-name="at" unicode="@" horiz-adv-x="897" 
d="M539 -94l8 -43q-81 -26 -153 -26q-78 0 -146.5 27t-118.5 75.5t-77.5 114.5t-27.5 141q0 67 25.5 146t86 152.5t133.5 114.5t133.5 54t107.5 13q78 0 145 -21t115 -61.5t74.5 -99t26.5 -130.5q0 -64 -21.5 -125.5t-60 -108.5t-90 -74t-107.5 -27q-46 0 -74 28.5t-28 76.5
q0 18 7.5 48.5t16.5 55.5h-5q-61 -89 -111 -137t-99 -48q-16 0 -34.5 10t-31 36t-12.5 59q0 55 24.5 115.5t60.5 105t73.5 72t72.5 38t60 10.5q19 0 47.5 -7t47.5 -18l70 22l-93 -256q-24 -66 -24 -102q0 -29 12.5 -46t32.5 -17q44 0 84.5 23.5t71 64t48 92.5t17.5 105
q0 125 -85 198t-235 73q-110 0 -210.5 -55.5t-163 -157t-62.5 -217.5q0 -84 37.5 -153.5t97 -107.5t110.5 -47.5t84 -9.5q65 0 140 24zM554 361l12 34q-34 49 -94 49q-18 0 -42.5 -17.5t-54 -60t-46.5 -93.5t-17 -86q0 -26 8.5 -42.5t24.5 -16.5q27 0 75 54t134 179z" />
    <glyph glyph-name="A" unicode="A" horiz-adv-x="553" 
d="M463 0h-93l-26 203h-219l-103 -203h-55l297 579l3 35l108 25zM338 250l-36 287h-7l-146 -287h189z" />
    <glyph glyph-name="B" unicode="B" horiz-adv-x="540" 
d="M212 -3l-192 4l121 623l155 4q55 1 95 -9.5t64.5 -30.5t35.5 -45.5t11 -54.5q0 -38 -18 -69.5t-54 -57t-86 -38.5v-6q60 -12 93 -47.5t33 -84.5q0 -84 -70 -137t-188 -51zM179 343h60q71 0 117 36t46 94q0 55 -40 83t-108 28h-28zM235 298h-64l-48 -245q41 -12 86 -12
q72 0 117 38.5t45 98.5q0 54 -38.5 87t-97.5 33z" />
    <glyph glyph-name="C" unicode="C" horiz-adv-x="572" 
d="M449 69l13 -44q-33 -17 -73.5 -28.5t-84.5 -11.5q-60 0 -109.5 19.5t-84.5 55t-53.5 85.5t-18.5 108q0 88 41.5 177.5t124.5 149.5t189 60q44 0 92 -12t97 -51l-49 -64q-58 84 -153 84q-44 0 -87.5 -24t-78.5 -75.5t-56.5 -122t-21.5 -140.5q0 -95 45.5 -150t135.5 -55
q32 0 68.5 11.5t63.5 27.5z" />
    <glyph glyph-name="D" unicode="D" horiz-adv-x="626" 
d="M162 -3l-142 4l121 623l145 4q58 2 106 -8.5t82.5 -30.5t58 -49t38.5 -70.5t15 -98.5q0 -100 -54 -187t-153.5 -138.5t-216.5 -48.5zM261 582h-36l-103 -532q21 -7 63 -7q65 0 121.5 27.5t97 76t62.5 110t22 126.5q0 102 -53.5 150.5t-173.5 48.5z" />
    <glyph glyph-name="E" unicode="E" horiz-adv-x="508" 
d="M396 0h-376l121 625h376l-13 -65q-33 10 -71 15t-103 5h-105l-46 -238h202l-9 -47h-202l-49 -250h105q49 0 91.5 3.5t91.5 16.5z" />
    <glyph glyph-name="F" unicode="F" horiz-adv-x="492" 
d="M113 0h-93l121 625h376l-13 -65q-32 10 -70 15t-104 5h-105l-47 -243h209l-10 -47h-208z" />
    <glyph glyph-name="G" unicode="G" horiz-adv-x="592" 
d="M384 37l45 234h94l-47 -244q-69 -42 -172 -42q-59 0 -109 19.5t-85 55t-53.5 84.5t-18.5 107q0 51 17 113.5t58.5 123t95 95.5t100.5 46t84 11q44 0 92 -12t97 -51l-49 -64q-57 82 -153 82q-44 0 -87.5 -23.5t-78.5 -75t-56.5 -121.5t-21.5 -140q0 -95 45.5 -150.5
t135.5 -55.5q40 0 67 8z" />
    <glyph glyph-name="H" unicode="H" horiz-adv-x="630" 
d="M489 0h-93l58 297h-283l-58 -297h-93l121 625h93l-55 -281h283l55 281h93z" />
    <glyph glyph-name="I" unicode="I" horiz-adv-x="254" 
d="M113 0h-93l121 625h93z" />
    <glyph glyph-name="J" unicode="J" horiz-adv-x="443" 
d="M244 182l86 443h93l-80 -415q-14 -74 -42.5 -122.5t-72 -75.5t-104.5 -27q-30 0 -62 9.5t-56 33.5t-36 56l60 54l5 -22q4 -20 15 -41t31 -33.5t42 -12.5q47 0 76.5 37.5t44.5 115.5z" />
    <glyph glyph-name="K" unicode="K" horiz-adv-x="588" 
d="M498 0h-107l-155 300l-77 -63l-46 -237h-93l121 625h93l-62 -317l375 317h71l-311 -262z" />
    <glyph glyph-name="L" unicode="L" horiz-adv-x="484" 
d="M398 0h-378l121 625h93l-112 -580h106q48 0 90 3.5t91 14.5z" />
    <glyph glyph-name="M" unicode="M" horiz-adv-x="770" 
d="M636 0h-92l84 541h-11l-285 -516h-51l-84 516h-11l-123 -541h-54l145 625h122l73 -450h12l249 450h124z" />
    <glyph glyph-name="N" unicode="N" horiz-adv-x="630" 
d="M490 4l-96 -8l-215 525h-7l-100 -521h-52l120 621l98 9l213 -526h7l100 521h52z" />
    <glyph glyph-name="O" unicode="O" horiz-adv-x="697" 
d="M306 -15q-44 0 -90.5 13.5t-90.5 50.5t-65.5 93.5t-21.5 114.5q0 51 14 103.5t46 107.5t80.5 94.5t101 58.5t109.5 19q59 0 109 -20t85.5 -57t54.5 -87.5t19 -108.5q0 -32 -8 -76.5t-31 -93.5t-57.5 -90.5t-80 -70.5t-91.5 -40t-83 -11zM319 30q28 0 61.5 12t64.5 42
t57 77t41.5 109t15.5 115q0 96 -46.5 153t-136.5 57q-43 0 -86 -23.5t-77 -74t-55.5 -119.5t-21.5 -137q0 -96 46.5 -153.5t136.5 -57.5z" />
    <glyph glyph-name="P" unicode="P" horiz-adv-x="521" 
d="M113 0h-93l121 624l159 1q36 0 73.5 -8t68 -28t51 -53t20.5 -79q0 -36 -14.5 -73.5t-48.5 -69t-86 -52t-117 -20.5q-45 0 -86 11zM279 582h-54l-55 -283q44 -12 75 -12q75 0 122.5 46.5t47.5 121.5q0 40 -21.5 71t-52.5 43.5t-62 12.5z" />
    <glyph glyph-name="Q" unicode="Q" horiz-adv-x="697" 
d="M319 30q28 0 61.5 12t64.5 42t57 77t41.5 109t15.5 115q0 96 -46.5 153t-136.5 57q-43 0 -86 -23.5t-77 -74t-55.5 -119.5t-21.5 -137q0 -96 46.5 -153.5t136.5 -57.5zM568 -197l-399 214q-62 34 -96.5 96.5t-34.5 143.5q0 51 14 103.5t46 107.5t80.5 94.5t101 58.5
t109.5 19q59 0 109 -20t85.5 -57t54.5 -87.5t19 -108.5q0 -49 -16 -108.5t-55 -118t-89 -93t-93.5 -47.5t-78.5 -15l268 -135z" />
    <glyph glyph-name="R" unicode="R" horiz-adv-x="546" 
d="M469 0h-104l-130 269l-69 6l-53 -275h-93l121 624l183 3q95 1 145.5 -40t50.5 -105q0 -48 -22.5 -87.5t-64.5 -68.5t-104 -44zM282 582h-56l-50 -256q35 -9 80 -9q39 0 79.5 17.5t63.5 53.5t23 80q0 52 -37.5 83t-102.5 31z" />
    <glyph glyph-name="S" unicode="S" horiz-adv-x="506" 
d="M4 33l33 68q33 -32 76 -52t85 -20q26 0 52.5 6.5t49.5 23t34 42t11 48.5q0 36 -32.5 70t-104.5 69q-65 31 -99 75t-34 97q0 55 26 94t77 62.5t125 23.5q48 0 102 -13t79 -27l-34 -68q-69 64 -149 64q-58 0 -98.5 -30.5t-40.5 -82.5q0 -36 28.5 -65t93.5 -64
q76 -41 112 -84t36 -95q0 -41 -14.5 -76t-44.5 -60.5t-76 -39.5t-106 -14q-50 0 -103.5 15t-83.5 33z" />
    <glyph glyph-name="T" unicode="T" horiz-adv-x="550" 
d="M262 0h-93l112 580h-44q-94 0 -165 -20l13 65h499l-13 -65q-62 20 -155 20h-42z" />
    <glyph glyph-name="U" unicode="U" horiz-adv-x="610" 
d="M470 224l78 401h52l-82 -426q-13 -67 -45.5 -113.5t-86 -73.5t-130.5 -27q-57 0 -100.5 18t-69 51.5t-33 82t3.5 106.5l73 382h93l-71 -368q-39 -205 140 -205q71 0 115.5 39.5t62.5 132.5z" />
    <glyph glyph-name="V" unicode="V" horiz-adv-x="528" 
d="M245 -2h-81l-85 627h94l66 -527h5l269 527h56z" />
    <glyph glyph-name="W" unicode="W" horiz-adv-x="818" 
d="M543 -2h-54l-61 408h-6l-216 -408h-53l-69 627h91l51 -494h5l186 354l-22 140h90l71 -494h4l242 494h52z" />
    <glyph glyph-name="X" unicode="X" horiz-adv-x="570" 
d="M480 0h-100l-117 266l-235 -266h-61l272 306l-147 319h100l115 -255l227 255h62l-266 -294z" />
    <glyph glyph-name="Y" unicode="Y" horiz-adv-x="543" 
d="M257 0h-93l51 265l-140 360h99l114 -301h9l227 301h58l-274 -360z" />
    <glyph glyph-name="Z" unicode="Z" horiz-adv-x="532" 
d="M418 0h-442l7 36l446 544h-148q-50 0 -93.5 -3.5t-88.5 -16.5l13 65h440l-7 -37l-449 -543h152q49 0 91.5 3.5t91.5 16.5z" />
    <glyph glyph-name="bracketleft" unicode="[" horiz-adv-x="348" 
d="M211 -185h-237l176 911h238l-9 -47h-181l-159 -817h181z" />
    <glyph glyph-name="backslash" unicode="\" horiz-adv-x="285" 
d="M188 -177h-43l-46 877h43z" />
    <glyph glyph-name="bracketright" unicode="]" horiz-adv-x="348" 
d="M179 -185h-237l9 47h180l159 817h-181l9 47h238z" />
    <glyph glyph-name="asciicircum" unicode="^" horiz-adv-x="419" 
d="M412 497h-39l-98 153h-7l-162 -153h-44l179 220h79z" />
    <glyph glyph-name="underscore" unicode="_" horiz-adv-x="450" 
d="M375 -161h-469l9 49h469z" />
    <glyph glyph-name="grave" unicode="`" horiz-adv-x="350" 
d="M290 534h-32l-118 177h97z" />
    <glyph glyph-name="a" unicode="a" horiz-adv-x="461" 
d="M335 11l-81 -23l40 190h-6l-21 -38.5t-41 -69t-55 -63.5t-65 -22q-42 0 -68 42t-26 104q0 78 22.5 143t60 109t82.5 67t88 23q17 0 44.5 -7.5t51.5 -20.5l63 25zM322 323l9 42q-46 52 -105 52q-13 0 -27.5 -7t-23.5 -17q-33 -35 -57 -102t-24 -128q0 -31 5.5 -55.5
t15.5 -34.5t21 -10q25 0 64.5 51.5t121.5 208.5z" />
    <glyph glyph-name="b" unicode="b" horiz-adv-x="462" 
d="M17 52l122 620l81 25l-87 -417h6l21 38.5t41 69t55 63.5t65 22q42 0 68 -42t26 -104q0 -78 -22.5 -143t-60 -109t-82.5 -67t-88 -23q-29 0 -71 17.5t-74 49.5zM105 135l-9 -42q46 -52 105 -52q13 0 27.5 7t23.5 17q33 35 57 102t24 128q0 31 -5.5 55.5t-15.5 34.5t-21 10
q-25 0 -64.5 -51.5t-121.5 -208.5z" />
    <glyph glyph-name="c" unicode="c" horiz-adv-x="399" 
d="M297 114l26 -33q-41 -49 -82.5 -72.5t-92.5 -23.5q-21 0 -44.5 8.5t-43.5 29t-34 53t-14 73.5q0 57 19.5 115t53 105.5t77.5 75.5t89 28q43 0 77 -20.5t52 -52.5l-45 -63q-45 81 -107 81q-33 0 -56 -23q-29 -29 -54 -96t-25 -138q0 -24 7 -51t27 -45.5t46 -18.5
q22 0 48.5 11t75.5 57z" />
    <glyph glyph-name="d" unicode="d" horiz-adv-x="462" 
d="M336 13l-81 -25l39 190h-6l-21 -38.5t-41 -69t-55 -63.5t-65 -22q-42 0 -68 42t-26 104q0 78 22.5 143t60 109t82.5 67t88 23q38 0 83 -23l41 222l81 25zM322 323l9 42q-46 52 -105 52q-13 0 -27.5 -7t-23.5 -17q-35 -36 -58 -99t-23 -131q0 -31 5.5 -55.5t15.5 -34.5
t21 -10q25 0 64.5 51.5t121.5 208.5z" />
    <glyph glyph-name="e" unicode="e" horiz-adv-x="404" 
d="M297 114l26 -33q-41 -49 -82 -72.5t-89 -23.5q-40 0 -73.5 21.5t-50 60.5t-16.5 81q0 58 18.5 116.5t51.5 105.5t78 75t94 28q55 0 85.5 -30t30.5 -72q0 -36 -18.5 -58.5t-58.5 -45.5t-201 -93v-19q0 -49 24.5 -78.5t60.5 -29.5q49 0 120 67zM96 220q62 29 105 52.5
t66.5 44.5t23.5 51q0 19 -19 36t-48 17q-11 0 -25 -5.5t-23 -14.5q-21 -21 -44.5 -69.5t-35.5 -111.5z" />
    <glyph glyph-name="f" unicode="f" horiz-adv-x="339" 
d="M3 -107l101 518h-71l9 47h71l6 30q13 64 42.5 110t71 72.5t85.5 26.5q25 0 49.5 -13.5t39.5 -30.5l-45 -63q-29 54 -72 54q-38 0 -57.5 -31t-33.5 -103l-10 -52h118l-9 -47h-118l-92 -469q-11 -56 -39.5 -104t-64.5 -73.5t-73 -25.5q-46 0 -79 36l40 69q26 -52 59 -52
q24 0 43.5 26.5t28.5 74.5z" />
    <glyph glyph-name="g" unicode="g" horiz-adv-x="461" 
d="M251 -29l43 207h-6l-21 -38.5t-41 -69t-55 -63.5t-65 -22q-42 0 -68 42t-26 104q0 78 22.5 143t60 109t82.5 67t88 23q17 0 44.5 -7.5t51.5 -20.5l63 25l-91 -475q-15 -75 -52 -134t-82 -90.5t-92 -31.5q-41 0 -73 20t-50 53l45 63q45 -82 101 -82q10 0 23.5 3t30.5 20
q20 20 38.5 62t28.5 93zM322 323l9 42q-46 52 -105 52q-13 0 -27.5 -7t-23.5 -17q-33 -35 -57 -102t-24 -128q0 -31 5.5 -55.5t15.5 -34.5t21 -10q25 0 64.5 51.5t121.5 208.5z" />
    <glyph glyph-name="h" unicode="h" horiz-adv-x="470" 
d="M342 0h-76q0 33 9 75t35.5 141.5t26.5 133.5q0 49 -35 49q-13 0 -24.5 -8t-29 -31.5t-47 -72t-95.5 -167.5l-23 -120h-76l132 672l81 25l-93 -449h6q56 113 102.5 169t97.5 56q19 0 40 -9t33.5 -31.5t12.5 -49.5q0 -12 -2.5 -32t-8.5 -46.5t-36 -139.5t-30 -165z" />
    <glyph glyph-name="i" unicode="i" horiz-adv-x="214" 
d="M84 0h-76l87 445l81 25zM165 548q-24 0 -38 15.5t-14 38.5q0 29 16 49.5t37 20.5q24 0 38 -15.5t14 -38.5q0 -29 -16 -49.5t-37 -20.5z" />
    <glyph glyph-name="j" unicode="j" horiz-adv-x="214" 
d="M165 548q-24 0 -38 15.5t-14 38.5q0 29 16 49.5t37 20.5q24 0 38 -15.5t14 -38.5q0 -29 -16 -49.5t-37 -20.5zM-11 -98l106 543l81 25l-103 -528q-11 -56 -39.5 -104t-64.5 -73.5t-73 -25.5q-46 0 -79 36l40 69q25 -49 58 -49q24 0 44 29t30 78z" />
    <glyph glyph-name="k" unicode="k" horiz-adv-x="433" 
d="M359 0h-84l-108 230l-45 -30l-39 -200h-76l132 672l81 25l-87 -440q62 42 124 97t105 104h65q-70 -86 -198 -183z" />
    <glyph glyph-name="l" unicode="l" horiz-adv-x="212" 
d="M83 0h-76l132 672l81 25z" />
    <glyph glyph-name="m" unicode="m" horiz-adv-x="707" 
d="M579 0h-76q0 33 9 75t35.5 141.5t26.5 133.5q0 49 -35 49q-15 0 -30 -14.5t-46 -66.5t-109 -198l-10 -52q-8 -40 -8 -68h-76q0 23 9 70l50 259q6 28 -1 49t-28 21q-16 0 -31 -18t-43 -65t-110 -196l-23 -120h-76l87 445l80 25l-47 -222h6q33 66 62.5 115t60 79.5
t69.5 30.5q42 0 64 -34t12 -77l-26 -114h6q60 121 99 173t90 52q19 0 40 -9t33.5 -31.5t12.5 -49.5q0 -12 -2.5 -32t-8.5 -46.5t-36 -139.5t-30 -165z" />
    <glyph glyph-name="n" unicode="n" horiz-adv-x="470" 
d="M342 0h-76q0 33 9 75t35.5 141.5t26.5 133.5q0 49 -35 49q-13 0 -24.5 -8t-29 -31.5t-47 -72t-95.5 -167.5l-23 -120h-76l87 445l80 25l-47 -222h6q56 113 102.5 169t97.5 56q19 0 40 -9t33.5 -31.5t12.5 -49.5q0 -12 -2.5 -32t-8.5 -46.5t-36 -139.5t-30 -165z" />
    <glyph glyph-name="o" unicode="o" horiz-adv-x="444" 
d="M166 -15q-83 0 -118.5 47.5t-35.5 143.5q0 50 18.5 103t51 97t74.5 70.5t87 26.5q80 0 117 -49t37 -142q0 -50 -18.5 -103t-51 -97t-74.5 -70.5t-87 -26.5zM165 30q21 0 45.5 16.5t47.5 54t39.5 93t16.5 116.5q0 23 -5 50.5t-18.5 44t-25.5 20t-21 3.5q-19 0 -43 -15.5
t-51 -55.5t-42 -95.5t-15 -104.5q0 -52 18 -89.5t54 -37.5z" />
    <glyph glyph-name="p" unicode="p" horiz-adv-x="464" 
d="M35 -246h-76l135 691l81 25l-39 -190h6l21 38.5t41 69t55 63.5t65 22q42 0 68 -42t26 -104q0 -78 -22.5 -143t-60 -109t-82.5 -67t-88 -23q-38 0 -83 23zM108 135l-9 -42q46 -52 105 -52q13 0 27.5 7t23.5 17q35 36 58 99t23 131q0 31 -5.5 55.5t-15.5 34.5t-21 10
q-25 0 -64.5 -51.5t-121.5 -208.5z" />
    <glyph glyph-name="q" unicode="q" horiz-adv-x="461" 
d="M284 -246h-76l86 424h-6l-21 -38.5t-41 -69t-55 -63.5t-65 -22q-42 0 -68 42t-26 104q0 78 22.5 143t60 109t82.5 67t88 23q17 0 44 -7.5t52 -20.5l63 25zM322 323l9 42q-46 52 -105 52q-13 0 -27.5 -7t-23.5 -17q-33 -35 -57 -102t-24 -128q0 -31 5.5 -55.5t15.5 -34.5
t21 -10q25 0 64.5 51.5t121.5 208.5z" />
    <glyph glyph-name="r" unicode="r" horiz-adv-x="353" 
d="M83 0h-76l87 445l81 25l-36 -164h7q40 87 77.5 127t90.5 40q27 0 50 -18l-36 -82q-13 24 -37 24q-44 0 -89.5 -69.5t-94.5 -203.5z" />
    <glyph glyph-name="s" unicode="s" horiz-adv-x="354" 
d="M344 411l-42 -58q-20 37 -47.5 57t-58.5 20t-50.5 -19t-19.5 -45q0 -19 9.5 -39t59.5 -70q45 -44 66 -78.5t21 -65.5t-16.5 -59t-50.5 -48.5t-83 -20.5q-26 0 -56 7t-56 23t-42 35l40 55q27 -41 52.5 -59t60.5 -18q31 0 53.5 21.5t22.5 47.5q0 18 -11.5 39.5t-73.5 81.5
q-71 67 -71 132q0 41 25 70.5t58.5 41t61.5 11.5q37 0 77.5 -14t70.5 -48z" />
    <glyph glyph-name="t" unicode="t" horiz-adv-x="325" 
d="M224 106l27 -32q-45 -54 -72.5 -71.5t-52.5 -17.5q-61 0 -78 39t-1 107l64 280h-74l9 47h76l31 137l83 20l-37 -157h128l-9 -47h-130l-67 -296q-7 -29 -3 -50t30 -21q24 0 76 62z" />
    <glyph glyph-name="u" unicode="u" horiz-adv-x="470" 
d="M344 13l-80 -25l47 222h-6q-56 -113 -102.5 -169t-97.5 -56q-19 0 -40 9t-33.5 31.5t-12.5 49.5q0 12 2.5 32t8.5 46.5t36 139.5t30 165h76q0 -33 -9 -75t-35.5 -141.5t-26.5 -133.5q0 -21 8.5 -35t27.5 -14q22 0 42.5 25.5t53.5 79.5t99 174l23 120h76z" />
    <glyph glyph-name="v" unicode="v" horiz-adv-x="423" 
d="M178 -2h-51l-79 460h80l57 -366h7q122 190 167 366h52q-23 -92 -91.5 -228t-141.5 -232z" />
    <glyph glyph-name="w" unicode="w" horiz-adv-x="647" 
d="M410 -2h-52l-39 263q-74 -163 -149 -263h-52l-70 460h80l50 -366h5q78 127 124 244l-19 122h80l50 -366h5q56 90 97 184t62 182h53q-22 -92 -88 -228t-137 -232z" />
    <glyph glyph-name="x" unicode="x" horiz-adv-x="433" 
d="M351 0h-82l-89 194q-17 -18 -66 -73.5t-89 -120.5h-58q28 48 80 111t114 124l-102 223h82l83 -180q39 41 78 90t63 90h58q-56 -96 -180 -222z" />
    <glyph glyph-name="y" unicode="y" horiz-adv-x="427" 
d="M126 -3l-78 461h80l56 -366h6q39 64 80.5 148t91.5 218h53q-135 -365 -387 -657q-53 -62 -99 -62q-9 0 -24 6t-32 21l31 79q27 -38 50 -38q25 0 59 39q44 49 113 151z" />
    <glyph glyph-name="z" unicode="z" horiz-adv-x="434" 
d="M342 67l-12 -65q-41 -8 -71 -8q-31 0 -95 6.5t-95 6.5q-47 0 -85 -9l8 41l311 375h-74q-105 0 -170 -17l12 61h338l-7 -38l-308 -368q23 0 69.5 -5.5t73.5 -5.5q56 0 105 26z" />
    <glyph glyph-name="braceleft" unicode="{" horiz-adv-x="332" 
d="M191 -143l-9 -42q-81 4 -124.5 35.5t-43.5 86.5q0 18 5 39t17 44t45.5 73t33.5 83q0 24 -20.5 39t-47.5 20t-49 6l11 57q75 2 111.5 28t36.5 72q0 22 -13 67.5t-13 73.5q0 54 27 93.5t78 64t123 28.5l-9 -45q-59 -6 -96.5 -34t-37.5 -79q0 -21 12.5 -64.5t12.5 -70.5
t-9.5 -51.5t-28.5 -46.5t-53 -40.5t-64 -19.5l-3 -12q23 -1 46.5 -13.5t41.5 -35.5t18 -54q0 -45 -42.5 -107.5t-48.5 -82.5t-6 -33q0 -22 14 -40.5t38 -27.5t47 -11z" />
    <glyph glyph-name="bar" unicode="|" horiz-adv-x="250" 
d="M56 -157h-44l171 877h44z" />
    <glyph glyph-name="braceright" unicode="}" horiz-adv-x="332" 
d="M-37 -185l8 44q58 5 97 35t39 81q0 22 -13 63.5t-13 68.5q0 36 19.5 71t61.5 59.5t74 26.5l2 12q-17 0 -41.5 10.5t-44.5 36t-20 56.5q0 15 5 33.5t15.5 38.5t44 70.5t33.5 84.5q0 30 -25.5 51t-73.5 25l9 43q50 -3 86.5 -16.5t59 -39.5t22.5 -66q0 -27 -10.5 -57
t-36 -68.5t-35 -55t-14.5 -32t-5 -28.5q0 -18 12.5 -32.5t40.5 -22.5t64 -9l-11 -57q-77 -4 -112.5 -29t-35.5 -72q0 -22 13 -67t13 -73q0 -32 -12 -64.5t-40.5 -58t-72.5 -42.5t-103 -20z" />
    <glyph glyph-name="asciitilde" unicode="~" horiz-adv-x="400" 
d="M337 314h39q-14 -48 -31 -76.5t-38.5 -40t-46.5 -11.5q-19 0 -38.5 9t-54.5 37.5t-54 28.5q-21 0 -36 -15.5t-29 -50.5h-39q15 48 31 76.5t37.5 40t46.5 11.5q22 0 42 -10.5t53.5 -37.5t52.5 -27q21 0 36 15.5t29 50.5z" />
    <glyph glyph-name="uni00A0" unicode="&#xa0;" horiz-adv-x="200" 
 />
    <glyph glyph-name="exclamdown" unicode="&#xa1;" horiz-adv-x="276" 
d="M196 508q-26 0 -45.5 19.5t-19.5 46.5t19.5 46.5t45.5 19.5t45.5 -19.5t19.5 -46.5t-19.5 -46.5t-45.5 -19.5zM35 34l116 391h37l-37 -397q-2 -25 -17 -34t-49 -9q-33 0 -45 13t-5 36z" />
    <glyph glyph-name="cent" unicode="&#xa2;" horiz-adv-x="413" 
d="M128 -119h-39l49 163q-21 7 -45 26t-40 55.5t-16 77.5q0 36 11 81.5t34.5 86t51.5 67.5t64 42.5t75 15.5l46 153h39l-47 -159q57 -15 86 -67l-45 -63q-11 20 -27 38.5t-33 28.5l-98 -325q24 0 51.5 11t76.5 57l26 -35q-40 -48 -81.5 -71.5t-91.5 -24.5zM159 114l97 325
l-11 1q-33 0 -56 -23q-29 -29 -50 -82t-21 -118q0 -35 11 -62t30 -41z" />
    <glyph glyph-name="sterling" unicode="&#xa3;" horiz-adv-x="458" 
d="M338 0h-342l17 94q54 30 86 83.5t35 118.5h-99l8 42h87q-1 6 -4 27t-5 39.5t-2 38.5q0 42 15.5 79t42 63.5t61 40.5t70.5 14q38 0 75 -11t71 -43l-48 -61q-28 68 -91 68q-50 0 -80.5 -41.5t-30.5 -103.5q0 -29 7.5 -64t8.5 -46h120l-8 -42h-111q-5 -62 -42.5 -119
t-106.5 -93h282z" />
    <glyph glyph-name="currency" unicode="&#xa4;" horiz-adv-x="496" 
d="M438 115l-83 83q-21 -15 -48.5 -24.5t-53.5 -9.5t-53.5 9.5t-48.5 24.5l-83 -83l-33 33l83 84q-15 20 -24.5 47.5t-9.5 53.5q0 27 9.5 54.5t24.5 47.5l-83 84l33 33l83 -84q21 16 48 25t54 9t54 -9t48 -25l83 84l33 -33l-83 -84q15 -20 24.5 -47.5t9.5 -54.5
q0 -26 -9.5 -53.5t-24.5 -47.5l83 -84zM253 220q47 0 80 33t33 80q0 22 -11 48.5t-39.5 46t-62.5 19.5q-22 0 -48.5 -11.5t-45.5 -40t-19 -62.5q0 -47 33 -80t80 -33z" />
    <glyph glyph-name="yen" unicode="&#xa5;" horiz-adv-x="511" 
d="M410 131h-154l-25 -131h-84l25 131h-154l8 42h154l17 88h-154l9 42h138l-99 322h90l89 -301l205 301h55l-222 -322h136l-9 -42h-154l-17 -88h154z" />
    <glyph glyph-name="brokenbar" unicode="&#xa6;" horiz-adv-x="250" 
d="M146 305h-44l65 335h44zM60 -137h-44l65 335h44z" />
    <glyph glyph-name="section" unicode="&#xa7;" horiz-adv-x="461" 
d="M-17 -71l39 60q47 -63 118 -63q22 0 47 7.5t42.5 28t17.5 47.5q0 26 -17 52t-80 59q-64 33 -93.5 68.5t-29.5 79.5q0 92 102 136q-26 36 -26 86q0 42 22.5 75t63.5 54t94 21q92 0 150 -48l-40 -60q-24 31 -51.5 47t-65.5 16q-22 0 -47 -7.5t-42.5 -28t-17.5 -47.5
q0 -36 23 -61t73 -51q56 -29 82.5 -56t34 -49.5t7.5 -41.5q0 -93 -103 -136q27 -37 27 -86q0 -25 -10 -51.5t-33 -48t-58.5 -36t-78.5 -14.5q-92 0 -150 48zM265 139q56 27 56 85q0 19 -9.5 39t-31 35.5t-58.5 35.5q-50 28 -72 48q-56 -29 -56 -86q0 -29 19 -53.5t80 -56.5
q45 -22 72 -47z" />
    <glyph glyph-name="dieresis" unicode="&#xa8;" horiz-adv-x="350" 
d="M154 558q-22 0 -35 15t-13 36q0 27 15.5 47t37.5 20t35 -15t13 -36q0 -27 -15.5 -47t-37.5 -20zM333 558q-22 0 -35 15t-13 36q0 27 15.5 47t37.5 20t35 -15t13 -36q0 -27 -15.5 -47t-37.5 -20z" />
    <glyph glyph-name="copyright" unicode="&#xa9;" horiz-adv-x="800" 
d="M400 -41q-71 0 -136 27.5t-113.5 76t-76 113.5t-27.5 136t27.5 136t76 114t113.5 76.5t136 27.5t136 -27.5t113.5 -76.5t76 -114t27.5 -136t-27.5 -136t-76 -113.5t-113.5 -76t-136 -27.5zM400 -1q62 0 119 24.5t99.5 68t66.5 101t24 119.5t-24 119.5t-66.5 101.5
t-99.5 68.5t-119 24.5t-119 -24.5t-99.5 -68.5t-66.5 -101.5t-24 -119.5t24 -119.5t66.5 -101t99.5 -68t119 -24.5zM513 179l18 -33q-23 -14 -54 -23.5t-61 -9.5q-33 0 -68.5 9.5t-69.5 36.5t-51 68t-17 83q0 29 10.5 62.5t35 64t65 52.5t93.5 22q39 0 73 -11t59 -27
l-30 -51q-40 51 -104 51q-33 0 -64.5 -18.5t-48.5 -56t-17 -82.5q0 -75 41 -118.5t105 -43.5q45 0 85 25z" />
    <glyph glyph-name="ordfeminine" unicode="&#xaa;" horiz-adv-x="364" 
d="M313 302l-71 -17l28 128h-5q-37 -73 -68 -101.5t-67 -28.5q-15 0 -32 10t-29.5 36.5t-12.5 58.5q0 42 11.5 86t41 83.5t67 58.5t68.5 19q13 0 36 -5.5t40 -14.5l58 18zM292 527l5 26q-32 36 -75 36q-4 0 -15 -3t-21 -14q-24 -25 -41.5 -71t-17.5 -86q0 -68 30 -68
q22 0 53 41t82 139z" />
    <glyph glyph-name="guillemotleft" unicode="&#xab;" horiz-adv-x="595" 
d="M223 59l-216 174l10 49l283 174l16 -30l-205 -177l135 -167zM469 59l-216 174l10 49l283 174l16 -30l-205 -177l135 -167z" />
    <glyph glyph-name="logicalnot" unicode="&#xac;" 
d="M402 123h-51l31 161h-343l10 50h394z" />
    <glyph glyph-name="uni00AD" unicode="&#xad;" horiz-adv-x="328" 
d="M262 238h-218l11 53h218z" />
    <glyph glyph-name="registered" unicode="&#xae;" horiz-adv-x="593" 
d="M309 126q-52 0 -99 20t-82 55t-55 82.5t-20 99.5t20 99t55 82.5t82.5 55.5t98.5 20t98.5 -20t82.5 -55.5t55 -82.5t20 -99t-20 -99.5t-55 -82.5t-82 -55t-99 -20zM309 158q33 0 70.5 11.5t75.5 43.5t57.5 78.5t19.5 91.5q0 33 -11.5 70.5t-43 76t-77.5 58.5t-91 20
t-86 -17.5t-72 -49t-48.5 -72.5t-17.5 -86t17.5 -86.5t48.5 -72.5t72 -48.5t86 -17.5zM420 250h-58l-58 108l-35 2v-110h-52v267l90 1q49 1 74 -18t25 -53q0 -52 -55 -74zM287 489h-18v-100l29 -2q24 0 38.5 13.5t14.5 36.5q0 24 -16 38t-48 14z" />
    <glyph glyph-name="macron" unicode="&#xaf;" horiz-adv-x="350" 
d="M361 593h-252l9 46h252z" />
    <glyph glyph-name="degree" unicode="&#xb0;" horiz-adv-x="400" 
d="M223 337q-27 0 -60.5 12.5t-57 45t-23.5 77.5q0 25 8.5 53t29 53.5t53.5 43.5t74 18q28 0 58.5 -11t48 -30t27 -40.5t9.5 -51.5q0 -25 -8.5 -53.5t-32 -57.5t-58 -44t-68.5 -15zM227 386q21 0 46.5 11t43.5 39t19 62q0 41 -26.5 67.5t-67.5 26.5q-22 0 -46.5 -12
t-42 -41.5t-17.5 -62.5q0 -40 26 -65t65 -25z" />
    <glyph glyph-name="plusminus" unicode="&#xb1;" 
d="M433 247h-176l-29 -151h-49l29 151h-175l9 48h175l32 163h49l-32 -163h176zM385 0h-400l9 48h400z" />
    <glyph glyph-name="uni00B2" unicode="&#xb2;" horiz-adv-x="330" 
d="M292 273h-267v43q133 90 188.5 144t55.5 98q0 27 -18 40.5t-48 13.5q-24 0 -55 -12.5t-56 -34.5l-18 31q34 32 75 50t83 18q56 0 86.5 -25t30.5 -69q0 -26 -16.5 -55.5t-64 -70.5t-151.5 -103v-5h187z" />
    <glyph glyph-name="uni00B3" unicode="&#xb3;" horiz-adv-x="330" 
d="M224 482v-4q42 0 69 -24t27 -60q0 -20 -9 -42.5t-32 -45t-57 -34.5t-64 -12q-76 0 -126 45l37 48q32 -55 86 -55q19 0 39 8.5t33 30t13 47.5q0 56 -63 56q-18 0 -48 -10l-8 31q134 60 134 109q0 42 -54 42q-46 0 -101 -40l-17 31q74 61 153 61q50 0 74.5 -20t24.5 -54
q0 -62 -111 -108z" />
    <glyph glyph-name="acute" unicode="&#xb4;" horiz-adv-x="350" 
d="M376 711l-186 -177h-40l123 177h103z" />
    <glyph glyph-name="uni00B5" unicode="&#xb5;" horiz-adv-x="518" 
d="M385 13l-88 -25l14 74h-5q-37 -39 -71 -58t-70 -19q-67 0 -91 50l-55 -281h-58l137 704h84l-57 -293q-12 -62 5.5 -88t60.5 -26q29 0 65 20t66 50l66 337h84z" />
    <glyph glyph-name="paragraph" unicode="&#xb6;" horiz-adv-x="480" 
d="M320 -32h-63l59 309q-43 -10 -83 -10q-59 0 -99 18.5t-61.5 53t-21.5 83.5q0 35 13 70.5t43.5 65t78 48.5t108.5 19h152z" />
    <glyph glyph-name="periodcentered" unicode="&#xb7;" horiz-adv-x="230" 
d="M103 196q-26 0 -45.5 19.5t-19.5 46.5t19.5 46.5t45.5 19.5t45.5 -19.5t19.5 -46.5t-19.5 -46.5t-45.5 -19.5z" />
    <glyph glyph-name="cedilla" unicode="&#xb8;" horiz-adv-x="350" 
d="M-21 -275l7 36q74 0 118.5 18.5t44.5 55.5q0 19 -21 30.5t-59 11.5q-39 0 -68 -5l5 25l136 118h49l-95 -82q62 0 96.5 -21.5t34.5 -58.5q0 -44 -34.5 -72.5t-92 -42t-121.5 -13.5z" />
    <glyph glyph-name="uni00B9" unicode="&#xb9;" horiz-adv-x="330" 
d="M218 273h-74l60 310h-94l7 35l176 43z" />
    <glyph glyph-name="ordmasculine" unicode="&#xba;" horiz-adv-x="349" 
d="M176 283q-125 0 -125 144q0 37 14 75.5t39 69.5t58.5 49.5t69.5 18.5q125 0 125 -144q0 -47 -24 -99t-67.5 -83t-89.5 -31zM176 324q14 0 32 10t37 36t30 65.5t11 74.5q0 28 -7 49.5t-20 30.5t-27 9t-32 -10t-37 -36t-30 -65.5t-11 -74.5q0 -27 7 -49t20.5 -31t26.5 -9z
" />
    <glyph glyph-name="guillemotright" unicode="&#xbb;" horiz-adv-x="595" 
d="M554 233l-283 -174l-16 30l205 177l-135 167l23 23l216 -174zM308 233l-283 -174l-16 30l205 177l-135 167l23 23l216 -174z" />
    <glyph glyph-name="onequarter" unicode="&#xbc;" horiz-adv-x="715" 
d="M189 273h-74l60 310h-94l7 35l176 43zM33 -116h-57l679 741h57zM530 -143h-74l17 86h-169v44l241 250h59l-48 -244h55l-9 -50h-55zM482 -7l30 154h-5l-148 -154h123z" />
    <glyph glyph-name="onehalf" unicode="&#xbd;" horiz-adv-x="715" 
d="M183 273h-74l60 310h-94l7 35l176 43zM12 -116h-57l679 741h57zM618 -143h-267v43q133 90 188.5 144t55.5 98q0 27 -18 40.5t-48 13.5q-24 0 -55 -12.5t-56 -34.5l-18 31q34 32 75 50t83 18q56 0 86.5 -25t30.5 -69q0 -26 -16.5 -55.5t-64 -70.5t-151.5 -103v-5h187z" />
    <glyph glyph-name="threequarters" unicode="&#xbe;" horiz-adv-x="715" 
d="M62 -116h-57l679 741h57zM221 482v-4q42 0 69 -24t27 -60q0 -20 -9 -42.5t-32 -45t-57 -34.5t-64 -12q-76 0 -126 45l37 48q32 -55 86 -55q19 0 39 8.5t33 30t13 47.5q0 56 -63 56q-18 0 -48 -10l-8 31q134 60 134 109q0 42 -54 42q-46 0 -101 -40l-17 31q74 61 153 61
q50 0 74.5 -20t24.5 -54q0 -62 -111 -108zM540 -143h-74l17 86h-169v44l241 250h59l-48 -244h55l-9 -50h-55zM492 -7l30 154h-5l-148 -154h123z" />
    <glyph glyph-name="questiondown" unicode="&#xbf;" horiz-adv-x="355" 
d="M269 508q-26 0 -45.5 19.5t-19.5 46.5t19.5 46.5t45.5 19.5t45.5 -19.5t19.5 -46.5t-19.5 -46.5t-45.5 -19.5zM219 425h37q16 -19 26 -43t10 -45q0 -46 -30.5 -75.5t-111.5 -55.5q-95 -29 -95 -70q0 -27 30.5 -44t95.5 -17q18 0 40.5 3t34.5 7q6 -9 6 -33q0 -15 -9.5 -31
t-33 -26t-49.5 -10q-44 0 -83.5 20.5t-60.5 57t-21 72.5q0 63 33.5 103.5t109.5 60.5q51 14 69.5 31t18.5 47q0 16 -17 48z" />
    <glyph glyph-name="Agrave" unicode="&#xc0;" horiz-adv-x="553" 
d="M334 699h-32l-118 177h97zM463 0h-93l-26 203h-219l-103 -203h-55l297 579l3 35l108 25zM338 250l-36 287h-7l-146 -287h189z" />
    <glyph glyph-name="Aacute" unicode="&#xc1;" horiz-adv-x="553" 
d="M530 876l-186 -177h-40l123 177h103zM463 0h-93l-26 203h-219l-103 -203h-55l297 579l3 35l108 25zM338 250l-36 287h-7l-146 -287h189z" />
    <glyph glyph-name="Acircumflex" unicode="&#xc2;" horiz-adv-x="553" 
d="M488 699h-39l-89 130h-7l-144 -130h-44l161 197h79zM463 0h-93l-26 203h-219l-103 -203h-55l297 579l3 35l108 25zM338 250l-36 287h-7l-146 -287h189z" />
    <glyph glyph-name="Atilde" unicode="&#xc3;" horiz-adv-x="553" 
d="M463 0h-93l-26 203h-219l-103 -203h-55l297 579l3 35l108 25zM338 250l-36 287h-7l-146 -287h189zM469 849h39q-14 -47 -32 -76.5t-41 -40.5t-46 -11q-35 0 -64 31.5t-38 37.5t-20 6q-15 0 -29.5 -10.5t-32.5 -55.5h-39q14 47 31.5 76t39.5 40.5t47 11.5q35 0 64 -31.5
t38.5 -37.5t20.5 -6q15 0 29.5 10.5t32.5 55.5z" />
    <glyph glyph-name="Adieresis" unicode="&#xc4;" horiz-adv-x="553" 
d="M463 0h-93l-26 203h-219l-103 -203h-55l297 579l3 35l108 25zM338 250l-36 287h-7l-146 -287h189zM231 723q-22 0 -35 15t-13 36q0 27 15.5 47t37.5 20t35 -15t13 -36q0 -27 -15.5 -47t-37.5 -20zM410 723q-22 0 -35 15t-13 36q0 27 15.5 47t37.5 20t35 -15t13 -36
q0 -27 -15.5 -47t-37.5 -20z" />
    <glyph glyph-name="Aring" unicode="&#xc5;" horiz-adv-x="553" 
d="M463 0h-93l-26 203h-219l-103 -203h-55l304 592q-21 15 -33.5 39.5t-12.5 52.5q0 21 10 47.5t37 45.5t64 19q24 0 50 -11t43.5 -39t17.5 -62t-17 -62.5t-47 -40.5zM336 611q30 0 49 22.5t19 50.5t-19 50.5t-49 22.5t-49.5 -22.5t-19.5 -50.5t19.5 -50.5t49.5 -22.5z
M338 250l-36 287h-7l-146 -287h189z" />
    <glyph glyph-name="AE" unicode="&#xc6;" horiz-adv-x="835" 
d="M723 0h-376l39 203h-215l-151 -203h-60l467 625h417l-13 -65q-33 10 -71 15t-103 5h-105l-46 -238h202l-9 -47h-202l-49 -250h105q49 0 91.5 3.5t91.5 16.5zM395 247l64 333h-6l-249 -333h191z" />
    <glyph glyph-name="Ccedilla" unicode="&#xc7;" horiz-adv-x="572" 
d="M129 -275l7 36q74 0 118.5 18.5t44.5 55.5q0 19 -21 30.5t-59 11.5q-39 0 -68 -5l5 25l104 91q-103 13 -162.5 84.5t-59.5 180.5q0 88 41.5 177.5t124.5 149.5t189 60q44 0 92 -12t97 -51l-49 -64q-57 82 -153 82q-44 0 -87.5 -23.5t-78.5 -75t-56.5 -121.5t-21.5 -140
q0 -95 45.5 -150t135.5 -55q32 0 68.5 11.5t63.5 27.5l13 -44q-33 -18 -74.5 -28.5t-81.5 -11.5l-60 -52q62 0 96.5 -21.5t34.5 -58.5q0 -44 -34.5 -72.5t-92 -42t-121.5 -13.5z" />
    <glyph glyph-name="Egrave" unicode="&#xc8;" horiz-adv-x="508" 
d="M396 0h-376l121 625h376l-13 -65q-33 10 -71 15t-103 5h-105l-46 -238h202l-9 -47h-202l-49 -250h105q49 0 91.5 3.5t91.5 16.5zM368 699h-32l-118 177h97z" />
    <glyph glyph-name="Eacute" unicode="&#xc9;" horiz-adv-x="508" 
d="M396 0h-376l121 625h376l-13 -65q-33 10 -71 15t-103 5h-105l-46 -238h202l-9 -47h-202l-49 -250h105q49 0 91.5 3.5t91.5 16.5zM520 876l-186 -177h-40l123 177h103z" />
    <glyph glyph-name="Ecircumflex" unicode="&#xca;" horiz-adv-x="508" 
d="M396 0h-376l121 625h376l-13 -65q-33 10 -71 15t-103 5h-105l-46 -238h202l-9 -47h-202l-49 -250h105q49 0 91.5 3.5t91.5 16.5zM501 699h-39l-89 130h-7l-144 -130h-44l161 197h79z" />
    <glyph glyph-name="Edieresis" unicode="&#xcb;" horiz-adv-x="508" 
d="M396 0h-376l121 625h376l-13 -65q-33 10 -71 15t-103 5h-105l-46 -238h202l-9 -47h-202l-49 -250h105q49 0 91.5 3.5t91.5 16.5zM257 723q-22 0 -35 15t-13 36q0 27 15.5 47t37.5 20t35 -15t13 -36q0 -27 -15.5 -47t-37.5 -20zM436 723q-22 0 -35 15t-13 36q0 27 15.5 47
t37.5 20t35 -15t13 -36q0 -27 -15.5 -47t-37.5 -20z" />
    <glyph glyph-name="Igrave" unicode="&#xcc;" horiz-adv-x="255" 
d="M113 0h-93l121 625h93zM225 699h-32l-118 177h97z" />
    <glyph glyph-name="Iacute" unicode="&#xcd;" horiz-adv-x="254" 
d="M113 0h-93l121 625h93zM397 876l-186 -177h-40l123 177h103z" />
    <glyph glyph-name="Icircumflex" unicode="&#xce;" horiz-adv-x="254" 
d="M113 0h-93l121 625h93zM353 699h-39l-89 130h-7l-144 -130h-44l161 197h79z" />
    <glyph glyph-name="Idieresis" unicode="&#xcf;" horiz-adv-x="254" 
d="M113 0h-93l121 625h93zM123 723q-22 0 -35 15t-13 36q0 27 15.5 47t37.5 20t35 -15t13 -36q0 -27 -15.5 -47t-37.5 -20zM302 723q-22 0 -35 15t-13 36q0 27 15.5 47t37.5 20t35 -15t13 -36q0 -27 -15.5 -47t-37.5 -20z" />
    <glyph glyph-name="Eth" unicode="&#xd0;" horiz-adv-x="636" 
d="M172 -3l-142 4l56 291h-69l8 43h70l56 289l145 4q58 2 106 -8.5t82.5 -30.5t58 -49t38.5 -70.5t15 -98.5q0 -100 -54 -187t-153.5 -138.5t-216.5 -48.5zM293 292h-114l-47 -242q21 -7 63 -7q65 0 121.5 27.5t97 76t62.5 110t22 126.5q0 102 -53.5 150.5t-173.5 48.5h-36
l-48 -247h114z" />
    <glyph glyph-name="Ntilde" unicode="&#xd1;" horiz-adv-x="630" 
d="M490 4l-96 -8l-215 525h-7l-100 -521h-52l120 621l98 9l213 -526h7l100 521h52zM541 849h39q-14 -47 -32 -76.5t-41 -40.5t-46 -11q-35 0 -64 31.5t-38 37.5t-20 6q-15 0 -29.5 -10.5t-32.5 -55.5h-39q14 47 31.5 76t39.5 40.5t47 11.5q35 0 64 -31.5t38.5 -37.5t20.5 -6
q15 0 29.5 10.5t32.5 55.5z" />
    <glyph glyph-name="Ograve" unicode="&#xd2;" horiz-adv-x="697" 
d="M306 -15q-44 0 -90.5 13.5t-90.5 50.5t-65.5 93.5t-21.5 114.5q0 51 14 103.5t46 107.5t80.5 94.5t101 58.5t109.5 19q59 0 109 -20t85.5 -57t54.5 -87.5t19 -108.5q0 -32 -8 -76.5t-31 -93.5t-57.5 -90.5t-80 -70.5t-91.5 -40t-83 -11zM319 30q28 0 61.5 12t64.5 42
t57 77t41.5 109t15.5 115q0 96 -46.5 153t-136.5 57q-43 0 -86 -23.5t-77 -74t-55.5 -119.5t-21.5 -137q0 -96 46.5 -153.5t136.5 -57.5zM420 699h-32l-118 177h97z" />
    <glyph glyph-name="Oacute" unicode="&#xd3;" horiz-adv-x="697" 
d="M306 -15q-44 0 -90.5 13.5t-90.5 50.5t-65.5 93.5t-21.5 114.5q0 51 14 103.5t46 107.5t80.5 94.5t101 58.5t109.5 19q59 0 109 -20t85.5 -57t54.5 -87.5t19 -108.5q0 -32 -8 -76.5t-31 -93.5t-57.5 -90.5t-80 -70.5t-91.5 -40t-83 -11zM319 30q28 0 61.5 12t64.5 42
t57 77t41.5 109t15.5 115q0 96 -46.5 153t-136.5 57q-43 0 -86 -23.5t-77 -74t-55.5 -119.5t-21.5 -137q0 -96 46.5 -153.5t136.5 -57.5zM596 876l-186 -177h-40l123 177h103z" />
    <glyph glyph-name="Ocircumflex" unicode="&#xd4;" horiz-adv-x="697" 
d="M306 -15q-44 0 -90.5 13.5t-90.5 50.5t-65.5 93.5t-21.5 114.5q0 51 14 103.5t46 107.5t80.5 94.5t101 58.5t109.5 19q59 0 109 -20t85.5 -57t54.5 -87.5t19 -108.5q0 -32 -8 -76.5t-31 -93.5t-57.5 -90.5t-80 -70.5t-91.5 -40t-83 -11zM319 30q28 0 61.5 12t64.5 42
t57 77t41.5 109t15.5 115q0 96 -46.5 153t-136.5 57q-43 0 -86 -23.5t-77 -74t-55.5 -119.5t-21.5 -137q0 -96 46.5 -153.5t136.5 -57.5zM573 699h-39l-89 130h-7l-144 -130h-44l161 197h79z" />
    <glyph glyph-name="Otilde" unicode="&#xd5;" horiz-adv-x="697" 
d="M306 -15q-44 0 -90.5 13.5t-90.5 50.5t-65.5 93.5t-21.5 114.5q0 51 14 103.5t46 107.5t80.5 94.5t101 58.5t109.5 19q59 0 109 -20t85.5 -57t54.5 -87.5t19 -108.5q0 -32 -8 -76.5t-31 -93.5t-57.5 -90.5t-80 -70.5t-91.5 -40t-83 -11zM319 30q28 0 61.5 12t64.5 42
t57 77t41.5 109t15.5 115q0 96 -46.5 153t-136.5 57q-43 0 -86 -23.5t-77 -74t-55.5 -119.5t-21.5 -137q0 -96 46.5 -153.5t136.5 -57.5zM567 849h39q-14 -47 -32 -76.5t-41 -40.5t-46 -11q-35 0 -64 31.5t-38 37.5t-20 6q-15 0 -29.5 -10.5t-32.5 -55.5h-39q14 47 31.5 76
t39.5 40.5t47 11.5q35 0 64 -31.5t38.5 -37.5t20.5 -6q15 0 29.5 10.5t32.5 55.5z" />
    <glyph glyph-name="Odieresis" unicode="&#xd6;" horiz-adv-x="697" 
d="M306 -15q-44 0 -90.5 13.5t-90.5 50.5t-65.5 93.5t-21.5 114.5q0 51 14 103.5t46 107.5t80.5 94.5t101 58.5t109.5 19q59 0 109 -20t85.5 -57t54.5 -87.5t19 -108.5q0 -32 -8 -76.5t-31 -93.5t-57.5 -90.5t-80 -70.5t-91.5 -40t-83 -11zM319 30q28 0 61.5 12t64.5 42
t57 77t41.5 109t15.5 115q0 96 -46.5 153t-136.5 57q-43 0 -86 -23.5t-77 -74t-55.5 -119.5t-21.5 -137q0 -96 46.5 -153.5t136.5 -57.5zM333 723q-22 0 -35 15t-13 36q0 27 15.5 47t37.5 20t35 -15t13 -36q0 -27 -15.5 -47t-37.5 -20zM512 723q-22 0 -35 15t-13 36
q0 27 15.5 47t37.5 20t35 -15t13 -36q0 -27 -15.5 -47t-37.5 -20z" />
    <glyph glyph-name="multiply" unicode="&#xd7;" 
d="M408 69l-36 -30l-135 167l-199 -167l-30 37l200 167l-135 168l36 30l136 -167l199 167l29 -37l-199 -168z" />
    <glyph glyph-name="Oslash" unicode="&#xd8;" horiz-adv-x="697" 
d="M146 -73h-47l57 98q-56 34 -87 95t-31 137q0 51 14 103.5t46 107.5t80.5 94.5t101 58.5t109.5 19q62 0 111 -21l46 78h47l-56 -96q57 -35 88.5 -96.5t31.5 -137.5q0 -32 -8 -76.5t-31 -93.5t-57.5 -90.5t-80 -70.5t-91.5 -40t-83 -11q-59 0 -114 21zM188 80l285 492
q-37 23 -97 23q-43 0 -86 -23.5t-77 -74t-55.5 -119.5t-21.5 -137q0 -105 52 -161zM505 547l-285 -493q39 -24 99 -24q28 0 61.5 12t64.5 42t57 77t41.5 109t15.5 115q0 105 -54 162z" />
    <glyph glyph-name="Ugrave" unicode="&#xd9;" horiz-adv-x="610" 
d="M470 224l78 401h52l-82 -426q-13 -67 -45.5 -113.5t-86 -73.5t-130.5 -27q-57 0 -100.5 18t-69 51.5t-33 82t3.5 106.5l73 382h93l-71 -368q-39 -205 140 -205q71 0 115.5 39.5t62.5 132.5zM418 699h-32l-118 177h97z" />
    <glyph glyph-name="Uacute" unicode="&#xda;" horiz-adv-x="610" 
d="M470 224l78 401h52l-82 -426q-13 -67 -45.5 -113.5t-86 -73.5t-130.5 -27q-57 0 -100.5 18t-69 51.5t-33 82t3.5 106.5l73 382h93l-71 -368q-39 -205 140 -205q71 0 115.5 39.5t62.5 132.5zM579 876l-186 -177h-40l123 177h103z" />
    <glyph glyph-name="Ucircumflex" unicode="&#xdb;" horiz-adv-x="610" 
d="M470 224l78 401h52l-82 -426q-13 -67 -45.5 -113.5t-86 -73.5t-130.5 -27q-57 0 -100.5 18t-69 51.5t-33 82t3.5 106.5l73 382h93l-71 -368q-39 -205 140 -205q71 0 115.5 39.5t62.5 132.5zM553 699h-39l-89 130h-7l-144 -130h-44l161 197h79z" />
    <glyph glyph-name="Udieresis" unicode="&#xdc;" horiz-adv-x="610" 
d="M470 224l78 401h52l-82 -426q-13 -67 -45.5 -113.5t-86 -73.5t-130.5 -27q-57 0 -100.5 18t-69 51.5t-33 82t3.5 106.5l73 382h93l-71 -368q-39 -205 140 -205q71 0 115.5 39.5t62.5 132.5zM307 723q-22 0 -35 15t-13 36q0 27 15.5 47t37.5 20t35 -15t13 -36
q0 -27 -15.5 -47t-37.5 -20zM486 723q-22 0 -35 15t-13 36q0 27 15.5 47t37.5 20t35 -15t13 -36q0 -27 -15.5 -47t-37.5 -20z" />
    <glyph glyph-name="Yacute" unicode="&#xdd;" horiz-adv-x="543" 
d="M257 0h-93l51 265l-140 360h99l114 -301h9l227 301h58l-274 -360zM552 876l-186 -177h-40l123 177h103z" />
    <glyph glyph-name="Thorn" unicode="&#xde;" horiz-adv-x="514" 
d="M113 0h-93l120 625h93l-25 -127l63 1q97 1 152.5 -45.5t55.5 -122.5q0 -36 -13.5 -74t-50.5 -73t-90.5 -51.5t-106.5 -16.5q-36 0 -81 9zM249 453h-49l-55 -283q35 -9 72 -9q73 0 118.5 46t45.5 122q0 26 -12 55.5t-44 49t-76 19.5z" />
    <glyph glyph-name="germandbls" unicode="&#xdf;" horiz-adv-x="523" 
d="M163 38l40 69q14 -29 24 -43.5t25.5 -23.5t37.5 -9q46 0 69.5 35t23.5 85q0 74 -38 141.5t-108 109.5l7 33q54 0 90 24t49 55t13 53q0 25 -12 46.5t-31.5 30t-37.5 8.5q-87 0 -116 -144l-111 -566q-11 -56 -39.5 -104t-64.5 -73.5t-73 -25.5q-46 0 -79 36l40 69
q26 -52 59 -52q24 0 43.5 26.5t28.5 74.5l101 518h-71l9 47h71l6 30q8 39 24 77t46 70.5t68.5 47t74.5 14.5q33 0 66.5 -12.5t56.5 -45t23 -69.5q0 -48 -34.5 -91t-99.5 -62v-5q45 -41 73.5 -86t37.5 -82t9 -64q0 -39 -13 -74.5t-37.5 -62.5t-58.5 -42.5t-74 -15.5
q-27 0 -60 13t-58 40z" />
    <glyph glyph-name="agrave" unicode="&#xe0;" horiz-adv-x="461" 
d="M335 11l-81 -23l40 190h-6l-21 -38.5t-41 -69t-55 -63.5t-65 -22q-42 0 -68 42t-26 104q0 78 22.5 143t60 109t82.5 67t88 23q17 0 44.5 -7.5t51.5 -20.5l63 25zM322 323l9 42q-46 52 -105 52q-13 0 -27.5 -7t-23.5 -17q-33 -35 -57 -102t-24 -128q0 -31 5.5 -55.5
t15.5 -34.5t21 -10q25 0 64.5 51.5t121.5 208.5zM288 534h-32l-118 177h97z" />
    <glyph glyph-name="aacute" unicode="&#xe1;" horiz-adv-x="461" 
d="M335 11l-81 -23l40 190h-6l-21 -38.5t-41 -69t-55 -63.5t-65 -22q-42 0 -68 42t-26 104q0 78 22.5 143t60 109t82.5 67t88 23q17 0 44.5 -7.5t51.5 -20.5l63 25zM322 323l9 42q-46 52 -105 52q-13 0 -27.5 -7t-23.5 -17q-33 -35 -57 -102t-24 -128q0 -31 5.5 -55.5
t15.5 -34.5t21 -10q25 0 64.5 51.5t121.5 208.5zM446 711l-186 -177h-40l123 177h103z" />
    <glyph glyph-name="acircumflex" unicode="&#xe2;" horiz-adv-x="461" 
d="M335 11l-81 -23l40 190h-6l-21 -38.5t-41 -69t-55 -63.5t-65 -22q-42 0 -68 42t-26 104q0 78 22.5 143t60 109t82.5 67t88 23q17 0 44.5 -7.5t51.5 -20.5l63 25zM322 323l9 42q-46 52 -105 52q-13 0 -27.5 -7t-23.5 -17q-33 -35 -57 -102t-24 -128q0 -31 5.5 -55.5
t15.5 -34.5t21 -10q25 0 64.5 51.5t121.5 208.5zM420 534h-39l-89 130h-7l-144 -130h-44l161 197h79z" />
    <glyph glyph-name="atilde" unicode="&#xe3;" horiz-adv-x="461" 
d="M335 11l-81 -23l40 190h-6l-21 -38.5t-41 -69t-55 -63.5t-65 -22q-42 0 -68 42t-26 104q0 78 22.5 143t60 109t82.5 67t88 23q17 0 44.5 -7.5t51.5 -20.5l63 25zM322 323l9 42q-46 52 -105 52q-13 0 -27.5 -7t-23.5 -17q-33 -35 -57 -102t-24 -128q0 -31 5.5 -55.5
t15.5 -34.5t21 -10q25 0 64.5 51.5t121.5 208.5zM419 684h39q-14 -47 -32 -76.5t-41 -40.5t-46 -11q-35 0 -64 31.5t-38 37.5t-20 6q-15 0 -29.5 -10.5t-32.5 -55.5h-39q14 47 31.5 76t39.5 40.5t47 11.5q35 0 64 -31.5t38.5 -37.5t20.5 -6q15 0 29.5 10.5t32.5 55.5z" />
    <glyph glyph-name="adieresis" unicode="&#xe4;" horiz-adv-x="461" 
d="M335 11l-81 -23l40 190h-6l-21 -38.5t-41 -69t-55 -63.5t-65 -22q-42 0 -68 42t-26 104q0 78 22.5 143t60 109t82.5 67t88 23q17 0 44.5 -7.5t51.5 -20.5l63 25zM322 323l9 42q-46 52 -105 52q-13 0 -27.5 -7t-23.5 -17q-33 -35 -57 -102t-24 -128q0 -31 5.5 -55.5
t15.5 -34.5t21 -10q25 0 64.5 51.5t121.5 208.5zM192 558q-22 0 -35 15t-13 36q0 27 15.5 47t37.5 20t35 -15t13 -36q0 -27 -15.5 -47t-37.5 -20zM371 558q-22 0 -35 15t-13 36q0 27 15.5 47t37.5 20t35 -15t13 -36q0 -27 -15.5 -47t-37.5 -20z" />
    <glyph glyph-name="aring" unicode="&#xe5;" horiz-adv-x="461" 
d="M335 11l-81 -23l40 190h-6l-21 -38.5t-41 -69t-55 -63.5t-65 -22q-42 0 -68 42t-26 104q0 78 22.5 143t60 109t82.5 67t88 23q17 0 44.5 -7.5t51.5 -20.5l63 25zM322 323l9 42q-46 52 -105 52q-13 0 -27.5 -7t-23.5 -17q-33 -35 -57 -102t-24 -128q0 -31 5.5 -55.5
t15.5 -34.5t21 -10q25 0 64.5 51.5t121.5 208.5zM292 532q-24 0 -50 11t-43.5 39t-17.5 62q0 21 10 47.5t37 45.5t64 19q24 0 50 -11t43.5 -39t17.5 -62q0 -21 -10 -47.5t-37 -45.5t-64 -19zM292 571q30 0 49 22.5t19 50.5t-19 50.5t-49 22.5t-49.5 -22.5t-19.5 -50.5
t19.5 -50.5t49.5 -22.5z" />
    <glyph glyph-name="ae" unicode="&#xe6;" horiz-adv-x="667" 
d="M560 114l26 -33q-41 -49 -82 -72.5t-89 -23.5q-39 0 -69.5 19t-49.5 55t-20 85q-103 -159 -189 -159q-17 0 -36.5 9.5t-32.5 33t-13 53.5q0 37 15.5 76.5t49.5 73.5t81 57t94 23q32 0 60 -12q15 53 3 82t-53 29q-29 0 -71 -16.5t-86 -46.5l-19 46q65 42 112 61t90 19
q39 0 63.5 -17t33.5 -46q63 63 139 63q55 0 85.5 -30t30.5 -72q0 -36 -18.5 -58.5t-58.5 -45.5t-201 -93v-19q0 -49 24.5 -78.5t60.5 -29.5q49 0 120 67zM359 220q62 29 105 52.5t66.5 44.5t23.5 51q0 19 -19 36t-48 17q-11 0 -25 -5.5t-23 -14.5q-21 -21 -44.5 -69.5
t-35.5 -111.5zM285 222q-30 39 -75 39q-22 0 -49.5 -18t-50.5 -59.5t-23 -74.5q0 -47 34 -47q52 0 164 160z" />
    <glyph glyph-name="ccedilla" unicode="&#xe7;" horiz-adv-x="399" 
d="M-7 -275l7 36q74 0 118.5 18.5t44.5 55.5q0 19 -21 30.5t-59 11.5q-39 0 -68 -5l5 25l104 90q-23 4 -49.5 23t-44.5 57t-18 82q0 57 19.5 115t53 105.5t77.5 75.5t89 28q43 0 77 -20.5t52 -52.5l-45 -63q-45 81 -107 81q-33 0 -56 -23q-29 -29 -54 -96.5t-25 -138.5
q0 -37 12.5 -65t31.5 -38.5t36 -10.5q22 0 48.5 11t75.5 57l26 -33q-36 -44 -72.5 -67t-78.5 -27l-62 -54q62 0 96.5 -21.5t34.5 -58.5q0 -44 -34.5 -72.5t-92 -42t-121.5 -13.5z" />
    <glyph glyph-name="egrave" unicode="&#xe8;" horiz-adv-x="404" 
d="M297 114l26 -33q-41 -49 -82 -72.5t-89 -23.5q-40 0 -73.5 21.5t-50 60.5t-16.5 81q0 58 18.5 116.5t51.5 105.5t78 75t94 28q55 0 85.5 -30t30.5 -72q0 -36 -18.5 -58.5t-58.5 -45.5t-201 -93v-19q0 -49 24.5 -78.5t60.5 -29.5q49 0 120 67zM96 220q62 29 105 52.5
t66.5 44.5t23.5 51q0 19 -19 36t-48 17q-11 0 -25 -5.5t-23 -14.5q-21 -21 -44.5 -69.5t-35.5 -111.5zM279 534h-32l-118 177h97z" />
    <glyph glyph-name="eacute" unicode="&#xe9;" horiz-adv-x="404" 
d="M297 114l26 -33q-41 -49 -82 -72.5t-89 -23.5q-40 0 -73.5 21.5t-50 60.5t-16.5 81q0 58 18.5 116.5t51.5 105.5t78 75t94 28q55 0 85.5 -30t30.5 -72q0 -36 -18.5 -58.5t-58.5 -45.5t-201 -93v-19q0 -49 24.5 -78.5t60.5 -29.5q49 0 120 67zM96 220q62 29 105 52.5
t66.5 44.5t23.5 51q0 19 -19 36t-48 17q-11 0 -25 -5.5t-23 -14.5q-21 -21 -44.5 -69.5t-35.5 -111.5zM454 711l-186 -177h-40l123 177h103z" />
    <glyph glyph-name="ecircumflex" unicode="&#xea;" horiz-adv-x="404" 
d="M297 114l26 -33q-41 -49 -82 -72.5t-89 -23.5q-40 0 -73.5 21.5t-50 60.5t-16.5 81q0 58 18.5 116.5t51.5 105.5t78 75t94 28q55 0 85.5 -30t30.5 -72q0 -36 -18.5 -58.5t-58.5 -45.5t-201 -93v-19q0 -49 24.5 -78.5t60.5 -29.5q49 0 120 67zM96 220q62 29 105 52.5
t66.5 44.5t23.5 51q0 19 -19 36t-48 17q-11 0 -25 -5.5t-23 -14.5q-21 -21 -44.5 -69.5t-35.5 -111.5zM415 534h-39l-89 130h-7l-144 -130h-44l161 197h79z" />
    <glyph glyph-name="edieresis" unicode="&#xeb;" horiz-adv-x="404" 
d="M297 114l26 -33q-41 -49 -82 -72.5t-89 -23.5q-40 0 -73.5 21.5t-50 60.5t-16.5 81q0 58 18.5 116.5t51.5 105.5t78 75t94 28q55 0 85.5 -30t30.5 -72q0 -36 -18.5 -58.5t-58.5 -45.5t-201 -93v-19q0 -49 24.5 -78.5t60.5 -29.5q49 0 120 67zM96 220q62 29 105 52.5
t66.5 44.5t23.5 51q0 19 -19 36t-48 17q-11 0 -25 -5.5t-23 -14.5q-21 -21 -44.5 -69.5t-35.5 -111.5zM184 558q-22 0 -35 15t-13 36q0 27 15.5 47t37.5 20t35 -15t13 -36q0 -27 -15.5 -47t-37.5 -20zM363 558q-22 0 -35 15t-13 36q0 27 15.5 47t37.5 20t35 -15t13 -36
q0 -27 -15.5 -47t-37.5 -20z" />
    <glyph glyph-name="igrave" unicode="&#xec;" horiz-adv-x="214" 
d="M84 0h-76l87 445l81 25zM172 534h-32l-118 177h97z" />
    <glyph glyph-name="iacute" unicode="&#xed;" horiz-adv-x="214" 
d="M84 0h-76l87 445l81 25zM345 711l-186 -177h-40l123 177h103z" />
    <glyph glyph-name="icircumflex" unicode="&#xee;" horiz-adv-x="214" 
d="M111 0h-76l87 445l81 25zM333 534h-39l-89 130h-7l-144 -130h-44l161 197h79z" />
    <glyph glyph-name="idieresis" unicode="&#xef;" horiz-adv-x="214" 
d="M84 0h-76l87 445l81 25zM74 558q-22 0 -35 15t-13 36q0 27 15.5 47t37.5 20t35 -15t13 -36q0 -27 -15.5 -47t-37.5 -20zM253 558q-22 0 -35 15t-13 36q0 27 15.5 47t37.5 20t35 -15t13 -36q0 -27 -15.5 -47t-37.5 -20z" />
    <glyph glyph-name="eth" unicode="&#xf0;" horiz-adv-x="446" 
d="M320 436l4 3q-7 33 -23.5 66.5t-39.5 58.5l-160 -49l10 43l118 37q-53 39 -100 56l19 42q69 -28 134 -82l142 44l-10 -43l-99 -31q32 -33 53.5 -81.5t29 -94t7.5 -78.5q0 -67 -18.5 -129.5t-51.5 -110.5t-76.5 -75t-89.5 -27q-28 0 -56 9.5t-52 36t-35 67t-11 83.5
q0 49 17 101.5t48 95.5t71.5 69t84.5 26q23 0 46 -9.5t38 -27.5zM173 30q36 0 69 36t53 109.5t20 129.5q0 50 -19 84.5t-55 34.5q-17 0 -40.5 -12t-49 -54t-40.5 -102t-15 -103q0 -50 20.5 -86.5t56.5 -36.5z" />
    <glyph glyph-name="ntilde" unicode="&#xf1;" horiz-adv-x="470" 
d="M342 0h-76q0 33 9 75t35.5 141.5t26.5 133.5q0 49 -35 49q-13 0 -24.5 -8t-29 -31.5t-47 -72t-95.5 -167.5l-23 -120h-76l87 445l80 25l-47 -222h6q56 113 102.5 169t97.5 56q19 0 40 -9t33.5 -31.5t12.5 -49.5q0 -12 -2.5 -32t-8.5 -46.5t-36 -139.5t-30 -165zM423 684
h39q-14 -47 -32 -76.5t-41 -40.5t-46 -11q-35 0 -64 31.5t-38 37.5t-20 6q-15 0 -29.5 -10.5t-32.5 -55.5h-39q14 47 31.5 76t39.5 40.5t47 11.5q35 0 64 -31.5t38.5 -37.5t20.5 -6q15 0 29.5 10.5t32.5 55.5z" />
    <glyph glyph-name="ograve" unicode="&#xf2;" horiz-adv-x="444" 
d="M166 -15q-83 0 -118.5 47.5t-35.5 143.5q0 50 18.5 103t51 97t74.5 70.5t87 26.5q80 0 117 -49t37 -142q0 -50 -18.5 -103t-51 -97t-74.5 -70.5t-87 -26.5zM165 30q21 0 45.5 16.5t47.5 54t39.5 93t16.5 116.5q0 23 -5 50.5t-18.5 44t-25.5 20t-21 3.5q-19 0 -43 -15.5
t-51 -55.5t-42 -95.5t-15 -104.5q0 -52 18 -89.5t54 -37.5zM287 534h-32l-118 177h97z" />
    <glyph glyph-name="oacute" unicode="&#xf3;" horiz-adv-x="444" 
d="M166 -15q-83 0 -118.5 47.5t-35.5 143.5q0 50 18.5 103t51 97t74.5 70.5t87 26.5q80 0 117 -49t37 -142q0 -50 -18.5 -103t-51 -97t-74.5 -70.5t-87 -26.5zM165 30q21 0 45.5 16.5t47.5 54t39.5 93t16.5 116.5q0 23 -5 50.5t-18.5 44t-25.5 20t-21 3.5q-19 0 -43 -15.5
t-51 -55.5t-42 -95.5t-15 -104.5q0 -52 18 -89.5t54 -37.5zM463 711l-186 -177h-40l123 177h103z" />
    <glyph glyph-name="ocircumflex" unicode="&#xf4;" horiz-adv-x="444" 
d="M166 -15q-83 0 -118.5 47.5t-35.5 143.5q0 50 18.5 103t51 97t74.5 70.5t87 26.5q80 0 117 -49t37 -142q0 -50 -18.5 -103t-51 -97t-74.5 -70.5t-87 -26.5zM165 30q21 0 45.5 16.5t47.5 54t39.5 93t16.5 116.5q0 23 -5 50.5t-18.5 44t-25.5 20t-21 3.5q-19 0 -43 -15.5
t-51 -55.5t-42 -95.5t-15 -104.5q0 -52 18 -89.5t54 -37.5zM432 534h-39l-89 130h-7l-144 -130h-44l161 197h79z" />
    <glyph glyph-name="otilde" unicode="&#xf5;" horiz-adv-x="444" 
d="M166 -15q-83 0 -118.5 47.5t-35.5 143.5q0 50 18.5 103t51 97t74.5 70.5t87 26.5q80 0 117 -49t37 -142q0 -50 -18.5 -103t-51 -97t-74.5 -70.5t-87 -26.5zM165 30q21 0 45.5 16.5t47.5 54t39.5 93t16.5 116.5q0 23 -5 50.5t-18.5 44t-25.5 20t-21 3.5q-19 0 -43 -15.5
t-51 -55.5t-42 -95.5t-15 -104.5q0 -52 18 -89.5t54 -37.5zM428 684h39q-14 -47 -32 -76.5t-41 -40.5t-46 -11q-35 0 -64 31.5t-38 37.5t-20 6q-15 0 -29.5 -10.5t-32.5 -55.5h-39q14 47 31.5 76t39.5 40.5t47 11.5q35 0 64 -31.5t38.5 -37.5t20.5 -6q15 0 29.5 10.5
t32.5 55.5z" />
    <glyph glyph-name="odieresis" unicode="&#xf6;" horiz-adv-x="444" 
d="M166 -15q-83 0 -118.5 47.5t-35.5 143.5q0 50 18.5 103t51 97t74.5 70.5t87 26.5q80 0 117 -49t37 -142q0 -50 -18.5 -103t-51 -97t-74.5 -70.5t-87 -26.5zM165 30q21 0 45.5 16.5t47.5 54t39.5 93t16.5 116.5q0 23 -5 50.5t-18.5 44t-25.5 20t-21 3.5q-19 0 -43 -15.5
t-51 -55.5t-42 -95.5t-15 -104.5q0 -52 18 -89.5t54 -37.5zM201 558q-22 0 -35 15t-13 36q0 27 15.5 47t37.5 20t35 -15t13 -36q0 -27 -15.5 -47t-37.5 -20zM380 558q-22 0 -35 15t-13 36q0 27 15.5 47t37.5 20t35 -15t13 -36q0 -27 -15.5 -47t-37.5 -20z" />
    <glyph glyph-name="divide" unicode="&#xf7;" 
d="M424 211h-396l9 49h396zM258 332q-19 0 -33 13.5t-14 32.5t14 32.5t33 13.5q18 0 32 -14t14 -32q0 -19 -13.5 -32.5t-32.5 -13.5zM204 47q-19 0 -33 13.5t-14 32.5t14 32.5t33 13.5t32.5 -13.5t13.5 -32.5q0 -18 -14 -32t-32 -14z" />
    <glyph glyph-name="oslash" unicode="&#xf8;" horiz-adv-x="444" 
d="M13 -131l-31 17l78 133q-48 45 -48 161q0 50 18.5 102.5t51 95.5t74.5 69t87 26q39 0 71 -13l74 129l31 -17l-75 -131q53 -46 53 -163q0 -50 -18.5 -102.5t-51 -95.5t-74.5 -69t-87 -26t-77 15zM101 92l184 318q-20 18 -41 18q-19 0 -43 -15.5t-51 -55.5t-42 -95.5
t-15 -104.5q0 -33 8 -65zM305 375l-185 -321q19 -24 45 -24q21 0 45.5 16.5t47.5 54t39.5 93t16.5 116.5q0 37 -9 65z" />
    <glyph glyph-name="ugrave" unicode="&#xf9;" horiz-adv-x="470" 
d="M344 13l-80 -25l47 222h-6q-56 -113 -102.5 -169t-97.5 -56q-19 0 -40 9t-33.5 31.5t-12.5 49.5q0 12 2.5 32t8.5 46.5t36 139.5t30 165h76q0 -33 -9 -75t-35.5 -141.5t-26.5 -133.5q0 -21 8.5 -35t27.5 -14q22 0 42.5 25.5t53.5 79.5t99 174l23 120h76zM295 534h-32
l-118 177h97z" />
    <glyph glyph-name="uacute" unicode="&#xfa;" horiz-adv-x="470" 
d="M344 13l-80 -25l47 222h-6q-56 -113 -102.5 -169t-97.5 -56q-19 0 -40 9t-33.5 31.5t-12.5 49.5q0 12 2.5 32t8.5 46.5t36 139.5t30 165h76q0 -33 -9 -75t-35.5 -141.5t-26.5 -133.5q0 -21 8.5 -35t27.5 -14q22 0 42.5 25.5t53.5 79.5t99 174l23 120h76zM469 711
l-186 -177h-40l123 177h103z" />
    <glyph glyph-name="ucircumflex" unicode="&#xfb;" horiz-adv-x="470" 
d="M344 13l-80 -25l47 222h-6q-56 -113 -102.5 -169t-97.5 -56q-19 0 -40 9t-33.5 31.5t-12.5 49.5q0 12 2.5 32t8.5 46.5t36 139.5t30 165h76q0 -33 -9 -75t-35.5 -141.5t-26.5 -133.5q0 -21 8.5 -35t27.5 -14q22 0 42.5 25.5t53.5 79.5t99 174l23 120h76zM437 534h-39
l-89 130h-7l-144 -130h-44l161 197h79z" />
    <glyph glyph-name="udieresis" unicode="&#xfc;" horiz-adv-x="470" 
d="M344 13l-80 -25l47 222h-6q-56 -113 -102.5 -169t-97.5 -56q-19 0 -40 9t-33.5 31.5t-12.5 49.5q0 12 2.5 32t8.5 46.5t36 139.5t30 165h76q0 -33 -9 -75t-35.5 -141.5t-26.5 -133.5q0 -21 8.5 -35t27.5 -14q22 0 42.5 25.5t53.5 79.5t99 174l23 120h76zM199 558
q-22 0 -35 15t-13 36q0 27 15.5 47t37.5 20t35 -15t13 -36q0 -27 -15.5 -47t-37.5 -20zM378 558q-22 0 -35 15t-13 36q0 27 15.5 47t37.5 20t35 -15t13 -36q0 -27 -15.5 -47t-37.5 -20z" />
    <glyph glyph-name="yacute" unicode="&#xfd;" horiz-adv-x="427" 
d="M126 -3l-78 461h80l56 -366h6q39 64 80.5 148t91.5 218h53q-135 -365 -387 -657q-53 -62 -99 -62q-9 0 -24 6t-32 21l31 79q27 -38 50 -38q25 0 59 39q44 49 113 151zM435 711l-186 -177h-40l123 177h103z" />
    <glyph glyph-name="thorn" unicode="&#xfe;" horiz-adv-x="464" 
d="M35 -246h-76l180 918l81 25l-84 -417h6l21 38.5t41 69t55 63.5t65 22q42 0 68 -42t26 -104q0 -78 -22.5 -143t-60 -109t-82.5 -67t-88 -23q-38 0 -83 23zM108 135l-9 -42q46 -52 105 -52q13 0 27.5 7t23.5 17q35 36 58 99t23 131q0 31 -5.5 55.5t-15.5 34.5t-21 10
q-25 0 -64.5 -51.5t-121.5 -208.5z" />
    <glyph glyph-name="ydieresis" unicode="&#xff;" horiz-adv-x="427" 
d="M126 -3l-78 461h80l56 -366h6q39 64 80.5 148t91.5 218h53q-135 -365 -387 -657q-53 -62 -99 -62q-9 0 -24 6t-32 21l31 79q27 -38 50 -38q25 0 59 39q44 49 113 151zM166 558q-22 0 -35 15t-13 36q0 27 15.5 47t37.5 20t35 -15t13 -36q0 -27 -15.5 -47t-37.5 -20z
M345 558q-22 0 -35 15t-13 36q0 27 15.5 47t37.5 20t35 -15t13 -36q0 -27 -15.5 -47t-37.5 -20z" />
    <glyph glyph-name="Amacron" unicode="&#x100;" horiz-adv-x="553" 
d="M463 0h-93l-26 203h-219l-103 -203h-55l297 579l3 35l108 25zM338 250l-36 287h-7l-146 -287h189zM461 758h-252l9 46h252z" />
    <glyph glyph-name="amacron" unicode="&#x101;" horiz-adv-x="461" 
d="M335 11l-81 -23l40 190h-6l-21 -38.5t-41 -69t-55 -63.5t-65 -22q-42 0 -68 42t-26 104q0 78 22.5 143t60 109t82.5 67t88 23q17 0 44.5 -7.5t51.5 -20.5l63 25zM322 323l9 42q-46 52 -105 52q-13 0 -27.5 -7t-23.5 -17q-33 -35 -57 -102t-24 -128q0 -31 5.5 -55.5
t15.5 -34.5t21 -10q25 0 64.5 51.5t121.5 208.5zM399 593h-252l9 46h252z" />
    <glyph glyph-name="Abreve" unicode="&#x102;" horiz-adv-x="553" 
d="M463 0h-93l-26 203h-219l-103 -203h-55l297 579l3 35l108 25zM338 250l-36 287h-7l-146 -287h189zM458 868h40q-21 -82 -66 -121.5t-105 -39.5q-45 0 -72 20t-37.5 55t-3.5 86h38q0 -54 19.5 -78t64.5 -24t73 24t49 78z" />
    <glyph glyph-name="abreve" unicode="&#x103;" horiz-adv-x="461" 
d="M335 11l-81 -23l40 190h-6l-21 -38.5t-41 -69t-55 -63.5t-65 -22q-42 0 -68 42t-26 104q0 78 22.5 143t60 109t82.5 67t88 23q17 0 44.5 -7.5t51.5 -20.5l63 25zM322 323l9 42q-46 52 -105 52q-13 0 -27.5 -7t-23.5 -17q-33 -35 -57 -102t-24 -128q0 -31 5.5 -55.5
t15.5 -34.5t21 -10q25 0 64.5 51.5t121.5 208.5zM395 703h40q-21 -82 -66 -121.5t-105 -39.5q-45 0 -72 20t-37.5 55t-3.5 86h38q0 -54 19.5 -78t64.5 -24t73 24t49 78z" />
    <glyph glyph-name="Aogonek" unicode="&#x104;" horiz-adv-x="553" 
d="M482 -156l14 -27q-23 -28 -55.5 -45.5t-69.5 -17.5q-41 0 -64 20.5t-23 56.5q0 51 37.5 93.5t95.5 75.5h-47l-26 203h-219l-103 -203h-55l297 579l3 35l108 25l88 -639q-32 -21 -58 -50t-36.5 -55t-10.5 -45q0 -45 50 -45q20 0 40.5 12.5t33.5 26.5zM338 250l-36 287h-7
l-146 -287h189z" />
    <glyph glyph-name="aogonek" unicode="&#x105;" horiz-adv-x="461" 
d="M336 -156l14 -27q-23 -28 -55.5 -45.5t-69.5 -17.5q-41 0 -64 20.5t-23 56.5q0 23 11.5 52t39.5 57t65 50l40 188h-6l-21 -38.5t-41 -69t-55 -63.5t-65 -22q-42 0 -68 42t-26 104q0 78 22.5 143t60 109t82.5 67t88 23q17 0 44.5 -7.5t51.5 -20.5l64 25l-90 -459
q-36 -23 -65.5 -51t-43.5 -56.5t-14 -53.5q0 -45 50 -45q20 0 40.5 12.5t33.5 26.5zM322 323l9 42q-46 52 -105 52q-13 0 -27.5 -7t-23.5 -17q-33 -35 -57 -102t-24 -128q0 -31 5.5 -55.5t15.5 -34.5t21 -10q25 0 64.5 51.5t121.5 208.5z" />
    <glyph glyph-name="Cacute" unicode="&#x106;" horiz-adv-x="572" 
d="M449 69l13 -44q-33 -17 -73.5 -28.5t-84.5 -11.5q-60 0 -109.5 19.5t-84.5 55t-53.5 85.5t-18.5 108q0 88 41.5 177.5t124.5 149.5t189 60q44 0 92 -12t97 -51l-49 -64q-58 84 -153 84q-44 0 -87.5 -24t-78.5 -75.5t-56.5 -122t-21.5 -140.5q0 -95 45.5 -150t135.5 -55
q32 0 68.5 11.5t63.5 27.5zM563 876l-186 -177h-40l123 177h103z" />
    <glyph glyph-name="cacute" unicode="&#x107;" horiz-adv-x="399" 
d="M297 114l26 -33q-41 -49 -82.5 -72.5t-92.5 -23.5q-21 0 -44.5 8.5t-43.5 29t-34 53t-14 73.5q0 57 19.5 115t53 105.5t77.5 75.5t89 28q43 0 77 -20.5t52 -52.5l-45 -63q-45 81 -107 81q-33 0 -56 -23q-29 -29 -54 -96t-25 -138q0 -24 7 -51t27 -45.5t46 -18.5
q22 0 48.5 11t75.5 57zM446 711l-186 -177h-40l123 177h103z" />
    <glyph glyph-name="Ccircumflex" unicode="&#x108;" horiz-adv-x="572" 
d="M449 69l13 -44q-33 -17 -73.5 -28.5t-84.5 -11.5q-60 0 -109.5 19.5t-84.5 55t-53.5 85.5t-18.5 108q0 88 41.5 177.5t124.5 149.5t189 60q44 0 92 -12t97 -51l-49 -64q-58 84 -153 84q-44 0 -87.5 -24t-78.5 -75.5t-56.5 -122t-21.5 -140.5q0 -95 45.5 -150t135.5 -55
q32 0 68.5 11.5t63.5 27.5zM539 699h-39l-89 130h-7l-144 -130h-44l161 197h79z" />
    <glyph glyph-name="ccircumflex" unicode="&#x109;" horiz-adv-x="399" 
d="M297 114l26 -33q-41 -49 -82.5 -72.5t-92.5 -23.5q-21 0 -44.5 8.5t-43.5 29t-34 53t-14 73.5q0 57 19.5 115t53 105.5t77.5 75.5t89 28q43 0 77 -20.5t52 -52.5l-45 -63q-45 81 -107 81q-33 0 -56 -23q-29 -29 -54 -96t-25 -138q0 -24 7 -51t27 -45.5t46 -18.5
q22 0 48.5 11t75.5 57zM430 534h-39l-89 130h-7l-144 -130h-44l161 197h79z" />
    <glyph glyph-name="Cdotaccent" unicode="&#x10a;" horiz-adv-x="572" 
d="M449 69l13 -44q-33 -17 -73.5 -28.5t-84.5 -11.5q-60 0 -109.5 19.5t-84.5 55t-53.5 85.5t-18.5 108q0 88 41.5 177.5t124.5 149.5t189 60q44 0 92 -12t97 -51l-49 -64q-58 84 -153 84q-44 0 -87.5 -24t-78.5 -75.5t-56.5 -122t-21.5 -140.5q0 -95 45.5 -150t135.5 -55
q32 0 68.5 11.5t63.5 27.5zM397 723q-22 0 -35 15t-13 36q0 27 15.5 47t37.5 20t35 -15t13 -36q0 -27 -15.5 -47t-37.5 -20z" />
    <glyph glyph-name="cdotaccent" unicode="&#x10b;" horiz-adv-x="399" 
d="M297 114l26 -33q-41 -49 -82.5 -72.5t-92.5 -23.5q-21 0 -44.5 8.5t-43.5 29t-34 53t-14 73.5q0 57 19.5 115t53 105.5t77.5 75.5t89 28q43 0 77 -20.5t52 -52.5l-45 -63q-45 81 -107 81q-33 0 -56 -23q-29 -29 -54 -96t-25 -138q0 -24 7 -51t27 -45.5t46 -18.5
q22 0 48.5 11t75.5 57zM280 558q-22 0 -35 15t-13 36q0 27 15.5 47t37.5 20t35 -15t13 -36q0 -27 -15.5 -47t-37.5 -20z" />
    <glyph glyph-name="Ccaron" unicode="&#x10c;" horiz-adv-x="572" 
d="M449 69l13 -44q-33 -17 -73.5 -28.5t-84.5 -11.5q-60 0 -109.5 19.5t-84.5 55t-53.5 85.5t-18.5 108q0 88 41.5 177.5t124.5 149.5t189 60q44 0 92 -12t97 -51l-49 -64q-58 84 -153 84q-44 0 -87.5 -24t-78.5 -75.5t-56.5 -122t-21.5 -140.5q0 -95 45.5 -150t135.5 -55
q32 0 68.5 11.5t63.5 27.5zM428 699h-79l-83 197h39l89 -130h7l144 130h44z" />
    <glyph glyph-name="ccaron" unicode="&#x10d;" horiz-adv-x="399" 
d="M297 114l26 -33q-41 -49 -82.5 -72.5t-92.5 -23.5q-21 0 -44.5 8.5t-43.5 29t-34 53t-14 73.5q0 57 19.5 115t53 105.5t77.5 75.5t89 28q43 0 77 -20.5t52 -52.5l-45 -63q-45 81 -107 81q-33 0 -56 -23q-29 -29 -54 -96t-25 -138q0 -24 7 -51t27 -45.5t46 -18.5
q22 0 48.5 11t75.5 57zM309 534h-79l-83 197h39l89 -130h7l144 130h44z" />
    <glyph glyph-name="Dcaron" unicode="&#x10e;" horiz-adv-x="626" 
d="M162 -3l-142 4l121 623l145 4q58 2 106 -8.5t82.5 -30.5t58 -49t38.5 -70.5t15 -98.5q0 -100 -54 -187t-153.5 -138.5t-216.5 -48.5zM261 582h-36l-103 -532q21 -7 63 -7q65 0 121.5 27.5t97 76t62.5 110t22 126.5q0 102 -53.5 150.5t-173.5 48.5zM351 699h-79l-83 197
h39l89 -130h7l144 130h44z" />
    <glyph glyph-name="dcaron" unicode="&#x10f;" horiz-adv-x="696" 
d="M336 13l-81 -25l39 190h-6l-21 -38.5t-41 -69t-55 -63.5t-65 -22q-42 0 -68 42t-26 104q0 78 22.5 143t60 109t82.5 67t88 23q38 0 83 -23l41 222l81 25zM322 323l9 42q-46 52 -105 52q-13 0 -27.5 -7t-23.5 -17q-35 -36 -58 -99t-23 -131q0 -31 5.5 -55.5t15.5 -34.5
t21 -10q25 0 64.5 51.5t121.5 208.5zM533 387l-17 30q61 44 82.5 78.5t21.5 63.5q0 52 -64 74q5 26 25.5 43.5t52.5 17.5t55.5 -24.5t23.5 -60.5q0 -112 -180 -222z" />
    <glyph glyph-name="Dcroat" unicode="&#x110;" horiz-adv-x="636" 
d="M172 -3l-142 4l56 291h-69l8 43h70l56 289l145 4q58 2 106 -8.5t82.5 -30.5t58 -49t38.5 -70.5t15 -98.5q0 -100 -54 -187t-153.5 -138.5t-216.5 -48.5zM293 292h-114l-47 -242q21 -7 63 -7q65 0 121.5 27.5t97 76t62.5 110t22 126.5q0 102 -53.5 150.5t-173.5 48.5h-36
l-48 -247h114z" />
    <glyph glyph-name="dcroat" unicode="&#x111;" horiz-adv-x="472" 
d="M336 13l-81 -25l39 190h-6l-21 -38.5t-41 -69t-55 -63.5t-65 -22q-42 0 -68 42t-26 104q0 78 22.5 143t60 109t82.5 67t88 23q38 0 83 -23l14 79h-128l9 43h127l19 100l81 25l-25 -125h80l-9 -43h-79zM322 323l9 42q-46 52 -105 52q-13 0 -27.5 -7t-23.5 -17
q-35 -36 -58 -99t-23 -131q0 -31 5.5 -55.5t15.5 -34.5t21 -10q25 0 64.5 51.5t121.5 208.5z" />
    <glyph glyph-name="Emacron" unicode="&#x112;" horiz-adv-x="508" 
d="M396 0h-376l121 625h376l-13 -65q-33 10 -71 15t-103 5h-105l-46 -238h202l-9 -47h-202l-49 -250h105q49 0 91.5 3.5t91.5 16.5zM471 758h-252l9 46h252z" />
    <glyph glyph-name="emacron" unicode="&#x113;" horiz-adv-x="404" 
d="M297 114l26 -33q-41 -49 -82 -72.5t-89 -23.5q-40 0 -73.5 21.5t-50 60.5t-16.5 81q0 58 18.5 116.5t51.5 105.5t78 75t94 28q55 0 85.5 -30t30.5 -72q0 -36 -18.5 -58.5t-58.5 -45.5t-201 -93v-19q0 -49 24.5 -78.5t60.5 -29.5q49 0 120 67zM96 220q62 29 105 52.5
t66.5 44.5t23.5 51q0 19 -19 36t-48 17q-11 0 -25 -5.5t-23 -14.5q-21 -21 -44.5 -69.5t-35.5 -111.5zM391 593h-252l9 46h252z" />
    <glyph glyph-name="Ebreve" unicode="&#x114;" horiz-adv-x="508" 
d="M396 0h-376l121 625h376l-13 -65q-33 10 -71 15t-103 5h-105l-46 -238h202l-9 -47h-202l-49 -250h105q49 0 91.5 3.5t91.5 16.5zM459 868h40q-21 -82 -66 -121.5t-105 -39.5q-45 0 -72 20t-37.5 55t-3.5 86h38q0 -54 19.5 -78t64.5 -24t73 24t49 78z" />
    <glyph glyph-name="ebreve" unicode="&#x115;" horiz-adv-x="404" 
d="M297 114l26 -33q-41 -49 -82 -72.5t-89 -23.5q-40 0 -73.5 21.5t-50 60.5t-16.5 81q0 58 18.5 116.5t51.5 105.5t78 75t94 28q55 0 85.5 -30t30.5 -72q0 -36 -18.5 -58.5t-58.5 -45.5t-201 -93v-19q0 -49 24.5 -78.5t60.5 -29.5q49 0 120 67zM96 220q62 29 105 52.5
t66.5 44.5t23.5 51q0 19 -19 36t-48 17q-11 0 -25 -5.5t-23 -14.5q-21 -21 -44.5 -69.5t-35.5 -111.5zM386 703h40q-21 -82 -66 -121.5t-105 -39.5q-45 0 -72 20t-37.5 55t-3.5 86h38q0 -54 19.5 -78t64.5 -24t73 24t49 78z" />
    <glyph glyph-name="Edotaccent" unicode="&#x116;" horiz-adv-x="508" 
d="M396 0h-376l121 625h376l-13 -65q-33 10 -71 15t-103 5h-105l-46 -238h202l-9 -47h-202l-49 -250h105q49 0 91.5 3.5t91.5 16.5zM341 723q-22 0 -35 15t-13 36q0 27 15.5 47t37.5 20t35 -15t13 -36q0 -27 -15.5 -47t-37.5 -20z" />
    <glyph glyph-name="edotaccent" unicode="&#x117;" horiz-adv-x="404" 
d="M297 114l26 -33q-41 -49 -82 -72.5t-89 -23.5q-40 0 -73.5 21.5t-50 60.5t-16.5 81q0 58 18.5 116.5t51.5 105.5t78 75t94 28q55 0 85.5 -30t30.5 -72q0 -36 -18.5 -58.5t-58.5 -45.5t-201 -93v-19q0 -49 24.5 -78.5t60.5 -29.5q49 0 120 67zM96 220q62 29 105 52.5
t66.5 44.5t23.5 51q0 19 -19 36t-48 17q-11 0 -25 -5.5t-23 -14.5q-21 -21 -44.5 -69.5t-35.5 -111.5zM265 558q-22 0 -35 15t-13 36q0 27 15.5 47t37.5 20t35 -15t13 -36q0 -27 -15.5 -47t-37.5 -20z" />
    <glyph glyph-name="Eogonek" unicode="&#x118;" horiz-adv-x="508" 
d="M355 -156l14 -27q-23 -28 -55.5 -45.5t-69.5 -17.5q-41 0 -63.5 20.5t-22.5 56.5q0 28 14 58t45.5 59t72.5 52h-270l121 625h376l-13 -65q-33 10 -71 15t-103 5h-105l-46 -238h202l-9 -47h-202l-49 -250h105q49 0 91.5 3.5t91.5 16.5l-13 -65h-59q-31 -22 -57.5 -49
t-37.5 -53.5t-11 -47.5q0 -45 50 -45q20 0 40.5 12.5t33.5 26.5z" />
    <glyph glyph-name="eogonek" unicode="&#x119;" horiz-adv-x="404" 
d="M246 -156l14 -27q-23 -28 -55.5 -45.5t-69.5 -17.5q-41 0 -64 20.5t-23 56.5q0 22 11 49.5t38.5 55t62.5 49.5h-7q-24 0 -48.5 8.5t-48 32t-34 58t-10.5 64.5q0 58 18.5 116.5t51.5 105.5t78 75t94 28q55 0 85.5 -30t30.5 -72q0 -36 -18.5 -58.5t-58.5 -45.5t-201 -93
v-19q0 -23 8.5 -49t29.5 -42.5t48 -16.5q48 0 119 67l26 -33q-45 -53 -85 -76q-32 -19 -61.5 -48t-42 -57.5t-12.5 -49.5q0 -45 50 -45q20 0 40.5 12.5t33.5 26.5zM96 220q62 29 105 52.5t66.5 44.5t23.5 51q0 19 -19 36t-48 17q-11 0 -25 -5.5t-23 -14.5
q-21 -21 -44.5 -69.5t-35.5 -111.5z" />
    <glyph glyph-name="Ecaron" unicode="&#x11a;" horiz-adv-x="508" 
d="M396 0h-376l121 625h376l-13 -65q-33 10 -71 15t-103 5h-105l-46 -238h202l-9 -47h-202l-49 -250h105q49 0 91.5 3.5t91.5 16.5zM364 699h-79l-83 197h39l89 -130h7l144 130h44z" />
    <glyph glyph-name="ecaron" unicode="&#x11b;" horiz-adv-x="404" 
d="M297 114l26 -33q-41 -49 -82 -72.5t-89 -23.5q-40 0 -73.5 21.5t-50 60.5t-16.5 81q0 58 18.5 116.5t51.5 105.5t78 75t94 28q55 0 85.5 -30t30.5 -72q0 -36 -18.5 -58.5t-58.5 -45.5t-201 -93v-19q0 -49 24.5 -78.5t60.5 -29.5q49 0 120 67zM96 220q62 29 105 52.5
t66.5 44.5t23.5 51q0 19 -19 36t-48 17q-11 0 -25 -5.5t-23 -14.5q-21 -21 -44.5 -69.5t-35.5 -111.5zM293 534h-79l-83 197h39l89 -130h7l144 130h44z" />
    <glyph glyph-name="Gcircumflex" unicode="&#x11c;" horiz-adv-x="592" 
d="M384 37l45 234h94l-47 -244q-69 -42 -172 -42q-59 0 -109 19.5t-85 55t-53.5 84.5t-18.5 107q0 51 17 113.5t58.5 123t95 95.5t100.5 46t84 11q44 0 92 -12t97 -51l-49 -64q-57 82 -153 82q-44 0 -87.5 -23.5t-78.5 -75t-56.5 -121.5t-21.5 -140q0 -95 45.5 -150.5
t135.5 -55.5q40 0 67 8zM547 699h-39l-89 130h-7l-144 -130h-44l161 197h79z" />
    <glyph glyph-name="gcircumflex" unicode="&#x11d;" horiz-adv-x="461" 
d="M251 -29l43 207h-6l-21 -38.5t-41 -69t-55 -63.5t-65 -22q-42 0 -68 42t-26 104q0 78 22.5 143t60 109t82.5 67t88 23q17 0 44.5 -7.5t51.5 -20.5l63 25l-91 -475q-15 -75 -52 -134t-82 -90.5t-92 -31.5q-41 0 -73 20t-50 53l45 63q45 -82 101 -82q10 0 23.5 3t30.5 20
q20 20 38.5 62t28.5 93zM322 323l9 42q-46 52 -105 52q-13 0 -27.5 -7t-23.5 -17q-33 -35 -57 -102t-24 -128q0 -31 5.5 -55.5t15.5 -34.5t21 -10q25 0 64.5 51.5t121.5 208.5zM436 534h-39l-89 130h-7l-144 -130h-44l161 197h79z" />
    <glyph glyph-name="Gbreve" unicode="&#x11e;" horiz-adv-x="592" 
d="M384 37l45 234h94l-47 -244q-69 -42 -172 -42q-59 0 -109 19.5t-85 55t-53.5 84.5t-18.5 107q0 51 17 113.5t58.5 123t95 95.5t100.5 46t84 11q44 0 92 -12t97 -51l-49 -64q-57 82 -153 82q-44 0 -87.5 -23.5t-78.5 -75t-56.5 -121.5t-21.5 -140q0 -95 45.5 -150.5
t135.5 -55.5q40 0 67 8zM518 868h40q-21 -82 -66 -121.5t-105 -39.5q-45 0 -72 20t-37.5 55t-3.5 86h38q0 -54 19.5 -78t64.5 -24t73 24t49 78z" />
    <glyph glyph-name="gbreve" unicode="&#x11f;" horiz-adv-x="461" 
d="M251 -29l43 207h-6l-21 -38.5t-41 -69t-55 -63.5t-65 -22q-42 0 -68 42t-26 104q0 78 22.5 143t60 109t82.5 67t88 23q17 0 44.5 -7.5t51.5 -20.5l63 25l-91 -475q-15 -75 -52 -134t-82 -90.5t-92 -31.5q-41 0 -73 20t-50 53l45 63q45 -82 101 -82q10 0 23.5 3t30.5 20
q20 20 38.5 62t28.5 93zM322 323l9 42q-46 52 -105 52q-13 0 -27.5 -7t-23.5 -17q-33 -35 -57 -102t-24 -128q0 -31 5.5 -55.5t15.5 -34.5t21 -10q25 0 64.5 51.5t121.5 208.5zM414 703h40q-21 -82 -66 -121.5t-105 -39.5q-45 0 -72 20t-37.5 55t-3.5 86h38q0 -54 19.5 -78
t64.5 -24t73 24t49 78z" />
    <glyph glyph-name="Gdotaccent" unicode="&#x120;" horiz-adv-x="592" 
d="M384 37l45 234h94l-47 -244q-69 -42 -172 -42q-59 0 -109 19.5t-85 55t-53.5 84.5t-18.5 107q0 51 17 113.5t58.5 123t95 95.5t100.5 46t84 11q44 0 92 -12t97 -51l-49 -64q-57 82 -153 82q-44 0 -87.5 -23.5t-78.5 -75t-56.5 -121.5t-21.5 -140q0 -95 45.5 -150.5
t135.5 -55.5q40 0 67 8zM406 723q-22 0 -35 15t-13 36q0 27 15.5 47t37.5 20t35 -15t13 -36q0 -27 -15.5 -47t-37.5 -20z" />
    <glyph glyph-name="gdotaccent" unicode="&#x121;" horiz-adv-x="461" 
d="M251 -29l43 207h-6l-21 -38.5t-41 -69t-55 -63.5t-65 -22q-42 0 -68 42t-26 104q0 78 22.5 143t60 109t82.5 67t88 23q17 0 44.5 -7.5t51.5 -20.5l63 25l-91 -475q-15 -75 -52 -134t-82 -90.5t-92 -31.5q-41 0 -73 20t-50 53l45 63q45 -82 101 -82q10 0 23.5 3t30.5 20
q20 20 38.5 62t28.5 93zM322 323l9 42q-46 52 -105 52q-13 0 -27.5 -7t-23.5 -17q-33 -35 -57 -102t-24 -128q0 -31 5.5 -55.5t15.5 -34.5t21 -10q25 0 64.5 51.5t121.5 208.5zM289 558q-22 0 -35 15t-13 36q0 27 15.5 47t37.5 20t35 -15t13 -36q0 -27 -15.5 -47t-37.5 -20z
" />
    <glyph glyph-name="Gcommaaccent" unicode="&#x122;" horiz-adv-x="592" 
d="M384 37l45 234h94l-47 -244q-69 -42 -172 -42q-59 0 -109 19.5t-85 55t-53.5 84.5t-18.5 107q0 51 17 113.5t58.5 123t95 95.5t100.5 46t84 11q44 0 92 -12t97 -51l-49 -64q-57 82 -153 82q-44 0 -87.5 -23.5t-78.5 -75t-56.5 -121.5t-21.5 -140q0 -95 45.5 -150.5
t135.5 -55.5q40 0 67 8zM215 -295l-7 31q27 10 48.5 26t30 35t8.5 35q0 42 -59 63q5 24 24 39.5t49 15.5t49 -21t19 -51q0 -46 -41.5 -96t-120.5 -77z" />
    <glyph glyph-name="gcommaaccent" unicode="&#x123;" horiz-adv-x="461" 
d="M373 774l7 -31q-27 -10 -48.5 -26t-30 -35t-8.5 -35q0 -42 59 -63q-5 -24 -24 -39.5t-49 -15.5t-49 21t-19 51q0 46 41.5 96t120.5 77zM251 -29l43 207h-6l-21 -38.5t-41 -69t-55 -63.5t-65 -22q-42 0 -68 42t-26 104q0 78 22.5 143t60 109t82.5 67t88 23q17 0 44.5 -7.5
t51.5 -20.5l63 25l-91 -475q-15 -75 -52 -134t-82 -90.5t-92 -31.5q-41 0 -73 20t-50 53l45 63q45 -82 101 -82q10 0 23.5 3t30.5 20q20 20 38.5 62t28.5 93zM322 323l9 42q-46 52 -105 52q-13 0 -27.5 -7t-23.5 -17q-33 -35 -57 -102t-24 -128q0 -31 5.5 -55.5t15.5 -34.5
t21 -10q25 0 64.5 51.5t121.5 208.5z" />
    <glyph glyph-name="Hcircumflex" unicode="&#x124;" horiz-adv-x="630" 
d="M489 0h-93l58 297h-283l-58 -297h-93l121 625h93l-55 -281h283l55 281h93zM547 699h-39l-89 130h-7l-144 -130h-44l161 197h79z" />
    <glyph glyph-name="hcircumflex" unicode="&#x125;" horiz-adv-x="470" 
d="M363 739h-39l-89 130h-7l-144 -130h-44l161 197h79zM342 0h-76q0 33 9 75t35.5 141.5t26.5 133.5q0 49 -35 49q-13 0 -24.5 -8t-29 -31.5t-47 -72t-95.5 -167.5l-23 -120h-76l132 672l81 25l-93 -449h6q56 113 102.5 169t97.5 56q19 0 40 -9t33.5 -31.5t12.5 -49.5
q0 -12 -2.5 -32t-8.5 -46.5t-36 -139.5t-30 -165z" />
    <glyph glyph-name="Hbar" unicode="&#x126;" horiz-adv-x="654" 
d="M501 0h-93l58 297h-283l-56 -297h-95l87 451h-99l7 43h101l25 131h93l-26 -131h283l26 131h93l-25 -131h98l-7 -43h-100zM474 344l21 107h-283l-21 -107h283z" />
    <glyph glyph-name="hbar" unicode="&#x127;" horiz-adv-x="480" 
d="M352 0h-76q0 33 9 75t35.5 141.5t26.5 133.5q0 49 -35 49q-13 0 -24.5 -8t-29 -31.5t-47 -72t-95.5 -167.5l-23 -120h-76l104 529h-78l9 43h77l20 100l81 25l-26 -125h130l-9 -43h-130l-58 -281h6q56 113 102.5 169t97.5 56q19 0 40 -9t33.5 -31.5t12.5 -49.5
q0 -12 -2.5 -32t-8.5 -46.5t-36 -139.5t-30 -165z" />
    <glyph glyph-name="Imacron" unicode="&#x12a;" horiz-adv-x="254" 
d="M113 0h-93l121 625h93zM340 758h-252l9 46h252z" />
    <glyph glyph-name="imacron" unicode="&#x12b;" horiz-adv-x="214" 
d="M84 0h-76l87 445l81 25zM287 593h-252l9 46h252z" />
    <glyph glyph-name="Ibreve" unicode="&#x12c;" horiz-adv-x="254" 
d="M113 0h-93l121 625h93zM334 868h40q-21 -82 -66 -121.5t-105 -39.5q-45 0 -72 20t-37.5 55t-3.5 86h38q0 -54 19.5 -78t64.5 -24t73 24t49 78z" />
    <glyph glyph-name="ibreve" unicode="&#x12d;" horiz-adv-x="214" 
d="M84 0h-76l87 445l81 25zM282 703h40q-21 -82 -66 -121.5t-105 -39.5q-45 0 -72 20t-37.5 55t-3.5 86h38q0 -54 19.5 -78t64.5 -24t73 24t49 78z" />
    <glyph glyph-name="Iogonek" unicode="&#x12e;" horiz-adv-x="254" 
d="M131 -156l14 -27q-23 -28 -55.5 -45.5t-69.5 -17.5q-41 0 -64 20.5t-23 56.5q0 51 37.5 93.5t95.5 75.5h-46l121 625h93l-121 -625q-34 -24 -59.5 -51.5t-36 -53t-10.5 -45.5q0 -45 50 -45q20 0 40.5 12.5t33.5 26.5z" />
    <glyph glyph-name="iogonek" unicode="&#x12f;" horiz-adv-x="214" 
d="M102 -156l14 -27q-23 -28 -55.5 -45.5t-69.5 -17.5q-41 0 -64 20.5t-23 56.5q0 51 37.5 93.5t95.5 75.5h-29l87 445l81 25l-92 -470q-34 -24 -59.5 -51.5t-36 -53t-10.5 -45.5q0 -45 50 -45q20 0 40.5 12.5t33.5 26.5zM165 548q-24 0 -38.5 15.5t-14.5 38.5
q0 29 16.5 49.5t37.5 20.5q24 0 38.5 -15.5t14.5 -38.5q0 -29 -16.5 -49.5t-37.5 -20.5z" />
    <glyph glyph-name="Idotaccent" unicode="&#x130;" horiz-adv-x="254" 
d="M113 0h-93l121 625h93zM212 723q-22 0 -35 15t-13 36q0 27 15.5 47t37.5 20t35 -15t13 -36q0 -27 -15.5 -47t-37.5 -20z" />
    <glyph glyph-name="dotlessi" unicode="&#x131;" horiz-adv-x="214" 
d="M84 0h-76l87 445l81 25z" />
    <glyph glyph-name="Jcircumflex" unicode="&#x134;" horiz-adv-x="443" 
d="M244 182l86 443h93l-80 -415q-14 -74 -42.5 -122.5t-72 -75.5t-104.5 -27q-30 0 -62 9.5t-56 33.5t-36 56l60 54l5 -22q4 -20 15 -41t31 -33.5t42 -12.5q47 0 76.5 37.5t44.5 115.5zM544 699h-39l-89 130h-7l-144 -130h-44l161 197h79z" />
    <glyph glyph-name="jcircumflex" unicode="&#x135;" horiz-adv-x="214" 
d="M-11 -98l106 543l81 25l-103 -528q-11 -56 -39.5 -104t-64.5 -73.5t-73 -25.5q-46 0 -79 36l40 69q25 -49 58 -49q24 0 44 29t30 78zM311 534h-39l-89 130h-7l-144 -130h-44l161 197h79z" />
    <glyph glyph-name="Kcommaaccent" unicode="&#x136;" horiz-adv-x="588" 
d="M498 0h-107l-155 300l-77 -63l-46 -237h-93l121 625h93l-62 -317l375 317h71l-311 -262zM155 -295l-7 31q27 10 48.5 26t30 35t8.5 35q0 42 -59 63q5 24 24 39.5t49 15.5t49 -21t19 -51q0 -46 -41.5 -96t-120.5 -77z" />
    <glyph glyph-name="kcommaaccent" unicode="&#x137;" horiz-adv-x="433" 
d="M359 0h-84l-108 230l-45 -30l-39 -200h-76l132 672l81 25l-87 -440q62 42 124 97t105 104h65q-70 -86 -198 -183zM78 -295l-7 31q27 10 48.5 26t30 35t8.5 35q0 42 -59 63q5 24 24 39.5t49 15.5t49 -21t19 -51q0 -46 -41.5 -96t-120.5 -77z" />
    <glyph glyph-name="Lacute" unicode="&#x139;" horiz-adv-x="484" 
d="M398 0h-378l121 625h93l-112 -580h106q48 0 90 3.5t91 14.5zM391 876l-186 -177h-40l123 177h103z" />
    <glyph glyph-name="lacute" unicode="&#x13a;" horiz-adv-x="212" 
d="M83 0h-76l132 672l81 25zM391 923l-186 -177h-40l123 177h103z" />
    <glyph glyph-name="Lcommaaccent" unicode="&#x13b;" horiz-adv-x="484" 
d="M398 0h-378l121 625h93l-112 -580h106q48 0 90 3.5t91 14.5zM134 -295l-7 31q27 10 48.5 26t30 35t8.5 35q0 42 -59 63q5 24 24 39.5t49 15.5t49 -21t19 -51q0 -46 -41.5 -96t-120.5 -77z" />
    <glyph glyph-name="lcommaaccent" unicode="&#x13c;" horiz-adv-x="212" 
d="M83 0h-76l132 672l81 25zM-67 -295l-7 31q27 10 48.5 26t30 35t8.5 35q0 42 -59 63q5 24 24 39.5t49 15.5t49 -21t19 -51q0 -46 -41.5 -96t-120.5 -77z" />
    <glyph glyph-name="Lcaron" unicode="&#x13d;" horiz-adv-x="589" 
d="M398 0h-378l121 625h93l-112 -580h106q48 0 90 3.5t91 14.5zM420 352l-17 30q61 44 82.5 78.5t21.5 63.5q0 52 -64 74q5 26 25.5 43.5t52.5 17.5t55.5 -24.5t23.5 -60.5q0 -112 -180 -222z" />
    <glyph glyph-name="lcaron" unicode="&#x13e;" horiz-adv-x="446" 
d="M83 0h-76l132 672l81 25zM283 388l-17 30q61 44 82.5 78.5t21.5 63.5q0 52 -64 74q5 26 25.5 43.5t52.5 17.5t55.5 -24.5t23.5 -60.5q0 -112 -180 -222z" />
    <glyph glyph-name="Ldot" unicode="&#x13f;" horiz-adv-x="544" 
d="M398 0h-378l121 625h93l-112 -580h106q48 0 90 3.5t91 14.5zM454 259q-22 0 -35 15t-13 36q0 27 15.5 47t37.5 20t35 -15t13 -36q0 -27 -15.5 -47t-37.5 -20z" />
    <glyph glyph-name="ldot" unicode="&#x140;" horiz-adv-x="369" 
d="M83 0h-76l132 672l81 25zM289 250q-22 0 -35 15t-13 36q0 27 15.5 47t37.5 20t35 -15t13 -36q0 -27 -15.5 -47t-37.5 -20z" />
    <glyph glyph-name="Lslash" unicode="&#x141;" 
d="M414 0h-380l41 214l-85 -22l8 42l85 21l72 370h93l-66 -344l112 29l-8 -42l-113 -29l-37 -194h108q48 0 90 3.5t91 14.5z" />
    <glyph glyph-name="lslash" unicode="&#x142;" horiz-adv-x="230" 
d="M91 0h-76l42 213l-85 -21l8 41l85 21l82 418l81 25l-83 -422l86 21l-9 -41l-85 -21z" />
    <glyph glyph-name="Nacute" unicode="&#x143;" horiz-adv-x="630" 
d="M490 4l-96 -8l-215 525h-7l-100 -521h-52l120 621l98 9l213 -526h7l100 521h52zM605 876l-186 -177h-40l123 177h103z" />
    <glyph glyph-name="nacute" unicode="&#x144;" horiz-adv-x="470" 
d="M342 0h-76q0 33 9 75t35.5 141.5t26.5 133.5q0 49 -35 49q-13 0 -24.5 -8t-29 -31.5t-47 -72t-95.5 -167.5l-23 -120h-76l87 445l80 25l-47 -222h6q56 113 102.5 169t97.5 56q19 0 40 -9t33.5 -31.5t12.5 -49.5q0 -12 -2.5 -32t-8.5 -46.5t-36 -139.5t-30 -165zM464 711
l-186 -177h-40l123 177h103z" />
    <glyph glyph-name="Ncommaaccent" unicode="&#x145;" horiz-adv-x="630" 
d="M490 4l-96 -8l-215 525h-7l-100 -521h-52l120 621l98 9l213 -526h7l100 521h52zM124 -295l-7 31q27 10 48.5 26t30 35t8.5 35q0 42 -59 63q5 24 24 39.5t49 15.5t49 -21t19 -51q0 -46 -41.5 -96t-120.5 -77z" />
    <glyph glyph-name="ncommaaccent" unicode="&#x146;" horiz-adv-x="470" 
d="M342 0h-76q0 33 9 75t35.5 141.5t26.5 133.5q0 49 -35 49q-13 0 -24.5 -8t-29 -31.5t-47 -72t-95.5 -167.5l-23 -120h-76l87 445l80 25l-47 -222h6q56 113 102.5 169t97.5 56q19 0 40 -9t33.5 -31.5t12.5 -49.5q0 -12 -2.5 -32t-8.5 -46.5t-36 -139.5t-30 -165zM67 -295
l-7 31q27 10 48.5 26t30 35t8.5 35q0 42 -59 63q5 24 24 39.5t49 15.5t49 -21t19 -51q0 -46 -41.5 -96t-120.5 -77z" />
    <glyph glyph-name="Ncaron" unicode="&#x147;" horiz-adv-x="630" 
d="M490 4l-96 -8l-215 525h-7l-100 -521h-52l120 621l98 9l213 -526h7l100 521h52zM448 699h-79l-83 197h39l89 -130h7l144 130h44z" />
    <glyph glyph-name="ncaron" unicode="&#x148;" horiz-adv-x="470" 
d="M344 0h-76q0 33 9 75t35.5 141.5t26.5 133.5q0 49 -35 49q-13 0 -24.5 -8t-29 -31.5t-47 -72t-95.5 -167.5l-23 -120h-76l87 445l80 25l-47 -222h6q56 113 102.5 169t97.5 56q19 0 40 -9t33.5 -31.5t12.5 -49.5q0 -12 -2.5 -32t-8.5 -46.5t-36 -139.5t-30 -165zM327 534
h-79l-83 197h39l89 -130h7l144 130h44z" />
    <glyph glyph-name="Omacron" unicode="&#x14c;" horiz-adv-x="697" 
d="M306 -15q-44 0 -90.5 13.5t-90.5 50.5t-65.5 93.5t-21.5 114.5q0 51 14 103.5t46 107.5t80.5 94.5t101 58.5t109.5 19q59 0 109 -20t85.5 -57t54.5 -87.5t19 -108.5q0 -32 -8 -76.5t-31 -93.5t-57.5 -90.5t-80 -70.5t-91.5 -40t-83 -11zM319 30q28 0 61.5 12t64.5 42
t57 77t41.5 109t15.5 115q0 96 -46.5 153t-136.5 57q-43 0 -86 -23.5t-77 -74t-55.5 -119.5t-21.5 -137q0 -96 46.5 -153.5t136.5 -57.5zM544 758h-252l9 46h252z" />
    <glyph glyph-name="omacron" unicode="&#x14d;" horiz-adv-x="444" 
d="M166 -15q-83 0 -118.5 47.5t-35.5 143.5q0 50 18.5 103t51 97t74.5 70.5t87 26.5q80 0 117 -49t37 -142q0 -50 -18.5 -103t-51 -97t-74.5 -70.5t-87 -26.5zM165 30q21 0 45.5 16.5t47.5 54t39.5 93t16.5 116.5q0 23 -5 50.5t-18.5 44t-25.5 20t-21 3.5q-19 0 -43 -15.5
t-51 -55.5t-42 -95.5t-15 -104.5q0 -52 18 -89.5t54 -37.5zM413 593h-252l9 46h252z" />
    <glyph glyph-name="Obreve" unicode="&#x14e;" horiz-adv-x="697" 
d="M306 -15q-44 0 -90.5 13.5t-90.5 50.5t-65.5 93.5t-21.5 114.5q0 51 14 103.5t46 107.5t80.5 94.5t101 58.5t109.5 19q59 0 109 -20t85.5 -57t54.5 -87.5t19 -108.5q0 -32 -8 -76.5t-31 -93.5t-57.5 -90.5t-80 -70.5t-91.5 -40t-83 -11zM319 30q28 0 61.5 12t64.5 42
t57 77t41.5 109t15.5 115q0 96 -46.5 153t-136.5 57q-43 0 -86 -23.5t-77 -74t-55.5 -119.5t-21.5 -137q0 -96 46.5 -153.5t136.5 -57.5zM540 868h40q-21 -82 -66 -121.5t-105 -39.5q-45 0 -72 20t-37.5 55t-3.5 86h38q0 -54 19.5 -78t64.5 -24t73 24t49 78z" />
    <glyph glyph-name="obreve" unicode="&#x14f;" horiz-adv-x="444" 
d="M166 -15q-83 0 -118.5 47.5t-35.5 143.5q0 50 18.5 103t51 97t74.5 70.5t87 26.5q80 0 117 -49t37 -142q0 -50 -18.5 -103t-51 -97t-74.5 -70.5t-87 -26.5zM165 30q21 0 45.5 16.5t47.5 54t39.5 93t16.5 116.5q0 23 -5 50.5t-18.5 44t-25.5 20t-21 3.5q-19 0 -43 -15.5
t-51 -55.5t-42 -95.5t-15 -104.5q0 -52 18 -89.5t54 -37.5zM410 703h40q-21 -82 -66 -121.5t-105 -39.5q-45 0 -72 20t-37.5 55t-3.5 86h38q0 -54 19.5 -78t64.5 -24t73 24t49 78z" />
    <glyph glyph-name="Ohungarumlaut" unicode="&#x150;" horiz-adv-x="697" 
d="M306 -15q-44 0 -90.5 13.5t-90.5 50.5t-65.5 93.5t-21.5 114.5q0 51 14 103.5t46 107.5t80.5 94.5t101 58.5t109.5 19q59 0 109 -20t85.5 -57t54.5 -87.5t19 -108.5q0 -32 -8 -76.5t-31 -93.5t-57.5 -90.5t-80 -70.5t-91.5 -40t-83 -11zM319 30q28 0 61.5 12t64.5 42
t57 77t41.5 109t15.5 115q0 96 -46.5 153t-136.5 57q-43 0 -86 -23.5t-77 -74t-55.5 -119.5t-21.5 -137q0 -96 46.5 -153.5t136.5 -57.5zM528 876l-179 -177h-39l116 177h102zM684 876l-179 -177h-39l116 177h102z" />
    <glyph glyph-name="ohungarumlaut" unicode="&#x151;" horiz-adv-x="444" 
d="M166 -15q-83 0 -118.5 47.5t-35.5 143.5q0 50 18.5 103t51 97t74.5 70.5t87 26.5q80 0 117 -49t37 -142q0 -50 -18.5 -103t-51 -97t-74.5 -70.5t-87 -26.5zM165 30q21 0 45.5 16.5t47.5 54t39.5 93t16.5 116.5q0 23 -5 50.5t-18.5 44t-25.5 20t-21 3.5q-19 0 -43 -15.5
t-51 -55.5t-42 -95.5t-15 -104.5q0 -52 18 -89.5t54 -37.5zM385 711l-179 -177h-39l116 177h102zM541 711l-179 -177h-39l116 177h102z" />
    <glyph glyph-name="OE" unicode="&#x152;" horiz-adv-x="878" 
d="M766 0h-423q-58 0 -114.5 12.5t-98.5 43t-67 80t-25 120.5q0 40 11 89t40.5 96.5t73 83.5t98.5 59.5t108 32t94 8.5h424l-13 -65q-33 10 -71 15t-103 5h-106l-46 -238h203l-9 -47h-203l-49 -250h106q49 0 91.5 3.5t91.5 16.5zM399 46l102 533h-59q-64 0 -120.5 -25.5
t-97.5 -71.5t-63.5 -107.5t-22.5 -129.5q0 -102 55 -150.5t176 -48.5h30z" />
    <glyph glyph-name="oe" unicode="&#x153;" horiz-adv-x="689" 
d="M586 114l26 -33q-41 -49 -82 -72.5t-89 -23.5q-43 0 -75.5 22.5t-48.5 60.5q-31 -38 -70.5 -60.5t-80.5 -22.5q-83 0 -118.5 48t-35.5 147q0 50 18.5 102.5t51 95.5t74.5 69t87 26q105 0 136 -91q33 42 75.5 66.5t88.5 24.5q55 0 85.5 -30t30.5 -72q0 -36 -18.5 -58.5
t-58.5 -45.5t-201 -93v-19q0 -49 24.5 -78.5t60.5 -29.5q49 0 120 67zM385 221h4q106 51 148.5 80t42.5 66q0 19 -19 36.5t-48 17.5q-11 0 -25 -5.5t-23 -14.5q-21 -21 -44.5 -69t-35.5 -111zM165 30q21 0 45.5 16.5t47.5 54t39.5 93t16.5 116.5q0 23 -5 50.5t-18.5 44
t-25.5 20t-21 3.5q-19 0 -43 -15.5t-51 -55.5t-42 -95.5t-15 -104.5q0 -52 18 -89.5t54 -37.5z" />
    <glyph glyph-name="Racute" unicode="&#x154;" horiz-adv-x="546" 
d="M469 0h-104l-130 269l-69 6l-53 -275h-93l121 624l183 3q95 1 145.5 -40t50.5 -105q0 -48 -22.5 -87.5t-64.5 -68.5t-104 -44zM282 582h-56l-50 -256q35 -9 80 -9q39 0 79.5 17.5t63.5 53.5t23 80q0 52 -37.5 83t-102.5 31zM516 876l-186 -177h-40l123 177h103z" />
    <glyph glyph-name="racute" unicode="&#x155;" horiz-adv-x="353" 
d="M83 0h-76l87 445l81 25l-36 -164h7q40 87 77.5 127t90.5 40q27 0 50 -18l-36 -82q-13 24 -37 24q-44 0 -89.5 -69.5t-94.5 -203.5zM431 711l-186 -177h-40l123 177h103z" />
    <glyph glyph-name="Rcommaaccent" unicode="&#x156;" horiz-adv-x="546" 
d="M469 0h-104l-130 269l-69 6l-53 -275h-93l121 624l183 3q95 1 145.5 -40t50.5 -105q0 -48 -22.5 -87.5t-64.5 -68.5t-104 -44zM282 582h-56l-50 -256q35 -9 80 -9q39 0 79.5 17.5t63.5 53.5t23 80q0 52 -37.5 83t-102.5 31zM133 -295l-7 31q27 10 48.5 26t30 35t8.5 35
q0 42 -59 63q5 24 24 39.5t49 15.5t49 -21t19 -51q0 -46 -41.5 -96t-120.5 -77z" />
    <glyph glyph-name="rcommaaccent" unicode="&#x157;" horiz-adv-x="353" 
d="M83 0h-76l87 445l81 25l-36 -164h7q40 87 77.5 127t90.5 40q27 0 50 -18l-36 -82q-13 24 -37 24q-44 0 -89.5 -69.5t-94.5 -203.5zM-74 -295l-7 31q27 10 48.5 26t30 35t8.5 35q0 42 -59 63q5 24 24 39.5t49 15.5t49 -21t19 -51q0 -46 -41.5 -96t-120.5 -77z" />
    <glyph glyph-name="Rcaron" unicode="&#x158;" horiz-adv-x="546" 
d="M469 0h-104l-130 269l-69 6l-53 -275h-93l121 624l183 3q95 1 145.5 -40t50.5 -105q0 -48 -22.5 -87.5t-64.5 -68.5t-104 -44zM282 582h-56l-50 -256q35 -9 80 -9q39 0 79.5 17.5t63.5 53.5t23 80q0 52 -37.5 83t-102.5 31zM361 699h-79l-83 197h39l89 -130h7l144 130h44
z" />
    <glyph glyph-name="rcaron" unicode="&#x159;" horiz-adv-x="353" 
d="M83 0h-76l87 445l81 25l-36 -164h7q40 87 77.5 127t90.5 40q27 0 50 -18l-36 -82q-13 24 -37 24q-44 0 -89.5 -69.5t-94.5 -203.5zM278 534h-79l-83 197h39l89 -130h7l144 130h44z" />
    <glyph glyph-name="Sacute" unicode="&#x15a;" horiz-adv-x="506" 
d="M4 33l33 68q33 -32 76 -52t85 -20q26 0 52.5 6.5t49.5 23t34 42t11 48.5q0 36 -32.5 70t-104.5 69q-65 31 -99 75t-34 97q0 55 26 94t77 62.5t125 23.5q48 0 102 -13t79 -27l-34 -68q-69 64 -149 64q-58 0 -98.5 -30.5t-40.5 -82.5q0 -36 28.5 -65t93.5 -64
q76 -41 112 -84t36 -95q0 -41 -14.5 -76t-44.5 -60.5t-76 -39.5t-106 -14q-50 0 -103.5 15t-83.5 33zM496 876l-186 -177h-40l123 177h103z" />
    <glyph glyph-name="sacute" unicode="&#x15b;" horiz-adv-x="354" 
d="M344 411l-42 -58q-20 37 -47.5 57t-58.5 20t-50.5 -19t-19.5 -45q0 -19 9.5 -39t59.5 -70q45 -44 66 -78.5t21 -65.5t-16.5 -59t-50.5 -48.5t-83 -20.5q-26 0 -56 7t-56 23t-42 35l40 55q27 -41 52.5 -59t60.5 -18q31 0 53.5 21.5t22.5 47.5q0 18 -11.5 39.5t-73.5 81.5
q-71 67 -71 132q0 41 25 70.5t58.5 41t61.5 11.5q37 0 77.5 -14t70.5 -48zM405 711l-186 -177h-40l123 177h103z" />
    <glyph glyph-name="Scircumflex" unicode="&#x15c;" horiz-adv-x="506" 
d="M4 33l33 68q33 -32 76 -52t85 -20q26 0 52.5 6.5t49.5 23t34 42t11 48.5q0 36 -32.5 70t-104.5 69q-65 31 -99 75t-34 97q0 55 26 94t77 62.5t125 23.5q48 0 102 -13t79 -27l-34 -68q-69 64 -149 64q-58 0 -98.5 -30.5t-40.5 -82.5q0 -36 28.5 -65t93.5 -64
q76 -41 112 -84t36 -95q0 -41 -14.5 -76t-44.5 -60.5t-76 -39.5t-106 -14q-50 0 -103.5 15t-83.5 33zM477 699h-39l-89 130h-7l-144 -130h-44l161 197h79z" />
    <glyph glyph-name="scircumflex" unicode="&#x15d;" horiz-adv-x="354" 
d="M344 411l-42 -58q-20 37 -47.5 57t-58.5 20t-50.5 -19t-19.5 -45q0 -19 9.5 -39t59.5 -70q45 -44 66 -78.5t21 -65.5t-16.5 -59t-50.5 -48.5t-83 -20.5q-26 0 -56 7t-56 23t-42 35l40 55q27 -41 52.5 -59t60.5 -18q31 0 53.5 21.5t22.5 47.5q0 18 -11.5 39.5t-73.5 81.5
q-71 67 -71 132q0 41 25 70.5t58.5 41t61.5 11.5q37 0 77.5 -14t70.5 -48zM390 534h-39l-89 130h-7l-144 -130h-44l161 197h79z" />
    <glyph glyph-name="Scedilla" unicode="&#x15e;" horiz-adv-x="506" 
d="M44 -275l7 36q74 0 118.5 18.5t44.5 55.5q0 19 -21 30.5t-59 11.5q-39 0 -68 -5l5 25l102 89q-36 2 -85.5 14t-83.5 33l33 68q33 -32 76 -52t85 -20q26 0 52.5 6.5t49.5 23t34 42t11 48.5q0 36 -32.5 70t-104.5 69q-65 31 -99 75t-34 97q0 55 26 94t77 62.5t125 23.5
q48 0 102 -13t79 -27l-34 -68q-69 64 -149 64q-58 0 -98.5 -30.5t-40.5 -82.5q0 -36 28.5 -65t93.5 -64q76 -41 112 -84t36 -95q0 -28 -8.5 -58.5t-31 -58t-64 -47.5t-106.5 -25l-61 -53q62 0 96.5 -21.5t34.5 -58.5q0 -44 -34.5 -72.5t-92 -42t-121.5 -13.5z" />
    <glyph glyph-name="scedilla" unicode="&#x15f;" horiz-adv-x="354" 
d="M-36 -275l7 36q74 0 118.5 18.5t44.5 55.5q0 19 -21 30.5t-59 11.5q-39 0 -68 -5l5 25l104 91q-29 4 -61 19t-56 43l40 55q27 -41 52.5 -59t60.5 -18q31 0 53.5 21.5t22.5 47.5q0 18 -11.5 39.5t-73.5 81.5q-71 67 -71 132q0 41 25 70.5t58.5 41t61.5 11.5q37 0 77.5 -14
t70.5 -48l-42 -58q-20 37 -47.5 57t-58.5 20t-50.5 -19t-19.5 -45q0 -19 9.5 -39t59.5 -70q45 -44 66 -78.5t21 -65.5q0 -23 -13 -52t-47.5 -51.5t-80.5 -24.5l-60 -52q62 0 96.5 -21.5t34.5 -58.5q0 -44 -34.5 -72.5t-92 -42t-121.5 -13.5z" />
    <glyph glyph-name="Scaron" unicode="&#x160;" horiz-adv-x="506" 
d="M4 33l33 68q33 -32 76 -52t85 -20q26 0 52.5 6.5t49.5 23t34 42t11 48.5q0 36 -32.5 70t-104.5 69q-65 31 -99 75t-34 97q0 55 26 94t77 62.5t125 23.5q48 0 102 -13t79 -27l-34 -68q-69 64 -149 64q-58 0 -98.5 -30.5t-40.5 -82.5q0 -36 28.5 -65t93.5 -64
q76 -41 112 -84t36 -95q0 -41 -14.5 -76t-44.5 -60.5t-76 -39.5t-106 -14q-50 0 -103.5 15t-83.5 33zM339 699h-79l-83 197h39l89 -130h7l144 130h44z" />
    <glyph glyph-name="scaron" unicode="&#x161;" horiz-adv-x="354" 
d="M344 411l-42 -58q-20 37 -47.5 57t-58.5 20t-50.5 -19t-19.5 -45q0 -19 9.5 -39t59.5 -70q45 -44 66 -78.5t21 -65.5t-16.5 -59t-50.5 -48.5t-83 -20.5q-26 0 -56 7t-56 23t-42 35l40 55q27 -41 52.5 -59t60.5 -18q31 0 53.5 21.5t22.5 47.5q0 18 -11.5 39.5t-73.5 81.5
q-71 67 -71 132q0 41 25 70.5t58.5 41t61.5 11.5q37 0 77.5 -14t70.5 -48zM263 534h-79l-83 197h39l89 -130h7l144 130h44z" />
    <glyph glyph-name="Tcommaaccent" unicode="&#x162;" horiz-adv-x="550" 
d="M262 0h-93l112 580h-44q-94 0 -165 -20l13 65h499l-13 -65q-62 20 -155 20h-42zM107 -295l-7 31q27 10 48.5 26t30 35t8.5 35q0 42 -59 63q5 24 24 39.5t49 15.5t49 -21t19 -51q0 -46 -41.5 -96t-120.5 -77z" />
    <glyph glyph-name="tcommaaccent" unicode="&#x163;" horiz-adv-x="325" 
d="M224 106l27 -32q-45 -54 -72.5 -71.5t-52.5 -17.5q-61 0 -78 39t-1 107l64 280h-74l9 47h76l31 137l83 20l-37 -157h128l-9 -47h-130l-67 -296q-7 -29 -3 -50t30 -21q24 0 76 62zM5 -295l-7 31q27 10 48.5 26t30 35t8.5 35q0 42 -59 63q5 24 24 39.5t49 15.5t49 -21
t19 -51q0 -46 -41.5 -96t-120.5 -77z" />
    <glyph glyph-name="Tcaron" unicode="&#x164;" horiz-adv-x="550" 
d="M262 0h-93l112 580h-44q-94 0 -165 -20l13 65h499l-13 -65q-62 20 -155 20h-42zM373 699h-79l-83 197h39l89 -130h7l144 130h44z" />
    <glyph glyph-name="tcaron" unicode="&#x165;" horiz-adv-x="416" 
d="M312 505l-7 31q27 10 48.5 26t30 35t8.5 35q0 42 -59 63q5 24 24 39.5t49 15.5t49 -21t19 -51q0 -46 -41.5 -96t-120.5 -77zM224 106l27 -32q-45 -54 -72.5 -71.5t-52.5 -17.5q-61 0 -78 39t-1 107l64 280h-74l9 47h76l31 137l83 20l-37 -157h128l-9 -47h-130l-67 -296
q-7 -29 -3 -50t30 -21q24 0 76 62z" />
    <glyph glyph-name="Umacron" unicode="&#x16a;" horiz-adv-x="610" 
d="M470 224l78 401h52l-82 -426q-13 -67 -45.5 -113.5t-86 -73.5t-130.5 -27q-57 0 -100.5 18t-69 51.5t-33 82t3.5 106.5l73 382h93l-71 -368q-39 -205 140 -205q71 0 115.5 39.5t62.5 132.5zM521 758h-252l9 46h252z" />
    <glyph glyph-name="umacron" unicode="&#x16b;" horiz-adv-x="470" 
d="M344 13l-80 -25l47 222h-6q-56 -113 -102.5 -169t-97.5 -56q-19 0 -40 9t-33.5 31.5t-12.5 49.5q0 12 2.5 32t8.5 46.5t36 139.5t30 165h76q0 -33 -9 -75t-35.5 -141.5t-26.5 -133.5q0 -21 8.5 -35t27.5 -14q22 0 42.5 25.5t53.5 79.5t99 174l23 120h76zM401 593h-252
l9 46h252z" />
    <glyph glyph-name="Ubreve" unicode="&#x16c;" horiz-adv-x="610" 
d="M470 224l78 401h52l-82 -426q-13 -67 -45.5 -113.5t-86 -73.5t-130.5 -27q-57 0 -100.5 18t-69 51.5t-33 82t3.5 106.5l73 382h93l-71 -368q-39 -205 140 -205q71 0 115.5 39.5t62.5 132.5zM518 868h40q-21 -82 -66 -121.5t-105 -39.5q-45 0 -72 20t-37.5 55t-3.5 86h38
q0 -54 19.5 -78t64.5 -24t73 24t49 78z" />
    <glyph glyph-name="ubreve" unicode="&#x16d;" horiz-adv-x="470" 
d="M344 13l-80 -25l47 222h-6q-56 -113 -102.5 -169t-97.5 -56q-19 0 -40 9t-33.5 31.5t-12.5 49.5q0 12 2.5 32t8.5 46.5t36 139.5t30 165h76q0 -33 -9 -75t-35.5 -141.5t-26.5 -133.5q0 -21 8.5 -35t27.5 -14q22 0 42.5 25.5t53.5 79.5t99 174l23 120h76zM402 703h40
q-21 -82 -66 -121.5t-105 -39.5q-45 0 -72 20t-37.5 55t-3.5 86h38q0 -54 19.5 -78t64.5 -24t73 24t49 78z" />
    <glyph glyph-name="Uring" unicode="&#x16e;" horiz-adv-x="610" 
d="M470 224l78 401h52l-82 -426q-13 -67 -45.5 -113.5t-86 -73.5t-130.5 -27q-57 0 -100.5 18t-69 51.5t-33 82t3.5 106.5l73 382h93l-71 -368q-39 -205 140 -205q71 0 115.5 39.5t62.5 132.5zM397 692q-24 0 -50 11t-43.5 39t-17.5 62q0 21 10 47.5t37 45.5t64 19
q24 0 50 -11t43.5 -39t17.5 -62q0 -21 -10 -47.5t-37 -45.5t-64 -19zM397 731q30 0 49 22.5t19 50.5t-19 50.5t-49 22.5t-49.5 -22.5t-19.5 -50.5t19.5 -50.5t49.5 -22.5z" />
    <glyph glyph-name="uring" unicode="&#x16f;" horiz-adv-x="470" 
d="M344 13l-80 -25l47 222h-6q-56 -113 -102.5 -169t-97.5 -56q-19 0 -40 9t-33.5 31.5t-12.5 49.5q0 12 2.5 32t8.5 46.5t36 139.5t30 165h76q0 -33 -9 -75t-35.5 -141.5t-26.5 -133.5q0 -21 8.5 -35t27.5 -14q22 0 42.5 25.5t53.5 79.5t99 174l23 120h76zM283 532
q-24 0 -50 11t-43.5 39t-17.5 62q0 21 10 47.5t37 45.5t64 19q24 0 50 -11t43.5 -39t17.5 -62q0 -21 -10 -47.5t-37 -45.5t-64 -19zM283 571q30 0 49 22.5t19 50.5t-19 50.5t-49 22.5t-49.5 -22.5t-19.5 -50.5t19.5 -50.5t49.5 -22.5z" />
    <glyph glyph-name="Uhungarumlaut" unicode="&#x170;" horiz-adv-x="610" 
d="M470 224l78 401h52l-82 -426q-13 -67 -45.5 -113.5t-86 -73.5t-130.5 -27q-57 0 -100.5 18t-69 51.5t-33 82t3.5 106.5l73 382h93l-71 -368q-39 -205 140 -205q71 0 115.5 39.5t62.5 132.5zM518 876l-179 -177h-39l116 177h102zM674 876l-179 -177h-39l116 177h102z" />
    <glyph glyph-name="uhungarumlaut" unicode="&#x171;" horiz-adv-x="470" 
d="M344 13l-80 -25l47 222h-6q-56 -113 -102.5 -169t-97.5 -56q-19 0 -40 9t-33.5 31.5t-12.5 49.5q0 12 2.5 32t8.5 46.5t36 139.5t30 165h76q0 -33 -9 -75t-35.5 -141.5t-26.5 -133.5q0 -21 8.5 -35t27.5 -14q22 0 42.5 25.5t53.5 79.5t99 174l23 120h76zM384 711
l-179 -177h-39l116 177h102zM540 711l-179 -177h-39l116 177h102z" />
    <glyph glyph-name="Uogonek" unicode="&#x172;" horiz-adv-x="610" 
d="M388 -156l14 -27q-23 -28 -55.5 -45.5t-69.5 -17.5q-41 0 -64 20.5t-23 56.5q0 84 114 157q-21 -3 -47 -3q-57 0 -100.5 18t-69.5 51.5t-33.5 82t3.5 106.5l73 382h93l-71 -368q-39 -205 141 -205q71 0 115 39.5t62 132.5l78 401h52l-82 -426q-13 -67 -46 -114t-81 -72
q-35 -21 -66 -50t-46 -58.5t-15 -54.5q0 -45 50 -45q20 0 40.5 12.5t33.5 26.5z" />
    <glyph glyph-name="uogonek" unicode="&#x173;" horiz-adv-x="470" 
d="M342 -156l14 -27q-23 -28 -55.5 -45.5t-69.5 -17.5q-41 0 -64 20.5t-23 56.5q0 43 29.5 84t91.5 78l46 217h-6q-56 -113 -102.5 -169t-97.5 -56q-19 0 -40 9t-33.5 31.5t-12.5 49.5q0 12 2.5 32t8.5 46.5t36 139.5t30 165h76q0 -33 -9 -75t-35.5 -141.5t-26.5 -133.5
q0 -21 8.5 -35t27.5 -14q22 0 42.5 25.5t53.5 79.5t99 174l23 120h76l-87 -445q-21 -13 -50 -35.5t-48 -50.5t-23.5 -46.5t-4.5 -30.5q0 -45 50 -45q20 0 40.5 12.5t33.5 26.5z" />
    <glyph glyph-name="Wcircumflex" unicode="&#x174;" horiz-adv-x="818" 
d="M543 -2h-54l-61 408h-6l-216 -408h-53l-69 627h91l51 -494h5l186 354l-22 140h90l71 -494h4l242 494h52zM608 699h-39l-89 130h-7l-144 -130h-44l161 197h79z" />
    <glyph glyph-name="wcircumflex" unicode="&#x175;" horiz-adv-x="647" 
d="M410 -2h-52l-39 263q-74 -163 -149 -263h-52l-70 460h80l50 -366h5q78 127 124 244l-19 122h80l50 -366h5q56 90 97 184t62 182h53q-22 -92 -88 -228t-137 -232zM509 534h-39l-89 130h-7l-144 -130h-44l161 197h79z" />
    <glyph glyph-name="Ycircumflex" unicode="&#x176;" horiz-adv-x="543" 
d="M257 0h-93l51 265l-140 360h99l114 -301h9l227 301h58l-274 -360zM511 699h-39l-89 130h-7l-144 -130h-44l161 197h79z" />
    <glyph glyph-name="ycircumflex" unicode="&#x177;" horiz-adv-x="427" 
d="M126 -3l-78 461h80l56 -366h6q39 64 80.5 148t91.5 218h53q-135 -365 -387 -657q-53 -62 -99 -62q-9 0 -24 6t-32 21l31 79q27 -38 50 -38q25 0 59 39q44 49 113 151zM399 534h-39l-89 130h-7l-144 -130h-44l161 197h79z" />
    <glyph glyph-name="Ydieresis" unicode="&#x178;" horiz-adv-x="543" 
d="M257 0h-93l51 265l-140 360h99l114 -301h9l227 301h58l-274 -360zM279 723q-22 0 -35 15t-13 36q0 27 15.5 47t37.5 20t35 -15t13 -36q0 -27 -15.5 -47t-37.5 -20zM458 723q-22 0 -35 15t-13 36q0 27 15.5 47t37.5 20t35 -15t13 -36q0 -27 -15.5 -47t-37.5 -20z" />
    <glyph glyph-name="Zacute" unicode="&#x179;" horiz-adv-x="532" 
d="M418 0h-442l7 36l446 544h-148q-50 0 -93.5 -3.5t-88.5 -16.5l13 65h440l-7 -37l-449 -543h152q49 0 91.5 3.5t91.5 16.5zM509 876l-186 -177h-40l123 177h103z" />
    <glyph glyph-name="zacute" unicode="&#x17a;" horiz-adv-x="434" 
d="M342 67l-12 -65q-41 -8 -71 -8q-31 0 -95 6.5t-95 6.5q-47 0 -85 -9l8 41l311 375h-74q-105 0 -170 -17l12 61h338l-7 -38l-308 -368q23 0 69.5 -5.5t73.5 -5.5q56 0 105 26zM431 711l-186 -177h-40l123 177h103z" />
    <glyph glyph-name="Zdotaccent" unicode="&#x17b;" horiz-adv-x="532" 
d="M418 0h-442l7 36l446 544h-148q-50 0 -93.5 -3.5t-88.5 -16.5l13 65h440l-7 -37l-449 -543h152q49 0 91.5 3.5t91.5 16.5zM323 723q-22 0 -35 15t-13 36q0 27 15.5 47t37.5 20t35 -15t13 -36q0 -27 -15.5 -47t-37.5 -20z" />
    <glyph glyph-name="zdotaccent" unicode="&#x17c;" horiz-adv-x="434" 
d="M342 67l-12 -65q-41 -8 -71 -8q-31 0 -95 6.5t-95 6.5q-47 0 -85 -9l8 41l311 375h-74q-105 0 -170 -17l12 61h338l-7 -38l-308 -368q23 0 69.5 -5.5t73.5 -5.5q56 0 105 26zM249 558q-22 0 -35 15t-13 36q0 27 15.5 47t37.5 20t35 -15t13 -36q0 -27 -15.5 -47t-37.5 -20
z" />
    <glyph glyph-name="Zcaron" unicode="&#x17d;" horiz-adv-x="532" 
d="M418 0h-442l7 36l446 544h-148q-50 0 -93.5 -3.5t-88.5 -16.5l13 65h440l-7 -37l-449 -543h152q49 0 91.5 3.5t91.5 16.5zM364 699h-79l-83 197h39l89 -130h7l144 130h44z" />
    <glyph glyph-name="zcaron" unicode="&#x17e;" horiz-adv-x="434" 
d="M342 67l-12 -65q-41 -8 -71 -8q-31 0 -95 6.5t-95 6.5q-47 0 -85 -9l8 41l311 375h-74q-105 0 -170 -17l12 61h338l-7 -38l-308 -368q23 0 69.5 -5.5t73.5 -5.5q56 0 105 26zM289 534h-79l-83 197h39l89 -130h7l144 130h44z" />
    <glyph glyph-name="florin" unicode="&#x192;" horiz-adv-x="520" 
d="M440 336h-136l-68 -197q-18 -51 -50.5 -88t-66 -51.5t-62.5 -14.5q-25 0 -52 8t-49 22l43 69q14 -29 28 -41.5t36 -12.5q24 0 45 21.5t47 94.5l66 190h-79l9 42h84l31 88q61 174 191 174q56 0 107 -33l-44 -68q-13 29 -28 42.5t-39 13.5q-25 0 -50 -23t-50 -94l-35 -100
h131z" />
    <glyph glyph-name="Aringacute" unicode="&#x1fa;" horiz-adv-x="553" 
d="M529 1005l-186 -177h-40l123 177h103zM458 0h-96l-26 203h-211l-103 -203h-55l302 589q-23 15 -35.5 40t-12.5 55q0 21 10 47.5t37 45.5t64 19q24 0 50 -11t43.5 -39t17.5 -62t-17.5 -62.5t-47.5 -40.5zM330 250l-35 277h-5l-141 -277h181zM332 611q30 0 49 22.5t19 50.5
t-19 50.5t-49 22.5t-49.5 -22.5t-19.5 -50.5t19.5 -50.5t49.5 -22.5z" />
    <glyph glyph-name="aringacute" unicode="&#x1fb;" horiz-adv-x="461" 
d="M335 11l-81 -23l40 190h-6l-21 -38.5t-41 -69t-55 -63.5t-65 -22q-42 0 -68 42t-26 104q0 78 22.5 143t60 109t82.5 67t88 23q17 0 44.5 -7.5t51.5 -20.5l63 25zM322 323l9 42q-46 52 -105 52q-13 0 -27.5 -7t-23.5 -17q-33 -35 -57 -102t-24 -128q0 -31 5.5 -55.5
t15.5 -34.5t21 -10q25 0 64.5 51.5t121.5 208.5zM292 532q-24 0 -50 11t-43.5 39t-17.5 62q0 21 10 47.5t37 45.5t64 19q24 0 50 -11t43.5 -39t17.5 -62q0 -21 -10 -47.5t-37 -45.5t-64 -19zM292 571q30 0 49 22.5t19 50.5t-19 50.5t-49 22.5t-49.5 -22.5t-19.5 -50.5
t19.5 -50.5t49.5 -22.5zM494 967l-186 -177h-40l123 177h103z" />
    <glyph glyph-name="AEacute" unicode="&#x1fc;" horiz-adv-x="835" 
d="M723 0h-376l39 203h-215l-151 -203h-60l467 625h417l-13 -65q-33 10 -71 15t-103 5h-105l-46 -238h202l-9 -47h-202l-49 -250h105q49 0 91.5 3.5t91.5 16.5zM395 247l64 333h-6l-249 -333h191zM794 876l-186 -177h-40l123 177h103z" />
    <glyph glyph-name="aeacute" unicode="&#x1fd;" horiz-adv-x="667" 
d="M603 711l-186 -177h-40l123 177h103zM560 114l26 -33q-41 -49 -82 -72.5t-89 -23.5q-39 0 -69.5 19t-49.5 55t-20 85q-103 -159 -189 -159q-17 0 -36.5 9.5t-32.5 33t-13 53.5q0 37 15.5 76.5t49.5 73.5t81 57t94 23q32 0 60 -12q15 53 3 82t-53 29q-29 0 -71 -16.5
t-86 -46.5l-19 46q65 42 112 61t90 19q39 0 63.5 -17t33.5 -46q63 63 139 63q55 0 85.5 -30t30.5 -72q0 -36 -18.5 -58.5t-58.5 -45.5t-201 -93v-19q0 -49 24.5 -78.5t60.5 -29.5q49 0 120 67zM359 220q62 29 105 52.5t66.5 44.5t23.5 51q0 19 -19 36t-48 17q-11 0 -25 -5.5
t-23 -14.5q-21 -21 -44.5 -69.5t-35.5 -111.5zM285 222q-30 39 -75 39q-22 0 -49.5 -18t-50.5 -59.5t-23 -74.5q0 -47 34 -47q52 0 164 160z" />
    <glyph glyph-name="Oslashacute" unicode="&#x1fe;" horiz-adv-x="697" 
d="M146 -73h-47l57 98q-56 34 -87 95t-31 137q0 51 14 103.5t46 107.5t80.5 94.5t101 58.5t109.5 19q62 0 111 -21l46 78h47l-56 -96q57 -35 88.5 -96.5t31.5 -137.5q0 -32 -8 -76.5t-31 -93.5t-57.5 -90.5t-80 -70.5t-91.5 -40t-83 -11q-59 0 -114 21zM188 80l285 492
q-37 23 -97 23q-43 0 -86 -23.5t-77 -74t-55.5 -119.5t-21.5 -137q0 -105 52 -161zM505 547l-285 -493q39 -24 99 -24q28 0 61.5 12t64.5 42t57 77t41.5 109t15.5 115q0 105 -54 162zM596 876l-186 -177h-40l123 177h103z" />
    <glyph glyph-name="oslashacute" unicode="&#x1ff;" horiz-adv-x="444" 
d="M13 -131l-31 17l78 133q-48 45 -48 161q0 50 18.5 102.5t51 95.5t74.5 69t87 26q39 0 71 -13l74 129l31 -17l-75 -131q53 -46 53 -163q0 -50 -18.5 -102.5t-51 -95.5t-74.5 -69t-87 -26t-77 15zM101 92l184 318q-20 18 -41 18q-19 0 -43 -15.5t-51 -55.5t-42 -95.5
t-15 -104.5q0 -33 8 -65zM305 375l-185 -321q19 -24 45 -24q21 0 45.5 16.5t47.5 54t39.5 93t16.5 116.5q0 37 -9 65zM446 711l-186 -177h-40l123 177h103z" />
    <glyph glyph-name="Scommaaccent" unicode="&#x218;" horiz-adv-x="506" 
d="M4 33l33 68q33 -32 76 -52t85 -20q26 0 52.5 6.5t49.5 23t34 42t11 48.5q0 36 -32.5 70t-104.5 69q-65 31 -99 75t-34 97q0 55 26 94t77 62.5t125 23.5q48 0 102 -13t79 -27l-34 -68q-69 64 -149 64q-58 0 -98.5 -30.5t-40.5 -82.5q0 -36 28.5 -65t93.5 -64
q76 -41 112 -84t36 -95q0 -41 -14.5 -76t-44.5 -60.5t-76 -39.5t-106 -14q-50 0 -103.5 15t-83.5 33zM91 -295l-7 31q27 10 48.5 26t30 35t8.5 35q0 42 -59 63q5 24 24 39.5t49 15.5t49 -21t19 -51q0 -46 -41.5 -96t-120.5 -77z" />
    <glyph glyph-name="scommaaccent" unicode="&#x219;" horiz-adv-x="354" 
d="M344 411l-42 -58q-20 37 -47.5 57t-58.5 20t-50.5 -19t-19.5 -45q0 -19 9.5 -39t59.5 -70q45 -44 66 -78.5t21 -65.5t-16.5 -59t-50.5 -48.5t-83 -20.5q-26 0 -56 7t-56 23t-42 35l40 55q27 -41 52.5 -59t60.5 -18q31 0 53.5 21.5t22.5 47.5q0 18 -11.5 39.5t-73.5 81.5
q-71 67 -71 132q0 41 25 70.5t58.5 41t61.5 11.5q37 0 77.5 -14t70.5 -48zM3 -295l-7 31q27 10 48.5 26t30 35t8.5 35q0 42 -59 63q5 24 24 39.5t49 15.5t49 -21t19 -51q0 -46 -41.5 -96t-120.5 -77z" />
    <glyph glyph-name="uni021A" unicode="&#x21a;" horiz-adv-x="550" 
d="M262 0h-93l112 580h-44q-94 0 -165 -20l13 65h499l-13 -65q-62 20 -155 20h-42zM107 -295l-7 31q27 10 48.5 26t30 35t8.5 35q0 42 -59 63q5 24 24 39.5t49 15.5t49 -21t19 -51q0 -46 -41.5 -96t-120.5 -77z" />
    <glyph glyph-name="uni021B" unicode="&#x21b;" horiz-adv-x="325" 
d="M224 106l27 -32q-45 -54 -72.5 -71.5t-52.5 -17.5q-61 0 -78 39t-1 107l64 280h-74l9 47h76l31 137l83 20l-37 -157h128l-9 -47h-130l-67 -296q-7 -29 -3 -50t30 -21q24 0 76 62zM5 -295l-7 31q27 10 48.5 26t30 35t8.5 35q0 42 -59 63q5 24 24 39.5t49 15.5t49 -21
t19 -51q0 -46 -41.5 -96t-120.5 -77z" />
    <glyph glyph-name="uni0237" unicode="&#x237;" horiz-adv-x="214" 
d="M-11 -98l106 543l81 25l-103 -528q-11 -56 -39.5 -104t-64.5 -73.5t-73 -25.5q-46 0 -79 36l40 69q25 -49 58 -49q24 0 44 29t30 78z" />
    <glyph glyph-name="circumflex" unicode="&#x2c6;" horiz-adv-x="350" 
d="M392 534h-39l-89 130h-7l-144 -130h-44l161 197h79z" />
    <glyph glyph-name="caron" unicode="&#x2c7;" horiz-adv-x="350" 
d="M261 534h-79l-83 197h39l89 -130h7l144 130h44z" />
    <glyph glyph-name="breve" unicode="&#x2d8;" horiz-adv-x="350" 
d="M357 703h40q-21 -82 -66 -121.5t-105 -39.5q-45 0 -72 20t-37.5 55t-3.5 86h38q0 -54 19.5 -78t64.5 -24t73 24t49 78z" />
    <glyph glyph-name="dotaccent" unicode="&#x2d9;" horiz-adv-x="350" 
d="M240 558q-22 0 -35 15t-13 36q0 27 15.5 47t37.5 20t35 -15t13 -36q0 -27 -15.5 -47t-37.5 -20z" />
    <glyph glyph-name="ring" unicode="&#x2da;" horiz-adv-x="350" 
d="M246 532q-24 0 -50 11t-43.5 39t-17.5 62q0 21 10 47.5t37 45.5t64 19q24 0 50 -11t43.5 -39t17.5 -62q0 -21 -10 -47.5t-37 -45.5t-64 -19zM246 571q30 0 49 22.5t19 50.5t-19 50.5t-49 22.5t-49.5 -22.5t-19.5 -50.5t19.5 -50.5t49.5 -22.5z" />
    <glyph glyph-name="ogonek" unicode="&#x2db;" horiz-adv-x="350" 
d="M196 -156l14 -27q-23 -28 -55.5 -45.5t-69.5 -17.5q-41 0 -64 20.5t-23 56.5q0 102 161 184h43q-51 -30 -81.5 -64t-39.5 -58.5t-9 -42.5q0 -45 50 -45q20 0 40.5 12.5t33.5 26.5z" />
    <glyph glyph-name="tilde" unicode="&#x2dc;" horiz-adv-x="350" 
d="M382 684h39q-14 -47 -32 -76.5t-41 -40.5t-46 -11q-35 0 -64 31.5t-38 37.5t-20 6q-15 0 -29.5 -10.5t-32.5 -55.5h-39q14 47 31.5 76t39.5 40.5t47 11.5q35 0 64 -31.5t38.5 -37.5t20.5 -6q15 0 29.5 10.5t32.5 55.5z" />
    <glyph glyph-name="hungarumlaut" unicode="&#x2dd;" horiz-adv-x="350" 
d="M348 711l-179 -177h-39l116 177h102zM504 711l-179 -177h-39l116 177h102z" />
    <glyph glyph-name="Wgrave" unicode="&#x1e80;" horiz-adv-x="818" 
d="M543 -2h-54l-61 408h-6l-216 -408h-53l-69 627h91l51 -494h5l186 354l-22 140h90l71 -494h4l242 494h52zM459 699h-32l-118 177h97z" />
    <glyph glyph-name="wgrave" unicode="&#x1e81;" horiz-adv-x="647" 
d="M410 -2h-52l-39 263q-74 -163 -149 -263h-52l-70 460h80l50 -366h5q78 127 124 244l-19 122h80l50 -366h5q56 90 97 184t62 182h53q-22 -92 -88 -228t-137 -232zM351 534h-32l-118 177h97z" />
    <glyph glyph-name="Wacute" unicode="&#x1e82;" horiz-adv-x="818" 
d="M543 -2h-54l-61 408h-6l-216 -408h-53l-69 627h91l51 -494h5l186 354l-22 140h90l71 -494h4l242 494h52zM647 876l-186 -177h-40l123 177h103z" />
    <glyph glyph-name="wacute" unicode="&#x1e83;" horiz-adv-x="647" 
d="M410 -2h-52l-39 263q-74 -163 -149 -263h-52l-70 460h80l50 -366h5q78 127 124 244l-19 122h80l50 -366h5q56 90 97 184t62 182h53q-22 -92 -88 -228t-137 -232zM532 711l-186 -177h-40l123 177h103z" />
    <glyph glyph-name="Wdieresis" unicode="&#x1e84;" horiz-adv-x="818" 
d="M543 -2h-54l-61 408h-6l-216 -408h-53l-69 627h91l51 -494h5l186 354l-22 140h90l71 -494h4l242 494h52zM371 723q-22 0 -35 15t-13 36q0 27 15.5 47t37.5 20t35 -15t13 -36q0 -27 -15.5 -47t-37.5 -20zM550 723q-22 0 -35 15t-13 36q0 27 15.5 47t37.5 20t35 -15t13 -36
q0 -27 -15.5 -47t-37.5 -20z" />
    <glyph glyph-name="wdieresis" unicode="&#x1e85;" horiz-adv-x="647" 
d="M410 -2h-52l-39 263q-74 -163 -149 -263h-52l-70 460h80l50 -366h5q78 127 124 244l-19 122h80l50 -366h5q56 90 97 184t62 182h53q-22 -92 -88 -228t-137 -232zM260 558q-22 0 -35 15t-13 36q0 27 15.5 47t37.5 20t35 -15t13 -36q0 -27 -15.5 -47t-37.5 -20zM439 558
q-22 0 -35 15t-13 36q0 27 15.5 47t37.5 20t35 -15t13 -36q0 -27 -15.5 -47t-37.5 -20z" />
    <glyph glyph-name="uni2009" unicode="&#x2009;" horiz-adv-x="100" 
 />
    <glyph glyph-name="endash" unicode="&#x2013;" horiz-adv-x="492" 
d="M426 238h-382l11 53h382z" />
    <glyph glyph-name="emdash" unicode="&#x2014;" horiz-adv-x="940" 
d="M874 238h-830l11 53h830z" />
    <glyph glyph-name="quoteleft" unicode="&#x2018;" horiz-adv-x="245" 
d="M245 671l17 -30q-61 -44 -82.5 -78.5t-21.5 -63.5q0 -52 64 -74q-5 -26 -25.5 -43.5t-52.5 -17.5t-55.5 24.5t-23.5 60.5q0 112 180 222z" />
    <glyph glyph-name="quoteright" unicode="&#x2019;" horiz-adv-x="245" 
d="M80 352l-17 30q61 44 82.5 78.5t21.5 63.5q0 52 -64 74q5 26 25.5 43.5t52.5 17.5t55.5 -24.5t23.5 -60.5q0 -112 -180 -222z" />
    <glyph glyph-name="quotesinglbase" unicode="&#x201a;" horiz-adv-x="230" 
d="M-35 -190l-17 30q61 44 82.5 78.5t21.5 63.5q0 52 -64 74q5 26 25.5 43.5t52.5 17.5t55.5 -24.5t23.5 -60.5q0 -112 -180 -222z" />
    <glyph glyph-name="quotedblleft" unicode="&#x201c;" horiz-adv-x="458" 
d="M458 671l17 -30q-61 -44 -82.5 -78.5t-21.5 -63.5q0 -52 64 -74q-5 -26 -25.5 -43.5t-52.5 -17.5t-55.5 24.5t-23.5 60.5q0 112 180 222zM245 671l17 -30q-61 -44 -82.5 -78.5t-21.5 -63.5q0 -52 64 -74q-5 -26 -25.5 -43.5t-52.5 -17.5t-55.5 24.5t-23.5 60.5
q0 112 180 222z" />
    <glyph glyph-name="quotedblright" unicode="&#x201d;" horiz-adv-x="458" 
d="M80 352l-17 30q61 44 82.5 78.5t21.5 63.5q0 52 -64 74q5 26 25.5 43.5t52.5 17.5t55.5 -24.5t23.5 -60.5q0 -112 -180 -222zM293 352l-17 30q61 44 82.5 78.5t21.5 63.5q0 52 -64 74q5 26 25.5 43.5t52.5 17.5t55.5 -24.5t23.5 -60.5q0 -112 -180 -222z" />
    <glyph glyph-name="quotedblbase" unicode="&#x201e;" horiz-adv-x="443" 
d="M-35 -190l-17 30q61 44 82.5 78.5t21.5 63.5q0 52 -64 74q5 26 25.5 43.5t52.5 17.5t55.5 -24.5t23.5 -60.5q0 -112 -180 -222zM178 -190l-17 30q61 44 82.5 78.5t21.5 63.5q0 52 -64 74q5 26 25.5 43.5t52.5 17.5t55.5 -24.5t23.5 -60.5q0 -112 -180 -222z" />
    <glyph glyph-name="dagger" unicode="&#x2020;" horiz-adv-x="470" 
d="M167 -156h-57l110 567h-161l9 47h161l32 167h57l-32 -167h162l-9 -47h-162z" />
    <glyph glyph-name="daggerdbl" unicode="&#x2021;" horiz-adv-x="470" 
d="M363 20h-162l-34 -176h-57l34 176h-161l9 47h161l67 344h-161l9 47h161l32 167h57l-32 -167h162l-9 -47h-162l-67 -344h162z" />
    <glyph glyph-name="bullet" unicode="&#x2022;" horiz-adv-x="455" 
d="M210 46q-37 0 -71 14.5t-59.5 40t-40 59.5t-14.5 71t14.5 71t40 59.5t59.5 40t71 14.5t71 -14.5t59.5 -40t40 -59.5t14.5 -71t-14.5 -71t-40 -59.5t-59.5 -40t-71 -14.5z" />
    <glyph glyph-name="ellipsis" unicode="&#x2026;" horiz-adv-x="682" 
d="M69 -15q-26 0 -45.5 19.5t-19.5 46.5t19.5 46.5t45.5 19.5t45.5 -19.5t19.5 -46.5t-19.5 -46.5t-45.5 -19.5zM295 -15q-26 0 -45.5 19.5t-19.5 46.5t19.5 46.5t45.5 19.5t45.5 -19.5t19.5 -46.5t-19.5 -46.5t-45.5 -19.5zM521 -15q-26 0 -45.5 19.5t-19.5 46.5t19.5 46.5
t45.5 19.5t45.5 -19.5t19.5 -46.5t-19.5 -46.5t-45.5 -19.5z" />
    <glyph glyph-name="perthousand" unicode="&#x2030;" horiz-adv-x="1021" 
d="M188 344q-46 0 -76 21.5t-41 51.5t-11 57q0 24 7.5 52.5t29.5 59.5t55.5 47.5t68.5 16.5q46 0 76 -21.5t41 -51.5t11 -57q0 -40 -20 -83t-58.5 -68t-82.5 -25zM187 384q21 0 41 18.5t32.5 59.5t12.5 75q0 31 -12.5 52t-38.5 21q-21 0 -41 -18.5t-32.5 -59.5t-12.5 -75
q0 -22 7 -40t19 -25.5t25 -7.5zM470 -24q-46 0 -76 21.5t-41 51.5t-11 57q0 24 7.5 52.5t29.5 59.5t55.5 47.5t68.5 16.5q46 0 76 -21.5t41 -51.5t11 -56q0 -23 -7.5 -52t-29.5 -60t-55.5 -48t-68.5 -17zM469 16q21 0 41 18.5t32.5 59.5t12.5 76q0 31 -12.5 51.5t-38.5 20.5
q-21 0 -41 -18.5t-32.5 -59.5t-12.5 -75q0 -22 7 -40t19 -25.5t25 -7.5zM65 -3h-57l613 631h56zM806 -24q-46 0 -76 21.5t-41 51.5t-11 57q0 24 7.5 52.5t29.5 59.5t55.5 47.5t68.5 16.5q46 0 76 -21.5t41 -51.5t11 -56q0 -23 -7.5 -52t-29.5 -60t-55.5 -48t-68.5 -17z
M805 16q21 0 41 18.5t32.5 59.5t12.5 76q0 31 -12.5 51.5t-38.5 20.5q-21 0 -41 -18.5t-32.5 -59.5t-12.5 -75q0 -22 7 -40t19 -25.5t25 -7.5z" />
    <glyph glyph-name="guilsinglleft" unicode="&#x2039;" horiz-adv-x="349" 
d="M223 59l-216 174l10 49l283 174l16 -30l-205 -177l135 -167z" />
    <glyph glyph-name="guilsinglright" unicode="&#x203a;" horiz-adv-x="349" 
d="M308 233l-283 -174l-16 30l205 177l-135 167l23 23l216 -174z" />
    <glyph glyph-name="fraction" unicode="&#x2044;" horiz-adv-x="445" 
d="M-46 -15h-58l595 655h58z" />
    <glyph glyph-name="uni2070" unicode="&#x2070;" horiz-adv-x="330" 
d="M164 260q-59 0 -94.5 38t-35.5 108q0 45 12.5 91t36.5 84t59 60.5t76 22.5q59 0 94.5 -38t35.5 -108q0 -45 -12.5 -91t-36.5 -84t-59 -60.5t-76 -22.5zM168 299q26 0 48.5 32t37.5 90t15 123q0 48 -16 64.5t-39 16.5q-26 0 -48.5 -32t-37.5 -90t-15 -123q0 -48 16 -64.5
t39 -16.5z" />
    <glyph glyph-name="uni2074" unicode="&#x2074;" horiz-adv-x="330" 
d="M257 273h-74l17 86h-169v44l241 250h59l-48 -244h55l-9 -50h-55zM209 409l30 154h-5l-148 -154h123z" />
    <glyph glyph-name="uni2075" unicode="&#x2075;" horiz-adv-x="330" 
d="M345 588h-170l-20 -54q79 -20 116.5 -59t37.5 -88q0 -51 -41.5 -89t-103.5 -38q-78 0 -128 45l37 48q32 -55 89 -55q29 0 47.5 13.5t24 30t5.5 27.5q0 77 -144 108l67 174h196z" />
    <glyph glyph-name="uni2076" unicode="&#x2076;" horiz-adv-x="330" 
d="M355 672l5 -36q-150 -17 -217 -136l2 -3q39 18 76 18q51 0 78 -30t27 -76q0 -39 -19 -72t-55 -55t-82 -22q-28 0 -57.5 12t-50 45t-20.5 76q0 46 22.5 94.5t64 88.5t100 66t126.5 30zM132 450q-5 -14 -9 -34.5t-4 -36.5q0 -33 14.5 -56.5t42.5 -23.5q21 0 37.5 14t25 40
t8.5 47q0 31 -16.5 49t-41.5 18q-12 0 -29.5 -5t-27.5 -12z" />
    <glyph glyph-name="uni2077" unicode="&#x2077;" horiz-adv-x="330" 
d="M115 268h-60l231 320h-205l13 63h274v-26z" />
    <glyph glyph-name="uni2078" unicode="&#x2078;" horiz-adv-x="330" 
d="M255 474v-3q31 -18 50 -43.5t19 -56.5q0 -27 -14.5 -53t-52 -42t-83.5 -16q-54 0 -95.5 27t-41.5 72q0 18 9.5 39t33 38t51.5 25v3q-25 16 -40.5 39t-15.5 50q0 51 39 81t102 30q36 0 66.5 -14t43.5 -36t13 -46q0 -17 -8 -36.5t-28.5 -34.5t-47.5 -23zM225 489
q44 25 44 72q0 28 -15.5 47t-45.5 19q-29 0 -47 -14.5t-18 -38.5q0 -44 82 -85zM163 444q-24 -13 -39.5 -34t-15.5 -44q0 -31 20 -50t56 -19q31 0 51 15t20 40q0 44 -92 92z" />
    <glyph glyph-name="uni2079" unicode="&#x2079;" horiz-adv-x="330" 
d="M249 424l-2 3q-39 -18 -76 -18q-51 0 -78 30t-27 76q0 39 19 72t55 55t82 22q28 0 57.5 -12t50 -45t20.5 -76q0 -46 -22.5 -94.5t-64 -88.5t-100 -66t-126.5 -30l-5 36q150 17 217 136zM260 474q5 14 9 34.5t4 36.5q0 33 -14.5 56.5t-42.5 23.5q-21 0 -37.5 -14t-25 -40
t-8.5 -47q0 -31 16.5 -49t41.5 -18q12 0 29.5 5t27.5 12z" />
    <glyph glyph-name="uni207A" unicode="&#x207a;" horiz-adv-x="330" 
d="M315 443h-104l-21 -105h-38l21 105h-105l7 38h105l21 105h38l-21 -105h104z" />
    <glyph glyph-name="uni207B" unicode="&#x207b;" horiz-adv-x="330" 
d="M315 443h-247l7 38h247z" />
    <glyph glyph-name="uni2080" unicode="&#x2080;" horiz-adv-x="330" 
d="M88 -156q-59 0 -94.5 38t-35.5 108q0 45 12.5 91t36.5 84t59 60.5t76 22.5q59 0 94.5 -38t35.5 -108q0 -45 -12.5 -91t-36.5 -84t-59 -60.5t-76 -22.5zM92 -117q26 0 48.5 32t37.5 90t15 123q0 48 -16 64.5t-39 16.5q-26 0 -48.5 -32t-37.5 -90t-15 -123q0 -48 16 -64.5
t39 -16.5z" />
    <glyph glyph-name="uni2081" unicode="&#x2081;" horiz-adv-x="330" 
d="M139 -143h-74l60 310h-94l7 35l176 43z" />
    <glyph glyph-name="uni2082" unicode="&#x2082;" horiz-adv-x="330" 
d="M215 -143h-267v43q133 90 188.5 144t55.5 98q0 27 -18 40.5t-48 13.5q-24 0 -55 -12.5t-56 -34.5l-18 31q34 32 75 50t83 18q56 0 86.5 -25t30.5 -69q0 -26 -16.5 -55.5t-64 -70.5t-151.5 -103v-5h187z" />
    <glyph glyph-name="uni2083" unicode="&#x2083;" horiz-adv-x="330" 
d="M144 66v-4q42 0 69 -24t27 -60q0 -20 -9 -42.5t-32 -45t-57 -34.5t-64 -12q-76 0 -126 45l37 48q32 -55 86 -55q19 0 39 8.5t33 30t13 47.5q0 56 -63 56q-18 0 -48 -10l-8 31q134 60 134 109q0 42 -54 42q-46 0 -101 -40l-17 31q74 61 153 61q50 0 74.5 -20t24.5 -54
q0 -62 -111 -108z" />
    <glyph glyph-name="uni2084" unicode="&#x2084;" horiz-adv-x="330" 
d="M180 -143h-74l17 86h-169v44l241 250h59l-48 -244h55l-9 -50h-55zM132 -7l30 154h-5l-148 -154h123z" />
    <glyph glyph-name="uni2085" unicode="&#x2085;" horiz-adv-x="330" 
d="M263 172h-170l-20 -54q79 -20 116.5 -59t37.5 -88q0 -51 -41.5 -89t-103.5 -38q-78 0 -128 45l37 48q32 -55 89 -55q29 0 47.5 13.5t24 30t5.5 27.5q0 77 -144 108l67 174h196z" />
    <glyph glyph-name="uni2086" unicode="&#x2086;" horiz-adv-x="330" 
d="M270 256l5 -36q-150 -17 -217 -136l2 -3q39 18 76 18q51 0 78 -30t27 -76q0 -39 -19 -72t-55 -55t-82 -22q-28 0 -57.5 12t-50 45t-20.5 76q0 46 22.5 94.5t64 88.5t100 66t126.5 30zM47 34q-5 -14 -9 -34.5t-4 -36.5q0 -33 14.5 -56.5t42.5 -23.5q21 0 37.5 14t25 40
t8.5 47q0 31 -16.5 49t-41.5 18q-12 0 -29.5 -5t-27.5 -12z" />
    <glyph glyph-name="uni2087" unicode="&#x2087;" horiz-adv-x="330" 
d="M35 -148h-60l231 320h-205l13 63h274v-26z" />
    <glyph glyph-name="uni2088" unicode="&#x2088;" horiz-adv-x="330" 
d="M175 58v-3q31 -18 50 -43.5t19 -56.5q0 -27 -14.5 -53t-52 -42t-83.5 -16q-54 0 -95.5 27t-41.5 72q0 18 9.5 39t33 38t51.5 25v3q-25 16 -40.5 39t-15.5 50q0 51 39 81t102 30q36 0 66.5 -14t43.5 -36t13 -46q0 -17 -8 -36.5t-28.5 -34.5t-47.5 -23zM145 73q44 25 44 72
q0 28 -15.5 47t-45.5 19q-29 0 -47 -14.5t-18 -38.5q0 -44 82 -85zM83 28q-24 -13 -39.5 -34t-15.5 -44q0 -31 20 -50t56 -19q31 0 51 15t20 40q0 44 -92 92z" />
    <glyph glyph-name="uni2089" unicode="&#x2089;" horiz-adv-x="330" 
d="M169 8l-2 3q-39 -18 -76 -18q-51 0 -78 30t-27 76q0 39 19 72t55 55t82 22q28 0 57.5 -12t50 -45t20.5 -76q0 -46 -22.5 -94.5t-64 -88.5t-100 -66t-126.5 -30l-5 36q150 17 217 136zM180 58q5 14 9 34.5t4 36.5q0 33 -14.5 56.5t-42.5 23.5q-21 0 -37.5 -14t-25 -40
t-8.5 -47q0 -31 16.5 -49t41.5 -18q12 0 29.5 5t27.5 12z" />
    <glyph glyph-name="Euro" unicode="&#x20ac;" horiz-adv-x="528" 
d="M418 85l24 -35q-65 -65 -153 -65q-38 0 -75 12.5t-65.5 42.5t-46.5 78t-19 114h-72l8 42h65q5 49 14 84h-63l9 42h66q21 63 59 120.5t90.5 88.5t108.5 31q102 0 169 -76l-51 -57q-38 86 -109 86q-38 0 -70.5 -23.5t-59.5 -67t-46 -102.5h216l-9 -42h-219q-10 -41 -15 -84
h218l-8 -42h-213l-1 -15q0 -50 12.5 -94.5t43.5 -69t75 -24.5q58 0 117 56z" />
    <glyph glyph-name="trademark" unicode="&#x2122;" horiz-adv-x="878" 
d="M217 252h-69l67 341h-15q-66 0 -116 -14l9 46h324l-9 -46q-44 14 -110 14h-14zM812 252h-70l50 317h-6l-161 -302h-49l-43 302h-7l-73 -317h-39l87 373h92l36 -273h4l143 273h95z" />
    <glyph glyph-name="minus" unicode="&#x2212;" 
d="M431 212h-400l9 48h400z" />
    <glyph glyph-name="uni2215" unicode="&#x2215;" horiz-adv-x="445" 
d="M-46 -15h-58l595 655h58z" />
    <glyph glyph-name="approxequal" unicode="&#x2248;" 
d="M365 206h51q-13 -34 -33.5 -59.5t-44 -35.5t-44.5 -10q-30 0 -74.5 27t-59 31.5t-22.5 4.5q-39 0 -63 -55h-51q12 33 33 58.5t45 35.5t44 10q33 0 78.5 -27.5t58 -31.5t19.5 -4q38 0 63 56zM397 370h51q-14 -34 -34.5 -59.5t-43.5 -35.5t-44 -10q-30 0 -74.5 27t-59 31.5
t-22.5 4.5q-39 0 -63 -55h-51q12 33 33 58.5t45 35.5t44 10q33 0 78.5 -27.5t58 -31.5t19.5 -4q37 0 63 56z" />
    <glyph glyph-name="notequal" unicode="&#x2260;" 
d="M409 126h-194l-72 -149h-50l71 149h-151l10 49h165l57 119h-199l10 49h213l66 139h51l-66 -139h132l-10 -49h-146l-57 -119h180z" />
    <glyph glyph-name="lessequal" unicode="&#x2264;" 
d="M369 0h-384l10 49h384zM386 89l-351 168l7 36l417 168l-11 -56l-329 -131l-1 -3l279 -133z" />
    <glyph glyph-name="greaterequal" unicode="&#x2265;" 
d="M396 0h-384l10 49h384zM446 257l-417 -168l11 56l329 131l1 3l-279 133l11 49l351 -168z" />
    <glyph glyph-name="uni24DF" unicode="&#x24df;" horiz-adv-x="800" 
d="M753 312q0 -71 -27.5 -136t-76 -113.5t-113.5 -76t-136 -27.5t-136 27.5t-113.5 76t-76 113.5t-27.5 136t27.5 136t76 114t113.5 76.5t136 27.5t136 -27.5t113.5 -76.5t76 -114t27.5 -136zM400 -1q62 0 119 24.5t99.5 68t66.5 101t24 119.5t-24 119.5t-66.5 101.5
t-99.5 68.5t-119 24.5t-119 -24.5t-99.5 -68.5t-66.5 -101.5t-24 -119.5t24 -119.5t66.5 -101t99.5 -68t119 -24.5zM364 123h-66v380l115 1q44 0 76.5 -13t51 -38.5t18.5 -56.5q0 -45 -24.5 -76t-60 -42t-64.5 -11q-25 0 -46 3v-147zM405 465h-41v-157q24 -4 38 -4
q37 0 62 22.5t25 58.5t-23 58t-61 22z" />
    <glyph glyph-name="uniF6C3" unicode="&#xf6c3;" horiz-adv-x="350" 
d="M21 -295l-7 31q27 10 48.5 26t30 35t8.5 35q0 42 -59 63q5 24 24 39.5t49 15.5t49 -21t19 -51q0 -46 -41.5 -96t-120.5 -77z" />
    <glyph glyph-name="uniF8FF" unicode="&#xf8ff;" horiz-adv-x="758" 
d="M652 47l-189 69l-85 -181l-84 180l-187 -68l68 187l-181 86l181 83l-68 189l187 -69l86 181l83 -181l189 69l-69 -189l180 -82l-180 -85zM581 118l-50 140l132 62l-132 62l50 139l-139 -50l-63 133l-63 -133l-139 50l51 -139l-134 -63l134 -63l-51 -138l139 51l62 -135
l64 135z" />
    <glyph glyph-name="J.salt" horiz-adv-x="253" 
d="M-108 -186h-78l29 88q32 -44 67 -44q37 0 64.5 25.5t37.5 76.5l128 665h93l-113 -590q-21 -113 -78 -167t-150 -54z" />
    <glyph glyph-name="a.salt" horiz-adv-x="440" 
d="M305 11l-82 -23l36 135h-4q-66 -89 -102 -113.5t-66 -24.5q-17 0 -36.5 9.5t-32.5 33t-13 53.5q0 37 15.5 76.5t49.5 73.5t81 57t94 23q32 0 60 -12q15 53 3 82t-53 29q-29 0 -71 -16.5t-86 -46.5l-19 46q65 42 112 61t90 19q45 0 71 -22t34 -62.5t-6 -94.5zM285 222
q-30 39 -75 39q-22 0 -49.5 -18t-50.5 -59.5t-23 -74.5q0 -47 34 -47q52 0 164 160z" />
    <glyph glyph-name="g.salt" horiz-adv-x="464" 
d="M177 35l65 -23q69 -24 101.5 -52.5t32.5 -79.5q0 -26 -15 -51t-45.5 -45.5t-78 -32.5t-108.5 -12q-90 0 -146 33.5t-56 93.5q0 34 23 62t52.5 44t52.5 24v8q-18 12 -29.5 30t-11.5 40q0 29 24 53.5t65 37.5v8q-28 21 -41 47t-13 61q0 37 13.5 72t38.5 62t60 42.5t77 15.5
q28 0 57 -15h194l-9 -47l-129 2v-4q15 -21 24 -47.5t9 -48.5q0 -41 -22.5 -84.5t-67 -69t-96.5 -25.5q-28 0 -55 10q-22 -6 -36 -19t-14 -26q0 -15 13 -29.5t71 -34.5zM100 -23q-44 -21 -66.5 -44.5t-22.5 -54.5q0 -41 39 -67t109 -26q27 0 59.5 8t55.5 27t23 41
q0 20 -18.5 40t-80.5 42q-13 5 -48.5 16t-49.5 18zM197 179q40 0 65.5 24t34 59t8.5 65q0 17 -9 40t-30.5 42t-44.5 19q-21 0 -38 -15q-12 -10 -24.5 -31.5t-20 -52t-7.5 -57.5q0 -26 10 -49.5t25.5 -33.5t30.5 -10z" />
    <glyph glyph-name="agrave.salt" horiz-adv-x="440" 
d="M305 11l-82 -23l36 135h-4q-66 -89 -102 -113.5t-66 -24.5q-17 0 -36.5 9.5t-32.5 33t-13 53.5q0 37 15.5 76.5t49.5 73.5t81 57t94 23q32 0 60 -12q15 53 3 82t-53 29q-29 0 -71 -16.5t-86 -46.5l-19 46q65 42 112 61t90 19q45 0 71 -22t34 -62.5t-6 -94.5zM285 222
q-30 39 -75 39q-22 0 -49.5 -18t-50.5 -59.5t-23 -74.5q0 -47 34 -47q52 0 164 160zM296 534h-32l-118 177h97z" />
    <glyph glyph-name="aacute.salt" horiz-adv-x="440" 
d="M305 11l-82 -23l36 135h-4q-66 -89 -102 -113.5t-66 -24.5q-17 0 -36.5 9.5t-32.5 33t-13 53.5q0 37 15.5 76.5t49.5 73.5t81 57t94 23q32 0 60 -12q15 53 3 82t-53 29q-29 0 -71 -16.5t-86 -46.5l-19 46q65 42 112 61t90 19q45 0 71 -22t34 -62.5t-6 -94.5zM285 222
q-30 39 -75 39q-22 0 -49.5 -18t-50.5 -59.5t-23 -74.5q0 -47 34 -47q52 0 164 160zM466 711l-186 -177h-40l123 177h103z" />
    <glyph glyph-name="acircumflex.salt" horiz-adv-x="440" 
d="M305 11l-82 -23l36 135h-4q-66 -89 -102 -113.5t-66 -24.5q-17 0 -36.5 9.5t-32.5 33t-13 53.5q0 37 15.5 76.5t49.5 73.5t81 57t94 23q32 0 60 -12q15 53 3 82t-53 29q-29 0 -71 -16.5t-86 -46.5l-19 46q65 42 112 61t90 19q45 0 71 -22t34 -62.5t-6 -94.5zM285 222
q-30 39 -75 39q-22 0 -49.5 -18t-50.5 -59.5t-23 -74.5q0 -47 34 -47q52 0 164 160zM419 534h-39l-89 130h-7l-144 -130h-44l161 197h79z" />
    <glyph glyph-name="atilde.salt" horiz-adv-x="440" 
d="M305 11l-82 -23l36 135h-4q-66 -89 -102 -113.5t-66 -24.5q-17 0 -36.5 9.5t-32.5 33t-13 53.5q0 37 15.5 76.5t49.5 73.5t81 57t94 23q32 0 60 -12q15 53 3 82t-53 29q-29 0 -71 -16.5t-86 -46.5l-19 46q65 42 112 61t90 19q45 0 71 -22t34 -62.5t-6 -94.5zM285 222
q-30 39 -75 39q-22 0 -49.5 -18t-50.5 -59.5t-23 -74.5q0 -47 34 -47q52 0 164 160zM409 684h39q-14 -47 -32 -76.5t-41 -40.5t-46 -11q-35 0 -64 31.5t-38 37.5t-20 6q-15 0 -29.5 -10.5t-32.5 -55.5h-39q14 47 31.5 76t39.5 40.5t47 11.5q35 0 64 -31.5t38.5 -37.5
t20.5 -6q15 0 29.5 10.5t32.5 55.5z" />
    <glyph glyph-name="adieresis.salt" horiz-adv-x="440" 
d="M305 11l-82 -23l36 135h-4q-66 -89 -102 -113.5t-66 -24.5q-17 0 -36.5 9.5t-32.5 33t-13 53.5q0 37 15.5 76.5t49.5 73.5t81 57t94 23q32 0 60 -12q15 53 3 82t-53 29q-29 0 -71 -16.5t-86 -46.5l-19 46q65 42 112 61t90 19q45 0 71 -22t34 -62.5t-6 -94.5zM285 222
q-30 39 -75 39q-22 0 -49.5 -18t-50.5 -59.5t-23 -74.5q0 -47 34 -47q52 0 164 160zM186 558q-22 0 -35 15t-13 36q0 27 15.5 47t37.5 20t35 -15t13 -36q0 -27 -15.5 -47t-37.5 -20zM365 558q-22 0 -35 15t-13 36q0 27 15.5 47t37.5 20t35 -15t13 -36q0 -27 -15.5 -47
t-37.5 -20z" />
    <glyph glyph-name="aring.salt" horiz-adv-x="440" 
d="M305 11l-82 -23l36 135h-4q-66 -89 -102 -113.5t-66 -24.5q-17 0 -36.5 9.5t-32.5 33t-13 53.5q0 37 15.5 76.5t49.5 73.5t81 57t94 23q32 0 60 -12q15 53 3 82t-53 29q-29 0 -71 -16.5t-86 -46.5l-19 46q65 42 112 61t90 19q45 0 71 -22t34 -62.5t-6 -94.5zM285 222
q-30 39 -75 39q-22 0 -49.5 -18t-50.5 -59.5t-23 -74.5q0 -47 34 -47q52 0 164 160zM288 532q-24 0 -50 11t-43.5 39t-17.5 62q0 21 10 47.5t37 45.5t64 19q24 0 50 -11t43.5 -39t17.5 -62q0 -21 -10 -47.5t-37 -45.5t-64 -19zM288 571q30 0 49 22.5t19 50.5t-19 50.5
t-49 22.5t-49.5 -22.5t-19.5 -50.5t19.5 -50.5t49.5 -22.5z" />
    <glyph glyph-name="aringacute.salt" horiz-adv-x="440" 
d="M305 11l-82 -23l36 135h-4q-66 -89 -102 -113.5t-66 -24.5q-17 0 -36.5 9.5t-32.5 33t-13 53.5q0 37 15.5 76.5t49.5 73.5t81 57t94 23q32 0 60 -12q15 53 3 82t-53 29q-29 0 -71 -16.5t-86 -46.5l-19 46q65 42 112 61t90 19q45 0 71 -22t34 -62.5t-6 -94.5zM285 222
q-30 39 -75 39q-22 0 -49.5 -18t-50.5 -59.5t-23 -74.5q0 -47 34 -47q52 0 164 160zM288 532q-24 0 -50 11t-43.5 39t-17.5 62q0 21 10 47.5t37 45.5t64 19q24 0 50 -11t43.5 -39t17.5 -62q0 -21 -10 -47.5t-37 -45.5t-64 -19zM288 571q30 0 49 22.5t19 50.5t-19 50.5
t-49 22.5t-49.5 -22.5t-19.5 -50.5t19.5 -50.5t49.5 -22.5zM490 967l-186 -177h-40l123 177h103z" />
    <glyph glyph-name="amacron.salt" horiz-adv-x="440" 
d="M305 11l-82 -23l36 135h-4q-66 -89 -102 -113.5t-66 -24.5q-17 0 -36.5 9.5t-32.5 33t-13 53.5q0 37 15.5 76.5t49.5 73.5t81 57t94 23q32 0 60 -12q15 53 3 82t-53 29q-29 0 -71 -16.5t-86 -46.5l-19 46q65 42 112 61t90 19q45 0 71 -22t34 -62.5t-6 -94.5zM285 222
q-30 39 -75 39q-22 0 -49.5 -18t-50.5 -59.5t-23 -74.5q0 -47 34 -47q52 0 164 160zM393 593h-252l9 46h252z" />
    <glyph glyph-name="abreve.salt" horiz-adv-x="440" 
d="M305 11l-82 -23l36 135h-4q-66 -89 -102 -113.5t-66 -24.5q-17 0 -36.5 9.5t-32.5 33t-13 53.5q0 37 15.5 76.5t49.5 73.5t81 57t94 23q32 0 60 -12q15 53 3 82t-53 29q-29 0 -71 -16.5t-86 -46.5l-19 46q65 42 112 61t90 19q45 0 71 -22t34 -62.5t-6 -94.5zM285 222
q-30 39 -75 39q-22 0 -49.5 -18t-50.5 -59.5t-23 -74.5q0 -47 34 -47q52 0 164 160zM390 703h40q-21 -82 -66 -121.5t-105 -39.5q-45 0 -72 20t-37.5 55t-3.5 86h38q0 -54 19.5 -78t64.5 -24t73 24t49 78z" />
    <glyph glyph-name="aogonek.salt" horiz-adv-x="440" 
d="M305 -156l14 -27q-23 -28 -55.5 -45.5t-69.5 -17.5q-41 0 -64 20.5t-23 56.5q0 24 11.5 52.5t39.5 56.5t65 51l36 134h-4q-67 -90 -102.5 -115t-65.5 -25q-17 0 -36.5 9.5t-32.5 33t-13 53.5q0 37 15.5 76.5t49.5 73.5t81 57t94 23q32 0 60 -12q15 53 3 82t-53 29
q-29 0 -71 -16.5t-86 -46.5l-19 46q65 42 112 61t90 19q45 0 71 -22t34 -62.5t-6 -94.5l-75 -283q-34 -21 -64.5 -49.5t-45 -57.5t-14.5 -54q0 -45 50 -45q20 0 40.5 12.5t33.5 26.5zM285 222q-30 39 -75 39q-22 0 -49.5 -18t-50.5 -59.5t-23 -74.5q0 -47 34 -47
q52 0 164 160z" />
    <glyph glyph-name="gcircumflex.salt" horiz-adv-x="464" 
d="M177 35l65 -23q69 -24 101.5 -52.5t32.5 -79.5q0 -26 -15 -51t-45.5 -45.5t-78 -32.5t-108.5 -12q-90 0 -146 33.5t-56 93.5q0 34 23 62t52.5 44t52.5 24v8q-18 12 -29.5 30t-11.5 40q0 29 24 53.5t65 37.5v8q-28 21 -41 47t-13 61q0 37 13.5 72t38.5 62t60 42.5t77 15.5
q28 0 57 -15h194l-9 -47l-129 2v-4q15 -21 24 -47.5t9 -48.5q0 -41 -22.5 -84.5t-67 -69t-96.5 -25.5q-28 0 -55 10q-22 -6 -36 -19t-14 -26q0 -15 13 -29.5t71 -34.5zM100 -23q-44 -21 -66.5 -44.5t-22.5 -54.5q0 -41 39 -67t109 -26q27 0 59.5 8t55.5 27t23 41
q0 20 -18.5 40t-80.5 42q-13 5 -48.5 16t-49.5 18zM197 179q40 0 65.5 24t34 59t8.5 65q0 17 -9 40t-30.5 42t-44.5 19q-21 0 -38 -15q-12 -10 -24.5 -31.5t-20 -52t-7.5 -57.5q0 -26 10 -49.5t25.5 -33.5t30.5 -10zM457 534h-39l-89 130h-7l-144 -130h-44l161 197h79z" />
    <glyph glyph-name="gbreve.salt" horiz-adv-x="464" 
d="M177 35l65 -23q69 -24 101.5 -52.5t32.5 -79.5q0 -26 -15 -51t-45.5 -45.5t-78 -32.5t-108.5 -12q-90 0 -146 33.5t-56 93.5q0 34 23 62t52.5 44t52.5 24v8q-18 12 -29.5 30t-11.5 40q0 29 24 53.5t65 37.5v8q-28 21 -41 47t-13 61q0 37 13.5 72t38.5 62t60 42.5t77 15.5
q28 0 57 -15h194l-9 -47l-129 2v-4q15 -21 24 -47.5t9 -48.5q0 -41 -22.5 -84.5t-67 -69t-96.5 -25.5q-28 0 -55 10q-22 -6 -36 -19t-14 -26q0 -15 13 -29.5t71 -34.5zM100 -23q-44 -21 -66.5 -44.5t-22.5 -54.5q0 -41 39 -67t109 -26q27 0 59.5 8t55.5 27t23 41
q0 20 -18.5 40t-80.5 42q-13 5 -48.5 16t-49.5 18zM197 179q40 0 65.5 24t34 59t8.5 65q0 17 -9 40t-30.5 42t-44.5 19q-21 0 -38 -15q-12 -10 -24.5 -31.5t-20 -52t-7.5 -57.5q0 -26 10 -49.5t25.5 -33.5t30.5 -10zM425 703h40q-21 -82 -66 -121.5t-105 -39.5q-45 0 -72 20
t-37.5 55t-3.5 86h38q0 -54 19.5 -78t64.5 -24t73 24t49 78z" />
    <glyph glyph-name="gdotaccent.salt" horiz-adv-x="464" 
d="M177 35l65 -23q69 -24 101.5 -52.5t32.5 -79.5q0 -26 -15 -51t-45.5 -45.5t-78 -32.5t-108.5 -12q-90 0 -146 33.5t-56 93.5q0 34 23 62t52.5 44t52.5 24v8q-18 12 -29.5 30t-11.5 40q0 29 24 53.5t65 37.5v8q-28 21 -41 47t-13 61q0 37 13.5 72t38.5 62t60 42.5t77 15.5
q28 0 57 -15h194l-9 -47l-129 2v-4q15 -21 24 -47.5t9 -48.5q0 -41 -22.5 -84.5t-67 -69t-96.5 -25.5q-28 0 -55 10q-22 -6 -36 -19t-14 -26q0 -15 13 -29.5t71 -34.5zM100 -23q-44 -21 -66.5 -44.5t-22.5 -54.5q0 -41 39 -67t109 -26q27 0 59.5 8t55.5 27t23 41
q0 20 -18.5 40t-80.5 42q-13 5 -48.5 16t-49.5 18zM197 179q40 0 65.5 24t34 59t8.5 65q0 17 -9 40t-30.5 42t-44.5 19q-21 0 -38 -15q-12 -10 -24.5 -31.5t-20 -52t-7.5 -57.5q0 -26 10 -49.5t25.5 -33.5t30.5 -10zM291 558q-22 0 -35 15t-13 36q0 27 15.5 47t37.5 20
t35 -15t13 -36q0 -27 -15.5 -47t-37.5 -20z" />
    <glyph glyph-name="gcommaaccent.salt" horiz-adv-x="464" 
d="M381 774l7 -31q-27 -10 -48.5 -26t-30 -35t-8.5 -35q0 -42 59 -63q-5 -24 -24 -39.5t-49 -15.5t-49 21t-19 51q0 46 41.5 96t120.5 77zM177 35l65 -23q69 -24 101.5 -52.5t32.5 -79.5q0 -26 -15 -51t-45.5 -45.5t-78 -32.5t-108.5 -12q-90 0 -146 33.5t-56 93.5
q0 34 23 62t52.5 44t52.5 24v8q-18 12 -29.5 30t-11.5 40q0 29 24 53.5t65 37.5v8q-28 21 -41 47t-13 61q0 37 13.5 72t38.5 62t60 42.5t77 15.5q28 0 57 -15h194l-9 -47l-129 2v-4q15 -21 24 -47.5t9 -48.5q0 -41 -22.5 -84.5t-67 -69t-96.5 -25.5q-28 0 -55 10
q-22 -6 -36 -19t-14 -26q0 -15 13 -29.5t71 -34.5zM100 -23q-44 -21 -66.5 -44.5t-22.5 -54.5q0 -41 39 -67t109 -26q27 0 59.5 8t55.5 27t23 41q0 20 -18.5 40t-80.5 42q-13 5 -48.5 16t-49.5 18zM197 179q40 0 65.5 24t34 59t8.5 65q0 17 -9 40t-30.5 42t-44.5 19
q-21 0 -38 -15q-12 -10 -24.5 -31.5t-20 -52t-7.5 -57.5q0 -26 10 -49.5t25.5 -33.5t30.5 -10z" />
    <glyph glyph-name="Jcircumflex.salt" horiz-adv-x="253" 
d="M-108 -186h-78l29 88q32 -44 67 -44q37 0 64.5 25.5t37.5 76.5l128 665h93l-113 -590q-21 -113 -78 -167t-150 -54zM353 699h-39l-89 130h-7l-144 -130h-44l161 197h79z" />
    <glyph glyph-name="glyph382" horiz-adv-x="230" 
d="M106 205q-22 0 -35 15t-13 36q0 27 15.5 47t37.5 20t35 -15t13 -36q0 -27 -15.5 -47t-37.5 -20z" />
    <glyph glyph-name="A.c2sc" horiz-adv-x="467" 
d="M383 0h-83l-20 148h-185l-81 -148h-50l236 437l4 33l111 26zM275 192l-30 219h-9l-117 -219h156z" />
    <glyph glyph-name="B.c2sc" horiz-adv-x="465" 
d="M157 -2l-145 3l93 481l159 3q79 1 115 -27.5t36 -72.5q0 -52 -35 -87.5t-92 -47.5l-1 -4q48 -9 77 -39t29 -67q0 -47 -27 -78.5t-79.5 -48.5t-129.5 -15zM142 267h66q35 0 64.5 15t41.5 38t12 44q0 33 -24 54t-69 21h-58zM186 226h-52l-35 -173q35 -9 78 -9q56 0 91.5 25
t35.5 73q0 39 -33 61.5t-85 22.5z" />
    <glyph glyph-name="C.c2sc" horiz-adv-x="482" 
d="M368 74l19 -41q-60 -48 -142 -48q-39 0 -79.5 11t-72.5 37.5t-52.5 69t-20.5 99.5q0 58 21 112.5t59 95.5t89.5 64.5t108.5 23.5q103 0 172 -63l-44 -58q-24 37 -54.5 56.5t-71.5 19.5q-33 0 -66.5 -14t-61 -47t-45.5 -82.5t-18 -110.5q0 -75 39 -121.5t114 -46.5
q53 0 106 43z" />
    <glyph glyph-name="d.aalt" horiz-adv-x="519" 
d="M188 -3l-176 4l92 481l134 4q40 1 80 -9t72.5 -36t53 -68t20.5 -98t-20.5 -107.5t-57.5 -90.5t-88.5 -60t-109.5 -20zM228 439h-54l-74 -387q40 -8 86 -8q33 0 66.5 12t60.5 40.5t44.5 74t17.5 105.5q0 76 -36 119.5t-111 43.5z" />
    <glyph glyph-name="e.aalt" horiz-adv-x="427" 
d="M319 0h-307l93 483h307l-12 -62q-60 17 -160 17h-65l-34 -172h156l-8 -44h-156l-35 -177h65q102 0 168 17z" />
    <glyph glyph-name="f.aalt" horiz-adv-x="417" 
d="M89 0h-77l93 483h307l-12 -62q-60 17 -160 17h-65l-34 -172h156l-8 -44h-156z" />
    <glyph glyph-name="G.c2sc" horiz-adv-x="495" 
d="M311 37l36 186h77l-37 -190q-60 -48 -142 -48q-39 0 -79.5 11t-72.5 37.5t-52.5 69t-20.5 99.5q0 58 21 112.5t59 95.5t89.5 64.5t108.5 23.5q103 0 172 -63l-44 -58q-24 37 -54.5 56.5t-71.5 19.5q-33 0 -66.5 -14t-61 -47t-45.5 -82.5t-18 -110.5q0 -75 39.5 -122
t114.5 -47q30 0 48 7z" />
    <glyph glyph-name="h.aalt" horiz-adv-x="516" 
d="M383 0h-78l44 223h-215l-44 -223h-78l93 483h78l-41 -215h215l41 215h78z" />
    <glyph glyph-name="i.aalt" horiz-adv-x="223" 
d="M90 0h-78l93 483h78z" />
    <glyph glyph-name="j.aalt" horiz-adv-x="367" 
d="M177 114l72 369h78l-64 -332q-11 -54 -28 -89t-47.5 -56t-82.5 -21q-90 0 -135 69l53 53q14 -46 34 -61.5t43 -15.5q28 0 48.5 21t28.5 63z" />
    <glyph glyph-name="j.aalt.salt" horiz-adv-x="223" 
d="M-92 -185h-71l22 73q28 -28 59 -28q66 0 87 103l100 520h78l-93 -482q-36 -186 -182 -186z" />
    <glyph glyph-name="k.aalt" horiz-adv-x="461" 
d="M376 0h-85l-110 234l-55 -48l-36 -186h-78l93 483h78l-44 -227l259 227h68l-225 -196z" />
    <glyph glyph-name="l.aalt" horiz-adv-x="402" 
d="M315 0h-303l93 483h78l-84 -438h60q102 0 168 17z" />
    <glyph glyph-name="m.aalt" horiz-adv-x="631" 
d="M503 0h-77l66 423h-5l-212 -407h-61l-54 407h-6l-99 -423h-51l114 483h114l46 -353h7l179 353h115z" />
    <glyph glyph-name="n.aalt" horiz-adv-x="523" 
d="M390 3l-86 -8l-160 401h-6l-77 -396h-49l93 480l86 7l160 -400h7l76 396h49z" />
    <glyph glyph-name="O.c2sc" horiz-adv-x="556" 
d="M230 -15q-94 0 -152 58t-58 154q0 60 22 115.5t60 97t87.5 65t102.5 23.5q91 0 150 -59t59 -154q0 -60 -22 -115t-60.5 -96.5t-87.5 -65t-101 -23.5zM235 30q31 0 63 15.5t58 50.5t43 86.5t17 109.5q0 73 -34.5 117t-93.5 44q-32 0 -64 -16t-57.5 -51.5t-41.5 -86.5
t-16 -109q0 -70 32.5 -115t93.5 -45z" />
    <glyph glyph-name="p.aalt" horiz-adv-x="447" 
d="M90 0h-78l93 482l141 3q78 1 123.5 -36.5t45.5 -98.5q0 -49 -29.5 -91t-82.5 -63t-107 -21q-39 0 -71 5zM230 439h-55l-42 -214q28 -7 61 -7q58 0 95 34.5t37 91.5q0 42 -26 68.5t-70 26.5z" />
    <glyph glyph-name="q.aalt" horiz-adv-x="556" 
d="M435 -158l-314 168q-47 25 -74 74.5t-27 112.5q0 60 22 115.5t60 97t87.5 65t102.5 23.5q91 0 150 -59t59 -154q0 -56 -19.5 -108t-53.5 -92.5t-78.5 -66t-91.5 -31.5l199 -101zM235 30q31 0 63 15.5t58 50.5t43 86.5t17 109.5q0 73 -34.5 117t-93.5 44q-32 0 -64 -16
t-57.5 -51.5t-41.5 -86.5t-16 -109q0 -70 32.5 -115t93.5 -45z" />
    <glyph glyph-name="r.aalt" horiz-adv-x="457" 
d="M378 0h-86l-87 195l-77 4l-38 -199h-78l93 482l150 3q73 1 115.5 -34t42.5 -92q0 -26 -12.5 -57.5t-44 -57.5t-72.5 -38zM243 439h-69l-36 -191q30 -5 56 -5q57 0 94.5 30.5t37.5 80.5q0 38 -21.5 61.5t-61.5 23.5z" />
    <glyph glyph-name="s.aalt" horiz-adv-x="409" 
d="M-11 28l32 65q32 -36 66.5 -50.5t64.5 -14.5q47 0 76 25t29 59q0 28 -22.5 51.5t-70.5 47.5q-59 30 -87.5 66t-28.5 82q0 62 47.5 100.5t124.5 38.5q75 0 147 -35l-33 -65q-21 25 -53 41t-63 16q-44 0 -70 -22.5t-26 -53.5q0 -30 20.5 -52.5t77.5 -52.5q60 -31 86 -66
t26 -79q0 -22 -8 -46.5t-29 -46t-59 -36.5t-96 -15q-33 0 -68.5 8t-82.5 35z" />
    <glyph glyph-name="t.aalt" horiz-adv-x="469" 
d="M213 0h-78l84 438h-7q-100 0 -166 -17l12 62h416l-12 -62q-60 17 -158 17h-7z" />
    <glyph glyph-name="u.aalt" horiz-adv-x="496" 
d="M352 165l61 318h48l-63 -331q-16 -84 -68.5 -125.5t-133.5 -41.5q-90 0 -130.5 54t-22.5 147l57 297h78l-57 -296q-16 -80 11.5 -114.5t90.5 -34.5q52 0 84 29.5t45 97.5z" />
    <glyph glyph-name="v.aalt" horiz-adv-x="467" 
d="M210 -4h-83l-72 487h77l61 -410h6l217 410h56z" />
    <glyph glyph-name="w.aalt" horiz-adv-x="727" 
d="M467 -4h-73l-36 297h-7l-151 -297h-70l-70 487h75l56 -392h8l148 292l-13 100h76l47 -392h8l206 392h56z" />
    <glyph glyph-name="x.aalt" horiz-adv-x="468" 
d="M383 0h-86l-95 198l-185 -198h-63l223 234l-120 249h86l92 -194l182 194h63l-219 -229z" />
    <glyph glyph-name="y.aalt" horiz-adv-x="438" 
d="M196 0h-78l37 192l-105 291h80l83 -238h5l171 238h59l-215 -291z" />
    <glyph glyph-name="z.aalt" horiz-adv-x="470" 
d="M358 0h-368l9 48l344 391h-103q-100 0 -168 -17l12 61h364l-9 -47l-345 -392h108q100 0 168 17z" />
    <glyph glyph-name="uniFB01.aalt" horiz-adv-x="640" 
d="M89 0h-77l93 483h307l-12 -62q-60 17 -160 17h-65l-34 -172h156l-8 -44h-156zM507 0h-78l93 483h78z" />
    <glyph glyph-name="uniFB02.aalt" horiz-adv-x="820" 
d="M89 0h-77l93 483h307l-12 -62q-60 17 -160 17h-65l-34 -172h156l-8 -44h-156zM733 0h-303l93 483h78l-84 -438h60q102 0 168 17z" />
    <glyph glyph-name="uniFB00.aalt" horiz-adv-x="834" 
d="M89 0h-77l93 483h307l-12 -62q-60 17 -160 17h-65l-34 -172h156l-8 -44h-156zM506 0h-77l93 483h307l-12 -62q-60 17 -160 17h-65l-34 -172h156l-8 -44h-156z" />
    <glyph glyph-name="uniFB03.aalt" horiz-adv-x="1056" 
d="M89 0h-77l93 483h307l-12 -62q-60 17 -160 17h-65l-34 -172h156l-8 -44h-156zM496 0h-77l93 483h317l-12 -62q-60 17 -160 17h-75l-34 -172h166l-8 -44h-166zM923 0h-78l93 483h78z" />
    <glyph glyph-name="uniFB04.aalt" horiz-adv-x="1235" 
d="M89 0h-77l93 483h307l-12 -62q-60 17 -160 17h-65l-34 -172h156l-8 -44h-156zM506 0h-77l93 483h307l-12 -62q-60 17 -160 17h-65l-34 -172h156l-8 -44h-156zM1148 0h-303l93 483h78l-84 -438h60q102 0 168 17z" />
    <glyph glyph-name="germandbls.aalt" horiz-adv-x="818" 
d="M-11 28l32 65q32 -36 66.5 -50.5t64.5 -14.5q47 0 76 25t29 59q0 28 -22.5 51.5t-70.5 47.5q-59 30 -87.5 66t-28.5 82q0 62 47.5 100.5t124.5 38.5q75 0 147 -35l-33 -65q-21 25 -53 41t-63 16q-44 0 -70 -22.5t-26 -53.5q0 -30 20.5 -52.5t77.5 -52.5q60 -31 86 -66
t26 -79q0 -22 -8 -46.5t-29 -46t-59 -36.5t-96 -15q-33 0 -68.5 8t-82.5 35zM398 28l32 65q32 -36 66.5 -50.5t64.5 -14.5q47 0 76 25t29 59q0 28 -22.5 51.5t-70.5 47.5q-59 30 -87.5 66t-28.5 82q0 62 47.5 100.5t124.5 38.5q75 0 147 -35l-33 -65q-21 25 -53 41t-63 16
q-44 0 -70 -22.5t-26 -53.5q0 -30 20.5 -52.5t77.5 -52.5q60 -31 86 -66t26 -79q0 -22 -8 -46.5t-29 -46t-59 -36.5t-96 -15q-33 0 -68.5 8t-82.5 35z" />
    <glyph glyph-name="Agrave.aalt" horiz-adv-x="467" 
d="M383 0h-83l-20 148h-185l-81 -148h-50l236 437l4 33l111 26zM275 192l-30 219h-9l-117 -219h156zM290 554h-32l-118 177h97z" />
    <glyph glyph-name="Aacute.aalt" horiz-adv-x="467" 
d="M383 0h-83l-20 148h-185l-81 -148h-50l236 437l4 33l111 26zM275 192l-30 219h-9l-117 -219h156zM476 731l-186 -177h-40l123 177h103z" />
    <glyph glyph-name="Acircumflex.aalt" horiz-adv-x="467" 
d="M383 0h-83l-20 148h-185l-81 -148h-50l236 437l4 33l111 26zM275 192l-30 219h-9l-117 -219h156zM439 554h-39l-89 130h-7l-144 -130h-44l161 197h79z" />
    <glyph glyph-name="Atilde.aalt" horiz-adv-x="467" 
d="M383 0h-83l-20 148h-185l-81 -148h-50l236 437l4 33l111 26zM275 192l-30 219h-9l-117 -219h156zM421 704h39q-14 -47 -32 -76.5t-41 -40.5t-46 -11q-35 0 -64 31.5t-38 37.5t-20 6q-15 0 -29.5 -10.5t-32.5 -55.5h-39q14 47 31.5 76t39.5 40.5t47 11.5q35 0 64 -31.5
t38.5 -37.5t20.5 -6q15 0 29.5 10.5t32.5 55.5z" />
    <glyph glyph-name="Adieresis.aalt" horiz-adv-x="467" 
d="M383 0h-83l-20 148h-185l-81 -148h-50l236 437l4 33l111 26zM275 192l-30 219h-9l-117 -219h156zM197 578q-22 0 -35 15t-13 36q0 27 15.5 47t37.5 20t35 -15t13 -36q0 -27 -15.5 -47t-37.5 -20zM376 578q-22 0 -35 15t-13 36q0 27 15.5 47t37.5 20t35 -15t13 -36
q0 -27 -15.5 -47t-37.5 -20z" />
    <glyph glyph-name="Aring.aalt" horiz-adv-x="467" 
d="M383 0h-83l-20 148h-185l-81 -148h-50l242 448q-21 15 -33 40t-12 53q0 21 10 47.5t37 45.5t64 19q24 0 50 -11t43.5 -39t17.5 -62q0 -33 -16 -60.5t-44 -40.5zM272 468q30 0 49 22.5t19 50.5t-19 50.5t-49 22.5t-49.5 -22.5t-19.5 -50.5t19.5 -50.5t49.5 -22.5zM275 192
l-30 219h-9l-117 -219h156z" />
    <glyph glyph-name="Aringacute.aalt" horiz-adv-x="467" 
d="M383 0h-83l-20 148h-185l-81 -148h-50l242 448q-21 15 -33 40t-12 53q0 21 10 47.5t37 45.5t64 19q24 0 50 -11t43.5 -39t17.5 -62q0 -33 -16 -60.5t-44 -40.5zM272 468q30 0 49 22.5t19 50.5t-19 50.5t-49 22.5t-49.5 -22.5t-19.5 -50.5t19.5 -50.5t49.5 -22.5zM275 192
l-30 219h-9l-117 -219h156zM484 869l-186 -177h-40l123 177h103z" />
    <glyph glyph-name="Amacron.aalt" horiz-adv-x="467" 
d="M383 0h-83l-20 148h-185l-81 -148h-50l236 437l4 33l111 26zM275 192l-30 219h-9l-117 -219h156zM411 613h-252l9 46h252z" />
    <glyph glyph-name="Abreve.aalt" horiz-adv-x="467" 
d="M383 0h-83l-20 148h-185l-81 -148h-50l236 437l4 33l111 26zM275 192l-30 219h-9l-117 -219h156zM418 723h40q-21 -82 -66 -121.5t-105 -39.5q-45 0 -72 20t-37.5 55t-3.5 86h38q0 -54 19.5 -78t64.5 -24t73 24t49 78z" />
    <glyph glyph-name="Aogonek.aalt" horiz-adv-x="467" 
d="M401 -156l14 -27q-23 -28 -55.5 -45.5t-69.5 -17.5q-41 0 -64 20.5t-23 56.5q0 51 37.5 93.5t95.5 75.5h-36l-20 148h-185l-81 -148h-50l236 437l4 33l111 26l68 -496q-106 -76 -106 -150q0 -45 50 -45q20 0 40.5 12.5t33.5 26.5zM275 192l-30 219h-9l-117 -219h156z" />
    <glyph glyph-name="AE.aalt" horiz-adv-x="670" 
d="M562 0h-307l28 146h-168l-109 -146h-61l365 483h345l-12 -62q-60 17 -160 17h-65l-34 -172h156l-8 -44h-156l-35 -177h65q102 0 168 17zM291 188l48 250h-6l-186 -250h144z" />
    <glyph glyph-name="AEacute.aalt" horiz-adv-x="670" 
d="M562 0h-307l28 146h-168l-109 -146h-61l365 483h345l-12 -62q-60 17 -160 17h-65l-34 -172h156l-8 -44h-156l-35 -177h65q102 0 168 17zM291 188l48 250h-6l-186 -250h144zM656 731l-186 -177h-40l123 177h103z" />
    <glyph glyph-name="Ccedilla.aalt" horiz-adv-x="482" 
d="M68 -275l7 36q74 0 118.5 18.5t44.5 55.5q0 19 -21 30.5t-59 11.5q-39 0 -68 -5l5 25l105 92q-54 8 -93 34.5t-63 71.5t-24 107q0 58 21 112.5t59 95.5t89.5 64.5t108.5 23.5q103 0 172 -63l-44 -58q-24 37 -54.5 57t-71.5 20q-44 0 -80 -21t-60.5 -57.5t-37.5 -82.5
t-13 -94q0 -75 39.5 -122t114.5 -47q53 0 106 43l18 -40q-60 -48 -142 -48l-60 -52q62 0 96.5 -21.5t34.5 -58.5q0 -44 -34.5 -72.5t-92 -42t-121.5 -13.5z" />
    <glyph glyph-name="Cacute.aalt" horiz-adv-x="482" 
d="M368 74l19 -41q-60 -48 -142 -48q-39 0 -79.5 11t-72.5 37.5t-52.5 69t-20.5 99.5q0 58 21 112.5t59 95.5t89.5 64.5t108.5 23.5q103 0 172 -63l-44 -58q-24 37 -54.5 56.5t-71.5 19.5q-33 0 -66.5 -14t-61 -47t-45.5 -82.5t-18 -110.5q0 -75 39 -121.5t114 -46.5
q53 0 106 43zM503 731l-186 -177h-40l123 177h103z" />
    <glyph glyph-name="Ccircumflex.aalt" horiz-adv-x="482" 
d="M368 74l19 -41q-60 -48 -142 -48q-39 0 -79.5 11t-72.5 37.5t-52.5 69t-20.5 99.5q0 58 21 112.5t59 95.5t89.5 64.5t108.5 23.5q103 0 172 -63l-44 -58q-24 37 -54.5 56.5t-71.5 19.5q-33 0 -66.5 -14t-61 -47t-45.5 -82.5t-18 -110.5q0 -75 39 -121.5t114 -46.5
q53 0 106 43zM475 554h-39l-89 130h-7l-144 -130h-44l161 197h79z" />
    <glyph glyph-name="Cdotaccent.aalt" horiz-adv-x="482" 
d="M368 74l19 -41q-60 -48 -142 -48q-39 0 -79.5 11t-72.5 37.5t-52.5 69t-20.5 99.5q0 58 21 112.5t59 95.5t89.5 64.5t108.5 23.5q103 0 172 -63l-44 -58q-24 37 -54.5 56.5t-71.5 19.5q-33 0 -66.5 -14t-61 -47t-45.5 -82.5t-18 -110.5q0 -75 39 -121.5t114 -46.5
q53 0 106 43zM344 578q-22 0 -35 15t-13 36q0 27 15.5 47t37.5 20t35 -15t13 -36q0 -27 -15.5 -47t-37.5 -20z" />
    <glyph glyph-name="Ccaron.aalt" horiz-adv-x="482" 
d="M368 74l19 -41q-60 -48 -142 -48q-39 0 -79.5 11t-72.5 37.5t-52.5 69t-20.5 99.5q0 58 21 112.5t59 95.5t89.5 64.5t108.5 23.5q103 0 172 -63l-44 -58q-24 37 -54.5 56.5t-71.5 19.5q-33 0 -66.5 -14t-61 -47t-45.5 -82.5t-18 -110.5q0 -75 39 -121.5t114 -46.5
q53 0 106 43zM356 554h-79l-83 197h39l89 -130h7l144 130h44z" />
    <glyph glyph-name="Dcaron.aalt" horiz-adv-x="519" 
d="M188 -3l-176 4l92 481l134 4q40 1 80 -9t72.5 -36t53 -68t20.5 -98t-20.5 -107.5t-57.5 -90.5t-88.5 -60t-109.5 -20zM228 439h-54l-74 -387q40 -8 86 -8q33 0 66.5 12t60.5 40.5t44.5 74t17.5 105.5q0 76 -36 119.5t-111 43.5zM296 554h-79l-83 197h39l89 -130h7
l144 130h44z" />
    <glyph glyph-name="Eth.aalt" horiz-adv-x="556" 
d="M225 -3l-176 4l42 220h-66l9 43h65l42 218l134 4q40 1 80 -9t72.5 -36t53 -68t20.5 -98t-20.5 -107.5t-57.5 -90.5t-88.5 -60t-109.5 -20zM135 44h88q33 0 66.5 12t60.5 40.5t44.5 74t17.5 105.5q0 76 -36 119.5t-111 43.5h-54l-34 -175h115l-8 -43h-115z" />
    <glyph glyph-name="Dcroat.aalt" horiz-adv-x="556" 
d="M225 -3l-176 4l42 220h-66l9 43h65l42 218l134 4q40 1 80 -9t72.5 -36t53 -68t20.5 -98t-20.5 -107.5t-57.5 -90.5t-88.5 -60t-109.5 -20zM135 44h88q33 0 66.5 12t60.5 40.5t44.5 74t17.5 105.5q0 76 -36 119.5t-111 43.5h-54l-34 -175h115l-8 -43h-115z" />
    <glyph glyph-name="Egrave.aalt" horiz-adv-x="427" 
d="M319 0h-307l93 483h307l-12 -62q-60 17 -160 17h-65l-34 -172h156l-8 -44h-156l-35 -177h65q102 0 168 17zM298 554h-32l-118 177h97z" />
    <glyph glyph-name="Eacute.aalt" horiz-adv-x="427" 
d="M319 0h-307l93 483h307l-12 -62q-60 17 -160 17h-65l-34 -172h156l-8 -44h-156l-35 -177h65q102 0 168 17zM456 731l-186 -177h-40l123 177h103z" />
    <glyph glyph-name="Ecircumflex.aalt" horiz-adv-x="427" 
d="M319 0h-307l93 483h307l-12 -62q-60 17 -160 17h-65l-34 -172h156l-8 -44h-156l-35 -177h65q102 0 168 17zM432 554h-39l-89 130h-7l-144 -130h-44l161 197h79z" />
    <glyph glyph-name="Edieresis.aalt" horiz-adv-x="427" 
d="M319 0h-307l93 483h307l-12 -62q-60 17 -160 17h-65l-34 -172h156l-8 -44h-156l-35 -177h65q102 0 168 17zM186 578q-22 0 -35 15t-13 36q0 27 15.5 47t37.5 20t35 -15t13 -36q0 -27 -15.5 -47t-37.5 -20zM365 578q-22 0 -35 15t-13 36q0 27 15.5 47t37.5 20t35 -15
t13 -36q0 -27 -15.5 -47t-37.5 -20z" />
    <glyph glyph-name="Emacron.aalt" horiz-adv-x="427" 
d="M319 0h-307l93 483h307l-12 -62q-60 17 -160 17h-65l-34 -172h156l-8 -44h-156l-35 -177h65q102 0 168 17zM401 613h-252l9 46h252z" />
    <glyph glyph-name="Ebreve.aalt" horiz-adv-x="427" 
d="M319 0h-307l93 483h307l-12 -62q-60 17 -160 17h-65l-34 -172h156l-8 -44h-156l-35 -177h65q102 0 168 17zM399 723h40q-21 -82 -66 -121.5t-105 -39.5q-45 0 -72 20t-37.5 55t-3.5 86h38q0 -54 19.5 -78t64.5 -24t73 24t49 78z" />
    <glyph glyph-name="Edotaccent.aalt" horiz-adv-x="427" 
d="M319 0h-307l93 483h307l-12 -62q-60 17 -160 17h-65l-34 -172h156l-8 -44h-156l-35 -177h65q102 0 168 17zM274 578q-22 0 -35 15t-13 36q0 27 15.5 47t37.5 20t35 -15t13 -36q0 -27 -15.5 -47t-37.5 -20z" />
    <glyph glyph-name="Eogonek.aalt" horiz-adv-x="427" 
d="M283 -156l14 -27q-23 -28 -55.5 -45.5t-69.5 -17.5q-41 0 -64 20.5t-23 56.5q0 51 37.5 93.5t95.5 75.5h-206l93 483h307l-12 -62q-60 17 -160 17h-65l-34 -173h156l-8 -44h-156l-35 -176h65q102 0 168 17l-12 -62h-54q-31 -22 -57.5 -49t-37.5 -53.5t-11 -47.5
q0 -45 50 -45q20 0 40.5 12.5t33.5 26.5z" />
    <glyph glyph-name="Ecaron.aalt" horiz-adv-x="427" 
d="M319 0h-307l93 483h307l-12 -62q-60 17 -160 17h-65l-34 -172h156l-8 -44h-156l-35 -177h65q102 0 168 17zM307 554h-79l-83 197h39l89 -130h7l144 130h44z" />
    <glyph glyph-name="Gcircumflex.aalt" horiz-adv-x="495" 
d="M311 37l36 186h77l-37 -190q-60 -48 -142 -48q-39 0 -79.5 11t-72.5 37.5t-52.5 69t-20.5 99.5q0 58 21 112.5t59 95.5t89.5 64.5t108.5 23.5q103 0 172 -63l-44 -58q-24 37 -54.5 56.5t-71.5 19.5q-33 0 -66.5 -14t-61 -47t-45.5 -82.5t-18 -110.5q0 -75 39.5 -122
t114.5 -47q30 0 48 7zM503 731l-186 -177h-40l123 177h103z" />
    <glyph glyph-name="Gbreve.aalt" horiz-adv-x="495" 
d="M311 37l36 186h77l-37 -190q-60 -48 -142 -48q-39 0 -79.5 11t-72.5 37.5t-52.5 69t-20.5 99.5q0 58 21 112.5t59 95.5t89.5 64.5t108.5 23.5q103 0 172 -63l-44 -58q-24 37 -54.5 56.5t-71.5 19.5q-33 0 -66.5 -14t-61 -47t-45.5 -82.5t-18 -110.5q0 -75 39.5 -122
t114.5 -47q30 0 48 7zM458 723h40q-21 -82 -66 -121.5t-105 -39.5q-45 0 -72 20t-37.5 55t-3.5 86h38q0 -54 19.5 -78t64.5 -24t73 24t49 78z" />
    <glyph glyph-name="Gdotaccent.aalt" horiz-adv-x="495" 
d="M311 37l36 186h77l-37 -190q-60 -48 -142 -48q-39 0 -79.5 11t-72.5 37.5t-52.5 69t-20.5 99.5q0 58 21 112.5t59 95.5t89.5 64.5t108.5 23.5q103 0 172 -63l-44 -58q-24 37 -54.5 56.5t-71.5 19.5q-33 0 -66.5 -14t-61 -47t-45.5 -82.5t-18 -110.5q0 -75 39.5 -122
t114.5 -47q30 0 48 7zM344 578q-22 0 -35 15t-13 36q0 27 15.5 47t37.5 20t35 -15t13 -36q0 -27 -15.5 -47t-37.5 -20z" />
    <glyph glyph-name="Gcommaaccent.aalt" horiz-adv-x="495" 
d="M311 37l36 186h77l-37 -190q-60 -48 -142 -48q-39 0 -79.5 11t-72.5 37.5t-52.5 69t-20.5 99.5q0 58 21 112.5t59 95.5t89.5 64.5t108.5 23.5q103 0 172 -63l-44 -58q-24 37 -54.5 56.5t-71.5 19.5q-33 0 -66.5 -14t-61 -47t-45.5 -82.5t-18 -110.5q0 -75 39.5 -122
t114.5 -47q30 0 48 7zM117 -295l-7 31q27 10 48.5 26t30 35t8.5 35q0 42 -59 63q5 24 24 39.5t49 15.5t49 -21t19 -51q0 -46 -41.5 -96t-120.5 -77z" />
    <glyph glyph-name="Hcircumflex.aalt" horiz-adv-x="516" 
d="M383 0h-78l44 223h-215l-44 -223h-78l93 483h78l-41 -215h215l41 215h78zM461 554h-39l-89 130h-7l-144 -130h-44l161 197h79z" />
    <glyph glyph-name="Hbar.aalt" horiz-adv-x="536" 
d="M393 0h-78l40 200h-215l-40 -200h-78l64 332h-79l8 43h80l20 108h78l-20 -108h215l20 108h78l-21 -108h80l-8 -43h-80zM363 244l17 88h-215l-17 -88h215z" />
    <glyph glyph-name="Igrave.aalt" horiz-adv-x="223" 
d="M90 0h-78l93 483h78zM174 554h-32l-118 177h97z" />
    <glyph glyph-name="Iacute.aalt" horiz-adv-x="223" 
d="M90 0h-78l93 483h78zM358 731l-186 -177h-40l123 177h103z" />
    <glyph glyph-name="Icircumflex.aalt" horiz-adv-x="223" 
d="M90 0h-78l93 483h78zM313 554h-39l-89 130h-7l-144 -130h-44l161 197h79z" />
    <glyph glyph-name="Idieresis.aalt" horiz-adv-x="223" 
d="M90 0h-78l93 483h78zM73 578q-22 0 -35 15t-13 36q0 27 15.5 47t37.5 20t35 -15t13 -36q0 -27 -15.5 -47t-37.5 -20zM252 578q-22 0 -35 15t-13 36q0 27 15.5 47t37.5 20t35 -15t13 -36q0 -27 -15.5 -47t-37.5 -20z" />
    <glyph glyph-name="Imacron.aalt" horiz-adv-x="223" 
d="M90 0h-78l93 483h78zM288 613h-252l9 46h252z" />
    <glyph glyph-name="Ibreve.aalt" horiz-adv-x="223" 
d="M90 0h-78l93 483h78zM289 723h40q-21 -82 -66 -121.5t-105 -39.5q-45 0 -72 20t-37.5 55t-3.5 86h38q0 -54 19.5 -78t64.5 -24t73 24t49 78z" />
    <glyph glyph-name="Iogonek.aalt" horiz-adv-x="223" 
d="M108 -156l14 -27q-23 -28 -55.5 -45.5t-69.5 -17.5q-41 0 -64 20.5t-23 56.5q0 51 37.5 93.5t95.5 75.5h-31l93 483h78l-93 -483q-33 -23 -59 -51t-36.5 -54t-10.5 -45q0 -45 50 -45q20 0 40.5 12.5t33.5 26.5z" />
    <glyph glyph-name="Idotaccent.aalt" horiz-adv-x="223" 
d="M90 0h-78l93 483h78zM168 578q-22 0 -35 15t-13 36q0 27 15.5 47t37.5 20t35 -15t13 -36q0 -27 -15.5 -47t-37.5 -20z" />
    <glyph glyph-name="dotlessi.aalt" horiz-adv-x="223" 
d="M90 0h-78l93 483h78z" />
    <glyph glyph-name="jcircumflex.aalt" horiz-adv-x="367" 
d="M177 114l72 369h78l-64 -332q-11 -54 -28 -89t-47.5 -56t-82.5 -21q-90 0 -135 69l53 53q14 -46 34 -61.5t43 -15.5q28 0 48.5 21t28.5 63zM455 554h-39l-89 130h-7l-144 -130h-44l161 197h79z" />
    <glyph glyph-name="jcircumflex.aalt.aalt" horiz-adv-x="223" 
d="M-92 -185h-71l22 73q28 -28 59 -28q66 0 87 103l100 520h78l-93 -482q-36 -186 -182 -186zM313 554h-39l-89 130h-7l-144 -130h-44l161 197h79z" />
    <glyph glyph-name="uni0237.aalt" horiz-adv-x="367" 
d="M177 114l72 369h78l-64 -332q-11 -54 -28 -89t-47.5 -56t-82.5 -21q-90 0 -135 69l53 53q14 -46 34 -61.5t43 -15.5q28 0 48.5 21t28.5 63z" />
    <glyph glyph-name="Kcommaaccent.aalt" horiz-adv-x="461" 
d="M376 0h-85l-110 234l-55 -48l-36 -186h-78l93 483h78l-44 -227l259 227h68l-225 -196zM80 -295l-7 31q27 10 48.5 26t30 35t8.5 35q0 42 -59 63q5 24 24 39.5t49 15.5t49 -21t19 -51q0 -46 -41.5 -96t-120.5 -77z" />
    <glyph glyph-name="Lacute.aalt" horiz-adv-x="402" 
d="M315 0h-303l93 483h78l-84 -438h60q102 0 168 17zM358 731l-186 -177h-40l123 177h103z" />
    <glyph glyph-name="Lcommaaccent.aalt" horiz-adv-x="402" 
d="M315 0h-303l93 483h78l-84 -438h60q102 0 168 17zM59 -295l-7 31q27 10 48.5 26t30 35t8.5 35q0 42 -59 63q5 24 24 39.5t49 15.5t49 -21t19 -51q0 -46 -41.5 -96t-120.5 -77z" />
    <glyph glyph-name="Lcaron.aalt" horiz-adv-x="515" 
d="M315 0h-303l93 483h78l-84 -438h60q102 0 168 17zM330 220l-17 30q61 44 82.5 78.5t21.5 63.5q0 52 -64 74q5 26 25.5 43.5t52.5 17.5t55.5 -24.5t23.5 -60.5q0 -112 -180 -222z" />
    <glyph glyph-name="Ldot.aalt" horiz-adv-x="458" 
d="M315 0h-303l93 483h78l-84 -438h60q102 0 168 17zM370 205q-22 0 -35 15t-13 36q0 27 15.5 47t37.5 20t35 -15t13 -36q0 -27 -15.5 -47t-37.5 -20z" />
    <glyph glyph-name="Lslash.aalt" horiz-adv-x="412" 
d="M325 0h-303l39 202l-85 -22l8 41l85 22l46 240h78l-42 -219l111 29l-8 -42l-111 -28l-34 -178h60q102 0 168 17z" />
    <glyph glyph-name="Ntilde.aalt" horiz-adv-x="523" 
d="M390 3l-86 -8l-160 401h-6l-77 -396h-49l93 480l86 7l160 -400h7l76 396h49zM447 704h39q-14 -47 -32 -76.5t-41 -40.5t-46 -11q-35 0 -64 31.5t-38 37.5t-20 6q-15 0 -29.5 -10.5t-32.5 -55.5h-39q14 47 31.5 76t39.5 40.5t47 11.5q35 0 64 -31.5t38.5 -37.5t20.5 -6
q15 0 29.5 10.5t32.5 55.5z" />
    <glyph glyph-name="Nacute.aalt" horiz-adv-x="523" 
d="M390 3l-86 -8l-160 401h-6l-77 -396h-49l93 480l86 7l160 -400h7l76 396h49zM511 731l-186 -177h-40l123 177h103z" />
    <glyph glyph-name="Ncommaaccent.aalt" horiz-adv-x="523" 
d="M390 3l-86 -8l-160 401h-6l-77 -396h-49l93 480l86 7l160 -400h7l76 396h49zM77 -295l-7 31q27 10 48.5 26t30 35t8.5 35q0 42 -59 63q5 24 24 39.5t49 15.5t49 -21t19 -51q0 -46 -41.5 -96t-120.5 -77z" />
    <glyph glyph-name="Ncaron.aalt" horiz-adv-x="523" 
d="M390 3l-86 -8l-160 401h-6l-77 -396h-49l93 480l86 7l160 -400h7l76 396h49zM359 554h-79l-83 197h39l89 -130h7l144 130h44z" />
    <glyph glyph-name="Ograve.aalt" horiz-adv-x="556" 
d="M230 -15q-94 0 -152 58t-58 154q0 60 22 115.5t60 97t87.5 65t102.5 23.5q91 0 150 -59t59 -154q0 -60 -22 -115t-60.5 -96.5t-87.5 -65t-101 -23.5zM235 30q31 0 63 15.5t58 50.5t43 86.5t17 109.5q0 73 -34.5 117t-93.5 44q-32 0 -64 -16t-57.5 -51.5t-41.5 -86.5
t-16 -109q0 -70 32.5 -115t93.5 -45zM326 554h-32l-118 177h97z" />
    <glyph glyph-name="Oacute.aalt" horiz-adv-x="556" 
d="M230 -15q-94 0 -152 58t-58 154q0 60 22 115.5t60 97t87.5 65t102.5 23.5q91 0 150 -59t59 -154q0 -60 -22 -115t-60.5 -96.5t-87.5 -65t-101 -23.5zM235 30q31 0 63 15.5t58 50.5t43 86.5t17 109.5q0 73 -34.5 117t-93.5 44q-32 0 -64 -16t-57.5 -51.5t-41.5 -86.5
t-16 -109q0 -70 32.5 -115t93.5 -45zM494 731l-186 -177h-40l123 177h103z" />
    <glyph glyph-name="Ocircumflex.aalt" horiz-adv-x="556" 
d="M230 -15q-94 0 -152 58t-58 154q0 60 22 115.5t60 97t87.5 65t102.5 23.5q91 0 150 -59t59 -154q0 -60 -22 -115t-60.5 -96.5t-87.5 -65t-101 -23.5zM235 30q31 0 63 15.5t58 50.5t43 86.5t17 109.5q0 73 -34.5 117t-93.5 44q-32 0 -64 -16t-57.5 -51.5t-41.5 -86.5
t-16 -109q0 -70 32.5 -115t93.5 -45zM478 554h-39l-89 130h-7l-144 -130h-44l161 197h79z" />
    <glyph glyph-name="Otilde.aalt" horiz-adv-x="556" 
d="M230 -15q-94 0 -152 58t-58 154q0 60 22 115.5t60 97t87.5 65t102.5 23.5q91 0 150 -59t59 -154q0 -60 -22 -115t-60.5 -96.5t-87.5 -65t-101 -23.5zM235 30q31 0 63 15.5t58 50.5t43 86.5t17 109.5q0 73 -34.5 117t-93.5 44q-32 0 -64 -16t-57.5 -51.5t-41.5 -86.5
t-16 -109q0 -70 32.5 -115t93.5 -45zM464 704h39q-14 -47 -32 -76.5t-41 -40.5t-46 -11q-35 0 -64 31.5t-38 37.5t-20 6q-15 0 -29.5 -10.5t-32.5 -55.5h-39q14 47 31.5 76t39.5 40.5t47 11.5q35 0 64 -31.5t38.5 -37.5t20.5 -6q15 0 29.5 10.5t32.5 55.5z" />
    <glyph glyph-name="Odieresis.aalt" horiz-adv-x="556" 
d="M230 -15q-94 0 -152 58t-58 154q0 60 22 115.5t60 97t87.5 65t102.5 23.5q91 0 150 -59t59 -154q0 -60 -22 -115t-60.5 -96.5t-87.5 -65t-101 -23.5zM235 30q31 0 63 15.5t58 50.5t43 86.5t17 109.5q0 73 -34.5 117t-93.5 44q-32 0 -64 -16t-57.5 -51.5t-41.5 -86.5
t-16 -109q0 -70 32.5 -115t93.5 -45zM233 578q-22 0 -35 15t-13 36q0 27 15.5 47t37.5 20t35 -15t13 -36q0 -27 -15.5 -47t-37.5 -20zM412 578q-22 0 -35 15t-13 36q0 27 15.5 47t37.5 20t35 -15t13 -36q0 -27 -15.5 -47t-37.5 -20z" />
    <glyph glyph-name="Omacron.aalt" horiz-adv-x="556" 
d="M230 -15q-94 0 -152 58t-58 154q0 60 22 115.5t60 97t87.5 65t102.5 23.5q91 0 150 -59t59 -154q0 -60 -22 -115t-60.5 -96.5t-87.5 -65t-101 -23.5zM235 30q31 0 63 15.5t58 50.5t43 86.5t17 109.5q0 73 -34.5 117t-93.5 44q-32 0 -64 -16t-57.5 -51.5t-41.5 -86.5
t-16 -109q0 -70 32.5 -115t93.5 -45zM449 613h-252l9 46h252z" />
    <glyph glyph-name="Obreve.aalt" horiz-adv-x="556" 
d="M230 -15q-94 0 -152 58t-58 154q0 60 22 115.5t60 97t87.5 65t102.5 23.5q91 0 150 -59t59 -154q0 -60 -22 -115t-60.5 -96.5t-87.5 -65t-101 -23.5zM235 30q31 0 63 15.5t58 50.5t43 86.5t17 109.5q0 73 -34.5 117t-93.5 44q-32 0 -64 -16t-57.5 -51.5t-41.5 -86.5
t-16 -109q0 -70 32.5 -115t93.5 -45zM460 723h40q-21 -82 -66 -121.5t-105 -39.5q-45 0 -72 20t-37.5 55t-3.5 86h38q0 -54 19.5 -78t64.5 -24t73 24t49 78z" />
    <glyph glyph-name="Ohungarumlaut.aalt" horiz-adv-x="556" 
d="M230 -15q-94 0 -152 58t-58 154q0 60 22 115.5t60 97t87.5 65t102.5 23.5q91 0 150 -59t59 -154q0 -60 -22 -115t-60.5 -96.5t-87.5 -65t-101 -23.5zM235 30q31 0 63 15.5t58 50.5t43 86.5t17 109.5q0 73 -34.5 117t-93.5 44q-32 0 -64 -16t-57.5 -51.5t-41.5 -86.5
t-16 -109q0 -70 32.5 -115t93.5 -45zM438 731l-179 -177h-39l116 177h102zM594 731l-179 -177h-39l116 177h102z" />
    <glyph glyph-name="Oslash.aalt" horiz-adv-x="556" 
d="M68 -59h-43l65 90q-33 28 -51.5 71t-18.5 95q0 60 22 115.5t60 97t87.5 65t102.5 23.5q29 0 59 -8t53 -22l52 73h43l-67 -93q32 -28 50.5 -70t18.5 -93q0 -60 -22 -115t-60.5 -96.5t-87.5 -65t-101 -23.5q-64 0 -111 27zM132 89l238 332q-15 14 -37 23t-45 9
q-32 0 -64 -16t-57.5 -51.5t-41.5 -86.5t-16 -109q0 -27 6 -54.5t17 -46.5zM393 392l-239 -332q14 -14 36 -22t45 -8q31 0 63 15.5t58 50.5t43 86.5t17 109.5q0 60 -23 100z" />
    <glyph glyph-name="Oslashacute.aalt" horiz-adv-x="556" 
d="M68 -59h-43l65 90q-33 28 -51.5 71t-18.5 95q0 60 22 115.5t60 97t87.5 65t102.5 23.5q29 0 59 -8t53 -22l52 73h43l-67 -93q32 -28 50.5 -70t18.5 -93q0 -60 -22 -115t-60.5 -96.5t-87.5 -65t-101 -23.5q-64 0 -111 27zM132 89l238 332q-15 14 -37 23t-45 9
q-32 0 -64 -16t-57.5 -51.5t-41.5 -86.5t-16 -109q0 -27 6 -54.5t17 -46.5zM393 392l-239 -332q14 -14 36 -22t45 -8q31 0 63 15.5t58 50.5t43 86.5t17 109.5q0 60 -23 100zM494 731l-186 -177h-40l123 177h103z" />
    <glyph glyph-name="OE.aalt" horiz-adv-x="726" 
d="M618 0h-363q-60 0 -105.5 14.5t-74 41t-42 63t-13.5 79.5q0 63 25 116.5t69.5 91t104 57.5t125.5 20h367l-12 -62q-60 17 -160 17h-65l-34 -172h156l-8 -44h-156l-35 -177h65q102 0 168 17zM320 45l75 393h-58q-59 0 -114 -32.5t-84.5 -92t-29.5 -122.5
q0 -75 40.5 -110.5t129.5 -35.5h41z" />
    <glyph glyph-name="Thorn.aalt" horiz-adv-x="434" 
d="M90 0h-78l93 483h78l-16 -82l54 1q78 1 124.5 -37t46.5 -99q0 -29 -11.5 -59.5t-38 -56t-68.5 -42t-96 -16.5q-36 0 -69 7zM200 358h-41l-42 -216q26 -6 59 -6q40 0 71 20t43.5 49t12.5 59q0 41 -28.5 67.5t-74.5 26.5z" />
    <glyph glyph-name="Racute.aalt" horiz-adv-x="457" 
d="M378 0h-86l-87 195l-77 4l-38 -199h-78l93 482l150 3q73 1 115.5 -34t42.5 -92q0 -26 -12.5 -57.5t-44 -57.5t-72.5 -38zM243 439h-69l-36 -191q30 -5 56 -5q57 0 94.5 30.5t37.5 80.5q0 38 -21.5 61.5t-61.5 23.5zM452 731l-186 -177h-40l123 177h103z" />
    <glyph glyph-name="Rcommaaccent.aalt" horiz-adv-x="457" 
d="M378 0h-86l-87 195l-77 4l-38 -199h-78l93 482l150 3q73 1 115.5 -34t42.5 -92q0 -26 -12.5 -57.5t-44 -57.5t-72.5 -38zM243 439h-69l-36 -191q30 -5 56 -5q57 0 94.5 30.5t37.5 80.5q0 38 -21.5 61.5t-61.5 23.5zM77 -295l-7 31q27 10 48.5 26t30 35t8.5 35
q0 42 -59 63q5 24 24 39.5t49 15.5t49 -21t19 -51q0 -46 -41.5 -96t-120.5 -77z" />
    <glyph glyph-name="Rcaron.aalt" horiz-adv-x="457" 
d="M378 0h-86l-87 195l-77 4l-38 -199h-78l93 482l150 3q73 1 115.5 -34t42.5 -92q0 -26 -12.5 -57.5t-44 -57.5t-72.5 -38zM243 439h-69l-36 -191q30 -5 56 -5q57 0 94.5 30.5t37.5 80.5q0 38 -21.5 61.5t-61.5 23.5zM303 554h-79l-83 197h39l89 -130h7l144 130h44z" />
    <glyph glyph-name="Sacute.aalt" horiz-adv-x="409" 
d="M-11 28l32 65q32 -36 66.5 -50.5t64.5 -14.5q47 0 76 25t29 59q0 28 -22.5 51.5t-70.5 47.5q-59 30 -87.5 66t-28.5 82q0 62 47.5 100.5t124.5 38.5q75 0 147 -35l-33 -65q-21 25 -53 41t-63 16q-44 0 -70 -22.5t-26 -53.5q0 -30 20.5 -52.5t77.5 -52.5q60 -31 86 -66
t26 -79q0 -22 -8 -46.5t-29 -46t-59 -36.5t-96 -15q-33 0 -68.5 8t-82.5 35zM423 731l-186 -177h-40l123 177h103z" />
    <glyph glyph-name="Scircumflex.aalt" horiz-adv-x="409" 
d="M-11 28l32 65q32 -36 66.5 -50.5t64.5 -14.5q47 0 76 25t29 59q0 28 -22.5 51.5t-70.5 47.5q-59 30 -87.5 66t-28.5 82q0 62 47.5 100.5t124.5 38.5q75 0 147 -35l-33 -65q-21 25 -53 41t-63 16q-44 0 -70 -22.5t-26 -53.5q0 -30 20.5 -52.5t77.5 -52.5q60 -31 86 -66
t26 -79q0 -22 -8 -46.5t-29 -46t-59 -36.5t-96 -15q-33 0 -68.5 8t-82.5 35zM402 554h-39l-89 130h-7l-144 -130h-44l161 197h79z" />
    <glyph glyph-name="Scedilla.aalt" horiz-adv-x="409" 
d="M-8 -275l7 36q74 0 118.5 18.5t44.5 55.5q0 19 -21 30.5t-59 11.5q-39 0 -68 -5l5 25l102 89q-66 4 -132 42l32 65q32 -36 66.5 -50.5t64.5 -14.5q47 0 76 25t29 59q0 28 -22.5 51.5t-70.5 47.5q-59 30 -87.5 66t-28.5 82q0 62 47.5 100.5t124.5 38.5q75 0 147 -35
l-33 -65q-21 25 -53 41t-63 16q-44 0 -70 -22.5t-26 -53.5q0 -30 20.5 -52.5t77.5 -52.5q60 -31 86 -66t26 -79q0 -58 -41.5 -96.5t-119.5 -45.5l-62 -54q62 0 96.5 -21.5t34.5 -58.5q0 -44 -34.5 -72.5t-92 -42t-121.5 -13.5z" />
    <glyph glyph-name="Scommaaccent.aalt" horiz-adv-x="409" 
d="M-11 28l32 65q32 -36 66.5 -50.5t64.5 -14.5q47 0 76 25t29 59q0 28 -22.5 51.5t-70.5 47.5q-59 30 -87.5 66t-28.5 82q0 62 47.5 100.5t124.5 38.5q75 0 147 -35l-33 -65q-21 25 -53 41t-63 16q-44 0 -70 -22.5t-26 -53.5q0 -30 20.5 -52.5t77.5 -52.5q60 -31 86 -66
t26 -79q0 -22 -8 -46.5t-29 -46t-59 -36.5t-96 -15q-33 0 -68.5 8t-82.5 35zM41 -295l-7 31q27 10 48.5 26t30 35t8.5 35q0 42 -59 63q5 24 24 39.5t49 15.5t49 -21t19 -51q0 -46 -41.5 -96t-120.5 -77z" />
    <glyph glyph-name="Scaron.aalt" horiz-adv-x="409" 
d="M-11 28l32 65q32 -36 66.5 -50.5t64.5 -14.5q47 0 76 25t29 59q0 28 -22.5 51.5t-70.5 47.5q-59 30 -87.5 66t-28.5 82q0 62 47.5 100.5t124.5 38.5q75 0 147 -35l-33 -65q-21 25 -53 41t-63 16q-44 0 -70 -22.5t-26 -53.5q0 -30 20.5 -52.5t77.5 -52.5q60 -31 86 -66
t26 -79q0 -22 -8 -46.5t-29 -46t-59 -36.5t-96 -15q-33 0 -68.5 8t-82.5 35zM274 554h-79l-83 197h39l89 -130h7l144 130h44z" />
    <glyph glyph-name="Tcommaaccent.aalt" horiz-adv-x="469" 
d="M213 0h-78l84 438h-7q-100 0 -166 -17l12 62h416l-12 -62q-60 17 -158 17h-7zM62 -295l-7 31q27 10 48.5 26t30 35t8.5 35q0 42 -59 63q5 24 24 39.5t49 15.5t49 -21t19 -51q0 -46 -41.5 -96t-120.5 -77z" />
    <glyph glyph-name="Tcaron.aalt" horiz-adv-x="469" 
d="M213 0h-78l84 438h-7q-100 0 -166 -17l12 62h416l-12 -62q-60 17 -158 17h-7zM316 554h-79l-83 197h39l89 -130h7l144 130h44z" />
    <glyph glyph-name="Ugrave.aalt" horiz-adv-x="496" 
d="M352 165l61 318h48l-63 -331q-16 -84 -68.5 -125.5t-133.5 -41.5q-90 0 -130.5 54t-22.5 147l57 297h78l-57 -296q-16 -80 11.5 -114.5t90.5 -34.5q52 0 84 29.5t45 97.5zM318 554h-32l-118 177h97z" />
    <glyph glyph-name="Uacute.aalt" horiz-adv-x="496" 
d="M352 165l61 318h48l-63 -331q-16 -84 -68.5 -125.5t-133.5 -41.5q-90 0 -130.5 54t-22.5 147l57 297h78l-57 -296q-16 -80 11.5 -114.5t90.5 -34.5q52 0 84 29.5t45 97.5zM507 731l-186 -177h-40l123 177h103z" />
    <glyph glyph-name="Ucircumflex.aalt" horiz-adv-x="496" 
d="M352 165l61 318h48l-63 -331q-16 -84 -68.5 -125.5t-133.5 -41.5q-90 0 -130.5 54t-22.5 147l57 297h78l-57 -296q-16 -80 11.5 -114.5t90.5 -34.5q52 0 84 29.5t45 97.5zM457 554h-39l-89 130h-7l-144 -130h-44l161 197h79z" />
    <glyph glyph-name="Udieresis.aalt" horiz-adv-x="496" 
d="M352 165l61 318h48l-63 -331q-16 -84 -68.5 -125.5t-133.5 -41.5q-90 0 -130.5 54t-22.5 147l57 297h78l-57 -296q-16 -80 11.5 -114.5t90.5 -34.5q52 0 84 29.5t45 97.5zM221 578q-22 0 -35 15t-13 36q0 27 15.5 47t37.5 20t35 -15t13 -36q0 -27 -15.5 -47t-37.5 -20z
M400 578q-22 0 -35 15t-13 36q0 27 15.5 47t37.5 20t35 -15t13 -36q0 -27 -15.5 -47t-37.5 -20z" />
    <glyph glyph-name="Umacron.aalt" horiz-adv-x="496" 
d="M352 165l61 318h48l-63 -331q-16 -84 -68.5 -125.5t-133.5 -41.5q-90 0 -130.5 54t-22.5 147l57 297h78l-57 -296q-16 -80 11.5 -114.5t90.5 -34.5q52 0 84 29.5t45 97.5zM432 613h-252l9 46h252z" />
    <glyph glyph-name="Ubreve.aalt" horiz-adv-x="496" 
d="M352 165l61 318h48l-63 -331q-16 -84 -68.5 -125.5t-133.5 -41.5q-90 0 -130.5 54t-22.5 147l57 297h78l-57 -296q-16 -80 11.5 -114.5t90.5 -34.5q52 0 84 29.5t45 97.5zM427 723h40q-21 -82 -66 -121.5t-105 -39.5q-45 0 -72 20t-37.5 55t-3.5 86h38q0 -54 19.5 -78
t64.5 -24t73 24t49 78z" />
    <glyph glyph-name="Uring.aalt" horiz-adv-x="496" 
d="M352 165l61 318h48l-63 -331q-16 -84 -68.5 -125.5t-133.5 -41.5q-90 0 -130.5 54t-22.5 147l57 297h78l-57 -296q-16 -80 11.5 -114.5t90.5 -34.5q52 0 84 29.5t45 97.5zM309 546q-24 0 -50 11t-43.5 39t-17.5 62q0 21 10 47.5t37 45.5t64 19q24 0 50 -11t43.5 -39
t17.5 -62q0 -21 -10 -47.5t-37 -45.5t-64 -19zM309 585q30 0 49 22.5t19 50.5t-19 50.5t-49 22.5t-49.5 -22.5t-19.5 -50.5t19.5 -50.5t49.5 -22.5z" />
    <glyph glyph-name="Uhungarumlaut.aalt" horiz-adv-x="496" 
d="M352 165l61 318h48l-63 -331q-16 -84 -68.5 -125.5t-133.5 -41.5q-90 0 -130.5 54t-22.5 147l57 297h78l-57 -296q-16 -80 11.5 -114.5t90.5 -34.5q52 0 84 29.5t45 97.5zM425 731l-179 -177h-39l116 177h102zM581 731l-179 -177h-39l116 177h102z" />
    <glyph glyph-name="Uogonek.aalt" horiz-adv-x="496" 
d="M308 -156l14 -27q-23 -28 -55.5 -45.5t-69.5 -17.5q-41 0 -64 20.5t-23 56.5q0 35 23.5 75t85.5 80l-23 -1q-90 0 -130.5 54t-22.5 147l57 297h78l-57 -296q-16 -80 11.5 -114.5t90.5 -34.5q52 0 84 29.5t45 97.5l61 318h48l-63 -331q-18 -97 -91 -141q-49 -29 -78 -63
t-37 -57t-8 -41q0 -45 50 -45q20 0 40.5 12.5t33.5 26.5z" />
    <glyph glyph-name="Wcircumflex.aalt" horiz-adv-x="727" 
d="M467 -4h-73l-36 297h-7l-151 -297h-70l-70 487h75l56 -392h8l148 292l-13 100h76l47 -392h8l206 392h56zM550 554h-39l-89 130h-7l-144 -130h-44l161 197h79z" />
    <glyph glyph-name="Wgrave.aalt" horiz-adv-x="727" 
d="M467 -4h-73l-36 297h-7l-151 -297h-70l-70 487h75l56 -392h8l148 292l-13 100h76l47 -392h8l206 392h56zM391 554h-32l-118 177h97z" />
    <glyph glyph-name="Wacute.aalt" horiz-adv-x="727" 
d="M467 -4h-73l-36 297h-7l-151 -297h-70l-70 487h75l56 -392h8l148 292l-13 100h76l47 -392h8l206 392h56zM577 731l-186 -177h-40l123 177h103z" />
    <glyph glyph-name="Wdieresis.aalt" horiz-adv-x="727" 
d="M467 -4h-73l-36 297h-7l-151 -297h-70l-70 487h75l56 -392h8l148 292l-13 100h76l47 -392h8l206 392h56zM298 578q-22 0 -35 15t-13 36q0 27 15.5 47t37.5 20t35 -15t13 -36q0 -27 -15.5 -47t-37.5 -20zM477 578q-22 0 -35 15t-13 36q0 27 15.5 47t37.5 20t35 -15t13 -36
q0 -27 -15.5 -47t-37.5 -20z" />
    <glyph glyph-name="Yacute.aalt" horiz-adv-x="438" 
d="M196 0h-78l37 192l-105 291h80l83 -238h5l171 238h59l-215 -291zM457 731l-186 -177h-40l123 177h103z" />
    <glyph glyph-name="Ycircumflex.aalt" horiz-adv-x="438" 
d="M196 0h-78l37 192l-105 291h80l83 -238h5l171 238h59l-215 -291zM421 554h-39l-89 130h-7l-144 -130h-44l161 197h79z" />
    <glyph glyph-name="Ydieresis.aalt" horiz-adv-x="438" 
d="M196 0h-78l37 192l-105 291h80l83 -238h5l171 238h59l-215 -291zM180 578q-22 0 -35 15t-13 36q0 27 15.5 47t37.5 20t35 -15t13 -36q0 -27 -15.5 -47t-37.5 -20zM359 578q-22 0 -35 15t-13 36q0 27 15.5 47t37.5 20t35 -15t13 -36q0 -27 -15.5 -47t-37.5 -20z" />
    <glyph glyph-name="Zacute.aalt" horiz-adv-x="470" 
d="M358 0h-368l9 48l344 391h-103q-100 0 -168 -17l12 61h364l-9 -47l-345 -392h108q100 0 168 17zM436 731l-186 -177h-40l123 177h103z" />
    <glyph glyph-name="Zdotaccent.aalt" horiz-adv-x="470" 
d="M358 0h-368l9 48l344 391h-103q-100 0 -168 -17l12 61h364l-9 -47l-345 -392h108q100 0 168 17zM267 578q-22 0 -35 15t-13 36q0 27 15.5 47t37.5 20t35 -15t13 -36q0 -27 -15.5 -47t-37.5 -20z" />
    <glyph glyph-name="Zcaron.aalt" horiz-adv-x="470" 
d="M358 0h-368l9 48l344 391h-103q-100 0 -168 -17l12 61h364l-9 -47l-345 -392h108q100 0 168 17zM305 554h-79l-83 197h39l89 -130h7l144 130h44z" />
    <glyph glyph-name="slash.aalt" horiz-adv-x="336" 
d="M-143 -116h-57l679 741h57z" />
    <glyph glyph-name="uni207A.aalt" horiz-adv-x="330" 
d="M235 27h-104l-21 -105h-38l21 105h-105l7 38h105l21 105h38l-21 -105h104z" />
    <glyph glyph-name="uni207B.aalt" horiz-adv-x="330" 
d="M235 27h-247l7 38h247z" />
    <glyph glyph-name="zero.lnum" 
d="M199 -15q-82 0 -132 65t-50 174q0 36 7.5 85t27 102t49 98t66 76t71.5 43t62 12q82 0 132 -65t50 -174q0 -36 -7.5 -85t-27 -102t-49 -98t-66 -76t-71.5 -43t-62 -12zM208 30q24 0 53 24.5t59.5 86.5t47 145t16.5 153q0 75 -23.5 115.5t-69.5 40.5q-24 0 -53 -24.5
t-59.5 -86.5t-47 -145t-16.5 -153q0 -75 23.5 -115.5t69.5 -40.5z" />
    <glyph glyph-name="one.lnum" 
d="M260 0h-93l106 549h-121l9 45l222 42z" />
    <glyph glyph-name="two.lnum" 
d="M385 0h-381v64q133 100 213.5 171t123 128.5t42.5 110.5q0 47 -29 72.5t-84 25.5q-38 0 -84 -18t-84 -48l-27 42q109 92 235 92q56 0 94 -18t57.5 -49t19.5 -75q0 -80 -84 -175t-285 -230v-8h290z" />
    <glyph glyph-name="three.lnum" 
d="M0 52l53 65q18 -41 56 -64t79 -23q48 0 83 22t52.5 55t17.5 74q0 21 -9 46t-37 41.5t-76 16.5q-17 0 -47 -5t-45 -11l-9 44q247 86 247 187q0 37 -24.5 56t-71.5 19q-27 0 -68 -16.5t-86 -44.5l-26 43q111 83 222 83q51 0 84.5 -15t50 -41.5t16.5 -59.5q0 -14 -5.5 -36
t-24.5 -46.5t-54 -49.5t-85 -45v-3q30 1 64 -11.5t58 -46t24 -78.5q0 -39 -18.5 -79t-52.5 -72.5t-82 -52t-103 -19.5q-53 0 -105 19t-78 48z" />
    <glyph glyph-name="four.lnum" 
d="M329 0h-89l30 151h-265v58l385 422h61l-77 -401h84l-15 -79h-84zM285 230l55 277l-252 -277h197z" />
    <glyph glyph-name="five.lnum" 
d="M-13 52l53 65q18 -42 54.5 -64.5t81.5 -22.5q26 0 59.5 13t58.5 46.5t25 79.5q0 22 -8.5 45t-32.5 46t-70.5 44t-125.5 37l121 284h287l-16 -85h-256l-51 -124q239 -58 239 -215q0 -30 -11 -65.5t-43 -73t-81.5 -57.5t-100.5 -20q-53 0 -105 19t-78 48z" />
    <glyph glyph-name="six.lnum" 
d="M502 653v-46q-129 -24 -219.5 -92.5t-132.5 -166.5l3 -3q31 18 66 29t65 11q74 0 119 -47t45 -120q0 -46 -17 -89t-48.5 -75t-75 -50.5t-92.5 -18.5q-89 0 -144.5 55t-55.5 147q0 76 32.5 153t95.5 142.5t155 110.5t204 60zM132 282q-11 -17 -18.5 -52t-7.5 -59
q0 -28 8.5 -58t26 -49t38.5 -26.5t42 -7.5q34 0 65 22t47.5 61t16.5 78q0 57 -30 92.5t-83 35.5q-22 0 -50 -8.5t-55 -28.5z" />
    <glyph glyph-name="seven.lnum" 
d="M121 -6h-70l383 546h-355l17 85h426v-46z" />
    <glyph glyph-name="eight.lnum" 
d="M330 327v-5q101 -69 101 -153q0 -54 -27 -94t-79 -65t-123 -25q-46 0 -92.5 18.5t-73 55.5t-26.5 81q0 25 8.5 51t31 52t57.5 45.5t67 29.5v4q-38 24 -61 60.5t-23 77.5q0 47 25.5 90t76.5 66.5t111 23.5q33 0 63.5 -10t53.5 -29.5t36 -47.5t13 -61q0 -58 -38.5 -99.5
t-100.5 -65.5zM288 352q91 53 91 139q0 33 -14 58.5t-37 35.5t-44 10q-23 0 -48.5 -10t-42 -36t-16.5 -59q0 -20 11 -44.5t37.5 -48t62.5 -45.5zM213 295q-38 -23 -65 -48t-38 -53t-11 -52t10.5 -51t39 -44t68.5 -17q42 0 73 17t42.5 43t11.5 50q0 36 -26.5 71t-104.5 84z
" />
    <glyph glyph-name="nine.lnum" 
d="M349 277l-3 3q-31 -18 -66.5 -29t-65.5 -11q-74 0 -119 47t-45 120q0 46 17 89t48.5 75t75 50.5t92.5 18.5q89 0 144.5 -55t55.5 -147q0 -76 -32.5 -153t-95.5 -142.5t-155 -110.5t-204 -60v46q129 24 220 92.5t133 166.5zM367 343q11 17 18.5 52t7.5 59q0 28 -9.5 61.5
t-36.5 56.5t-70 23q-34 0 -65 -22t-47.5 -61t-16.5 -78q0 -57 30 -92.5t83 -35.5q22 0 50.5 8.5t55.5 28.5z" />
    <glyph glyph-name="dollar.aalt" 
d="M99 -96h-45l49 125q-51 12 -95 35l32 68q38 -39 82 -55l83 213q-129 61 -129 149q0 48 31 89.5t77.5 58.5t91.5 17q15 0 51 -4l38 97h45l-42 -105q53 -12 98 -35l-33 -69q-43 41 -83 56l-76 -193q82 -40 113.5 -75.5t31.5 -78.5q0 -51 -30.5 -94t-84.5 -64t-109 -21
q-24 0 -50 3zM243 272l-80 -205q17 -4 40 -4q53 0 91 29t38 77q0 29 -20.5 54t-68.5 49zM236 369l73 185q-16 3 -34 3q-34 0 -62.5 -12.5t-41 -34t-12.5 -44.5q0 -57 77 -97z" />
    <glyph glyph-name="cent.aalt" 
d="M164 -119h-39l49 163q-21 7 -45 26t-40 55.5t-16 77.5q0 36 11 81.5t34.5 86t51.5 67.5t64 42.5t75 15.5l46 153h39l-47 -159q57 -15 86 -67l-45 -63q-11 20 -27 38.5t-33 28.5l-98 -325q24 0 51.5 11t76.5 57l26 -35q-40 -48 -81.5 -71.5t-91.5 -24.5zM195 114l97 325
l-11 1q-33 0 -56 -23q-29 -29 -50 -82t-21 -118q0 -35 11 -62t30 -41z" />
    <glyph glyph-name="sterling.aalt" 
d="M358 0h-342l17 94q54 30 86 83.5t35 118.5h-99l8 42h87q-1 6 -4 27t-5 39.5t-2 38.5q0 42 15.5 79t42 63.5t61 40.5t70.5 14q38 0 75 -11t71 -43l-48 -61q-28 68 -91 68q-50 0 -80.5 -41.5t-30.5 -103.5q0 -29 7.5 -64t8.5 -46h120l-8 -42h-111q-5 -62 -42.5 -119
t-106.5 -93h282z" />
    <glyph glyph-name="yen.aalt" 
d="M405 131h-154l-25 -131h-84l25 131h-154l8 42h154l17 88h-154l9 42h138l-99 322h90l89 -301l205 301h55l-222 -322h136l-9 -42h-154l-17 -88h154z" />
    <glyph glyph-name="Euro.aalt" 
d="M402 85l24 -35q-65 -65 -153 -65q-38 0 -75 12.5t-65.5 42.5t-46.5 78t-19 114h-72l8 42h65q5 49 14 84h-63l9 42h66q26 76 66.5 129.5t89.5 82t105 28.5q99 0 166 -76l-51 -57q-38 86 -109 86q-38 0 -70.5 -23.5t-59.5 -67t-46 -102.5h216l-9 -42h-219q-10 -41 -15 -84
h218l-8 -42h-213l-1 -15q0 -50 12.5 -94.5t43.5 -69t75 -24.5q58 0 117 56z" />
    <glyph glyph-name="degree.aalt" 
d="M260 337q-27 0 -60.5 12.5t-57 45t-23.5 77.5q0 25 8.5 53t29 53.5t53.5 43.5t74 18q28 0 58.5 -11t48 -30t27 -40.5t9.5 -51.5q0 -25 -8.5 -53.5t-32 -57.5t-58 -44t-68.5 -15zM264 386q21 0 46.5 11t43.5 39t19 62q0 41 -26.5 67.5t-67.5 26.5q-22 0 -46.5 -12
t-42 -41.5t-17.5 -62.5q0 -40 26 -65t65 -25z" />
    <glyph glyph-name="plus.lnum" 
d="M446 302h-176l-37 -188h-49l37 188h-175l9 48h175l37 187h49l-37 -187h176z" />
    <glyph glyph-name="minus.lnum" 
d="M446 302h-400l9 48h400z" />
    <glyph glyph-name="plusminus.aalt" 
d="M448 337h-176l-29 -151h-49l29 151h-175l9 48h175l32 163h49l-32 -163h176zM400 90h-400l9 48h400z" />
    <glyph glyph-name="logicalnot.aalt" 
d="M417 193h-51l31 161h-343l10 50h394z" />
    <glyph glyph-name="equal.aalt" 
d="M458 384h-396l10 49h396zM425 216h-396l10 49h396z" />
    <glyph glyph-name="notequal.aalt" 
d="M424 216h-194l-72 -149h-50l71 149h-151l10 49h165l57 119h-199l10 49h213l66 139h51l-66 -139h132l-10 -49h-146l-57 -119h180z" />
    <glyph glyph-name="approxequal.aalt" 
d="M383 296h51q-13 -34 -33.5 -59.5t-44 -35.5t-44.5 -10q-30 0 -74.5 27t-59 31.5t-22.5 4.5q-39 0 -63 -55h-51q12 33 33 58.5t45 35.5t44 10q33 0 78.5 -27.5t58 -31.5t19.5 -4q38 0 63 56zM415 460h51q-14 -34 -34.5 -59.5t-43.5 -35.5t-44 -10q-30 0 -74.5 27t-59 31.5
t-22.5 4.5q-39 0 -63 -55h-51q12 33 33 58.5t45 35.5t44 10q33 0 78.5 -27.5t58 -31.5t19.5 -4q37 0 63 56z" />
    <glyph glyph-name="multiply.aalt" 
d="M422 159l-36 -30l-135 167l-199 -167l-30 37l200 167l-135 168l36 30l136 -167l199 167l29 -37l-199 -168z" />
    <glyph glyph-name="divide.aalt" 
d="M439 301h-396l9 49h396zM273 422q-19 0 -33 13.5t-14 32.5t14 32.5t33 13.5q18 0 32 -14t14 -32q0 -19 -13.5 -32.5t-32.5 -13.5zM219 137q-19 0 -33 13.5t-14 32.5t14 32.5t33 13.5t32.5 -13.5t13.5 -32.5q0 -18 -14 -32t-32 -14z" />
    <glyph glyph-name="less.aalt" 
d="M395 113l-364 185l7 34l436 185l-11 -56l-349 -145l-1 -7l292 -146z" />
    <glyph glyph-name="greater.aalt" 
d="M465 298l-436 -185l11 56l349 145l1 7l-292 146l10 50l364 -185z" />
    <glyph glyph-name="lessequal.aalt" 
d="M379 80h-384l10 49h384zM396 169l-351 168l7 36l417 168l-11 -56l-329 -131l-1 -3l279 -133z" />
    <glyph glyph-name="greaterequal.aalt" 
d="M406 80h-384l10 49h384zM456 337l-417 -168l11 56l329 131l1 3l-279 133l11 49l351 -168z" />
    <glyph glyph-name="bar.aalt" horiz-adv-x="250" 
d="M56 -157h-44l171 877h44z" />
    <glyph glyph-name="brokenbar.aalt" horiz-adv-x="250" 
d="M146 305h-44l65 335h44zM60 -137h-44l65 335h44z" />
    <glyph glyph-name="bullet.lnum" 
d="M250 126q-37 0 -71 14.5t-59.5 40t-40 59.5t-14.5 71t14.5 71t40 59.5t59.5 40t71 14.5t71 -14.5t59.5 -40t40 -59.5t14.5 -71t-14.5 -71t-40 -59.5t-59.5 -40t-71 -14.5z" />
    <glyph glyph-name="asciitilde.aalt" 
d="M387 368h39q-14 -48 -31 -76.5t-38.5 -40t-46.5 -11.5q-19 0 -38.5 9t-54.5 37.5t-54 28.5q-21 0 -36 -15.5t-29 -50.5h-39q15 48 31 76.5t37.5 40t46.5 11.5q22 0 42 -10.5t53.5 -37.5t52.5 -27q21 0 36 15.5t29 50.5z" />
    <glyph glyph-name="quotesingle.aalt" horiz-adv-x="250" 
d="M87 403h-42l159 242l79 -28z" />
    <glyph glyph-name="quotedbl.aalt" 
d="M117 403h-42l159 242l79 -28zM297 403h-42l159 242l79 -28z" />
    <glyph glyph-name="parenleft.aalt" horiz-adv-x="362" 
d="M237 -127l-27 -38q-83 58 -132 159.5t-49 217.5q0 82 25.5 164.5t73 155.5t114 134t144.5 104l23 -42q-72 -39 -132.5 -95t-104 -124t-67 -144t-23.5 -152q0 -48 10.5 -99.5t27 -89.5t44 -78t73.5 -73z" />
    <glyph glyph-name="parenright.aalt" horiz-adv-x="362" 
d="M-24 -165l-23 42q72 39 132.5 95t104 124t67 144t23.5 152q0 48 -10.5 99.5t-27 89.5t-44 78t-73.5 73l27 38q83 -58 132 -159.5t49 -217.5q0 -82 -25.5 -164.5t-73 -155.5t-114 -134t-144.5 -104z" />
    <glyph glyph-name="bracketleft.aalt" horiz-adv-x="348" 
d="M231 -135h-237l176 911h238l-9 -47h-181l-159 -817h181z" />
    <glyph glyph-name="bracketright.aalt" horiz-adv-x="348" 
d="M179 -135h-237l9 47h180l159 817h-181l9 47h238z" />
    <glyph glyph-name="asterisk.aalt" 
d="M334 317l-21 -6l-45 43l4 97l-15 4l-52 -78l-62 -10l-14 18l28 58l91 24v18l-91 26l-29 56l13 18l64 -9l52 -81l14 5v97l43 42l22 -7l11 -61l-62 -76l10 -13l92 33l53 -30v-22l-53 -30l-92 34l-10 -13l60 -76z" />
    <glyph glyph-name="braceleft.aalt" horiz-adv-x="332" 
d="M201 -93l-9 -42q-81 4 -124.5 35.5t-43.5 86.5q0 18 5 39t17 44t45.5 73t33.5 83q0 24 -20.5 39t-47.5 20t-49 6l11 57q75 2 111.5 28t36.5 72q0 22 -13 67.5t-13 73.5q0 54 27 93.5t78 64t123 28.5l-9 -45q-59 -6 -96.5 -34t-37.5 -79q0 -21 12.5 -64.5t12.5 -70.5
t-9.5 -51.5t-28.5 -46.5t-53 -40.5t-64 -19.5l-3 -12q23 -1 46.5 -13.5t41.5 -35.5t18 -54q0 -45 -42.5 -107.5t-48.5 -82.5t-6 -33q0 -22 14 -40.5t38 -27.5t47 -11z" />
    <glyph glyph-name="braceright.aalt" horiz-adv-x="332" 
d="M-37 -135l8 44q58 5 97 35t39 81q0 22 -13 63.5t-13 68.5q0 36 19.5 71t61.5 59.5t74 26.5l2 12q-17 0 -41.5 10.5t-44.5 36t-20 56.5q0 15 5 33.5t15.5 38.5t44 70.5t33.5 84.5q0 30 -25.5 51t-73.5 25l9 43q50 -3 86.5 -16.5t59 -39.5t22.5 -66q0 -27 -10.5 -57
t-36 -68.5t-35 -55t-14.5 -32t-5 -28.5q0 -18 12.5 -32.5t40.5 -22.5t64 -9l-11 -57q-77 -4 -112.5 -29t-35.5 -72q0 -22 13 -67t13 -73q0 -32 -12 -64.5t-40.5 -58t-72.5 -42.5t-103 -20z" />
    <glyph glyph-name="section.aalt" 
d="M8 -71l39 60q47 -63 118 -63q22 0 47 7.5t42.5 28t17.5 47.5q0 26 -17 52t-80 59q-64 33 -93.5 68.5t-29.5 79.5q0 92 102 136q-26 36 -26 86q0 42 22.5 75t63.5 54t94 21q92 0 150 -48l-40 -60q-24 31 -51.5 47t-65.5 16q-22 0 -47 -7.5t-42.5 -28t-17.5 -47.5
q0 -36 23 -61t73 -51q56 -29 82.5 -56t34 -49.5t7.5 -41.5q0 -93 -103 -136q27 -37 27 -86q0 -25 -10 -51.5t-33 -48t-58.5 -36t-78.5 -14.5q-92 0 -150 48zM290 139q56 27 56 85q0 19 -9.5 39t-31 35.5t-58.5 35.5q-50 28 -72 48q-56 -29 -56 -86q0 -29 19 -53.5t80 -56.5
q45 -22 72 -47z" />
    <glyph glyph-name="paragraph.aalt" 
d="M330 -32h-63l59 309q-43 -10 -83 -10q-59 0 -99 18.5t-61.5 53t-21.5 83.5q0 35 13 70.5t43.5 65t78 48.5t108.5 19h152z" />
    <glyph glyph-name="period.aalt" horiz-adv-x="250" 
d="M75 -15q-26 0 -45.5 19.5t-19.5 46.5t19.5 46.5t45.5 19.5t45.5 -19.5t19.5 -46.5t-19.5 -46.5t-45.5 -19.5z" />
    <glyph glyph-name="comma.aalt" horiz-adv-x="250" 
d="M-25 -190l-17 30q61 44 82.5 78.5t21.5 63.5q0 52 -64 74q5 26 25.5 43.5t52.5 17.5t55.5 -24.5t23.5 -60.5q0 -112 -180 -222z" />
    <glyph glyph-name="colon.aalt" horiz-adv-x="250" 
d="M142 328q-26 0 -45.5 19.5t-19.5 46.5t19.5 46.5t45.5 19.5t45.5 -19.5t19.5 -46.5t-19.5 -46.5t-45.5 -19.5zM75 -15q-26 0 -45.5 19.5t-19.5 46.5t19.5 46.5t45.5 19.5t45.5 -19.5t19.5 -46.5t-19.5 -46.5t-45.5 -19.5z" />
    <glyph glyph-name="semicolon.aalt" horiz-adv-x="250" 
d="M142 328q-26 0 -45.5 19.5t-19.5 46.5t19.5 46.5t45.5 19.5t45.5 -19.5t19.5 -46.5t-19.5 -46.5t-45.5 -19.5zM-25 -190l-17 30q61 44 82.5 78.5t21.5 63.5q0 52 -64 74q5 26 25.5 43.5t52.5 17.5t55.5 -24.5t23.5 -60.5q0 -112 -180 -222z" />
    <glyph glyph-name="periodcentered.aalt" horiz-adv-x="250" 
d="M113 196q-26 0 -45.5 19.5t-19.5 46.5t19.5 46.5t45.5 19.5t45.5 -19.5t19.5 -46.5t-19.5 -46.5t-45.5 -19.5z" />
    <glyph glyph-name="hyphen.lnum" horiz-adv-x="328" 
d="M270 288h-218l11 53h218z" />
    <glyph glyph-name="endash.aalt" horiz-adv-x="492" 
d="M432 288h-382l11 53h382z" />
    <glyph glyph-name="A.ornm" horiz-adv-x="750" 
d="M662 45h-574l288 539zM502 137l-127 261l-127 -261h254z" />
    <glyph glyph-name="B.ornm" horiz-adv-x="750" 
d="M684 312l-539 -286v574zM498 313l-261 127v-254z" />
    <glyph glyph-name="C.ornm" horiz-adv-x="750" 
d="M376 45l-288 539h574zM375 231l127 261h-254z" />
    <glyph glyph-name="D.ornm" horiz-adv-x="750" 
d="M604 26l-539 286l539 288v-574zM512 186v254l-261 -127z" />
    <glyph glyph-name="E.ornm" horiz-adv-x="750" 
d="M662 45h-574l288 539z" />
    <glyph glyph-name="F.ornm" horiz-adv-x="750" 
d="M684 312l-539 -286v574z" />
    <glyph glyph-name="G.ornm" horiz-adv-x="750" 
d="M376 45l-288 539h574z" />
    <glyph glyph-name="H.ornm" horiz-adv-x="750" 
d="M604 26l-539 286l539 288v-574z" />
    <glyph glyph-name="I.ornm" horiz-adv-x="750" 
d="M416 -10h-83l6 512l-221 -231l-59 54l312 315h7l313 -315l-59 -54l-222 231z" />
    <glyph glyph-name="J.ornm" horiz-adv-x="750" 
d="M705 308l-315 -312l-54 59l231 221l-512 -6v83l512 -6l-231 222l54 59l315 -313v-7z" />
    <glyph glyph-name="K.ornm" horiz-adv-x="750" 
d="M377 -15h-7l-313 315l59 54l222 -231l-6 512h83l-6 -512l221 231l59 -54z" />
    <glyph glyph-name="L.ornm" horiz-adv-x="750" 
d="M695 270l-512 6l231 -221l-54 -59l-315 312v7l315 313l54 -59l-231 -222l512 6v-83z" />
    <glyph glyph-name="M.ornm" 
d="M459 0h-418v417h418v-417zM406 53v313h-313v-313h313z" />
    <glyph glyph-name="N.ornm" 
d="M459 0h-418v417h418v-417zM368 91v236h-236v-236h236z" />
    <glyph glyph-name="O.ornm" 
d="M459 0h-418v417h418v-417zM414 336v37h-37zM414 243v64l-65 66h-65zM414 151v64l-158 158h-64zM414 59v64l-250 250h-64zM400 46l-314 313v-65l250 -248h64zM307 46l-221 220v-64l157 -156h64zM214 46l-128 127v-64l64 -63h64zM122 46l-36 36v-36h36z" />
    <glyph glyph-name="P.ornm" 
d="M459 0h-418v417h418v-417z" />
    <glyph glyph-name="Q.ornm" horiz-adv-x="750" 
d="M688 0h-626v626h626v-626zM633 55v516h-516v-516h516z" />
    <glyph glyph-name="R.ornm" horiz-adv-x="750" 
d="M688 0h-626v626h626v-626zM573 115v396h-396v-396h396z" />
    <glyph glyph-name="S.ornm" horiz-adv-x="750" 
d="M688 0h-626v626h626v-626zM633 493v78h-78zM633 351v116l-104 104h-116zM633 209v116l-246 246h-116zM633 68v116l-387 387h-116zM621 55l-504 504v-116l388 -388h116zM479 55l-362 362v-116l246 -246h116zM337 55l-220 220v-116l104 -104h116zM197 55l-80 80v-80h80z
" />
    <glyph glyph-name="T.ornm" horiz-adv-x="750" 
d="M688 0h-626v626h626v-626z" />
    <glyph glyph-name="U.ornm" 
d="M250 -10q-33 0 -70 11.5t-74 42t-56 76t-19 89.5t17 84.5t47 70.5t70 46.5t85 16.5t85 -16.5t70 -46.5t47 -70.5t17 -84.5t-17 -84.5t-47 -70.5t-70 -47t-85 -17zM250 41q25 0 53 8.5t53 29.5t42.5 54t17.5 76q0 34 -16 72.5t-57 67t-93 28.5q-25 0 -53 -8.5t-53 -29.5
t-42.5 -54t-17.5 -76q0 -34 16 -72.5t57 -67t93 -28.5z" />
    <glyph glyph-name="V.ornm" 
d="M250 -10q-33 0 -70 11.5t-74 42t-56 76t-19 89.5t17 84.5t47 70.5t70 46.5t85 16.5t85 -16.5t70 -46.5t47 -70.5t17 -84.5t-17 -84.5t-47 -70.5t-70 -47t-85 -17zM250 81q53 0 89.5 37.5t36.5 90.5t-36.5 90.5t-89.5 37.5t-89.5 -37.5t-36.5 -90.5t36.5 -90.5t89.5 -37.5
z" />
    <glyph glyph-name="W.ornm" 
d="M250 -10q-33 0 -70 11.5t-74 42t-56 76t-19 89.5t17 84.5t47 70.5t70 46.5t85 16.5t85 -16.5t70 -46.5t47 -70.5t17 -84.5t-17 -84.5t-47 -70.5t-70 -47t-85 -17zM275 387l151 -151q-3 28 -17 55t-33 46q-20 19 -47 33t-54 17zM428 205l-184 184q-32 -2 -55 -11l228 -229
q9 24 11 56zM410 128l-241 242q-18 -7 -38 -27l253 -254q17 17 26 39zM370 75l-254 254q-17 -17 -26 -40l242 -241q19 8 38 27zM311 39l-229 229q-8 -24 -10 -55l184 -184q31 0 55 10zM225 30l-151 152q4 -31 19 -58t34 -46q20 -19 45.5 -31.5t52.5 -16.5z" />
    <glyph glyph-name="X.ornm" 
d="M250 -10q-33 0 -70 11.5t-74 42t-56 76t-19 89.5t17 84.5t47 70.5t70 46.5t85 16.5t85 -16.5t70 -46.5t47 -70.5t17 -84.5t-17 -84.5t-47 -70.5t-70 -47t-85 -17z" />
    <glyph glyph-name="Y.ornm" horiz-adv-x="750" 
d="M703 313q0 -67 -25 -127t-70 -105.5t-105.5 -70.5t-127.5 -25t-127.5 25t-105.5 70.5t-70 105.5t-25 127t25 127t70 105.5t105.5 70.5t127.5 25t127.5 -25t105.5 -70.5t70 -105.5t25 -127zM375 37q56 0 106.5 21.5t88 59.5t58 88.5t20.5 106.5t-20.5 106.5t-58 88.5
t-88 59.5t-106.5 21.5t-106.5 -21.5t-88 -59.5t-58 -88.5t-20.5 -106.5t20.5 -106.5t58 -88.5t88 -59.5t106.5 -21.5z" />
    <glyph glyph-name="Z.ornm" horiz-adv-x="750" 
d="M703 313q0 -67 -25 -127t-70 -105.5t-105.5 -70.5t-127.5 -25t-127.5 25t-105.5 70.5t-70 105.5t-25 127t25 127t70 105.5t105.5 70.5t127.5 25t127.5 -25t105.5 -70.5t70 -105.5t25 -127zM375 97q44 0 83.5 17t68.5 46.5t45 69.5t16 83q0 32 -11 68.5t-40.5 73
t-73.5 55.5t-88 19t-83.5 -17t-68.5 -46.5t-45 -69.5t-16 -83q0 -32 11 -68.5t40.5 -73t73.5 -55.5t88 -19z" />
    <glyph glyph-name="a.ornm" horiz-adv-x="750" 
d="M703 313q0 -67 -25 -127t-70 -105.5t-105.5 -70.5t-127.5 -25t-127.5 25t-105.5 70.5t-70 105.5t-25 127t25 127.5t70 106t105.5 71t127.5 25.5t127.5 -25.5t105.5 -71t70 -106t25 -127.5zM396 588l251 -251q-4 49 -24 93.5t-54 78.5t-78.5 54.5t-94.5 24.5zM648 310
l-279 279q-53 -2 -97 -19l357 -358q17 45 19 98zM187 514l389 -389q28 29 46 69l-367 368q-38 -18 -68 -48zM564 112l-390 390q-27 -28 -46 -70l368 -368q38 18 68 48zM478 56l-358 358q-16 -45 -18 -98l279 -279q50 0 97 19zM354 38l-251 251q4 -49 24 -93.5t54 -78.5
t78.5 -54.5t94.5 -24.5z" />
    <glyph glyph-name="b.ornm" horiz-adv-x="750" 
d="M703 313q0 -67 -25 -127t-70 -105.5t-105.5 -70.5t-127.5 -25t-127.5 25t-105.5 70.5t-70 105.5t-25 127t25 127t70 105.5t105.5 70.5t127.5 25t127.5 -25t105.5 -70.5t70 -105.5t25 -127z" />
    </font>
</defs>
</svg>
