<?xml version="1.0" standalone="no"?>
<!DOCTYPE svg PUBLIC "-//W3C//DTD SVG 1.1//EN" "http://www.w3.org/Graphics/SVG/1.1/DTD/svg11.dtd" >
<svg xmlns="http://www.w3.org/2000/svg">
<metadata>Generated by IcoMoon</metadata>
<defs>
<font id="icomoon" horiz-adv-x="1024">
<font-face units-per-em="1024" ascent="960" descent="-64" />
<missing-glyph horiz-adv-x="1024" />
<glyph unicode="&#x20;" horiz-adv-x="512" d="" />
<glyph unicode="&#xe900;" glyph-name="eye" horiz-adv-x="1061" d="M823.504 355.866c-61.133-91.699-153.359-144.673-250.412-158.921-17.364-3.207-35.328-4.944-53.877-4.944s-36.513 1.737-53.873 4.944c-97.057 14.245-189.286 67.218-250.422 158.925l-61.42 92.131 58.404 90.529c144.042 223.267 470.574 223.269 614.618 0l58.408-90.529-61.425-92.134zM921.501 448c32.709 16.355 32.702 16.369 32.695 16.38l-32.695-16.38zM954.196 464.38l-0.059 0.117-0.124 0.252-0.417 0.812c-0.347 0.677-0.841 1.627-1.477 2.831-1.273 2.403-3.12 5.822-5.53 10.108-4.82 8.572-11.919 20.645-21.226 35.054-18.567 28.752-46.171 67.178-82.326 105.744-71.643 76.42-181.211 157.844-323.822 157.844s-252.18-81.424-323.824-157.844c-36.156-38.566-63.759-76.992-82.327-105.744-9.307-14.409-16.404-26.481-21.225-35.054-2.412-4.286-4.258-7.706-5.53-10.108-0.636-1.203-1.129-2.154-1.478-2.831l-0.415-0.812-0.127-0.252-0.042-0.084c-0.007-0.015-0.029-0.059 32.681-16.413l-32.711 16.355c-5.148-10.295-5.148-22.415 0-32.709l0.072-0.143 0.127-0.252 0.415-0.812c0.349-0.677 0.842-1.627 1.478-2.831 1.272-2.403 3.118-5.822 5.53-10.108 4.821-8.572 11.918-20.645 21.225-35.054 18.568-28.752 46.171-67.178 82.327-105.743 71.644-76.423 181.214-157.846 323.824-157.846s252.178 81.423 323.822 157.846c36.155 38.565 63.759 76.99 82.326 105.743 9.307 14.409 16.406 26.481 21.226 35.054 2.41 4.286 4.257 7.706 5.53 10.108 0.636 1.203 1.13 2.154 1.477 2.831l0.417 0.812 0.124 0.252 0.044 0.084c0.007 0.015 0.029 0.059-32.68 16.413l32.709-16.355c5.149 10.295 5.135 22.44-0.015 32.735zM84.218 431.645v0c-0.002 0.007 0.053 0.033 4.074 2.041 4.071 2.037 12.209 6.1 28.472 14.23l-32.546-16.271zM446.073 448c0 40.397 32.746 73.143 73.143 73.143 40.393 0 73.143-32.746 73.143-73.143s-32.75-73.143-73.143-73.143c-40.397 0-73.143 32.746-73.143 73.143zM519.216 594.286c-80.794 0-146.286-65.496-146.286-146.286s65.492-146.286 146.286-146.286c80.79 0 146.286 65.496 146.286 146.286s-65.496 146.286-146.286 146.286z" />
<glyph unicode="&#xe901;" glyph-name="eye-off" d="M135.574 876.146c-14.282 14.282-37.438 14.282-51.72 0s-14.282-37.438 0-51.72l156.365-156.364c-66.15-56.941-121.349-125.652-162.73-202.77-5.618-10.47-5.799-23.018-0.485-33.646l32.711 16.355c-32.711-16.355-32.681-16.413-32.681-16.413l0.043-0.088 0.126-0.249 0.415-0.812c0.349-0.68 0.842-1.627 1.478-2.831 1.272-2.403 3.118-5.822 5.53-10.108 4.821-8.572 11.918-20.645 21.225-35.057 18.568-28.749 46.171-67.174 82.327-105.743 71.644-76.42 181.213-157.842 323.823-157.842l0.596 0.004c75.648 1.236 149.208 23.636 212.473 64.351l163.357-163.357c14.281-14.281 37.438-14.281 51.719 0s14.281 37.438 0 51.719l-804.571 804.572zM671.868 236.412l-84.908 84.904c-5.804-3.639-11.871-6.875-18.161-9.677-17.942-7.995-37.314-12.295-56.956-12.639-19.643-0.347-39.15 3.266-57.366 10.624-18.216 7.355-34.761 18.308-48.655 32.197-13.89 13.89-24.839 30.438-32.197 48.655-7.358 18.213-10.971 37.723-10.624 57.366s4.645 39.014 12.639 56.956c2.805 6.29 6.038 12.357 9.677 18.161l-93.217 93.219c-56.203-47.545-103.781-104.479-140.6-168.297 3.989-6.89 9.265-15.649 15.793-25.757 16.86-26.105 41.829-60.822 74.245-95.4 65.441-69.804 156.912-134.612 270.163-134.725 56.521 0.973 111.612 16.369 160.168 44.412zM439.877 468.403c-2.348-7.040-3.613-14.405-3.745-21.851-0.176-9.819 1.631-19.577 5.31-28.683s9.154-17.382 16.102-24.327c6.945-6.945 15.217-12.42 24.324-16.099 9.11-3.679 18.864-5.486 28.683-5.31 7.446 0.128 14.815 1.397 21.851 3.745l-92.526 92.526zM511.916 703.999c-23.022 0.054-45.967-2.568-68.381-7.815-19.664-4.603-39.34 7.608-43.944 27.274s7.607 39.341 27.275 43.944c27.919 6.535 56.503 9.803 85.179 9.739h-0.044v-36.571l0.084 36.571h-0.040c142.588-0.016 252.142-81.431 323.778-157.844 36.158-38.565 63.759-76.991 82.33-105.743 9.304-14.409 16.402-26.485 21.222-35.054 2.414-4.29 4.261-7.706 5.53-10.112 0.636-1.2 1.13-2.15 1.481-2.827l0.413-0.816 0.128-0.249 0.040-0.084c0 0 0.029-0.059-32.68-16.413l32.709 16.355c5.307-10.609 5.135-23.135-0.457-33.595-23.398-43.776-51.306-84.988-83.262-122.971-13.005-15.455-36.078-17.441-51.529-4.436-15.455 13.005-17.441 36.074-4.44 51.529 23.541 27.973 44.628 57.9 63.042 89.45-1.159 2.326-1.148 5.091 0.033 7.406-3.675 6.246-8.243 13.725-13.674 22.133-16.859 26.108-41.83 60.826-74.244 95.4-65.499 69.866-157.074 134.728-270.464 134.728h-0.084z" />
<glyph unicode="&#xe902;" glyph-name="grid" horiz-adv-x="1061" d="M555.787 374.857c0 20.198 16.373 36.571 36.571 36.571h256c20.195 0 36.571-16.373 36.571-36.571v-256c0-20.198-16.377-36.571-36.571-36.571h-256c-20.198 0-36.571 16.373-36.571 36.571v256zM628.93 338.286v-182.857h182.857v182.857h-182.857zM153.5 374.857c0 20.198 16.373 36.571 36.571 36.571h256.001c20.195 0 36.571-16.373 36.571-36.571v-256c0-20.198-16.377-36.571-36.571-36.571h-256.001c-20.198 0-36.571 16.373-36.571 36.571v256zM226.643 338.286v-182.857h182.858v182.857h-182.858zM555.787 777.143c0 20.198 16.373 36.571 36.571 36.571h256c20.195 0 36.571-16.374 36.571-36.571v-256c0-20.198-16.377-36.571-36.571-36.571h-256c-20.198 0-36.571 16.373-36.571 36.571v256zM628.93 740.571v-182.857h182.857v182.857h-182.857zM153.5 777.143c0 20.198 16.373 36.571 36.571 36.571h256.001c20.195 0 36.571-16.374 36.571-36.571v-256c0-20.198-16.377-36.571-36.571-36.571h-256.001c-20.198 0-36.571 16.373-36.571 36.571v256zM226.643 740.571v-182.857h182.858v182.857h-182.858z" />
<glyph unicode="&#xe903;" glyph-name="grid1" horiz-adv-x="1061" d="M263.214 740.571c-20.198 0-36.571-16.374-36.571-36.571v-512c0-20.198 16.373-36.571 36.571-36.571h512.001c20.195 0 36.571 16.373 36.571 36.571v512c0 20.198-16.377 36.571-36.571 36.571h-512.001zM153.5 704c0 60.593 49.121 109.714 109.714 109.714h512.001c60.592 0 109.714-49.121 109.714-109.714v-512c0-60.595-49.123-109.714-109.714-109.714h-512.001c-60.594 0-109.714 49.119-109.714 109.714v512z" />
<glyph unicode="&#xe904;" glyph-name="grid1-fill" d="M817.178 795.429c30.299 0 54.857-24.56 54.857-54.857v-585.143c0-30.296-24.558-54.857-54.857-54.857h-597.753c-30.297 0-54.857 24.561-54.857 54.857v585.143c0 30.297 24.56 54.857 54.857 54.857h597.753z" />
<glyph unicode="&#xe905;" glyph-name="grid-fill" horiz-adv-x="1061" d="M171.786 777.143c0 10.099 8.187 18.286 18.286 18.286h256.001c10.097 0 18.286-8.187 18.286-18.286v-256c0-10.097-8.188-18.286-18.286-18.286h-256.001c-10.099 0-18.286 8.188-18.286 18.286v256zM574.073 777.143c0 10.099 8.185 18.286 18.286 18.286h256c10.097 0 18.286-8.187 18.286-18.286v-256c0-10.097-8.188-18.286-18.286-18.286h-256c-10.101 0-18.286 8.188-18.286 18.286v256zM171.786 374.857c0 10.097 8.187 18.286 18.286 18.286h256.001c10.097 0 18.286-8.188 18.286-18.286v-256c0-10.097-8.188-18.286-18.286-18.286h-256.001c-10.099 0-18.286 8.188-18.286 18.286v256zM574.073 374.857c0 10.097 8.185 18.286 18.286 18.286h256c10.097 0 18.286-8.188 18.286-18.286v-256c0-10.097-8.188-18.286-18.286-18.286h-256c-10.101 0-18.286 8.188-18.286 18.286v256z" />
<glyph unicode="&#xe906;" glyph-name="grid-list" d="M241.321 813.714c-29.098 0-57.004-11.559-77.58-32.135s-32.135-48.482-32.135-77.58v-512c0-29.1 11.559-57.004 32.135-77.579s48.482-32.135 77.58-32.135h511.999c29.1 0 57.004 11.56 77.583 32.135 20.575 20.575 32.132 48.479 32.132 77.579v512c0 29.098-11.557 57.004-32.132 77.58-20.579 20.575-48.483 32.135-77.583 32.135h-511.999zM779.18 166.14c-6.857-6.857-16.161-10.712-25.86-10.712h-219.429v585.143h219.429c9.699 0 19.003-3.853 25.86-10.711 6.861-6.859 10.712-16.161 10.712-25.86v-512c0-9.699-3.851-19.003-10.712-25.86zM204.75 704c0 10.099 4.093 19.242 10.712 25.86s15.761 10.711 25.86 10.711h219.427v-585.143h-219.427c-20.198 0-36.571 16.373-36.571 36.571v512z" />
<glyph unicode="&#xe907;" glyph-name="grid-list-fill" horiz-adv-x="1061" d="M863.035 795.429c10.101 0 18.286-8.187 18.286-18.286v-658.286c0-10.097-8.185-18.286-18.286-18.286h-256c-10.097 0-18.286 8.188-18.286 18.286v658.286c0 10.099 8.188 18.286 18.286 18.286h256zM460.749 795.429c10.101 0 18.286-8.187 18.286-18.286v-658.286c0-10.097-8.185-18.286-18.286-18.286h-255.999c-10.099 0-18.286 8.188-18.286 18.286v658.286c0 10.099 8.187 18.286 18.286 18.286h255.999z" />
<glyph unicode="&#xe908;" glyph-name="Conversation-1" d="M265.357 747.911c-9.699 0-19.001-3.853-25.86-10.711s-10.711-16.161-10.711-25.86v-496.851l83.854 83.855c6.859 6.857 16.161 10.712 25.86 10.712h438.859c9.699 0 18.999 3.851 25.86 10.712 6.857 6.857 10.712 16.161 10.712 25.86v365.714c0 9.699-3.855 19.001-10.712 25.86-6.861 6.859-16.161 10.711-25.86 10.711h-512.001zM187.777 788.919c20.575 20.575 48.482 32.135 77.58 32.135h512.001c29.096 0 57.004-11.559 77.579-32.135s32.135-48.482 32.135-77.58v-365.714c0-29.1-11.56-57.004-32.135-77.579s-48.483-32.135-77.579-32.135h-423.71l-135.574-135.574c-10.459-10.459-26.19-13.59-39.855-7.929s-22.576 18.995-22.576 33.788v585.142c0 29.098 11.559 57.004 32.135 77.58z" />
<glyph unicode="&#xe909;" glyph-name="Conversation-2" d="M513.031 821.053c-48.026 0-95.583-9.459-139.952-27.838-44.372-18.379-84.688-45.317-118.648-79.277-68.585-68.585-107.115-161.607-107.115-258.598-0.32-84.451 28.92-166.349 82.651-231.497l-73.143-73.143c-5.075-5.142-8.512-11.674-9.879-18.768s-0.602-14.435 2.199-21.094c3.037-6.579 7.962-12.109 14.147-15.887s13.354-5.632 20.596-5.325h329.143c96.995 0 190.014 38.532 258.6 107.114 68.582 68.586 107.114 161.605 107.114 258.6 0 96.991-38.532 190.014-107.114 258.598-68.586 68.585-161.605 107.115-258.6 107.115zM513.031 162.768h-241.006l34.011 34.011c6.811 6.85 10.635 16.121 10.635 25.783s-3.823 18.929-10.635 25.783c-47.887 47.832-77.708 110.789-84.382 178.147-6.674 67.354 10.213 134.941 47.782 191.242s93.497 97.834 158.255 117.524c64.757 19.69 134.338 16.317 196.89-9.543s114.198-72.607 146.147-132.278c31.949-59.67 42.222-128.574 29.063-194.966-13.155-66.395-48.925-126.175-101.215-169.154-52.286-42.979-117.862-66.498-185.545-66.549z" />
<glyph unicode="&#xe90a;" glyph-name="Facebook" horiz-adv-x="989" d="M415.158 792.016c39.731 39.732 93.618 62.053 149.808 62.053h105.931c19.502 0 35.31-15.809 35.31-35.31v-141.241c0-19.501-15.808-35.31-35.31-35.31h-105.931v-70.621h105.931c10.872 0 21.14-5.011 27.832-13.58s9.061-19.746 6.423-30.293l-35.31-141.241c-3.927-15.72-18.051-26.748-34.255-26.748h-70.621v-247.172c0-19.502-15.808-35.31-35.31-35.31h-141.241c-19.502 0-35.31 15.808-35.31 35.31v247.172h-70.621c-19.501 0-35.31 15.808-35.31 35.31v141.241c0 19.502 15.809 35.31 35.31 35.31h70.621v70.621c0 56.189 22.32 110.077 62.054 149.809zM564.966 783.448c-37.461 0-73.385-14.881-99.872-41.369-26.49-26.488-41.37-62.413-41.37-99.873v-105.931c0-19.502-15.808-35.31-35.31-35.31h-70.621v-70.621h70.621c19.502 0 35.31-15.808 35.31-35.31v-247.172h70.621v247.172c0 19.502 15.808 35.31 35.31 35.31h78.361l17.655 70.621h-96.016c-19.502 0-35.31 15.808-35.31 35.31v105.931c0 18.73 7.44 36.692 20.685 49.936s31.207 20.684 49.936 20.684h70.621v70.621h-70.621z" />
<glyph unicode="&#xe90b;" glyph-name="Facebook-Full" d="M731.429 813.714h-109.714c-48.497 0-95.009-19.265-129.298-53.558-34.293-34.292-53.559-80.803-53.559-129.299v-109.714h-109.714v-146.286h109.714v-292.571h146.286v292.571h109.714l36.571 146.286h-146.286v109.714c0 9.699 3.855 19.001 10.712 25.86s16.161 10.711 25.86 10.711h109.714v146.286z" />
<glyph unicode="&#xe90c;" glyph-name="Google" d="M109.714 850.286h804.571v-804.571h-804.571v804.571z" />
<glyph unicode="&#xe90d;" glyph-name="Heart-1" horiz-adv-x="1061" d="M810.862 710.251c-38.996 38.593-90.503 61.979-145.225 65.935s-109.056-11.776-153.198-44.358c-46.53 34.61-104.448 50.304-162.088 43.921s-110.719-34.368-148.551-78.32c-37.832-43.952-57.605-100.605-55.339-158.553s26.405-112.881 67.554-153.746l219.429-221.257c20.571-20.546 48.457-32.084 77.531-32.084s56.96 11.538 77.531 32.084l219.429 221.257c21.61 21.116 38.835 46.292 50.684 74.086 11.853 27.794 18.092 57.655 18.363 87.867s-5.431 60.181-16.775 88.183c-11.348 28.002-28.12 53.485-49.346 74.985zM759.296 437.427l-219.429-219.429c-3.401-3.427-7.446-6.148-11.9-8.005-4.458-1.854-9.238-2.812-14.065-2.812s-9.607 0.958-14.065 2.812c-4.454 1.858-8.499 4.579-11.9 8.005l-219.429 219.429c-28.681 29.319-44.741 68.703-44.741 109.714 0 41.015 16.060 80.398 44.741 109.715 29.226 28.855 68.644 45.035 109.715 45.035 41.070 0 80.486-16.18 109.714-45.035 3.401-3.428 7.446-6.148 11.9-8.005 4.458-1.857 9.238-2.813 14.065-2.813s9.607 0.956 14.065 2.813c4.454 1.857 8.499 4.577 11.9 8.005 30.018 23.885 67.774 35.886 106.072 33.716 38.301-2.171 74.459-18.363 101.584-45.488s43.315-63.284 45.488-101.582c2.172-38.301-9.83-76.058-33.715-106.075z" />
<glyph unicode="&#xe90e;" glyph-name="Heart-2" horiz-adv-x="1061" d="M810.862 710.251c-38.996 38.593-90.503 61.979-145.225 65.935s-109.056-11.776-153.198-44.358c-46.53 34.61-104.448 50.304-162.088 43.921s-110.719-34.368-148.551-78.32c-37.832-43.952-57.605-100.605-55.339-158.553s26.405-112.881 67.554-153.746l219.429-221.257c20.571-20.546 48.457-32.084 77.531-32.084s56.96 11.538 77.531 32.084l219.429 221.257c21.61 21.116 38.835 46.292 50.684 74.086 11.853 27.794 18.092 57.655 18.363 87.867s-5.431 60.181-16.775 88.183c-11.348 28.002-28.12 53.485-49.346 74.985z" />
<glyph unicode="&#xe90f;" glyph-name="Instagram" horiz-adv-x="1061" d="M329.143 777.143c-80.791 0-146.286-65.494-146.286-146.286v-365.714c0-80.79 65.494-146.286 146.286-146.286h365.714c80.79 0 146.286 65.496 146.286 146.286v365.714c0 80.791-65.496 146.286-146.286 146.286h-365.714zM109.714 630.857c0 121.187 98.241 219.429 219.429 219.429h365.714c121.187 0 219.429-98.241 219.429-219.429v-365.714c0-121.187-98.242-219.429-219.429-219.429h-365.714c-121.187 0-219.429 98.242-219.429 219.429v365.714zM529.682 558.109c-22.828 3.383-46.139-0.516-66.622-11.143s-37.094-27.447-47.47-48.059c-10.375-20.615-13.989-43.973-10.32-66.757 3.664-22.784 14.424-43.831 30.738-60.149 16.318-16.318 37.369-27.074 60.153-30.742 22.78-3.664 46.142-0.055 66.754 10.32 20.615 10.375 37.431 26.986 48.059 47.47 10.631 20.484 14.53 43.798 11.143 66.626-3.452 23.285-14.303 44.84-30.947 61.484-16.644 16.647-38.203 27.494-61.488 30.95zM429.371 611.888c34.139 17.714 72.997 24.213 111.042 18.571 38.806-5.755 74.734-23.838 102.477-51.581 27.743-27.739 45.824-63.667 51.58-102.477 5.639-38.045-0.856-76.899-18.571-111.038s-45.744-61.824-80.099-79.119c-34.355-17.291-73.289-23.311-111.261-17.2s-73.051 24.038-100.25 51.237c-27.195 27.195-45.124 62.274-51.234 100.25-6.11 37.972-0.091 76.906 17.201 111.261s44.976 62.38 79.115 80.096zM676.571 649.143c0 20.198 16.373 36.571 36.571 36.571h0.366c20.198 0 36.571-16.374 36.571-36.571s-16.373-36.571-36.571-36.571h-0.366c-20.198 0-36.571 16.374-36.571 36.571z" />
<glyph unicode="&#xe910;" glyph-name="Instagram-Full" horiz-adv-x="1061" d="M512 538.697c-17.938 0-35.474-5.317-50.388-15.287-14.914-9.966-26.54-24.13-33.404-40.7-6.864-16.574-8.66-34.812-5.16-52.403 3.496-17.595 12.134-33.755 24.821-46.438 12.683-12.687 28.844-21.325 46.438-24.821 17.591-3.5 35.829-1.704 52.403 5.16 16.571 6.864 30.735 18.491 40.7 33.404 9.969 14.914 15.287 32.45 15.287 50.388 0 11.911-2.344 23.706-6.905 34.71-4.557 11.001-11.238 20.999-19.661 29.422s-18.421 15.104-29.422 19.661c-11.004 4.56-22.799 6.905-34.71 6.905zM875.154 628.297c-0.194 28.242-5.394 56.226-15.36 82.651-7.34 19.337-18.699 36.897-33.324 51.522s-32.187 25.983-51.522 33.324c-26.427 9.967-54.411 15.168-82.651 15.36-47.177 2.56-61.074 2.56-180.297 2.56s-133.12 0-180.297-2.56c-28.242-0.192-56.226-5.393-82.651-15.36-19.337-7.341-36.897-18.698-51.522-33.324s-25.983-32.185-33.324-51.522c-9.967-26.425-15.168-54.41-15.36-82.651-2.56-47.177-2.56-61.074-2.56-180.297s0-133.12 2.56-180.297c0.394-28.343 5.587-56.411 15.36-83.017 7.308-19.248 18.656-36.707 33.28-51.2 14.562-14.713 32.161-26.072 51.566-33.28 26.425-9.966 54.41-15.166 82.651-15.36 47.177-2.56 61.074-2.56 180.297-2.56s133.12 0 180.297 2.56c28.24 0.194 56.225 5.394 82.651 15.36 19.405 7.208 37.003 18.567 51.566 33.28 14.625 14.493 25.973 31.952 33.28 51.2 9.958 26.555 15.155 54.656 15.36 83.017 2.56 47.177 2.56 61.074 2.56 180.297s0 133.12-2.56 180.297zM782.263 335.726c-1.174-22.568-5.99-44.8-14.263-65.829-7.099-17.543-17.653-33.477-31.035-46.863-13.385-13.381-29.319-23.936-46.863-31.035-21.23-7.812-43.582-12.134-66.194-12.8-28.891 0-36.571 0-111.909 0s-83.017 0-111.909 0c-22.612 0.666-44.965 4.988-66.194 12.8-18.136 6.74-34.513 17.492-47.909 31.451-13.251 13.118-23.485 28.968-29.989 46.446-7.842 21.208-12.046 43.586-12.434 66.194 0 28.891 0 36.571 0 111.909s0 83.017 0 111.909c0.388 22.608 4.592 44.987 12.434 66.194 6.739 18.136 17.491 34.513 31.451 47.909 13.178 13.18 29.011 23.402 46.446 29.989 21.229 7.811 43.582 12.134 66.194 12.8 28.891 0 36.571 0 111.909 0s83.017 0 111.909 0c22.612-0.666 44.965-4.989 66.194-12.8 18.136-6.739 34.512-17.491 47.909-31.451 13.25-13.12 23.486-28.969 29.989-46.446 7.812-21.229 12.134-43.582 12.8-66.194 0-28.891 0-36.571 0-111.909s2.56-83.017 1.463-111.909v-0.366zM723.749 607.817c-4.356 11.813-11.22 22.541-20.122 31.444s-19.632 15.768-31.444 20.122c-16.219 5.622-33.306 8.346-50.469 8.046-28.526 0-36.571 0-109.714 0s-81.189 0-109.714 0c-17.251-0.169-34.337-3.388-50.469-9.509-11.632-4.157-22.247-10.741-31.138-19.317s-15.854-18.945-20.428-30.42c-5.311-16.289-7.906-33.339-7.68-50.469 0-28.526 0-36.571 0-109.714s0-81.189 0-109.714c0.362-17.232 3.576-34.286 9.509-50.469 4.354-11.813 11.219-22.543 20.122-31.444s19.63-15.766 31.444-20.122c15.605-5.738 32.026-8.949 48.64-9.509 28.526 0 36.571 0 109.714 0s81.189 0 109.714 0c17.251 0.168 34.337 3.387 50.469 9.509 11.813 4.356 22.543 11.22 31.444 20.122s15.766 19.632 20.122 31.444c6.122 16.132 9.34 33.218 9.509 50.469 0 28.526 0 36.571 0 109.714s0 81.189 0 109.714c0.011 17.269-3.215 34.388-9.509 50.469v-0.366zM512 308.297c-18.33 0-36.476 3.617-53.405 10.642s-32.307 17.32-45.25 30.299c-12.943 12.976-23.201 28.379-30.182 45.327-6.978 16.947-10.547 35.105-10.5 53.435 0 27.644 8.203 54.671 23.57 77.652s37.208 40.887 62.757 51.452c25.549 10.562 53.658 13.308 80.764 7.888 27.11-5.424 52.001-18.765 71.526-38.338 19.522-19.573 32.801-44.5 38.148-71.625 5.35-27.125 2.531-55.227-8.101-80.746-10.628-25.52-28.592-47.312-51.613-62.621-23.022-15.305-50.070-23.439-77.714-23.365zM658.286 560.274c-8.086 0.856-15.565 4.674-21.003 10.715-5.438 6.045-8.448 13.886-8.448 22.016s3.010 15.971 8.448 22.015c5.438 6.043 12.917 9.861 21.003 10.717 8.086-0.856 15.565-4.673 21.003-10.717s8.448-13.885 8.448-22.015c0-8.13-3.010-15.971-8.448-22.016-5.438-6.042-12.917-9.86-21.003-10.715z" />
<glyph unicode="&#xe911;" glyph-name="Like" horiz-adv-x="1061" d="M475.429 850.286c-14.453 0-27.549-8.511-33.419-21.718l-136.633-307.425h-85.948c-29.098 0-57.004-11.56-77.58-32.135s-32.135-48.483-32.135-77.579v-256c0-29.1 11.559-57.004 32.135-77.579s48.482-32.135 77.58-32.135h522.050c26.379-0.245 51.968 9.026 72.075 26.116 20.151 17.13 33.445 40.993 37.416 67.145l50.469 329.136c2.384 15.726 1.324 31.781-3.109 47.056-4.436 15.272-12.138 29.4-22.572 41.403-10.437 11.999-23.358 21.588-37.87 28.101-14.438 6.48-30.113 9.761-45.937 9.615h-170.236v109.714c0 38.798-15.411 76.006-42.847 103.44-27.432 27.434-64.64 42.846-103.439 42.846zM365.714 118.857h-18.286v365.714l146.286 292.571 31.978-10.66c13.879-4.626 23.665-17.078 24.883-31.658l13.488-161.861c1.58-18.955 17.423-33.536 36.443-33.536h198.985c22.075 0 39.12-19.412 36.264-41.3l-45.316-347.429c-2.377-18.216-17.894-31.843-36.264-31.843h-11.096c-0.333-0.004-0.666-0.007-0.998-0.004l-376.368 0.004zM292.571 448v-329.143h-73.143c-9.699 0-19.001 3.855-25.86 10.712s-10.711 16.161-10.711 25.86v256c0 9.699 3.853 19.003 10.711 25.86s16.161 10.712 25.86 10.712h73.143z" />
<glyph unicode="&#xe912;" glyph-name="Linkedin" horiz-adv-x="1061" d="M109.714 557.714c0 20.198 16.374 36.571 36.571 36.571h146.286c20.198 0 36.571-16.373 36.571-36.571v-438.857c0-20.198-16.374-36.571-36.571-36.571h-146.286c-20.198 0-36.571 16.373-36.571 36.571v438.857zM182.857 521.143v-365.714h73.143v365.714h-73.143zM841.143 374.857v6.682c0 73.271-44.61 139.162-112.64 166.374-44.895 17.957-95.141 17.009-139.326-2.629l-10.258-4.557c-53.438-23.749-92.021-71.958-103.49-129.298v-256h73.143v213.493c0 47.225 30.219 89.15 75.019 104.086 22.521 7.504 46.87 7.504 69.391 0 44.8-14.936 75.019-56.861 75.019-104.086v-213.493h73.143v219.429zM477.268 555.875c48.007 48.011 113.123 74.982 181.018 74.982s133.010-26.971 181.018-74.982c48.011-48.007 74.982-113.123 74.982-181.018v-256c0-20.198-16.373-36.571-36.571-36.571h-146.286c-20.198 0-36.571 16.373-36.571 36.571v256c0 9.699-3.855 19.003-10.712 25.86s-16.161 10.712-25.86 10.712c-9.699 0-19.003-3.855-25.86-10.712s-10.712-16.161-10.712-25.86v-256c0-20.198-16.373-36.571-36.571-36.571h-146.286c-20.198 0-36.571 16.373-36.571 36.571v256c0 67.895 26.971 133.010 74.982 181.018zM219.429 777.143c-20.198 0-36.571-16.374-36.571-36.571s16.374-36.571 36.571-36.571c20.198 0 36.571 16.374 36.571 36.571s-16.374 36.571-36.571 36.571zM109.714 740.571c0 60.593 49.121 109.714 109.714 109.714s109.714-49.121 109.714-109.714c0-60.593-49.121-109.714-109.714-109.714s-109.714 49.121-109.714 109.714z" />
<glyph unicode="&#xe913;" glyph-name="Mail" d="M219.429 704c-20.031 0-36.571-16.541-36.571-36.571v-438.857c0-20.030 16.541-36.571 36.571-36.571h585.143c20.030 0 36.571 16.541 36.571 36.571v438.857c0 20.031-16.541 36.571-36.571 36.571h-585.143zM109.714 667.429c0 60.426 49.288 109.714 109.714 109.714h585.143c60.427 0 109.714-49.288 109.714-109.714v-438.857c0-60.427-49.287-109.714-109.714-109.714h-585.143c-60.426 0-109.714 49.287-109.714 109.714v438.857zM116.328 688.4c11.583 16.547 34.386 20.571 50.933 8.988l344.742-241.321 344.741 241.321c16.549 11.583 39.351 7.559 50.933-8.988s7.559-39.35-8.989-50.933l-365.714-256.001c-12.592-8.814-29.352-8.814-41.944 0l-365.714 256.001c-16.547 11.583-20.571 34.386-8.988 50.933z" />
<glyph unicode="&#xe914;" glyph-name="Share-2" d="M731.429 265.143c-40.397 0-73.143-32.746-73.143-73.143s32.746-73.143 73.143-73.143c40.397 0 73.143 32.746 73.143 73.143s-32.746 73.143-73.143 73.143zM585.143 192c0 80.79 65.496 146.286 146.286 146.286s146.286-65.496 146.286-146.286c0-80.79-65.496-146.286-146.286-146.286s-146.286 65.496-146.286 146.286zM292.571 521.143c-40.396 0-73.143-32.746-73.143-73.143s32.747-73.143 73.143-73.143c40.396 0 73.143 32.746 73.143 73.143s-32.747 73.143-73.143 73.143zM146.286 448c0 80.79 65.494 146.286 146.286 146.286 80.79 0 146.286-65.496 146.286-146.286s-65.496-146.286-146.286-146.286c-80.791 0-146.286 65.496-146.286 146.286zM355.694 411.191c10.171 17.452 32.56 23.355 50.011 13.188l249.783-145.554c17.452-10.171 23.355-32.56 13.184-50.011-10.167-17.452-32.56-23.355-50.011-13.184l-249.783 145.554c-17.45 10.167-23.353 32.56-13.184 50.008zM731.429 777.143c-40.397 0-73.143-32.747-73.143-73.143s32.746-73.143 73.143-73.143c40.397 0 73.143 32.747 73.143 73.143s-32.746 73.143-73.143 73.143zM585.143 704c0 80.791 65.496 146.286 146.286 146.286s146.286-65.494 146.286-146.286c0-80.791-65.496-146.286-146.286-146.286s-146.286 65.494-146.286 146.286zM668.295 667.213c10.181-17.445 4.29-39.839-13.155-50.019l-249.417-145.554c-17.445-10.181-39.837-4.293-50.018 13.151s-4.291 39.841 13.154 50.022l249.417 145.553c17.445 10.18 39.837 4.291 50.019-13.153z" />
<glyph unicode="&#xe915;" glyph-name="Star-1" d="M512 850.286c13.919 0 26.635-7.902 32.794-20.384l104.507-211.715 233.706-34.159c13.769-2.015 25.205-11.67 29.499-24.909s0.699-27.765-9.271-37.478l-169.077-164.681 39.899-232.653c2.355-13.718-3.288-27.586-14.548-35.771-11.264-8.181-26.196-9.26-38.517-2.779l-208.991 109.908-208.988-109.908c-12.322-6.48-27.253-5.402-38.516 2.779-11.263 8.185-16.904 22.053-14.551 35.771l39.903 232.653-169.077 164.681c-9.97 9.713-13.564 24.24-9.272 37.478s15.728 22.894 29.499 24.909l233.706 34.159 104.503 211.715c6.162 12.482 18.875 20.384 32.794 20.384zM512 731.090l-80.212-162.5c-5.321-10.785-15.605-18.26-27.502-20.001l-179.429-26.225 129.804-126.427c8.626-8.404 12.564-20.513 10.528-32.38l-30.626-178.567 160.417 84.363c10.657 5.603 23.387 5.603 34.044 0l160.413-84.363-30.625 178.567c-2.033 11.867 1.902 23.976 10.529 32.38l129.803 126.427-179.427 26.225c-11.9 1.741-22.181 9.216-27.505 20.001l-80.212 162.5z" />
<glyph unicode="&#xe916;" glyph-name="Star-2" horiz-adv-x="1061" d="M402.736 591.163l128 219.427 109.714-237.712 237.714-36.571-182.857-164.571 36.571-237.714-201.143 109.714-237.713-109.714 54.857 237.714-182.857 164.571 237.713 54.857zM521.359 832c6.96 0 13.316-3.951 16.395-10.192l108.756-220.326 243.207-35.55c6.886-1.006 12.603-5.833 14.749-12.453s0.351-13.883-4.637-18.739l-175.967-171.392 41.531-242.132c1.178-6.861-1.646-13.795-7.278-17.883-5.628-4.092-13.096-4.63-19.259-1.39l-217.498 114.381-217.501-114.381c-6.161-3.24-13.627-2.703-19.258 1.39-5.632 4.089-8.452 11.023-7.276 17.883l41.528 242.132-175.967 171.392c-4.985 4.857-6.782 12.12-4.636 18.739s7.864 11.447 14.75 12.453l243.205 35.55 108.756 220.326c3.083 6.241 9.439 10.192 16.399 10.192zM521.359 772.402l-96.611-195.718c-2.659-5.391-7.801-9.132-13.751-9.999l-216.068-31.583 156.33-152.265c4.313-4.202 6.282-10.258 5.264-16.19l-36.89-215.088 193.212 101.606c5.328 2.805 11.696 2.805 17.024 0l193.214-101.606-36.89 215.088c-1.020 5.932 0.951 11.988 5.263 16.19l156.332 152.265-216.068 31.583c-5.95 0.867-11.092 4.608-13.755 9.999l-96.607 195.718z" />
<glyph unicode="&#xe917;" glyph-name="Twitter-Full" horiz-adv-x="1061" d="M923.644 776.775c-35.024-24.703-73.797-43.597-114.834-55.954-22.027 25.325-51.299 43.275-83.858 51.422s-66.834 6.098-98.194-5.871c-31.356-11.968-58.28-33.278-77.133-61.047-18.849-27.769-28.716-60.658-28.266-94.219v-36.573c-64.271-1.664-127.956 12.588-185.382 41.494-57.427 28.905-106.814 71.563-143.763 124.176 0 0-146.286-329.144 182.859-475.43-75.319-51.123-165.042-76.76-256.001-73.143 329.144-182.857 731.43 0 731.43 420.573-0.037 10.187-1.013 20.349-2.926 30.354 37.325 36.81 63.664 83.284 76.069 134.217z" />
<glyph unicode="&#xe918;" glyph-name="Unlike" horiz-adv-x="1061" d="M781.542 777.135c11.739 0.208 23.146-3.902 32.051-11.548 8.371-7.186 13.992-17.025 15.941-27.84v-250.378c-1.949-10.814-7.57-20.656-15.941-27.838-8.905-7.647-20.312-11.758-32.051-11.549l-0.647 0.004h-61.074v329.144l61.722 0.005zM270.064 777.134h394.899v-365.713l-146.286-292.571-31.978 10.657c-13.879 4.626-23.665 17.079-24.88 31.66l-13.491 161.861c-1.58 18.955-17.423 33.536-36.443 33.536h-198.984c-22.076 0-39.119 19.408-36.264 41.3l45.317 347.429c2.376 18.215 17.895 31.841 36.264 31.841h11.514c0.11 0 0.221 0 0.332 0zM861.235 821.088c-22.418 19.244-51.098 29.621-80.633 29.185h-509.691c-26.379 0.244-51.965-9.026-72.069-26.114-20.153-17.13-33.444-40.997-37.418-67.146l-50.468-329.138c-2.387-15.726-1.326-31.781 3.108-47.053 4.434-15.276 12.137-29.403 22.573-41.403 10.436-12.003 23.357-21.592 37.867-28.105 14.441-6.48 30.113-9.761 45.939-9.615h170.234v-109.714c0-38.795 15.415-76.003 42.847-103.439 27.436-27.432 64.644-42.847 103.439-42.847 14.453 0 27.553 8.514 33.423 21.72l136.631 307.423h73.585c29.535-0.435 58.214 9.944 80.633 29.188 22.506 19.317 37.138 46.23 41.114 75.626 0.219 1.624 0.329 3.262 0.329 4.901v256.001c0 1.639-0.11 3.277-0.329 4.902-3.975 29.395-18.608 56.307-41.114 75.628z" />
<glyph unicode="&#xe919;" glyph-name="Whatsapp" d="M677.010 375.534c-9.033 4.535-53.577 26.478-61.879 29.477-8.302 3.035-14.336 4.535-20.37-4.535-6.034-9.033-23.406-29.477-28.709-35.511-5.266-6.034-10.569-6.766-19.602-2.231-26.693 10.628-51.335 25.823-72.814 44.91-19.811 18.311-36.795 39.461-50.395 62.757-5.266 9.070-0.549 13.97 3.986 18.469 4.059 4.059 9.070 10.569 13.568 15.872 3.727 4.575 6.78 9.662 9.070 15.104 1.207 2.498 1.766 5.259 1.631 8.031-0.132 2.772-0.958 5.467-2.399 7.841-2.267 4.535-20.37 49.115-27.904 67.254-7.351 17.627-14.811 15.25-20.407 15.543-5.266 0.256-11.301 0.329-17.335 0.329-4.59-0.128-9.103-1.205-13.257-3.162s-7.859-4.754-10.88-8.212c-10.239-9.697-18.346-21.419-23.805-34.42-5.459-13.005-8.15-27.001-7.902-41.099 2.937-34.169 15.787-66.732 36.974-93.696 38.835-58.225 92.145-105.348 154.697-136.741 16.874-7.248 34.11-13.623 51.639-19.090 18.48-5.614 38.016-6.828 57.051-3.547 12.606 2.553 24.547 7.695 35.065 15.097s19.387 16.907 26.046 27.911c5.939 13.531 7.771 28.515 5.266 43.081-2.231 3.803-8.265 6.034-17.335 10.569zM768.146 707.565c-62.175 62.158-144.816 99.606-232.543 105.369s-174.559-20.548-244.331-74.038c-69.771-53.489-117.728-130.511-134.941-216.726s-2.509-175.748 41.374-251.926l-51.419-187.794 192.146 50.359c53.146-28.939 112.691-44.101 173.202-44.105h0.146c71.684 0.037 141.747 21.317 201.34 61.158 59.593 39.837 106.043 96.446 133.475 162.673 27.436 66.227 34.626 139.096 20.663 209.408-13.963 70.309-48.453 134.904-99.112 185.621v0zM671.854 195.968c-47.978-30.073-103.45-46.029-160.073-46.043h-0.146c-53.947 0.004-106.898 14.515-153.307 42.021l-11.008 6.51-114.030-29.915 30.427 111.177-7.131 11.41c-31.651 50.472-47.624 109.199-45.899 168.752s21.069 117.255 55.588 165.815c34.519 48.558 82.661 85.79 138.338 106.988 55.68 21.198 116.396 25.409 174.468 12.102s110.892-43.536 151.786-86.863c40.891-43.327 68.019-97.807 77.948-156.552 9.933-58.741 2.22-119.113-22.159-173.473s-64.329-100.272-114.801-131.928z" />
<glyph unicode="&#xe91a;" glyph-name="Youtube" d="M512.015 777.143c0.004 0 0.007 0 0.007-36.571v-36.571l-2.761-0.004c-1.829-0.004-4.535-0.012-8.002-0.029-6.941-0.033-16.94-0.098-29.144-0.228-24.422-0.261-57.596-0.783-92.676-1.826-35.141-1.044-71.904-2.602-103.593-4.913-32.479-2.369-56.613-5.347-68.636-8.513-10.924-3.138-20.837-9.082-28.753-17.242-7.721-7.961-13.277-17.757-16.147-28.456-10.955-61.208-16.312-123.284-16.004-185.467l0.002-0.41c-0.392-62.435 4.925-124.774 15.888-186.236 3.168-10.156 8.779-19.387 16.351-26.88 7.933-7.852 17.75-13.531 28.51-16.494 11.971-3.182 36.171-6.173 68.79-8.554 31.688-2.311 68.451-3.869 103.593-4.912 35.079-1.042 68.253-1.565 92.676-1.829 12.204-0.128 22.203-0.194 29.144-0.227 3.467-0.018 6.173-0.026 8.002-0.029h5.519c1.832 0.004 4.535 0.011 8.005 0.029 6.938 0.033 16.94 0.099 29.14 0.227 24.422 0.263 57.596 0.786 92.679 1.829 35.138 1.042 71.903 2.6 103.592 4.912 32.479 2.37 56.613 5.347 68.634 8.514 10.924 3.138 20.838 9.081 28.752 17.243 7.724 7.958 13.279 17.755 16.15 28.453 10.869 60.745 16.223 122.346 16.004 184.053l-0.004 0.362c0.395 62.651-4.959 125.206-16 186.877-2.871 10.7-8.426 20.496-16.15 28.457-7.823 8.067-17.602 13.968-28.376 17.133-12.434 2.925-36.656 5.621-68.784 7.76-31.751 2.115-68.564 3.539-103.724 4.493-35.109 0.952-68.304 1.43-92.738 1.668-12.211 0.119-22.217 0.179-29.162 0.208l-10.778 0.030v36.571c0 36.571-0.004 36.571-0.007 36.571l2.922-0.004c1.883-0.004 4.645-0.012 8.174-0.027 7.062-0.030 17.203-0.091 29.564-0.211 24.708-0.241 58.35-0.724 94.007-1.692 35.602-0.966 73.487-2.422 106.602-4.627 32.172-2.142 62.702-5.148 81.927-9.843 0.428-0.105 0.856-0.217 1.28-0.338 23.409-6.623 44.657-19.306 61.594-36.768 16.94-17.462 28.968-39.085 34.875-62.685l-35.474-8.88 35.99 6.492c11.992-66.476 17.818-133.918 17.404-201.465 0.227-66.538-5.599-132.959-17.404-198.44-0.146-0.805-0.315-1.602-0.516-2.392-5.906-23.6-17.935-45.224-34.875-62.687-16.936-17.459-38.184-30.142-61.594-36.765l-0.508-0.139c-19.515-5.222-50.311-8.528-82.469-10.873-33.178-2.421-71.113-4.016-106.737-5.076-35.686-1.061-69.347-1.587-94.069-1.854-12.365-0.132-22.513-0.197-29.583-0.23-3.533-0.015-6.294-0.026-8.181-0.029l-2.907-0.004-2.937 0.004c-1.887 0.004-4.652 0.015-8.185 0.029-7.066 0.033-17.214 0.099-29.583 0.23-24.722 0.267-58.383 0.794-94.065 1.854-35.626 1.061-73.561 2.655-106.741 5.076-32.157 2.344-62.952 5.65-82.468 10.873l-0.203 0.051c-22.933 6.276-43.86 18.359-60.759 35.087-16.899 16.724-29.199 37.522-35.711 60.39-0.331 1.159-0.603 2.337-0.818 3.525-11.99 66.469-17.815 133.903-17.404 201.443-0.319 67.032 5.507 133.957 17.404 199.928 0.144 0.802 0.316 1.599 0.514 2.39 5.907 23.6 17.937 45.223 34.876 62.685s38.185 30.145 61.594 36.768l0.507 0.14c19.516 5.219 50.311 8.525 82.468 10.87 33.18 2.42 71.115 4.016 106.741 5.075 35.683 1.060 69.343 1.589 94.065 1.854 12.368 0.132 22.517 0.198 29.583 0.231 3.533 0.016 6.298 0.025 8.185 0.029l2.915 0.004zM411.344 608.344c11.257 6.548 25.147 6.616 36.465 0.178l210.286-119.588c11.432-6.502 18.494-18.64 18.494-31.792s-7.062-25.289-18.494-31.788l-210.286-119.589c-11.319-6.44-25.209-6.371-36.465 0.176-11.257 6.55-18.183 18.589-18.183 31.612v239.177c0 13.023 6.927 25.065 18.183 31.613zM466.304 513.861v-113.437l99.734 56.719-99.734 56.719z" />
<glyph unicode="&#xe91b;" glyph-name="Youtube-Full" horiz-adv-x="1061" d="M881.192 698.17c12.456-12.842 21.303-28.745 25.648-46.102 11.604-64.318 17.236-129.573 16.823-194.926 0.234-64.377-5.398-128.644-16.823-192-4.345-17.357-13.191-33.258-25.648-46.102s-28.083-22.17-45.301-27.041c-62.903-16.823-314.514-16.823-314.514-16.823s-251.61 0-314.513 16.823c-16.866 4.615-32.257 13.502-44.685 25.801-12.428 12.303-21.474 27.6-26.263 44.416-11.602 64.318-17.233 129.573-16.823 194.926-0.32 64.867 5.311 129.624 16.823 193.463 4.344 17.356 13.192 33.259 25.649 46.102s28.083 22.171 45.299 27.041c62.903 16.823 314.513 16.823 314.513 16.823s251.611 0 314.514-15.36c17.218-4.871 32.845-14.198 45.301-27.041zM429.93 338.289l219.429 128-219.429 109.711v-237.711z" />
<glyph unicode="&#xe91c;" glyph-name="American-Express" horiz-adv-x="1553" d="M1512.61 960h-1472.703c-22.082 0-39.907-18.141-39.907-40.613v-942.638c0-22.472 17.825-40.613 39.907-40.613h1472.571c22.079 0 39.906 18.141 39.906 40.613v942.638c0.132 22.473-17.828 40.613-39.774 40.613zM381.909 492.134l-4.786 10.693v-0.542c0-13.672-10.911-24.774-24.345-24.774h-71.699c-9.844 0-18.756 5.959-22.481 15.301l-7.316 18.138h-40.971l-7.449-18.409c-3.725-9.206-12.637-15.165-22.348-15.165h-38.178c-8.114 0-15.963 4.063-20.352 11.102s-5.321 15.704-1.995 23.42l63.186 150.135c3.725 9.206 12.637 15.027 22.348 15.027h52.411c9.711 0 18.49-5.821 22.348-15.027l13.169-31.272v21.525c0 13.673 10.908 24.774 24.476 24.774h57.598c9.447 0 18.092-5.686 22.082-14.486l23.014-51.038 21.018 50.226c3.726 9.206 12.638 15.162 22.346 15.162h58.665c5.054 0 9.312-1.895 13.17-4.468 3.855 2.572 8.113 4.468 13.167 4.468h117.859c4.39 0 8.648-1.625 12.106-3.791 3.591 2.166 7.581 3.791 12.106 3.791h81.144c20.883 0 38.175-0.812 54.804-10.424 1.731-1.083 2.927-2.301 4.525-3.52 3.855 8.123 11.971 13.944 21.547 13.944h36.051c12.103 0 21.682-9.206 23.545-21.119 15.697 13.944 37.247 21.119 66.111 21.119h34.056c5.454 0 10.64-1.76 14.63-5.009 4.126 3.249 9.18 5.009 14.633 5.009h52.812c9.576 0 18.488-5.957 22.346-15.027l12.902-30.866v21.119c0 13.673 10.911 24.774 24.477 24.774h53.743c8.38 0 16.361-4.468 20.751-11.913l16.761-28.294v15.433c0 13.673 11.039 24.774 24.477 24.774h36.048c13.434 0 24.345-11.101 24.345-24.774v-150.136c0-13.672-11.043-24.774-24.345-24.774h-50.017c-8.512 0-16.493 4.469-20.883 11.915l-21.682 36.418v-23.559c0-13.672-11.043-24.774-24.345-24.774h-71.832c-9.711 0-18.624 5.959-22.482 15.165l-7.449 18.138h-40.706l-7.181-18.003c-3.594-9.342-12.638-15.568-22.482-15.568h-41.237c-15.697 0-43.897 2.976-63.851 20.034-2.263-11.238-11.575-20.034-23.413-20.034h-35.916c-3.99 0-7.716 1.351-11.039 3.112-3.458-1.761-7.052-3.112-11.043-3.112h-35.516c-13.434 0-24.345 11.099-24.345 24.639l-0.132 18.951v3.386c0 2.031 0 5.008-0.132 7.581-1.595 0.135-3.726 0.135-6.917 0.135h-13.302v-29.785c0-13.537-11.043-24.771-24.477-24.771h-35.252c-4.522 0-8.512 1.622-12.238 3.924-3.591-2.302-7.581-3.924-12.106-3.924h-117.724c-5.054 0-9.312 1.893-13.17 4.601-3.858-2.709-8.113-4.601-13.17-4.601h-36.048c-13.434 0-24.345 11.099-24.345 24.771v0.542l-4.786-10.422c-3.858-9.071-12.506-14.891-22.35-14.891h-30.994c-9.312 0.132-18.092 6.091-21.95 15.026zM1354.977 218.941h-68.773c-9.976 0-18.624 6.227-22.35 15.162-13.434-9.748-30.994-15.162-52.941-15.162h-68.773c-3.858 0-7.317 1.219-10.643 2.57-3.191-1.486-6.785-2.57-10.643-2.57h-117.592c-3.99 0-7.581 1.219-10.907 2.705-3.326-1.622-6.785-2.705-10.775-2.705h-35.384c-13.434 0-24.345 11.099-24.345 24.774v21.795c0 2.031 0 5.414-0.132 7.987-1.595 0.135-3.858 0.271-7.185 0.271h-13.302v-30.188c0-13.675-10.907-24.774-24.341-24.774h-35.384c-13.438 0-24.345 11.099-24.345 24.774v38.175c-12.635-7.581-29.795-12.589-53.74-12.589h-19.555v-25.587c0-13.675-10.907-24.774-24.341-24.774h-68.509c-6.917 0-13.57 3.112-18.224 8.258l-25.408 29.376-26.868-29.782c-4.525-5.011-11.175-7.852-17.96-7.852h-139.541c-13.434 0-24.345 11.099-24.345 24.774v150.27c0 13.807 11.043 24.91 24.345 24.91h141.936c6.917 0 13.434-3.115 18.092-8.258l25.673-28.973 26.736 29.243c4.525 5.143 11.043 7.987 17.692 7.987h112.673c24.741 0 42.034-5.688 54.407-13.811 3.99 8.123 11.971 13.811 21.682 13.811h81.408c18.624 0 36.847-0.677 53.876-10.019 1.863-1.083 3.059-2.438 4.79-3.657 3.99 7.987 11.971 13.675 21.415 13.675h117.727c9.18 0 16.761-5.417 20.883-12.998 11.575 7.987 27.139 12.998 46.559 12.998h70.636c10.643 0 19.288-7.042 22.746-16.652 11.974 10.015 28.603 16.652 50.681 16.652h70.636c13.438 0 24.345-11.238 24.345-24.91v-31.952c0-8.796-4.258-16.516-11.043-20.847 0.135-0.271 0.4-0.406 0.667-0.677 11.971-12.724 17.425-28.295 17.425-49.278-0.132-45.218-29.798-72.156-79.68-72.156zM807.715 571.874c9.312 3.657 24.873 15.978 24.873 39.939 0 16.787-6.782 26.533-17.824 33.302-11.439 6.769-24.741 7.175-42.833 7.175h-81.012v-150.269h35.252v54.556h37.779c12.77 0 20.619-1.219 25.805-6.362 6.385-7.175 5.589-20.173 5.589-29.24l0.132-18.954h35.516v29.511c0 13.404-0.932 20.173-5.853 27.618-2.927 4.466-9.711 9.612-17.425 12.724zM786.564 590.828c-4.922-3.112-10.643-3.247-17.428-3.247h-42.833v33.435h43.5c5.985 0 12.503-0.268 16.625-2.705 4.525-2.167 7.452-6.768 7.452-13.269 0-6.633-2.795-11.911-7.317-14.214zM889.126 652.29h-35.916v-150.269h35.916v150.269zM1270.374 652.29v-104.649l-61.988 104.649h-53.74v-142.011l-59.729 142.011h-52.809l-49.885-118.185h-15.829c-9.18 0-19.023 1.896-24.477 7.852-6.785 7.445-9.711 19.089-9.711 35.064 0 15.839 4.126 27.615 10.111 34.116 6.917 6.904 14.234 8.935 27.136 8.935h33.521v32.219h-34.185c-24.209 0-42.037-5.55-53.608-17.464-15.033-16.109-18.891-36.417-18.891-58.754 0-27.212 6.385-44.541 18.891-57.4 12.103-12.727 33.921-16.652 51.081-16.652h41.237l13.302 33.439h73.295l13.702-33.439h71.832v112.769l66.91-112.769h50.017v150.269h-36.184zM1043.572 566.867l24.209 59.838 24.477-59.838h-48.686zM979.71 595.291c-8.248 0-9.18-0.948-10.111-1.896-0.264-0.406-2.791-5.82-2.791-16.245s1.728-15.297 2.791-17.464c1.199-0.406 3.458-0.677 6.917-0.677l15.297 36.283h-12.103zM1120.999 362.701v31.14h-117.724v-150.135h117.724v31.136l-82.607 0.135v29.782h80.612v30.598h-80.612v27.209h82.607v0.135zM765.817 393.837h-112.67l-44.828-49.142-43.368 49.142h-141.933v-149.999h139.674l45.096 49.684 43.497-49.684h68.509v50.090h43.897c30.994 0 61.457 8.664 61.457 50.496 0.132 41.561-31.262 49.548-59.329 49.413zM544.867 274.974h-86.601v29.785h77.421v30.73h-77.421v27.212h88.328l38.711-43.593-40.438-44.134zM684.805 257.242l-54.14 61.324 54.14 59.161v-120.485zM765.417 324.658h-45.492v38.179h45.892c12.77 0 21.55-5.282 21.55-18.412 0-12.995-8.38-19.767-21.95-19.767zM958.702 313.579c9.312 3.792 25.009 15.839 25.009 39.936 0 17.193-7.049 26.535-18.092 33.439-11.707 6.23-24.609 7.175-42.569 7.175h-81.276v-150.132h35.384v54.692h37.647c12.902 0 20.619-1.219 25.937-6.497 6.385-7.039 5.589-20.444 5.589-29.379v-18.815h35.384v29.782c0 13.266-0.667 20.173-5.721 27.347-2.927 4.060-9.312 9.477-17.292 12.453zM937.551 332.262c-4.79-2.844-10.643-3.115-17.428-3.115h-42.965v33.709h43.5c6.118 0 12.503-0.135 16.761-2.57 4.522-2.438 7.317-7.178 7.317-13.54 0-6.497-2.662-11.776-7.185-14.485zM1255.738 323.055c-7.981 8.123-21.151 11.508-40.438 11.915l-18.891 0.538c-5.985 0-9.976 0.406-13.702 1.761-4.522 1.761-7.713 5.553-7.713 11.238 0 4.601 1.463 8.258 5.321 10.831 3.591 2.434 7.713 2.841 14.23 2.841h64.651v31.949h-70.636c-36.98 0-50.414-22.878-50.414-44.673 0-47.517 41.37-45.353 74.227-46.437 6.118 0 9.844-1.080 12.635-3.383 2.395-2.031 4.126-5.549 4.126-9.883 0-4.060-1.595-7.445-3.99-9.748-3.059-2.976-7.716-3.653-14.501-3.653h-68.241v-32.22h68.509c35.516 0 55.471 15.026 55.471 47.381-0.135 15.162-3.858 24.368-10.643 31.543zM463.855 652.29l-42.301-101.804-46.159 101.804h-57.599v-142.282l-60.126 142.282h-52.278l-63.053-150.134h38.178l13.701 33.439h73.429l13.435-33.439h71.699v117.644l51.213-117.644h31.13l51.081 117.644 0.132-117.644h36.048v150.134h-58.53zM206.855 566.867l23.944 59.838 24.077-59.838h-48.022zM666.584 621.016v31.274h-117.859v-150.269h117.859v31.136h-82.475v30.053h80.48v30.733h-80.48v26.941h82.475v0.132zM1399.673 323.055c-7.981 8.123-21.151 11.508-40.174 11.915l-19.020 0.538c-5.985 0-9.844 0.406-13.702 1.761-4.258 1.761-7.584 5.553-7.584 11.238 0 4.601 1.331 8.258 5.321 10.831 3.458 2.434 7.716 2.841 14.101 2.841h64.651v31.949h-70.772c-36.844 0-50.414-22.878-50.414-44.673 0-47.517 41.37-45.353 74.359-46.437 6.121 0 9.844-1.080 12.638-3.383 2.395-2.031 4.258-5.549 4.258-9.883 0-4.060-1.731-7.445-4.126-9.748-3.059-2.976-7.713-3.653-14.234-3.653h-68.638v-32.22h68.773c35.516 0 55.204 15.026 55.204 47.381 0 15.162-3.591 24.368-10.643 31.543z" />
<glyph unicode="&#xe91d;" glyph-name="Boleto" horiz-adv-x="1376" d="M249.865 422.317c-40.136 0-77.244 0-117.38 0 0 178.63 0 356.647 0 535.277 39.379 0 76.486 0 117.38 0 0-177.406 0-354.813 0-535.277zM787.546 957.594c40.138 0 77.245 0 116.624 0 0-178.018 0-354.813 0-534.055-37.866 0-75.728 0-116.624 0 0 176.797 0 354.202 0 534.055zM1298.755 957.594c0-178.018 0-354.813 0-534.055-38.621 0-76.486 0-117.379 0 0 177.408 0 354.813 0 534.055 38.621 0 77.242 0 117.379 0zM550.531 958.188c32.563 0 62.099 0 93.904 0 0-178.629 0-356.648 0-535.276-31.805 0-61.341 0-93.904 0 0 177.405 0 354.811 0 535.276zM394.531 958.188c31.805 0 60.582 0 90.877 0 0-179.241 0-356.648 0-535.89-31.050 0-59.827 0-90.877 0 0 178.019 0 355.425 0 535.89zM68.141 422.317c-23.476 0-44.68 0-68.156 0 0 178.63 0 356.647 0 535.277 22.719 0 43.166 0 68.156 0 0-177.406 0-354.813 0-535.277zM968.563 422.317c0 179.242 0 356.036 0 535.277 23.475 0 45.437 0 69.67 0 0-178.018 0-356.035 0-535.277-23.475 0-44.682 0-69.67 0zM290.016 958.781c13.631 0 24.991 0 38.621 0 0-178.018 0-356.036 0-535.888-12.116-0.611-24.233-1.222-38.621-1.837 0 179.242 0 356.649 0 537.725zM701.235 958.188c14.387 0 25.747 0 38.621 0 0-178.629 0-356.037 0-535.89-12.115-0.611-24.234-0.611-38.621-1.222 0 179.853 0 357.259 0 537.112zM1338.109 958.188c13.632 0 24.234 0 37.866 0 0-178.018 0-355.423 0-535.276-11.36-0.614-23.475-1.226-37.866-1.837 0 179.242 0 356.647 0 537.112zM1109.424 421.072c-12.118 0.611-21.206 0.611-32.563 1.222 0 178.016 0 354.812 0 534.053 9.843 1.223 19.69 1.835 32.563 3.059 0-179.241 0-356.648 0-538.334zM330.128 89.293c14.102 8.746 23.13 23.696 23.13 42.029 0 29.053-23.693 53.027-53.028 53.027h-79.541v-197.443h86.028c30.464 0 55.002 24.541 55.002 55.002 0 22.003-12.973 39.488-31.59 47.386zM300.229 165.734c18.334 0 33.284-15.514 33.284-34.413 0-19.181-14.95-34.413-33.284-34.413h-59.797v68.826h59.797zM306.717 5.523h-66.284v72.771h66.284c19.462 0 35.258-16.358 35.258-36.387 0-20.307-15.795-36.384-35.258-36.384zM486.422-16.48c57.542 0 102.106 45.696 102.106 102.109 0 56.41-44.563 102.106-102.106 102.106-57.539 0-102.106-45.696-102.106-102.106 0-56.413 44.566-102.109 102.106-102.109zM486.422 2.701c-46.822 0-82.362 36.95-82.362 82.928 0 45.974 35.539 82.925 82.362 82.925s82.362-36.95 82.362-82.925c0-45.978-35.539-82.928-82.362-82.928zM642.038 5.523v178.826h-19.744v-197.443h110.003v18.618h-90.259zM780.314 5.523v71.642h87.44v18.618h-87.44v69.952h94.493v18.614h-114.237v-197.443h115.645v18.618h-95.901zM1034.246 184.349h-141.030v-18.614h60.643v-178.829h19.744v178.829h60.643v18.614zM1141.994-16.48c57.542 0 102.106 45.696 102.106 102.109 0 56.41-44.563 102.106-102.106 102.106-57.539 0-102.106-45.696-102.106-102.106 0-56.413 44.566-102.109 102.106-102.109zM1141.994 2.701c-46.822 0-82.362 36.95-82.362 82.928 0 45.974 35.539 82.925 82.362 82.925s82.362-36.95 82.362-82.925c0-45.978-35.539-82.928-82.362-82.928z" />
<glyph unicode="&#xe91e;" glyph-name="Elo" horiz-adv-x="2001" d="M62.084 163.523c-8.746 14.406-20.815 37.246-27.987 54.291-42.68 99.449-44.604 202.417-8.746 301.162 39.532 108.411 115.271 191.345 213.051 233.514 122.793 53.063 258.703 42.697 376.598-27.586 74.868-43.048 127.865-109.641 168.099-203.82 5.073-12.124 9.621-24.95 13.992-35.844l-735.007-321.718zM307.495 592.773c-87.284-37.601-132.238-119.834-122.968-216.295l369.601 159.893c-63.67 75.027-146.405 99.801-246.634 56.402zM600.134 245.048c-0.177 0-0.177-0.172-0.177-0.172l-7.694 5.269c-22.039-36.022-56.502-65.010-99.877-83.987-82.564-36.022-159.178-26.885-214.102 21.611l-5.073-7.731c0 0 0 0.177-0.175 0.177l-93.757-140.916c23.264-16.342 48.277-30.045 74.515-40.941 103.552-43.222 209.553-41.29 313.981 4.394 75.562 32.856 134.861 82.935 175.267 146.539l-142.909 95.758zM1053.891 960v-783.476l121.218-49.375-68.92-161.471-133.814 56.050c-30.087 13-50.548 33.033-65.941 55.696-14.871 23.021-25.889 54.644-25.889 97.168v785.408h173.345zM1368.017 376.166c0 66.765 29.384 126.507 75.739 167.271l-124.369 139.336c-84.308-74.851-137.486-184.317-137.658-306.434-0.177-121.94 53.001-231.578 137.309-306.781l124.193 139.511c-46.178 40.937-75.213 100.506-75.213 167.098zM1589.113 153.698c-24.488 0-48.1 4.217-70.139 11.422l-59.476-177.464c40.583-13.703 84.136-21.085 129.266-21.257 196.957-0.177 361.556 140.214 399.514 326.814l-182.612 37.423c-20.643-100.855-109.852-176.938-216.553-176.938zM1589.653 785.364c-45.13 0-88.688-7.38-129.266-20.909l58.945-177.64c22.044 7.38 45.656 11.421 70.144 11.421 107.050-0.176 196.259-76.608 216.548-177.991l182.616 37.25c-37.609 186.776-201.858 327.693-398.988 327.869z" />
<glyph unicode="&#xe91f;" glyph-name="Hipercard" horiz-adv-x="2389" d="M721.12 496.157c-4.003-19.446-6.905-40.799-10.908-63.097-4.008-21.894-12.020-44.198-9.669-65.414 5.388-48.82 73.616-49.225 101.517-20.261 23.064 23.932 42.125 83.363 35.084 130.822-8.153 54.804-88.674 50.86-116.024 17.95zM1036.449 522.392c-39.775-1.496-65.053-31.822-68.784-59.427h121.963c11.049 45.828-15.75 60.787-53.18 59.427zM722.364 526.857c-0.414-0.272-0.829-0.68-1.243-0.952 0.688 0 1.38 0.136 1.243 0.952zM1558.27 377.266c-7.734-61.601 67.404-54.394 94.198-28.555 20.441 19.714 25.688 55.208 30.247 83.222-61.464 7.344-118.092-3.535-124.445-54.667zM2044.991 521.173c-55.94-6.12-83.563-74.928-82.178-136.807 0.829-35.357 18.232-56.569 53.175-55.891 81.769 1.77 75.552 113.688 92.955 183.178-18.924 6.391-37.844 12.375-63.951 9.519zM655.931 960c-82.456 0-247.649 0-247.649 0-109.391-5.032-198.892-48.548-224.721-137.893-13.398-46.644-20.856-97.912-31.353-146.324-53.59-246.005-100.965-498.674-152.208-739.782h1927.875c149.031 0 251.377 31.008 279.001 147.412 12.844 54.126 25.137 115.317 37.43 174.885 47.928 231.724 95.856 463.45 144.891 701.703h-1733.266zM600.405 641.241c4.145 5.439 10.084 8.975 20.582 10.743 11.323 1.904 19.334 0.68 24.171-3.536 15.189-13.327 1.931-45.285-8.426-52.356-6.632-4.488-28.731-9.655-38.673 0-10.22 9.791-4.281 36.309 2.345 45.149zM427.618 301.129c9.393 58.207 21.409 113.688 31.353 171.213-48.48 4.488-108.977 2.448-159.39 1.224-12.293-55.35-20.856-114.23-30.248-172.437h-59.254c23.204 113.552 41.988 231.32 62.845 347.319h58.010c-9.669-45.557-16.713-93.697-26.519-139.117 51.933-3.808 106.905-1.768 160.633-1.224 8.425 46.508 16.713 92.881 24.169 140.341h60.362c-23.757-113.007-43.788-229.686-62.847-347.319h-59.116zM538.804 301.129c16.574 79.282 32.046 159.52 43.51 243.831-0.141 1.632-0.141 3.4 1.243 3.536h51.795c-17.959-79.553-32.183-162.507-44.754-247.367h-51.795zM814.217 308.204c-32.734-17.408-110.080-25.975-121.958 19.037-10.498-42.837-15.472-91.112-22.928-136.806h-51.936c23.342 117.36 45.441 235.944 64.088 357.926h44.754c-0.414-7.888-3.179-13.463-3.594-21.35 0-0.136 0-0.136 0-0.136 23.206 18.494 76.795 37.805 120.72 21.622 90.19-33.454 38.259-204.393-29.145-240.292zM1131.891 434.264c-56.076 1.36-114.361 1.77-170.301 0-8.699-36.581-8.563-78.599 18.096-95.193 35.357-22.031 94.886-4.35 129.278 8.299-2.209-13.6-5.803-25.975-7.183-40.389-83.285-19.992-187.568-22.981-196.959 59.426-6.49 57.797 15.887 121.166 43.51 149.86 22.513 23.39 54.282 33.997 91.848 36.853 42.818 3.264 84.943-5.44 96.685-39.301 8.699-25.43-1.521-53.58-4.974-79.555zM1224.845 460.512c-16.16-46.1-19.334-111.104-26.517-159.383h-51.936c15.745 81.189 32.319 161.694 43.51 247.367h45.856c-3.038-13.599-4.696-28.694-8.426-41.613 16.852 28.966 53.038 59.971 99.031 41.613-1.38-12.919-5.383-23.255-6.076-36.853-48.757 17.134-82.456-14.279-95.442-51.131zM1472.492 308.204c-67.813-23.118-151.654-19.856-170.301 40.389-16.018 51.536 6.632 133.267 41.023 168.897 35.221 36.309 101.517 43.381 171.544 32.094-1.794-13.599-4.696-26.246-6.076-40.389-42.681 14.687-96.134 19.039-123.207-7.071-19.612-18.903-32.319-60.79-35.079-95.191-1.243-15.233 0-35.357 4.832-47.596 16.438-41.886 87.294-32.095 124.445-13.058-2.623-12.371-4.14-25.971-7.183-38.073zM1728.571 415.227c-6.632-37.942-12.849-72.075-13.263-114.23h-44.749c-0.692 14.551 1.38 26.38 3.589 38.073-21.406-33.724-83.285-58.339-134.11-36.849-26.385 11.147-40.194 50.995-27.765 91.521 18.51 60.514 88.81 74.654 175.138 66.633 3.867 10.469 9.114 24.614 6.076 38.076-9.255 40.253-104.697 17.135-135.358 9.519 3.179 13.463 7.046 26.246 9.669 40.389 61.464 1.768 171.266 24.886 175.133-40.389 1.799-28.422-8.699-60.381-14.36-92.744zM1822.764 390.339c-5.247-32.090-11.737-56.432-12.015-89.21h-53.175c17.403 79.965 32.319 162.372 44.749 247.367h45.856c-4.003-11.967-4.14-27.606-8.426-39.301 14.921 22.71 53.18 60.652 99.035 38.077-3.452-10.879-4.559-24.070-7.183-35.629-81.354 22.574-97.651-52.628-108.841-121.304zM2125.941 301.129h-47.099c0.273 13.6 3.038 24.752 4.832 36.854-0.965 3.131-6.354-7.748-9.669-11.83-4.418-5.573-11.323-13.463-18.091-17.813-34.806-22.577-103.868-16.184-128.039 10.742-13.951 15.638-17.818 37.396-18.096 59.426-1.38 113.959 76.795 206.16 204.142 166.451 7.739 35.221 13.678 72.21 18.096 110.559h51.931c-20.855-116.679-48.894-226.152-58.007-354.391z" />
<glyph unicode="&#xe920;" horiz-adv-x="1741" d="M1740.8 447.928c0 281.135-230.154 512.072-516.557 512.072-123.546 0-235.895-41.808-325.721-114.046 67.441-63.991 120.675-144.762 146.074-236.483h-42.185c-28.126 80.629-73.039 153.009-134.738 211.455-61.699-58.445-106.612-130.826-134.735-211.455h-42.185c28.122 91.863 78.633 172.491 146.070 236.483-89.965 72.239-199.448 114.046-322.99 114.046-283.534 0-513.833-230.937-513.833-512.072 0-281.132 230.299-512.072 516.7-512.072 123.546 0 235.895 44.51 322.85 114.046-67.441 63.993-117.948 144.763-146.070 236.483h42.185c28.122-80.626 73.035-153.009 134.735-211.453 61.699 58.443 109.483 130.826 134.735 211.453h42.185c-28.122-91.86-78.63-172.489-146.070-236.483 89.825-72.38 202.175-114.046 325.717-114.046 283.679 0.143 513.833 231.079 513.833 512.072z" />
<glyph unicode="&#xe921;" horiz-adv-x="1741" d="M1361.848 328.329l36.448 189.273h44.913l5.594-19.483c8.465 8.39 22.385 19.483 50.507 19.483l-14.060-50.057c-14.063 0-36.448 2.843-53.378-52.9l-16.79-86.316h-53.234z" />
<glyph unicode="&#xe922;" horiz-adv-x="1741" d="M673.812 564.835h50.507l-11.192-50.057h28.126l-8.465-38.963h-25.255l-14.063-75.083c-2.724-13.937 0-27.873 28.126-22.327l-5.598-41.807c-11.192-8.39-25.252-8.39-39.315-8.39-11.192 0-50.507 8.39-42.185 58.443l39.315 178.183z" />
<glyph unicode="&#xe923;" horiz-adv-x="1741" d="M898.522 411.802c5.598 30.573 19.657 105.8-70.164 105.8-84.227 0-95.42-83.473-95.42-94.566-2.871-11.090-2.871-94.563 87.098-94.563 22.525 0 53.374 2.843 67.437 8.39l8.465 38.963c-8.465-2.703-36.444-5.547-58.972-5.547-19.657 0-53.378 0-47.783 41.807h109.339z" />
<glyph unicode="&#xe924;" horiz-adv-x="1741" d="M623.309 473.112l11.192 38.963c-25.255 8.39-44.913 8.39-50.507 8.39-8.468 0-70.168 0-78.633-44.506-8.465-36.12 5.594-50.057 16.787-55.603 19.661-8.39 30.85-16.637 42.185-22.327 14.063-5.543 11.192-27.87-5.594-27.87-8.465 0-42.185-2.703-67.441 5.547l-8.465-38.963c25.255-5.547 42.185-5.547 61.699-5.547 14.063 0 75.762-2.843 84.227 52.9 5.598 27.87-8.465 38.963-16.787 47.353-11.192 5.547-25.255 16.637-36.448 19.48-11.192 5.547-19.657 22.183 0 27.873 8.468-2.987 33.72-2.987 47.783-5.69z" />
<glyph unicode="&#xe925;" horiz-adv-x="1741" d="M286.407 328.332l44.912 228.236h-87.097l-61.7-139.216-11.192 139.216h-81.502l-44.912-228.236h50.508l33.72 164.243 14.062-164.243h47.782l72.892 161.399-30.85-161.399h53.377z" />
<glyph unicode="&#xe926;" horiz-adv-x="1741" d="M345.385 512.055l-8.465-41.81c14.063 0 47.78 5.547 64.57 5.547 16.787 0 39.315 2.843 30.85-25.027-14.063 0-106.612 13.933-120.674-66.836-5.596-38.963 28.123-58.447 53.376-58.447 25.255 0 33.72 5.547 42.185 11.093l5.598-11.093h47.78l19.661 102.956c5.594 25.027 14.060 86.316-73.039 86.316-11.336 2.843-28.122 2.843-61.843-2.7z" />
<glyph unicode="&#xe927;" horiz-adv-x="1741" d="M1184.935 503.671c-14.063 8.39-22.528 8.39-39.315 8.39-16.79 0-56.105-16.64-61.703-61.15-8.465-55.6 28.126-80.77 81.36-63.99l14.063-47.353c-16.79-8.39-33.72-11.093-61.703-11.093-53.378 0-112.35 47.357-87.095 144.763 19.657 69.536 81.5 97.41 117.944 94.566 42.185-2.847 58.976-16.64 70.168-30.573l-33.72-33.56z" />
<glyph unicode="&#xe928;" horiz-adv-x="1741" d="M1625.719 495.285c-11.192 8.39-16.79 22.327-39.315 22.327-28.126 0-73.039 5.547-98.29-80.63-16.79-58.443 16.787-108.5 53.378-108.5 16.787 0 33.72 8.39 44.913 13.937l5.594-13.937h56.105l45.053 239.186h-53.374l-14.063-72.383z" />
<glyph unicode="&#xe929;" horiz-adv-x="1741" d="M1221.369 512.055l-8.465-41.81c14.060 0 47.78 5.547 64.57 5.547 16.787 0 36.444 2.843 30.85-25.027-14.063 0-106.755 13.933-120.675-66.836-5.594-38.963 28.122-58.447 53.378-58.447s33.72 5.547 42.185 11.093l5.598-11.093h47.78l19.657 102.956c5.598 25.027 14.063 86.316-73.035 86.316-8.465 2.843-28.122 2.843-61.843-2.7z" />
<glyph unicode="&#xe92a;" horiz-adv-x="1741" d="M789.050 447.915h64.57c2.871 19.483-2.727 33.42-22.385 33.42-22.528 0-36.591-11.093-42.185-33.42z" />
<glyph unicode="&#xe92b;" horiz-adv-x="1741" d="M424.018 411.812c-8.465 0-28.122 5.547-44.913-5.543-16.787-11.093-22.528-30.573-2.867-36.12 16.787-5.547 39.315 5.547 44.909 22.327l2.871 19.337z" />
<glyph unicode="&#xe92c;" horiz-adv-x="1741" d="M1608.943 417.359c5.594 16.637 2.724 38.963-2.871 47.353-16.787 22.183-53.378 5.543-64.57-36.12-8.465-27.873 8.465-47.353 25.255-47.353 19.657 0 30.85 13.933 42.185 36.12z" />
<glyph unicode="&#xe92d;" horiz-adv-x="1741" d="M1302.869 411.812c-8.465 0-28.126 5.547-44.913-5.543-16.787-11.093-22.528-30.573-2.871-36.12 16.79-5.547 42.185 5.547 44.913 22.327l2.871 19.337z" />
<glyph unicode="&#xe92e;" horiz-adv-x="1741" d="M898.526 328.339l36.448 186.429h44.913l5.594-19.483c8.465 8.39 22.385 19.483 50.507 19.483l-14.060-50.057c-11.192 0-36.448 2.7-53.378-52.9l-16.79-86.316h-53.378z" />
<glyph unicode="&#xe92f;" horiz-adv-x="1741" d="M516.693 960c-227.428 0-421.281-147.464-488.577-350.672h668.224c28.126 91.864 78.633 172.492 146.074 236.484-92.696 69.679-205.046 114.189-325.721 114.189z" />
<glyph unicode="&#xe930;" horiz-adv-x="1741" d="M870.403 818.067c-61.703-58.445-106.755-127.982-134.738-211.456h269.616c-28.122 80.63-73.035 153.011-134.878 211.456z" />
<glyph unicode="&#xe931;" horiz-adv-x="1741" d="M1224.236 960c-123.546 0-235.895-41.808-325.721-114.046 67.441-63.991 117.948-144.762 146.074-236.483h668.225c-64.57 203.065-258.28 350.529-488.578 350.529z" />
<glyph unicode="&#xe932;" glyph-name="Visa" horiz-adv-x="3413" d="M1366.596 942.933l-173.165-991.737h277.176l173.548 991.737h-277.559zM960.84 942l-271.913-676.531-29.025 102.097c-53.954 122.782-206.078 299.837-384.302 411.042l248.345-827.016 293.534 0.375 437.282 990.032h-293.922zM554.54 870.614c-15.972 60.347-62.719 78.565-120.764 80.652h-430.075l-3.701-19.926c334.828-78.944 556.488-269.284 648.034-498.526l-93.495 437.8zM2206.474 752.581c90.767 1.328 156.604-17.839 207.831-37.764l24.931-11.576 37.396 215.199c-54.927 19.926-140.82 41.56-248.149 41.56-274.248 0-467.47-134.737-469.033-327.354-1.748-142.707 137.516-222.031 243.091-269.474 108.1-48.771 144.138-79.703 143.94-123.161-1.167-66.608-86.289-96.973-166.147-96.973-111.022 0-169.847 14.991-261.202 52.19l-35.642 15.558-38.96-222.031c65.058-27.518 184.852-51.425 309.316-52.756 291.779 0 481.3 133.216 483.055 338.93 1.167 112.912-72.847 198.879-232.96 269.473-97 45.924-156.406 76.667-156.017 123.161-0.389 41.181 50.060 85.017 158.549 85.017zM3188.756 942h-214.453c-66.615 0-115.889-17.838-145.306-82.55l-411.764-908.998h291.389c0 0 47.527 122.402 58.238 148.78 31.56 0 314.771-0.382 355.28-0.382 8.185-34.345 33.894-148.589 33.894-148.589h257.113l-224.393 991.739zM2846.529 302.475c22.985 56.741 110.831 277.254 110.831 277.254-1.556-2.847 22.596 57.311 36.816 94.506l18.889-85.397c0 0 53.18-236.833 64.28-286.363h-230.816z" />
<glyph unicode="&#xe933;" glyph-name="SSA" horiz-adv-x="839" d="M148.898 719.953c5.796 0 11.507-0.184 17.156-0.499 25.25 113.206 126.903 198.146 248.169 198.146 121.324 0 223.002-84.988 248.219-198.249 6.048 0.379 12.149 0.602 18.283 0.602 8.654 0 17.086-0.444 25.309-1.213-25.589 136.889-146.304 240.934-291.132 241.26h-1.358c-144.848-0.325-265.59-104.43-291.126-241.39 8.584 0.866 17.406 1.344 26.48 1.344zM159.536 507.771c-71.998 15.465-108.82 26.87-108.82 68.373 0 38.253 34.357 65.125 98.179 65.125 49.841 0 87.463-20.741 110.182-50.824-1.339-6.952-2.16-14.144-2.16-21.633 0-78.127 76.070-95.222 136.61-108.262 68.772-14.432 114.64-22.773 114.64-71.075 0-53.055-61.843-65.673-100.716-65.673-48.319 0-84.284 15.028-110.291 37.561 3.609 11.035 5.552 22.939 5.552 35.719 0 79.756-80.185 96.837-143.176 110.689zM838.621 289.43v247.27c-0.523 92.86-59.35 149.327-157.897 149.327-62.099 0-113.916-22.816-138.708-48.971-24.798 26.155-62.98 48.971-136.192 48.971-55.138 0-98.5-18.067-123.908-47.926-19.256 24.217-63.938 47.926-133.020 47.926-89.982 0-148.895-48.003-148.895-117.214 0-78.127 76.085-95.222 136.632-108.262 73.621-15.461 114.546-25.22 114.546-71.624 0-39.072-36.009-65.125-100.656-65.125-64.606 0-112.815 30.824-139.011 66.647-20.253-29.514-3.996-111.404 137.383-111.404 53.101 0 94.904 14.536 121.453 39.895 25.953-21.207 71.754-39.895 135.475-39.895 55.114 0 97.977 15.726 124.311 42.889 22.321-26.464 60.284-42.087 111.323-42.087 62.174 0 115.77 27.736 145.636 71.639v-8.929c0-43.249 32.834-53.12 51.528-53.125zM405.824 641.269c97.46 0 133.084-75.712 133.4-75.712 21.271 39.899 74.416 71.633 137.422 71.633 57.767 0 94.157-19.077 94.157-61.046 0-45.554-36.019-56.807-77.915-61.355-75.667-8.216-128.3-25.89-157.703-55.561-28.601 28.814-77.31 39.444-118.743 48.543-71.993 15.465-108.804 26.87-108.804 68.373 0 38.253 34.351 65.125 98.186 65.125zM786.255 454.024c0-80.986-59.709-130.223-139.893-130.223-53.183 0-85.079 25.247-85.079 64.308 0 53.253 62.784 71.784 156.352 85.073 34.769 4.944 60.412 17.145 68.619 33.97v-53.129zM690.678-46.689c0 0 7.991-8.651 21.408-8.651 7.696 0 14.401 3.822 14.401 11.352 0 15.616-38.66 11.776-38.66 35.063 0 12.765 11.549 19.721 24.535 19.721 15.127 0 22.11-7.804 22.11-7.804l-4.424-7.38c0 0-6.13 6.524-17.962 6.524-7.283 0-14.272-3.125-14.272-11.061 0-15.757 38.655-11.502 38.655-35.063 0-11.644-10.123-20.012-24.53-20.012-17.403 0-26.541 10.355-26.541 10.355l5.28 6.956zM635.2-55.34c15.409 0 27.96 12.482 27.96 29.087 0 16.199-12.551 28.239-27.96 28.239-15.403 0-27.955-12.041-27.955-28.239 0-16.605 12.552-29.087 27.955-29.087zM635.2 10.796c20.966 0 37.947-15.907 37.947-37.049 0-21.566-16.981-37.747-37.947-37.747s-37.948 16.181-37.948 37.747c0 21.142 16.983 37.049 37.948 37.049zM557.458 0.141h-9.416v8.104h9.559v20.568h9.563v-20.568h17.968v-8.104h-17.968v-35.469c0-16.755 10.701-18.891 16.117-18.891 1.998 0 3.282 0.3 3.282 0.3v-8.669c0 0-1.568-0.282-4.137-0.282-8.273 0-24.967 2.701-24.967 26.545v36.467zM470.165 9.092h9.563v-10.646c0-3.125-0.294-5.685-0.294-5.685h0.294c2.557 6.524 11.691 18.035 28.661 18.035 17.696 0 23.966-10.090 23.966-27.674v-45.418h-9.699v42.858c0 11.22-1.705 21.151-15.546 21.151-12.262 0-22.822-8.377-26.104-20.162-0.855-2.984-1.137-6.232-1.137-9.64v-34.207h-9.704v71.389zM441.785-19.156c-0.577 14.901-9.7 21.857-20.406 21.857-11.975 0-22.396-7.53-24.672-21.857h45.078zM421.674 10.796c19.829 0 29.951-15.183 29.951-32.936 0-1.686-0.288-4.97-0.288-4.97h-55.061c0.431-18.308 12.982-28.231 27.82-28.231 13.128 0 21.825 8.651 21.825 8.651l4.425-7.371c0 0-10.411-9.94-26.539-9.94-21.396 0-37.508 15.334-37.508 37.323 0 23.428 15.975 37.473 35.374 37.473zM260.634 9.092h9.553v-10.646c0-3.125-0.295-5.685-0.295-5.685h0.295c3.429 9.657 14.843 18.035 25.962 18.035 13.264 0 20.118-6.109 22.256-17.885h0.289c3.848 9.649 14.261 17.885 26.387 17.885 17.397 0 23.824-10.090 23.824-27.674v-45.418h-9.705v42.999c0 11.635-2.427 21.283-15.544 21.283-10.983 0-19.971-9.649-22.682-20.145-1.001-3.134-1.29-6.524-1.29-10.364v-33.774h-9.705v42.999c0 10.796-1.556 21.283-15.102 21.283-11.714 0-20.553-10.072-23.547-21.010-0.714-2.975-1.003-6.241-1.003-9.498v-33.774h-9.694v71.389zM227.547 9.092h9.694v-71.389h-9.694v71.389zM227.258 37.473h10.129v-12.058h-10.129v12.058zM191.603 37.473h9.687v-80.755c0-9.366 4.279-10.778 7.995-10.778 1.279 0 2.418 0.141 2.418 0.141v-8.669c0 0-1.71-0.282-3.559-0.282-5.988 0-16.541 1.854-16.541 17.452v82.891zM136.536 27.118c0 0-2.135-8.245-3.849-12.915l-13.399-36.202h34.512l-13.118 36.202c-1.719 4.67-3.852 12.915-3.852 12.915h-0.294zM156.8-30.517h-40.376l-11.414-31.779h-10.407l36.8 99.769h10.559l36.806-99.769h-10.417l-11.55 31.779zM797.594 145.803h13.406v-12.498c0-2.974-0.293-5.395-0.293-5.395h0.293c3.282 10.512 11.703 18.732 22.828 18.732 1.85 0 3.565-0.276 3.565-0.276v-13.624c0 0-1.861 0.428-3.994 0.428-8.845 0-16.983-6.249-20.258-16.891-1.284-4.11-1.709-8.518-1.709-12.916v-29.389h-13.836v71.828zM742.251 84.199c13.699 0 24.813 10.793 24.813 25.831 0 14.903-11.115 25.544-24.813 25.544-13.553 0-24.821-10.641-24.821-25.544 0-15.039 11.268-25.831 24.821-25.831zM742.251 147.494c21.537 0 38.944-15.753 38.944-37.463 0-21.855-17.407-37.741-38.944-37.741-21.544 0-38.95 15.886-38.95 37.741 0 21.711 17.406 37.463 38.95 37.463zM652.676 84.199c10.684 0 20.819 7.522 20.819 25.831 0 12.775-6.705 25.544-20.395 25.544-11.412 0-20.829-9.358-20.829-25.685 0-15.612 8.415-25.69 20.405-25.69zM650.805 147.494c16.703 0 22.267-11.351 22.267-11.351h0.277c0 0-0.277 2.134-0.277 4.83v33.212h13.841v-100.21h-13.128v6.818c0 2.833 0.142 4.831 0.142 4.831h-0.284c0 0-5.85-13.335-23.676-13.335-19.545 0-31.825 15.327-31.825 37.6 0 22.853 13.565 37.605 32.665 37.605zM569.22 83.349c11.703 0 19.263 12.207 19.263 22.848v2.269h-3.572c-10.407 0-29.239-0.704-29.239-13.619 0-5.816 4.56-11.497 13.548-11.497zM585.2 118.83h3.141v1.284c0 11.784-6.712 15.754-15.822 15.754-11.137 0-20.124-6.958-20.124-6.958l-5.708 10.088c0 0 10.417 8.497 26.959 8.497 18.266 0 28.537-9.932 28.537-28.095v-45.424h-12.846v6.818c0 3.272 0.289 5.681 0.289 5.681h-0.289c0 0-5.84-14.185-23.11-14.185-12.405 0-24.527 7.514-24.527 21.853 0 23.698 31.372 24.688 43.5 24.688zM466.099 145.803h14.684l17.548-48.543c1.421-3.974 2.287-9.801 2.434-9.801h0.282c0.141 0 1.132 5.827 2.557 9.801l17.555 48.543h14.547l-26.67-71.828h-15.98l-26.959 71.828zM437.283 174.185h13.836v-78.197c0-8.66 3.43-10.223 7.702-10.223 1.29 0 2.427 0.139 2.427 0.139v-12.203c0 0-2.144-0.291-4.567-0.291-7.838 0-19.399 2.136-19.399 20.157v80.618zM384.516 83.349c11.686 0 19.261 12.207 19.261 22.848v2.269h-3.574c-10.417 0-29.252-0.704-29.252-13.619 0-5.816 4.563-11.497 13.565-11.497zM400.479 118.83h3.151v1.284c0 11.784-6.712 15.754-15.844 15.754-11.13 0-20.111-6.958-20.111-6.958l-5.704 10.088c0 0 10.411 8.497 26.964 8.497 18.255 0 28.526-9.932 28.526-28.095v-45.424h-12.841v6.818c0 3.272 0.284 5.681 0.284 5.681h-0.284c0 0-5.846-14.185-23.104-14.185-12.415 0-24.536 7.514-24.536 21.853 0 23.698 31.378 24.688 43.5 24.688zM288.089 96.118c0 0 10.696-10.788 25.673-10.788 9.423 0 17.396 5.259 17.396 14.774 0 21.705-48.779 17.027-48.779 47.823 0 15.613 13.553 27.97 32.527 27.97 18.68 0 28.533-10.088 28.533-10.088l-6.423-11.644c0 0-9.276 8.659-22.11 8.659-10.702 0-18.25-6.667-18.25-14.615 0-20.72 48.774-15.184 48.774-47.683 0-15.47-11.98-28.237-31.956-28.237-21.396 0-33.371 13.188-33.371 13.188l7.986 10.641zM192.957 84.199c13.689 0 24.821 10.793 24.821 25.831 0 14.903-11.132 25.544-24.821 25.544-13.563 0-24.825-10.641-24.825-25.544 0-15.039 11.262-25.831 24.825-25.831zM192.957 147.494c21.538 0 38.933-15.753 38.933-37.463 0-21.855-17.396-37.741-38.933-37.741-21.543 0-38.944 15.886-38.944 37.741 0 21.711 17.401 37.463 38.944 37.463zM105.654 83.349c11.69 0 19.261 12.207 19.261 22.848v2.269h-3.575c-10.408 0-29.24-0.704-29.24-13.619 0-5.816 4.567-11.497 13.554-11.497zM101.086 174.326c9.563 0 11.843-9.651 17.971-9.651 4.279 0 5.564 5.114 5.564 9.212h9.987c0-11.768-4.843-18.011-14.553-18.011-9.552 0-11.843 9.649-17.967 9.649-4.285 0-5.568-4.966-5.568-9.227h-9.982c0 11.924 4.849 18.028 14.549 18.028zM121.628 118.83h3.14v1.284c0 11.784-6.7 15.754-15.833 15.754-11.132 0-20.122-6.958-20.122-6.958l-5.7 10.088c0 0 10.413 8.497 26.964 8.497 18.26 0 28.526-9.932 28.526-28.095v-45.424h-12.835v6.818c0 3.272 0.284 5.681 0.284 5.681h-0.284c0 0-5.85-14.185-23.115-14.185-12.405 0-24.532 7.514-24.532 21.853 0 23.698 31.384 24.688 43.506 24.688zM9.226 96.118c0 0 10.708-10.788 25.68-10.788 9.418 0 17.407 5.259 17.407 14.774 0 21.705-48.784 17.027-48.784 47.823 0 15.613 13.542 27.97 32.527 27.97 18.686 0 28.526-10.088 28.526-10.088l-6.423-11.644c0 0-9.263 8.659-22.103 8.659-10.701 0-18.266-6.667-18.266-14.615 0-20.72 48.784-15.184 48.784-47.683 0-15.47-11.974-28.237-31.95-28.237-21.39 0-33.382 13.188-33.382 13.188l7.984 10.641z" />
<glyph unicode="&#xe934;" glyph-name="Calendrio" horiz-adv-x="989" d="M247.172 712.828c-19.501 0-35.31-15.809-35.31-35.31v-494.345c0-19.502 15.809-35.31 35.31-35.31h494.345c19.502 0 35.31 15.808 35.31 35.31v494.345c0 19.501-15.808 35.31-35.31 35.31h-494.345zM141.241 677.517c0 58.504 47.427 105.931 105.931 105.931h494.345c58.506 0 105.931-47.427 105.931-105.931v-494.345c0-58.506-47.425-105.931-105.931-105.931h-494.345c-58.504 0-105.931 47.425-105.931 105.931v494.345zM141.241 536.276c0 19.502 15.809 35.31 35.31 35.31h635.586c19.502 0 35.31-15.808 35.31-35.31s-15.808-35.31-35.31-35.31h-635.586c-19.501 0-35.31 15.808-35.31 35.31zM635.586 854.069c19.502 0 35.31-15.809 35.31-35.31v-141.241c0-19.501-15.808-35.31-35.31-35.31s-35.31 15.809-35.31 35.31v141.241c0 19.501 15.808 35.31 35.31 35.31zM353.103 854.069c19.502 0 35.31-15.809 35.31-35.31v-141.241c0-19.501-15.808-35.31-35.31-35.31s-35.31 15.809-35.31 35.31v141.241c0 19.501 15.809 35.31 35.31 35.31z" />
<glyph unicode="&#xe935;" glyph-name="Check" horiz-adv-x="989" d="M801.796 667.175c13.789-13.79 13.789-36.147 0-49.937l-388.414-388.413c-13.789-13.789-36.147-13.789-49.936 0l-176.552 176.552c-13.789 13.789-13.789 36.147 0 49.936s36.147 13.789 49.937 0l151.583-151.584 363.446 363.446c13.789 13.789 36.147 13.789 49.936 0z" />
<glyph unicode="&#xe936;" glyph-name="Check-Circle" d="M645.961 748.648c-64.834 28.887-137.267 36.044-206.497 20.402-69.233-15.642-131.554-53.245-177.669-107.2s-73.554-121.373-78.224-192.193c-4.67-70.824 13.679-141.261 52.31-200.803s95.475-105.004 162.053-129.602c66.578-24.598 139.326-27.012 207.389-6.89 68.067 20.125 127.803 61.714 170.299 118.561 42.5 56.847 65.481 125.912 65.521 196.886v33.627c0 20.198 16.373 36.571 36.571 36.571s36.571-16.373 36.571-36.571v-33.646c-0.051-86.751-28.138-171.18-80.080-240.662s-124.954-120.309-208.143-144.907c-83.189-24.594-172.101-21.643-253.477 8.422-81.373 30.062-150.849 85.625-198.065 158.398-47.216 72.777-69.643 158.863-63.935 245.427 5.708 86.561 39.244 168.958 95.608 234.903s132.533 111.903 217.15 131.022c84.619 19.118 173.147 10.371 252.387-24.936 18.45-8.221 26.741-29.84 18.52-48.29-8.218-18.45-29.839-26.741-48.289-18.521zM903.563 766.239c14.288-14.275 14.299-37.43 0.026-51.72l-365.714-366.081c-6.857-6.864-16.161-10.719-25.867-10.723-9.702-0.004-19.006 3.851-25.867 10.712l-109.714 109.714c-14.282 14.281-14.282 37.438 0 51.719s37.438 14.281 51.719 0l83.84-83.84 339.855 340.193c14.277 14.289 37.431 14.301 51.723 0.026z" />
<glyph unicode="&#xe937;" glyph-name="Circle-Close" d="M512 784.482c-181.78 0-329.143-147.362-329.143-329.142 0-181.782 147.362-329.143 329.143-329.143 181.782 0 329.143 147.361 329.143 329.143 0 181.78-147.361 329.142-329.143 329.142zM109.714 455.34c0 222.176 180.11 402.285 402.286 402.285s402.286-180.109 402.286-402.285-180.111-402.286-402.286-402.286c-222.176 0-402.286 180.111-402.286 402.286zM647.574 590.914c14.281-14.281 14.281-37.438 0-51.719l-219.429-219.429c-14.281-14.281-37.438-14.281-51.719 0s-14.282 37.438 0 51.719l219.429 219.429c14.281 14.282 37.438 14.282 51.719 0zM376.426 590.914c14.281 14.282 37.438 14.282 51.719 0l219.429-219.429c14.281-14.281 14.281-37.438 0-51.719s-37.438-14.281-51.719 0l-219.429 219.429c-14.282 14.281-14.282 37.438 0 51.719z" />
<glyph unicode="&#xe938;" glyph-name="Circle-Plus" d="M512 784.482c-181.78 0-329.143-147.362-329.143-329.142 0-181.782 147.362-329.143 329.143-329.143 181.782 0 329.143 147.361 329.143 329.143 0 181.78-147.361 329.142-329.143 329.142zM109.714 455.34c0 222.176 180.11 402.285 402.286 402.285s402.286-180.109 402.286-402.285-180.111-402.286-402.286-402.286c-222.176 0-402.286 180.111-402.286 402.286zM512 638.196c20.198 0 36.571-16.373 36.571-36.571v-292.571c0-20.198-16.373-36.571-36.571-36.571s-36.571 16.373-36.571 36.571v292.571c0 20.198 16.373 36.571 36.571 36.571zM329.143 455.34c0 20.198 16.374 36.571 36.571 36.571h292.571c20.198 0 36.571-16.373 36.571-36.571s-16.373-36.571-36.571-36.571h-292.571c-20.198 0-36.571 16.373-36.571 36.571z" />
<glyph unicode="&#xe939;" glyph-name="Clock" d="M512 777.143c-181.78 0-329.143-147.362-329.143-329.143 0-181.782 147.362-329.143 329.143-329.143 181.782 0 329.143 147.361 329.143 329.143 0 181.78-147.361 329.143-329.143 329.143zM109.714 448c0 222.176 180.11 402.286 402.286 402.286s402.286-180.11 402.286-402.286c0-222.175-180.111-402.286-402.286-402.286s-402.286 180.111-402.286 402.286zM512 704c20.198 0 36.571-16.374 36.571-36.571v-196.827l126.069-63.035c18.066-9.033 25.388-30.998 16.355-49.064s-30.998-25.388-49.064-16.355l-146.286 73.143c-12.39 6.195-20.217 18.856-20.217 32.709v219.429c0 20.198 16.373 36.571 36.571 36.571z" />
<glyph unicode="&#xe93a;" glyph-name="Delete" horiz-adv-x="989" d="M326.53 771.39c6.705 7.663 16.392 12.058 26.574 12.058h459.034c28.096 0 55.038-11.161 74.904-31.026s31.027-46.81 31.027-74.905v-423.724c0-28.096-11.162-55.038-31.027-74.904s-46.807-31.027-74.904-31.027h-459.034c-10.182 0-19.869 4.396-26.574 12.058l-247.172 282.483c-11.649 13.312-11.649 33.192 0 46.504l247.172 282.483zM369.127 712.828l-216.277-247.172 216.277-247.172h443.011c9.364 0 18.347 3.722 24.968 10.342s10.342 15.604 10.342 24.968v423.724c0 9.365-3.722 18.346-10.342 24.968s-15.604 10.342-24.968 10.342h-443.011zM731.175 596.554c13.789-13.789 13.789-36.147 0-49.936l-211.862-211.862c-13.789-13.789-36.147-13.789-49.936 0s-13.789 36.147 0 49.936l211.862 211.862c13.789 13.79 36.147 13.79 49.936 0zM469.377 596.554c13.789 13.79 36.147 13.79 49.936 0l211.862-211.862c13.789-13.789 13.789-36.147 0-49.936s-36.147-13.789-49.936 0l-211.862 211.862c-13.789 13.789-13.789 36.147 0 49.936z" />
<glyph unicode="&#xe93b;" glyph-name="Download" d="M168.178 374.857c20.198 0 36.571-16.373 36.571-36.571v-146.286c0-9.699 3.853-19.003 10.712-25.86s16.161-10.712 25.86-10.712h511.999c9.699 0 19.003 3.855 25.86 10.712 6.861 6.857 10.712 16.161 10.712 25.86v146.286c0 20.198 16.373 36.571 36.571 36.571s36.571-16.373 36.571-36.571v-146.286c0-29.1-11.557-57.004-32.132-77.579-20.579-20.575-48.483-32.135-77.583-32.135h-511.999c-29.098 0-57.004 11.56-77.58 32.135s-32.135 48.483-32.135 77.579v146.286c0 20.198 16.374 36.571 36.571 36.571zM288.605 547.003c14.282 14.281 37.438 14.281 51.72 0l156.996-156.997 156.997 156.997c14.285 14.281 37.438 14.281 51.719 0 14.285-14.281 14.285-37.438 0-51.719l-182.857-182.857c-14.281-14.281-37.435-14.281-51.719 0l-182.856 182.857c-14.282 14.281-14.282 37.438 0 51.719zM497.32 813.714c20.198 0 36.571-16.374 36.571-36.571v-438.857c0-20.198-16.373-36.571-36.571-36.571s-36.571 16.373-36.571 36.571v438.857c0 20.198 16.373 36.571 36.571 36.571z" />
<glyph unicode="&#xe93c;" glyph-name="Download-cloud" d="M339.854 291.003c14.282 14.281 37.439 14.281 51.72 0l120.426-120.426 120.426 120.426c14.281 14.281 37.438 14.281 51.719 0s14.281-37.438 0-51.719l-146.286-146.286c-14.281-14.281-37.438-14.281-51.719 0l-146.286 146.286c-14.282 14.281-14.282 37.438 0 51.719zM512 484.571c20.198 0 36.571-16.373 36.571-36.571v-329.143c0-20.198-16.373-36.571-36.571-36.571s-36.571 16.373-36.571 36.571v329.143c0 20.198 16.373 36.571 36.571 36.571zM390.137 813.93c49.752 1.789 99.266-7.732 144.808-27.847s85.928-50.3 118.118-88.281c25.984-30.66 46.080-65.756 59.37-103.514h18.973c46.632 0.030 92.091-14.796 129.73-42.33 37.643-27.538 65.536-66.359 79.623-110.822 14.087-44.467 13.637-92.262-1.28-136.455s-43.527-82.483-81.682-109.312c-16.523-11.619-39.333-7.643-50.951 8.876-11.619 16.523-7.643 39.336 8.88 50.955 25.435 17.887 44.507 43.41 54.455 72.872 9.944 29.466 10.244 61.33 0.852 90.971-9.392 29.645-27.984 55.523-53.083 73.882-25.095 18.359-55.391 28.244-86.484 28.222h-46.109c-16.699 0-31.276 11.308-35.423 27.48-9.626 37.508-27.633 72.345-52.67 101.886s-56.448 53.018-91.867 68.663c-35.423 15.645-73.933 23.051-112.633 21.659-38.697-1.392-76.575-11.544-110.781-29.693s-63.851-43.822-86.7-75.085c-22.849-31.263-38.308-67.301-45.214-105.405s-5.077-77.275 5.348-114.567c10.425-37.296 29.174-71.739 54.836-100.736 13.385-15.126 11.974-38.239-3.152-51.624s-38.238-11.973-51.623 3.152c-32.994 37.285-57.1 81.565-70.503 129.514s-15.754 98.315-6.876 147.302c8.878 48.991 28.754 95.327 58.132 135.523s67.491 73.204 111.471 96.538c43.98 23.334 92.68 36.387 142.437 38.177z" />
<glyph unicode="&#xe93d;" glyph-name="Fechar" d="M757.288 700.628c14.281-14.282 14.281-37.438 0-51.72l-438.857-438.856c-14.282-14.281-37.438-14.281-51.72 0s-14.282 37.438 0 51.719l438.858 438.857c14.281 14.282 37.438 14.282 51.719 0zM266.711 700.628c14.282 14.282 37.438 14.282 51.72 0l438.857-438.857c14.281-14.281 14.281-37.438 0-51.719s-37.438-14.281-51.719 0l-438.858 438.856c-14.282 14.282-14.282 37.438 0 51.72z" />
<glyph unicode="&#xe93e;" glyph-name="Filtro-Controles" horiz-adv-x="989" d="M762.654 359.724c19.502 0 35.31-15.808 35.31-35.31v-176.552c0-19.502-15.808-35.31-35.31-35.31s-35.31 15.808-35.31 35.31v176.552c0 19.502 15.808 35.31 35.31 35.31zM621.413 324.414c0 19.502 15.808 35.31 35.31 35.31h211.862c19.502 0 35.31-15.808 35.31-35.31s-15.808-35.31-35.31-35.31h-211.862c-19.502 0-35.31 15.808-35.31 35.31zM197.69 430.345c19.502 0 35.31-15.808 35.31-35.31v-247.172c0-19.502-15.809-35.31-35.31-35.31s-35.31 15.808-35.31 35.31v247.172c0 19.502 15.809 35.31 35.31 35.31zM56.448 395.034c0 19.502 15.809 35.31 35.31 35.31h211.862c19.502 0 35.31-15.808 35.31-35.31s-15.809-35.31-35.31-35.31h-211.862c-19.501 0-35.31 15.808-35.31 35.31zM480.171 500.966c19.502 0 35.31-15.808 35.31-35.31v-317.793c0-19.502-15.808-35.31-35.31-35.31s-35.31 15.808-35.31 35.31v317.793c0 19.502 15.808 35.31 35.31 35.31zM338.931 606.897c0 19.501 15.807 35.31 35.309 35.31h211.862c19.502 0 35.31-15.809 35.31-35.31s-15.808-35.31-35.31-35.31h-211.862c-19.502 0-35.309 15.808-35.309 35.31zM762.654 818.759c19.502 0 35.31-15.809 35.31-35.31v-317.793c0-19.502-15.808-35.31-35.31-35.31s-35.31 15.808-35.31 35.31v317.793c0 19.501 15.808 35.31 35.31 35.31zM480.171 818.759c19.502 0 35.31-15.809 35.31-35.31v-176.552c0-19.502-15.808-35.31-35.31-35.31s-35.31 15.808-35.31 35.31v176.552c0 19.501 15.808 35.31 35.31 35.31zM197.69 818.759c19.502 0 35.31-15.809 35.31-35.31v-247.172c0-19.502-15.809-35.31-35.31-35.31s-35.31 15.808-35.31 35.31v247.172c0 19.501 15.809 35.31 35.31 35.31z" />
<glyph unicode="&#xe93f;" glyph-name="Filtro-Funil" horiz-adv-x="989" d="M109.211 798.31c5.786 12.47 18.283 20.449 32.030 20.449h706.207c13.746 0 26.246-7.979 32.030-20.449 5.787-12.471 3.81-27.165-5.067-37.662l-274.135-324.162v-288.623c0-12.239-6.335-23.601-16.748-30.039-10.409-6.434-23.407-7.016-34.353-1.543l-141.241 70.621c-11.963 5.982-19.52 18.206-19.52 31.582v218.003l-274.134 324.162c-8.877 10.497-10.854 25.192-5.068 37.662zM217.346 748.138l233.341-275.926c5.388-6.374 8.347-14.453 8.347-22.8v-209.108l70.621-35.31v244.418c0 8.347 2.959 16.426 8.347 22.8l233.341 275.926h-553.997z" />
<glyph unicode="&#xe940;" glyph-name="Hashtag" horiz-adv-x="989" d="M176.552 359.724c0 19.502 15.809 35.31 35.31 35.31h564.966c19.502 0 35.31-15.808 35.31-35.31s-15.808-35.31-35.31-35.31h-564.966c-19.501 0-35.31 15.808-35.31 35.31zM176.552 571.586c0 19.502 15.809 35.31 35.31 35.31h564.966c19.502 0 35.31-15.808 35.31-35.31s-15.808-35.31-35.31-35.31h-564.966c-19.501 0-35.31 15.808-35.31 35.31zM639.488 818.54c19.382-2.154 33.351-19.612 31.197-38.994l-70.621-635.586c-2.154-19.382-19.611-33.351-38.993-31.197-19.385 2.154-33.351 19.611-31.197 38.993l70.621 635.588c2.154 19.382 19.611 33.349 38.993 31.195zM427.626 818.54c19.382-2.154 33.351-19.612 31.197-38.994l-70.621-635.586c-2.154-19.382-19.611-33.351-38.995-31.197-19.382 2.154-33.349 19.611-31.195 38.993l70.621 635.588c2.154 19.382 19.611 33.349 38.993 31.195z" />
<glyph unicode="&#xe941;" glyph-name="Home" d="M489.549 849.921c13.206 10.271 31.696 10.271 44.902 0l329.143-256.001c8.909-6.927 14.12-17.58 14.12-28.866v-402.286c0-29.1-11.56-57.004-32.135-77.579s-48.479-32.135-77.579-32.135h-512c-29.098 0-57.004 11.56-77.58 32.135s-32.135 48.479-32.135 77.579v402.286c0 11.286 5.21 21.939 14.119 28.866l329.144 256.001zM219.429 547.167v-384.399c0-9.699 3.853-19.003 10.711-25.86 6.859-6.861 16.161-10.712 25.86-10.712h512c9.699 0 19.003 3.851 25.86 10.712 6.857 6.857 10.712 16.161 10.712 25.86v384.399l-292.571 227.555-292.571-227.555zM365.714 455.34c0 20.198 16.373 36.571 36.571 36.571h219.429c20.198 0 36.571-16.373 36.571-36.571v-365.714c0-20.198-16.373-36.571-36.571-36.571s-36.571 16.373-36.571 36.571v329.143h-146.286v-329.143c0-20.198-16.373-36.571-36.571-36.571s-36.571 16.373-36.571 36.571v365.714z" />
<glyph unicode="&#xe942;" glyph-name="Link-1" horiz-adv-x="989" d="M519.722 794.597c39.957 38.592 93.474 59.947 149.024 59.464s108.689-22.764 147.968-62.045c39.283-39.281 61.564-92.418 62.047-147.968 0.48-55.548-20.872-109.068-59.466-149.025l-0.431-0.438-105.924-105.924c-21.479-21.486-47.326-38.103-75.79-48.721s-58.88-14.989-89.183-12.818c-30.3 2.168-59.784 10.83-86.443 25.395s-49.876 34.696-68.071 59.025c-11.684 15.614-8.492 37.743 7.122 49.424 15.618 11.681 37.747 8.492 49.427-7.126 12.129-16.218 27.609-29.636 45.381-39.346 17.775-9.71 37.429-15.487 57.63-16.931 20.201-1.448 40.48 1.465 59.456 8.545s36.207 18.157 50.526 32.478l105.705 105.709c25.604 26.613 39.763 62.203 39.442 99.139-0.321 37.033-15.176 72.458-41.363 98.645s-61.613 41.042-98.647 41.363c-36.952 0.321-72.556-13.853-99.173-39.475l-60.543-60.191c-13.831-13.749-36.19-13.684-49.936 0.145-13.75 13.83-13.686 36.187 0.145 49.936l61.097 60.738zM347.549 596.060c28.463 10.618 58.88 14.991 89.179 12.821 30.303-2.172 59.784-10.833 86.447-25.399 26.659-14.566 49.876-34.692 68.071-59.021 11.681-15.614 8.492-37.743-7.126-49.424-15.614-11.681-37.743-8.492-49.424 7.122-12.133 16.218-27.609 29.64-45.381 39.35-17.775 9.71-37.429 15.484-57.63 16.931s-40.48-1.469-59.456-8.545c-18.976-7.080-36.207-18.157-50.526-32.482l-105.706-105.705c-25.601-26.617-39.763-62.203-39.442-99.141 0.322-37.033 15.176-72.457 41.363-98.647 26.188-26.186 61.613-41.041 98.645-41.363 36.937-0.321 72.526 13.842 99.139 39.442l60.155 60.151c13.789 13.792 36.144 13.792 49.936 0 13.789-13.789 13.789-36.147 0-49.936l-60.819-60.811c-39.957-38.591-93.477-59.946-149.025-59.463-55.55 0.484-108.687 22.765-147.968 62.044-39.281 39.283-61.562 92.418-62.045 147.968s20.872 109.067 59.464 149.024l0.43 0.438 105.926 105.928c0.002 0-0.001 0 0 0 21.477 21.483 47.328 38.103 75.79 48.718z" />
<glyph unicode="&#xe943;" glyph-name="Link-2" d="M277.893 594.286c-38.797 0-76.006-15.411-103.439-42.847-27.434-27.432-42.846-64.64-42.846-103.439s15.412-76.006 42.846-103.439c13.584-13.586 29.71-24.36 47.458-31.711s36.77-11.136 55.981-11.136h109.713c20.198 0 36.571-16.373 36.571-36.571s-16.373-36.571-36.571-36.571h-109.713c-28.816 0-57.349 5.676-83.972 16.702-26.622 11.030-50.812 27.191-71.188 47.568-41.151 41.15-64.269 96.962-64.269 155.158s23.118 114.008 64.269 155.159c41.151 41.151 96.963 64.269 155.159 64.269h109.713c20.198 0 36.571-16.374 36.571-36.571s-16.373-36.571-36.571-36.571h-109.713zM570.463 630.857c0 20.198 16.373 36.571 36.571 36.571h109.714c28.818 0 57.351-5.676 83.972-16.703 26.624-11.027 50.812-27.19 71.19-47.566 20.374-20.375 36.539-44.564 47.565-71.188s16.702-55.157 16.702-83.972c0-28.815-5.676-57.348-16.702-83.972s-27.191-50.812-47.565-71.186c-20.378-20.378-44.566-36.539-71.19-47.568-26.62-11.026-55.153-16.702-83.972-16.702h-109.714c-20.198 0-36.571 16.373-36.571 36.571s16.373 36.571 36.571 36.571h109.714c19.211 0 38.235 3.785 55.984 11.136s33.872 18.125 47.459 31.711c13.583 13.583 24.357 29.711 31.711 47.459 7.351 17.748 11.132 36.769 11.132 55.98s-3.781 38.232-11.132 55.98c-7.355 17.748-18.128 33.876-31.711 47.459-13.586 13.586-29.711 24.36-47.459 31.711s-36.773 11.136-55.984 11.136h-109.714c-20.198 0-36.571 16.374-36.571 36.571zM314.464 448c0 20.198 16.374 36.571 36.571 36.571h292.57c20.198 0 36.571-16.373 36.571-36.571s-16.373-36.571-36.571-36.571h-292.57c-20.198 0-36.571 16.373-36.571 36.571z" />
<glyph unicode="&#xe944;" glyph-name="Link-Externo" horiz-adv-x="989" d="M247.172 642.207c-9.365 0-18.346-3.72-24.968-10.342s-10.342-15.603-10.342-24.968v-388.414c0-9.364 3.72-18.347 10.342-24.968s15.603-10.342 24.968-10.342h388.414c9.364 0 18.347 3.722 24.968 10.342s10.342 15.604 10.342 24.968v211.862c0 19.502 15.808 35.31 35.31 35.31s35.31-15.808 35.31-35.31v-211.862c0-28.096-11.162-55.038-31.027-74.904s-46.807-31.027-74.904-31.027h-388.414c-28.095 0-55.039 11.162-74.905 31.027s-31.026 46.811-31.026 74.904v388.414c0 28.095 11.161 55.039 31.026 74.905s46.81 31.026 74.905 31.026h211.862c19.502 0 35.31-15.809 35.31-35.31s-15.808-35.31-35.31-35.31h-211.862zM564.966 783.448c0 19.501 15.808 35.31 35.31 35.31h211.862c19.502 0 35.31-15.809 35.31-35.31v-211.862c0-19.502-15.808-35.31-35.31-35.31s-35.31 15.808-35.31 35.31v176.552h-176.552c-19.502 0-35.31 15.809-35.31 35.31zM837.106 808.417c13.789-13.79 13.789-36.147 0-49.937l-388.414-388.413c-13.789-13.789-36.147-13.789-49.936 0s-13.789 36.147 0 49.936l388.414 388.414c13.789 13.789 36.147 13.789 49.936 0z" />
<glyph unicode="&#xe945;" glyph-name="List" horiz-adv-x="989" d="M317.793 253.793c0 19.502 15.809 35.31 35.31 35.31h459.034c19.502 0 35.31-15.808 35.31-35.31s-15.808-35.31-35.31-35.31h-459.034c-19.501 0-35.31 15.808-35.31 35.31zM141.241 253.793c0 19.502 15.809 35.31 35.31 35.31h0.353c19.501 0 35.31-15.808 35.31-35.31s-15.809-35.31-35.31-35.31h-0.353c-19.501 0-35.31 15.808-35.31 35.31zM317.793 465.655c0 19.502 15.809 35.31 35.31 35.31h459.034c19.502 0 35.31-15.808 35.31-35.31s-15.808-35.31-35.31-35.31h-459.034c-19.501 0-35.31 15.808-35.31 35.31zM141.241 465.655c0 19.502 15.809 35.31 35.31 35.31h0.353c19.501 0 35.31-15.808 35.31-35.31s-15.809-35.31-35.31-35.31h-0.353c-19.501 0-35.31 15.808-35.31 35.31zM317.793 677.517c0 19.501 15.809 35.31 35.31 35.31h459.034c19.502 0 35.31-15.809 35.31-35.31s-15.808-35.31-35.31-35.31h-459.034c-19.501 0-35.31 15.809-35.31 35.31zM141.241 677.517c0 19.501 15.809 35.31 35.31 35.31h0.353c19.501 0 35.31-15.809 35.31-35.31s-15.809-35.31-35.31-35.31h-0.353c-19.501 0-35.31 15.809-35.31 35.31z" />
<glyph unicode="&#xe946;" glyph-name="Lixeira-1" horiz-adv-x="989" d="M374.24 748.138c0 19.501 15.808 35.31 35.31 35.31h141.241c19.502 0 35.31-15.809 35.31-35.31v-35.31h-211.862v35.31zM303.621 748.138v-35.31h-141.241c-19.501 0-35.31-15.809-35.31-35.31s15.809-35.31 35.31-35.31h35.31v-459.034c0-28.096 11.161-55.038 31.026-74.904s46.81-31.027 74.905-31.027h353.102c28.096 0 55.038 11.162 74.907 31.027 19.866 19.866 31.024 46.807 31.024 74.904v459.034h35.31c19.502 0 35.31 15.809 35.31 35.31s-15.808 35.31-35.31 35.31h-141.241v35.31c0 28.095-11.158 55.039-31.024 74.905-19.869 19.866-46.811 31.026-74.907 31.026h-141.241c-28.093 0-55.038-11.161-74.903-31.026s-31.026-46.81-31.026-74.905zM268.31 183.172v459.034h423.723v-459.034c0-9.364-3.718-18.347-10.342-24.968-6.621-6.621-15.604-10.342-24.968-10.342h-353.102c-9.365 0-18.346 3.722-24.968 10.342s-10.342 15.604-10.342 24.968z" />
<glyph unicode="&#xe947;" glyph-name="Lixeira-2" horiz-adv-x="989" d="M388.414 748.138c0 19.501 15.808 35.31 35.31 35.31h141.241c19.502 0 35.31-15.809 35.31-35.31v-35.31h-211.862v35.31zM317.793 748.138v-35.31h-141.241c-19.501 0-35.31-15.809-35.31-35.31s15.809-35.31 35.31-35.31h35.31v-459.034c0-28.096 11.161-55.038 31.026-74.904s46.81-31.027 74.905-31.027h353.103c28.096 0 55.038 11.162 74.904 31.027s31.027 46.807 31.027 74.904v459.034h35.31c19.502 0 35.31 15.809 35.31 35.31s-15.808 35.31-35.31 35.31h-141.241v35.31c0 28.095-11.162 55.039-31.027 74.905s-46.811 31.026-74.904 31.026h-141.241c-28.093 0-55.038-11.161-74.905-31.026s-31.026-46.81-31.026-74.905zM282.483 183.172v459.034h423.724v-459.034c0-9.364-3.722-18.347-10.342-24.968s-15.604-10.342-24.968-10.342h-353.103c-9.365 0-18.346 3.722-24.968 10.342s-10.342 15.604-10.342 24.968zM600.276 289.103v211.862c0 19.502-15.808 35.31-35.31 35.31s-35.31-15.808-35.31-35.31v-211.862c0-19.502 15.808-35.31 35.31-35.31s35.31 15.808 35.31 35.31zM423.724 536.276c19.502 0 35.31-15.808 35.31-35.31v-211.862c0-19.502-15.808-35.31-35.31-35.31s-35.31 15.808-35.31 35.31v211.862c0 19.502 15.808 35.31 35.31 35.31z" />
<glyph unicode="&#xe948;" glyph-name="Loader" horiz-adv-x="989" d="M494.345 289.103c19.502 0 35.31-15.808 35.31-35.31v-141.241c0-19.502-15.808-35.31-35.31-35.31s-35.31 15.808-35.31 35.31v141.241c0 19.502 15.808 35.31 35.31 35.31zM619.1 340.907c13.792 13.789 36.147 13.789 49.936 0l99.928-99.928c13.792-13.789 13.792-36.147 0-49.936-13.789-13.789-36.144-13.789-49.936 0l-99.928 99.928c-13.789 13.789-13.789 36.147 0 49.936zM369.604 340.907c13.789-13.789 13.789-36.147 0-49.936l-99.929-99.928c-13.789-13.789-36.147-13.789-49.936 0s-13.79 36.147 0 49.936l99.928 99.928c13.789 13.789 36.148 13.789 49.937 0zM670.897 465.655c0 19.502 15.808 35.31 35.31 35.31h141.241c19.502 0 35.31-15.808 35.31-35.31s-15.808-35.31-35.31-35.31h-141.241c-19.502 0-35.31 15.808-35.31 35.31zM105.931 465.655c0 19.502 15.809 35.31 35.31 35.31h141.241c19.501 0 35.31-15.808 35.31-35.31s-15.809-35.31-35.31-35.31h-141.241c-19.501 0-35.31 15.808-35.31 35.31zM768.964 740.27c13.792-13.79 13.792-36.147 0-49.937l-99.928-99.927c-13.789-13.792-36.144-13.792-49.936 0-13.789 13.789-13.789 36.145 0 49.935l99.928 99.929c13.792 13.789 36.147 13.789 49.936 0zM219.739 740.27c13.789 13.789 36.147 13.789 49.936 0l99.929-99.929c13.789-13.789 13.789-36.146 0-49.935-13.789-13.792-36.148-13.792-49.937 0l-99.928 99.927c-13.79 13.79-13.79 36.147 0 49.937zM494.345 854.069c19.502 0 35.31-15.809 35.31-35.31v-141.241c0-19.501-15.808-35.31-35.31-35.31s-35.31 15.809-35.31 35.31v141.241c0 19.501 15.808 35.31 35.31 35.31z" />
<glyph unicode="&#xe949;" glyph-name="Lupa" horiz-adv-x="989" d="M444.861 748.138c-136.508 0-247.171-110.663-247.171-247.172s110.663-247.172 247.171-247.172c136.51 0 247.172 110.663 247.172 247.172s-110.663 247.172-247.172 247.172zM127.069 500.966c0 175.512 142.281 317.793 317.792 317.793 175.514 0 317.793-142.281 317.793-317.793 0-175.514-142.28-317.793-317.793-317.793-175.511 0-317.792 142.28-317.792 317.793zM619.393 326.434c13.792 13.789 36.147 13.789 49.936 0l153.6-153.6c13.792-13.789 13.792-36.147 0-49.936-13.789-13.789-36.144-13.789-49.936 0l-153.6 153.6c-13.789 13.789-13.789 36.147 0 49.936z" />
<glyph unicode="&#xe94a;" glyph-name="Marcador" d="M314.464 740.571c-9.699 0-19.001-3.853-25.86-10.711s-10.712-16.161-10.712-25.86v-514.077l198.172 141.55c12.716 9.084 29.798 9.084 42.514 0l198.17-141.55v514.077c0 9.699-3.851 19.001-10.712 25.86-6.857 6.858-16.161 10.711-25.86 10.711h-365.713zM236.884 781.58c20.575 20.575 48.482 32.135 77.58 32.135h365.713c29.1 0 57.004-11.559 77.583-32.135 20.575-20.575 32.132-48.482 32.132-77.58v-585.143c0-13.7-7.654-26.251-19.836-32.519s-26.843-5.204-37.99 2.761l-234.745 167.673-234.742-167.673c-11.147-7.965-25.81-9.029-37.991-2.761s-19.837 18.82-19.837 32.519v585.143c0 29.098 11.559 57.004 32.135 77.58z" />
<glyph unicode="&#xe94b;" glyph-name="Menu" horiz-adv-x="989" d="M141.241 253.793c0 19.502 15.809 35.31 35.31 35.31h635.586c19.502 0 35.31-15.808 35.31-35.31s-15.808-35.31-35.31-35.31h-635.586c-19.501 0-35.31 15.808-35.31 35.31zM141.241 465.655c0 19.502 15.809 35.31 35.31 35.31h635.586c19.502 0 35.31-15.808 35.31-35.31s-15.808-35.31-35.31-35.31h-635.586c-19.501 0-35.31 15.808-35.31 35.31zM141.241 677.517c0 19.501 15.809 35.31 35.31 35.31h635.586c19.502 0 35.31-15.809 35.31-35.31s-15.808-35.31-35.31-35.31h-635.586c-19.501 0-35.31 15.809-35.31 35.31z" />
<glyph unicode="&#xe94c;" glyph-name="Minus" d="M204.75 448c0 20.198 16.374 36.571 36.571 36.571h511.999c20.198 0 36.571-16.373 36.571-36.571s-16.373-36.571-36.571-36.571h-511.999c-20.198 0-36.571 16.373-36.571 36.571z" />
<glyph unicode="&#xe94d;" glyph-name="Minus-circle" d="M512 777.143c-181.78 0-329.143-147.362-329.143-329.143 0-181.782 147.362-329.143 329.143-329.143 181.782 0 329.143 147.361 329.143 329.143 0 181.78-147.361 329.143-329.143 329.143zM109.714 448c0 222.176 180.11 402.286 402.286 402.286s402.286-180.11 402.286-402.286c0-222.175-180.111-402.286-402.286-402.286s-402.286 180.111-402.286 402.286zM329.143 448c0 20.198 16.374 36.571 36.571 36.571h292.571c20.198 0 36.571-16.373 36.571-36.571s-16.373-36.571-36.571-36.571h-292.571c-20.198 0-36.571 16.373-36.571 36.571z" />
<glyph unicode="&#xe94e;" glyph-name="More-Horizontal" horiz-adv-x="989" d="M670.897 465.655c0 39.004 31.617 70.621 70.621 70.621s70.621-31.617 70.621-70.621c0-39.004-31.617-70.621-70.621-70.621s-70.621 31.617-70.621 70.621zM423.724 465.655c0 39.004 31.617 70.621 70.621 70.621s70.621-31.617 70.621-70.621c0-39.004-31.617-70.621-70.621-70.621s-70.621 31.617-70.621 70.621zM176.552 465.655c0 39.004 31.618 70.621 70.621 70.621s70.621-31.617 70.621-70.621c0-39.004-31.618-70.621-70.621-70.621s-70.621 31.617-70.621 70.621z" />
<glyph unicode="&#xe94f;" glyph-name="More-Vertical" horiz-adv-x="989" d="M423.724 218.483c0 39.004 31.617 70.621 70.621 70.621s70.621-31.617 70.621-70.621c0-39.004-31.617-70.621-70.621-70.621s-70.621 31.617-70.621 70.621zM423.724 465.655c0 39.004 31.617 70.621 70.621 70.621s70.621-31.617 70.621-70.621c0-39.004-31.617-70.621-70.621-70.621s-70.621 31.617-70.621 70.621zM423.724 712.828c0 39.003 31.617 70.621 70.621 70.621s70.621-31.618 70.621-70.621c0-39.003-31.617-70.621-70.621-70.621s-70.621 31.618-70.621 70.621z" />
<glyph unicode="&#xe950;" glyph-name="Plus" d="M497.32 740.571c20.198 0 36.571-16.374 36.571-36.571v-512c0-20.198-16.373-36.571-36.571-36.571s-36.571 16.373-36.571 36.571v512c0 20.198 16.373 36.571 36.571 36.571zM204.75 448c0 20.198 16.374 36.571 36.571 36.571h511.999c20.198 0 36.571-16.373 36.571-36.571s-16.373-36.571-36.571-36.571h-511.999c-20.198 0-36.571 16.373-36.571 36.571z" />
<glyph unicode="&#xe951;" glyph-name="Settings" horiz-adv-x="989" d="M494.345 536.276c-39.004 0-70.621-31.617-70.621-70.621s31.617-70.621 70.621-70.621c39.004 0 70.621 31.617 70.621 70.621s-31.617 70.621-70.621 70.621zM353.103 465.655c0 78.004 63.237 141.241 141.241 141.241s141.241-63.237 141.241-141.241c0-78.004-63.237-141.241-141.241-141.241s-141.241 63.237-141.241 141.241zM494.345 818.759c-9.364 0-18.347-3.72-24.968-10.342s-10.342-15.603-10.342-24.968v-6.144c-0.074-18.249-5.48-36.078-15.558-51.293-10.074-15.215-24.378-27.152-41.154-34.34-2.984-1.28-6.126-2.138-9.333-2.558-15.24-5.337-31.649-6.653-47.62-3.757-18.397 3.336-35.372 12.106-48.738 25.18l-0.278 0.272-2.117 2.12c-3.279 3.283-7.187 5.901-11.474 7.679s-8.881 2.691-13.522 2.691c-4.64 0-9.235-0.915-13.522-2.691s-8.181-4.382-11.46-7.664l-0.028-0.028c-3.283-3.279-5.887-7.174-7.664-11.46s-2.691-8.881-2.691-13.522c0-4.64 0.915-9.235 2.691-13.522s4.382-8.181 7.664-11.46l2.408-2.408c13.074-13.366 21.842-30.343 25.178-48.739 3.269-18.029 1.171-36.617-6.021-53.453-6.552-17.178-18.025-32.058-32.994-42.764-15.272-10.921-33.477-16.998-52.248-17.436l-0.826-0.011h-3.178c-9.365 0-18.346-3.722-24.968-10.342s-10.342-15.604-10.342-24.968c0-9.364 3.72-18.347 10.342-24.968s15.603-10.342 24.968-10.342h6.144c18.249-0.074 36.078-5.48 51.293-15.558 15.162-10.039 27.069-24.279 34.265-40.978 7.488-17.062 9.714-35.971 6.389-54.304-3.336-18.397-12.106-35.37-25.18-48.739l-0.272-0.279-2.12-2.115c-3.283-3.28-5.901-7.189-7.678-11.476s-2.691-8.881-2.691-13.52c0-4.64 0.915-9.234 2.691-13.52s4.382-8.181 7.664-11.462l0.028-0.028c3.279-3.284 7.174-5.886 11.46-7.662 4.287-1.78 8.882-2.694 13.522-2.694s9.235 0.915 13.522 2.694c4.287 1.776 8.181 4.378 11.46 7.662l2.408 2.408c13.366 13.075 30.343 21.843 48.739 25.18 18.029 3.266 36.617 1.169 53.453-6.020 17.178-6.554 32.058-18.026 42.764-32.998 10.921-15.272 16.998-33.474 17.436-52.245l0.011-0.826v-3.178c0-9.364 3.722-18.347 10.342-24.968s15.604-10.342 24.968-10.342c9.364 0 18.347 3.722 24.968 10.342s10.342 15.604 10.342 24.968v6.144c0.074 18.248 5.48 36.077 15.558 51.292 10.042 15.162 24.283 27.072 40.981 34.269 17.058 7.486 35.967 9.71 54.3 6.388 18.397-3.337 35.37-12.108 48.739-25.18l2.394-2.394c3.28-3.284 7.189-5.9 11.476-7.676 4.287-1.78 8.881-2.694 13.52-2.694s9.234 0.915 13.52 2.694c4.287 1.776 8.181 4.378 11.462 7.662l0.028 0.028c3.284 3.28 5.886 7.175 7.662 11.462 1.78 4.287 2.694 8.881 2.694 13.52s-0.915 9.234-2.694 13.52c-1.776 4.287-4.378 8.181-7.662 11.462l-2.408 2.408c-13.075 13.365-21.843 30.342-25.18 48.739-3.323 18.333-1.098 37.242 6.388 54.3 7.196 16.698 19.106 30.939 34.269 40.981 15.215 10.078 33.043 15.484 51.292 15.558h3.319c9.364 0 18.347 3.722 24.968 10.342s10.342 15.604 10.342 24.968c0 9.364-3.722 18.347-10.342 24.968s-15.604 10.342-24.968 10.342h-6.144c-18.248 0.074-36.077 5.48-51.292 15.558-15.215 10.074-27.15 24.378-34.339 41.154-1.282 2.984-2.14 6.126-2.56 9.333-5.335 15.24-6.652 31.649-3.757 47.62 3.337 18.397 12.108 35.372 25.18 48.738l0.272 0.278 2.122 2.117c3.284 3.28 5.9 7.188 7.676 11.474 1.78 4.287 2.694 8.882 2.694 13.522s-0.915 9.235-2.694 13.522c-1.776 4.287-4.378 8.181-7.662 11.46l-0.028 0.028c-3.28 3.283-7.175 5.887-11.462 7.664s-8.881 2.691-13.52 2.691c-4.64 0-9.234-0.915-13.52-2.691s-8.181-4.382-11.462-7.664l-2.408-2.408c-13.365-13.074-30.342-21.842-48.739-25.178-18.333-3.324-37.242-1.099-54.304 6.389-16.698 7.197-30.939 19.103-40.978 34.265-10.078 15.215-15.484 33.044-15.558 51.293v3.319c0 9.365-3.722 18.346-10.342 24.968s-15.604 10.342-24.968 10.342zM755.641 359.724l32.305-14.258c-1.854-4.195-2.405-8.849-1.585-13.361 0.809-4.463 2.92-8.584 6.070-11.847l1.935-1.935c0.004-0.004-0.004 0.004 0 0 9.845-9.834 17.666-21.529 22.994-34.382 5.332-12.86 8.075-26.645 8.075-40.565s-2.744-27.704-8.075-40.565c-5.332-12.86-13.146-24.544-22.994-34.382l-24.954 24.982 24.982-24.954c-9.837-9.848-21.522-17.662-34.382-22.994s-26.645-8.075-40.565-8.075c-13.919 0-27.704 2.744-40.565 8.075-12.853 5.328-24.534 13.135-34.368 22.98-0.004 0.004 0.004-0.004 0 0l-1.949 1.949c-3.263 3.15-7.383 5.261-11.847 6.070-4.513 0.819-9.167 0.268-13.361-1.585l-0.346-0.152c-4.117-1.762-7.627-4.689-10.095-8.422-2.465-3.718-3.789-8.072-3.817-12.528v-5.914c0-28.096-11.162-55.038-31.027-74.904s-46.807-31.027-74.904-31.027c-28.096 0-55.038 11.162-74.904 31.027s-31.027 46.807-31.027 74.904v2.669c-0.166 4.491-1.649 8.838-4.269 12.5-2.677 3.743-6.423 6.596-10.745 8.188-0.699 0.254-1.388 0.533-2.069 0.833-4.195 1.854-8.849 2.405-13.361 1.585-4.463-0.809-8.585-2.92-11.847-6.070l-1.935-1.935c-0.005-0.004 0.005 0.004 0 0-9.835-9.845-21.527-17.666-34.381-22.994-12.86-5.332-26.644-8.075-40.565-8.075s-27.706 2.744-40.565 8.075c-12.848 5.325-24.521 13.128-34.353 22.966-9.849 9.837-17.663 21.522-22.993 34.382s-8.075 26.645-8.075 40.565c0 13.919 2.744 27.704 8.075 40.565s13.144 24.544 22.993 34.382l1.936 1.935c3.149 3.263 5.262 7.383 6.071 11.847 0.818 4.513 0.266 9.167-1.586 13.361l-0.153 0.346c-1.763 4.117-4.689 7.627-8.421 10.095-3.717 2.465-8.071 3.789-12.529 3.817h-5.914c-28.095 0-55.039 11.162-74.905 31.027s-31.026 46.811-31.026 74.904c0 28.093 11.161 55.038 31.026 74.904s46.81 31.027 74.905 31.027h2.671c4.491 0.166 8.837 1.649 12.497 4.269 3.746 2.677 6.599 6.423 8.189 10.745 0.257 0.699 0.536 1.388 0.836 2.069 1.852 4.195 2.404 8.849 1.586 13.361-0.809 4.463-2.923 8.585-6.072 11.846l-1.935 1.935c-9.849 9.838-17.663 21.521-22.993 34.381s-8.075 26.644-8.075 40.565c0 13.921 2.744 27.706 8.075 40.565 5.328 12.854 13.137 24.532 22.979 34.367 9.835 9.842 21.514 17.651 34.367 22.979 12.86 5.331 26.644 8.075 40.565 8.075s27.706-2.744 40.565-8.075c12.86-5.331 24.543-13.144 34.381-22.993l1.935-1.935c3.262-3.149 7.383-5.262 11.846-6.072 4.513-0.818 9.167-0.266 13.361 1.586 2.263 0.998 4.615 1.753 7.023 2.257 2.461 1.671 4.587 3.813 6.243 6.317 2.465 3.717 3.789 8.071 3.817 12.529v5.914c0 28.095 11.162 55.039 31.027 74.905s46.811 31.026 74.904 31.026c28.093 0 55.038-11.161 74.904-31.026s31.027-46.81 31.027-74.905v-3.090c0.028-4.458 1.352-8.811 3.817-12.529 2.468-3.732 5.978-6.66 10.092-8.423l0.35-0.149c4.195-1.852 8.849-2.406 13.361-1.588 4.463 0.809 8.584 2.923 11.847 6.071l1.935 1.936c9.837 9.849 21.522 17.663 34.382 22.993s26.645 8.075 40.565 8.075c13.919 0 27.704-2.744 40.565-8.075s24.544-13.144 34.382-22.993c9.837-9.832 17.641-21.505 22.966-34.353 5.332-12.86 8.075-26.644 8.075-40.565s-2.744-27.706-8.075-40.565c-5.328-12.854-13.135-24.532-22.98-34.367-0.004-0.005 0.004 0.005 0 0l-1.949-1.949c-3.15-3.262-5.261-7.383-6.070-11.846-0.819-4.513-0.268-9.167 1.585-13.361 0.996-2.263 1.751-4.615 2.256-7.023 1.67-2.461 3.814-4.587 6.317-6.243 3.718-2.465 8.072-3.789 12.528-3.817h5.914c28.096 0 55.038-11.162 74.904-31.027s31.027-46.807 31.027-74.904c0-28.096-11.162-55.038-31.027-74.904s-46.807-31.027-74.904-31.027h-3.090c-4.456-0.028-8.81-1.352-12.528-3.817-3.732-2.468-6.66-5.978-8.425-10.092l-32.454 13.909z" />
<glyph unicode="&#xe952;" glyph-name="Share" horiz-adv-x="989" d="M176.552 395.034c19.501 0 35.31-15.808 35.31-35.31v-141.241c0-9.364 3.72-18.347 10.342-24.968s15.603-10.342 24.968-10.342h494.345c9.364 0 18.347 3.722 24.968 10.342s10.342 15.604 10.342 24.968v141.241c0 19.502 15.808 35.31 35.31 35.31s35.31-15.808 35.31-35.31v-141.241c0-28.096-11.162-55.038-31.027-74.904s-46.807-31.027-74.904-31.027h-494.345c-28.095 0-55.039 11.162-74.905 31.027s-31.026 46.811-31.026 74.904v141.241c0 19.502 15.809 35.31 35.31 35.31zM469.377 808.417c13.789 13.789 36.147 13.789 49.936 0l176.552-176.552c13.789-13.79 13.789-36.148 0-49.936s-36.147-13.789-49.936 0l-151.584 151.583-151.583-151.583c-13.79-13.789-36.147-13.789-49.937 0s-13.789 36.146 0 49.936l176.552 176.552zM494.345 818.759c19.502 0 35.31-15.809 35.31-35.31v-423.724c0-19.502-15.808-35.31-35.31-35.31s-35.31 15.808-35.31 35.31v423.724c0 19.501 15.808 35.31 35.31 35.31z" />
<glyph unicode="&#xe953;" glyph-name="Square-Check" d="M903.574 773.771c14.281-14.282 14.281-37.438 0-51.72l-365.714-365.714c-14.281-14.281-37.438-14.281-51.719 0l-109.714 109.714c-14.282 14.281-14.282 37.438 0 51.719s37.438 14.281 51.719 0l83.855-83.855 339.855 339.854c14.281 14.282 37.438 14.282 51.719 0zM256 747.911c-9.699 0-19.001-3.853-25.86-10.711s-10.711-16.161-10.711-25.86v-511.999c0-9.699 3.853-19.003 10.711-25.86 6.859-6.861 16.161-10.712 25.86-10.712h512c9.699 0 19.003 3.851 25.86 10.712 6.857 6.857 10.712 16.161 10.712 25.86v256c0 20.198 16.373 36.571 36.571 36.571s36.571-16.373 36.571-36.571v-256c0-29.1-11.56-57.004-32.135-77.579s-48.479-32.135-77.579-32.135h-512c-29.098 0-57.004 11.56-77.58 32.135s-32.135 48.479-32.135 77.579v511.999c0 29.098 11.559 57.004 32.135 77.58s48.482 32.135 77.58 32.135h402.286c20.198 0 36.571-16.373 36.571-36.571s-16.373-36.571-36.571-36.571h-402.286z" />
</font>
</defs>
</svg>
